<?xml version="1.0" encoding="utf-8"?>
<!-- Generator: Adobe Illustrator 24.0.2, SVG Export Plug-In . SVG Version: 6.00 Build 0)  -->
<svg version="1.1" xmlns="http://www.w3.org/2000/svg" xmlns:xlink="http://www.w3.org/1999/xlink" x="0px" y="0px"
	 viewBox="0 0 141.7 178.9" style="enable-background:new 0 0 141.7 178.9;" xml:space="preserve">
<style type="text/css">
	.st0{fill:#FFFFFF;}
	.st1{fill:#1D1D1B;}
	.st2{fill:#D0043C;}
	.st3{font-family:'Arial-BoldMT';}
	.st4{font-size:30.2884px;}
</style>
<g id="Laag_2">
	<rect class="st0" width="141.7" height="178.9"/>
</g>
<g id="Laag_1">
	<title>F-NL-009_hoofdafsluiter_blussysteem-BL</title>
	<path class="st1" d="M0,0v178.9h141.7V0H0z M4.8,4.9h132.1v133.4H4.8V4.9z M136.9,173.9H4.8v-30.8h132.1V173.9z"/>
	<polygon class="st1" points="129.6,69.1 116.2,69.1 116.2,44.1 70.9,70.5 25.5,44.1 25.5,69.1 12.2,69.1 12.2,75.1 25.5,75.1 
		25.5,99 70.9,72.6 116.2,99 116.2,75.1 129.6,75.1 	"/>
	<polygon class="st2" points="73.6,71.5 114.2,47.9 114.2,95.2 	"/>
	<polygon class="st2" points="68.2,71.5 27.5,47.9 27.5,95.2 	"/>
	<text transform="matrix(0.9905 0 0 1 51.1602 169.212)" class="st1 st3 st4">B</text>
	<text transform="matrix(0.9905 0 0 1 72.8301 169.212)" class="st1 st3 st4">L</text>
</g>
</svg>
