<?xml version="1.0" encoding="utf-8"?>
<!-- Generator: Adobe Illustrator 24.0.2, SVG Export Plug-In . SVG Version: 6.00 Build 0)  -->
<svg version="1.1" xmlns="http://www.w3.org/2000/svg" xmlns:xlink="http://www.w3.org/1999/xlink" x="0px" y="0px"
	 viewBox="0 0 141.7 177.2" style="enable-background:new 0 0 141.7 177.2;" xml:space="preserve">
<style type="text/css">
	.st0{fill:#FFFFFF;}
	.st1{fill:#1D1D1B;}
	.st2{fill:#D0043C;}
	.st3{font-family:'Arial-BoldMT';}
	.st4{font-size:30px;}
</style>
<g id="Laag_2">
	<rect y="0" class="st0" width="141.7" height="177.2"/>
</g>
<g id="Laag_1">
	<title>F011 blussysteem-Hi-Fog</title>
	<path class="st1" d="M0,0v177.2h141.7V0H0z M4.8,4.8h132.1v132.1H4.8V4.8z M136.9,172.2H4.8v-30.5h132.1V172.2z"/>
	<path class="st1" d="M70.8,95.1c1,0,2-0.1,3-0.1V77.7c-1,0-2,0.1-3,0.1s-2-0.1-3-0.1V95C68.8,95,69.8,95.1,70.8,95.1"/>
	<path class="st1" d="M52.8,93.2l6-16.3c-2.1-0.3-4.1-0.7-6.1-1.2l-5.8,16C48.8,92.3,50.8,92.7,52.8,93.2"/>
	<path class="st1" d="M22.9,89l-10.1,12.4c1.8,1,3.6,2,5.4,2.9l10-12.3C26.4,91.1,24.6,90.1,22.9,89"/>
	<path class="st1" d="M91.2,99.9l5.1,14c2-0.4,4-0.9,6-1.4l-5.1-14C95.2,99,93.3,99.5,91.2,99.9"/>
	<path class="st1" d="M113.3,92.1l10,12.3c1.9-0.9,3.7-1.9,5.4-2.9L118.6,89C116.9,90.1,115.1,91.1,113.3,92.1"/>
	<path class="st1" d="M103.6,70.6c-1.9,0.9-3.8,1.7-5.8,2.5l10.9,13.4c1.9-0.9,3.7-1.9,5.4-3L103.6,70.6"/>
	<path class="st1" d="M88.9,75.7c-2,0.4-4,0.8-6.1,1.2l6,16.3c2-0.4,4-0.9,6-1.4L88.9,75.7"/>
	<path class="st1" d="M73.8,116.6v-14.6c-1,0-2,0.1-3,0.1s-2-0.1-3-0.1v14.6c1,0,2,0.1,3,0.1S72.8,116.7,73.8,116.6"/>
	<path class="st1" d="M32.9,86.4L43.8,73c-2-0.8-4-1.6-5.8-2.5l-10.5,13C29.2,84.5,31,85.5,32.9,86.4"/>
	<path class="st1" d="M44.4,98.4l-5.1,14c2,0.5,4,1,6,1.4l5.1-14C48.3,99.4,46.3,99,44.4,98.4"/>
	<path class="st2" d="M41.4,52.7c-2,2.5-3.8,5.2-5.3,8.1h69.3c-1.5-2.9-3.3-5.6-5.3-8.1c-3.5-4.4-7.9-7.9-12.9-10.5
		c-5.1-2.6-10.7-4-16.4-4c-5.7,0.1-11.4,1.4-16.5,4C49.3,44.8,45,48.3,41.4,52.7"/>
	<path class="st1" d="M52.1,37.6c-5.6,2.9-10.5,6.9-14.5,11.7c-3.2,3.9-5.9,8.3-8,12.9L28,65.9h85.7l-1.7-3.6c-2.1-4.6-4.8-9-8-12.9
		c-4-4.9-9-8.9-14.6-11.7c-5.8-2.9-12.2-4.5-18.7-4.5C64.3,33.2,57.9,34.7,52.1,37.6z M41.4,52.6c3.5-4.3,7.9-7.9,12.8-10.5
		c5.1-2.6,10.8-3.9,16.5-4c5.7,0,11.3,1.4,16.4,4c5,2.6,9.4,6.1,12.9,10.5c2,2.5,3.8,5.2,5.3,8.1H36.1
		C37.6,57.9,39.4,55.2,41.4,52.6"/>
	<text transform="matrix(1 0 0 1 21.6698 167.352)" class="st1 st3 st4">Hi-FOG</text>
</g>
</svg>
