<?xml version="1.0" encoding="utf-8"?>
<!-- Generator: Adobe Illustrator 24.0.2, SVG Export Plug-In . SVG Version: 6.00 Build 0)  -->
<svg version="1.1" xmlns="http://www.w3.org/2000/svg" xmlns:xlink="http://www.w3.org/1999/xlink" x="0px" y="0px"
	 viewBox="0 0 141.7 177.2" style="enable-background:new 0 0 141.7 177.2;" xml:space="preserve">
<style type="text/css">
	.st0{fill:#FFFFFF;}
	.st1{fill:#1D1D1B;}
	.st2{fill:#D0043C;}
</style>
<g id="Laag_2">
	<rect y="0" class="st0" width="141.7" height="177.2"/>
</g>
<g id="Laag_1">
	<title>F-NL-009_hoofdafsluiter_blussysteem-S</title>
	<path class="st1" d="M62.1,160.7l4.2-0.4c0.1,1.2,0.7,2.3,1.5,3.1c0.9,0.7,2,1.1,3.1,1c1.1,0.1,2.2-0.2,3.2-0.9
		c0.7-0.5,1-1.3,1.1-2.1c0-0.5-0.1-0.9-0.4-1.3c-0.4-0.4-1-0.8-1.6-0.9c-0.5-0.2-1.7-0.5-3.5-0.9c-1.8-0.3-3.4-1.1-4.9-2.1
		c-1.3-1.1-2-2.7-2-4.3c0-1.1,0.3-2.2,0.9-3.1c0.7-1,1.6-1.7,2.7-2.2c1.3-0.5,2.8-0.8,4.2-0.8c2.7,0,4.7,0.6,6.1,1.8
		c1.4,1.2,2.2,2.9,2.1,4.7l-4.3,0.2c-0.1-0.9-0.5-1.8-1.2-2.4c-0.8-0.5-1.8-0.8-2.7-0.7c-1.1-0.1-2.1,0.2-3,0.8
		c-0.4,0.3-0.7,0.8-0.7,1.3c0,0.5,0.2,1,0.6,1.3c1.2,0.7,2.6,1.2,4,1.4c1.6,0.3,3.2,0.8,4.7,1.6c1,0.5,1.8,1.3,2.4,2.2
		c0.6,1,0.9,2.2,0.9,3.4c0,1.2-0.3,2.4-1,3.5c-0.7,1.1-1.7,1.9-2.9,2.4c-1.5,0.6-3.1,0.8-4.7,0.8c-2.2,0.2-4.5-0.5-6.3-1.9
		C63.1,164.8,62.2,162.8,62.1,160.7z"/>
	<path class="st1" d="M0,0v177.2h141.7V0H0z M4.8,4.8h132.1v132.1H4.8V4.8z M136.9,172.2H4.8v-30.5h132.1V172.2z"/>
	<polygon class="st1" points="129.6,68.4 116.2,68.4 116.2,43.6 70.9,69.9 25.5,43.6 25.5,68.4 12.2,68.4 12.2,74.4 25.5,74.4 
		25.5,98.1 70.9,71.9 116.2,98.1 116.2,74.4 129.6,74.4 	"/>
	<polygon class="st2" points="73.6,70.9 114.2,47.4 114.2,94.3 	"/>
	<polygon class="st2" points="68.2,70.9 27.5,47.4 27.5,94.3 	"/>
</g>
</svg>
