<?xml version="1.0" encoding="utf-8"?>
<!-- Generator: Adobe Illustrator 24.0.2, SVG Export Plug-In . SVG Version: 6.00 Build 0)  -->
<svg version="1.1" xmlns="http://www.w3.org/2000/svg" xmlns:xlink="http://www.w3.org/1999/xlink" x="0px" y="0px"
	 viewBox="0 0 141.7 141.7" style="enable-background:new 0 0 141.7 141.7;" xml:space="preserve">
<style type="text/css">
	.st0{fill:#FFFFFF;}
	.st1{fill-rule:evenodd;clip-rule:evenodd;fill:#D0043C;}
</style>
<g id="Laag_2">
	<rect y="0" class="st0" width="141.7" height="141.7"/>
</g>
<g id="Laag_1">
	<g>
		<path class="st1" d="M77.9,52.3h5.2v-5.9C80.4,47.3,78.4,49.5,77.9,52.3z"/>
		<path class="st1" d="M83.1,60.8v-5.3H78C78.7,58,80.6,60,83.1,60.8z"/>
		<path class="st1" d="M0,0v141.7h141.7V0H0z M100.4,37.8c2.6,1.4,6.7,5,9.6,11.6c2.9,6.7,4.3,9.8,7.1,14c2.8,4.2,4.2,6.3,7.1,8.2
			s6,3.5,6,3.5s-3.9,1.4-7.6,1.1s-9.9-2-13.6-6.6c-3.7-4.6-7.1-10.1-8.2-16s-1.9-8.5-3.1-10.8c-1.5-3-5.2-5.8-5.2-5.8
			S97.8,36.5,100.4,37.8z M19.5,95.1h-4.3L12.8,92V15.5l2.7-2.7h4V95.1z M28.3,112.5c0,0-0.4,1.6-0.6,3.3c-0.5,2.2-0.9,4.7-0.9,4.7
			s-0.8-0.1-1.8-0.1c-0.8,0.1-1.9,0-1.9,0s-0.4-2.3-0.7-4.4c-0.3-1.7-0.5-3.2-0.5-3.2s-0.1-0.2-0.1-0.4c0-0.1,0.4-0.2,0.4-0.2h5.7
			c0,0,0.3,0,0.5,0.1C28.4,112.3,28.3,112.5,28.3,112.5z M28.5,107.4l-6.6-0.1l-0.1-88.6c0,0,0.8-2.5,3.5-2.5c2.7,0,3.2,2.4,3.2,2.4
			V107.4z M37.4,88.4c0,0-0.3,3.1-3.6,2.9c-3-0.2-3.1-3-3.1-3l0-69.2c0,0,0.8-2.5,3.5-2.5c2.7,0,3.2,2.4,3.2,2.4
			S37.4,88.4,37.4,88.4z M46.6,88.4c0,0-0.3,3.1-3.6,2.9c-3-0.2-3.1-3-3.1-3l0-69.2c0,0,0.8-2.5,3.5-2.5s3.2,2.4,3.2,2.4
			S46.6,88.4,46.6,88.4z M55.6,88.4c0,0-0.4,3.1-3.6,2.9c-3-0.2-3.1-3-3.1-3l0-69.2c0,0,0.8-2.5,3.5-2.5s3.2,2.4,3.2,2.4
			S55.6,88.4,55.6,88.4z M64.7,88.4c0,0-0.3,3.1-3.6,2.9c-3-0.2-3.1-3-3.1-3l0-69.2c0,0,0.8-2.5,3.5-2.5c2.7,0,3.2,2.4,3.2,2.4V88.4
			z M75.9,55.5h-2.4V92L71.2,95h-4.3V12.8h4l2.7,2.7v36.9h2.3c0.7-4.7,4.6-8.3,9.3-8.3c5.2,0,9.4,4.3,9.4,9.6c0,5.3-4.2,9.6-9.4,9.6
			C80.5,63.2,76.7,59.9,75.9,55.5z M91.9,93.8c-4.5-2.6-6.7-2.1-6.7-2.1s4-4.7,10-4.7c6,0,8.7,2.7,11.1,5.1
			c2.4,2.4,7.6,8.9,13.1,11.5c6.6,3.1,10.7,3.4,10.7,3.4s-4.5,4.9-11.9,4.9s-11.4-2-16.7-7.9C96.4,97.9,96.4,96.5,91.9,93.8z
			 M130.4,130.4c0,0-8.7,0.8-15.6-1.1c-6.9-1.9-12.3-6.4-14.7-9.8c-2.4-3.4-3.7-11.6-3.7-11.6s10.6,8.7,20.4,8.4s13.6-2.2,13.6-2.2
			V130.4z M130.4,99.8c0,0-13.8-2.5-22.2-10.5c-8.5-8-9.8-12.1-10.9-16.5c-1.1-4.3-1.1-12.2-1.1-12.2s5.9,9.1,12,13.8
			c6.1,4.8,10.6,7.4,15.2,8.4c4.5,1,7,0.7,7,0.7V99.8z M130.4,68c0,0-5.4-2.2-9.6-8c-4.2-5.9-7.3-10.4-7.3-18.6s1.8-11.6,1.8-11.6
			s1.8,8.1,5.5,14.2c3.7,6,5.8,6.4,6.8,7c1.9,1,2.8,1,2.8,1L130.4,68L130.4,68z"/>
		<path class="st1" d="M86.7,46.4v6h5.6C91.8,49.3,89.6,47,86.7,46.4z"/>
		<path class="st1" d="M86.7,55.5v5.4c2.7-0.6,4.8-2.7,5.5-5.4C92.2,55.5,86.7,55.5,86.7,55.5z"/>
	</g>
</g>
</svg>
