<?xml version="1.0" encoding="utf-8"?>
<!-- Generator: Adobe Illustrator 24.0.2, SVG Export Plug-In . SVG Version: 6.00 Build 0)  -->
<svg version="1.1" xmlns="http://www.w3.org/2000/svg" xmlns:xlink="http://www.w3.org/1999/xlink" x="0px" y="0px"
	 viewBox="0 0 141.7 141.7" style="enable-background:new 0 0 141.7 141.7;" xml:space="preserve">
<style type="text/css">
	.st0{fill:#FFFFFF;}
	.st1{fill-rule:evenodd;clip-rule:evenodd;fill:#D0043C;}
</style>
<g id="Laag_2">
	<rect y="0" class="st0" width="141.7" height="141.7"/>
</g>
<g id="Layer_1">
	<path class="st1" d="M0,0v141.7h141.7V0H0z M100.4,37.8c2.6,1.4,6.7,5,9.6,11.6c2.9,6.7,4.3,9.8,7.1,14c2.8,4.2,4.2,6.3,7.1,8.2
		c2.9,1.9,6,3.5,6,3.5s-3.9,1.4-7.6,1.1s-9.9-2-13.6-6.6c-3.7-4.6-7.1-10.1-8.2-16s-1.9-8.5-3.1-10.8c-1.5-3-5.2-5.8-5.2-5.8
		S97.8,36.5,100.4,37.8z M60.9,113.2H22.4V55.7c2.7-9.7,10.9-14.2,16.7-15.2v-8.9c-2.6-1-4.4-3.3-4.4-6.1c0-3.6,3.1-6.5,7-6.5
		s7,2.9,7,6.5c0,2.8-1.8,5.1-4.4,6.1v8.9c5.8,1,14,5.6,16.7,15.2L60.9,113.2L60.9,113.2z M91.9,93.8c-4.5-2.6-6.7-2.1-6.7-2.1
		s4-4.7,10-4.7c6,0,8.7,2.7,11.1,5.1c2.4,2.4,7.6,8.9,13.1,11.5c6.6,3.1,10.7,3.4,10.7,3.4s-4.5,4.9-11.9,4.9s-11.4-2-16.7-7.9
		C96.4,97.9,96.4,96.5,91.9,93.8z M130.4,130.4c0,0-8.7,0.8-15.6-1.1c-6.9-1.9-12.3-6.4-14.7-9.8c-2.4-3.4-3.7-11.6-3.7-11.6
		s10.6,8.7,20.4,8.4s13.6-2.2,13.6-2.2V130.4z M130.4,99.8c0,0-13.8-2.5-22.2-10.5c-8.5-8-9.8-12.1-10.9-16.5
		c-1.1-4.3-1.1-12.2-1.1-12.2s5.9,9.1,12,13.8c6.1,4.8,10.6,7.4,15.2,8.4c4.5,1,7,0.7,7,0.7V99.8z M130.4,68c0,0-5.4-2.1-9.6-8
		c-4.2-5.9-7.3-10.4-7.3-18.6s1.8-11.6,1.8-11.6s1.8,8.1,5.5,14.2c3.7,6,5.8,6.4,6.8,7c1.9,1,2.8,1,2.8,1L130.4,68L130.4,68z"/>
</g>
</svg>
