<?xml version="1.0" encoding="utf-8"?>
<!-- Generator: Adobe Illustrator 24.0.2, SVG Export Plug-In . SVG Version: 6.00 Build 0)  -->
<svg version="1.1" xmlns="http://www.w3.org/2000/svg" xmlns:xlink="http://www.w3.org/1999/xlink" x="0px" y="0px"
	 viewBox="0 0 141.7 177.2" style="enable-background:new 0 0 141.7 177.2;" xml:space="preserve">
<style type="text/css">
	.st0{fill:#FFFFFF;}
	.st1{fill:#D0043C;}
	.st2{fill:#1D1D1B;}
</style>
<g id="Laag_2">
	<rect y="0" class="st0" width="141.7" height="177.2"/>
</g>
<g id="Laag_1">
	<title>F015 Blusmonitor-Water</title>
	<path class="st1" d="M0,0v177.2h141.7V0H0z M53.3,118.3H17.8v-6.7h6.2V63.6c-1.5-0.1-2.7-1.4-2.6-2.9c0.1-1.4,1.2-2.5,2.6-2.6V51
		l-3.7-6.9l-2.3,2.1l-2.6-2.9l8.9-8.2l-5.3-4.3L14,33.5L12.1,30l23.7-12.9l1.9,3.5l-4.9,2.7l0.7,6.9L44,28.7l0.4,3.6l-3,0.4l2.1,3.9
		L97.1,19l-0.8-2.2l11.9-4.5l3.9,10.4l-11.9,4.5L99.4,25L47.2,47.2v11c1.5-0.1,2.8,1.1,2.9,2.6s-1.1,2.8-2.6,2.9c-0.1,0-0.2,0-0.3,0
		v47.9h6.2L53.3,118.3z M117.1,63.4c2.8,4.2,4.2,6.3,7.1,8.2s6,3.5,6,3.5c-2.5,0.8-5,1.2-7.6,1.1c-3.7-0.3-9.9-2-13.6-6.6
		s-7.1-10.1-8.2-16s-1.9-8.5-3.1-10.8c-1.5-3-5.2-5.8-5.2-5.8s5.3-0.6,7.9,0.7s6.7,5,9.6,11.6S114.3,59.2,117.1,63.4z M91.9,93.8
		c-4.5-2.6-6.7-2.1-6.7-2.1s4-4.7,10-4.7s8.7,2.7,11.1,5.1s7.6,8.9,13.1,11.5c6.6,3.1,10.7,3.4,10.7,3.4c-3.2,3.1-7.4,4.9-11.9,4.9
		c-7.4,0-11.4-2-16.7-7.9S96.4,96.5,91.9,93.8z M130.4,130.4c0,0-8.7,0.8-15.6-1.1c-6.9-1.9-12.3-6.4-14.7-9.8S96.4,108,96.4,108
		s10.6,8.7,20.4,8.4s13.6-2.2,13.6-2.2V130.4z M130.4,99.8c0,0-13.7-2.5-22.2-10.5s-9.8-12.1-10.9-16.4s-1.1-12.2-1.1-12.2
		s5.9,9.1,12,13.8s10.6,7.4,15.2,8.4c2.3,0.6,4.6,0.9,7,0.7L130.4,99.8z M130.4,68c-3.8-1.8-7.2-4.5-9.6-8
		c-4.2-5.9-7.3-10.4-7.3-18.6s1.8-11.6,1.8-11.6s1.8,8.1,5.5,14.2s5.8,6.4,6.8,7c0.9,0.5,1.8,0.9,2.8,1V68z"/>
	<rect x="3.5" y="141.8" class="st0" width="134.6" height="31.9"/>
	<path class="st2" d="M61.9,168.5L56.8,147h4.4l3.2,14.8l3.9-14.8h5.2l3.8,15l3.3-15h4.4l-5.2,21.5h-4.6l-4.3-16.1l-4.3,16.1H61.9z"
		/>
</g>
</svg>
