<?xml version="1.0" encoding="utf-8"?>
<!-- Generator: Adobe Illustrator 24.0.2, SVG Export Plug-In . SVG Version: 6.00 Build 0)  -->
<svg version="1.1" xmlns="http://www.w3.org/2000/svg" xmlns:xlink="http://www.w3.org/1999/xlink" x="0px" y="0px"
	 viewBox="0 0 141.7 141.7" style="enable-background:new 0 0 141.7 141.7;" xml:space="preserve">
<style type="text/css">
	.st0{fill:#FFFFFF;}
	.st1{fill:#1D1D1B;}
	.st2{fill:#D0043C;}
</style>
<g id="Laag_2">
	<rect y="0" class="st0" width="141.7" height="141.7"/>
</g>
<g id="Laag_1">
	<title>F-NL-034_windvaan</title>
	<path class="st1" d="M0,0v141.7h141.7V0H0z M4.8,4.8h132.1v132.1H4.8V4.8z"/>
	<path class="st2" d="M81.4,70.7c2-5.7,6.4-10.3,12.1-12.4l-12.3-5.7c-11,2.9-17.5,14.2-14.6,25.2c0.7,2.5,1.8,4.8,3.3,6.9L83,88
		C79.9,82.8,79.4,76.5,81.4,70.7z"/>
	<path class="st2" d="M95.7,75.8c-1.8,5.1-1.5,10.6,0.8,15.5l13.6,3.4c-3.4-9.2,0.3-19.6,8.7-24.7L106,64.1
		C101.2,66.5,97.5,70.7,95.7,75.8z"/>
	<path class="st2" d="M52.8,60.7c2.5-7.2,8.9-12.4,16.5-13.5l-7.9-3.7c-1.9-0.6-3.8-1-5.8-1l-5.5,0.7c-10.1,2.8-16,13.3-13.2,23.4
		c0.5,1.8,1.3,3.5,2.3,5.1l3.5,4.1c1.8,1.6,4,2.9,6.3,3.7l8.3,2.1C51.9,76,50.2,67.9,52.8,60.7z"/>
	<path class="st1" d="M121.3,67.8L62.5,40.6c-4.2-1.5-8.8-1.7-13.1-0.5l-37,4.8H9.9v57.5h4.8V47.8l21.8,25.8
		c2.7,4.1,6.7,7.3,11.3,8.9L110.5,98c1.7,0.6,3.5,0.9,5.3,0.9l0,0c8.8,0.1,16.1-6.9,16.2-15.7C132.2,76.2,127.8,70,121.3,67.8
		L121.3,67.8z M41.1,44.3C35,49.3,32,57,33.2,64.8L18.4,47.3L41.1,44.3z M128,87.1c-2.3,6.7-9.6,10.3-16.3,8c-0.1,0-0.2-0.1-0.3-0.1
		L48.8,79.5c-2.3-0.8-4.5-2.1-6.3-3.7L39,71.7c-5.6-8.8-3-20.6,5.8-26.2c1.6-1,3.3-1.8,5.1-2.3l5.5-0.7c2,0,4,0.4,5.8,1l58.8,27.2
		C126.8,73,130.4,80.4,128,87.1C128,87.1,128,87.1,128,87.1z"/>
</g>
</svg>
