<?xml version="1.0" encoding="utf-8"?>
<!-- Generator: Adobe Illustrator 24.0.2, SVG Export Plug-In . SVG Version: 6.00 Build 0)  -->
<svg version="1.1" xmlns="http://www.w3.org/2000/svg" xmlns:xlink="http://www.w3.org/1999/xlink" x="0px" y="0px"
	 viewBox="0 0 141.7 141.7" style="enable-background:new 0 0 141.7 141.7;" xml:space="preserve">
<style type="text/css">
	.st0{fill:#FFFFFF;}
	.st1{fill:#1D1D1B;}
	.st2{fill-rule:evenodd;clip-rule:evenodd;fill:#1D1D1B;}
	.st3{fill:#D0043C;}
</style>
<g id="Laag_2">
	<rect y="0" class="st0" width="141.7" height="141.7"/>
</g>
<g id="Laag_1">
	<title>F-NL-035_slagboom</title>
	<path class="st1" d="M0,0v141.7h141.7V0H0z M4.8,4.8h132.1v132.1H4.8V4.8z"/>
	<polygon class="st2" points="9.5,124.7 26.5,124.7 41.1,90 29.4,90 	"/>
	<polygon class="st2" points="132.2,124.7 115.3,124.7 100.6,90 112.4,90 	"/>
	<rect x="9.5" y="77.7" class="st1" width="122.7" height="7.6"/>
	<polygon class="st3" points="43.7,48.5 37.5,60.1 43.7,58 50,46.4 	"/>
	<polygon class="st3" points="32.8,52.1 26.6,63.7 32.8,61.6 39.1,50 	"/>
	<polygon class="st3" points="22,55.7 20,59.4 21.9,65.3 22,65.3 28.2,53.6 	"/>
	<polygon class="st3" points="54.6,44.9 48.3,56.5 54.6,54.4 60.8,42.8 	"/>
	<polygon class="st3" points="65.5,41.2 59.2,52.8 65.5,50.8 71.7,39.2 	"/>
	<polygon class="st3" points="76.4,37.6 70.1,49.2 76.4,47.1 82.6,35.5 	"/>
	<polygon class="st3" points="87.3,34 81,45.6 87.3,43.5 93.5,31.9 	"/>
	<polygon class="st3" points="98.1,30.4 91.9,42 98.1,39.9 104.4,28.3 	"/>
	<polygon class="st3" points="109,26.7 102.8,38.4 109,36.3 115.3,24.7 	"/>
	<polygon class="st3" points="119.8,23.2 113.7,34.7 119.9,32.7 121.8,29.1 	"/>
	<path class="st1" d="M121.9,32.4l-99,33c-0.7,0.3-1.4-0.1-1.7-0.8c0,0,0,0,0,0l-2.3-6.9c-0.2-0.7,0.2-1.4,0.8-1.6c0,0,0,0,0,0
		l99-33c0.7-0.3,1.4,0.1,1.7,0.8c0,0,0,0,0,0l2.3,6.9C123,31.4,122.6,32.2,121.9,32.4C121.9,32.4,121.9,32.4,121.9,32.4z M20.1,56.8
		c-0.3,0.1-0.4,0.4-0.3,0.6c0,0,0,0,0,0l2.3,6.9c0.1,0.3,0.4,0.4,0.6,0.3l99-33c0.3-0.1,0.4-0.3,0.4-0.6c0,0,0,0,0,0l-2.3-6.9
		c-0.1-0.3-0.4-0.4-0.7-0.3L20.1,56.8z"/>
	<rect x="109.5" y="64.1" class="st1" width="7.3" height="7.8"/>
	<path class="st2" d="M32.2,51.3c0.1-2-1.4-3.8-3.5-3.9c-2-0.1-3.8,1.4-3.9,3.5c0,0.1,0,0.3,0,0.4V72h7.3V51.3z"/>
	<path class="st0" d="M31.3,57.7c0,1.5-1.2,2.8-2.7,2.8c-1.5,0-2.8-1.2-2.8-2.7c0-1.5,1.2-2.8,2.7-2.8c0,0,0,0,0.1,0
		C30,55,31.3,56.2,31.3,57.7z"/>
	<polygon class="st2" points="63.4,107.3 77.8,107.3 77.1,100.5 63.8,100.5 	"/>
	<polygon class="st2" points="62.9,115.3 62.4,124.7 79.3,124.7 78.5,115.3 	"/>
	<polygon class="st2" points="76.5,93.9 76.2,90 64.4,90 64.2,93.9 	"/>
</g>
</svg>
