<svg id="Laag_1" data-name="Laag 1" xmlns="http://www.w3.org/2000/svg" viewBox="0 0 141.73 141.73"><defs><style>.cls-1,.cls-2{fill:#1d1d1b;}.cls-2{fill-rule:evenodd;}.cls-3{fill:#d0043c;}.cls-4{fill:#fff;}</style></defs><title>F-NL-035_slagboom</title><path class="cls-1" d="M0,0V141.73H141.73V0ZM4.81,4.81H136.92V136.93H4.81Z"/><polygon class="cls-2" points="9.5 124.7 26.48 124.7 41.1 89.97 29.35 89.97 9.5 124.7"/><polygon class="cls-2" points="132.23 124.7 115.26 124.7 100.64 89.97 112.39 89.97 132.23 124.7"/><rect class="cls-1" x="9.5" y="77.7" width="122.73" height="7.57"/><polygon class="cls-3" points="43.71 48.48 37.47 60.1 43.72 58.02 49.97 46.4 43.71 48.48"/><polygon class="cls-3" points="32.83 52.1 26.59 63.72 32.84 61.64 39.08 50.02 32.83 52.1"/><polygon class="cls-3" points="21.95 55.73 19.96 59.42 21.91 65.28 21.95 65.26 28.2 53.65 21.95 55.73"/><polygon class="cls-3" points="54.6 44.86 48.35 56.48 54.61 54.4 60.85 42.78 54.6 44.86"/><polygon class="cls-3" points="65.48 41.24 59.24 52.85 65.49 50.77 71.73 39.16 65.48 41.24"/><polygon class="cls-3" points="76.37 37.61 70.12 49.23 76.37 47.15 82.62 35.54 76.37 37.61"/><polygon class="cls-3" points="87.25 33.99 81 45.61 87.26 43.53 93.5 31.91 87.25 33.99"/><polygon class="cls-3" points="98.14 30.37 91.89 41.99 98.14 39.91 104.39 28.29 98.14 30.37"/><polygon class="cls-3" points="109.02 26.75 102.77 38.36 109.03 36.28 115.27 24.67 109.02 26.75"/><polygon class="cls-3" points="119.85 23.23 113.66 34.74 119.91 32.66 121.81 29.12 119.85 23.23"/><path class="cls-1" d="M121.92,32.4l-99,32.95a1.3,1.3,0,0,1-1.68-.78l-2.3-6.92A1.3,1.3,0,0,1,19.81,56l99-32.95a1.29,1.29,0,0,1,1.67.78l2.3,6.92A1.3,1.3,0,0,1,121.92,32.4ZM20.06,56.76a.51.51,0,0,0-.34.64L22,64.31a.51.51,0,0,0,.65.31l99-32.95A.51.51,0,0,0,122,31l-2.3-6.91a.51.51,0,0,0-.65-.31Z"/><rect class="cls-1" x="109.53" y="64.12" width="7.34" height="7.83"/><path class="cls-2" d="M32.2,51.34a3.67,3.67,0,1,0-7.33,0V72H32.2Z"/><path class="cls-4" d="M31.28,57.7A2.75,2.75,0,1,1,28.54,55,2.75,2.75,0,0,1,31.28,57.7Z"/><polygon class="cls-2" points="63.41 107.27 77.76 107.27 77.14 100.49 63.81 100.49 63.41 107.27"/><polygon class="cls-2" points="62.93 115.3 62.38 124.7 79.35 124.7 78.49 115.3 62.93 115.3"/><polygon class="cls-2" points="76.54 93.95 76.18 89.97 64.43 89.97 64.19 93.95 76.54 93.95"/></svg>