<?xml version="1.0" encoding="utf-8"?>
<!-- Generator: Adobe Illustrator 24.0.2, SVG Export Plug-In . SVG Version: 6.00 Build 0)  -->
<svg version="1.1" id="Laag_1" xmlns="http://www.w3.org/2000/svg" xmlns:xlink="http://www.w3.org/1999/xlink" x="0px" y="0px"
	 viewBox="0 0 141.73 141.73" style="enable-background:new 0 0 141.73 141.73;" xml:space="preserve">
<style type="text/css">
	.st0{fill:#D0043C;}
</style>
<g>
	<path class="st0" d="M0,0v141.73h141.73V0H0z M4.81,4.81h132.11v132.11H4.81V4.81z"/>
	<g>
		<path class="st0" d="M96.17,85.07V74.08H71.88V52.14c11.2-2.56,19.53-10.4,19.53-19.23c0-11.23-11.72-20.05-26.7-20.05
			c-14.97,0-26.72,8.82-26.72,20.05c0,8.83,8.34,16.66,19.55,19.23v69.76h14.34v-7.68h24.29v-13.29h-9.94V85.07H96.17z M64.71,42.67
			c-9.7,0-16.46-5.14-16.46-9.75c0-4.62,6.76-9.79,16.46-9.79c9.69,0,16.44,5.17,16.44,9.79C81.15,37.53,74.4,42.67,64.71,42.67z"/>
		<path d="M79.1,32.91c0,3.58-6.28,7.73-14.4,7.73c-8.11,0-14.39-4.15-14.39-7.73c0-3.57,6.28-7.75,14.39-7.75
			C72.82,25.16,79.1,29.34,79.1,32.91z M64.71,23.12c-9.7,0-16.46,5.17-16.46,9.79c0,4.62,6.76,9.75,16.46,9.75
			c9.69,0,16.44-5.14,16.44-9.75C81.15,28.29,74.4,23.12,64.71,23.12z"/>
	</g>
	<path d="M98.25,87.12V72.04H73.93V53.71c11.7-2.97,19.53-11.22,19.53-20.8c0-12.4-12.64-22.1-28.76-22.1
		c-16.14,0-28.76,9.7-28.76,22.1c0,9.58,7.82,17.83,19.52,20.8v70.23h18.46v-7.7h24.31v-17.4h-9.97V87.12H98.25z M71.88,121.89
		H57.54V52.14c-11.21-2.56-19.55-10.4-19.55-19.23c0-11.23,11.75-20.05,26.72-20.05c14.98,0,26.7,8.82,26.7,20.05
		c0,8.83-8.33,16.66-19.53,19.23V121.89z M96.17,100.92v13.29H73.93V74.08h22.24v10.98h-9.94v15.85H96.17z"/>
</g>
</svg>
