<svg xmlns="http://www.w3.org/2000/svg" viewBox="0 0 87.73 141.73"><defs><style>.cls-1{fill:#fff;}.cls-2{fill:#1d1d1b;}.cls-3{fill:#c3162d;}</style></defs><title>F-NL-020 Brandweerlift</title><g id="Laag_2" data-name="Laag 2"><polygon class="cls-1" points="0 141.73 87.73 141.73 87.73 12.68 78.19 12.68 78.19 0 9.56 0 9.56 12.68 0 12.68 0 141.73"/></g><g id="_Laag_" data-name="&lt;Laag&gt;"><path class="cls-2" d="M9.56,12.68H0v129H87.73v-129H78.19V0H9.56ZM43.87,78.84l39.69,59.21H4.17ZM45,77.2,84.05,18.89V135.52ZM3.68,135.51V18.89L42.77,77.2ZM74.51,3.68V16.36h9L43.87,75.57,4.17,16.36h9.07V3.68Z"/><path class="cls-3" d="M45,77.2,84.05,18.89V135.52Z"/><path class="cls-3" d="M3.68,135.51V18.89L42.77,77.2Z"/></g></svg>