<?xml version="1.0" encoding="utf-8"?>
<!-- Generator: Adobe Illustrator 24.0.2, SVG Export Plug-In . SVG Version: 6.00 Build 0)  -->
<svg version="1.1" xmlns="http://www.w3.org/2000/svg" xmlns:xlink="http://www.w3.org/1999/xlink" x="0px" y="0px"
	 viewBox="0 0 141.7 141.7" style="enable-background:new 0 0 141.7 141.7;" xml:space="preserve">
<style type="text/css">
	.st0{fill:#FFFFFF;}
	.st1{fill:#1D1D1B;}
	.st2{fill-rule:evenodd;clip-rule:evenodd;fill:#D0043C;}
	.st3{fill:#D0043C;}
</style>
<g id="Laag_2">
	<rect y="0" class="st0" width="141.7" height="141.7"/>
</g>
<g id="Laag_1">
	<title>F-NL-036_afsluitpaal_enof_poller</title>
	<path class="st1" d="M0,0v141.7h141.7V0H0z M4.8,4.8h132.1v132.1H4.8V4.8z"/>
	<path class="st2" d="M70.9,130.1c-14.7,0-26.3-6.6-26.3-15.1c0-6.1,5.9-11.2,14.6-13.6v3.7c-6.6,2.1-11.1,5.8-11.1,9.9
		c0,6.3,10.4,11.6,22.7,11.6s22.7-5.3,22.7-11.6c0-4.1-4.5-7.8-11.1-9.9v-3.7c8.7,2.4,14.6,7.6,14.6,13.6
		C97.1,123.4,85.6,130.1,70.9,130.1z"/>
	<path class="st3" d="M76.7,10.8H65c-2.2,0-3.9,1.8-3.9,3.9v100.7c0,3.3,4.3,5.8,9.8,5.8s9.8-2.6,9.8-5.8V14.8
		C80.6,12.6,78.9,10.9,76.7,10.8z M79.7,91.5c0,2.7-3.9,4.8-8.8,4.8s-8.8-2.2-8.8-4.8V71.2c0,2.7,3.9,4.8,8.8,4.8s8.8-2.2,8.8-4.8
		V91.5z M79.7,51c0,2.7-3.9,4.8-8.8,4.8s-8.8-2.2-8.8-4.8V30.7c0,2.7,3.9,4.8,8.8,4.8s8.8-2.2,8.8-4.8V51z"/>
</g>
</svg>
