<?xml version="1.0" encoding="utf-8"?>
<!-- Generator: Adobe Illustrator 24.0.2, SVG Export Plug-In . SVG Version: 6.00 Build 0)  -->
<svg version="1.1" xmlns="http://www.w3.org/2000/svg" xmlns:xlink="http://www.w3.org/1999/xlink" x="0px" y="0px"
	 viewBox="0 0 141.7 87.7" style="enable-background:new 0 0 141.7 87.7;" xml:space="preserve">
<style type="text/css">
	.st0{fill:#FFFFFF;}
	.st1{fill:#1D1D1B;}
	.st2{fill:#C3162D;}
</style>
<g id="Laag_2">
	<polygon class="st0" points="0,0 129.1,0 129.1,9.6 141.7,9.6 141.7,78.2 129.1,78.2 129.1,87.7 0,87.7 	"/>
</g>
<g id="_Laag_">
	<title>F-NL-020 Brandweerlift</title>
	<path class="st1" d="M129.1,9.6V0H0v87.7h129.1v-9.5h12.7V9.6H129.1z M62.9,43.9L3.7,83.6V4.2L62.9,43.9z M64.5,45l58.3,39.1H6.2
		L64.5,45z M6.2,3.7h116.6L64.5,42.8L6.2,3.7z M138.1,74.5h-12.7v9.1L66.2,43.9l59.2-39.7v9.1h12.7V74.5z"/>
	<path class="st2" d="M64.5,45l58.3,39.1H6.2L64.5,45z"/>
	<path class="st2" d="M6.2,3.7h116.6L64.5,42.8L6.2,3.7z"/>
</g>
</svg>
