<svg id="Laag_1" data-name="Laag 1" xmlns="http://www.w3.org/2000/svg" viewBox="0 0 141.73 141.73"><defs><style>.cls-1{fill:#1d1d1b;}.cls-2,.cls-3{fill:#d0043c;}.cls-2{fill-rule:evenodd;}</style></defs><title>F-NL-036_afsluitpaal_enof_poller</title><path class="cls-1" d="M0,0V141.73H141.73V0ZM4.81,4.81H136.92V136.92H4.81Z"/><path class="cls-2" d="M70.87,130.09c-14.73,0-26.26-6.64-26.26-15.13,0-6.06,5.88-11.18,14.61-13.61v3.72c-6.58,2.06-11.07,5.76-11.07,9.89,0,6.29,10.4,11.59,22.72,11.59s22.72-5.3,22.72-11.59c0-4.13-4.5-7.83-11.07-9.89v-3.72c8.73,2.43,14.61,7.55,14.61,13.61C97.13,123.45,85.59,130.09,70.87,130.09Z"/><path class="cls-3" d="M76.71,10.84H65a3.94,3.94,0,0,0-3.93,3.94V115.43c0,3.26,4.29,5.82,9.78,5.82s9.78-2.56,9.78-5.82V14.78A4,4,0,0,0,76.71,10.84Zm2.94,80.68c0,2.66-3.94,4.82-8.78,4.82s-8.78-2.16-8.78-4.82V71.24c0,2.66,3.93,4.83,8.78,4.83s8.78-2.17,8.78-4.83Zm0-40.56c0,2.67-3.94,4.83-8.78,4.83S62.09,53.63,62.09,51V30.69c0,2.66,3.93,4.82,8.78,4.82s8.78-2.16,8.78-4.82Z"/></svg>