<?xml version="1.0" encoding="utf-8"?>
<!-- Generator: Adobe Illustrator 24.0.2, SVG Export Plug-In . SVG Version: 6.00 Build 0)  -->
<svg version="1.1" xmlns="http://www.w3.org/2000/svg" xmlns:xlink="http://www.w3.org/1999/xlink" x="0px" y="0px"
	 viewBox="0 0 141.7 141.7" style="enable-background:new 0 0 141.7 141.7;" xml:space="preserve">
<style type="text/css">
	.st0{fill:#FFFFFF;}
	.st1{fill:#D0043C;}
</style>
<g id="Laag_2">
	<rect y="0" class="st0" width="141.7" height="141.7"/>
</g>
<g id="Laag_1">
	<g>
		<path class="st1" d="M0,0v141.7h141.7V0H0z M4.8,4.8h132.1v132.1H4.8V4.8z"/>
		<g>
			<path class="st1" d="M96.2,85.1v-11H71.9V52.1c11.2-2.6,19.5-10.4,19.5-19.2c0-11.2-11.7-20-26.7-20c-15,0-26.7,8.8-26.7,20
				c0,8.8,8.3,16.7,19.5,19.2v69.8h14.3v-7.7h24.3v-13.3h-9.9V85.1H96.2z M64.7,42.7c-9.7,0-16.5-5.1-16.5-9.8
				c0-4.6,6.8-9.8,16.5-9.8c9.7,0,16.4,5.2,16.4,9.8C81.2,37.5,74.4,42.7,64.7,42.7z"/>
			<path d="M79.1,32.9c0,3.6-6.3,7.7-14.4,7.7c-8.1,0-14.4-4.2-14.4-7.7c0-3.6,6.3-7.8,14.4-7.8C72.8,25.2,79.1,29.3,79.1,32.9z
				 M64.7,23.1c-9.7,0-16.5,5.2-16.5,9.8s6.8,9.8,16.5,9.8c9.7,0,16.4-5.1,16.4-9.8C81.2,28.3,74.4,23.1,64.7,23.1z"/>
		</g>
		<path d="M98.3,87.1V72H73.9V53.7c11.7-3,19.5-11.2,19.5-20.8c0-12.4-12.6-22.1-28.8-22.1c-16.1,0-28.8,9.7-28.8,22.1
			c0,9.6,7.8,17.8,19.5,20.8v70.2h18.5v-7.7h24.3V98.8h-10V87.1H98.3z M71.9,121.9H57.5V52.1C46.3,49.6,38,41.7,38,32.9
			c0-11.2,11.8-20,26.7-20c15,0,26.7,8.8,26.7,20c0,8.8-8.3,16.7-19.5,19.2C71.9,52.1,71.9,121.9,71.9,121.9z M96.2,100.9v13.3H73.9
			V74.1h22.2v11h-9.9v15.8L96.2,100.9L96.2,100.9z"/>
	</g>
</g>
</svg>
