<svg id="Laag_1" data-name="Laag 1" xmlns="http://www.w3.org/2000/svg" viewBox="0 0 141.73 141.73"><defs><style>.cls-1{fill:#1d1d1b;}.cls-2{fill:#d0043c;}</style></defs><title>F-NL-034_windvaan</title><path class="cls-1" d="M0,0V141.73H141.73V0ZM4.81,4.81H136.92V136.92H4.81Z"/><path class="cls-2" d="M81.39,70.75A20.56,20.56,0,0,1,93.46,58.34L81.17,52.66A20.57,20.57,0,0,0,69.91,84.73L83,88A20.56,20.56,0,0,1,81.39,70.75Z"/><path class="cls-2" d="M95.7,75.78a20.56,20.56,0,0,0,.77,15.52l13.63,3.38A20.6,20.6,0,0,1,118.76,70L106,64.14A20.54,20.54,0,0,0,95.7,75.78Z"/><path class="cls-2" d="M52.76,60.69A20.61,20.61,0,0,1,69.22,47.14l-7.94-3.66a18.92,18.92,0,0,0-5.83-1l-5.51.72A19,19,0,0,0,39,71.7l3.46,4.09a18.88,18.88,0,0,0,6.33,3.71l8.35,2.07A20.58,20.58,0,0,1,52.76,60.69Z"/><path class="cls-1" d="M121.26,67.76,62.45,40.59a21.89,21.89,0,0,0-13.11-.48L12.29,44.92H9.88V102.4H14.7V47.78L36.54,73.63a22.18,22.18,0,0,0,11.35,8.86L110.49,98a16.12,16.12,0,0,0,5.32.91h0a16,16,0,0,0,5.45-31.13ZM41.1,44.33a22.19,22.19,0,0,0-7.94,20.46L18.36,47.28ZM128,87.12A12.84,12.84,0,0,1,111.38,95L48.79,79.5a18.88,18.88,0,0,1-6.33-3.71L39,71.7A19,19,0,0,1,49.94,43.18l5.51-.72a18.92,18.92,0,0,1,5.83,1l58.81,27.16A12.93,12.93,0,0,1,128,87.12Z"/></svg>