<svg id="Laag_1" data-name="Laag 1" xmlns="http://www.w3.org/2000/svg" viewBox="0 0 141.73 123.94"><defs><style>.cls-1{fill:#ffd300;}.cls-2{fill:#1d1d1b;fill-rule:evenodd;}</style></defs><title>W002 Explosieve stoffen</title><polygon class="cls-1" points="11.72 115.44 70.87 12.91 130.01 115.44 11.72 115.44 11.72 115.44"/><path class="cls-2" d="M124.42,105.78,112.84,104l10.22-.48,1.36,2.25Zm-9,9.66c-12.49-2.51-61.6-12.35-63.12-12.73l41.82,12.73h-11a4.46,4.46,0,0,0-.84-1.5c-1-.68-2.27-.44-3.43-.78-.64-.18-4.8-2.36-5.47-2.49a3.13,3.13,0,0,0-1.94.09l-.73.65c0,.07,0,.17,0,.2a1.6,1.6,0,0,1,.55.61c.19.45,4.19,2.49,4.5,2.82a2,2,0,0,0,.59.4H72l-12.66-6.21a8.7,8.7,0,0,0-.12-1.12c-.11-.53.37-1,.21-1.42s-.93-.59-1.45-.82c-.42.44-1.09.23-1.51.67a.7.7,0,0,0-.09.56l.06.7L50.74,105c.26,0,.6,0,.63-.19a2,2,0,0,0-.37-1.49c-.24-.38-.69-.43-1.13-.52s-.48-.5-.81-.56a2.39,2.39,0,0,0-1.58.32c-.12.23.11.43-.12.56s-.64.17-.93.32c-.11.06-.09.29,0,.44A2.23,2.23,0,0,1,46.5,105l1.72,1.16c.24,0,.51.32.61.07a.36.36,0,0,0,0-.07s0-.11,0,0l0,0L49,106l16.41,9.41H11.72L32.39,79.61,37,90.05l.76-1-4-11.8,2-3.54L38,85.19l.27.13-.16-1.6a30.35,30.35,0,0,0,1.15,4.16c.13.23.45.31.51.6a1.13,1.13,0,0,0,.64-.61c.25-.78,2.29-1.72,2.16-2.56s-2.08-1-2-1.76c0-.19,1.79,0,1.63-.08-.39-.11,1.45-2.46-1.11-1.84-.35.08-2.51.72-2.91.75-.11,0-.16.17-.16.4l-1.12-11L47.41,53.58l-1.84,17.5a.94.94,0,0,1-.69-.24c-.35-.34-.57-.85-1-1.16-.08-.07-.3.17-.47.24-.6.24-1.5.23-1.69.86s.13,1.69-.53,2.29a1.16,1.16,0,0,0-.2.16c-.29.54-.69,1-.95,1.5a.48.48,0,0,0,0,.42c.58.75,1.08,1.42,1.65,2.18.12.15.37-.18.58-.08a2.32,2.32,0,0,0,2-.26l.56-.7a4.21,4.21,0,0,1,0-.5c0-.11.13-.17.18-.25L43.87,87.33,54.11,42l16.76-29,5,8.6L46.05,87.91l35-57.31,6.82,11.82L57.82,79.34,89.36,45l3.38,5.86L47.21,93.13,95.66,55.88l4,7L47.52,96.12a2.37,2.37,0,0,1-.78-.33c-.19-.15.14-.5,0-.75s-.45-.57-.78-.41c0,0-.63.57-.71.67-.65.89-2,1.17-2.27,2.28,0,.12.17.11.26.12.43.08.94,0,1.18.33l0,.12c0,.2-.17.45-.15.67s.13.69.37.66c.4-.06,2.41-.47,2.84-1.07,0-.07.87,0,1.09-.13.45-.34,1-1,.7-1.51-.11-.18-.46-.19-.66-.39a2.24,2.24,0,0,0-.48-.11l8-4s0,.06,0,.09.22.06.27.16.26.42.39.45a1.69,1.69,0,0,0,.75.06l.32-.08a3.5,3.5,0,0,0,1-.21.43.43,0,0,0,.18-.54A4.38,4.38,0,0,0,58.66,91L58.59,91l44.32-22.52,7.86,13.62L55.56,94.77l58.53-6.93,4.32,7.49L68.17,96.51l.19.28,51.47,1,2.59,4.48c-15.84-.86-67-3.68-70.52-4l73.4,9,4.71,8.18ZM99,114.93l-8-2.24,16.67,2.24ZM79,27.12,70.31,41.79l7.57-16.72,1,1.69.17.36Zm15.49,26.8-11.41,9,10.8-10.08.61,1.07Zm7,12.17L93.23,69.9,100.91,65l.61,1.06Zm39.66,51.69L74.42,2.06a4.1,4.1,0,0,0-7.11,0L.56,117.78a4.1,4.1,0,0,0,3.55,6.16H137.63a4.1,4.1,0,0,0,3.55-6.16Z" transform="translate(0 0)"/><path class="cls-2" d="M43.84,106c-.1-.52-.08-1.17-.42-1.39a1.61,1.61,0,0,0-1.61.23c-.15-.59-.68-.87-1-1.37s.07-1,.4-1.33,1-.31,1.23-.67.07-.86-.12-1.27-.63-.4-.9-.43-.85.1-1.24-.17-.5-.66-.78-1-.77-.3-1.07-.67-.67,0-1,0c-.66,0-1.69.36-1.93-.4s.76-1,1-1.58a3.45,3.45,0,0,0,.16-2.62,1.69,1.69,0,0,0-.48-.64,4.05,4.05,0,0,0-.36-.31c-.19-.14-.07-.7-.2-.67a9.64,9.64,0,1,0,9.29,15.93l-.12-.7c-.23-.44-.79-.49-.89-1Z" transform="translate(0 0)"/><path class="cls-2" d="M40.94,95c.43,0,.52.48.86.65a1.25,1.25,0,0,0,.87,0A4.89,4.89,0,0,0,44,94.83a.83.83,0,0,0-.05-1.32c-.3-.18-.63-.18-1-.39s-.92.14-1.38,0a6.64,6.64,0,0,1-.86-.28c-.63-.22-1.08.32-1.42.81-.1.14.1.38.09.61l-.2-.26c0,.22-.07.5,0,.61a2.38,2.38,0,0,0,1.69.38Z" transform="translate(0 0)"/><path class="cls-2" d="M32.38,91.81c.21.15.55-.08.74-.26s.62-.21.8-.5a.66.66,0,0,0,0-.55A3.5,3.5,0,0,0,33,89.32c-.4-.26-.94.06-1.34.37l-.22.43c-.27.72.39,1.31.91,1.69Z" transform="translate(0 0)"/><path class="cls-2" d="M34.85,88.33c-.14.25-.54.15-.54.48l.07.22c-.11.29-.19.64,0,.84a1.36,1.36,0,0,0,1.2.22s0-.16,0-.17c.26-.11.35-.38.44-.56.28-.51-.35-.87-.77-1.17-.13-.1-.38,0-.45.14Z" transform="translate(0 0)"/><path class="cls-2" d="M32.06,86.2c.35.68.95,1.58,1.71,1.3.47-.18,1.51-.62,1.08-1.27s-.48-1.53-1-2.18-1.29.19-1.7.58c0,0,0,.2,0,.25a1,1,0,0,0-.27.81l.22.51Z" transform="translate(0 0)"/><path class="cls-2" d="M47.2,89.06c.39-.07.8-.35,1.12-.09s0,.49.14.71.34.56.54.46.36-.62.59-.92a1.19,1.19,0,0,0,1.52-.89.37.37,0,0,1,.29-.24c.24,0,.47,0,.6-.22.29-.44.55-1.17.13-1.51-.15-.13-.46,0-.69-.13a.22.22,0,0,0-.26,0c-.25.36,0,1.15-.54,1.13a1.62,1.62,0,0,0-1-1.09c-.21-.08,0-.48-.22-.65s-.57-.36-.8-.12l-.33.43a1.59,1.59,0,0,1-.07.38c-.28,1-1.32,1.61-1.24,2.67,0,.11.17,0,.26,0Z" transform="translate(0 0)"/><path class="cls-2" d="M59.62,100c-.69-.37-1.36.21-1.8.68-.17.18,0,.55.17.76s.13.64.39.86a.61.61,0,0,0,.54.07,3.6,3.6,0,0,0,1.29-.73c.31-.36.07-.94-.19-1.37l-.4-.27Z" transform="translate(0 0)"/><path class="cls-2" d="M80.51,103.94a2.15,2.15,0,0,0-.85-.72,6.52,6.52,0,0,0-2.53-.22c-.13,0-.28-.1-.43-.11-.71,0-1.41.11-2.11.07v.94l-.36.8a1.79,1.79,0,0,1,.67,1.08.26.26,0,0,0,.2.2c.33,0,.42.24.65.31s.58-.08.88-.05a7.7,7.7,0,0,0,1.89-.37c.75-.14,1.38.37,2.09.24s.41-.79,1-1c-.52-.62-.61-.61-1.13-1.2Z" transform="translate(0 0)"/><path class="cls-2" d="M47,110.64a.18.18,0,0,0,.1.17c.22.06.24.23.39.32s.4.05.6.12a5.87,5.87,0,0,0,1.34.07c.54,0,.87.49,1.39.53s.41-.47.86-.49c-.24-.51-.31-.51-.56-1a1.43,1.43,0,0,0-.45-.64,4.68,4.68,0,0,0-1.68-.59c-.09,0-.18-.11-.28-.14-.47-.16-1-.16-1.44-.32-.05.21-.11.43-.16.64l-.38.48a1.22,1.22,0,0,1,.27.85Z" transform="translate(0 0)"/><path class="cls-2" d="M67.75,101.93c-.24-.15-.24-.47-.51-.54s-.59.19-.86.08a4.36,4.36,0,0,0-.77-.32c-.37,0-.73.74-.42,1s.53.47.83.69l.41.47c.25.11.39.39.7.4-.08-.63.48-1,.88-1.37.07-.06-.13-.31-.26-.4Z" transform="translate(0 0)"/><path class="cls-2" d="M50.05,71.67c.46.22,1.22.27,1.42-.14a1.66,1.66,0,0,0-.3-1.89c-.18-.14-.45,0-.63.19l-.65.87c0,.38-.21.79.16,1Z" transform="translate(0 0)"/><path class="cls-2" d="M51.92,67.86,53.67,67c-.1,0,.15-2.59.08-2.63s.17,0,0-.12a1.52,1.52,0,0,1-.64-1c-.79.19-1,1-1.25,1.64-.13.39-.72.51-.92,1-.13.31.2.44.32.66.24.46.06,1.14.61,1.36Z" transform="translate(0 0)"/><path class="cls-2" d="M57.76,74.38c.14.51.66,1.06,1.13.71s1.14-.57,1.18-1.23A11.8,11.8,0,0,0,60,72.18.43.43,0,0,0,59.3,72c-.28.31-.33.82-.72,1.09-.19.13-.41,0-.59.16a.68.68,0,0,0-.28.64l0,.52Z" transform="translate(0 0)"/><path class="cls-2" d="M45.09,91.74c.14.51.66,1.05,1.13.71s1.14-.57,1.17-1.24a13.47,13.47,0,0,0,0-1.68.43.43,0,0,0-.71-.2c-.28.31-.33.81-.72,1.08-.2.14-.41,0-.59.16a.68.68,0,0,0-.29.64l.06.53Z" transform="translate(0 0)"/><path class="cls-2" d="M86.18,84.1a2.14,2.14,0,0,1,1.48.55.34.34,0,0,0,.34,0c.32-.24.58-.08.86-.2s.5-.51.81-.71A9.63,9.63,0,0,0,91.21,82c.62-.7,1.61-.67,2.21-1.34s-.21-1.08.25-1.72c-1-.2-1-.12-2-.3a2.75,2.75,0,0,0-1.36-.06,7.89,7.89,0,0,0-2.61,1.7c-.12.1-.34.11-.5.22-.71.49-1.27,1.17-2,1.65l.72.91.25,1Z" transform="translate(0 0)"/><path class="cls-2" d="M75.34,49.07l.88.62.59,1c.71-.49,1.54-.76,2.26-1.25.16-.1.25-.31.39-.38A7.85,7.85,0,0,0,82,47.24,2.58,2.58,0,0,0,82.43,46c.19-1,.29-1,.45-2-.77.19-.94-.67-1.69-.4S80,44.84,79.13,45.16s-1.85-.57-2.47-.12c-.3.21-.69.22-1,.49s-.17.51-.51.74a5.19,5.19,0,0,0,.17,1.24,2.1,2.1,0,0,1,0,1.56Z" transform="translate(0 0)"/><path class="cls-2" d="M61,38.43l1.3.19,1.2.77c.51-.93,1.27-1.68,1.78-2.61.12-.2.11-.48.23-.63a9.84,9.84,0,0,0,1.77-3.37A3.25,3.25,0,0,0,67,31.12c-.32-1.13-.23-1.23-.59-2.39-.74.63-1.4-.22-2.07.5s-.61,2-1.39,2.85-1.56,1.24-2,2.07c-.21.4-.63.63-.77,1.07s.11.64-.15,1.07a.44.44,0,0,0,.09.41A2.61,2.61,0,0,1,61,38.43Z" transform="translate(0 0)"/><path class="cls-2" d="M73,76.78c.45.22,1.22.27,1.42-.14a1.66,1.66,0,0,0-.3-1.88c-.19-.14-.45,0-.63.18l-.66.87c0,.39-.2.79.17,1Z" transform="translate(0 0)"/><path class="cls-2" d="M51.9,98.23l-.18,0,.18,0Z" transform="translate(0 0)"/></svg>