<svg id="Laag_1" data-name="Laag 1" xmlns="http://www.w3.org/2000/svg" viewBox="0 0 141.73 123.94"><defs><style>.cls-1{fill:#ffd300;}.cls-2{fill:#1d1d1b;}</style></defs><title>W016 Giftige stoffen</title><polygon class="cls-1" points="11.72 115.44 70.86 12.91 130.01 115.44 11.72 115.44 11.72 115.44"/><path class="cls-2" d="M11.72,115.44,70.87,12.91,130,115.44Zm129.46,2.35L74.42,2.06a4.1,4.1,0,0,0-7.11,0L.55,117.79a4.1,4.1,0,0,0,3.56,6.15H137.63a4.09,4.09,0,0,0,3.55-6.15Z" transform="translate(0 0)"/><path class="cls-2" d="M73.8,75.32a11.62,11.62,0,0,0,2.29,3.53,3.79,3.79,0,0,0,5.67,0c1.33-1.48,1.08-3.44,1.3-5,.39-2.88-.83-3.9-2.55-4a8.15,8.15,0,0,0-5.58,1.66c-1.39,1.19-1.8,2.42-1.13,3.89Z" transform="translate(0 0)"/><path class="cls-2" d="M68.07,76.48a12.31,12.31,0,0,1-2.26,2.79A3.81,3.81,0,0,1,61,78.91a8.1,8.1,0,0,1-2.18-4.21,3.27,3.27,0,0,1,1.84-3.39c1.68-.8,5.27-1.4,6.73-.13a4.3,4.3,0,0,1,.71,5.3Z" transform="translate(0 0)"/><path class="cls-2" d="M70.39,86.11c-.6,0-.65.61-2,.49s-1.65-.9-1.65-2.34a13,13,0,0,1,1.94-5.7c1.21-1.69,2.69-1.6,3.92.17A12.12,12.12,0,0,1,74.13,84c.2,1.76-.66,2.64-1.86,2.72-1.37.1-1.07-.59-1.88-.59Z" transform="translate(0 0)"/><path class="cls-2" d="M101.65,86s-.23.11-1-.14c-1-.36-2.22-.72-3.21-1a6.66,6.66,0,0,0-4.71.35c-1,.43-5.15,2.36-8.35,3.9a12.3,12.3,0,0,1,.33-2.35l1.31-.57c4.73-2.07,9.62-4.2,10.58-4.56A5.29,5.29,0,0,0,99,80a1,1,0,0,1,1-.21.76.76,0,0,1,.43.8,10.33,10.33,0,0,0,.14,2.22,3.47,3.47,0,0,0,.66,1.32,1.89,1.89,0,0,1,.47,1c.1.52,0,.74-.09.8ZM84.11,82.62a7.42,7.42,0,0,0-4.56,5.84,5.27,5.27,0,0,0-1.46.06c-.41.17-.28.37-.44.53s-.67,0-1,0a.86.86,0,0,0-.61.44.7.7,0,0,1-.57.31c-.22,0-.15-.14-.43-.17a2,2,0,0,0-.75.15,1.17,1.17,0,0,0-.62.43c-.11.15-.39.29-.54.16s0-.34-.51-.22c-.26.08-.29.19-.45.3a1,1,0,0,1-.5.13,1.55,1.55,0,0,1-.6-.07.55.55,0,0,0-.44-.06c-.39,0-.51.32-.92.08-.17-.1-.21-.23-.49-.25a2.62,2.62,0,0,0-.64.07,1.85,1.85,0,0,1-1,0c-.14-.07-.23-.24-.35-.32a2,2,0,0,0-.68-.16c-.19,0-.32.09-.5,0s-.17-.32-.28-.42a1,1,0,0,0-.51-.19c-.18,0-.58.07-.75,0s-.17-.19-.3-.29a.58.58,0,0,0-.53-.08,1.63,1.63,0,0,0-.66.29v0c-.56-2.7-1.18-5.75-5-6.52a4.12,4.12,0,0,1-2.46-1.58l-.34-.5a5.4,5.4,0,0,1-.27-4.52l.5-1.34a13.12,13.12,0,0,0,1.28-6.27l-.27-2a6.58,6.58,0,0,1,.18-4,1,1,0,1,0-1.83-.82,8.29,8.29,0,0,0-.33,5.17l.25,1.91a7.93,7.93,0,0,1-.3,2.94A14.1,14.1,0,0,1,55.89,56.3c7.89-8.76,19.1-7.59,26.7-2.54,5.77,3.83,7.26,13.15,3.62,20.47-.54-1.79-.42-3.69.38-6.48s.48-4.44-.55-7.6a1,1,0,0,0-1.91.62c1,2.93,1.2,4.07.52,6.43-1,3.61-1,6.08,0,8.54,2.06,5.07.69,6.36-.51,6.88Zm-1.72,6.79-.07,1.09a16.67,16.67,0,0,1-3.21,8.14c-1.94,2.69-6.16,3.9-8.55,3.9s-4.8-.25-7.21-3.29-3.13-6.47-3.76-9.83A13.39,13.39,0,0,0,58,84.76c2.09.57,2.53,2.17,3.07,4.86a22.48,22.48,0,0,0,.66,2.63A3.44,3.44,0,0,0,62.36,94a2.15,2.15,0,0,0,.76.49.82.82,0,0,1,.4.4c.09.19,0,.39.3.42s.66-.1,1,.15a1.08,1.08,0,0,1,.25.39,1.49,1.49,0,0,0,.36.39.7.7,0,0,0,.54.12,2.06,2.06,0,0,1,.46-.13c.37,0,.36.28.66.46a1,1,0,0,0,.59.14c.18,0,.34-.23.49-.21s.26.16.35.2A3.32,3.32,0,0,0,69,97c.26.08.85.27,1.07.1s.14-.23.32-.3a.56.56,0,0,1,.49,0c.16.08.31.24.49.25a1.17,1.17,0,0,0,.79-.16c.11-.06.16-.22.27-.28s.55-.1.63,0,0,.16.22.18a2.73,2.73,0,0,0,.9-.14c.26-.1.2-.12.44-.27s.53,0,1.06-.1a1.68,1.68,0,0,0,.58-.21c.31-.21.17-.39.25-.48s.37-.08.49-.08a2.39,2.39,0,0,0,.65-.06,1,1,0,0,0,.63-.47c.09-.19,0-.39.22-.5a1.91,1.91,0,0,1,.7-.12c.38,0,.5-.25.55-.59,0-.18,0-.39.11-.52s.42-.08.55-.13A.89.89,0,0,0,81,92.4c0-.18-.06-.52,0-.71s.19-.24.24-.39a3.22,3.22,0,0,0,.1-.75c0-.21,0-.43,0-.72a7.89,7.89,0,0,1,1.61-4,14.72,14.72,0,0,0-.53,3.6Zm7.29,12.1,2.65.94L94,103a7,7,0,0,0,3.13.13,11.38,11.38,0,0,1,1.57-.11A3.53,3.53,0,0,1,98,104.5a3.09,3.09,0,0,0-.59,2.25.39.39,0,0,1-.23.38,1.31,1.31,0,0,1-1.28-.16,18.91,18.91,0,0,0-2.61-1.74l-1.44-.63c-2.35-1-7-3.09-11.07-4.81a18,18,0,0,0,1.06-1.62c3.08,1.35,6.86,3,7.87,3.34Zm-41.14,3.77A11.13,11.13,0,0,0,46.1,107a.74.74,0,0,1-.8.2.4.4,0,0,1-.26-.42,6.78,6.78,0,0,0-.36-2.42,3.8,3.8,0,0,0-.63-1.13c-.2-.26-.2-.28-.2-.38s0-.13,0-.16a1,1,0,0,1,.34,0c.64,0,1.27.12,1.91.14a6.38,6.38,0,0,0,1.69-.1,2.85,2.85,0,0,0,.75-.24c1.31-.64,7-3.13,11.36-4.89a16.46,16.46,0,0,0,1.22,2.09c-4.81,2-10.37,4.45-12.63,5.61ZM53.07,89c-4-1.35-7.86-2.62-8.53-2.89a5.63,5.63,0,0,0-4.32.22.62.62,0,0,1-.73-.07.6.6,0,0,1,.15-.52,3.65,3.65,0,0,0,1-2.28c0-.29-.09-.83-.09-1.13a2.54,2.54,0,0,1,.22-1.3,1,1,0,0,1,.92.28,9.59,9.59,0,0,0,4.09,2.49c1.38.31,6.81,2.43,11.4,4.34.14.49.27,1,.39,1.67,0,.24.09.5.14.76L53.07,89Zm50.67-4a3.85,3.85,0,0,0-.84-2,1.76,1.76,0,0,1-.32-.55,8.72,8.72,0,0,1-.1-1.81A2.75,2.75,0,0,0,100.81,78a3,3,0,0,0-3.22.64,3.5,3.5,0,0,1-1.67,1.11C95,80.09,90.54,82,86,84c.21-.3.64-.82.88-1.14q1.41-2.11.2-6.1c5.26-8.5,3.72-19.92-3.41-24.67C75.38,46.56,63.09,45.3,54.4,55A16.13,16.13,0,0,0,53.55,74L53,75.44a7.37,7.37,0,0,0,.43,6.18l1.22,1.79c.55.8,1,1.45,1.36,2-3.57-1.45-8.27-3.3-9.76-3.63a8.06,8.06,0,0,1-3.13-2A3.05,3.05,0,0,0,40.43,79a2,2,0,0,0-1.5,1.29,5.8,5.8,0,0,0-.34,2,7.32,7.32,0,0,0,.09,1.14s0,.32-.57,1a2.72,2.72,0,0,0-.65,1.72,2.3,2.3,0,0,0,.5,1.45,2.48,2.48,0,0,0,3.18.51A3.62,3.62,0,0,1,43.8,88c.72.29,4.39,1.51,8.63,2.93l5.83,2a26.93,26.93,0,0,0,.89,2.89c-4.23,1.72-10,4.21-11.45,4.94a8.52,8.52,0,0,1-2.82,0,7.11,7.11,0,0,0-.92-.06,2.6,2.6,0,0,0-1,.19,2,2,0,0,0-.52.34,2.13,2.13,0,0,0-.65,1.65,2.45,2.45,0,0,0,.61,1.6,2.33,2.33,0,0,1,.34.57,5.1,5.1,0,0,1,.24,1.76,2.42,2.42,0,0,0,1.5,2.28,2.73,2.73,0,0,0,3-.64,9.54,9.54,0,0,1,1.93-1.33c2.31-1.18,8.14-3.76,13-5.77a9.88,9.88,0,0,0,8.09,3.25,14.76,14.76,0,0,0,8.73-3.19c4.21,1.76,9.24,4,11.72,5.08l1.45.63a18,18,0,0,1,2.17,1.48,3.28,3.28,0,0,0,3.4.38,2.34,2.34,0,0,0,1.37-2.14v0c0-.8,0-.8.16-1a5.22,5.22,0,0,0,1.17-2.55,1.82,1.82,0,0,0-.51-1.56c-.78-.76-2.22-.58-3.16-.46a7.34,7.34,0,0,1-2.34,0L93,100.55l-2.58-.92c-1-.38-4.62-1.92-7.65-3.24a17.71,17.71,0,0,0,1.48-5c3.25-1.57,8.19-3.89,9.31-4.36A4.63,4.63,0,0,1,97,86.79c.93.25,2.09.61,3.08.95a2.91,2.91,0,0,0,2.86-.18,2.71,2.71,0,0,0,.85-2.56Z" transform="translate(0 0)"/></svg>