<svg id="Laag_1" data-name="Laag 1" xmlns="http://www.w3.org/2000/svg" viewBox="0 0 141.73 123.94"><defs><style>.cls-1{fill:#ffd300;}.cls-2,.cls-3{fill:#1d1d1b;}.cls-3{fill-rule:evenodd;}</style></defs><title>W023 Bijtende stoffen</title><polygon class="cls-1" points="11.72 115.44 70.87 12.91 130.01 115.44 11.72 115.44 11.72 115.44"/><path class="cls-2" d="M11.72,115.44,70.87,12.91,130,115.44Zm129.46,2.35L74.42,2.06a4.1,4.1,0,0,0-7.11,0L.56,117.79a4.09,4.09,0,0,0,3.55,6.15H137.63a4.09,4.09,0,0,0,3.55-6.15Z" transform="translate(0 0)"/><path class="cls-3" d="M48.81,97.88a2.53,2.53,0,0,0,0-1.66l-1.48-5.69c-.12-.46-.38-.81-.78-.81s-.65.35-.77.81-1.31,5-1.48,5.69a2.53,2.53,0,0,0,0,1.66,2.63,2.63,0,0,0,2.25,1.82,2.63,2.63,0,0,0,2.26-1.82Zm0-11.83a2.53,2.53,0,0,0,0-1.66L47.33,78.7c-.12-.46-.38-.81-.78-.81s-.65.35-.77.81-1.31,5-1.48,5.69a2.53,2.53,0,0,0,0,1.66,2.63,2.63,0,0,0,2.25,1.82,2.63,2.63,0,0,0,2.26-1.82Zm37.75-.77a2.6,2.6,0,0,0,0-1.66l-1.49-5.69c-.12-.46-.38-.81-.77-.81s-.66.35-.77.81L82,83.62a2.53,2.53,0,0,0,0,1.66,2.31,2.31,0,0,0,4.52,0Zm0-15.46a2.6,2.6,0,0,0,0-1.66l-1.49-5.69c-.12-.46-.38-.81-.77-.81s-.66.35-.77.81L82,68.16a2.53,2.53,0,0,0,0,1.66,2.31,2.31,0,0,0,4.52,0ZM26.75,108.94H60.94v-7.71H53.06a3.74,3.74,0,0,0-2.22.41c-.41.31-.51,1.18-.89,1.45s-1,.1-1.37.27c-.87.33-1.21,1.28-2,1.61a2,2,0,0,1-1.45,0c-1.09-.49-1.59-1.87-2.25-2.85-.33-.48-.54-.86-1.25-.86H26.75v7.71ZM74.24,93.15l-7.61,2c-1,.65-1.78,1.14-1.83,2.37A2.16,2.16,0,0,0,67,99.81a3.18,3.18,0,0,0,1.93-.87c2.23-1.59,6.83-4.78,6.83-4.78l-1.5-1Zm-3-2.08H59.88a2.25,2.25,0,0,0-1.15,2.13,2.29,2.29,0,0,0,2.07,2.25,5,5,0,0,0,2-.37l10.31-2.74-1.84-1.26Zm27.23-6c-1.72,1-3.89,2.41-6.2,2a3.4,3.4,0,0,1,.22,3.61,2.91,2.91,0,0,1-2.12,1.52,3.46,3.46,0,0,1-2.77-.77,3.07,3.07,0,0,1-1-2.45,4.94,4.94,0,0,1-2.44.62,5,5,0,0,1-2.32-.78A5.18,5.18,0,0,1,79.51,85c-1.76-.3-5.94-.95-7-1.23H56.3a3.08,3.08,0,1,0,.09,6.14l15.21,0,9.59,6.69c.5.35,1,.73,1.56,1.15a2,2,0,0,1,.83,2.06c-.2.91-.56,1.1-1.06,1.18l-5.3,1a5.69,5.69,0,0,0-3.69,2.8,5.24,5.24,0,0,0-.51,3.63c.3.81.82.67,1.7.51l7.63-1.3a22.45,22.45,0,0,0,3.23-.86c1.57-.48,8.84-3.93,10.27-4.62,6-2.88,15.46-7.17,15.46-7.17L103.88,82s-3.65,2-5.42,3ZM48.54,74H70.48a2.53,2.53,0,0,0-1.73-2.67A15.17,15.17,0,0,0,66.12,71c-5.7-.63-17.05-1.82-17.05-1.82L48.54,74ZM49.21,68c5.71.62,11.67,1.14,17.47,1.78a13.51,13.51,0,0,1,2.41.32,3.83,3.83,0,0,1,2.69,4.11,3.78,3.78,0,0,1-3.84,3.41,21.42,21.42,0,0,1-2.47-.27l-17.07-2a.94.94,0,1,1-1.85-.3l.82-7.27a.93.93,0,1,1,1.84.23Zm13.58-11.7c-.91.2-2.67.34-3.08,2H76.38l5.08-1.21-1-4.72s-16,3.58-17.62,3.92Zm19,2.06c-5.7,1.31-11.54,2.73-17.33,4.06a8.29,8.29,0,0,1-2.6.43,3.8,3.8,0,0,1-3.09-2.09,3.92,3.92,0,0,1,1.15-4.84A6.26,6.26,0,0,1,62.19,55l17.94-3.95A.94.94,0,1,1,82,50.73l1.6,7.15a.94.94,0,1,1-1.82.43Z" transform="translate(0 0)"/></svg>