<svg id="Laag_1" data-name="Laag 1" xmlns="http://www.w3.org/2000/svg" viewBox="0 0 141.73 123.94"><defs><style>.cls-1{fill:#ffd300;}.cls-2{fill:#1d1d1b;}</style></defs><title>W028 Oxiderende stoffen</title><polygon class="cls-1" points="11.72 115.44 70.87 12.91 130.01 115.44 11.72 115.44 11.72 115.44"/><path class="cls-2" d="M11.72,115.44,70.87,12.91,130,115.44Zm129.46,2.35L74.42,2.06a4.1,4.1,0,0,0-7.11,0L.55,117.79a4.1,4.1,0,0,0,3.56,6.15H137.62a4.1,4.1,0,0,0,3.56-6.15Z" transform="translate(0 0)"/><path class="cls-2" d="M69.36,105.64A10.23,10.23,0,1,0,59.13,95.41a10.23,10.23,0,0,0,10.23,10.23Zm16.31.64v3H53.05v-3h9a13.1,13.1,0,1,1,14.59,0Zm.89-17.93A12.46,12.46,0,0,1,83.63,91a14.83,14.83,0,0,0-4-6.42A14.29,14.29,0,0,0,81.25,79a17.51,17.51,0,0,1-2.77,1.74A14.14,14.14,0,0,0,79,73c-.57,1.77-2.64,5.24-4.45,6.22a15.14,15.14,0,0,0-3.05-16c.27,4.37.3,12.08-1.42,16.6a19.66,19.66,0,0,1-3-5.95,16.24,16.24,0,0,0-.66,6.86,15.62,15.62,0,0,0-2,.56,16.25,16.25,0,0,1-2.14-7.73c-1.43,2-1.29,5.34-1.22,7a8.82,8.82,0,0,1-2-1.59,23.81,23.81,0,0,0,1,4.72,15.09,15.09,0,0,0-4.26,5.43c-2.42-2.94-3.23-6.31-3-10.35.23-4.93,0-8.76-1-11.13a15,15,0,0,1,3.93,2.5,16,16,0,0,1,.75-5.74,18.81,18.81,0,0,0,.65-8.21,20.94,20.94,0,0,1,4.57,5.21c.67-1.27,1-4.52,1-7,.06-4.4-.31-5.81-.37-8.59a47.86,47.86,0,0,1,4.5,5.13,19.17,19.17,0,0,0,.72-5.67,17.36,17.36,0,0,1,2.1-7.66,24.16,24.16,0,0,0,.72,3.06,16.28,16.28,0,0,0,1.79,3.69c1,1.54,2.19,1.83,3.5,4,1.08,1.8,1,3.24,1.33,4.66a8.88,8.88,0,0,0,.31-4.56c4,2.23,6.33,9.86,6.33,14.72,1.28-.63,1.71-2.91,1.64-4.12,1.81.89,3.1,4.4,2.81,8.38-.34,4.41-1.27,6-1,10.13a3.3,3.3,0,0,0,1.75-3.31c2.2,3.33,1.07,10-2.26,14.11Z" transform="translate(0 0)"/></svg>