<svg id="Laag_1" data-name="Laag 1" xmlns="http://www.w3.org/2000/svg" viewBox="0 0 141.73 123.94"><defs><style>.cls-1{fill:#ffd300;}.cls-2,.cls-3{fill:#1d1d1b;}.cls-3{fill-rule:evenodd;}</style></defs><title>W029 Houder onder druk</title><polygon class="cls-1" points="11.72 115.44 130.01 115.44 70.87 12.91 11.72 115.44"/><path class="cls-2" d="M52.41,58.72l.67-1L59,62l-6.63-3.3ZM40,68.61l1.18-2,11,1.8L40,68.61Zm-28.3,46.83L37.85,70.15l14.25-.31,13.37.26a1.64,1.64,0,0,1,.11-1.49l-2.06-.21-.31.83a1.74,1.74,0,0,1-1,.67,2.31,2.31,0,0,1-1.39-.62c-.36-.16-.77,0-1.08-.26a.75.75,0,0,1-.31-.72v-.46a.56.56,0,0,0-.31-.06L40.68,65.24l5.46-9.47,21.75,11.5a.3.3,0,0,0,.2,0v-.15a.28.28,0,0,0-.1-.16,1.54,1.54,0,0,1-.41-.46c-.2-.41.21-.83.1-1.29a.92.92,0,0,0-.26-.57,4.28,4.28,0,0,0-.87-.82c-.21,0-.36.26-.36.46l.46.83c-.36,0-.61.25-.92.36l-9.88-6.7v-.1a.85.85,0,0,0,.73-.57.9.9,0,0,0-.06-.51A8.31,8.31,0,0,0,56,56.1a.84.84,0,0,0-.45-.21c-.37-.1-.57-.41-.93-.41a.52.52,0,0,0-.41.2c0,.11-.11.21-.11.31s.26.31.42.47a4.13,4.13,0,0,1,.1.41,3.49,3.49,0,0,1,0,.72l-.1.15-6.73-4.82,1.59-2.76L64,62.33a1.24,1.24,0,0,0,.21.15v-.1c0-.05-.06-.05-.06-.05l-7.71-8.86L51.26,46.9l.81-1.41L69.28,65.57v0l-5.2-7.47A3.67,3.67,0,0,0,64.24,57a.4.4,0,0,0-.47-.3c-.2,0-.2.25-.3.4l-9.3-15.21,1.38-2.4L68.14,61.92l-6.27-15.5L59,33.56l.8-1.39L67.05,54l.17.21a.87.87,0,0,1,0,.4l2.12,6.35c.05.1.05.15.15.21l-6.32-35,.88-1.52,6.73,32.06-2.75-39,2.8-4.85v0l.71,49.86,3.62-42.35,3.38,5.87-.88,7.44L75.34,54.4,73,66.29a2.82,2.82,0,0,1,.51.63,1,1,0,0,0,.41.35l.77-1.39,14.1-21.94L130,115.44Zm50.36-87.3,2.16,12.25L61,30.07l1.11-1.93Zm5,3.19-1.79-8.74,1.14-2,.65,10.71Zm8.22,31a.79.79,0,0,1,0,.36l-.56,1.7,0,.1s-.06,0-.11,0-.1-.16-.25-.2A1.07,1.07,0,0,0,73.8,64l1.29-5.1L81.71,31.7l3.87,6.71L75.81,61.2a.76.76,0,0,0-.57,0,.73.73,0,0,0-.15.46c0,.21.15.36.2.57Zm65.89,55.51L74.42,2.06a4.1,4.1,0,0,0-7.11,0L.56,117.79a4.09,4.09,0,0,0,3.55,6.15H137.63a4.09,4.09,0,0,0,3.55-6.15Z" transform="translate(0 0)"/><path class="cls-2" d="M48.14,61.71c0-.1-.21-.56-.21-.56l-.1-.31s-.15,0-.21-.26-.2-.72-.2-.72.1-.21.15-.36a2.12,2.12,0,0,0,0-.47l-.41-.36-.51,0h-.2l-.26.61s-.36.15-.36.26-.26.41-.26.51,0,.62,0,.62c.1.26-.16.72,0,.82s.15.11.26.26.05.41.05.41l-.05.67.15.37a.8.8,0,0,0,.1.41.54.54,0,0,1,.26.25l.26.11.35-.21.31.21a3.1,3.1,0,0,1,.36-.16c.16,0,.11-.05.16-.25S48,63,48.19,63s.26-.31.26-.31l-.16-.46a2.11,2.11,0,0,1-.15-.52Z" transform="translate(0 0)"/><path class="cls-2" d="M60.79,64.7c-.1,0-.1,0-.16,0a.53.53,0,0,0-.25.51,1.09,1.09,0,0,0,.25.67l.67.42a.8.8,0,0,0,.31.1h.21a.66.66,0,0,0,.46-.57,1.09,1.09,0,0,0-.25-.77l-1.24-.41Z" transform="translate(0 0)"/><path class="cls-2" d="M63.67,65.73a.63.63,0,0,0-.62,0c-.15,0-.2.15-.31.3v.26a4,4,0,0,0,.47.56l.15.11a.37.37,0,0,0,.26-.11l.1,0a.3.3,0,0,0,.16-.21L63.77,66l-.1-.25Z" transform="translate(0 0)"/><path class="cls-2" d="M54.57,61.76a3.49,3.49,0,0,0-.83-.67,1.7,1.7,0,0,0-.51-.21.67.67,0,0,0-.26.21,3.21,3.21,0,0,0,0,1.54c.26.26.67.32.88.62l.1.31a1,1,0,0,0,.51.52c.41,0,1,0,1.19-.47a1.21,1.21,0,0,0-.16-1.23,3.65,3.65,0,0,0-.87-.62Z" transform="translate(0 0)"/><path class="cls-2" d="M76.38,58l.15-.1c.2-.52.66-.88.77-1.39,0-.21,0-.41,0-.67a10.53,10.53,0,0,1,.1-1.24,1.31,1.31,0,0,0,.31-.77c0-.2-.16-.46-.36-.41s-.26.15-.41.31a3.91,3.91,0,0,1-.31,1,2.93,2.93,0,0,0-.31.67,1.8,1.8,0,0,0-.15,1c-.05.11-.16.21-.21.31a1.08,1.08,0,0,0-.26.67c.06.36.36.78.73.62Z" transform="translate(0 0)"/><path class="cls-2" d="M77.56,66.09l.3-.31.31-.1.21-.11.21-.2a.41.41,0,0,0,.09-.21c0-.1.06-.3.06-.3s.16-.06.16-.16.1-.16,0-.21.11-.15.11-.15l.1-.31v-.16l-.1-.1a.17.17,0,0,0,0-.1l-.1-.05-.11-.1h-.11a.93.93,0,0,1-.2,0h-.15c-.1,0,0,0-.21,0a.69.69,0,0,0-.26,0,.1.1,0,0,1-.1.1l-.2.1a.42.42,0,0,1,0,.26s0,.31,0,.31l.1.2.05.16V65l-.2.15-.16.26-.05.2.21.26v.21Z" transform="translate(0 0)"/><path class="cls-2" d="M62.08,61.6l-.62-.72a.94.94,0,0,0-.47,0,.5.5,0,0,0-.15.37l.15.67a1.23,1.23,0,0,0,.37.46l.2,0a.71.71,0,0,0,.72-.1.28.28,0,0,0,.11-.31.74.74,0,0,0-.31-.42Z" transform="translate(0 0)"/><path class="cls-2" d="M66.24,53.52c-.1,0-.15.16-.26.21a1.67,1.67,0,0,0-.2,1.39,1.57,1.57,0,0,0,.87.93l.21.05c.15,0,.21-.11.31-.21s.15-.25.21-.41l-.21-.67a.6.6,0,0,0,.09-.22L67.05,54l-.4-.51c-.1-.15-.25,0-.41.05Z" transform="translate(0 0)"/><path class="cls-2" d="M68.4,66.8l.21-.14a.5.5,0,0,0,.15-.37c0-.25-.1-.56-.31-.61a.59.59,0,0,0-.51.15l-.21.31v.26a.77.77,0,0,0,.21.36.73.73,0,0,0,.46,0Z" transform="translate(0 0)"/><path class="cls-2" d="M74.62,67.17a.43.43,0,0,0,.42,0l.1-.1a.11.11,0,0,0,.1-.1l.05-.42.46-.46-.1-.41c-.05-.26-.36-.26-.56-.11a1.48,1.48,0,0,0-.42.52,1.57,1.57,0,0,0-.25.52.75.75,0,0,0,.15.46,0,0,0,0,0,.05,0Z" transform="translate(0 0)"/><path class="cls-2" d="M68.81,68.82c0,.05,0,.1.1.15a1,1,0,0,0,.21,1.08l.1.16c.1.05.26,0,.31,0l.52-1.09a.38.38,0,0,0,.1-.2.63.63,0,0,0-.1-.52,4.81,4.81,0,0,1-.42-.72.47.47,0,0,0-.66.21c-.06.16,0,.26,0,.47a.48.48,0,0,0-.21.46Z" transform="translate(0 0)"/><path class="cls-2" d="M68,72.16l-.2.16a.51.51,0,0,0-.11.46c0,.16.11.26.26.36h.15l.26-.1.21-.31v-.21l-.31-.36s-.16,0-.26,0Z" transform="translate(0 0)"/><polygon class="cls-2" points="67.68 70.2 67.68 70.15 57.29 72.11 59.92 73.81 67.68 70.2 67.68 70.2"/><path class="cls-2" d="M67.32,71.75l.05.21.26.15c.1,0,.15,0,.26,0L68,72l.1-.26a.53.53,0,0,0-.25-.41,1.71,1.71,0,0,0-.47.15c-.1.06-.1.16-.1.26Z" transform="translate(0 0)"/><path class="cls-2" d="M69.53,62.58c0-.15-.15-.2-.25-.2a1,1,0,0,0-.67.2l-.21.47-.05.31.26.36a2,2,0,0,0,.26.05l.2-.15a.81.81,0,0,0,.41-.52l0-.52Z" transform="translate(0 0)"/><path class="cls-2" d="M86.86,66.29a5.62,5.62,0,0,0-6.63-.36L75.5,68.87l-.67.41a3.33,3.33,0,0,0-.31-.92l-.62-.78a2.07,2.07,0,0,0-1,.36.43.43,0,0,0-.16.42c0,.15.16.25.11.41a.41.41,0,0,1-.52.25.45.45,0,0,1-.21-.1c-.25-.15-.45-.36-.72-.52a.45.45,0,0,0-.25.27c-.05.1-.05.3-.1.45l-.57.72a1.13,1.13,0,0,1,0,1.14c-.21.2-.51,0-.77-.21s-.36-.26-.57-.2a.89.89,0,0,0-.67,1,2,2,0,0,0,.72,1.23l-1.28.77L27.83,98.74a6.18,6.18,0,0,0-2.11,8.13,5.83,5.83,0,0,0,7.61,2L86.4,75.71a5.83,5.83,0,0,0,2.52-6.17l6-3.71c.61-.41.61-1.39.1-2.37s-1.59-1.28-2.11-.88l-6.07,3.71Z" transform="translate(0 0)"/><path class="cls-2" d="M69.84,62.58l.26,0-.16-.42.06-.46a.18.18,0,0,0-.16-.16h-.15l-.16.1a1.7,1.7,0,0,0,.21.83c.05,0,.05.11.1.15Z" transform="translate(0 0)"/><path class="cls-2" d="M74.06,59.08a.54.54,0,0,0-.36-.41c-.21,0-.36.21-.46.31l-.21.41a1,1,0,0,0,.67.83h.15c.1,0,.15,0,.26-.16a1.92,1.92,0,0,1,0-1Z" transform="translate(0 0)"/><path class="cls-2" d="M73.39,57.74h.31a.67.67,0,0,0,.46-.36,4.15,4.15,0,0,0,0-2.1.62.62,0,0,0-.15-.42c-.26-.2-.62.16-.77.42l-.41,1.44a.77.77,0,0,0,.51,1Z" transform="translate(0 0)"/><path class="cls-2" d="M71.74,68.15A.53.53,0,0,0,72,68l.1-.15c0-.1,0-.15,0-.26A1.82,1.82,0,0,0,72,66.4,1.21,1.21,0,0,0,71,66a.48.48,0,0,0-.2-.26.25.25,0,0,0-.31.15.84.84,0,0,0-.16.31,7.68,7.68,0,0,0-.15,1.14,2.07,2.07,0,0,0,.31.46l1.28.31Z" transform="translate(0 0)"/><path class="cls-2" d="M72.41,63l.21-.1.15-.16,0-.41c0-.21-.2-.57-.41-.41a1.63,1.63,0,0,0-.36.46v.36a.38.38,0,0,0,.36.26Z" transform="translate(0 0)"/><polygon class="cls-3" points="87.17 109.4 109.64 109.4 109.64 107.13 87.17 107.13 87.17 109.4 87.17 109.4"/><path class="cls-3" d="M101.31,87.15a2.64,2.64,0,0,0-.1-1c.26-.05.92.77,1.39,1.49a10.53,10.53,0,0,1,1.34,4.9,2.38,2.38,0,0,0,.77-1.86,2,2,0,0,1,.82,1,8.6,8.6,0,0,1,.36,2.47,22.36,22.36,0,0,1-.36,2.78,3.77,3.77,0,0,0,0,1.81,1.68,1.68,0,0,0,.77-1.45,3.61,3.61,0,0,1,.41,2.68,6.09,6.09,0,0,1-1.54,3.5c-.46.62-.93,1.19-3.29,1.91a13.86,13.86,0,0,1-3.61.05l1.24-.67s.87-.67,1.5-1.24a7.62,7.62,0,0,0,1.23-1.65,5.5,5.5,0,0,0,.71-2.52,3.33,3.33,0,0,1-1.12.73s.25-1.24.31-1.91a7,7,0,0,0-.11-1.39c-.1,0-.31.72-.72,1.34a7,7,0,0,1-1.18,1.34,8.06,8.06,0,0,0,.31-3.92,5.83,5.83,0,0,0-1.7-3s.1,2.21,0,3.08a14.89,14.89,0,0,1-.62,4s-.46-.62-.61-.87c-.41-.78-.52-1-.52-1l-.2-.62a5.86,5.86,0,0,0-.31,2,4.23,4.23,0,0,0,.36,2.27l-.21,0c-.21.11-.15.16-.15.16A6.77,6.77,0,0,1,95,98.79,6.19,6.19,0,0,1,94.68,97a4.93,4.93,0,0,0-.52,3c0,.11-.15,0-.46-.26l-.41-.36a10.06,10.06,0,0,0,.36,1.65,7.77,7.77,0,0,0,1.23,2.63,8.15,8.15,0,0,0,1.75,1.75,4.36,4.36,0,0,1-3.65-.62A6,6,0,0,1,90.67,101c-.1-1.08,0-2.94-.1-4.89a6.55,6.55,0,0,0-.42-1.6,4.77,4.77,0,0,1,1.7,1s-.16.36,0-1A10.43,10.43,0,0,1,92.52,92a14.17,14.17,0,0,0,0-2.53l1.39,1.45.56.82a8.45,8.45,0,0,0,.36-1.59,29,29,0,0,0,0-3.35s0-.93-.15-1.86a14.86,14.86,0,0,1,2,2.27,5.9,5.9,0,0,0,.26-1.6,22.52,22.52,0,0,1,.2-2.31,6.22,6.22,0,0,1,.78-1.91,5.77,5.77,0,0,0,.41,1.6A6.37,6.37,0,0,0,99,84.32c.67.87,1.49,1.44,1.8,2.31.16.78.25,1.45.25,1.45a1.78,1.78,0,0,0,.26-.93" transform="translate(0 0)"/></svg>