<?xml version="1.0" encoding="utf-8"?>
<!-- Generator: Adobe Illustrator 24.0.2, SVG Export Plug-In . SVG Version: 6.00 Build 0)  -->
<svg version="1.1" xmlns="http://www.w3.org/2000/svg" xmlns:xlink="http://www.w3.org/1999/xlink" x="0px" y="0px"
	 viewBox="0 0 141.7 141.7" style="enable-background:new 0 0 141.7 141.7;" xml:space="preserve">
<style type="text/css">
	.st0{fill:#FFFFFF;}
	.st1{fill:#007E48;}
</style>
<g id="Laag_2">
	<rect y="0" class="st0" width="141.7" height="141.7"/>
</g>
<g id="Laag_1">
	<path class="st1" d="M0,0v141.7h141.7V0H0z M59.2,35.3c0,3.8-3.1,6.9-6.9,6.9s-6.9-3.1-6.9-6.9c0-3.8,3.1-6.9,6.9-6.9
		C56.1,28.4,59.2,31.5,59.2,35.3z M48.1,129h-3.4v-7.4H19.3v7.4h-3.4V12.8h3.4v8.7h25.4v-8.7h3.4v14.7c-1.4,0.8-2.6,2-3.4,3.4v-6.3
		H19.3v16.4h25.4v-1.2c0.8,1.4,2,2.6,3.4,3.4v6.2l-3.4,3.4v-8.8H19.3v16.4H21c-0.1,0.4-0.2,0.9-0.2,1.3c0,0.6,0.1,1.2,0.3,1.7h-1.8
		v16.4h25.4V66.9c1-0.2,1.9-0.7,2.6-1.4l0.9-0.9v23.5l-3.4,3.4v-8.8H19.3v16.4h22.6c0.3,0.8,0.8,1.6,1.4,2.2
		c0.3,0.3,0.7,0.6,1.1,0.8H19.3v16.4h25.4v-16.2c0.9,0.5,1.8,0.7,2.8,0.7c0.2,0,0.4,0,0.6,0V129z M44.7,99.9c-1.5-1.5-1.5-4,0-5.6
		l27.8-27.8L57.9,52L45.8,64.1c-0.6,0.6-1.5,1-2.3,1H26.2c-1.9,0-3.4-1.5-3.4-3.4c0-1.9,1.5-3.4,3.4-3.4h15.7L64.2,36
		c0.6-0.6,1.5-1,2.3-1h17.2c1.9,0,3.4,1.5,3.4,3.4v17.8l-6.9-6.9v-7.5H70l29,29H87.8l-4.3-4.3L50.3,99.9
		C48.7,101.5,46.2,101.5,44.7,99.9z M64.3,71.9V61.2l4.4,4.4v1.9L64.3,71.9z M125.9,77.2H75.8l4.4-4.4h41.4V17.2H68.7V33h-2.2
		c-0.8,0-1.5,0.2-2.2,0.5V12.8h61.6V77.2z"/>
</g>
</svg>
