<?xml version="1.0" encoding="utf-8"?>
<!-- Generator: Adobe Illustrator 24.0.2, SVG Export Plug-In . SVG Version: 6.00 Build 0)  -->
<svg version="1.1" xmlns="http://www.w3.org/2000/svg" xmlns:xlink="http://www.w3.org/1999/xlink" x="0px" y="0px"
	 viewBox="0 0 141.7 102.1" style="enable-background:new 0 0 141.7 102.1;" xml:space="preserve">
<style type="text/css">
	.st0{fill:#FFFFFF;}
	.st1{fill:#D0043C;}
	.st2{fill:#1D1D1B;}
</style>
<g id="Laag_2">
	<rect y="0" class="st0" width="141.7" height="102.1"/>
</g>
<g id="Layer_1">
	<title>F-NL-008_Brandmeldinstallatie-BMP</title>
	<polygon class="st1" points="136.8,5 5,61.6 136.8,61.6 	"/>
	<path class="st2" d="M141.7,0H0V102h141.7V66.6l0,0V0z M5,5h131.8v56.6H5V5z M137,97.1H4.8V66.6h132.1L137,97.1z"/>
	<path class="st2" d="M40.1,71.1h8.6c1.3,0,2.5,0,3.8,0.2c0.8,0.1,1.6,0.4,2.2,0.9c0.7,0.5,1.2,1.1,1.6,1.8c0.4,0.8,0.7,1.6,0.7,2.5
		c0,1-0.3,1.9-0.8,2.8c-0.5,0.8-1.3,1.5-2.2,1.9c1.2,0.3,2.2,1,3,2c0.7,0.9,1,2.1,1,3.2c0,1-0.2,2-0.7,2.8c-0.4,0.9-1.1,1.6-1.9,2.2
		c-0.9,0.6-1.9,0.9-2.9,1c-0.7,0.1-2.5,0.1-5.2,0.1h-7.2V71.1z M44.5,74.6v5h2.8c1.7,0,2.7,0,3.2-0.1c0.7,0,1.3-0.3,1.8-0.8
		c0.4-0.4,0.7-1.1,0.6-1.7c0-0.6-0.2-1.2-0.5-1.6c-0.4-0.4-1-0.7-1.6-0.8c-0.4,0-1.7-0.1-3.7-0.1L44.5,74.6z M44.5,83.2v5.7h4
		c1,0,2,0,3-0.1c0.6-0.1,1.1-0.4,1.5-0.8c0.4-0.5,0.6-1.2,0.6-1.8c0-0.6-0.1-1.2-0.5-1.6c-0.3-0.5-0.8-0.8-1.3-1
		c-1.2-0.3-2.5-0.4-3.8-0.3H44.5z"/>
	<path class="st2" d="M61.7,92.5V71.1h6.5l3.9,14.7L76,71.1h6.5v21.5h-4V75.6l-4.3,16.9H70l-4.3-16.9v16.9H61.7z"/>
	<path class="st2" d="M86.8,92.5V71.1h7c1.7-0.1,3.5,0,5.2,0.3c1.2,0.3,2.3,1.1,3.1,2.1c0.9,1.2,1.3,2.7,1.2,4.2
		c0,1.2-0.2,2.3-0.7,3.3c-0.4,0.8-1.1,1.6-1.8,2.1c-0.7,0.5-1.4,0.8-2.3,1c-1.5,0.2-3,0.3-4.5,0.3h-2.9v8.1L86.8,92.5z M91.1,74.7
		v6.1h2.4c1.2,0.1,2.3,0,3.4-0.3c0.6-0.2,1-0.6,1.4-1.1c0.3-0.5,0.5-1.1,0.5-1.7c0-0.7-0.2-1.4-0.7-1.9c-0.4-0.5-1.1-0.9-1.7-1
		c-1-0.1-2.1-0.2-3.1-0.2L91.1,74.7z"/>
</g>
</svg>
