<?xml version="1.0" encoding="utf-8"?>
<!-- Generator: Adobe Illustrator 24.0.2, SVG Export Plug-In . SVG Version: 6.00 Build 0)  -->
<svg version="1.1" xmlns="http://www.w3.org/2000/svg" xmlns:xlink="http://www.w3.org/1999/xlink" x="0px" y="0px"
	 viewBox="0 0 141.7 102.1" style="enable-background:new 0 0 141.7 102.1;" xml:space="preserve">
<style type="text/css">
	.st0{fill:#FFFFFF;}
	.st1{fill:#D0043C;}
	.st2{fill:#1D1D1B;}
</style>
<g id="Laag_2">
	<rect y="0" class="st0" width="141.7" height="102.1"/>
</g>
<g id="Layer_1">
	<title>F-NL-008_Brandmeldinstallatie-BMC</title>
	<polygon class="st1" points="136.8,5 5,61.6 136.8,61.6 	"/>
	<path class="st2" d="M141.7,0H0V102h141.7V66.6l0,0V0z M5,5h131.8v56.6H5V5z M137,97.1H4.8V66.6h132.1L137,97.1z"/>
	<g id="Laag_2_1_">
		<path class="st2" d="M38.7,71.1h8.6c1.3,0,2.5,0,3.8,0.2c0.8,0.1,1.6,0.4,2.2,0.9c0.7,0.5,1.2,1.1,1.6,1.8
			c0.4,0.8,0.7,1.6,0.7,2.5c0,2-1.2,3.8-3,4.7c1.2,0.3,2.2,1,3,1.9c0.7,0.9,1.1,2.1,1.1,3.2c0,1-0.3,2-0.7,2.8
			c-0.4,0.9-1.1,1.6-1.9,2.2c-0.9,0.6-1.9,0.9-2.9,1c-0.7,0.1-2.5,0.1-5.2,0.1h-7.3V71.1z M43.1,74.7v5h2.8c1.7,0,2.7,0,3.2-0.1
			c0.7,0,1.3-0.3,1.8-0.8c0.4-0.4,0.7-1,0.6-1.7c0-0.6-0.2-1.2-0.5-1.6c-0.4-0.4-1-0.7-1.6-0.8c-0.4,0-1.7-0.1-3.7-0.1L43.1,74.7z
			 M43.1,83.2v5.7h4c1,0,2,0,3-0.1c0.6-0.1,1.1-0.4,1.6-0.8c0.4-0.5,0.6-1.2,0.6-1.8c0-0.6-0.1-1.2-0.5-1.6c-0.3-0.5-0.8-0.8-1.4-1
			c-1.3-0.3-2.6-0.4-3.8-0.3L43.1,83.2z"/>
		<path class="st2" d="M60.3,92.6V71.1h6.5l3.9,14.7l3.8-14.7h6.5v21.5H77V75.7l-4.3,16.9h-4.1l-4.3-16.9v16.9L60.3,92.6z"/>
		<path class="st2" d="M99.1,84.7l4.2,1.3c-0.5,2-1.6,3.9-3.2,5.2c-1.7,1.2-3.7,1.8-5.7,1.7c-2.6,0.1-5.2-1-7-2.9
			c-1.9-2.2-2.9-5.1-2.8-8c0-3.6,0.9-6.4,2.8-8.3c1.9-2,4.5-3.1,7.3-3c2.4-0.1,4.7,0.7,6.4,2.3c1.1,1.1,1.8,2.5,2.2,4L99,78
			c-0.4-2.2-2.3-3.7-4.5-3.6c-1.5,0-2.9,0.6-3.9,1.7c-1,1.1-1.5,3-1.5,5.6c0,2.7,0.5,4.7,1.5,5.8c0.9,1.1,2.3,1.8,3.8,1.7
			c1.1,0,2.2-0.4,3-1.1C98.3,87.2,98.9,86,99.1,84.7z"/>
	</g>
</g>
</svg>
