<?xml version="1.0" encoding="utf-8"?>
<!-- Generator: Adobe Illustrator 24.0.2, SVG Export Plug-In . SVG Version: 6.00 Build 0)  -->
<svg version="1.1" xmlns="http://www.w3.org/2000/svg" xmlns:xlink="http://www.w3.org/1999/xlink" x="0px" y="0px"
	 viewBox="0 0 141.7 102.1" style="enable-background:new 0 0 141.7 102.1;" xml:space="preserve">
<style type="text/css">
	.st0{fill:#FFFFFF;}
	.st1{fill:#D0043C;}
	.st2{fill:#1D1D1B;}
</style>
<g id="Laag_2">
	<rect y="0" class="st0" width="141.7" height="102.1"/>
</g>
<g id="Layer_1">
	<title>F-NL-008_Brandmeldinstallatie-SMC</title>
	<polygon class="st1" points="136.8,5 5,61.6 136.8,61.6 	"/>
	<path class="st2" d="M141.7,0H0V102h141.7V66.6l0,0V0z M5,5h131.8v56.6H5V5z M137,97.1H4.8V66.6h132.1L137,97.1z"/>
	<g id="Laag_2_1_">
		<path class="st2" d="M38.3,85.6l4.2-0.4c0.1,1.2,0.7,2.3,1.5,3.1c0.9,0.7,2,1.1,3.2,1c1.1,0.1,2.2-0.2,3.2-0.9
			c0.7-0.5,1.1-1.3,1.1-2.1c0-0.5-0.1-0.9-0.4-1.3c-0.4-0.4-1-0.8-1.6-0.9c-0.5-0.2-1.7-0.5-3.5-0.9c-1.8-0.3-3.5-1.1-4.9-2.1
			c-1.3-1.1-2-2.7-2-4.3c0-1.1,0.4-2.1,1-3c0.7-1,1.6-1.7,2.7-2.2c1.3-0.5,2.8-0.8,4.2-0.8c2.7,0,4.7,0.6,6.1,1.8
			c1.4,1.2,2.2,2.9,2.2,4.7l-4.3,0.2c-0.1-0.9-0.5-1.8-1.2-2.4c-0.8-0.5-1.8-0.8-2.8-0.7c-1.1-0.1-2.1,0.2-3,0.8
			c-0.4,0.3-0.7,0.8-0.7,1.3c0,0.5,0.2,1,0.7,1.3c1.2,0.7,2.6,1.2,4,1.4c1.6,0.3,3.2,0.9,4.7,1.6c1,0.5,1.8,1.3,2.4,2.2
			c0.6,1,0.9,2.2,0.9,3.4c0,1.2-0.3,2.4-1,3.5c-0.7,1.1-1.7,1.9-2.9,2.4c-1.5,0.6-3.1,0.8-4.7,0.8c-2.2,0.1-4.5-0.5-6.3-1.9
			C39.3,89.6,38.4,87.7,38.3,85.6z"/>
		<path class="st2" d="M59.3,92.5V71.1h6.5l3.9,14.7l3.8-14.7h6.5v21.5H76V75.6l-4.3,16.9h-4.2l-4.3-16.9v16.9H59.3z"/>
		<path class="st2" d="M98.1,84.7l4.2,1.3c-0.5,2.1-1.6,3.9-3.2,5.2c-4,2.7-9.3,2.2-12.7-1.2c-1.9-2.2-2.9-5.1-2.8-8
			c0-3.6,0.9-6.3,2.8-8.3c1.9-2,4.5-3.1,7.3-3c2.4-0.1,4.7,0.7,6.4,2.3c1.1,1.1,1.8,2.5,2.2,4L98,78c-0.4-2.1-2.3-3.7-4.5-3.6
			c-1.5,0-2.9,0.6-3.9,1.7c-1,1.2-1.5,3-1.5,5.6c0,2.7,0.5,4.6,1.5,5.8c0.9,1.1,2.3,1.8,3.8,1.7c1.1,0,2.2-0.4,3-1.1
			C97.3,87.2,97.9,86,98.1,84.7z"/>
	</g>
</g>
</svg>
