<?xml version="1.0" encoding="utf-8"?>
<!-- Generator: Adobe Illustrator 24.0.2, SVG Export Plug-In . SVG Version: 6.00 Build 0)  -->
<svg version="1.1" xmlns="http://www.w3.org/2000/svg" xmlns:xlink="http://www.w3.org/1999/xlink" x="0px" y="0px"
	 viewBox="0 0 141.7 141.7" style="enable-background:new 0 0 141.7 141.7;" xml:space="preserve">
<style type="text/css">
	.st0{fill:#FFFFFF;}
	.st1{fill-rule:evenodd;clip-rule:evenodd;fill:#D0043C;}
</style>
<g id="Laag_2">
	<rect x="-0.2" y="0" class="st0" width="141.7" height="141.7"/>
</g>
<g id="Laag_1">
	<path class="st1" d="M-0.2,0v141.7h141.9V0H-0.2z M100.4,37.8c2.6,1.4,6.7,5,9.6,11.6c2.9,6.7,4.3,9.8,7.1,14
		c2.8,4.2,4.2,6.3,7.1,8.2c2.9,1.9,6,3.5,6,3.5s-3.9,1.4-7.6,1.1c-3.7-0.3-9.9-2-13.6-6.6c-3.7-4.6-7.1-10.1-8.2-16
		s-1.9-8.5-3.1-10.8c-1.5-3-5.2-5.8-5.2-5.8S97.8,36.5,100.4,37.8z M17.6,12.7h31.7v31.7h-9.6V40h5V17.1H22.1V40h3.6v4.4h-8.2
		L17.6,12.7L17.6,12.7z M32.8,37.8c-5.1,0-9.2-4.1-9.2-9.1s4.1-9.1,9.2-9.1s9.2,4.1,9.2,9.1C42.1,33.6,37.9,37.8,32.8,37.8z
		 M71.8,77.5v35.6c0,0-1,3.6-3,5.9c-0.7,0.7-1.4,1.3-2.2,1.9v8H26v-0.6c0-0.1-0.1-2.7-1.4-5.6c-3.7-8-11.5-22.3-11.5-22.3V73.1
		c0,0,1.2-2.3,3.2-2.6c7.7-0.8,8.2,6.8,8.2,6.8l-0.2,17.8h3.2V43.4c0,0,0.2-4.4,5.1-4.4c5.6,0,5.2,4.4,5.2,4.4v23.2
		c0.3,0.2,1,0.5,2.1-0.2c-0.1-2.6,3.7-3.7,5.2-3.7c3.4,0,5.4,3.8,5.4,3.8v4.6h1.1c0.6-1.3,2.1-4.1,5.1-3.8c4.3,0.4,5.1,4.5,5.1,4.5
		v5.3h0.4c0.5-1.3,2.1-4.9,5-4.9C72.6,72.2,71.8,77.5,71.8,77.5z M91.9,93.8c-4.5-2.6-6.7-2.1-6.7-2.1s4-4.7,10-4.7
		s8.7,2.7,11.1,5.1c2.4,2.4,7.6,8.9,13.1,11.5c6.6,3.1,10.7,3.4,10.7,3.4s-4.5,4.9-11.9,4.9c-7.4,0-11.5-2-16.7-7.9
		C96.3,97.9,96.3,96.5,91.9,93.8z M130.4,130.4c0,0-8.7,0.8-15.6-1.1c-6.9-1.9-12.4-6.4-14.7-9.8c-2.4-3.4-3.7-11.6-3.7-11.6
		s10.7,8.7,20.4,8.4s13.6-2.2,13.6-2.2L130.4,130.4L130.4,130.4z M130.4,99.8c0,0-13.8-2.5-22.2-10.5c-8.5-8-9.8-12.1-10.9-16.5
		c-1.1-4.3-1.1-12.2-1.1-12.2s5.9,9.1,12,13.8c6.1,4.8,10.6,7.4,15.2,8.4c4.5,1,7,0.7,7,0.7V99.8z M130.4,68c0,0-5.4-2.2-9.6-8
		c-4.2-5.9-7.4-10.4-7.4-18.6s1.8-11.6,1.8-11.6s1.8,8.1,5.5,14.2c3.7,6,5.8,6.4,6.8,7c1.9,1,2.8,1,2.8,1L130.4,68L130.4,68z"/>
</g>
</svg>
