<?xml version="1.0" encoding="UTF-8" standalone="no"?>
<svg width="11.2889mm" height="11.2889mm"
 viewBox="0 0 32 32"
 xmlns="http://www.w3.org/2000/svg" xmlns:xlink="http://www.w3.org/1999/xlink"  version="1.2" baseProfile="tiny">
<title>Qt SVG Document</title>
<desc>Generated with Qt</desc>
<defs>
</defs>
<g fill="none" stroke="black" stroke-width="1" fill-rule="evenodd" stroke-linecap="square" stroke-linejoin="bevel" >

<g fill="#ff0000" fill-opacity="1" stroke="none" transform="matrix(1,0,0,1,16,6.5)"
font-family="MS Shell Dlg 2" font-size="9.8" font-weight="400" font-style="normal" 
>
<path vector-effect="none" fill-rule="nonzero" d="M11.8286,8.16571 L7.26857,8.44 C7.22286,8.37143 7.01714,8.15429 6.65143,7.78857 C6.28571,7.44571 6.06857,7.27429 6,7.27429 C5.86286,7.22857 5.44,7.20571 4.73143,7.20571 C4.52571,7.20571 4.29714,7.20571 4.04571,7.20571 C3.79428,7.20571 3.52,7.20571 3.22286,7.20571 C2.76571,6.70286 2.37714,6.26857 2.05714,5.90286 C1.73714,5.53714 1.47429,5.24 1.26857,5.01143 C0.445714,5.03429 -0.251429,5.05714 -0.822858,5.08 C-1.39429,5.10286 -1.84,5.11429 -2.16,5.11429 C-2.59429,6.71429 -2.83429,7.56 -2.88,7.65143 C-4.29714,7.74286 -5.48571,7.82286 -6.44571,7.89143 C-7.40571,7.96 -8.12571,8.00571 -8.60571,8.02857 L-8.60571,7.82286 C-8.60571,7.48 -8.73714,7.17714 -9,6.91429 C-9.26286,6.65143 -9.57714,6.52 -9.94286,6.52 C-10.3086,6.52 -10.6171,6.65143 -10.8686,6.91429 C-11.12,7.17714 -11.2457,7.48 -11.2457,7.82286 C-11.2457,7.89143 -11.2457,7.95429 -11.2457,8.01143 C-11.2457,8.06857 -11.2343,8.13143 -11.2114,8.2 L-12,8.26857 C-11.9771,8.56571 -11.9543,8.78286 -11.9314,8.92 L-11.9314,9.12571 C-11.9314,9.28571 -11.9543,9.4 -12,9.46857 C-11.84,9.92571 -11.52,10.52 -11.04,11.2514 C-10.7429,11.6629 -10.5029,12.0114 -10.32,12.2971 C-10.1371,12.5829 -10.0114,12.8057 -9.94286,12.9657 C-9.32571,12.9886 -8.72,13 -8.12571,13 C-7.53143,13 -6.94857,13 -6.37714,13 C-4.59429,13 -2.86857,12.9886 -1.2,12.9657 C0.468571,12.9429 2.11428,12.8971 3.73714,12.8286 C6.98286,12.7143 9.07428,12.0171 10.0114,10.7371 C10.0571,10.6686 10.1543,10.5257 10.3029,10.3086 C10.4514,10.0914 10.64,9.8 10.8686,9.43429 C11.2114,8.88571 11.5314,8.46286 11.8286,8.16571 M2.88,7.20571 L-2.53714,7.54857 C-2.42286,7.06857 -2.32,6.65143 -2.22857,6.29714 C-2.13714,5.94286 -2.05714,5.64 -1.98857,5.38857 C-1.76,5.38857 -1.37714,5.38286 -0.84,5.37143 C-0.302858,5.36 0.377142,5.33143 1.2,5.28571 L2.88,7.20571 M6.92571,8.47429 L-3.70286,8.92 C-3.61143,8.69143 -3.53714,8.49143 -3.48,8.32 C-3.42286,8.14857 -3.38286,8.01714 -3.36,7.92571 C-1.00572,7.65143 1.80571,7.51429 5.07429,7.51429 L5.86286,7.51429 C5.95429,7.53714 6.14857,7.67429 6.44571,7.92571 C6.76571,8.17714 6.92571,8.36 6.92571,8.47429 M-3.63429,7.82286 C-3.77143,8.28 -3.86286,8.65714 -3.90857,8.95429 C-4.64,9.02286 -5.32,9.08 -5.94857,9.12571 C-6.57714,9.17143 -7.18857,9.20571 -7.78286,9.22857 L-11.7943,9.50286 L-11.8629,8.33714 L-11.1771,8.30286 C-10.9257,8.87428 -10.5143,9.16 -9.94286,9.16 C-9.23429,9.16 -8.8,8.81714 -8.64,8.13143 L-3.63429,7.82286 M-8.84571,7.82286 C-8.84571,7.91429 -8.85714,7.98286 -8.88,8.02857 L-9.05143,8.06286 C-9.34857,8.08571 -9.65714,8.10857 -9.97714,8.13143 C-10.2971,8.15429 -10.6171,8.17714 -10.9371,8.2 C-10.9829,8.06286 -11.0057,7.93714 -11.0057,7.82286 C-11.0057,7.52571 -10.9029,7.27429 -10.6971,7.06857 C-10.4914,6.86286 -10.24,6.76 -9.94286,6.76 C-9.64571,6.76 -9.38857,6.86286 -9.17143,7.06857 C-8.95429,7.27429 -8.84571,7.52571 -8.84571,7.82286 M-8.88,8.16571 C-9.08571,8.66857 -9.44,8.92 -9.94286,8.92 C-10.3543,8.92 -10.6743,8.71428 -10.9029,8.30286 L-8.88,8.16571"/>
</g>

<g fill="none" stroke="#000000" stroke-opacity="1" stroke-width="5" stroke-linecap="square" stroke-linejoin="bevel" transform="matrix(1,0,0,1,0,0)"
font-family="MS Shell Dlg 2" font-size="9.8" font-weight="400" font-style="normal" 
>
</g>
</g>

</svg>
