<?xml version="1.0" encoding="UTF-8" standalone="no"?>
<svg width="11.2889mm" height="11.2889mm"
 viewBox="0 0 32 32"
 xmlns="http://www.w3.org/2000/svg" xmlns:xlink="http://www.w3.org/1999/xlink"  version="1.2" baseProfile="tiny">
<title>Qt SVG Document</title>
<desc>Generated with Qt</desc>
<defs>
</defs>
<g fill="none" stroke="black" stroke-width="1" fill-rule="evenodd" stroke-linecap="square" stroke-linejoin="bevel" >

<g fill="#ffffff" fill-opacity="1" stroke="#000000" stroke-opacity="1" stroke-width="0.5" stroke-linecap="square" stroke-linejoin="bevel" transform="matrix(1,0,0,1,0,0)"
font-family="MS Shell Dlg 2" font-size="9.8" font-weight="400" font-style="normal" 
>
<path vector-effect="none" fill-rule="evenodd" d="M28,16 C28,22.6274 22.6274,28 16,28 C9.37258,28 4,22.6274 4,16 C4,9.37258 9.37258,4 16,4 C22.6274,4 28,9.37258 28,16 "/>
</g>

<g fill="#ffaa00" fill-opacity="1" stroke="none" transform="matrix(1,0,0,1,11, 14.3)"
font-family="MS Shell Dlg 2" font-size="9.8" font-weight="400" font-style="normal" 
>
<path vector-effect="none" fill-rule="nonzero" d="M1.46094,7 L0.0546875,7 L0.0546875,-1.96094 C-0.283854,-1.63802 -0.727865,-1.3151 -1.27734,-0.992188 C-1.82682,-0.669271 -2.32031,-0.427083 -2.75781,-0.265625 L-2.75781,-1.625 C-1.97135,-1.99479 -1.28385,-2.44271 -0.695313,-2.96875 C-0.106771,-3.49479 0.309896,-4.00521 0.554688,-4.5 L1.46094,-4.5 L1.46094,7"/>
</g>

<g fill="#ffffff" fill-opacity="1" stroke="#000000" stroke-opacity="1" stroke-width="0.5" stroke-linecap="square" stroke-linejoin="bevel" transform="matrix(1,0,0,1,0,0)"
font-family="MS Shell Dlg 2" font-size="9.8" font-weight="400" font-style="normal" 
>
</g>

<g fill="#ffaa00" fill-opacity="1" stroke="none" transform="matrix(1,0,0,1,19.5, 14.3)"
font-family="MS Shell Dlg 2" font-size="9.8" font-weight="400" font-style="normal" 
>
<path vector-effect="none" fill-rule="nonzero" d="M3.55469,5.64844 L3.55469,7 L-4.01563,7 C-4.02604,6.66146 -3.97135,6.33594 -3.85156,6.02344 C-3.65885,5.50781 -3.35026,5 -2.92578,4.5 C-2.5013,4 -1.88802,3.42187 -1.08594,2.76563 C0.158854,1.74479 1,0.936198 1.4375,0.339844 C1.875,-0.25651 2.09375,-0.820313 2.09375,-1.35156 C2.09375,-1.90885 1.89453,-2.37891 1.49609,-2.76172 C1.09766,-3.14453 0.578125,-3.33594 -0.0625,-3.33594 C-0.739583,-3.33594 -1.28125,-3.13281 -1.6875,-2.72656 C-2.09375,-2.32031 -2.29948,-1.75781 -2.30469,-1.03906 L-3.75,-1.1875 C-3.65104,-2.26562 -3.27865,-3.08724 -2.63281,-3.65234 C-1.98698,-4.21745 -1.11979,-4.5 -0.03125,-4.5 C1.06771,-4.5 1.9375,-4.19531 2.57813,-3.58594 C3.21875,-2.97656 3.53906,-2.22135 3.53906,-1.32031 C3.53906,-0.861979 3.44531,-0.411458 3.25781,0.03125 C3.07031,0.473958 2.75911,0.940104 2.32422,1.42969 C1.88932,1.91927 1.16667,2.59115 0.15625,3.44531 C-0.6875,4.15365 -1.22917,4.63411 -1.46875,4.88672 C-1.70833,5.13932 -1.90625,5.39323 -2.0625,5.64844 L3.55469,5.64844"/>
</g>

<g fill="#ffffff" fill-opacity="1" stroke="#000000" stroke-opacity="1" stroke-width="0.5" stroke-linecap="square" stroke-linejoin="bevel" transform="matrix(1,0,0,1,0,0)"
font-family="MS Shell Dlg 2" font-size="9.8" font-weight="400" font-style="normal" 
>
</g>
</g>
</svg>
