<?xml version="1.0" encoding="UTF-8" standalone="no"?>
<svg width="11.2889mm" height="11.2889mm"
 viewBox="0 0 32 32"
 xmlns="http://www.w3.org/2000/svg" xmlns:xlink="http://www.w3.org/1999/xlink"  version="1.2" baseProfile="tiny">
<title>Qt SVG Document</title>
<desc>Generated with Qt</desc>
<defs>
</defs>
<g fill="none" stroke="black" stroke-width="1" fill-rule="evenodd" stroke-linecap="square" stroke-linejoin="bevel" >

<g fill="#ffffff" fill-opacity="1" stroke="#000000" stroke-opacity="1" stroke-width="0.5" stroke-linecap="square" stroke-linejoin="bevel" transform="matrix(1,0,0,1,0,0)"
font-family="MS Shell Dlg 2" font-size="9.8" font-weight="400" font-style="normal" 
>
<path vector-effect="none" fill-rule="evenodd" d="M28,16 C28,22.6274 22.6274,28 16,28 C9.37258,28 4,22.6274 4,16 C4,9.37258 9.37258,4 16,4 C22.6274,4 28,9.37258 28,16 "/>
</g>

<g fill="#ff0000" fill-opacity="1" stroke="none" transform="matrix(1,0,0,1,11, 14.3)"
font-family="MS Shell Dlg 2" font-size="9.8" font-weight="400" font-style="normal" 
>
<path vector-effect="none" fill-rule="nonzero" d="M1.46094,7 L0.0546875,7 L0.0546875,-1.96094 C-0.283854,-1.63802 -0.727865,-1.3151 -1.27734,-0.992188 C-1.82682,-0.669271 -2.32031,-0.427083 -2.75781,-0.265625 L-2.75781,-1.625 C-1.97135,-1.99479 -1.28385,-2.44271 -0.695313,-2.96875 C-0.106771,-3.49479 0.309896,-4.00521 0.554688,-4.5 L1.46094,-4.5 L1.46094,7"/>
</g>

<g fill="#ffffff" fill-opacity="1" stroke="#000000" stroke-opacity="1" stroke-width="0.5" stroke-linecap="square" stroke-linejoin="bevel" transform="matrix(1,0,0,1,0,0)"
font-family="MS Shell Dlg 2" font-size="9.8" font-weight="400" font-style="normal" 
>
</g>

<g fill="#ff0000" fill-opacity="1" stroke="none" transform="matrix(1,0,0,1,19.5, 14.3)"
font-family="MS Shell Dlg 2" font-size="9.8" font-weight="400" font-style="normal" 
>
<path vector-effect="none" fill-rule="nonzero" d="M-3.83594,4 L-2.35938,3.875 C-2.25,4.59375 -1.99609,5.13411 -1.59766,5.49609 C-1.19922,5.85807 -0.71875,6.03906 -0.15625,6.03906 C0.520833,6.03906 1.09375,5.78385 1.5625,5.27344 C2.03125,4.76302 2.26563,4.08594 2.26563,3.24219 C2.26563,2.4401 2.04036,1.80729 1.58984,1.34375 C1.13932,0.880208 0.549479,0.648438 -0.179688,0.648438 C-0.632812,0.648438 -1.04167,0.751302 -1.40625,0.957031 C-1.77083,1.16276 -2.05729,1.42969 -2.26563,1.75781 L-3.58594,1.58594 L-2.47656,-4.29688 L3.21875,-4.29688 L3.21875,-2.95313 L-1.35156,-2.95313 L-1.96875,0.125 C-1.28125,-0.354167 -0.559896,-0.59375 0.195313,-0.59375 C1.19531,-0.59375 2.03906,-0.247396 2.72656,0.445313 C3.41406,1.13802 3.75781,2.02865 3.75781,3.11719 C3.75781,4.15365 3.45573,5.04948 2.85156,5.80469 C2.11719,6.73177 1.11458,7.19531 -0.15625,7.19531 C-1.19792,7.19531 -2.04818,6.90365 -2.70703,6.32031 C-3.36589,5.73698 -3.74219,4.96354 -3.83594,4 "/>
</g>

<g fill="#ffffff" fill-opacity="1" stroke="#000000" stroke-opacity="1" stroke-width="0.5" stroke-linecap="square" stroke-linejoin="bevel" transform="matrix(1,0,0,1,0,0)"
font-family="MS Shell Dlg 2" font-size="9.8" font-weight="400" font-style="normal" 
>
</g>
</g>
</svg>
