<?xml version="1.0" encoding="UTF-8" standalone="no"?>
<svg width="11.2889mm" height="11.2889mm"
 viewBox="0 0 32 32"
 xmlns="http://www.w3.org/2000/svg" xmlns:xlink="http://www.w3.org/1999/xlink"  version="1.2" baseProfile="tiny">
<title>Qt SVG Document</title>
<desc>Generated with Qt</desc>
<defs>
</defs>
<g fill="none" stroke="black" stroke-width="1" fill-rule="evenodd" stroke-linecap="square" stroke-linejoin="bevel" >

<g fill="#ffffff" fill-opacity="1" stroke="#000000" stroke-opacity="1" stroke-width="0.5" stroke-linecap="square" stroke-linejoin="bevel" transform="matrix(1,0,0,1,0,0)"
font-family="MS Shell Dlg 2" font-size="9.8" font-weight="400" font-style="normal" 
>
<path vector-effect="none" fill-rule="evenodd" d="M28,16 C28,22.6274 22.6274,28 16,28 C9.37258,28 4,22.6274 4,16 C4,9.37258 9.37258,4 16,4 C22.6274,4 28,9.37258 28,16 "/>
</g>

<g fill="#000000" fill-opacity="1" stroke="none" transform="matrix(1,0,0,1,16, 14.3)"
font-family="MS Shell Dlg 2" font-size="9.8" font-weight="400" font-style="normal" 
>
<path vector-effect="none" fill-rule="nonzero" d="M3.46094,-1.64844 L2.0625,-1.53906 C1.9375,-2.09115 1.76042,-2.49219 1.53125,-2.74219 C1.15104,-3.14323 0.682292,-3.34375 0.125,-3.34375 C-0.322917,-3.34375 -0.716146,-3.21875 -1.05469,-2.96875 C-1.4974,-2.64583 -1.84635,-2.17448 -2.10156,-1.55469 C-2.35677,-0.934896 -2.48958,-0.0520833 -2.5,1.09375 C-2.16146,0.578125 -1.7474,0.195312 -1.25781,-0.0546875 C-0.768229,-0.304687 -0.255208,-0.429688 0.28125,-0.429688 C1.21875,-0.429688 2.01693,-0.0846354 2.67578,0.605469 C3.33464,1.29557 3.66406,2.1875 3.66406,3.28125 C3.66406,4 3.50911,4.66797 3.19922,5.28516 C2.88932,5.90234 2.46354,6.375 1.92188,6.70313 C1.38021,7.03125 0.765625,7.19531 0.078125,7.19531 C-1.09375,7.19531 -2.04948,6.76432 -2.78906,5.90234 C-3.52865,5.04036 -3.89844,3.61979 -3.89844,1.64063 C-3.89844,-0.572917 -3.48958,-2.18229 -2.67188,-3.1875 C-1.95833,-4.0625 -0.997396,-4.5 0.210938,-4.5 C1.11198,-4.5 1.85026,-4.2474 2.42578,-3.74219 C3.0013,-3.23698 3.34635,-2.53906 3.46094,-1.64844 M-2.28125,3.28906 C-2.28125,3.77344 -2.17839,4.23698 -1.97266,4.67969 C-1.76693,5.1224 -1.47917,5.45964 -1.10938,5.69141 C-0.739583,5.92318 -0.351563,6.03906 0.0546875,6.03906 C0.648438,6.03906 1.15885,5.79948 1.58594,5.32031 C2.01302,4.84115 2.22656,4.1901 2.22656,3.36719 C2.22656,2.57552 2.01563,1.95182 1.59375,1.49609 C1.17188,1.04036 0.640625,0.8125 0,0.8125 C-0.635417,0.8125 -1.17448,1.04036 -1.61719,1.49609 C-2.0599,1.95182 -2.28125,2.54948 -2.28125,3.28906 "/>
</g>

<g fill="#ffffff" fill-opacity="1" stroke="#000000" stroke-opacity="1" stroke-width="0.5" stroke-linecap="square" stroke-linejoin="bevel" transform="matrix(1,0,0,1,0,0)"
font-family="MS Shell Dlg 2" font-size="9.8" font-weight="400" font-style="normal" 
>
</g>
</g>
</svg>
