<?xml version="1.0" encoding="UTF-8" standalone="no"?>
<svg width="11.2889mm" height="11.2889mm"
 viewBox="0 0 32 32"
 xmlns="http://www.w3.org/2000/svg" xmlns:xlink="http://www.w3.org/1999/xlink"  version="1.2" baseProfile="tiny">
<title>Qt SVG Document</title>
<desc>Generated with Qt</desc>
<defs>
</defs>
<g fill="none" stroke="black" stroke-width="1" fill-rule="evenodd" stroke-linecap="square" stroke-linejoin="bevel" >

<g fill="#ffffff" fill-opacity="1" stroke="#000000" stroke-opacity="1" stroke-width="0.5" stroke-linecap="square" stroke-linejoin="bevel" transform="matrix(1,0,0,1,0,0)"
font-family="MS Shell Dlg 2" font-size="9.8" font-weight="400" font-style="normal" 
>
<path vector-effect="none" fill-rule="evenodd" d="M28,16 C28,22.6274 22.6274,28 16,28 C9.37258,28 4,22.6274 4,16 C4,9.37258 9.37258,4 16,4 C22.6274,4 28,9.37258 28,16 "/>
</g>

<g fill="#ffaa00" fill-opacity="1" stroke="none" transform="matrix(1,0,0,1,11, 14.3)"
font-family="MS Shell Dlg 2" font-size="9.8" font-weight="400" font-style="normal" 
>
<path vector-effect="none" fill-rule="nonzero" d="M1.46094,7 L0.0546875,7 L0.0546875,-1.96094 C-0.283854,-1.63802 -0.727865,-1.3151 -1.27734,-0.992188 C-1.82682,-0.669271 -2.32031,-0.427083 -2.75781,-0.265625 L-2.75781,-1.625 C-1.97135,-1.99479 -1.28385,-2.44271 -0.695313,-2.96875 C-0.106771,-3.49479 0.309896,-4.00521 0.554688,-4.5 L1.46094,-4.5 L1.46094,7"/>
</g>

<g fill="#ffffff" fill-opacity="1" stroke="#000000" stroke-opacity="1" stroke-width="0.5" stroke-linecap="square" stroke-linejoin="bevel" transform="matrix(1,0,0,1,0,0)"
font-family="MS Shell Dlg 2" font-size="9.8" font-weight="400" font-style="normal" 
>
</g>

<g fill="#ffaa00" fill-opacity="1" stroke="none" transform="matrix(1,0,0,1,19.5, 14.3)"
font-family="MS Shell Dlg 2" font-size="9.8" font-weight="400" font-style="normal" 
>
<path vector-effect="none" fill-rule="nonzero" d="M-3.82813,3.97656 L-2.42188,3.78906 C-2.26042,4.58594 -1.98568,5.16016 -1.59766,5.51172 C-1.20964,5.86328 -0.736979,6.03906 -0.179688,6.03906 C0.481771,6.03906 1.04036,5.8099 1.49609,5.35156 C1.95182,4.89323 2.17969,4.32552 2.17969,3.64844 C2.17969,3.0026 1.96875,2.47005 1.54688,2.05078 C1.125,1.63151 0.588542,1.42188 -0.0625,1.42188 C-0.328125,1.42188 -0.658854,1.47396 -1.05469,1.57813 L-0.898438,0.34375 C-0.804688,0.354167 -0.729167,0.359375 -0.671875,0.359375 C-0.0729167,0.359375 0.466146,0.203125 0.945313,-0.109375 C1.42448,-0.421875 1.66406,-0.903646 1.66406,-1.55469 C1.66406,-2.07031 1.48958,-2.4974 1.14063,-2.83594 C0.791667,-3.17448 0.341146,-3.34375 -0.210938,-3.34375 C-0.757812,-3.34375 -1.21354,-3.17188 -1.57813,-2.82813 C-1.94271,-2.48438 -2.17708,-1.96875 -2.28125,-1.28125 L-3.6875,-1.53125 C-3.51563,-2.47396 -3.125,-3.20443 -2.51563,-3.72266 C-1.90625,-4.24089 -1.14844,-4.5 -0.242188,-4.5 C0.382812,-4.5 0.958333,-4.36589 1.48438,-4.09766 C2.01042,-3.82943 2.41276,-3.46354 2.69141,-3 C2.97005,-2.53646 3.10938,-2.04427 3.10938,-1.52344 C3.10938,-1.02865 2.97656,-0.578125 2.71094,-0.171875 C2.44531,0.234375 2.05208,0.557292 1.53125,0.796875 C2.20833,0.953125 2.73438,1.27734 3.10938,1.76953 C3.48438,2.26172 3.67188,2.8776 3.67188,3.61719 C3.67188,4.61719 3.30729,5.46484 2.57813,6.16016 C1.84896,6.85547 0.927083,7.20313 -0.1875,7.20313 C-1.19271,7.20313 -2.02734,6.90365 -2.69141,6.30469 C-3.35547,5.70573 -3.73438,4.92969 -3.82813,3.97656 "/>
</g>

<g fill="#ffffff" fill-opacity="1" stroke="#000000" stroke-opacity="1" stroke-width="0.5" stroke-linecap="square" stroke-linejoin="bevel" transform="matrix(1,0,0,1,0,0)"
font-family="MS Shell Dlg 2" font-size="9.8" font-weight="400" font-style="normal" 
>
</g>
</g>
</svg>
