<?xml version="1.0" encoding="UTF-8" standalone="no"?>
<svg width="11.2889mm" height="11.2889mm"
 viewBox="0 0 32 32"
 xmlns="http://www.w3.org/2000/svg" xmlns:xlink="http://www.w3.org/1999/xlink"  version="1.2" baseProfile="tiny">
<title>Qt SVG Document</title>
<desc>Generated with Qt</desc>
<defs>
</defs>
<g fill="none" stroke="black" stroke-width="1" fill-rule="evenodd" stroke-linecap="square" stroke-linejoin="bevel" >

<g fill="#ffffff" fill-opacity="1" stroke="#000000" stroke-opacity="1" stroke-width="0.5" stroke-linecap="square" stroke-linejoin="bevel" transform="matrix(1,0,0,1,0,0)"
font-family="MS Shell Dlg 2" font-size="9.8" font-weight="400" font-style="normal" 
>
<path vector-effect="none" fill-rule="evenodd" d="M28,16 C28,22.6274 22.6274,28 16,28 C9.37258,28 4,22.6274 4,16 C4,9.37258 9.37258,4 16,4 C22.6274,4 28,9.37258 28,16 "/>
</g>

<g fill="#ffaa00" fill-opacity="1" stroke="none" transform="matrix(1,0,0,1,11,14.3)"
font-family="MS Shell Dlg 2" font-size="9.8" font-weight="400" font-style="normal" 
>
<path vector-effect="none" fill-rule="nonzero" d="M1.46094,7 L0.0546875,7 L0.0546875,-1.96094 C-0.283854,-1.63802 -0.727865,-1.3151 -1.27734,-0.992188 C-1.82682,-0.669271 -2.32031,-0.427083 -2.75781,-0.265625 L-2.75781,-1.625 C-1.97135,-1.99479 -1.28385,-2.44271 -0.695313,-2.96875 C-0.106771,-3.49479 0.309896,-4.00521 0.554688,-4.5 L1.46094,-4.5 L1.46094,7"/>
</g>

<g fill="#ffffff" fill-opacity="1" stroke="#000000" stroke-opacity="1" stroke-width="0.5" stroke-linecap="square" stroke-linejoin="bevel" transform="matrix(1,0,0,1,0,0)"
font-family="MS Shell Dlg 2" font-size="9.8" font-weight="400" font-style="normal" 
>
</g>

<g fill="#ffaa00" fill-opacity="1" stroke="none" transform="matrix(1,0,0,1,19.5, 14.3)"
font-family="MS Shell Dlg 2" font-size="9.8" font-weight="400" font-style="normal" 
>
<path vector-effect="none" fill-rule="nonzero" d="M-3.83594,1.35156 C-3.83594,-0.00260413 -3.69661,-1.09245 -3.41797,-1.91797 C-3.13932,-2.74349 -2.72526,-3.38021 -2.17578,-3.82813 C-1.6263,-4.27604 -0.934896,-4.5 -0.101563,-4.5 C0.513021,-4.5 1.05208,-4.3763 1.51563,-4.12891 C1.97917,-3.88151 2.36198,-3.52474 2.66406,-3.05859 C2.96615,-2.59245 3.20312,-2.02474 3.375,-1.35547 C3.54687,-0.686198 3.63281,0.216146 3.63281,1.35156 C3.63281,2.69531 3.49479,3.77995 3.21875,4.60547 C2.94271,5.43099 2.52995,6.06901 1.98047,6.51953 C1.43099,6.97005 0.736979,7.19531 -0.101563,7.19531 C-1.20573,7.19531 -2.07292,6.79948 -2.70313,6.00781 C-3.45833,5.05469 -3.83594,3.5026 -3.83594,1.35156 M-2.39063,1.35156 C-2.39063,3.23177 -2.17057,4.48307 -1.73047,5.10547 C-1.29036,5.72786 -0.747396,6.03906 -0.101563,6.03906 C0.544271,6.03906 1.08724,5.72656 1.52734,5.10156 C1.96745,4.47656 2.1875,3.22656 2.1875,1.35156 C2.1875,-0.533854 1.96745,-1.78646 1.52734,-2.40625 C1.08724,-3.02604 0.539062,-3.33594 -0.117188,-3.33594 C-0.763021,-3.33594 -1.27865,-3.0625 -1.66406,-2.51563 C-2.14844,-1.81771 -2.39063,-0.528646 -2.39063,1.35156 "/>
</g>

<g fill="#ffffff" fill-opacity="1" stroke="#000000" stroke-opacity="1" stroke-width="0.5" stroke-linecap="square" stroke-linejoin="bevel" transform="matrix(1,0,0,1,0,0)"
font-family="MS Shell Dlg 2" font-size="9.8" font-weight="400" font-style="normal" 
>
</g>
</g>
</svg>
