<?xml version="1.0" encoding="UTF-8" standalone="no"?>
<svg width="11.2889mm" height="11.2889mm"
 viewBox="0 0 32 32"
 xmlns="http://www.w3.org/2000/svg" xmlns:xlink="http://www.w3.org/1999/xlink"  version="1.2" baseProfile="tiny">
<title>Qt SVG Document</title>
<desc>Generated with Qt</desc>
<defs>
</defs>
<g fill="none" stroke="black" stroke-width="1" fill-rule="evenodd" stroke-linecap="square" stroke-linejoin="bevel" >

<g fill="#ffffff" fill-opacity="1" stroke="#000000" stroke-opacity="1" stroke-width="0.5" stroke-linecap="square" stroke-linejoin="bevel" transform="matrix(1,0,0,1,0,0)"
font-family="MS Shell Dlg 2" font-size="9.8" font-weight="400" font-style="normal" 
>
<path vector-effect="none" fill-rule="evenodd" d="M28,16 C28,22.6274 22.6274,28 16,28 C9.37258,28 4,22.6274 4,16 C4,9.37258 9.37258,4 16,4 C22.6274,4 28,9.37258 28,16 "/>
</g>

<g fill="#000000" fill-opacity="1" stroke="none" transform="matrix(1,0,0,1,16, 14.3)"
font-family="MS Shell Dlg 2" font-size="9.8" font-weight="400" font-style="normal" 
>
<path vector-effect="none" fill-rule="nonzero" d="M-1.67188,0.789063 C-2.25521,0.575521 -2.6875,0.270833 -2.96875,-0.125 C-3.25,-0.520833 -3.39063,-0.994792 -3.39063,-1.54688 C-3.39063,-2.38021 -3.09115,-3.08073 -2.49219,-3.64844 C-1.89323,-4.21615 -1.09635,-4.5 -0.101563,-4.5 C0.898437,-4.5 1.70313,-4.20964 2.3125,-3.62891 C2.92188,-3.04818 3.22656,-2.34115 3.22656,-1.50781 C3.22656,-0.976563 3.08724,-0.514323 2.80859,-0.121094 C2.52995,0.272135 2.10677,0.575521 1.53906,0.789063 C2.24219,1.01823 2.77734,1.38802 3.14453,1.89844 C3.51172,2.40885 3.69531,3.01823 3.69531,3.72656 C3.69531,4.70573 3.34896,5.52865 2.65625,6.19531 C1.96354,6.86198 1.05208,7.19531 -0.078125,7.19531 C-1.20833,7.19531 -2.11979,6.86068 -2.8125,6.19141 C-3.50521,5.52214 -3.85156,4.6875 -3.85156,3.6875 C-3.85156,2.94271 -3.66276,2.31901 -3.28516,1.81641 C-2.90755,1.3138 -2.36979,0.971354 -1.67188,0.789063 M-1.95313,-1.59375 C-1.95313,-1.05208 -1.77865,-0.609375 -1.42969,-0.265625 C-1.08073,0.078125 -0.627604,0.25 -0.0703125,0.25 C0.471354,0.25 0.915365,0.0794271 1.26172,-0.261719 C1.60807,-0.602865 1.78125,-1.02083 1.78125,-1.51563 C1.78125,-2.03125 1.60286,-2.46484 1.24609,-2.81641 C0.889323,-3.16797 0.445312,-3.34375 -0.0859375,-3.34375 C-0.622396,-3.34375 -1.06771,-3.17188 -1.42188,-2.82813 C-1.77604,-2.48438 -1.95313,-2.07292 -1.95313,-1.59375 M-2.40625,3.69531 C-2.40625,4.09635 -2.3112,4.48438 -2.12109,4.85938 C-1.93099,5.23438 -1.64844,5.52474 -1.27344,5.73047 C-0.898438,5.9362 -0.494792,6.03906 -0.0625,6.03906 C0.609375,6.03906 1.16406,5.82292 1.60156,5.39063 C2.03906,4.95833 2.25781,4.40885 2.25781,3.74219 C2.25781,3.0651 2.03255,2.50521 1.58203,2.0625 C1.13151,1.61979 0.567708,1.39844 -0.109375,1.39844 C-0.770833,1.39844 -1.31901,1.61719 -1.75391,2.05469 C-2.1888,2.49219 -2.40625,3.03906 -2.40625,3.69531 "/>
</g>

<g fill="#ffffff" fill-opacity="1" stroke="#000000" stroke-opacity="1" stroke-width="0.5" stroke-linecap="square" stroke-linejoin="bevel" transform="matrix(1,0,0,1,0,0)"
font-family="MS Shell Dlg 2" font-size="9.8" font-weight="400" font-style="normal" 
>
</g>
</g>
</svg>
