<?xml version="1.0" encoding="UTF-8" standalone="no"?>
<svg width="11.2889mm" height="11.2889mm"
 viewBox="0 0 32 32"
 xmlns="http://www.w3.org/2000/svg" xmlns:xlink="http://www.w3.org/1999/xlink"  version="1.2" baseProfile="tiny">
<title>Qt SVG Document</title>
<desc>Generated with Qt</desc>
<defs>
</defs>
<g fill="none" stroke="black" stroke-width="1" fill-rule="evenodd" stroke-linecap="square" stroke-linejoin="bevel" >

<g fill="#ffffff" fill-opacity="1" stroke="#000000" stroke-opacity="1" stroke-width="0.5" stroke-linecap="square" stroke-linejoin="bevel" transform="matrix(1,0,0,1,0,0)"
font-family="MS Shell Dlg 2" font-size="9.8" font-weight="400" font-style="normal" 
>
<path vector-effect="none" fill-rule="evenodd" d="M28,16 C28,22.6274 22.6274,28 16,28 C9.37258,28 4,22.6274 4,16 C4,9.37258 9.37258,4 16,4 C22.6274,4 28,9.37258 28,16 "/>
</g>

<g fill="#ffaa00" fill-opacity="1" stroke="none" transform="matrix(1,0,0,1,16, 14.3)"
font-family="MS Shell Dlg 2" font-size="9.8" font-weight="400" font-style="normal" 
>
<path vector-effect="none" fill-rule="nonzero" d="M-3.625,4.35156 L-2.27344,4.22656 C-2.15885,4.86198 -1.9401,5.32292 -1.61719,5.60938 C-1.29427,5.89583 -0.880208,6.03906 -0.375,6.03906 C0.0572917,6.03906 0.436198,5.9401 0.761719,5.74219 C1.08724,5.54427 1.35417,5.27995 1.5625,4.94922 C1.77083,4.61849 1.94531,4.17188 2.08594,3.60938 C2.22656,3.04688 2.29688,2.47396 2.29688,1.89063 C2.29688,1.82813 2.29427,1.73438 2.28906,1.60938 C2.00781,2.05729 1.6237,2.42057 1.13672,2.69922 C0.64974,2.97786 0.122396,3.11719 -0.445313,3.11719 C-1.39323,3.11719 -2.19531,2.77344 -2.85156,2.08594 C-3.50781,1.39844 -3.83594,0.492187 -3.83594,-0.632813 C-3.83594,-1.79427 -3.49349,-2.72917 -2.80859,-3.4375 C-2.1237,-4.14583 -1.26562,-4.5 -0.234375,-4.5 C0.510417,-4.5 1.19141,-4.29948 1.80859,-3.89844 C2.42578,-3.4974 2.89453,-2.92578 3.21484,-2.18359 C3.53516,-1.44141 3.69531,-0.367187 3.69531,1.03906 C3.69531,2.5026 3.53646,3.66797 3.21875,4.53516 C2.90104,5.40234 2.42839,6.0625 1.80078,6.51563 C1.17318,6.96875 0.4375,7.19531 -0.40625,7.19531 C-1.30208,7.19531 -2.03385,6.94661 -2.60156,6.44922 C-3.16927,5.95182 -3.51042,5.2526 -3.625,4.35156 M2.13281,-0.703125 C2.13281,-1.51042 1.91797,-2.15104 1.48828,-2.625 C1.05859,-3.09896 0.541667,-3.33594 -0.0625,-3.33594 C-0.6875,-3.33594 -1.23177,-3.08073 -1.69531,-2.57031 C-2.15885,-2.0599 -2.39063,-1.39844 -2.39063,-0.585938 C-2.39063,0.143229 -2.17057,0.735677 -1.73047,1.19141 C-1.29036,1.64714 -0.747396,1.875 -0.101563,1.875 C0.549479,1.875 1.08464,1.64714 1.50391,1.19141 C1.92318,0.735677 2.13281,0.104167 2.13281,-0.703125 "/>
</g>

<g fill="#ffffff" fill-opacity="1" stroke="#000000" stroke-opacity="1" stroke-width="0.5" stroke-linecap="square" stroke-linejoin="bevel" transform="matrix(1,0,0,1,0,0)"
font-family="MS Shell Dlg 2" font-size="9.8" font-weight="400" font-style="normal" 
>
</g>
</g>
</svg>
