<?xml version="1.0" encoding="UTF-8" standalone="no"?>
<svg width="11.2889mm" height="11.2889mm"
 viewBox="0 0 32 32"
 xmlns="http://www.w3.org/2000/svg" xmlns:xlink="http://www.w3.org/1999/xlink"  version="1.2" baseProfile="tiny">
<title>Qt SVG Document</title>
<desc>Generated with Qt</desc>
<defs>
</defs>
<g fill="none" stroke="black" stroke-width="1" fill-rule="evenodd" stroke-linecap="square" stroke-linejoin="bevel" >

<g fill="#ffffff" fill-opacity="1" stroke="#000000" stroke-opacity="1" stroke-width="0.5" stroke-linecap="square" stroke-linejoin="bevel" transform="matrix(1,0,0,1,0,0)"
font-family="MS Shell Dlg 2" font-size="9.8" font-weight="400" font-style="normal" 
>
<path vector-effect="none" fill-rule="evenodd" d="M28,16 C28,22.6274 22.6274,28 16,28 C9.37258,28 4,22.6274 4,16 C4,9.37258 9.37258,4 16,4 C22.6274,4 28,9.37258 28,16 "/>
</g>

<g fill="#ffaa00" fill-opacity="1" stroke="none" transform="matrix(1,0,0,1,11, 14.3)"
font-family="MS Shell Dlg 2" font-size="9.8" font-weight="400" font-style="normal" 
>
<path vector-effect="none" fill-rule="nonzero" d="M1.46094,7 L0.0546875,7 L0.0546875,-1.96094 C-0.283854,-1.63802 -0.727865,-1.3151 -1.27734,-0.992188 C-1.82682,-0.669271 -2.32031,-0.427083 -2.75781,-0.265625 L-2.75781,-1.625 C-1.97135,-1.99479 -1.28385,-2.44271 -0.695313,-2.96875 C-0.106771,-3.49479 0.309896,-4.00521 0.554688,-4.5 L1.46094,-4.5 L1.46094,7"/>
</g>

<g fill="#ffffff" fill-opacity="1" stroke="#000000" stroke-opacity="1" stroke-width="0.5" stroke-linecap="square" stroke-linejoin="bevel" transform="matrix(1,0,0,1,0,0)"
font-family="MS Shell Dlg 2" font-size="9.8" font-weight="400" font-style="normal" 
>
</g>

<g fill="#ffaa00" fill-opacity="1" stroke="none" transform="matrix(1,0,0,1,19.5, 14.3)"
font-family="MS Shell Dlg 2" font-size="9.8" font-weight="400" font-style="normal" 
>
<path vector-effect="none" fill-rule="nonzero" d="M1.46094,7 L0.0546875,7 L0.0546875,-1.96094 C-0.283854,-1.63802 -0.727865,-1.3151 -1.27734,-0.992188 C-1.82682,-0.669271 -2.32031,-0.427083 -2.75781,-0.265625 L-2.75781,-1.625 C-1.97135,-1.99479 -1.28385,-2.44271 -0.695313,-2.96875 C-0.106771,-3.49479 0.309896,-4.00521 0.554688,-4.5 L1.46094,-4.5 L1.46094,7"/>
</g>

<g fill="#ffffff" fill-opacity="1" stroke="#000000" stroke-opacity="1" stroke-width="0.5" stroke-linecap="square" stroke-linejoin="bevel" transform="matrix(1,0,0,1,0,0)"
font-family="MS Shell Dlg 2" font-size="9.8" font-weight="400" font-style="normal" 
>
</g>
</g>
</svg>
