<?xml version="1.0" encoding="UTF-8" standalone="no"?>
<svg width="11.2889mm" height="11.2889mm"
 viewBox="0 0 32 32"
 xmlns="http://www.w3.org/2000/svg" xmlns:xlink="http://www.w3.org/1999/xlink"  version="1.2" baseProfile="tiny">
<title>Qt SVG Document</title>
<desc>Generated with Qt</desc>
<defs>
</defs>
<g fill="none" stroke="black" stroke-width="1" fill-rule="evenodd" stroke-linecap="square" stroke-linejoin="bevel" >

<g fill="#ffffff" fill-opacity="1" stroke="none" transform="matrix(1,0,0,1,16,-1.5)"
font-family="MS Shell Dlg 2" font-size="9.8" font-weight="400" font-style="normal" 
>
<path vector-effect="none" fill-rule="nonzero" d="M-0.078125,5.73438 C3.29687,5.8125 6.10742,6.95898 8.35352,9.17383 C10.5996,11.3887 11.7813,14.1563 11.8984,17.4766 C11.5859,20.8984 10.373,23.5898 8.25977,25.5508 C6.14648,27.5117 3.36719,28.707 -0.078125,29.1367 C-3.40625,29.1367 -6.24805,28 -8.60352,25.7266 C-10.959,23.4531 -12.1367,20.7031 -12.1367,17.4766 C-12.1367,14.1953 -10.959,11.418 -8.60352,9.14453 C-6.24805,6.87109 -3.40625,5.73438 -0.078125,5.73438 "/>
</g>

<g fill="none" stroke="#000000" stroke-opacity="1" stroke-width="1" stroke-linecap="square" stroke-linejoin="bevel" transform="matrix(1,0,0,1,0,0)"
font-family="MS Shell Dlg 2" font-size="9.8" font-weight="400" font-style="normal" 
>
</g>

<g fill="#005ce6" fill-opacity="1" stroke="none" transform="matrix(1,0,0,1,16,-1.5)"
font-family="MS Shell Dlg 2" font-size="9.8" font-weight="400" font-style="normal" 
>
<path vector-effect="none" fill-rule="nonzero" d="M-11.5625,17.4766 C-11.5625,20.6641 -10.4492,23.293 -8.22266,25.3633 L-0.136719,20.3594 C-0.535156,20.3125 -0.824219,20.1797 -1.00391,19.9609 L-5.85547,22.8555 L-7.76563,19.6914 L-2.89063,16.8789 L-4.01563,14.6992 L-0.265625,12.6719 L2.5,13.832 L6.32031,11.793 L5.3125,14.7695 L8.875,12.7305 L8.875,12.8594 L5.26563,15.0273 L4.78516,16.4688 L1.44531,18.5195 C1.53125,18.668 1.57422,18.832 1.57422,19.0117 C1.57422,19.1914 1.53125,19.3828 1.44531,19.5859 L10.6445,14.2422 L10.7852,14.1016 C10.4805,12.5625 9.49609,10.9414 7.83203,9.23828 C5.63672,7.18359 2.91406,6.13281 -0.335938,6.08594 C-3.40625,6.13281 -6.04492,7.25195 -8.25195,9.44336 C-10.459,11.6348 -11.5625,14.3125 -11.5625,17.4766 M-3.21875,14.8398 L-2.36328,16.6094 L1.90234,14.1719 L-0.195313,13.1875 L-3.21875,14.8398 M-7.49609,26.0078 C-5.97266,27.7109 -3.53906,28.6133 -0.195313,28.7148 C3.22656,28.6602 5.95703,27.5703 7.99609,25.4453 C10.0352,23.3203 11.1406,20.6641 11.3125,17.4766 C11.3203,17.2891 11.3242,17.1055 11.3242,16.9258 C11.3242,16.1211 11.25,15.4414 11.1016,14.8867 L10.9844,15.0273 L-7.49609,26.0078 M-1.00391,19.0469 C-0.902344,19.7031 -0.527344,20.0313 0.121094,20.0313 C0.777344,19.9844 1.15234,19.6563 1.24609,19.0469 C1.24609,18.375 0.871094,18.0273 0.121094,18.0039 C-0.574219,18.0273 -0.949219,18.375 -1.00391,19.0469 M-0.136719,5.37109 C3.24609,5.37109 6.13867,6.54297 8.54102,8.88672 C10.9434,11.2305 12.1445,14.0938 12.1445,17.4766 C12.1445,20.8047 10.9434,23.6406 8.54102,25.9844 C6.13867,28.3281 3.24609,29.5 -0.136719,29.5 C-3.55078,29.5 -6.46484,28.3281 -8.87891,25.9844 C-11.293,23.6406 -12.5,20.8047 -12.5,17.4766 C-12.5,14.0938 -11.293,11.2305 -8.87891,8.88672 C-6.46484,6.54297 -3.55078,5.37109 -0.136719,5.37109 "/>
</g>

<g fill="none" stroke="#000000" stroke-opacity="1" stroke-width="1" stroke-linecap="square" stroke-linejoin="bevel" transform="matrix(1,0,0,1,0,0)"
font-family="MS Shell Dlg 2" font-size="9.8" font-weight="400" font-style="normal" 
>
</g>
</g>

</svg>
