<?xml version="1.0" encoding="UTF-8" standalone="no"?>
<svg width="11.2889mm" height="11.2889mm"
 viewBox="0 0 32 32"
 xmlns="http://www.w3.org/2000/svg" xmlns:xlink="http://www.w3.org/1999/xlink"  version="1.2" baseProfile="tiny">
<title>Qt SVG Document</title>
<desc>Generated with Qt</desc>
<defs>
</defs>
<g fill="none" stroke="black" stroke-width="1" fill-rule="evenodd" stroke-linecap="square" stroke-linejoin="bevel" >

<g fill="#ffffff" fill-opacity="1" stroke="none" transform="matrix(1,0,0,1,16,-7)"
font-family="MS Shell Dlg 2" font-size="9.8" font-weight="400" font-style="normal" 
>
<path vector-effect="none" fill-rule="nonzero" d="M-11.6328,16.4922 L-8.11719,16.4922 L-8.11719,17.0195 L6.29688,17.0195 L6.29688,16.4922 L9.8125,16.4922 L9.8125,17.0195 C13.3906,17.0195 15.2656,18.0156 15.4375,20.0078 L15.4375,25.6328 C15.4375,27.8594 13.5625,28.9727 9.8125,28.9727 L9.8125,29.5 L6.29688,29.5 L6.29688,28.9727 L-8.11719,28.9727 L-8.11719,29.5 L-11.6328,29.5 L-11.6328,28.9727 L-15.5,28.9727 L-15.5,17.0195 L-11.6328,17.0195 L-11.6328,16.4922 M10.1641,19.6563 L10.1641,26.3359 L11.9219,26.3359 L12.9766,25.5391 L12.9766,20.4414 L11.9219,19.6563 L10.1641,19.6563"/>
</g>

<g fill="none" stroke="#000000" stroke-opacity="1" stroke-width="1" stroke-linecap="square" stroke-linejoin="bevel" transform="matrix(1,0,0,1,0,0)"
font-family="MS Shell Dlg 2" font-size="9.8" font-weight="400" font-style="normal" 
>
</g>

<g fill="#ff0000" fill-opacity="1" stroke="none" transform="matrix(1,0,0,1,16, -7)"
font-family="MS Shell Dlg 2" font-size="9.8" font-weight="400" font-style="normal" 
>
<path vector-effect="none" fill-rule="nonzero" d="M-11.7148,19.832 L6.12109,19.832 C6.23828,19.832 6.29688,19.8906 6.29688,20.0078 L6.29688,25.9844 C6.29688,26.1563 6.23828,26.2422 6.12109,26.2422 L-11.7148,26.2422 C-11.8945,26.2422 -11.9844,26.1563 -11.9844,25.9844 L-11.9844,20.0078 C-11.9219,19.8906 -11.832,19.832 -11.7148,19.832 M-11.5391,20.2656 L-11.5391,25.8086 L5.86328,25.8086 L5.86328,20.2656 L-11.5391,20.2656 M-11.0117,17.8047 L-14.6211,17.8047 L-14.6211,28.0938 L-10.8359,28.0938 L-10.8359,28.7969 L-8.90234,28.7969 L-8.90234,28.0938 L7.17578,28.0938 L7.17578,28.7969 L9.02734,28.7969 L9.02734,28.0938 L10.1641,28.0938 C12.8672,28.0938 14.3047,27.2422 14.4766,25.5391 L14.4766,19.832 C14.0234,18.4805 12.5664,17.8047 10.1055,17.8047 L9.02734,17.8047 L9.02734,17.1953 L7,17.1953 L7,17.8047 L-8.82031,17.8047 L-8.82031,17.1953 L-11.0117,17.1953 L-11.0117,17.8047 M-11.6328,16.4922 L-8.11719,16.4922 L-8.11719,17.0195 L6.29688,17.0195 L6.29688,16.4922 L9.8125,16.4922 L9.8125,17.0195 C13.3906,17.0195 15.2656,18.0156 15.4375,20.0078 L15.4375,25.6328 C15.4375,27.8594 13.5625,28.9727 9.8125,28.9727 L9.8125,29.5 L6.29688,29.5 L6.29688,28.9727 L-8.11719,28.9727 L-8.11719,29.5 L-11.6328,29.5 L-11.6328,28.9727 L-15.5,28.9727 L-15.5,17.0195 L-11.6328,17.0195 L-11.6328,16.4922 M11.9219,19.6563 L12.9766,20.4414 L12.9766,25.5391 L11.9219,26.3359 L10.1641,26.3359 L10.1641,19.6563 L11.9219,19.6563"/>
</g>

<g fill="none" stroke="#000000" stroke-opacity="1" stroke-width="1" stroke-linecap="square" stroke-linejoin="bevel" transform="matrix(1,0,0,1,0,0)"
font-family="MS Shell Dlg 2" font-size="9.8" font-weight="400" font-style="normal" 
>
</g>

<g fill="#000000" fill-opacity="1" stroke="none" transform="matrix(1,0,0,1,15.8047,15.5)"
font-family="MS Shell Dlg 2" font-size="9.8" font-weight="400" font-style="normal" 
>
<path vector-effect="none" fill-rule="nonzero" d="M-2.16162,0.55957 C-2.16162,-0.272135 -1.93831,-0.923258 -1.4917,-1.3938 C-1.04508,-1.86434 -0.468587,-2.09961 0.237793,-2.09961 C0.700358,-2.09961 1.11735,-1.98909 1.48877,-1.76807 C1.86019,-1.54704 2.14331,-1.23885 2.33813,-0.843506 C2.53296,-0.448161 2.63037,0.00016278 2.63037,0.501465 C2.63037,1.0096 2.52783,1.46419 2.32275,1.86523 C2.11768,2.26628 1.82715,2.56991 1.45117,2.77612 C1.0752,2.98234 0.669596,3.08545 0.234375,3.08545 C-0.237305,3.08545 -0.658854,2.97152 -1.03027,2.74365 C-1.40169,2.51579 -1.68311,2.20475 -1.87451,1.81055 C-2.06592,1.41634 -2.16162,0.999349 -2.16162,0.55957 M-1.47803,0.569824 C-1.47803,1.17367 -1.31567,1.64933 -0.990967,1.99683 C-0.66626,2.34432 -0.258952,2.51807 0.230957,2.51807 C0.72998,2.51807 1.14071,2.34261 1.46313,1.9917 C1.78556,1.64079 1.94678,1.1429 1.94678,0.498047 C1.94678,0.0901693 1.87785,-0.265869 1.73999,-0.570068 C1.60213,-0.874268 1.40047,-1.11011 1.13501,-1.27759 C0.869547,-1.44507 0.571615,-1.52881 0.241211,-1.52881 C-0.22819,-1.52881 -0.63208,-1.36759 -0.970459,-1.04517 C-1.30884,-0.722738 -1.47803,-0.184408 -1.47803,0.569824 "/>
</g>

<g fill="none" stroke="#000000" stroke-opacity="1" stroke-width="1" stroke-linecap="square" stroke-linejoin="bevel" transform="matrix(1,0,0,1,0,0)"
font-family="MS Shell Dlg 2" font-size="9.8" font-weight="400" font-style="normal" 
>
</g>

<g fill="#000000" fill-opacity="1" stroke="none" transform="matrix(1,0,0,1,9.95313,15.5)"
font-family="MS Shell Dlg 2" font-size="9.8" font-weight="400" font-style="normal" 
>
<path vector-effect="none" fill-rule="nonzero" d="M-2.08496,3 L-3.41455,-2.01074 L-2.73438,-2.01074 L-1.97217,1.27393 C-1.89014,1.618 -1.8195,1.9598 -1.76025,2.29932 C-1.63265,1.76383 -1.55745,1.45508 -1.53467,1.37305 L-0.581055,-2.01074 L0.21875,-2.01074 L0.936523,0.525391 C1.11654,1.1543 1.24642,1.74561 1.32617,2.29932 C1.38997,1.98258 1.47314,1.61914 1.57568,1.20898 L2.36182,-2.01074 L3.02832,-2.01074 L1.6543,3 L1.01514,3 L-0.0410156,-0.817871 C-0.129883,-1.13688 -0.182292,-1.33284 -0.198242,-1.40576 C-0.250651,-1.17562 -0.299642,-0.979655 -0.345215,-0.817871 L-1.4082,3 L-2.08496,3"/>
</g>

<g fill="none" stroke="#000000" stroke-opacity="1" stroke-width="1" stroke-linecap="square" stroke-linejoin="bevel" transform="matrix(1,0,0,1,0,0)"
font-family="MS Shell Dlg 2" font-size="9.8" font-weight="400" font-style="normal" 
>
</g>
</g>

</svg>
