<?xml version="1.0" encoding="utf-8"?>
<!-- Generator: Adobe Illustrator 24.0.2, SVG Export Plug-In . SVG Version: 6.00 Build 0)  -->
<svg version="1.1" id="Laag_1" xmlns="http://www.w3.org/2000/svg" xmlns:xlink="http://www.w3.org/1999/xlink" x="0px" y="0px"
	 viewBox="0 0 141.73 141.73" style="enable-background:new 0 0 141.73 141.73;" xml:space="preserve">
<style type="text/css">
	.st0{fill-rule:evenodd;clip-rule:evenodd;fill:#D0043C;}
</style>
<path class="st0" d="M0,0v141.73h141.73V0H0z M100.4,37.84c2.57,1.36,6.69,4.96,9.63,11.64c2.94,6.68,4.29,9.77,7.11,13.97
	c2.82,4.21,4.17,6.31,7.11,8.16c2.94,1.85,6.01,3.46,6.01,3.46s-3.92,1.36-7.6,1.11c-3.68-0.25-9.93-1.98-13.6-6.55
	c-3.68-4.58-7.11-10.14-8.21-15.95c-1.1-5.81-1.93-8.53-3.11-10.81c-1.54-2.99-5.23-5.76-5.23-5.76S97.83,36.48,100.4,37.84z
	 M86.98,36.64l-4.12,2.39c-0.13-0.28-0.27-0.56-0.41-0.84l4.1-2.38C86.7,36.08,86.84,36.36,86.98,36.64z M82.02,29.04
	c0.18,0.21,0.36,0.43,0.53,0.64l-3.66,3.01c-0.17-0.22-0.35-0.43-0.53-0.64L82.02,29.04z M80.81,40.23l-4.12,2.39
	c-0.13-0.29-0.26-0.57-0.39-0.85l4.11-2.38C80.54,39.66,80.68,39.94,80.81,40.23z M77.07,34.19l-3.66,3.01
	c-0.17-0.22-0.35-0.43-0.53-0.64l3.66-3.01C76.72,33.76,76.89,33.98,77.07,34.19z M58.39,55.26l3.53-1.24
	c-0.1,0.42-0.23,0.83-0.4,1.22l-3.17,1.12c0.03-0.28,0.05-0.57,0.05-0.86C58.4,55.42,58.4,55.34,58.39,55.26z M58.1,53.41
	c-0.09-0.31-0.19-0.6-0.32-0.89l4.03-2.34c0.09,0.31,0.16,0.63,0.21,0.95L58.1,53.41z M60.07,47.11c0.19,0.2,0.37,0.42,0.53,0.64
	l-3.79,3.12c-0.17-0.22-0.35-0.43-0.54-0.63L60.07,47.11z M54.63,48.94c-0.24-0.14-0.49-0.27-0.75-0.39l2.97-3.49
	c0.28,0.09,0.55,0.19,0.81,0.31L54.63,48.94z M58.48,43.15l3.16-3.72c0.24,0.14,0.48,0.28,0.72,0.42l-3.12,3.66
	C58.99,43.38,58.74,43.26,58.48,43.15z M61.9,45.6l3.66-3.01c0.18,0.21,0.36,0.42,0.53,0.64l-3.66,3.01
	C62.26,46.02,62.09,45.8,61.9,45.6z M63.21,37.59l3.11-3.65c0.23,0.15,0.46,0.3,0.68,0.46l-3.09,3.63
	C63.68,37.88,63.44,37.74,63.21,37.59z M68.06,46.55c0.12,0.29,0.24,0.58,0.34,0.88l-4.21,2.44c-0.08-0.31-0.17-0.62-0.28-0.92
	L68.06,46.55z M64.45,53.13l4.75-1.68c0.02,0.28,0.03,0.56,0.03,0.84c0,0.08,0,0.15,0,0.23l-4.94,1.74
	C64.37,53.89,64.42,53.51,64.45,53.13z M67.92,41.72c-0.17-0.22-0.35-0.43-0.53-0.64l3.66-3.01c0.18,0.21,0.36,0.42,0.53,0.64
	L67.92,41.72z M74.24,42.96c0.13,0.28,0.26,0.57,0.39,0.85l-4.14,2.41c-0.11-0.29-0.23-0.58-0.36-0.87L74.24,42.96z M76.09,49.02
	c0.05,0.34,0.1,0.69,0.13,1.03l-4.64,1.64c-0.01-0.35-0.04-0.71-0.07-1.05L76.09,49.02z M75.57,23.06c0.22,0.16,0.44,0.32,0.66,0.49
	l-3.07,3.62c-0.22-0.16-0.44-0.32-0.67-0.48L75.57,23.06z M71.62,28.98l-3.08,3.62c-0.22-0.16-0.45-0.31-0.68-0.47l3.09-3.63
	C71.17,28.65,71.4,28.81,71.62,28.98z M68.4,19.03c0.29,0.12,0.57,0.24,0.86,0.37l-2.45,4.1c-0.29-0.12-0.57-0.24-0.86-0.36
	L68.4,19.03z M64.71,25.22c0.29,0.11,0.58,0.23,0.87,0.35l-2.46,4.12c-0.29-0.11-0.59-0.22-0.89-0.32L64.71,25.22z M60.99,31.45
	c0.3,0.09,0.6,0.2,0.9,0.3l-2.49,4.17c-0.31-0.09-0.62-0.18-0.93-0.25L60.99,31.45z M57.18,37.82c0.32,0.06,0.64,0.13,0.95,0.21
	l-2.59,4.34c-0.33-0.03-0.67-0.05-1.01-0.05c-0.01,0-0.02,0-0.03,0L57.18,37.82z M52.98,44.85c0.38-0.08,0.77-0.13,1.17-0.15
	l-1.98,3.32c-0.33-0.06-0.67-0.1-1.01-0.11L52.98,44.85z M51.48,53.18c0.45,0.53,0.92,1.06,1.37,1.59c1.58,1.75,0.07,3.06-1.77,3.08
	c-0.98-1.1-1.95-2.23-2.9-3.37C48.47,52.67,49.99,51.36,51.48,53.18z M22.23,61.43c2.64-0.96,5.29-1.91,7.93-2.87
	c0.32-0.14,0.44,0,0.56,0.14c0.67,0.81,1.34,1.62,2.02,2.44c0.26,0.25,0.29,0.27,0.58,0.13c4.1-1.91,8.2-3.83,12.3-5.74
	c0.46-0.22,0.77-0.11,0.99,0.19c0.89,1.01,1.78,2.02,2.67,3.02c0.43,0.46,0.3,0.73,0.05,0.93c-5.09,4.04-10.17,8.07-15.26,12.11
	c-0.27,0.19-0.56,0.26-0.99-0.28c-1.54-1.75-3.08-3.5-4.63-5.24c-0.16-0.2-0.24-0.41,0.09-0.65c0.65-0.51,1.29-1.02,1.94-1.53
	c0.45-0.37,0.53-0.67,0.32-0.92c-0.48-0.54-0.96-1.08-1.44-1.63c-0.18-0.23-0.4-0.36-0.76-0.22c-1.67,0.6-3.33,1.21-5,1.81
	c-0.26,0.12-0.52,0.06-0.79-0.28c-0.26-0.29-0.51-0.58-0.77-0.87C21.85,61.73,21.88,61.55,22.23,61.43z M31.76,73.6
	c-0.89,0.7-1.77,1.41-2.66,2.11c-0.34,0.25-0.64,0.21-0.91-0.1c-1.58-1.79-3.17-3.59-4.75-5.38c-0.14-0.2-0.1-0.49,0.11-0.68
	c0.9-0.71,1.8-1.42,2.69-2.13c0.28-0.17,0.52-0.14,0.73,0.11c1.55,1.76,3.1,3.51,4.65,5.27C31.92,73.12,31.98,73.42,31.76,73.6z
	 M77.88,84.1c-0.01,0.35-0.01,0.59-0.39,0.65c-5.56,0.86-10.83,2.29-12.29,13.57c-1.5,11.54-13.95,17.61-16.87,18.57
	c-2.9,0.95-5.96,1.46-8.98,1.46c-7.66,0-14.64-2.99-19.71-7.8c-5.12-4.87-8.3-11.59-8.3-19.01c0-4,0.98-7.93,2.77-11.49
	c1.62-3.24,3.65-5.88,6.4-8.22c0.12-0.06,0.83-0.89,1.21-0.34L26.56,77c0.35,0.35,0.4,0.59,0.15,0.76
	c-2.06,1.69-3.73,3.79-4.89,6.12c-1.19,2.39-1.86,5.01-1.86,7.65c0,4.97,2.15,9.5,5.61,12.79c3.52,3.34,8.39,5.41,13.78,5.41
	c2.14,0,4.29-0.36,6.32-1.02c1.39-0.45,9.65-4.42,11.35-13.8c2.06-11.38,8.45-15.04,20.29-15.48c0.4-0.02,0.56,0.01,0.58,0.48
	C77.94,81.31,77.91,82.71,77.88,84.1z M78.52,49.24c-0.04-0.34-0.09-0.68-0.15-1.02l4.53-1.6c0.07,0.34,0.13,0.67,0.18,1.01
	L78.52,49.24z M89.65,44.24c0.08,0.33,0.15,0.67,0.21,1l-4.52,1.6c-0.06-0.34-0.13-0.67-0.2-1.01L89.65,44.24z M91.9,93.85
	c-4.47-2.62-6.74-2.13-6.74-2.13s3.98-4.67,9.99-4.67c6.01,0,8.69,2.71,11.13,5.08c2.44,2.38,7.63,8.9,13.08,11.48
	c6.58,3.12,10.72,3.36,10.72,3.36s-4.47,4.92-11.86,4.92c-7.39,0-11.45-1.97-16.65-7.95C96.37,97.95,96.37,96.47,91.9,93.85z
	 M130.4,130.4c0,0-8.68,0.84-15.59-1.05c-6.91-1.89-12.35-6.4-14.7-9.76c-2.36-3.36-3.66-11.56-3.66-11.56s10.64,8.69,20.39,8.36
	c9.75-0.33,13.55-2.18,13.55-2.18V130.4z M130.4,99.81c0,0-13.75-2.48-22.2-10.51c-8.45-8.04-9.8-12.12-10.91-16.45
	c-1.1-4.33-1.1-12.24-1.1-12.24s5.9,9.09,12.01,13.85c6.13,4.78,10.63,7.38,15.22,8.43c4.5,1.03,6.98,0.74,6.98,0.74V99.81z
	 M130.4,68.05c0,0-5.41-2.14-9.6-8.03c-4.19-5.88-7.35-10.36-7.35-18.63c0-8.27,1.82-11.58,1.82-11.58s1.8,8.12,5.53,14.16
	c3.71,6.01,5.77,6.44,6.8,6.95c1.9,0.95,2.79,0.95,2.79,0.95V68.05z"/>
</svg>
