<svg id="Laag_1" data-name="Laag 1" xmlns="http://www.w3.org/2000/svg" viewBox="0 0 141.73 177.17"><defs><style>.cls-1{fill:#1d1d1b;}.cls-2{fill:#007e48;}</style></defs><title>F-NL-018 Hoofdafsluiter water</title><path class="cls-1" d="M62.07,167.72l-5.13-21.47h4.44L64.62,161l3.93-14.75H73.7l3.77,15,3.29-15h4.37l-5.22,21.47h-4.6L71,151.67l-4.27,16.05Z"/><path class="cls-1" d="M0,0V177.17H141.73V0ZM4.81,4.81H136.92V136.92H4.81Zm132.11,167.4H4.81V141.73H136.92Z"/><polygon class="cls-1" points="129.55 68.42 116.24 68.42 116.24 43.65 70.86 69.86 25.49 43.65 25.49 68.42 12.19 68.42 12.19 74.36 25.49 74.36 25.49 98.09 70.86 71.88 116.24 98.09 116.24 74.36 129.55 74.36 129.55 68.42"/><polygon class="cls-2" points="73.58 70.86 114.18 47.41 114.18 94.32 73.58 70.86"/><polygon class="cls-2" points="68.15 70.86 27.55 47.41 27.55 94.32 68.15 70.86"/></svg>