<svg id="Laag_1" data-name="Laag 1" xmlns="http://www.w3.org/2000/svg" viewBox="0 0 141.73 141.73"><defs><style>.cls-1{fill:#d0043c;}.cls-2,.cls-4{fill:#fff;}.cls-3{fill:#a60032;}.cls-4{fill-rule:evenodd;}</style></defs><title>F-NL-023 RWA</title><rect class="cls-1" width="141.73" height="141.73"/><path class="cls-2" d="M670.57,198.24c.83,2.48,1.64,4.93,2.45,7.38.15.46-.17.56-.48.7-2.82,1.3-5.63,2.58-8.44,3.9a1.21,1.21,0,0,0-.6.66,7.3,7.3,0,0,1-14.07.59,4.61,4.61,0,0,0-.17-.47c-3,0-6.09,0-9.14,0a1,1,0,0,0-.65.32q-4.44,4.41-8.86,8.86a1.49,1.49,0,0,0-.32.95c0,3.15,0,6.31,0,9.46v50.8h-4.49v-.81q0-31.23,0-62.44a1.62,1.62,0,0,1,.52-1.28q5-5,10-10a1.67,1.67,0,0,1,1.28-.52c3.84,0,7.69,0,11.53,0a.85.85,0,0,0,.88-.52,7.22,7.22,0,0,1,9.65-3.05.94.94,0,0,0,1,0c3.15-1.48,6.31-2.92,9.47-4.38C670.2,198.36,670.34,198.32,670.57,198.24Zm-11.08,11a3.17,3.17,0,0,0-3.15-3.2,3.21,3.21,0,0,0-3.14,3.14,3.15,3.15,0,0,0,3.17,3.17A3.1,3.1,0,0,0,659.49,209.28Z" transform="translate(-616.77 -150.74)"/><path class="cls-2" d="M729.19,211v-4.65H730c2.57,0,5.13,0,7.69,0a1.63,1.63,0,0,1,1.28.52q4.95,5,10,9.95a1.72,1.72,0,0,1,.55,1.34q0,31.22,0,62.44v.81h-4.33v-1q0-29.53,0-59.06a1.94,1.94,0,0,0-.64-1.53q-4.17-4.09-8.27-8.26a1.75,1.75,0,0,0-1.4-.6C733,211,731.13,211,729.19,211Z" transform="translate(-616.77 -150.74)"/><path class="cls-2" d="M703.94,174.23H699l6.69-17.34h.18c2.21,5.73,4.43,11.47,6.69,17.34-1,0-1.9,0-2.8,0a1,1,0,0,0-1.06.64A19.61,19.61,0,0,0,707,190.11c1.06,4,2.49,7.89,3.8,11.82a45.51,45.51,0,0,1,2.45,9.73,17.53,17.53,0,0,1-2.91,12,.84.84,0,0,1-.58.39c-1.46,0-2.91,0-4.39,0a1.37,1.37,0,0,1,.09-.29,20,20,0,0,0,2.25-14.31c-.79-4.36-2.44-8.45-3.86-12.61a48.14,48.14,0,0,1-2.73-10.76,17.76,17.76,0,0,1,2.62-11.46C703.79,174.54,703.83,174.44,703.94,174.23Z" transform="translate(-616.77 -150.74)"/><path class="cls-2" d="M671.48,173.92h-4.77c2.24-5.86,4.44-11.62,6.71-17.58,2.26,5.94,4.46,11.7,6.71,17.58-1,0-1.86,0-2.74,0a1.08,1.08,0,0,0-1.14.65,20,20,0,0,0-2.07,13.69c.77,4.37,2.42,8.46,3.86,12.62a47.32,47.32,0,0,1,2.74,10.53,17.63,17.63,0,0,1-2.88,12.06c-.12.18-.32.41-.49.41-1.5,0-3,0-4.53,0,.08-.15.18-.38.3-.59a20.18,20.18,0,0,0,2.06-14.06c-.78-4.36-2.42-8.45-3.84-12.62a48,48,0,0,1-2.73-10.76,17.89,17.89,0,0,1,2.61-11.55C671.33,174.23,671.37,174.14,671.48,173.92Z" transform="translate(-616.77 -150.74)"/><path class="cls-2" d="M688,174.21h-4.78c2.22-5.84,4.42-11.59,6.7-17.56l6.71,17.58c-1,0-1.89,0-2.77,0a1.06,1.06,0,0,0-1.12.68,19.94,19.94,0,0,0-2.05,13.69c.8,4.52,2.53,8.75,4,13a44.16,44.16,0,0,1,2.59,10.17,17.57,17.57,0,0,1-2.91,12,.94.94,0,0,1-.58.39c-1.46,0-2.92,0-4.41,0a4.57,4.57,0,0,1,.27-.56,20.18,20.18,0,0,0,2.09-14.06c-.78-4.38-2.43-8.5-3.86-12.69a47.67,47.67,0,0,1-2.72-10.77,17.9,17.9,0,0,1,2.58-11.47C687.78,174.55,687.83,174.44,688,174.21Z" transform="translate(-616.77 -150.74)"/><path class="cls-2" d="M721.94,183.59l-13.71,6.31c-.21-1.46-.49-2.78-.56-4.12a38.24,38.24,0,0,1,.12-4.14,1,1,0,0,1,.4-.74c3.4-1.6,6.82-3.16,10.32-4.77C719.65,178.61,720.76,181,721.94,183.59Z" transform="translate(-616.77 -150.74)"/><path class="cls-2" d="M694.13,196.38c-.65-2.3-1.3-4.47-1.88-6.67-.35-1.35-.31-1.36,1-1.94l6.3-2.9c.51,2.75,1,5.47,1.55,8.32Z" transform="translate(-616.77 -150.74)"/><path class="cls-2" d="M680.15,202.82,677.41,195l7.31-3.36,2.58,7.84Z" transform="translate(-616.77 -150.74)"/><path class="cls-3" d="M659.49,209.28a3.1,3.1,0,0,1-3.12,3.11,3.15,3.15,0,0,1-3.17-3.17,3.21,3.21,0,0,1,3.14-3.14A3.17,3.17,0,0,1,659.49,209.28Z" transform="translate(-616.77 -150.74)"/><path class="cls-4" d="M683.2,227.85a23.65,23.65,0,0,1,4.78,2.8,29.08,29.08,0,0,1,6.5,7.14,40.54,40.54,0,0,1,5,11.52,1.84,1.84,0,0,0,.06.18,4.19,4.19,0,0,0,1.36-1.77,9.25,9.25,0,0,0,.71-5.26c-.14-1.13-.45-2.24-.69-3.39.31.26.65.53,1,.83a42.78,42.78,0,0,1,7.62,10.31,34.32,34.32,0,0,1,3,7.62,25,25,0,0,1,.76,6.5,21.19,21.19,0,0,1-2.06,8.74,25.34,25.34,0,0,1-5,6.95,32.74,32.74,0,0,1-5.28,4.39c-1.19.78-2.4,1.54-3.61,2.3a2.63,2.63,0,0,1-.32.15A26.48,26.48,0,0,0,698.69,268a27.48,27.48,0,0,0-10.49-15.7c.42,6-.94,11.46-4.74,16.17a15.38,15.38,0,0,0-.06-4.34,10.32,10.32,0,0,0-1.6-4.09c-.25.88-.48,1.7-.73,2.5a29.26,29.26,0,0,1-3.59,7.29,17.72,17.72,0,0,0-3,6.69,13.45,13.45,0,0,0,.09,5,21.06,21.06,0,0,0,1.59,4.77,1.08,1.08,0,0,1,.11.54c-.88-.53-1.79-1-2.63-1.61-1.61-1.12-3.24-2.23-4.76-3.46a19.87,19.87,0,0,1-5.19-6.22,15.6,15.6,0,0,1-1.59-8.73,24.2,24.2,0,0,1,2.49-8.64c1.19-2.49,2.36-5,3.49-7.52a16.29,16.29,0,0,0,1.35-5.13,2.71,2.71,0,0,1,.05-.34,19.36,19.36,0,0,1,2.34,9.54l.13,0c.33-.4.66-.8,1-1.21a69.5,69.5,0,0,0,5.63-8.19,37.79,37.79,0,0,0,3.77-8.56,22.36,22.36,0,0,0,1-6.8c0-.72-.11-1.43-.17-2.15Z" transform="translate(-616.77 -150.74)"/></svg>