<svg id="Layer_1" data-name="Layer 1" xmlns="http://www.w3.org/2000/svg" viewBox="0 0 141.73 141.73"><defs><style>.cls-1,.cls-3{fill:#1d1d1b;}.cls-2{fill:#ffd300;}.cls-3{fill-rule:evenodd;}</style></defs><title>F-NL-017 Hoofdschakelaar elektriciteit</title><path class="cls-1" d="M30.61,75.89a1.36,1.36,0,0,1,.71-1.24L33.52,73a2.32,2.32,0,0,0,.74-1.45v-8h.9a1.59,1.59,0,0,1,1.6,1.6v9A2,2,0,0,0,38.6,76h.6V95.19h84.61V18H39.2V42.87h-.6a2,2,0,0,0-1.84,1.8v5.57A1.8,1.8,0,0,1,35,52h-.7V40.31H19.91V71.55A1.67,1.67,0,0,0,20.62,73l2.19,1.65a1.9,1.9,0,0,1,.72,1.24l.88,19.31c-4.22,1.8-7.15,7.87-7.15,15.51,0,9.16,4.21,16.07,9.8,16.07s9.81-6.91,9.81-16.07c0-7.64-2.93-13.71-7.15-15.51Zm-3.55,45.89c-2.1,0-4.8-4.6-4.8-11.07s2.7-11.06,4.8-11.06,4.81,4.59,4.81,11.06S29.16,121.78,27.06,121.78Z"/><path class="cls-1" d="M0,0V141.73H141.73V0ZM4.81,4.81H136.92V136.92H4.81Z"/><rect class="cls-2" x="41.98" y="20.58" width="79.06" height="72.1"/><polyline class="cls-3" points="84.88 54.06 76.11 82.03 72.84 80.13 75.06 89.99 82.97 83.86 79.29 83.19 94.23 45.8 72.7 56.08 85.49 25.47 78.54 22.87 66.78 62.7 84.88 54.06"/></svg>