<?xml version="1.0" encoding="utf-8"?>
<!-- Generator: Adobe Illustrator 24.0.2, SVG Export Plug-In . SVG Version: 6.00 Build 0)  -->
<svg version="1.1" id="Layer_1" xmlns="http://www.w3.org/2000/svg" xmlns:xlink="http://www.w3.org/1999/xlink" x="0px" y="0px"
	 viewBox="0 0 141.73 141.73" style="enable-background:new 0 0 141.73 141.73;" xml:space="preserve">
<style type="text/css">
	.st0{fill-rule:evenodd;clip-rule:evenodd;fill:#D0043C;}
</style>
<path class="st0" d="M62.77,54.68c-9.04,0-16.36,7.32-16.36,16.36c0,9.03,7.32,16.36,16.36,16.36c9.03,0,16.35-7.32,16.35-16.36
	C79.12,62.01,71.8,54.68,62.77,54.68z"/>
<path class="st0" d="M0,0v141.73h141.73V0H0z M100.4,37.84c2.57,1.36,6.69,4.96,9.63,11.64c2.94,6.68,4.29,9.77,7.11,13.97
	c2.82,4.2,4.17,6.31,7.11,8.16c2.94,1.86,6,3.46,6,3.46s-3.92,1.36-7.6,1.11c-3.68-0.25-9.93-1.98-13.6-6.55
	c-3.68-4.58-7.1-10.14-8.21-15.95c-1.1-5.81-1.93-8.53-3.11-10.82c-1.54-2.99-5.23-5.76-5.23-5.76S97.83,36.48,100.4,37.84z
	 M62.77,95.02c-8.77,0-16.44-4.71-20.62-11.73l-7.98,0v8.74l-22.83,0l0-10.27h12.56l0-21.42l-12.56,0V50.06l22.83,0v8.74h7.98
	C46.33,51.77,54,47.06,62.77,47.06c13.24,0,23.98,10.74,23.98,23.98C86.74,84.28,76.01,95.02,62.77,95.02z M91.9,93.85
	c-4.47-2.63-6.74-2.13-6.74-2.13s3.98-4.67,9.99-4.67c6.01,0,8.69,2.71,11.13,5.08c2.44,2.38,7.63,8.9,13.08,11.48
	c6.58,3.12,10.72,3.36,10.72,3.36s-4.47,4.92-11.86,4.92c-7.39,0-11.45-1.97-16.65-7.95C96.37,97.95,96.37,96.47,91.9,93.85z
	 M130.39,130.39c0,0-8.68,0.84-15.58-1.05c-6.91-1.88-12.35-6.39-14.71-9.76c-2.36-3.36-3.66-11.56-3.66-11.56
	s10.64,8.69,20.39,8.36c9.75-0.33,13.55-2.18,13.55-2.18V130.39z M130.39,99.81c0,0-13.75-2.47-22.2-10.51
	c-8.45-8.04-9.8-12.12-10.91-16.45c-1.1-4.33-1.1-12.24-1.1-12.24s5.9,9.09,12.01,13.85c6.13,4.78,10.63,7.38,15.22,8.43
	c4.5,1.04,6.98,0.74,6.98,0.74V99.81z M130.39,68.05c0,0-5.4-2.14-9.6-8.03c-4.19-5.88-7.35-10.36-7.35-18.63
	c0-8.27,1.82-11.58,1.82-11.58s1.81,8.12,5.53,14.16c3.71,6.01,5.77,6.44,6.8,6.95c1.9,0.95,2.79,0.95,2.79,0.95V68.05z"/>
</svg>
