<svg id="Laag_1" data-name="Laag 1" xmlns="http://www.w3.org/2000/svg" viewBox="0 0 141.73 141.73"><defs><style>.cls-1{fill:#1d1d1b;}.cls-2{fill:#d0043c;}</style></defs><title>F-NL-027_brandbluspomp</title><path class="cls-1" d="M96.32,27.15v87.42L20.49,70.76,96.32,27.15m2-3.45L16.48,70.76,98.32,118V23.7Z" transform="translate(0)"/><path class="cls-1" d="M0,0V141.73H141.73V0ZM4.81,4.81H136.92V136.92H4.81Z" transform="translate(0)"/><path class="cls-1" d="M136.92,67.9h-9.86a56.27,56.27,0,0,0-112.39,0H4.72v5.93h10a56.27,56.27,0,0,0,112.39,0h9.86Zm-66,57.24a54.28,54.28,0,1,1,54.27-54.27A54.34,54.34,0,0,1,70.87,125.14Z" transform="translate(0)"/><polyline class="cls-2" points="96.32 27.15 96.32 114.57 20.49 70.76 96.32 27.15"/></svg>