<svg id="Laag_1" data-name="Laag 1" xmlns="http://www.w3.org/2000/svg" viewBox="0 0 141.73 56.89"><defs><style>.cls-1{isolation:isolate;}.cls-2{fill:#d0043c;}</style></defs><title>F-NL-015_opstelplaats_redvoertuig</title><g class="cls-1"><path class="cls-2" d="M113.8,5V8.23h16.83c5.48,4.19,6.1,6.74,6.1,7.68V41c0,1.52-1.9,4.42-6.11,7.68H113.8v3.23H102.69V48.66H30.31v3.23H18.91V48.66H5V8.23H18.91V5h11.4V8.23h72.38V5H113.8m5-5H97.69V3.23H35.31V0H13.91V3.23H0V53.66H13.91v3.23h21.4V53.66H97.69v3.23H118.8V53.66h13.47c4-2.88,9.46-7.78,9.46-12.68V15.91c0-5.18-5.42-9.8-9.46-12.68H118.8V0Z"/></g><path class="cls-2" d="M118.28,44.72l8.56-.48a109.6,109.6,0,0,0,1.61-15.85,102.27,102.27,0,0,0-1.61-15.51l-8.56-.71Z"/><path class="cls-2" d="M41.39,44.72V12.17H55.22a23.83,23.83,0,0,1,7.58.88,7.56,7.56,0,0,1,3.78,3.12A9.33,9.33,0,0,1,68,21.3a8.71,8.71,0,0,1-2.15,6.05,10.33,10.33,0,0,1-6.44,3,15.32,15.32,0,0,1,3.52,2.73,38.36,38.36,0,0,1,3.74,5.29l4,6.35H62.79L58,37.64a45.71,45.71,0,0,0-3.47-4.79,5,5,0,0,0-2-1.35,10.66,10.66,0,0,0-3.31-.37H48V44.72ZM48,25.94h4.86a25.41,25.41,0,0,0,5.9-.4,3.59,3.59,0,0,0,1.85-1.38,4.25,4.25,0,0,0,.66-2.44,3.86,3.86,0,0,0-.88-2.65,4,4,0,0,0-2.47-1.28c-.53-.07-2.13-.11-4.79-.11H48Z"/><path class="cls-2" d="M81.68,44.72,70,12.17h7.13L85.4,36.26l8-24.09h7L88.69,44.72Z"/></svg>