<svg id="Laag_1" data-name="Laag 1" xmlns="http://www.w3.org/2000/svg" viewBox="0 0 141.73 179.05"><defs><style>.cls-1,.cls-3{fill:#1d1d1b;}.cls-2{fill:#d0043c;}.cls-3{font-size:30px;font-family:Arial-BoldMT, Arial;font-weight:700;}</style></defs><title>F011 blussysteem-Hi-Fog</title><path class="cls-1" d="M0,0V177.17H141.73V0ZM4.81,4.81H136.92V136.92H4.81Zm132.11,167.4H4.81V141.73H136.92Z"/><path class="cls-1" d="M70.78,95.09c1,0,2-.09,3-.11V77.66c-1,0-2,.11-3,.11s-2-.08-3-.11V95c1,0,2,.11,3,.11"/><path class="cls-1" d="M52.8,93.21l6-16.33c-2.07-.31-4.07-.7-6.06-1.15l-5.85,16c1.95.56,3.93,1,5.95,1.44"/><path class="cls-1" d="M22.94,89,12.88,101.37c1.77,1,3.58,2,5.42,2.95l10-12.26c-1.85-1-3.65-2-5.38-3.06"/><path class="cls-1" d="M91.24,99.92l5.09,14c2-.44,4-.89,6-1.43l-5.13-14c-2,.55-3.93,1-5.92,1.47"/><path class="cls-1" d="M113.28,92.06l10,12.26c1.86-.93,3.65-1.92,5.43-2.95L118.63,89c-1.73,1.1-3.52,2.1-5.35,3.06"/><path class="cls-1" d="M103.62,70.57c-1.86.9-3.83,1.72-5.83,2.47l10.9,13.4c1.87-.92,3.7-1.91,5.45-3L103.62,70.57"/><path class="cls-1" d="M88.87,75.73c-2,.45-4,.84-6.05,1.15l6,16.33c2-.42,4-.88,6-1.44l-5.86-16"/><path class="cls-1" d="M73.83,116.64V102.07c-1,0-2,.12-3,.12s-2-.1-3-.12v14.57c1,0,2,.11,3,.11s2-.09,3-.11"/><path class="cls-1" d="M32.88,86.44,43.8,73c-2-.75-4-1.57-5.85-2.47L27.44,83.49c1.76,1,3.58,2,5.44,3"/><path class="cls-1" d="M44.41,98.45l-5.13,14c2,.54,3.95,1,5.95,1.43l5.12-14c-2-.43-4-.92-5.94-1.47"/><path class="cls-2" d="M41.44,52.66a48.26,48.26,0,0,0-5.32,8.13h69.32a47.62,47.62,0,0,0-5.3-8.13A40.32,40.32,0,0,0,87.2,42.18a36.79,36.79,0,0,0-16.42-4,37.46,37.46,0,0,0-16.49,4A41,41,0,0,0,41.44,52.66"/><path class="cls-1" d="M52.06,37.65A45.87,45.87,0,0,0,37.57,49.38a56.41,56.41,0,0,0-8,12.9L28,65.86h85.65L112,62.28a55.57,55.57,0,0,0-8-12.9A45.46,45.46,0,0,0,89.43,37.63a41.64,41.64,0,0,0-18.65-4.51A42.16,42.16,0,0,0,52.06,37.65Zm-10.62,15A41,41,0,0,1,54.29,42.18a37.46,37.46,0,0,1,16.49-4,36.79,36.79,0,0,1,16.42,4,40.32,40.32,0,0,1,12.94,10.48,47.62,47.62,0,0,1,5.3,8.13H36.12a48.26,48.26,0,0,1,5.32-8.13"/><text class="cls-3" transform="translate(23.49 167.75)">Hi-Fog</text></svg>