<svg id="Layer_1" data-name="Layer 1" xmlns="http://www.w3.org/2000/svg" viewBox="0 0 141.73 102.05"><defs><style>.cls-1{fill:#d0043c;}.cls-2{fill:#1d1d1b;}</style></defs><title>F-NL-008_Brandmeldinstallatie-BMC</title><polygon class="cls-1" points="136.77 4.97 4.96 61.6 136.77 61.6 136.77 4.97"/><path class="cls-2" d="M141.73,0H0V102.05H141.73V66.57h0ZM5,5H136.77V61.6H5Zm132,92.11H4.81V66.57H136.92Z"/><g id="Laag_2" data-name="Laag 2"><path class="cls-2" d="M38.73,71.09h8.58a25.25,25.25,0,0,1,3.81.21,5.58,5.58,0,0,1,2.24.89A5.35,5.35,0,0,1,55,74a4.85,4.85,0,0,1,.66,2.51,5.09,5.09,0,0,1-3,4.66,5.6,5.6,0,0,1,3,1.95,5.15,5.15,0,0,1,1.06,3.24A6.48,6.48,0,0,1,56,89.19a5.85,5.85,0,0,1-1.86,2.21,6.23,6.23,0,0,1-2.91,1c-.72.07-2.47.12-5.23.14H38.73Zm4.34,3.57v5h2.84c1.69,0,2.74,0,3.15-.08a2.81,2.81,0,0,0,1.75-.77,2.27,2.27,0,0,0,.64-1.67,2.37,2.37,0,0,0-.55-1.62,2.49,2.49,0,0,0-1.64-.76c-.43,0-1.66-.07-3.7-.07Zm0,8.54v5.74h4a19.38,19.38,0,0,0,3-.13A2.69,2.69,0,0,0,51.63,88a2.65,2.65,0,0,0,.61-1.82,2.83,2.83,0,0,0-.47-1.64,2.62,2.62,0,0,0-1.36-1,14.43,14.43,0,0,0-3.84-.31Z"/><path class="cls-2" d="M60.32,92.56V71.09h6.49l3.9,14.65,3.85-14.65h6.5V92.56H77V75.66l-4.27,16.9H68.6l-4.25-16.9v16.9Z"/><path class="cls-2" d="M99.11,84.67,103.32,86a9.47,9.47,0,0,1-3.22,5.22,9.16,9.16,0,0,1-5.71,1.71,9.27,9.27,0,0,1-7-2.92,11.22,11.22,0,0,1-2.75-8q0-5.37,2.77-8.33a9.47,9.47,0,0,1,7.28-3,8.93,8.93,0,0,1,6.4,2.33,8.48,8.48,0,0,1,2.2,4L99,78a4.4,4.4,0,0,0-4.52-3.6,4.9,4.9,0,0,0-3.88,1.71q-1.49,1.71-1.48,5.55,0,4.08,1.46,5.8a4.75,4.75,0,0,0,3.81,1.73,4.3,4.3,0,0,0,3-1.1A6.35,6.35,0,0,0,99.11,84.67Z"/></g></svg>