<svg id="Laag_1" data-name="Laag 1" xmlns="http://www.w3.org/2000/svg" viewBox="0 0 141.73 177.17"><defs><style>.cls-1{fill:#1d1d1b;}.cls-2{fill:#ffd300;}</style></defs><title>F-NL-019 Hoofdafsluiter gas</title><path class="cls-1" d="M71.5,159.83v-3.62h9.35v8.55a11.84,11.84,0,0,1-3.95,2.33,14.53,14.53,0,0,1-5.23,1,11.79,11.79,0,0,1-5.88-1.41A9,9,0,0,1,62,162.63a13.06,13.06,0,0,1-1.26-5.72,12.46,12.46,0,0,1,1.4-6,9.48,9.48,0,0,1,4.12-4,11.15,11.15,0,0,1,5.14-1.07,10.25,10.25,0,0,1,6.25,1.68,7.56,7.56,0,0,1,2.89,4.64l-4.31.8a4.57,4.57,0,0,0-1.7-2.5,5.18,5.18,0,0,0-3.13-.91,5.89,5.89,0,0,0-4.52,1.8,7.58,7.58,0,0,0-1.68,5.35q0,3.82,1.7,5.73a5.67,5.67,0,0,0,4.46,1.91,7.4,7.4,0,0,0,2.73-.53,9.38,9.38,0,0,0,2.35-1.3v-2.72Z"/><path class="cls-1" d="M0,0V177.17H141.73V0ZM4.81,4.81H136.92V136.92H4.81Zm132.11,167.4H4.81V141.73H136.92Z"/><polygon class="cls-1" points="129.55 68.42 116.24 68.42 116.24 43.65 70.86 69.86 25.49 43.65 25.49 68.42 12.19 68.42 12.19 74.36 25.49 74.36 25.49 98.09 70.86 71.88 116.24 98.09 116.24 74.36 129.55 74.36 129.55 68.42"/><polygon class="cls-2" points="73.58 70.86 114.18 47.41 114.18 94.32 73.58 70.86"/><polygon class="cls-2" points="68.15 70.86 27.55 47.41 27.55 94.32 68.15 70.86"/></svg>