<svg id="Layer_1" data-name="Layer 1" xmlns="http://www.w3.org/2000/svg" viewBox="0 0 141.73 102.05"><defs><style>.cls-1{fill:#d0043c;}.cls-2{fill:#1d1d1b;}</style></defs><title>F-NL-008_Brandmeldinstallatie-SMC</title><polygon class="cls-1" points="136.77 4.97 4.96 61.6 136.77 61.6 136.77 4.97"/><path class="cls-2" d="M141.73,0H0V102.05H141.73V66.57h0ZM5,5H136.77V61.6H5Zm132,92.11H4.81V66.57H136.92Z"/><g id="Laag_2" data-name="Laag 2"><path class="cls-2" d="M38.26,85.57l4.22-.41A5.19,5.19,0,0,0,44,88.28a4.72,4.72,0,0,0,3.15,1,4.83,4.83,0,0,0,3.15-.88,2.63,2.63,0,0,0,1.06-2.08A1.94,1.94,0,0,0,50.94,85a3.53,3.53,0,0,0-1.56-.93c-.51-.18-1.67-.49-3.47-.94A11.85,11.85,0,0,1,41,81a5.63,5.63,0,0,1-2-4.32A5.5,5.5,0,0,1,40,73.64a5.78,5.78,0,0,1,2.68-2.18,10.65,10.65,0,0,1,4.22-.75q4.05,0,6.09,1.78a6.27,6.27,0,0,1,2.15,4.73l-4.34.19A3.68,3.68,0,0,0,49.58,75a4.34,4.34,0,0,0-2.75-.73,4.93,4.93,0,0,0-3,.78,1.56,1.56,0,0,0-.69,1.33,1.68,1.68,0,0,0,.65,1.31,11.56,11.56,0,0,0,4,1.43,21.18,21.18,0,0,1,4.68,1.55,6,6,0,0,1,2.37,2.18,6.29,6.29,0,0,1,.86,3.42,6.37,6.37,0,0,1-1,3.46,6.2,6.2,0,0,1-2.91,2.39,12.17,12.17,0,0,1-4.67.79,9.26,9.26,0,0,1-6.25-1.89A8.13,8.13,0,0,1,38.26,85.57Z"/><path class="cls-2" d="M59.31,92.55V71.08H65.8l3.9,14.65,3.85-14.65h6.5V92.55H76V75.65l-4.26,16.9H67.59l-4.25-16.9v16.9Z"/><path class="cls-2" d="M98.1,84.66,102.3,86a9.34,9.34,0,0,1-3.21,5.22A10.12,10.12,0,0,1,86.35,90a11.16,11.16,0,0,1-2.75-8c0-3.58.92-6.35,2.77-8.33a9.47,9.47,0,0,1,7.28-3,9,9,0,0,1,6.4,2.33,8.47,8.47,0,0,1,2.19,4L98,78a4.45,4.45,0,0,0-4.52-3.6,4.89,4.89,0,0,0-3.88,1.71q-1.48,1.73-1.49,5.56,0,4.07,1.47,5.8a4.77,4.77,0,0,0,3.81,1.72,4.34,4.34,0,0,0,3-1.09A6.42,6.42,0,0,0,98.1,84.66Z"/></g></svg>