<svg id="Laag_1" data-name="Laag 1" xmlns="http://www.w3.org/2000/svg" viewBox="0 0 141.73 177.16"><defs><style>.cls-1{fill:#d0043c;fill-rule:evenodd;}.cls-2{fill:#fff;}.cls-3{fill:#1d1d1b;}</style></defs><title>F-NL-003_ blusleiding</title><path class="cls-1" d="M62.79,54.68A16.36,16.36,0,1,0,79.14,71,16.36,16.36,0,0,0,62.79,54.68Z" transform="translate(-0.02)"/><path class="cls-1" d="M0,0V177.16H141.75V0Zm100.4,37.84c2.58,1.36,6.69,5,9.63,11.63s4.29,9.77,7.11,14,4.16,6.31,7.11,8.16,6,3.46,6,3.46a22.45,22.45,0,0,1-7.6,1.12c-3.67-.25-9.92-2-13.6-6.56S102,59.49,100.86,53.68s-1.93-8.53-3.11-10.82c-1.54-3-5.22-5.75-5.22-5.75S97.85,36.48,100.42,37.84ZM62.79,95A24,24,0,0,1,42.17,83.29h-8V92H11.36V81.75H23.92V60.33H11.36V50.06H34.19V58.8h8A24,24,0,1,1,62.79,95Zm29.13-1.17c-4.47-2.63-6.74-2.13-6.74-2.13s4-4.68,10-4.68,8.69,2.71,11.13,5.09,7.63,8.89,13.08,11.47C126,106.72,130.1,107,130.1,107a17,17,0,0,1-11.86,4.92c-7.39,0-11.45-2-16.65-7.95S96.39,96.47,91.92,93.85Zm38.49,36.54s-8.68.84-15.58-1-12.35-6.39-14.71-9.75S96.47,108,96.47,108s10.64,8.69,20.39,8.36,13.55-2.18,13.55-2.18Zm0-30.58s-13.74-2.48-22.2-10.51-9.8-12.12-10.9-16.45S96.2,60.6,96.2,60.6s5.9,9.09,12,13.85,10.64,7.38,15.22,8.44a22.6,22.6,0,0,0,7,.73Zm0-31.76a24.13,24.13,0,0,1-9.59-8c-4.19-5.89-7.35-10.36-7.35-18.64s1.82-11.58,1.82-11.58,1.81,8.12,5.53,14.16,5.77,6.43,6.8,6.95a7.29,7.29,0,0,0,2.79,1Z" transform="translate(-0.02)"/><rect class="cls-2" x="3.54" y="141.81" width="134.64" height="31.89"/><path class="cls-3" d="M41.6,147h7.92a15.22,15.22,0,0,1,4.09.41,7.24,7.24,0,0,1,3.24,2,9.56,9.56,0,0,1,2,3.48,15.89,15.89,0,0,1,.7,5.08,14.09,14.09,0,0,1-.66,4.57,9.41,9.41,0,0,1-2.3,3.79,7.53,7.53,0,0,1-3,1.72,13.15,13.15,0,0,1-3.83.45H41.6Zm4.33,3.63v14.22h3.24a11.63,11.63,0,0,0,2.62-.2,4,4,0,0,0,1.75-.9,4.56,4.56,0,0,0,1.14-2.07,14.08,14.08,0,0,0,.44-3.93,12.86,12.86,0,0,0-.44-3.82,5,5,0,0,0-1.23-2.08,4.18,4.18,0,0,0-2-1,20.43,20.43,0,0,0-3.56-.2Z" transform="translate(-0.02)"/><path class="cls-3" d="M63.29,147h8.58a25.25,25.25,0,0,1,3.81.21,5.58,5.58,0,0,1,2.24.89,5.38,5.38,0,0,1,1.65,1.79,4.84,4.84,0,0,1,.65,2.51,5.09,5.09,0,0,1-3,4.66,5.6,5.6,0,0,1,3,2,5.15,5.15,0,0,1,1.06,3.24,6.48,6.48,0,0,1-.68,2.85,5.85,5.85,0,0,1-1.86,2.21,6.23,6.23,0,0,1-2.91,1c-.72.07-2.46.12-5.23.14H63.29Zm4.34,3.57v5h2.84c1.69,0,2.74,0,3.15-.08a2.86,2.86,0,0,0,1.75-.76,2.31,2.31,0,0,0,.64-1.68,2.37,2.37,0,0,0-.55-1.62,2.49,2.49,0,0,0-1.64-.76c-.43,0-1.66-.07-3.7-.07Zm0,8.54v5.74h4a19.55,19.55,0,0,0,3-.13,2.73,2.73,0,0,0,1.57-.85,2.69,2.69,0,0,0,.61-1.83,2.83,2.83,0,0,0-.47-1.64,2.62,2.62,0,0,0-1.36-1,14.43,14.43,0,0,0-3.84-.31Z" transform="translate(-0.02)"/><path class="cls-3" d="M85.06,168.51v-21.3h4.33v17.68h10.79v3.62Z" transform="translate(-0.02)"/></svg>