<svg id="Layer_1" data-name="Layer 1" xmlns="http://www.w3.org/2000/svg" viewBox="0 0 141.73 102.05"><defs><style>.cls-1{fill:#d0043c;}.cls-2{fill:#1d1d1b;}</style></defs><title>F-NL-008_Brandmeldinstallatie-BMP</title><polygon class="cls-1" points="136.77 4.97 4.96 61.6 136.77 61.6 136.77 4.97"/><path class="cls-2" d="M141.73,0H0V102.05H141.73V66.57h0ZM5,5H136.77V61.6H5Zm132,92.11H4.81V66.57H136.92Z"/><path class="cls-2" d="M40.13,71.07h8.59a25.1,25.1,0,0,1,3.8.21,5.58,5.58,0,0,1,2.24.89A5.48,5.48,0,0,1,56.41,74a4.88,4.88,0,0,1,.66,2.51,4.94,4.94,0,0,1-.82,2.77,5,5,0,0,1-2.2,1.89,5.66,5.66,0,0,1,3,2,5.2,5.2,0,0,1,1,3.24,6.35,6.35,0,0,1-.68,2.85,5.67,5.67,0,0,1-1.86,2.21,6.19,6.19,0,0,1-2.91,1c-.72.07-2.46.12-5.23.14H40.13Zm4.34,3.57v5h2.84c1.69,0,2.74,0,3.15-.08a2.83,2.83,0,0,0,1.75-.76,2.27,2.27,0,0,0,.64-1.68,2.32,2.32,0,0,0-.55-1.62,2.48,2.48,0,0,0-1.63-.76c-.43,0-1.67-.07-3.71-.07Zm0,8.54v5.74h4a19.45,19.45,0,0,0,3-.13A2.7,2.7,0,0,0,53,87.94a2.65,2.65,0,0,0,.61-1.83,2.83,2.83,0,0,0-.47-1.64,2.59,2.59,0,0,0-1.35-1A14.52,14.52,0,0,0,48,83.18Z"/><path class="cls-2" d="M61.73,92.54V71.07h6.48l3.9,14.65L76,71.07h6.51V92.54h-4V75.64l-4.26,16.9H70l-4.25-16.9v16.9Z"/><path class="cls-2" d="M86.77,92.54V71.07h7a24.92,24.92,0,0,1,5.16.32,5.61,5.61,0,0,1,3.09,2.1,6.66,6.66,0,0,1,1.24,4.18,7,7,0,0,1-.71,3.33,6,6,0,0,1-1.83,2.12,6.1,6.1,0,0,1-2.25,1,24.16,24.16,0,0,1-4.49.31H91.11v8.1ZM91.11,74.7v6.09h2.37a11.47,11.47,0,0,0,3.43-.33,2.89,2.89,0,0,0,1.36-1.06,2.93,2.93,0,0,0,.49-1.67,2.77,2.77,0,0,0-.69-1.93,3,3,0,0,0-1.74-1,20.47,20.47,0,0,0-3.13-.15Z"/></svg>