<?xml version="1.0" encoding="utf-8"?>
<!-- Generator: Adobe Illustrator 24.0.2, SVG Export Plug-In . SVG Version: 6.00 Build 0)  -->
<svg version="1.1" id="Laag_1" xmlns="http://www.w3.org/2000/svg" xmlns:xlink="http://www.w3.org/1999/xlink" x="0px" y="0px"
	 viewBox="0 0 141.73 56.89" style="enable-background:new 0 0 141.73 56.89;" xml:space="preserve">
<style type="text/css">
	.st0{enable-background:new    ;}
	.st1{fill:#D0043C;}
</style>
<g>
	<g class="st0">
		<path class="st1" d="M113.8,5v3.23h5h11.83c5.48,4.19,6.1,6.74,6.1,7.68V28.3v12.68c0,1.52-1.9,4.41-6.11,7.68H118.8h-5v3.23
			h-11.11v-3.23h-5H35.31h-5v3.23h-11.4v-3.23h-5H5V8.23h8.91h5V5h11.4v3.23h5h62.39h5V5H113.8 M118.8,0H97.69v3.23H35.31V0h-21.4
			v3.23H0v50.43h13.91v3.23h21.4v-3.23h62.39v3.23h21.11v-3.23h13.48c4.03-2.88,9.46-7.77,9.46-12.68V28.3V15.91
			c0-5.19-5.42-9.8-9.46-12.68H118.8V0L118.8,0z"/>
	</g>
</g>
<path class="st1" d="M118.28,44.72l8.56-0.48c0,0,1.61-8.99,1.61-15.85c0-6.86-1.61-15.51-1.61-15.51l-8.56-0.71V44.72z"/>
</svg>
