<svg id="Laag_1" data-name="Laag 1" xmlns="http://www.w3.org/2000/svg" viewBox="0 0 141.73 177.17"><defs><style>.cls-1{fill:#1d1d1b;}.cls-2{fill:#d0043c;}</style></defs><title>F-NL-009_hoofdafsluiter_blussysteem-S</title><path class="cls-1" d="M62.08,160.74l4.22-.41a5.19,5.19,0,0,0,1.54,3.12,4.71,4.71,0,0,0,3.14,1,4.84,4.84,0,0,0,3.16-.88,2.64,2.64,0,0,0,1.06-2.08,2,2,0,0,0-.44-1.29,3.53,3.53,0,0,0-1.56-.93c-.51-.18-1.67-.49-3.48-.94a11.86,11.86,0,0,1-4.89-2.12,5.61,5.61,0,0,1-2-4.33,5.5,5.5,0,0,1,.93-3.06,5.81,5.81,0,0,1,2.69-2.18,10.65,10.65,0,0,1,4.22-.75q4.05,0,6.09,1.78a6.21,6.21,0,0,1,2.14,4.73l-4.33.19a3.68,3.68,0,0,0-1.2-2.38,4.31,4.31,0,0,0-2.74-.73,4.93,4.93,0,0,0-3,.78,1.55,1.55,0,0,0-.69,1.33,1.66,1.66,0,0,0,.64,1.31,11.74,11.74,0,0,0,4,1.43,20.66,20.66,0,0,1,4.68,1.55,6,6,0,0,1,2.37,2.18,6.38,6.38,0,0,1,.86,3.42,6.3,6.3,0,0,1-1,3.46,6.13,6.13,0,0,1-2.9,2.39,12.18,12.18,0,0,1-4.67.78,9.26,9.26,0,0,1-6.25-1.88A8.13,8.13,0,0,1,62.08,160.74Z"/><path class="cls-1" d="M0,0V177.17H141.73V0ZM4.81,4.81H136.92V136.92H4.81Zm132.11,167.4H4.81V141.73H136.92Z"/><polygon class="cls-1" points="129.55 68.42 116.24 68.42 116.24 43.65 70.86 69.86 25.48 43.65 25.48 68.42 12.19 68.42 12.19 74.36 25.48 74.36 25.48 98.09 70.86 71.88 116.24 98.09 116.24 74.36 129.55 74.36 129.55 68.42"/><polygon class="cls-2" points="73.58 70.86 114.18 47.41 114.18 94.32 73.58 70.86"/><polygon class="cls-2" points="68.15 70.86 27.55 47.41 27.55 94.32 68.15 70.86"/></svg>