<?xml version="1.0" encoding="utf-8"?>
<!-- Generator: Adobe Illustrator 24.0.2, SVG Export Plug-In . SVG Version: 6.00 Build 0)  -->
<svg version="1.1" id="Laag_1" xmlns="http://www.w3.org/2000/svg" xmlns:xlink="http://www.w3.org/1999/xlink" x="0px" y="0px"
	 viewBox="0 0 141.73 141.73" style="enable-background:new 0 0 141.73 141.73;" xml:space="preserve">
<style type="text/css">
	.st0{fill-rule:evenodd;clip-rule:evenodd;}
	.st1{fill-rule:evenodd;clip-rule:evenodd;fill:#D0043C;}
</style>
<path d="M18.85,19.52h-1v103.86h38.2v-2c0,0-34.31,0-36.2,0c0-1.94,0-97.91,0-99.86c1.89,0,36.2,0,36.2,0v-2H18.85z"/>
<polygon class="st0" points="123.91,58.75 40.97,58.75 40.97,37.8 38.97,37.8 38.97,105.1 40.97,105.1 40.97,84.15 123.91,84.15 "/>
<rect x="40.97" y="60.75" class="st1" width="80.94" height="21.4"/>
<path d="M0,0v141.73h141.73V0H0z M4.81,4.81h132.11v132.11H4.81V4.81z"/>
</svg>
