<svg id="Layer_1" data-name="Layer 1" xmlns="http://www.w3.org/2000/svg" viewBox="0 0 141.73 177.16"><defs><style>.cls-1,.cls-3{fill:#1d1d1b;}.cls-2{fill:#d0043c;}.cls-3{font-size:30px;font-family:Arial-BoldMT, Arial;font-weight:700;}</style></defs><title>F-NL-016 Noodschakelaar-Ne </title><path class="cls-1" d="M30.61,75.89a1.37,1.37,0,0,1,.7-1.24L33.52,73a2.32,2.32,0,0,0,.74-1.45v-8h.9a1.59,1.59,0,0,1,1.6,1.61v9A2,2,0,0,0,38.6,76h.6V95.19h84.6V18H39.2V42.87h-.6a2,2,0,0,0-1.84,1.8v5.57A1.8,1.8,0,0,1,35,52h-.7V40.31H19.91V71.55A1.64,1.64,0,0,0,20.62,73l2.19,1.65a1.9,1.9,0,0,1,.72,1.24l.88,19.31c-4.22,1.81-7.15,7.88-7.15,15.52,0,9.16,4.21,16.06,9.8,16.06s9.81-6.9,9.81-16.06c0-7.64-2.94-13.71-7.15-15.52Zm-3.55,45.89c-2.1,0-4.8-4.59-4.8-11.06s2.7-11.07,4.8-11.07,4.81,4.59,4.81,11.07S29.16,121.78,27.06,121.78Z"/><path class="cls-1" d="M0,0V177.16H141.73V0ZM4.81,4.81H136.92V136.92H4.81Zm132.11,167.4H4.81V141.73H136.92Z"/><rect class="cls-2" x="41.98" y="20.58" width="79.06" height="72.1"/><text class="cls-3" transform="translate(51.24 167.72)">Ne</text></svg>