<svg id="Laag_1" data-name="Laag 1" xmlns="http://www.w3.org/2000/svg" viewBox="0 0 141.73 141.73"><defs><style>.cls-1{fill:#1d1d1b;}.cls-2{fill:#d0043c;}</style></defs><title>F-NL-026 Generator</title><path class="cls-1" d="M73.75,68.52H98.86v32.39H90.49l-1.26-7.54c-3.18,3.69-7.78,9.13-18.74,9.13C56,102.5,42.87,92.12,42.87,71c0-16.4,9.13-31.88,29.37-31.8,18.41,0,25.69,12,26.36,20.25H86.05c0-2.34-4.26-9.87-13.13-9.87S55.68,55.8,55.68,71.2c0,16.4,8.95,20.67,17.48,20.67,2.77,0,12-1.09,14.57-13.22h-14Z"/><path class="cls-1" d="M22.27,70.86A48.6,48.6,0,1,0,70.86,22.27,48.65,48.65,0,0,0,22.27,70.86Zm1.72,0a46.88,46.88,0,1,1,46.87,46.88A46.93,46.93,0,0,1,24,70.86Z"/><path class="cls-2" d="M70.86,13.24a57.63,57.63,0,1,0,57.63,57.62A57.69,57.69,0,0,0,70.86,13.24Zm0,106.22a48.6,48.6,0,1,1,48.6-48.6A48.65,48.65,0,0,1,70.86,119.46Z"/><path class="cls-1" d="M130.17,69.15a59.33,59.33,0,0,0-118.61,0v3.43a59.33,59.33,0,0,0,118.61,0ZM70.86,128.49a57.63,57.63,0,1,1,57.63-57.63A57.69,57.69,0,0,1,70.86,128.49Z"/><path class="cls-1" d="M0,0V141.73H141.73V0ZM4.81,4.81H136.92V136.92H4.81Z"/></svg>