<?xml version="1.0" encoding="utf-8"?>
<!-- Generator: Adobe Illustrator 24.0.2, SVG Export Plug-In . SVG Version: 6.00 Build 0)  -->
<svg version="1.1" id="Laag_1" xmlns="http://www.w3.org/2000/svg" xmlns:xlink="http://www.w3.org/1999/xlink" x="0px" y="0px"
	 viewBox="0 0 141.73 141.73" style="enable-background:new 0 0 141.73 141.73;" xml:space="preserve">
<style type="text/css">
	.st0{fill-rule:evenodd;clip-rule:evenodd;fill:#D0043C;}
</style>
<g>
	<rect x="27.02" y="56.15" class="st0" width="29.97" height="17.92"/>
	<path class="st0" d="M0,0v141.73h141.73V0H0z M100.4,37.84c2.57,1.36,6.69,4.96,9.63,11.64c2.94,6.68,4.29,9.77,7.11,13.98
		c2.82,4.2,4.17,6.31,7.11,8.16c2.94,1.85,6,3.46,6,3.46s-3.92,1.36-7.6,1.11c-3.68-0.25-9.93-1.98-13.6-6.55
		c-3.68-4.57-7.11-10.14-8.21-15.95c-1.1-5.81-1.93-8.53-3.11-10.82c-1.54-2.99-5.23-5.76-5.23-5.76S97.83,36.48,100.4,37.84z
		 M61.44,125.5c0,2.15,0,3.45-2.32,3.45H24.89c-2.32,0-2.32-1.3-2.32-3.45V49.25c0-5.34,2.4-12.88,12.2-13.78v-9.1h-4.05
		c0,0-2.07,2.12-4.72,4.67c-2.84,2.65-6.02,5.78-6.02,5.78l-0.87,7.71l-4.29,0.1c0,0-0.19-4.77,0.29-8.87
		c0.43-3.56,1.59-6.55,1.59-6.55s3.71-3.81,7.52-7.18c3.08-2.75,6.41-5.16,6.41-5.16h6.02v-4.1h11.37v4.87l5.2,0.1l4.72,1.35v6.02
		l-5.15,1.35l-3.38,0.14l-0.05,8.88c9.7,0.96,12.08,8.46,12.08,13.77V125.5z M91.9,93.85c-4.47-2.62-6.74-2.13-6.74-2.13
		s3.98-4.67,9.99-4.67c6.01,0,8.69,2.71,11.13,5.08c2.44,2.38,7.63,8.9,13.08,11.48c6.58,3.12,10.72,3.36,10.72,3.36
		s-4.47,4.92-11.86,4.92s-11.45-1.97-16.65-7.95C96.37,97.95,96.37,96.47,91.9,93.85z M130.39,130.39c0,0-8.68,0.84-15.58-1.05
		c-6.91-1.88-12.35-6.39-14.7-9.76c-2.36-3.36-3.66-11.56-3.66-11.56s10.64,8.69,20.39,8.36c9.75-0.33,13.55-2.18,13.55-2.18V130.39
		z M130.39,99.81c0,0-13.75-2.47-22.2-10.51c-8.46-8.04-9.8-12.12-10.91-16.45c-1.1-4.33-1.1-12.24-1.1-12.24s5.9,9.09,12.01,13.85
		c6.13,4.78,10.64,7.38,15.22,8.44c4.5,1.04,6.98,0.74,6.98,0.74V99.81z M130.39,68.05c0,0-5.41-2.15-9.6-8.03
		c-4.19-5.88-7.35-10.36-7.35-18.63s1.82-11.58,1.82-11.58s1.8,8.12,5.53,14.16c3.71,6.01,5.77,6.44,6.8,6.95
		c1.9,0.95,2.79,0.95,2.79,0.95V68.05z"/>
</g>
</svg>
