<?xml version="1.0" encoding="utf-8"?>
<!-- Generator: Adobe Illustrator 24.0.2, SVG Export Plug-In . SVG Version: 6.00 Build 0)  -->
<svg version="1.1" id="Laag_1" xmlns="http://www.w3.org/2000/svg" xmlns:xlink="http://www.w3.org/1999/xlink" x="0px" y="0px"
	 viewBox="0 0 141.73 141.73" style="enable-background:new 0 0 141.73 141.73;" xml:space="preserve">
<style type="text/css">
	.st0{fill-rule:evenodd;clip-rule:evenodd;fill:#D0043C;}
</style>
<g>
	<path class="st0" d="M0,0v141.73h141.73V0H0z M100.4,37.84c2.57,1.36,6.69,4.96,9.63,11.64c2.94,6.68,4.29,9.77,7.11,13.98
		c2.82,4.2,4.17,6.31,7.11,8.16c2.94,1.85,6,3.46,6,3.46s-3.92,1.36-7.6,1.11c-3.68-0.25-9.93-1.98-13.6-6.55
		c-3.68-4.58-7.11-10.14-8.21-15.95c-1.1-5.81-1.93-8.53-3.11-10.82c-1.54-2.99-5.23-5.76-5.23-5.76S97.83,36.48,100.4,37.84z
		 M37.6,13.02c0,0,4.13-0.54,8.4,0c4.22,0.49,8.59,2.06,8.59,2.06s6.33,1.33,11.35,5.06c4.03,3,6.92,8.59,6.92,8.59
		s2.9,3.98,4.47,8.99c0.98,3.09,1.86,6.53,3.04,9.23c2.6,5.94,7.76,7.56,7.76,7.56l-0.39,0.64c0,0-6.09-1.28-9.43-6.53
		c-1.92-2.95-3.59-7.71-3.59-7.71s-1.67-4.72-4.17-8.94c-2.21-3.69-5.26-7.02-5.26-7.02s-3.73-2.81-7.66-4.62
		c-2.41-1.13-7.81-2.02-7.81-2.02s-1.57-0.39-4.47,0.15c-4.42,0.79-8.45,2.56-8.45,2.56L37.6,13.02z M15.1,57.32
		c1.47,0,3.39-1.03,3.39-1.03s2.46-2.01,3.88-4.66c1.23-2.21,1.13-4.76,1.13-4.76h-1.27l4.86-15.72l1.03,0.2c0,0,4.32-5.6,9.04-8.21
		c5.11-2.8,10.66-2.7,10.66-2.7s6.53-0.1,10.7,2.31c5.65,3.24,9.43,9.23,9.43,9.23s2.11,3.15,3.78,7.22
		c1.62,4.07,3.63,8.94,6.09,11.84c5.84,7.07,13.61,6.73,13.61,6.73l0.44,1.47H13.23C13.23,59.24,13.33,57.32,15.1,57.32z
		 M12.79,60.71h79.47v4.62H12.79V60.71z M91.9,93.85c-4.47-2.62-6.74-2.13-6.74-2.13s3.98-4.67,9.99-4.67
		c6.01,0,8.69,2.71,11.13,5.08c2.44,2.38,7.63,8.9,13.08,11.48c6.58,3.12,10.72,3.36,10.72,3.36s-4.47,4.92-11.86,4.92
		s-11.45-1.97-16.65-7.95C96.37,97.95,96.37,96.47,91.9,93.85z M130.39,130.39c0,0-8.68,0.84-15.58-1.05
		c-6.91-1.89-12.35-6.39-14.7-9.76c-2.36-3.36-3.66-11.56-3.66-11.56s10.64,8.69,20.39,8.36c9.75-0.33,13.55-2.18,13.55-2.18V130.39
		z M130.39,99.81c0,0-13.75-2.47-22.2-10.51c-8.46-8.04-9.8-12.12-10.91-16.45c-1.1-4.33-1.1-12.24-1.1-12.24s5.9,9.09,12.01,13.85
		c6.13,4.78,10.64,7.38,15.22,8.43c4.5,1.04,6.98,0.74,6.98,0.74V99.81z M130.39,68.05c0,0-5.41-2.15-9.6-8.03
		c-4.19-5.88-7.35-10.36-7.35-18.63c0-8.27,1.82-11.58,1.82-11.58s1.8,8.12,5.53,14.16c3.71,6.01,5.77,6.44,6.8,6.95
		c1.9,0.95,2.79,0.95,2.79,0.95V68.05z"/>
</g>
</svg>
