<?xml version="1.0" encoding="utf-8"?>
<!-- Generator: Adobe Illustrator 24.0.2, SVG Export Plug-In . SVG Version: 6.00 Build 0)  -->
<svg version="1.1" id="Laag_1" xmlns="http://www.w3.org/2000/svg" xmlns:xlink="http://www.w3.org/1999/xlink" x="0px" y="0px"
	 viewBox="0 0 141.73 141.73" style="enable-background:new 0 0 141.73 141.73;" xml:space="preserve">
<style type="text/css">
	.st0{fill-rule:evenodd;clip-rule:evenodd;fill:#D0043C;}
</style>
<path class="st0" d="M-0.17,0v141.73h141.73V0H-0.17z M100.24,37.84c2.57,1.36,6.69,4.96,9.63,11.64c2.94,6.68,4.29,9.77,7.11,13.98
	c2.82,4.2,4.17,6.31,7.11,8.16c2.94,1.86,6,3.46,6,3.46s-3.92,1.36-7.6,1.11c-3.68-0.25-9.93-1.98-13.6-6.55
	c-3.68-4.58-7.11-10.14-8.21-15.95c-1.1-5.81-1.93-8.53-3.11-10.82c-1.54-2.99-5.23-5.76-5.23-5.76S97.66,36.48,100.24,37.84z
	 M17.53,12.66h31.71V44.4h-9.58v-4.42h4.97V17.12H22.09v22.86h3.61v4.42h-8.18V12.66z M32.78,37.77c-5.12,0-9.23-4.12-9.23-9.14
	c0-5.02,4.11-9.14,9.23-9.14c5.12,0,9.23,4.12,9.23,9.14C42.02,33.65,37.9,37.77,32.78,37.77z M71.68,77.5v35.56
	c0,0-0.95,3.62-3.01,5.93c-0.65,0.7-1.4,1.35-2.16,1.86v7.98H26.01v-0.6c0-0.05-0.05-2.67-1.41-5.63
	c-3.71-8.04-11.49-22.26-11.49-22.26V73.08c0,0,1.16-2.31,3.21-2.56c7.73-0.85,8.18,6.78,8.18,6.78l-0.15,17.78h3.16V43.44
	c0,0,0.2-4.42,5.12-4.42c5.57,0,5.17,4.42,5.17,4.42v23.2c0.25,0.2,1,0.51,2.11-0.2c-0.05-2.56,3.72-3.72,5.22-3.72
	c3.36,0,5.36,3.82,5.36,3.82v4.62h1.05c0.55-1.31,2.11-4.12,5.12-3.82c4.27,0.45,5.12,4.47,5.12,4.47v5.27h0.4
	c0.45-1.26,2.11-4.88,4.97-4.88C72.53,72.22,71.68,77.5,71.68,77.5z M91.74,93.85c-4.47-2.62-6.74-2.13-6.74-2.13
	s3.98-4.67,9.99-4.67c6.01,0,8.69,2.71,11.13,5.08c2.44,2.38,7.63,8.9,13.08,11.48c6.58,3.12,10.72,3.36,10.72,3.36
	s-4.47,4.92-11.86,4.92s-11.45-1.97-16.65-7.95C96.2,97.95,96.2,96.47,91.74,93.85z M130.23,130.39c0,0-8.68,0.84-15.59-1.05
	c-6.9-1.88-12.35-6.39-14.7-9.76c-2.36-3.36-3.66-11.56-3.66-11.56s10.64,8.69,20.39,8.36c9.75-0.33,13.55-2.18,13.55-2.18V130.39z
	 M130.23,99.81c0,0-13.75-2.47-22.2-10.51c-8.46-8.04-9.8-12.12-10.91-16.45c-1.1-4.33-1.1-12.24-1.1-12.24s5.9,9.09,12.01,13.85
	c6.13,4.78,10.63,7.38,15.22,8.43c4.5,1.04,6.98,0.74,6.98,0.74V99.81z M130.23,68.05c0,0-5.41-2.15-9.6-8.03
	c-4.19-5.88-7.35-10.36-7.35-18.63c0-8.27,1.82-11.58,1.82-11.58s1.8,8.12,5.53,14.16c3.7,6.01,5.77,6.44,6.8,6.95
	c1.9,0.95,2.79,0.95,2.79,0.95V68.05z"/>
</svg>
