<?xml version="1.0" encoding="utf-8"?>
<!-- Generator: Adobe Illustrator 24.0.2, SVG Export Plug-In . SVG Version: 6.00 Build 0)  -->
<svg version="1.1" id="Layer_1" xmlns="http://www.w3.org/2000/svg" xmlns:xlink="http://www.w3.org/1999/xlink" x="0px" y="0px"
	 viewBox="0 0 141.73 141.73" style="enable-background:new 0 0 141.73 141.73;" xml:space="preserve">
<style type="text/css">
	.st0{fill-rule:evenodd;clip-rule:evenodd;fill:#D0043C;}
</style>
<path class="st0" d="M0,0v141.73h141.73V0H0z M100.4,37.83c2.57,1.36,6.69,4.96,9.63,11.64c2.94,6.68,4.29,9.77,7.11,13.97
	c2.82,4.21,4.17,6.31,7.11,8.16c2.94,1.86,6.01,3.46,6.01,3.46s-3.92,1.36-7.6,1.11c-3.68-0.25-9.93-1.98-13.6-6.55
	c-3.68-4.58-7.11-10.14-8.21-15.95c-1.1-5.81-1.93-8.53-3.11-10.81c-1.54-2.99-5.23-5.76-5.23-5.76S97.83,36.47,100.4,37.83z
	 M40.68,12.84c1.26,0.1,2.26,1.25,2.26,1.25s1.65,6.72,3.21,13.55c1.81,7.78,3.56,15.8,3.56,15.8s-1.25,1.91-2.91,2.51
	c-1.91,0.65-4.17,0-4.17,0l-6.77-32.51C35.86,13.44,38.62,12.64,40.68,12.84z M69.02,125.75c-6.32,2.11-14.5,3.16-14.5,3.16
	s-11.64-7.58-21.57-21.77C24.22,94.65,18.81,77.8,18.81,77.8S13.74,62,12.99,46.6C12.33,33,13.64,22.92,13.64,22.92
	s3.36-3.96,8.38-6.32c4.92-2.31,11.59-2.21,11.59-2.21l6.77,33.11c0,0-3.26-0.3-5.82-0.9c-2.26-0.55-3.86,1.86-3.86,1.86
	s3.21,12.44,7.72,24.93c3.56,9.83,6.77,20.27,9.03,24.93c0.96,2.01,2.56,3.46,2.56,3.46l6.77-6.32l22.57,25.28
	C79.35,120.74,75.09,123.75,69.02,125.75z M85.47,116.28c-1.25,1.56-3.86,2.86-3.86,2.86L59.04,93.9c0,0,0.95-1.91,2.56-2.86
	c1.76-1,4.21-1.05,4.21-1.05s4.01,4.96,8.68,10.23c5.57,6.27,11.59,13.24,11.59,13.24S86.48,115.02,85.47,116.28z M91.9,93.85
	c-4.47-2.62-6.74-2.13-6.74-2.13s3.98-4.67,9.99-4.67s8.69,2.7,11.13,5.08c2.44,2.38,7.63,8.9,13.08,11.48
	c6.58,3.12,10.72,3.36,10.72,3.36s-4.47,4.92-11.86,4.92c-7.39,0-11.45-1.97-16.65-7.95C96.37,97.95,96.37,96.47,91.9,93.85z
	 M130.39,130.39c0,0-8.68,0.84-15.59-1.05c-6.91-1.89-12.35-6.4-14.7-9.76c-2.36-3.36-3.66-11.56-3.66-11.56s10.64,8.69,20.39,8.36
	c9.75-0.33,13.55-2.18,13.55-2.18V130.39z M130.39,99.81c0,0-13.75-2.47-22.2-10.51c-8.45-8.04-9.8-12.12-10.91-16.45
	c-1.1-4.33-1.1-12.24-1.1-12.24s5.9,9.09,12.01,13.85c6.13,4.78,10.63,7.38,15.22,8.43c4.5,1.03,6.98,0.74,6.98,0.74V99.81z
	 M130.39,68.04c0,0-5.41-2.15-9.6-8.03c-4.19-5.88-7.35-10.36-7.35-18.63c0-8.27,1.82-11.58,1.82-11.58s1.8,8.12,5.53,14.16
	c3.71,6.01,5.77,6.44,6.8,6.95c1.9,0.95,2.79,0.95,2.79,0.95V68.04z"/>
</svg>
