<?xml version="1.0" encoding="utf-8"?>
<!-- Generator: Adobe Illustrator 24.0.2, SVG Export Plug-In . SVG Version: 6.00 Build 0)  -->
<svg version="1.1" id="Laag_1" xmlns="http://www.w3.org/2000/svg" xmlns:xlink="http://www.w3.org/1999/xlink" x="0px" y="0px"
	 viewBox="0 0 141.73 141.73" style="enable-background:new 0 0 141.73 141.73;" xml:space="preserve">
<style type="text/css">
	.Gebogen_x0020_groen{fill:url(#SVGID_1_);stroke:#FFFFFF;stroke-width:0.25;stroke-miterlimit:1;}
	.st0{fill-rule:evenodd;clip-rule:evenodd;fill:#D0043C;}
</style>
<linearGradient id="SVGID_1_" gradientUnits="userSpaceOnUse" x1="-70.8638" y1="212.5962" x2="-70.1567" y2="211.8891">
	<stop  offset="0" style="stop-color:#1DA238"/>
	<stop  offset="0.9831" style="stop-color:#24391D"/>
</linearGradient>
<path class="st0" d="M0,0v141.73h141.73V0H0z M100.4,37.84c2.57,1.36,6.69,4.96,9.63,11.64c2.94,6.68,4.29,9.77,7.11,13.98
	c2.82,4.2,4.17,6.31,7.11,8.16c2.94,1.86,6,3.46,6,3.46s-3.92,1.36-7.6,1.11c-3.68-0.25-9.93-1.98-13.6-6.55
	c-3.68-4.58-7.11-10.14-8.21-15.95c-1.1-5.81-1.93-8.53-3.11-10.82c-1.54-2.99-5.23-5.76-5.23-5.76S97.83,36.48,100.4,37.84z
	 M56.09,110v11.27l-44.8-15.81V11.04h64.63v92.02l6.61,6.95H56.09z M91.9,93.85c-4.47-2.62-6.74-2.13-6.74-2.13s3.98-4.67,9.99-4.67
	c6.01,0,8.69,2.71,11.13,5.08c2.44,2.38,7.63,8.9,13.08,11.48c6.58,3.12,10.72,3.36,10.72,3.36s-4.47,4.92-11.86,4.92
	c-7.39,0-11.45-1.97-16.65-7.95C96.37,97.95,96.37,96.47,91.9,93.85z M130.4,130.4c0,0-8.68,0.84-15.58-1.05
	c-6.91-1.89-12.35-6.39-14.7-9.76c-2.36-3.36-3.66-11.56-3.66-11.56s10.64,8.69,20.39,8.36c9.75-0.33,13.55-2.18,13.55-2.18V130.4z
	 M130.4,99.81c0,0-13.75-2.47-22.2-10.51c-8.46-8.04-9.8-12.12-10.91-16.45c-1.1-4.33-1.1-12.24-1.1-12.24s5.9,9.09,12.01,13.85
	c6.13,4.78,10.64,7.38,15.22,8.43c4.5,1.04,6.98,0.74,6.98,0.74V99.81z M130.4,68.05c0,0-5.4-2.14-9.6-8.03
	c-4.19-5.88-7.35-10.36-7.35-18.63c0-8.27,1.82-11.58,1.82-11.58s1.8,8.12,5.53,14.16c3.71,6.01,5.77,6.44,6.8,6.95
	c1.9,0.95,2.79,0.95,2.79,0.95V68.05z"/>
<polygon class="st0" points="14.72,103.14 52.91,116.71 52.91,27.83 14.72,14.38 "/>
<path class="st0" d="M64.64,65.68c-2.62,0.5-5.19,1.05-8.41,0.94c0,0.89,0,1.77,0,2.66c0,2.46,0,4.92,0,7.38
	c2.94,0.25,5.84-0.28,8.41-0.69c0,2.37,0,7.12,0,7.12l7.98-14.92l-7.98-9.95C64.64,58.22,64.64,63.19,64.64,65.68z"/>
</svg>
