<?xml version="1.0" encoding="utf-8"?>
<!-- Generator: Adobe Illustrator 24.0.2, SVG Export Plug-In . SVG Version: 6.00 Build 0)  -->
<svg version="1.1" id="Laag_1" xmlns="http://www.w3.org/2000/svg" xmlns:xlink="http://www.w3.org/1999/xlink" x="0px" y="0px"
	 viewBox="0 0 141.73 141.73" style="enable-background:new 0 0 141.73 141.73;" xml:space="preserve">
<style type="text/css">
	.st0{fill-rule:evenodd;clip-rule:evenodd;fill:#D0043C;}
</style>
<path class="st0" d="M0,0v141.73h141.73V0H0z M100.4,37.84c2.57,1.36,6.69,4.96,9.63,11.64c2.94,6.68,4.29,9.77,7.11,13.98
	c2.82,4.2,4.17,6.31,7.11,8.16c2.94,1.86,6,3.46,6,3.46s-3.92,1.36-7.6,1.11c-3.68-0.25-9.93-1.98-13.6-6.55
	c-3.68-4.58-7.11-10.14-8.21-15.95c-1.1-5.81-1.93-8.53-3.11-10.82c-1.54-2.99-5.23-5.76-5.23-5.76S97.83,36.48,100.4,37.84z
	 M35.07,36.39h5.97v-3.54H53.1v6.46H41.04v-0.68h-5.97V36.39z M13.37,13.31c0.58-0.5,1.46-0.44,1.96,0.14l14.11,16.27
	c0.22,0.25,0.34,0.58,0.34,0.91V94.4c-0.96,0.16-1.89,0.4-2.78,0.73V31.15L13.23,15.27C12.73,14.69,12.79,13.81,13.37,13.31z
	 M32.28,123.28c-7.65,0-13.85-6.2-13.85-13.84c0-7.64,6.2-13.84,13.85-13.84c7.65,0,13.85,6.2,13.85,13.84
	C46.13,117.09,39.93,123.28,32.28,123.28z M68.36,120.02c-0.26,0.21-0.56,0.31-0.87,0.31c-0.41,0-0.81-0.18-1.08-0.52l-6.08-7.57
	H47.28c0.17-0.9,0.26-1.83,0.26-2.78c0-0.01,0-0.01,0-0.02c0-8.42-6.99-15.25-15.41-15.25l0-46.65c0-3.76,3.06-6.82,6.82-6.82h8.12
	h8.12c3.76,0,6.82,3.06,6.82,6.82v53.98c0,3.76-3.06,6.82-6.82,6.82h-0.34v1.11h6.14c0.42,0,0.82,0.19,1.08,0.52l6.5,8.09
	C69.05,118.66,68.96,119.54,68.36,120.02z M91.9,93.85c-4.47-2.62-6.74-2.13-6.74-2.13s3.98-4.67,9.99-4.67
	c6.01,0,8.69,2.71,11.13,5.08c2.44,2.38,7.63,8.9,13.08,11.48c6.58,3.12,10.72,3.36,10.72,3.36s-4.47,4.92-11.86,4.92
	s-11.46-1.97-16.65-7.95C96.37,97.95,96.37,96.47,91.9,93.85z M130.39,130.39c0,0-8.68,0.84-15.58-1.05
	c-6.91-1.89-12.35-6.39-14.71-9.76c-2.36-3.36-3.66-11.56-3.66-11.56s10.64,8.69,20.39,8.36c9.75-0.33,13.55-2.18,13.55-2.18V130.39
	z M130.39,99.81c0,0-13.75-2.47-22.2-10.51c-8.46-8.04-9.8-12.12-10.91-16.45c-1.1-4.33-1.1-12.24-1.1-12.24s5.9,9.09,12.01,13.85
	c6.13,4.78,10.64,7.38,15.22,8.43c4.5,1.04,6.98,0.74,6.98,0.74V99.81z M130.39,68.05c0,0-5.41-2.14-9.6-8.03
	c-4.19-5.88-7.35-10.36-7.35-18.63s1.82-11.58,1.82-11.58s1.8,8.12,5.53,14.16c3.7,6.01,5.77,6.44,6.8,6.95
	c1.9,0.95,2.79,0.95,2.79,0.95V68.05z M34.99,109.44c0,1.5-1.22,2.71-2.71,2.71c-1.5,0-2.72-1.21-2.72-2.71
	c0-1.5,1.22-2.71,2.72-2.71C33.78,106.73,34.99,107.94,34.99,109.44z M32.28,99.16c-5.68,0-10.29,4.6-10.29,10.29
	c0,5.68,4.61,10.29,10.29,10.29c5.68,0,10.29-4.6,10.29-10.29C42.57,103.76,37.96,99.16,32.28,99.16z M32.28,114
	c-2.52,0-4.57-2.04-4.57-4.56c0-2.52,2.05-4.56,4.57-4.56c2.52,0,4.56,2.04,4.56,4.56C36.84,111.96,34.8,114,32.28,114z M58.39,65.9
	H35.75V53.72h22.65V65.9z"/>
</svg>
