<?xml version="1.0" encoding="utf-8"?>
<!-- Generator: Adobe Illustrator 24.0.2, SVG Export Plug-In . SVG Version: 6.00 Build 0)  -->
<svg version="1.1" id="Layer_1" xmlns="http://www.w3.org/2000/svg" xmlns:xlink="http://www.w3.org/1999/xlink" x="0px" y="0px"
	 viewBox="0 0 141.73 141.73" style="enable-background:new 0 0 141.73 141.73;" xml:space="preserve">
<style type="text/css">
	.st0{fill-rule:evenodd;clip-rule:evenodd;fill:#D0043C;}
</style>
<g>
	<path class="st0" d="M0,0v141.73h141.73V0H0z M100.4,37.84c2.57,1.36,6.69,4.96,9.63,11.64c2.94,6.68,4.29,9.77,7.11,13.98
		c2.82,4.2,4.17,6.31,7.11,8.16c2.94,1.86,6,3.46,6,3.46s-3.92,1.36-7.6,1.11c-3.68-0.25-9.93-1.98-13.6-6.55
		c-3.68-4.58-7.11-10.14-8.21-15.95c-1.1-5.81-1.93-8.53-3.11-10.82c-1.54-2.99-5.23-5.76-5.23-5.76S97.83,36.48,100.4,37.84z
		 M92.54,121.16l-22.18-7.48l-10.43,4.06v-17.18l6.25,2.43V24.04c0-5.41-2.96-6.14-5.85-6.14c-2.98,0-3.91,1.2-4.21,1.6
		c-0.66,0.85-1.07,2.15-1.24,3.81c3.02,0.16,5.45,2.69,5.45,5.75v63.79H11.69V29.06c0-3.17,2.59-5.76,5.76-5.76h7.32v-6.87h-2.96
		v-2.62H49.9v2.62h-2.95v6.87h1.91c0.22-3.08,1.06-5.59,2.5-7.47c1.38-1.8,4.06-3.94,8.97-3.94c7.42,0,11.85,4.54,11.85,12.15v79.96
		l20.36-6.86V121.16z M91.9,93.85c-4.47-2.62-6.74-2.13-6.74-2.13s3.98-4.67,9.99-4.67c6.01,0,8.69,2.71,11.13,5.08
		c2.44,2.38,7.63,8.9,13.08,11.48c6.58,3.12,10.72,3.36,10.72,3.36s-4.47,4.92-11.86,4.92c-7.39,0-11.45-1.97-16.65-7.95
		C96.37,97.95,96.37,96.47,91.9,93.85z M130.39,130.4c0,0-8.68,0.84-15.58-1.05c-6.91-1.89-12.35-6.39-14.7-9.76
		c-2.36-3.36-3.66-11.56-3.66-11.56s10.64,8.69,20.39,8.36c9.75-0.33,13.55-2.18,13.55-2.18V130.4z M130.39,99.81
		c0,0-13.75-2.47-22.2-10.51c-8.45-8.04-9.8-12.12-10.91-16.45c-1.1-4.33-1.1-12.24-1.1-12.24s5.9,9.09,12.01,13.85
		c6.13,4.78,10.64,7.38,15.22,8.43c4.5,1.04,6.98,0.74,6.98,0.74V99.81z M130.39,68.05c0,0-5.41-2.14-9.6-8.03
		c-4.19-5.88-7.35-10.36-7.35-18.63s1.82-11.58,1.82-11.58s1.8,8.12,5.53,14.16c3.71,6.01,5.77,6.44,6.8,6.95
		c1.9,0.95,2.79,0.95,2.79,0.95V68.05z"/>
	<rect x="16.96" y="71.9" class="st0" width="37.79" height="15.69"/>
</g>
</svg>
