<?xml version="1.0" encoding="utf-8"?>
<!-- Generator: Adobe Illustrator 24.0.2, SVG Export Plug-In . SVG Version: 6.00 Build 0)  -->
<svg version="1.1" id="Layer_1" xmlns="http://www.w3.org/2000/svg" xmlns:xlink="http://www.w3.org/1999/xlink" x="0px" y="0px"
	 viewBox="0 0 141.73 141.73" style="enable-background:new 0 0 141.73 141.73;" xml:space="preserve">
<style type="text/css">
	.st0{fill-rule:evenodd;clip-rule:evenodd;fill:#D0043C;}
</style>
<g>
	<path class="st0" d="M29.68,106.04v15.25h37.9v-15.25c-5.63,3.07-12.09,4.81-18.95,4.81C41.76,110.85,35.31,109.11,29.68,106.04z"
		/>
	<path class="st0" d="M48.63,75.57c2.41,0,4.37-1.96,4.37-4.37c0-2.41-1.96-4.37-4.37-4.37c-2.41,0-4.37,1.96-4.37,4.37
		C44.26,73.61,46.22,75.57,48.63,75.57z"/>
	<path class="st0" d="M0,0v141.73h141.73V0H0z M100.4,37.83c2.57,1.36,6.69,4.96,9.63,11.64c2.94,6.68,4.29,9.77,7.11,13.98
		c2.82,4.2,4.17,6.31,7.11,8.16c2.94,1.86,6,3.46,6,3.46s-3.92,1.36-7.6,1.11c-3.68-0.25-9.93-1.98-13.6-6.55
		c-3.68-4.58-7.11-10.14-8.21-15.95c-1.1-5.81-1.93-8.53-3.11-10.82c-1.54-2.99-5.23-5.76-5.23-5.76S97.83,36.47,100.4,37.83z
		 M84.1,131.57H13.15v-10.28h10.5v-19.3C14.7,94.72,8.98,83.63,8.98,71.2c0-21.9,17.75-39.65,39.65-39.65
		c21.9,0,39.65,17.75,39.65,39.65c0,12.43-5.72,23.52-14.67,30.79v19.3h10.5V131.57z M91.9,93.85c-4.47-2.62-6.74-2.13-6.74-2.13
		s3.98-4.67,9.99-4.67c6.01,0,8.69,2.71,11.13,5.08c2.44,2.38,7.63,8.9,13.08,11.48c6.58,3.12,10.72,3.36,10.72,3.36
		s-4.47,4.92-11.86,4.92c-7.39,0-11.45-1.97-16.65-7.95C96.37,97.94,96.37,96.47,91.9,93.85z M130.4,130.39
		c0,0-8.68,0.84-15.58-1.05c-6.91-1.89-12.35-6.39-14.7-9.76c-2.36-3.36-3.66-11.56-3.66-11.56s10.64,8.69,20.39,8.36
		c9.75-0.33,13.55-2.18,13.55-2.18V130.39z M130.4,99.81c0,0-13.75-2.47-22.2-10.51c-8.46-8.04-9.8-12.12-10.91-16.45
		c-1.1-4.33-1.1-12.24-1.1-12.24s5.9,9.09,12.01,13.85c6.13,4.78,10.64,7.38,15.22,8.43c4.5,1.04,6.98,0.74,6.98,0.74V99.81z
		 M130.4,68.05c0,0-5.4-2.14-9.6-8.03c-4.19-5.88-7.35-10.36-7.35-18.63c0-8.27,1.82-11.58,1.82-11.58s1.8,8.12,5.53,14.16
		c3.71,6.01,5.77,6.44,6.8,6.95c1.9,0.95,2.79,0.95,2.79,0.95V68.05z"/>
</g>
</svg>
