<svg id="Laag_1" data-name="Laag 1" xmlns="http://www.w3.org/2000/svg" viewBox="0 0 141.73 177.16"><defs><style>.cls-1{fill:#d0043c;}.cls-2{fill:#fff;}.cls-3{fill:#1d1d1b;}</style></defs><title>F015 Blusmonitor</title><path class="cls-1" d="M0,0V177.16H141.73V0ZM53.34,118.28H17.75V111.6h6.17V63.65a2.75,2.75,0,0,1,0-5.49V51L20.2,44.12l-2.27,2.07L15.3,43.32l8.86-8.24L18.9,30.83,14,33.52,12.05,30,35.79,17.07l1.91,3.5-4.93,2.69.74,6.92L44,28.69l.39,3.62-3,.39,2.13,3.9L97.11,19l-.83-2.22,11.94-4.49,3.91,10.4-11.94,4.49L99.36,25,47.17,47.2v11a2.75,2.75,0,1,1,0,5.49V111.6h6.17Zm63.8-54.83c2.82,4.2,4.17,6.31,7.11,8.16s6,3.46,6,3.46a22.45,22.45,0,0,1-7.6,1.12c-3.67-.25-9.92-2-13.6-6.56s-7.11-10.14-8.21-15.95-1.93-8.53-3.11-10.82c-1.54-3-5.22-5.75-5.22-5.75s5.32-.63,7.89.73,6.69,5,9.63,11.63S114.32,59.24,117.14,63.45ZM91.9,93.85c-4.47-2.63-6.74-2.13-6.74-2.13s4-4.68,10-4.68,8.69,2.71,11.13,5.09,7.63,8.89,13.08,11.47c6.58,3.12,10.72,3.36,10.72,3.36a17,17,0,0,1-11.86,4.92c-7.39,0-11.45-2-16.65-7.95S96.37,96.47,91.9,93.85Zm38.49,36.55s-8.67.83-15.58-1.06-12.35-6.39-14.7-9.75S96.45,108,96.45,108s10.64,8.69,20.39,8.36,13.55-2.18,13.55-2.18Zm0-30.59s-13.74-2.48-22.2-10.52-9.8-12.11-10.9-16.44S96.18,60.6,96.18,60.6s5.9,9.09,12,13.85,10.64,7.38,15.22,8.44a22.87,22.87,0,0,0,7,.74Zm0-31.76a24.13,24.13,0,0,1-9.59-8c-4.19-5.89-7.35-10.36-7.35-18.64s1.82-11.58,1.82-11.58,1.81,8.12,5.53,14.16,5.77,6.43,6.8,6.95a7.29,7.29,0,0,0,2.79,1Z"/><rect class="cls-2" x="3.54" y="141.82" width="134.64" height="31.89"/><path class="cls-3" d="M63.92,168.51V147H78.64v3.63H68.25v5.08h9v3.64h-9v9.12Z"/></svg>