<?xml version="1.0" encoding="utf-8"?>
<!-- Generator: Adobe Illustrator 24.0.2, SVG Export Plug-In . SVG Version: 6.00 Build 0)  -->
<svg version="1.1" id="Laag_1" xmlns="http://www.w3.org/2000/svg" xmlns:xlink="http://www.w3.org/1999/xlink" x="0px" y="0px"
	 viewBox="0 0 141.73 177.16" style="enable-background:new 0 0 141.73 177.16;" xml:space="preserve">
<style type="text/css">
	.st0{fill:#D0043C;}
	.st1{fill:#FFFFFF;}
</style>
<path class="st0" d="M0,0v177.16h141.73V0H0z M53.34,118.28H17.75v-6.68h6.17V63.65c-1.52,0-2.75-1.23-2.75-2.74
	c0-1.52,1.23-2.75,2.75-2.75v-7.21l-3.73-6.83l-2.27,2.07l-2.63-2.86l8.86-8.25l-5.26-4.25l-4.94,2.69l-1.91-3.5l23.74-12.96
	l1.91,3.5l-4.94,2.7l0.74,6.91l10.46-1.49l0.39,3.62l-3.01,0.39l2.13,3.9l53.62-17.61l-0.83-2.21l11.94-4.49l3.92,10.4l-11.94,4.5
	l-0.83-2.21L47.17,47.2v10.96c1.52,0,2.75,1.23,2.75,2.75c0,1.52-1.23,2.74-2.75,2.74v47.95h6.17V118.28z M117.14,63.45
	c2.82,4.21,4.17,6.31,7.11,8.16c2.94,1.86,6.01,3.46,6.01,3.46s-3.92,1.36-7.6,1.11c-3.68-0.25-9.93-1.98-13.6-6.55
	c-3.68-4.58-7.11-10.14-8.21-15.95c-1.1-5.81-1.93-8.53-3.11-10.81c-1.54-2.99-5.23-5.76-5.23-5.76s5.32-0.63,7.9,0.73
	c2.57,1.36,6.69,4.96,9.63,11.64C112.97,56.15,114.32,59.24,117.14,63.45z M91.9,93.85c-4.47-2.62-6.74-2.13-6.74-2.13
	s3.98-4.67,9.99-4.67c6.01,0,8.69,2.7,11.13,5.08c2.44,2.38,7.63,8.9,13.08,11.48c6.58,3.12,10.72,3.36,10.72,3.36
	s-4.47,4.92-11.86,4.92c-7.39,0-11.45-1.97-16.65-7.95C96.37,97.95,96.37,96.47,91.9,93.85z M130.39,130.4c0,0-8.68,0.84-15.58-1.05
	c-6.91-1.89-12.35-6.4-14.7-9.76c-2.36-3.36-3.66-11.56-3.66-11.56s10.64,8.69,20.39,8.36c9.75-0.33,13.55-2.18,13.55-2.18V130.4z
	 M130.39,99.81c0,0-13.75-2.48-22.2-10.51c-8.46-8.04-9.8-12.12-10.91-16.45c-1.1-4.33-1.1-12.24-1.1-12.24s5.9,9.09,12.01,13.85
	c6.13,4.78,10.63,7.38,15.22,8.43c4.5,1.03,6.98,0.74,6.98,0.74V99.81z M130.39,68.05c0,0-5.41-2.14-9.6-8.03
	c-4.19-5.88-7.35-10.36-7.35-18.63c0-8.27,1.82-11.59,1.82-11.59s1.8,8.12,5.53,14.16c3.71,6.01,5.77,6.44,6.8,6.95
	c1.9,0.95,2.79,0.95,2.79,0.95V68.05z"/>
<rect x="3.54" y="141.82" class="st1" width="134.64" height="31.89"/>
<g>
	<path d="M63.92,168.51v-21.47h14.72v3.63H68.25v5.08h8.96v3.63h-8.96v9.13H63.92z"/>
</g>
</svg>
