<?xml version="1.0" encoding="utf-8"?>
<!-- Generator: Adobe Illustrator 24.0.2, SVG Export Plug-In . SVG Version: 6.00 Build 0)  -->
<svg version="1.1" id="Laag_1" xmlns="http://www.w3.org/2000/svg" xmlns:xlink="http://www.w3.org/1999/xlink" x="0px" y="0px"
	 viewBox="0 0 141.73 141.73" style="enable-background:new 0 0 141.73 141.73;" xml:space="preserve">
<style type="text/css">
	.st0{fill-rule:evenodd;clip-rule:evenodd;fill:#D0043C;}
</style>
<path class="st0" d="M0,0v141.73h141.73V0H0z M100.4,37.84c2.57,1.36,6.69,4.96,9.63,11.64c2.94,6.68,4.29,9.77,7.11,13.97
	c2.82,4.2,4.17,6.31,7.11,8.16c2.94,1.86,6,3.46,6,3.46s-3.92,1.36-7.6,1.11c-3.68-0.25-9.93-1.98-13.6-6.55
	c-3.68-4.58-7.11-10.14-8.21-15.95c-1.1-5.81-1.93-8.53-3.11-10.82c-1.54-2.99-5.23-5.76-5.23-5.76S97.83,36.47,100.4,37.84z
	 M41.47,33.55c3.81,0,6.9,3.09,6.9,6.9c0,3.81-3.09,6.9-6.9,6.9c-3.81,0-6.9-3.09-6.9-6.9C34.57,36.63,37.66,33.55,41.47,33.55z
	 M53.49,45.32c0.01-0.01,0.01-0.02,0.02-0.02c1.25-1.57,3.54-1.83,5.1-0.58c1.57,1.25,1.83,3.54,0.58,5.1l-5.12,6.42l-6.65-3.47
	L53.49,45.32z M50.73,93.13l-2.53,24.44h0c-0.27,2.5-2.52,4.31-5.02,4.03c-2.5-0.27-4.3-2.52-4.03-5.02h0l2.33-22.36l-12.1-13.11
	l2.99,16.07c0.32,1.7-0.36,3.36-1.62,4.38l-16.27,13.57v-11.98L22.93,96l-3.86-20.53c-0.32-1.47-0.16-2.51,0.32-3.57
	c0,0,9.06-20.15,10.02-22.39c1.01-2.34,3.71-2.98,6.17-1.72c2.48,1.27,9.9,4.92,9.9,4.92l15.15,7.91l8.78-7.65
	c0.01-0.01,0.01-0.01,0.02-0.02c1.71-1.49,4.3-1.31,5.79,0.4c1.49,1.71,1.31,4.3-0.4,5.79l-11.26,9.82l0,0
	c-1.37,1.29-3.45,1.64-5.21,0.72l0,0h0h0l-16.6-8.79l-6.19,13.53l13.98,15.15C50.47,90.55,50.86,91.87,50.73,93.13L50.73,93.13z
	 M81.05,112.9c-1.05-0.54-23.52-10.65-24.91-11.3c-0.43-0.2-0.72-0.49-0.89-1.44c-1.32-7.51-1.91-12.53-2.13-20.88
	c-0.1-3.89,0.02-7.71,0.15-11.38l4.69,2.49c0.77,0.4,1.62,0.61,2.48,0.61c1.38,0,2.69-0.52,3.67-1.44l11.26-9.81
	c1-0.87,1.59-2.07,1.68-3.38c0.09-1.32-0.34-2.59-1.2-3.58c-0.94-1.08-2.29-1.69-3.72-1.69c-1.19,0-2.34,0.43-3.26,1.24l-8.35,7.28
	l-5.69-2.97l5.02-6.3c0.74-0.93,1.08-2.1,0.94-3.29c-0.13-1.19-0.72-2.25-1.65-2.99c-0.79-0.63-1.78-0.97-2.78-0.97
	c-1.37,0-2.64,0.61-3.49,1.68l-0.62,0.76c-0.28-1.42-0.61-2.93-1.02-4.61c-0.43-1.76,1.31-1.13,1.31-1.13s23.76,10.05,24.32,10.36
	c0.56,0.31,1.01,0.6,1.52,1.71c2.5,5.42,1.52,15.84,0.55,22.95c-1.06,7.78-1.25,14.9,0.17,22.54c1.42,7.64,2.34,11.03,3.54,14.73
	C83.05,113.37,81.91,113.34,81.05,112.9z M91.9,93.85c-4.47-2.62-6.74-2.13-6.74-2.13s3.98-4.67,9.99-4.67
	c6.01,0,8.69,2.71,11.13,5.08c2.44,2.38,7.63,8.9,13.08,11.48c6.58,3.12,10.72,3.36,10.72,3.36s-4.47,4.92-11.86,4.92
	c-7.39,0-11.45-1.97-16.65-7.95C96.37,97.95,96.37,96.47,91.9,93.85z M130.39,130.39c0,0-8.68,0.84-15.59-1.05
	c-6.91-1.89-12.35-6.39-14.7-9.76c-2.36-3.36-3.66-11.56-3.66-11.56s10.64,8.69,20.39,8.36c9.75-0.33,13.55-2.18,13.55-2.18V130.39z
	 M130.39,99.81c0,0-13.75-2.47-22.2-10.51c-8.45-8.04-9.8-12.12-10.91-16.45c-1.1-4.33-1.1-12.24-1.1-12.24s5.9,9.09,12.01,13.85
	c6.13,4.78,10.64,7.38,15.22,8.43c4.5,1.04,6.98,0.74,6.98,0.74V99.81z M130.39,68.05c0,0-5.41-2.14-9.6-8.03
	c-4.19-5.88-7.35-10.36-7.35-18.63c0-8.27,1.82-11.58,1.82-11.58s1.8,8.12,5.53,14.16c3.71,6.01,5.77,6.44,6.8,6.95
	c1.9,0.95,2.79,0.95,2.79,0.95V68.05z"/>
</svg>
