<?xml version="1.0" encoding="utf-8"?>
<!-- Generator: Adobe Illustrator 24.0.2, SVG Export Plug-In . SVG Version: 6.00 Build 0)  -->
<svg version="1.1" xmlns="http://www.w3.org/2000/svg" xmlns:xlink="http://www.w3.org/1999/xlink" x="0px" y="0px"
	 viewBox="0 0 141.7 141.7" style="enable-background:new 0 0 141.7 141.7;" xml:space="preserve">
<style type="text/css">
	.st0{fill:#FFFFFF;}
	.st1{fill:#1D1D1B;}
	.st2{fill:#FFD300;}
	.st3{fill:#D0043C;}
	.st4{fill:#005092;}
</style>
<g id="Laag_2">
	
		<rect x="20.8" y="20.8" transform="matrix(0.7071 -0.7071 0.7071 0.7071 -29.3538 70.8738)" class="st0" width="100.2" height="100.2"/>
</g>
<g id="Laag_1">
	<title>W-NL-003 NFPA-gevarendiamant</title>
	
		<rect x="20.8" y="20.8" transform="matrix(0.7071 -0.7071 0.7071 0.7071 -29.3538 70.8738)" class="st1" width="100.2" height="100.2"/>
	
		<rect x="82.4" y="47.6" transform="matrix(0.7071 -0.7071 0.7071 0.7071 -19.1488 95.4937)" class="st2" width="46.6" height="46.6"/>
	
		<rect x="47.6" y="82.4" transform="matrix(0.7071 -0.7071 0.7071 0.7071 -53.9837 81.0688)" class="st0" width="46.6" height="46.6"/>
	
		<rect x="47.6" y="12.7" transform="matrix(0.7071 -0.7071 0.7071 0.7071 -4.7279 60.6688)" class="st3" width="46.6" height="46.6"/>
	<rect x="12.7" y="47.6" transform="matrix(0.7072 -0.707 0.707 0.7072 -39.555 46.2255)" class="st4" width="46.6" height="46.6"/>
</g>
</svg>
