<svg id="Laag_1" data-name="Laag 1" xmlns="http://www.w3.org/2000/svg" viewBox="0 0 141.73 123.94"><defs><style>.cls-1{fill:#ffd300;}.cls-2,.cls-3{fill:#1d1d1b;}.cls-3{fill-rule:evenodd;}</style></defs><title>W003 Radioactief materiaal</title><polygon class="cls-1" points="11.72 115.44 70.86 12.91 130.01 115.44 11.72 115.44 11.72 115.44"/><path class="cls-2" d="M11.72,115.44,70.87,12.91,130,115.44Zm129.46,2.35L74.42,2.06a4.1,4.1,0,0,0-7.11,0L.55,117.79a4.1,4.1,0,0,0,3.56,6.15H137.63a4.1,4.1,0,0,0,3.55-6.15Z" transform="translate(0 0)"/><path class="cls-3" d="M70.88,86.94a5.58,5.58,0,1,0-5.58-5.57,5.57,5.57,0,0,0,5.58,5.57" transform="translate(0 0)"/><path class="cls-3" d="M42.71,81.36A28.13,28.13,0,0,1,56.79,57l9.42,16.32a9.3,9.3,0,0,0-4.64,8H42.71" transform="translate(0 0)"/><path class="cls-3" d="M85,105.72a28.22,28.22,0,0,1-28.18,0l9.45-16.3a9.31,9.31,0,0,0,9.29,0L85,105.72" transform="translate(0 0)"/><path class="cls-3" d="M85,57A28.09,28.09,0,0,1,99.06,81.37l-18.87,0a9.3,9.3,0,0,0-4.66-8L85,57" transform="translate(0 0)"/></svg>