<svg id="Laag_1" data-name="Laag 1" xmlns="http://www.w3.org/2000/svg" viewBox="0 0 141.73 123.94"><defs><style>.cls-1{fill:#ffd300;}.cls-2{fill:#1d1d1b;}</style></defs><title>W021 Brandgevaarlijk</title><polygon class="cls-1" points="11.72 115.44 70.87 12.91 130.01 115.44 11.72 115.44 11.72 115.44"/><path class="cls-2" d="M11.72,115.44,70.87,12.91,130,115.44Zm129.46,2.34L74.42,2.06a4.1,4.1,0,0,0-7.11,0L.55,117.78a4.1,4.1,0,0,0,3.56,6.16H137.63a4.1,4.1,0,0,0,3.55-6.16Z" transform="translate(0 0)"/><path class="cls-2" d="M98,108.8H41.83v-5.71H98v5.71ZM88.62,71.08c.32-4.31-1.09-8.13-3-9.09.06,1.31-.4,3.78-1.79,4.47,0-5.27-2.53-13.55-6.86-16,.26,2,.16,4-.34,4.94-.35-1.54-.27-3.1-1.44-5-1.42-2.35-2.71-2.66-3.81-4.33a17.76,17.76,0,0,1-1.93-4,24.37,24.37,0,0,1-.78-3.32A18.82,18.82,0,0,0,66.35,47a20.57,20.57,0,0,1-.79,6.15,49.86,49.86,0,0,0-4.88-5.57c.06,3,.47,4.54.41,9.32C61,59.69,60.72,63.21,60,64.6a22.61,22.61,0,0,0-5-5.66c.32,2.67.29,6.38-.71,8.9a17.43,17.43,0,0,0-.8,6.24,16.17,16.17,0,0,0-4.28-2.72c1.1,2.58,1.31,6.72,1.06,12.07-.23,4.81.85,8.74,4.09,12.14a11.86,11.86,0,0,0,11,3.3,21,21,0,0,1-8.28-15.21,9.75,9.75,0,0,0,2.13,1.72c-.07-1.81-.23-5.42,1.32-7.61,0,4.82,2.4,8.89,4.35,11.53l.9-.54a17.42,17.42,0,0,1,0-10.65,21.39,21.39,0,0,0,3.25,6.46c1.86-4.91,1.84-13.27,1.54-18A16.44,16.44,0,0,1,74,83.91c2-1.07,4.21-4.83,4.82-6.75a15.26,15.26,0,0,1-.55,8.4,20.5,20.5,0,0,0,3-1.88c-.09,1.18-.76,9.95-11.82,15.15,5.44.89,13,.66,17.57-5,3.62-4.47,4.84-11.69,2.46-15.31a3.6,3.6,0,0,1-1.9,3.59c-.31-4.47.71-6.2,1.07-11Z" transform="translate(0 0)"/></svg>