<?xml version="1.0" encoding="UTF-8" standalone="no"?>
<svg width="11.2889mm" height="11.2889mm"
 viewBox="0 0 32 32"
 xmlns="http://www.w3.org/2000/svg" xmlns:xlink="http://www.w3.org/1999/xlink"  version="1.2" baseProfile="tiny">
<title>Qt SVG Document</title>
<desc>Generated with Qt</desc>
<defs>
</defs>
<g fill="none" stroke="black" stroke-width="1" fill-rule="evenodd" stroke-linecap="square" stroke-linejoin="bevel" >

<g fill="#ffff00" fill-opacity="1" stroke="none" transform="matrix(1,0,0,1,15.9219,12.7344)"
font-family="MS Shell Dlg 2" font-size="9.8" font-weight="400" font-style="normal" 
>
<path vector-effect="none" fill-rule="nonzero" d="M14.125,27.0039 C14.125,27.707 13.8965,28.2988 13.4395,28.7793 C12.9824,29.2598 12.4102,29.5 11.7227,29.5 L-11.5391,29.5 C-12.2422,29.5 -12.8281,29.2598 -13.2969,28.7793 C-13.7656,28.2988 -14,27.707 -14,27.0039 C-14,26.5586 -13.8516,26.1055 -13.5547,25.6445 L-2.04688,5.76953 C-1.58594,4.90234 -0.875,4.46875 0.0859375,4.46875 C1.23438,4.46875 2,4.98438 2.38281,6.01563 L13.6563,25.6094 C13.9688,25.9844 14.125,26.4492 14.125,27.0039 "/>
</g>

<g fill="none" stroke="#000000" stroke-opacity="1" stroke-width="1" stroke-linecap="square" stroke-linejoin="bevel" transform="matrix(1,0,0,1,0,0)"
font-family="MS Shell Dlg 2" font-size="9.8" font-weight="400" font-style="normal" 
>
</g>

<g fill="#000000" fill-opacity="1" stroke="none" transform="matrix(1,0,0,1,15.5781,12.7344)"
font-family="MS Shell Dlg 2" font-size="9.8" font-weight="400" font-style="normal" 
>
<path vector-effect="none" fill-rule="nonzero" d="M13.6094,27.0508 C13.6094,27.582 13.4316,28.0352 13.0762,28.4102 C12.7207,28.7852 12.2891,28.9727 11.7813,28.9727 L-11.4688,28.9727 C-11.9766,28.9727 -12.418,28.7852 -12.793,28.4102 C-13.168,28.0352 -13.3555,27.582 -13.3555,27.0508 C-13.3555,26.6055 -13.2383,26.2617 -13.0039,26.0195 L-1.50781,6.12109 C-1.14063,5.46484 -0.589844,5.13672 0.144531,5.13672 C0.988281,5.13672 1.57422,5.53516 1.90234,6.33203 L13.2109,25.9844 C13.4766,26.3203 13.6094,26.6758 13.6094,27.0508 M11.3125,26.6992 L0.144531,7.57422 L-11.0117,26.6992 L11.3125,26.6992 M-3.08984,18.1797 L-1.97656,18.1797 L-1.97656,18.7422 L1.15234,18.7422 L1.15234,18.1445 L2.38281,18.1445 L2.38281,18.7422 L3.71875,18.7422 L3.71875,22.2344 L4.71484,22.2344 C4.92578,22.2344 5.11133,22.2461 5.27148,22.2695 C5.43164,22.293 5.57813,22.3457 5.71094,22.4277 C5.84375,22.5098 5.97266,22.6328 6.09766,22.7969 C6.22266,22.9609 6.34766,23.1836 6.47266,23.4648 C6.56641,23.668 6.71875,23.8125 6.92969,23.8984 C7.14063,23.9844 7.35742,24.0605 7.58008,24.127 C7.80273,24.1934 8,24.2676 8.17188,24.3496 C8.34375,24.4316 8.42969,24.5664 8.42969,24.7539 C8.42969,24.9727 8.38477,25.1914 8.29492,25.4102 C8.20508,25.6289 8.06641,25.8086 7.87891,25.9492 C7.68359,26.0508 7.49805,26.123 7.32227,26.166 C7.14648,26.209 6.97656,26.2305 6.8125,26.2305 C6.55469,26.2305 6.30273,26.2031 6.05664,26.1484 C5.81055,26.0938 5.57031,26.0313 5.33594,25.9609 C5.10156,25.8906 4.87305,25.8184 4.65039,25.7441 C4.42773,25.6699 4.19922,25.6016 3.96484,25.5391 C3.87109,25.5156 3.78125,25.5039 3.69531,25.5039 L2.69922,25.5039 C2.48828,25.5039 2.2793,25.4922 2.07227,25.4688 C1.86523,25.4453 1.68555,25.3965 1.5332,25.3223 C1.38086,25.248 1.25586,25.1309 1.1582,24.9707 C1.06055,24.8105 1.01172,24.5977 1.01172,24.332 C1.04297,24.2695 1.07031,24.2012 1.09375,24.127 C1.11719,24.0527 1.16016,23.9961 1.22266,23.957 L-4.49609,23.957 L-4.49609,18.7422 L-3.08984,18.7422 L-3.08984,18.1797 M3.23828,23.6055 L3.23828,19.2109 L-4.03906,19.2109 L-4.03906,23.6055 L3.23828,23.6055 M0.425781,11.5469 C0.542969,11.7266 0.623047,11.9629 0.666016,12.2559 C0.708984,12.5488 0.730469,12.8164 0.730469,13.0586 L0.695313,13.4453 C0.796875,13.4688 0.90625,13.4961 1.02344,13.5273 C1.14063,13.5586 1.25781,13.6094 1.375,13.6797 C1.48438,13.75 1.58203,13.8438 1.66797,13.9609 C1.75391,14.0781 1.83203,14.1836 1.90234,14.2773 C2.11328,14.5352 2.24609,14.7461 2.30078,14.9102 C2.35547,15.0742 2.38281,15.2266 2.38281,15.3672 C2.38281,15.7266 2.18945,15.9883 1.80273,16.1523 C1.41602,16.3164 0.933594,16.3984 0.355469,16.3984 C0.113281,16.3984 -0.146484,16.3926 -0.423828,16.3809 C-0.701172,16.3691 -0.96875,16.3516 -1.22656,16.3281 C-1.32031,16.3281 -1.4082,16.3223 -1.49023,16.3105 C-1.57227,16.2988 -1.66406,16.293 -1.76563,16.293 C-1.71875,16.3867 -1.67578,16.4785 -1.63672,16.5684 C-1.59766,16.6582 -1.57813,16.75 -1.57813,16.8438 C-1.57813,16.9609 -1.64063,17.0781 -1.76563,17.1953 C-1.85938,17.2891 -1.96289,17.3555 -2.07617,17.3945 C-2.18945,17.4336 -2.30859,17.4531 -2.43359,17.4531 C-2.66797,17.4531 -2.88672,17.3906 -3.08984,17.2656 C-3.20703,17.2031 -3.29688,17.0996 -3.35938,16.9551 C-3.42188,16.8105 -3.45313,16.6602 -3.45313,16.5039 C-3.45313,16.3633 -3.41602,16.2402 -3.3418,16.1348 C-3.26758,16.0293 -3.14844,15.9648 -2.98438,15.9414 L-2.22266,15.9414 C-2.24609,15.8945 -2.25781,15.8203 -2.25781,15.7188 C-2.25781,15.5781 -2.17578,15.4258 -2.01172,15.2617 C-1.91016,15.1445 -1.77734,15.0859 -1.61328,15.0859 C-1.45703,15.0859 -1.32813,15.0664 -1.22656,15.0273 C-0.828125,14.8867 -0.517578,14.7227 -0.294922,14.5352 C-0.0722656,14.3477 0.0859375,14.1328 0.179688,13.8906 C0.0546875,13.8906 -0.0527344,13.873 -0.142578,13.8379 C-0.232422,13.8027 -0.308594,13.7461 -0.371094,13.668 C-0.433594,13.5898 -0.498047,13.5078 -0.564453,13.4219 C-0.630859,13.3359 -0.714844,13.2383 -0.816406,13.1289 L-0.535156,12.8359 C-0.457031,12.9375 -0.394531,13.0273 -0.347656,13.1055 C-0.300781,13.1836 -0.248047,13.248 -0.189453,13.2988 C-0.130859,13.3496 -0.0625,13.3906 0.015625,13.4219 C0.09375,13.4531 0.195313,13.4727 0.320313,13.4805 C0.359375,13.4258 0.380859,13.3477 0.384766,13.2461 C0.388672,13.1445 0.390625,13.0586 0.390625,12.9883 C0.390625,12.7773 0.361328,12.5547 0.302734,12.3203 C0.244141,12.0859 0.179688,11.8984 0.109375,11.7578 L0.425781,11.5469 M1.83203,14.8164 C1.66016,14.4336 1.46875,14.1895 1.25781,14.084 C1.04688,13.9785 0.824219,13.9141 0.589844,13.8906 C0.472656,14.2734 0.279297,14.5879 0.00976563,14.834 C-0.259766,15.0801 -0.660156,15.2695 -1.19141,15.4023 C-1.33203,15.4336 -1.46094,15.4551 -1.57813,15.4668 C-1.69531,15.4785 -1.76953,15.5039 -1.80078,15.543 C-1.89453,15.6367 -1.94141,15.7305 -1.94141,15.8242 C-1.94141,15.8555 -1.93555,15.8828 -1.92383,15.9063 C-1.91211,15.9297 -1.90625,15.9531 -1.90625,15.9766 C-1.59375,15.9766 -1.26172,15.9824 -0.910156,15.9941 C-0.558594,16.0059 -0.207031,16.0117 0.144531,16.0117 C0.347656,16.0117 0.560547,16.0059 0.783203,15.9941 C1.00586,15.9824 1.20703,15.9512 1.38672,15.9004 C1.56641,15.8496 1.71875,15.7832 1.84375,15.7012 C1.96875,15.6191 2.03125,15.5078 2.03125,15.3672 C2.03125,15.3047 2.00781,15.2148 1.96094,15.0977 C1.91406,14.9805 1.87109,14.8867 1.83203,14.8164 M-2.01172,16.9492 C-1.98047,16.9102 -1.96094,16.8672 -1.95313,16.8203 C-1.94531,16.7734 -1.94141,16.7344 -1.94141,16.7031 C-1.94141,16.5703 -1.97656,16.4336 -2.04688,16.293 L-2.76172,16.293 C-2.86328,16.293 -2.94922,16.3047 -3.01953,16.3281 C-3.08984,16.3984 -3.125,16.4805 -3.125,16.5742 C-3.125,16.7305 -3.04297,16.8555 -2.87891,16.9492 C-2.71484,17.043 -2.54297,17.0898 -2.36328,17.0898 C-2.29297,17.0898 -2.22656,17.0801 -2.16406,17.0605 C-2.10156,17.041 -2.05078,17.0039 -2.01172,16.9492 M-2.66797,21.4141 L-2.66797,20.793 L-3.27734,20.793 L-3.27734,20.5117 L-2.66797,20.5117 L-2.66797,19.9023 L-2.36328,19.9023 L-2.36328,20.5117 L-1.76563,20.5117 L-1.76563,20.793 L-2.36328,20.793 L-2.36328,21.4141 L-2.66797,21.4141 M1.15234,20.8633 L1.15234,20.582 L2.06641,20.582 L2.06641,20.8633 L1.15234,20.8633"/>
</g>

<g fill="none" stroke="#000000" stroke-opacity="1" stroke-width="1" stroke-linecap="square" stroke-linejoin="bevel" transform="matrix(1,0,0,1,0,0)"
font-family="MS Shell Dlg 2" font-size="9.8" font-weight="400" font-style="normal" 
>
</g>
</g>
</svg>
