<?xml version="1.0" encoding="UTF-8" standalone="no"?>
<svg width="11.2889mm" height="11.2889mm"
 viewBox="0 0 32 32"
 xmlns="http://www.w3.org/2000/svg" xmlns:xlink="http://www.w3.org/1999/xlink"  version="1.2" baseProfile="tiny">
<title>Qt SVG Document</title>
<desc>Generated with Qt</desc>
<defs>
</defs>
<g fill="none" stroke="black" stroke-width="1" fill-rule="evenodd" stroke-linecap="square" stroke-linejoin="bevel" >

<g fill="#ffffff" fill-opacity="1" stroke="none" transform="matrix(1,0,0,1,15.6094,12.7344)"
font-family="MS Shell Dlg 2" font-size="9.8" font-weight="400" font-style="normal" 
>
<path vector-effect="none" fill-rule="nonzero" d="M-11.5313,6.10938 L10.9453,6.10938 L10.9453,29.0195 L-11.5313,29.0195 L-11.5313,6.10938"/>
</g>

<g fill="none" stroke="#000000" stroke-opacity="1" stroke-width="1" stroke-linecap="square" stroke-linejoin="bevel" transform="matrix(1,0,0,1,0,0)"
font-family="MS Shell Dlg 2" font-size="9.8" font-weight="400" font-style="normal" 
>
</g>

<g fill="#ff0000" fill-opacity="1" stroke="none" transform="matrix(1,0,0,1,15.9297,12.7344)"
font-family="MS Shell Dlg 2" font-size="9.8" font-weight="400" font-style="normal" 
>
<path vector-effect="none" fill-rule="nonzero" d="M12.0703,5.42969 L12.0703,29.5 L-12,29.5 L-12,5.42969 L12.0703,5.42969 M-11.0508,6.36719 L-11.0508,28.5508 L11.1328,28.5508 L11.1328,6.36719 L-11.0508,6.36719"/>
</g>

<g fill="none" stroke="#000000" stroke-opacity="1" stroke-width="1" stroke-linecap="square" stroke-linejoin="bevel" transform="matrix(1,0,0,1,0,0)"
font-family="MS Shell Dlg 2" font-size="9.8" font-weight="400" font-style="normal" 
>
</g>

<g fill="#ff0000" fill-opacity="1" stroke="none" transform="matrix(1,0,0,1,10.75,12.7344)"
font-family="MS Shell Dlg 2" font-size="9.8" font-weight="400" font-style="normal" 
>
<path vector-effect="none" fill-rule="nonzero" d="M1.44141,7.03516 L1.44141,13.5742 L-0.632813,13.5742 L-0.632813,13.0703 C-0.632813,12.9063 -0.667969,12.7344 -0.738281,12.5547 L0.292969,12.5547 C0.441406,12.5547 0.515625,12.4727 0.515625,12.3086 L0.515625,8.18359 C0.515625,8.05859 0.441406,7.98438 0.292969,7.96094 L-3.96094,7.96094 C-4.08594,7.96094 -4.16016,8.03516 -4.18359,8.18359 L-4.18359,12.3086 C-4.18359,12.4727 -4.10938,12.5547 -3.96094,12.5547 L-2.69531,12.5547 C-2.77344,12.7109 -2.8125,12.8906 -2.8125,13.0938 L-2.8125,13.5742 L-5.10938,13.5742 L-5.10938,7.03516 L1.44141,7.03516 M-3.46875,10.2695 C-3.45312,9.19922 -2.91016,8.66406 -1.83984,8.66406 L-1.80469,8.66406 C-0.710938,8.67969 -0.164063,9.22656 -0.164063,10.3047 C-0.171875,11.3828 -0.71875,11.9219 -1.80469,11.9219 C-1.8125,11.9219 -1.82422,11.918 -1.83984,11.9102 C-2.93359,11.9023 -3.48047,11.375 -3.48047,10.3281 C-3.48047,10.3125 -3.47656,10.293 -3.46875,10.2695 M-2.58984,13.3398 C-2.58984,12.7539 -2.39453,12.3711 -2.00391,12.1914 L-1.44141,12.1914 C-1.05078,12.3945 -0.855469,12.7031 -0.855469,13.1172 L-0.855469,17.125 C-0.605469,16.8594 -0.316406,16.7266 0.0117188,16.7266 L0.140625,16.7266 C0.515625,16.7656 0.753906,16.9805 0.855469,17.3711 C1.09766,17.2305 1.33594,17.1602 1.57031,17.1602 C1.70312,17.1602 1.83594,17.1836 1.96875,17.2305 C2.32813,17.3555 2.53516,17.6289 2.58984,18.0508 C2.75391,17.8477 2.98828,17.7461 3.29297,17.7461 C3.38672,17.7461 3.49219,17.7539 3.60938,17.7695 C4.07031,17.8633 4.30078,18.1523 4.30078,18.6367 L4.30078,25.5156 C4.30078,25.9766 4.18555,26.2422 3.95508,26.3125 C3.72461,26.3828 3.60937,26.4844 3.60938,26.6172 C3.60937,26.75 3.72656,26.8672 3.96094,26.9688 C4.17188,27.0625 4.27734,27.1758 4.27734,27.3086 L4.27734,27.3438 C4.25391,27.5 4.14844,27.5781 3.96094,27.5781 L-2.8125,27.5781 C-2.9375,27.5781 -3.01172,27.5 -3.03516,27.3438 L-3.03516,25.5156 C-4.26172,24.2578 -4.875,23.0742 -4.875,21.9648 L-4.875,18.707 C-4.875,17.9648 -4.60938,17.5938 -4.07813,17.5938 C-3.53906,17.5938 -3.26953,17.9766 -3.26953,18.7422 L-3.26953,21.4961 C-3.26953,21.6445 -3.19141,21.7188 -3.03516,21.7188 L-2.8125,21.7188 C-2.66406,21.7188 -2.58984,21.6445 -2.58984,21.4961 L-2.58984,13.3398 M-10.2422,5.67578 L-10.2422,5.83984 L-10.4063,5.83984 L-10.4063,5.67578 L-10.2422,5.67578 M-11.1211,29.2539 L-11.1211,29.3594 L-11.2734,29.3594 L-11.2734,29.2539 L-11.1211,29.2539"/>
</g>

<g fill="none" stroke="#000000" stroke-opacity="1" stroke-width="1" stroke-linecap="square" stroke-linejoin="bevel" transform="matrix(1,0,0,1,0,0)"
font-family="MS Shell Dlg 2" font-size="9.8" font-weight="400" font-style="normal" 
>
</g>
</g>
</svg>
