<?xml version="1.0" encoding="UTF-8" standalone="no"?>
<svg width="11.2889mm" height="11.2889mm"
 viewBox="0 0 32 32"
 xmlns="http://www.w3.org/2000/svg" xmlns:xlink="http://www.w3.org/1999/xlink"  version="1.2" baseProfile="tiny">
<title>Qt SVG Document</title>
<desc>Generated with Qt</desc>
<defs>
</defs>
<g fill="none" stroke="black" stroke-width="1" fill-rule="evenodd" stroke-linecap="square" stroke-linejoin="bevel" >

<g fill="#ffffff" fill-opacity="1" stroke="none" transform="matrix(1,0,0,1,15.9531,12.7344)"
font-family="MS Shell Dlg 2" font-size="9.8" font-weight="400" font-style="normal" 
>
<path vector-effect="none" fill-rule="nonzero" d="M6.64844,11.9219 L14.7344,11.9219 C15.2031,11.9766 15.4375,12.2109 15.4375,12.625 L15.4375,16.1406 C15.4375,16.6094 15.2031,16.8438 14.7344,16.8438 L11.2188,16.8438 L11.2188,24.2266 L14.7344,24.2266 C15.2031,24.2813 15.4375,24.5156 15.4375,24.9297 L15.4375,28.7969 C15.4375,29.2656 15.2031,29.5 14.7344,29.5 L6.64844,29.5 C6.17969,29.5 5.94531,29.2656 5.94531,28.7969 L5.94531,23.1719 L-0.382813,23.1719 C-1.67187,26.4531 -4.10156,28.2109 -7.67188,28.4453 L-8.46875,28.4453 C-12.5703,28.1484 -14.9141,25.7461 -15.5,21.2383 L-15.5,20.0898 C-15.2656,15.6367 -12.6875,13.2344 -7.76563,12.8828 C-3.95313,13.0625 -1.49219,14.7344 -0.382813,17.8984 L5.94531,17.8984 L5.94531,12.625 C6.0625,12.1563 6.29688,11.9219 6.64844,11.9219 M-10.6602,20.6172 C-10.3711,22.4375 -9.40625,23.4063 -7.76563,23.5234 C-6.17969,23.1719 -5.24219,22.293 -4.95313,20.8867 L-4.95313,20.2656 C-5.30469,18.7422 -6.24219,17.8359 -7.76563,17.5469 C-9.46094,17.6641 -10.4258,18.6875 -10.6602,20.6172 "/>
</g>

<g fill="none" stroke="#000000" stroke-opacity="1" stroke-width="1" stroke-linecap="square" stroke-linejoin="bevel" transform="matrix(1,0,0,1,0,0)"
font-family="MS Shell Dlg 2" font-size="9.8" font-weight="400" font-style="normal" 
>
</g>

<g fill="#005ce6" fill-opacity="1" stroke="none" transform="matrix(1,0,0,1,15.9922,12.7344)"
font-family="MS Shell Dlg 2" font-size="9.8" font-weight="400" font-style="normal" 
>
<path vector-effect="none" fill-rule="nonzero" d="M6.64844,11.9219 L14.7344,11.9219 C15.2031,11.9766 15.4375,12.2109 15.4375,12.625 L15.4375,16.1406 C15.4375,16.6094 15.2031,16.8438 14.7344,16.8438 L11.2188,16.8438 L11.2188,24.2266 L14.7344,24.2266 C15.2031,24.2813 15.4375,24.5156 15.4375,24.9297 L15.4375,28.7969 C15.4375,29.2656 15.2031,29.5 14.7344,29.5 L6.64844,29.5 C6.17969,29.5 5.94531,29.2656 5.94531,28.7969 L5.94531,23.1719 L-0.382813,23.1719 C-1.67187,26.4531 -4.10156,28.2109 -7.67188,28.4453 L-8.46875,28.4453 C-12.5703,28.1484 -14.9141,25.7461 -15.5,21.2383 L-15.5,20.0898 C-15.2656,15.6367 -12.6875,13.2344 -7.76563,12.8828 C-3.95313,13.0625 -1.49219,14.7344 -0.382813,17.8984 L5.94531,17.8984 L5.94531,12.625 C6.0625,12.1563 6.29688,11.9219 6.64844,11.9219 M7,12.9766 L7,18.25 C7,18.7188 6.76563,18.9531 6.29688,18.9531 L-1.16797,18.9531 C-2.28516,15.8438 -4.48438,14.1719 -7.76563,13.9375 C-11.8047,14.2891 -14.0313,16.1953 -14.4453,19.6563 L-14.4453,21.0625 C-13.9141,24.9844 -11.8633,27.0938 -8.29297,27.3906 L-7.76563,27.3906 C-4.60156,27.1563 -2.375,25.3984 -1.08594,22.1172 L6.29688,22.1172 C6.76563,22.1719 7,22.4063 7,22.8203 L7,28.4453 L14.3828,28.4453 L14.3828,25.2813 L10.8672,25.2813 C10.3984,25.2813 10.1641,25.0469 10.1641,24.5781 L10.1641,16.4922 C10.2813,16.0234 10.5156,15.7891 10.8672,15.7891 L14.3828,15.7891 L14.3828,12.9766 L7,12.9766 M-7.67188,16.5742 C-5.5625,16.8086 -4.27344,18.0977 -3.80469,20.4414 L-3.80469,20.8867 C-4.21875,23.0508 -5.53906,24.25 -7.76563,24.4844 C-10.2266,24.4297 -11.543,23.1406 -11.7148,20.6172 C-11.543,18.0391 -10.1953,16.6914 -7.67188,16.5742 M-10.6602,20.6172 C-10.3711,22.4375 -9.40625,23.4063 -7.76563,23.5234 C-6.17969,23.1719 -5.24219,22.293 -4.95313,20.8867 L-4.95313,20.2656 C-5.30469,18.7422 -6.24219,17.8359 -7.76563,17.5469 C-9.46094,17.6641 -10.4258,18.6875 -10.6602,20.6172 "/>
</g>

<g fill="none" stroke="#000000" stroke-opacity="1" stroke-width="1" stroke-linecap="square" stroke-linejoin="bevel" transform="matrix(1,0,0,1,0,0)"
font-family="MS Shell Dlg 2" font-size="9.8" font-weight="400" font-style="normal" 
>
</g>
</g>
</svg>
