<?xml version="1.0" encoding="UTF-8" standalone="no"?>
<svg width="11.2889mm" height="11.2889mm"
 viewBox="0 0 32 32"
 xmlns="http://www.w3.org/2000/svg" xmlns:xlink="http://www.w3.org/1999/xlink"  version="1.2" baseProfile="tiny">
<title>Qt SVG Document</title>
<desc>Generated with Qt</desc>
<defs>
</defs>
<g fill="none" stroke="black" stroke-width="1" fill-rule="evenodd" stroke-linecap="square" stroke-linejoin="bevel" >

<g fill="#000000" fill-opacity="1" stroke="none" transform="matrix(1,0,0,1,15.9453,12.7344)"
font-family="MS Shell Dlg 2" font-size="9.8" font-weight="400" font-style="normal" 
>
<path vector-effect="none" fill-rule="nonzero" d="M-5.71094,11.3008 L-5.18359,11.3008 C-4.19141,11.3633 -3.57813,11.832 -3.34375,12.707 C-3.375,12.9727 -3.48438,13.1055 -3.67188,13.1055 C-3.77344,13.1055 -3.89844,13.0625 -4.04688,12.9766 C-4.21875,12.3906 -4.6875,12.0664 -5.45313,12.0039 C-5.97656,12.0039 -6.32813,12.1211 -6.50781,12.3555 C-6.55469,12.4492 -6.57813,12.5391 -6.57813,12.625 C-6.57813,12.8594 -6.40625,13.0625 -6.0625,13.2344 L-4.39844,13.9375 C-3.57813,14.3516 -3.16797,14.8203 -3.16797,15.3438 C-3.16797,16.3438 -3.87109,16.8711 -5.27734,16.9258 C-6.56641,16.8711 -7.35547,16.2852 -7.64453,15.168 C-7.56641,14.9336 -7.4375,14.8164 -7.25781,14.8164 C-7.16406,14.8164 -7.05859,14.8477 -6.94141,14.9102 C-6.55859,15.7305 -5.99219,16.1406 -5.24219,16.1406 L-5.10156,16.1406 C-4.45313,16.0781 -4.10156,15.8438 -4.04688,15.4375 C-4.04688,15.0859 -4.25,14.8203 -4.65625,14.6406 C-5.82813,14.1719 -6.58984,13.8477 -6.94141,13.668 C-7.24609,13.5195 -7.39844,13.1719 -7.39844,12.625 C-7.39844,12.5391 -7.39453,12.4492 -7.38672,12.3555 C-7.20703,11.7148 -6.64844,11.3633 -5.71094,11.3008 M-2.11328,11.2188 L-0.355469,15.6953 L1.49609,11.2188 L2.10547,11.4766 L0.0898438,16.5742 C0.0273438,16.6914 -0.03125,16.75 -0.0859375,16.75 L-0.613281,16.75 C-0.675781,16.75 -0.734375,16.6641 -0.789063,16.4922 L-2.81641,11.4766 L-2.11328,11.2188 M2.98438,11.3008 L3.78125,11.3008 C4.01563,11.3008 4.16016,11.3906 4.21484,11.5703 L5.26953,15.6953 L5.36328,15.6953 L6.32422,11.4766 C6.38672,11.3594 6.50391,11.3008 6.67578,11.3008 L7.55469,11.3008 C7.78906,11.3008 7.90625,11.418 7.90625,11.6523 L7.90625,16.3984 C7.90625,16.6328 7.78906,16.75 7.55469,16.75 L7.37891,16.75 C7.14453,16.75 7.02734,16.6328 7.02734,16.3984 L7.02734,12.4492 C6.26953,15.3164 5.74219,16.75 5.44531,16.75 L5.09375,16.75 C4.85938,16.75 4.33203,15.3164 3.51172,12.4492 L3.51172,16.3984 C3.51172,16.6328 3.39453,16.75 3.16016,16.75 L2.98438,16.75 C2.75,16.75 2.63281,16.6328 2.63281,16.3984 L2.63281,11.6523 C2.69531,11.418 2.8125,11.3008 2.98438,11.3008 M-16,12.625 L0.0898438,20.8867 L15.8164,12.625 L15.8164,29.5 L0.0898438,21.2383 L-16,29.5 L-16,12.625"/>
</g>

<g fill="none" stroke="#000000" stroke-opacity="1" stroke-width="1" stroke-linecap="square" stroke-linejoin="bevel" transform="matrix(1,0,0,1,0,0)"
font-family="MS Shell Dlg 2" font-size="9.8" font-weight="400" font-style="normal" 
>
</g>

<g fill="#ff0000" fill-opacity="1" stroke="none" transform="matrix(1,0,0,1,15.6094,12.7344)"
font-family="MS Shell Dlg 2" font-size="9.8" font-weight="400" font-style="normal" 
>
<path vector-effect="none" fill-rule="nonzero" d="M15.3125,13.457 L15.3125,28.5508 L0.992188,21.0742 L15.3125,13.457 M-15.5313,28.5508 L-15.5313,13.457 L-0.871094,21.0742 L-15.5313,28.5508 M-0.835938,12.2031 L-0.835938,12.2266 L-0.871094,12.2266 L-0.871094,12.2031 L-0.835938,12.2031"/>
</g>

<g fill="none" stroke="#000000" stroke-opacity="1" stroke-width="1" stroke-linecap="square" stroke-linejoin="bevel" transform="matrix(1,0,0,1,0,0)"
font-family="MS Shell Dlg 2" font-size="9.8" font-weight="400" font-style="normal" 
>
</g>
</g>
</svg>
