<?xml version="1.0" encoding="UTF-8" standalone="no"?>
<svg width="11.2889mm" height="11.2889mm"
 viewBox="0 0 32 32"
 xmlns="http://www.w3.org/2000/svg" xmlns:xlink="http://www.w3.org/1999/xlink"  version="1.2" baseProfile="tiny">
<title>Qt SVG Document</title>
<desc>Generated with Qt</desc>
<defs>
</defs>
<g fill="none" stroke="black" stroke-width="1" fill-rule="evenodd" stroke-linecap="square" stroke-linejoin="bevel" >

<g fill="#000000" fill-opacity="1" stroke="none" transform="matrix(1,0,0,1,15.9453,12.7344)"
font-family="MS Shell Dlg 2" font-size="9.8" font-weight="400" font-style="normal" 
>
<path vector-effect="none" fill-rule="nonzero" d="M-0.167969,9.09766 L0.746094,9.09766 C3.09766,9.14453 4.42578,10.6719 4.73047,13.6797 L4.73047,14.6055 C4.47266,17.4023 3.14453,18.9297 0.746094,19.1875 L-0.167969,19.1875 C-2.66016,19.0313 -3.98438,17.5039 -4.14063,14.6055 L-4.14063,13.6797 C-3.88281,10.6719 -2.55859,9.14453 -0.167969,9.09766 M-2.61719,13.6797 L-2.61719,14.6055 C-2.30469,16.6445 -1.38672,17.6641 0.136719,17.6641 L0.441406,17.6641 C2.02734,17.6641 2.94531,16.6445 3.19531,14.6055 L3.19531,13.6797 C2.94531,11.6406 2.02734,10.6211 0.441406,10.6211 L0.136719,10.6211 C-1.38672,10.6211 -2.30469,11.6406 -2.61719,13.6797 M-16,12.625 L0.0898438,20.8867 L15.8164,12.625 L15.8164,29.5 L0.0898438,21.2383 L-16,29.5 L-16,12.625"/>
</g>

<g fill="none" stroke="#000000" stroke-opacity="1" stroke-width="1" stroke-linecap="square" stroke-linejoin="bevel" transform="matrix(1,0,0,1,0,0)"
font-family="MS Shell Dlg 2" font-size="9.8" font-weight="400" font-style="normal" 
>
</g>

<g fill="#005ce6" fill-opacity="1" stroke="none" transform="matrix(1,0,0,1,15.6094,12.7344)"
font-family="MS Shell Dlg 2" font-size="9.8" font-weight="400" font-style="normal" 
>
<path vector-effect="none" fill-rule="nonzero" d="M15.3125,13.457 L15.3125,28.5508 L0.992188,21.0742 L15.3125,13.457 M-15.5313,28.5508 L-15.5313,13.457 L-0.871094,21.0742 L-15.5313,28.5508 M0.335938,9.67188 L0.335938,9.68359 L0.3125,9.68359 L0.3125,9.67188 L0.335938,9.67188"/>
</g>

<g fill="none" stroke="#000000" stroke-opacity="1" stroke-width="1" stroke-linecap="square" stroke-linejoin="bevel" transform="matrix(1,0,0,1,0,0)"
font-family="MS Shell Dlg 2" font-size="9.8" font-weight="400" font-style="normal" 
>
</g>
</g>
</svg>
