<?xml version="1.0" encoding="UTF-8" standalone="no"?>
<svg width="11.2889mm" height="11.2889mm"
 viewBox="0 0 32 32"
 xmlns="http://www.w3.org/2000/svg" xmlns:xlink="http://www.w3.org/1999/xlink"  version="1.2" baseProfile="tiny">
<title>Qt SVG Document</title>
<desc>Generated with Qt</desc>
<defs>
</defs>
<g fill="none" stroke="black" stroke-width="1" fill-rule="evenodd" stroke-linecap="square" stroke-linejoin="bevel" >

<g fill="#000000" fill-opacity="1" stroke="none" transform="matrix(1,0,0,1,15.9453,12.7344)"
font-family="MS Shell Dlg 2" font-size="9.8" font-weight="400" font-style="normal" 
>
<path vector-effect="none" fill-rule="nonzero" d="M4.89453,11.4414 C6.02734,11.4414 6.76953,11.8281 7.12109,12.6016 C7.16797,12.7188 7.19141,12.8164 7.19141,12.8945 C7.19141,13.0195 7.13672,13.0977 7.02734,13.1289 C6.97266,13.168 6.91406,13.1875 6.85156,13.1875 C6.73438,13.1875 6.61719,13.1094 6.5,12.9531 C6.32031,12.4766 5.78516,12.2109 4.89453,12.1563 C3.87891,12.1563 3.33984,12.8086 3.27734,14.1133 L3.27734,14.2891 C3.27734,15.4375 3.81641,16.125 4.89453,16.3516 C5.66797,16.3516 6.23438,16.1719 6.59375,15.8125 L6.59375,14.8398 L5.42188,14.8398 C5.1875,14.8398 5.07031,14.7227 5.07031,14.4883 C5.07031,14.2383 5.1875,14.1133 5.42188,14.1133 L6.94531,14.1133 C7.17969,14.1758 7.29688,14.3008 7.29688,14.4883 L7.29688,16 C7.29688,16.1797 7.26563,16.2695 7.20313,16.2695 C6.85156,16.8008 6.08203,17.0664 4.89453,17.0664 C3.33984,16.9492 2.53516,15.9961 2.48047,14.207 C2.59766,12.3633 3.40234,11.4414 4.89453,11.4414 M-6.36719,11.4414 L-6.19141,11.4414 C-5.95703,11.4414 -5.83984,11.5625 -5.83984,11.8047 L-5.83984,16.2695 L-3.50781,16.2695 C-3.27344,16.2695 -3.15625,16.3867 -3.15625,16.6211 C-3.15625,16.8633 -3.27344,16.9844 -3.50781,16.9844 L-6.36719,16.9844 C-6.60938,16.9844 -6.73047,16.8633 -6.73047,16.6211 L-6.73047,11.8047 C-6.66797,11.5625 -6.54688,11.4414 -6.36719,11.4414 M-2.07813,11.4414 L0.242188,11.4414 C1.3125,11.5664 1.84766,12.1016 1.84766,13.0469 C1.73047,14.2422 1.19531,14.8398 0.242188,14.8398 L-1.55078,14.8398 L-1.55078,16.6211 C-1.55078,16.8633 -1.66797,16.9844 -1.90234,16.9844 L-2.07813,16.9844 C-2.32031,16.9844 -2.44141,16.8633 -2.44141,16.6211 L-2.44141,11.8047 C-2.37891,11.5625 -2.25781,11.4414 -2.07813,11.4414 M-1.55078,12.1563 L-1.55078,14.1133 L-0.296875,14.1133 C0.367187,14.1133 0.785156,13.8789 0.957031,13.4102 L0.957031,13.2227 C0.957031,12.5117 0.601563,12.1563 -0.109375,12.1563 L-1.55078,12.1563 M-16,12.625 L0.0898438,20.8867 L15.8164,12.625 L15.8164,29.5 L0.0898438,21.2383 L-16,29.5 L-16,12.625"/>
</g>

<g fill="none" stroke="#000000" stroke-opacity="1" stroke-width="1" stroke-linecap="square" stroke-linejoin="bevel" transform="matrix(1,0,0,1,0,0)"
font-family="MS Shell Dlg 2" font-size="9.8" font-weight="400" font-style="normal" 
>
</g>

<g fill="#ffff00" fill-opacity="1" stroke="none" transform="matrix(1,0,0,1,15.6094,12.7344)"
font-family="MS Shell Dlg 2" font-size="9.8" font-weight="400" font-style="normal" 
>
<path vector-effect="none" fill-rule="nonzero" d="M15.3125,13.457 L15.3125,28.5508 L0.992188,21.0742 L15.3125,13.457 M-15.5313,28.5508 L-15.5313,13.457 L-0.871094,21.0742 L-15.5313,28.5508 M-0.835938,12.2031 L-0.835938,12.2266 L-0.871094,12.2266 L-0.871094,12.2031 L-0.835938,12.2031"/>
</g>

<g fill="none" stroke="#000000" stroke-opacity="1" stroke-width="1" stroke-linecap="square" stroke-linejoin="bevel" transform="matrix(1,0,0,1,0,0)"
font-family="MS Shell Dlg 2" font-size="9.8" font-weight="400" font-style="normal" 
>
</g>
</g>
</svg>
