<?xml version="1.0" encoding="UTF-8" standalone="no"?>
<svg width="11.2889mm" height="11.2889mm"
 viewBox="0 0 32 32"
 xmlns="http://www.w3.org/2000/svg" xmlns:xlink="http://www.w3.org/1999/xlink"  version="1.2" baseProfile="tiny">
<title>Qt SVG Document</title>
<desc>Generated with Qt</desc>
<defs>
</defs>
<g fill="none" stroke="black" stroke-width="1" fill-rule="evenodd" stroke-linecap="square" stroke-linejoin="bevel" >

<g fill="#ff0000" fill-opacity="1" stroke="none" transform="matrix(1,0,0,1,15.9688,12.7344)"
font-family="MS Shell Dlg 2" font-size="9.8" font-weight="400" font-style="normal" 
>
<path vector-effect="none" fill-rule="nonzero" d="M5.89063,13.7148 L5.89063,29.3594 C5.89063,29.4531 5.84375,29.5 5.75,29.5 L-5.37109,29.5 C-5.46484,29.5 -5.51172,29.4531 -5.51172,29.3594 L-5.5,13.7148 L5.89063,13.7148 M0.101563,5.58203 L0.101563,5.59375 L0.0898438,5.59375 L0.0898438,5.58203 L0.101563,5.58203"/>
</g>

<g fill="none" stroke="#000000" stroke-opacity="1" stroke-width="1" stroke-linecap="square" stroke-linejoin="bevel" transform="matrix(1,0,0,1,0,0)"
font-family="MS Shell Dlg 2" font-size="9.8" font-weight="400" font-style="normal" 
>
</g>

<g fill="#000000" fill-opacity="1" stroke="none" transform="matrix(1,0,0,1,15.9688,12.7344)"
font-family="MS Shell Dlg 2" font-size="9.8" font-weight="400" font-style="normal" 
>
<path vector-effect="none" fill-rule="nonzero" d="M-5.5,13.8555 L-5.5,10.5977 C-5.42188,8.35547 -4.41406,6.82031 -2.47656,5.99219 C-1.67188,5.71094 -0.8125,5.57031 0.101563,5.57031 C0.859375,5.57031 1.65234,5.66797 2.48047,5.86328 C4.66016,6.70703 5.79688,8.20703 5.89063,10.3633 L5.89063,13.8672 L-5.5,13.8555 M0.640625,29.4063 L0.640625,29.418 L0.628906,29.418 L0.628906,29.4063 L0.640625,29.4063"/>
</g>

<g fill="none" stroke="#000000" stroke-opacity="1" stroke-width="1" stroke-linecap="square" stroke-linejoin="bevel" transform="matrix(1,0,0,1,0,0)"
font-family="MS Shell Dlg 2" font-size="9.8" font-weight="400" font-style="normal" 
>
</g>

<g fill="#ffffff" fill-opacity="1" stroke="none" transform="matrix(1,0,0,1,13.7422,12.7344)"
font-family="MS Shell Dlg 2" font-size="9.8" font-weight="400" font-style="normal" 
>
<path vector-effect="none" fill-rule="nonzero" d="M0.722656,29.4414 L0.722656,29.4531 L0.710938,29.4531 L0.710938,29.4414 L0.722656,29.4414 M-1.75,7.94922 C-1.42969,7.36328 -0.796875,7.07031 0.148438,7.07031 C0.796875,7.07031 1.28906,7.15625 1.625,7.32813 C2.07031,7.47656 2.29297,8.05469 2.29297,9.0625 L2.29297,10.9023 C2.29297,11.4492 2.37891,11.8789 2.55078,12.1914 L1.37891,12.1914 L1.16797,11.7227 C0.574219,12.1367 0.0429687,12.3438 -0.425781,12.3438 C-1.47266,12.2344 -2.03125,11.7539 -2.10156,10.9023 C-2.10156,10.2695 -1.8125,9.8125 -1.23438,9.53125 C-1.03906,9.45313 -0.630859,9.35742 -0.00976563,9.24414 C0.611328,9.13086 0.96875,9.00391 1.0625,8.86328 C1.0625,8.28516 0.757813,7.99609 0.148438,7.99609 C-0.3125,7.99609 -0.640625,8.21484 -0.835938,8.65234 L-1.90234,8.35938 L-1.75,7.94922 M1.14453,9.80078 C-0.332031,10.168 -1.07031,10.5469 -1.07031,10.9375 C-1.07031,10.9531 -1.06641,10.9727 -1.05859,10.9961 C-1.02734,11.5039 -0.75,11.7578 -0.226563,11.7578 L-0.109375,11.7578 C0.671875,11.4844 1.08594,11.1094 1.13281,10.6328 L1.14453,9.80078 M0.382813,5.64063 L0.382813,5.65234 L0.371094,5.65234 L0.371094,5.64063 L0.382813,5.64063"/>
</g>

<g fill="none" stroke="#000000" stroke-opacity="1" stroke-width="1" stroke-linecap="square" stroke-linejoin="bevel" transform="matrix(1,0,0,1,0,0)"
font-family="MS Shell Dlg 2" font-size="9.8" font-weight="400" font-style="normal" 
>
</g>
</g>
</svg>
