<?xml version="1.0" encoding="UTF-8" standalone="no"?>
<svg width="11.2889mm" height="11.2889mm"
 viewBox="0 0 32 32"
 xmlns="http://www.w3.org/2000/svg" xmlns:xlink="http://www.w3.org/1999/xlink"  version="1.2" baseProfile="tiny">
<title>Qt SVG Document</title>
<desc>Generated with Qt</desc>
<defs>
</defs>
<g fill="none" stroke="black" stroke-width="1" fill-rule="evenodd" stroke-linecap="square" stroke-linejoin="bevel" >

<g fill="#ffffff" fill-opacity="1" stroke="none" transform="matrix(1,0,0,1,15.9531,12.7344)"
font-family="MS Shell Dlg 2" font-size="9.8" font-weight="400" font-style="normal" 
>
<path vector-effect="none" fill-rule="nonzero" d="M-11.6328,16.4922 L-8.11719,16.4922 L-8.11719,17.0195 L6.29688,17.0195 L6.29688,16.4922 L9.8125,16.4922 L9.8125,17.0195 C13.3906,17.0195 15.2656,18.0156 15.4375,20.0078 L15.4375,25.6328 C15.4375,27.8594 13.5625,28.9727 9.8125,28.9727 L9.8125,29.5 L6.29688,29.5 L6.29688,28.9727 L-8.11719,28.9727 L-8.11719,29.5 L-11.6328,29.5 L-11.6328,28.9727 L-15.5,28.9727 L-15.5,17.0195 L-11.6328,17.0195 L-11.6328,16.4922 M10.1641,19.6563 L10.1641,26.3359 L11.9219,26.3359 L12.9766,25.5391 L12.9766,20.4414 L11.9219,19.6563 L10.1641,19.6563"/>
</g>

<g fill="none" stroke="#000000" stroke-opacity="1" stroke-width="1" stroke-linecap="square" stroke-linejoin="bevel" transform="matrix(1,0,0,1,0,0)"
font-family="MS Shell Dlg 2" font-size="9.8" font-weight="400" font-style="normal" 
>
</g>

<g fill="#ff0000" fill-opacity="1" stroke="none" transform="matrix(1,0,0,1,15.9531,12.7344)"
font-family="MS Shell Dlg 2" font-size="9.8" font-weight="400" font-style="normal" 
>
<path vector-effect="none" fill-rule="nonzero" d="M-11.7148,19.832 L6.12109,19.832 C6.23828,19.832 6.29688,19.8906 6.29688,20.0078 L6.29688,25.9844 C6.29688,26.1563 6.23828,26.2422 6.12109,26.2422 L-11.7148,26.2422 C-11.8945,26.2422 -11.9844,26.1563 -11.9844,25.9844 L-11.9844,20.0078 C-11.9219,19.8906 -11.832,19.832 -11.7148,19.832 M-11.5391,20.2656 L-11.5391,25.8086 L5.86328,25.8086 L5.86328,20.2656 L-11.5391,20.2656 M-11.0117,17.8047 L-14.6211,17.8047 L-14.6211,28.0938 L-10.8359,28.0938 L-10.8359,28.7969 L-8.90234,28.7969 L-8.90234,28.0938 L7.17578,28.0938 L7.17578,28.7969 L9.02734,28.7969 L9.02734,28.0938 L10.1641,28.0938 C12.8672,28.0938 14.3047,27.2422 14.4766,25.5391 L14.4766,19.832 C14.0234,18.4805 12.5664,17.8047 10.1055,17.8047 L9.02734,17.8047 L9.02734,17.1953 L7,17.1953 L7,17.8047 L-8.82031,17.8047 L-8.82031,17.1953 L-11.0117,17.1953 L-11.0117,17.8047 M-11.6328,16.4922 L-8.11719,16.4922 L-8.11719,17.0195 L6.29688,17.0195 L6.29688,16.4922 L9.8125,16.4922 L9.8125,17.0195 C13.3906,17.0195 15.2656,18.0156 15.4375,20.0078 L15.4375,25.6328 C15.4375,27.8594 13.5625,28.9727 9.8125,28.9727 L9.8125,29.5 L6.29688,29.5 L6.29688,28.9727 L-8.11719,28.9727 L-8.11719,29.5 L-11.6328,29.5 L-11.6328,28.9727 L-15.5,28.9727 L-15.5,17.0195 L-11.6328,17.0195 L-11.6328,16.4922 M11.9219,19.6563 L12.9766,20.4414 L12.9766,25.5391 L11.9219,26.3359 L10.1641,26.3359 L10.1641,19.6563 L11.9219,19.6563"/>
</g>

<g fill="none" stroke="#000000" stroke-opacity="1" stroke-width="1" stroke-linecap="square" stroke-linejoin="bevel" transform="matrix(1,0,0,1,0,0)"
font-family="MS Shell Dlg 2" font-size="9.8" font-weight="400" font-style="normal" 
>
</g>

<g fill="#000000" fill-opacity="1" stroke="none" transform="matrix(1,0,0,1,15.7656,15.0469)"
font-family="MS Shell Dlg 2" font-size="9.8" font-weight="400" font-style="normal" 
>
<path vector-effect="none" fill-rule="nonzero" d="M-1.9873,3 L-1.9873,-2.01074 L-0.107422,-2.01074 C0.275391,-2.01074 0.582438,-1.96004 0.813721,-1.85864 C1.045,-1.75724 1.22616,-1.60116 1.35718,-1.39038 C1.4882,-1.17961 1.55371,-0.959147 1.55371,-0.729004 C1.55371,-0.514811 1.49561,-0.313151 1.37939,-0.124023 C1.26318,0.0651042 1.08773,0.217773 0.853027,0.333984 C1.15609,0.422852 1.38908,0.574381 1.552,0.788574 C1.71493,1.00277 1.79639,1.2557 1.79639,1.54736 C1.79639,1.78206 1.74683,2.00024 1.64771,2.2019 C1.54858,2.40356 1.42611,2.55908 1.28027,2.66846 C1.13444,2.77783 0.951579,2.86043 0.731689,2.91626 C0.5118,2.97209 0.24235,3 -0.0766602,3 L-1.9873,3 M-1.32422,0.0947266 L-0.240723,0.0947266 C0.0532226,0.0947266 0.263997,0.0753581 0.391602,0.0366211 C0.560221,-0.0135091 0.687256,-0.0966797 0.772705,-0.212891 C0.858154,-0.329102 0.900879,-0.474935 0.900879,-0.650391 C0.900879,-0.816732 0.861003,-0.963135 0.78125,-1.0896 C0.701497,-1.21606 0.587565,-1.30265 0.439453,-1.34937 C0.291341,-1.39608 0.0372721,-1.41943 -0.322754,-1.41943 L-1.32422,-1.41943 L-1.32422,0.0947266 M-1.32422,2.40869 L-0.0766602,2.40869 C0.137533,2.40869 0.287923,2.40072 0.374512,2.38477 C0.527181,2.35742 0.654785,2.31185 0.757324,2.24805 C0.859863,2.18424 0.944173,2.09139 1.01025,1.96948 C1.07633,1.84757 1.10938,1.70687 1.10938,1.54736 C1.10938,1.36051 1.06152,1.19816 0.96582,1.0603 C0.870117,0.922445 0.737386,0.825602 0.567627,0.769775 C0.397868,0.713949 0.153483,0.686035 -0.165527,0.686035 L-1.32422,0.686035 L-1.32422,2.40869"/>
</g>

<g fill="none" stroke="#000000" stroke-opacity="1" stroke-width="1" stroke-linecap="square" stroke-linejoin="bevel" transform="matrix(1,0,0,1,0,0)"
font-family="MS Shell Dlg 2" font-size="9.8" font-weight="400" font-style="normal" 
>
</g>

<g fill="#000000" fill-opacity="1" stroke="none" transform="matrix(1,0,0,1,9.76563,15.0469)"
font-family="MS Shell Dlg 2" font-size="9.8" font-weight="400" font-style="normal" 
>
<path vector-effect="none" fill-rule="nonzero" d="M-1.9873,3 L-1.9873,-2.01074 L-0.107422,-2.01074 C0.275391,-2.01074 0.582438,-1.96004 0.813721,-1.85864 C1.045,-1.75724 1.22616,-1.60116 1.35718,-1.39038 C1.4882,-1.17961 1.55371,-0.959147 1.55371,-0.729004 C1.55371,-0.514811 1.49561,-0.313151 1.37939,-0.124023 C1.26318,0.0651042 1.08773,0.217773 0.853027,0.333984 C1.15609,0.422852 1.38908,0.574381 1.552,0.788574 C1.71493,1.00277 1.79639,1.2557 1.79639,1.54736 C1.79639,1.78206 1.74683,2.00024 1.64771,2.2019 C1.54858,2.40356 1.42611,2.55908 1.28027,2.66846 C1.13444,2.77783 0.951579,2.86043 0.731689,2.91626 C0.5118,2.97209 0.24235,3 -0.0766602,3 L-1.9873,3 M-1.32422,0.0947266 L-0.240723,0.0947266 C0.0532226,0.0947266 0.263997,0.0753581 0.391602,0.0366211 C0.560221,-0.0135091 0.687256,-0.0966797 0.772705,-0.212891 C0.858154,-0.329102 0.900879,-0.474935 0.900879,-0.650391 C0.900879,-0.816732 0.861003,-0.963135 0.78125,-1.0896 C0.701497,-1.21606 0.587565,-1.30265 0.439453,-1.34937 C0.291341,-1.39608 0.0372721,-1.41943 -0.322754,-1.41943 L-1.32422,-1.41943 L-1.32422,0.0947266 M-1.32422,2.40869 L-0.0766602,2.40869 C0.137533,2.40869 0.287923,2.40072 0.374512,2.38477 C0.527181,2.35742 0.654785,2.31185 0.757324,2.24805 C0.859863,2.18424 0.944173,2.09139 1.01025,1.96948 C1.07633,1.84757 1.10938,1.70687 1.10938,1.54736 C1.10938,1.36051 1.06152,1.19816 0.96582,1.0603 C0.870117,0.922445 0.737386,0.825602 0.567627,0.769775 C0.397868,0.713949 0.153483,0.686035 -0.165527,0.686035 L-1.32422,0.686035 L-1.32422,2.40869"/>
</g>

<g fill="none" stroke="#000000" stroke-opacity="1" stroke-width="1" stroke-linecap="square" stroke-linejoin="bevel" transform="matrix(1,0,0,1,0,0)"
font-family="MS Shell Dlg 2" font-size="9.8" font-weight="400" font-style="normal" 
>
</g>
</g>
</svg>
