<?xml version="1.0" encoding="UTF-8" standalone="no"?>
<svg width="11.2889mm" height="11.2889mm"
 viewBox="0 0 32 32"
 xmlns="http://www.w3.org/2000/svg" xmlns:xlink="http://www.w3.org/1999/xlink"  version="1.2" baseProfile="tiny">
<title>Qt SVG Document</title>
<desc>Generated with Qt</desc>
<defs>
</defs>
<g fill="none" stroke="black" stroke-width="1" fill-rule="evenodd" stroke-linecap="square" stroke-linejoin="bevel" >

<g fill="#f0f0f0" fill-opacity="0" stroke="none" transform="matrix(1,0,0,1,15.9766,12.7344)"
font-family="MS Shell Dlg 2" font-size="9.8" font-weight="400" font-style="normal" 
>
<path vector-effect="none" fill-rule="nonzero" d="M-5.16406,9.84766 L4.53906,9.84766 C4.58594,9.85547 4.60938,9.87891 4.60938,9.91797 L4.60938,19.832 L10.832,19.832 C10.8789,19.8398 10.9023,19.8633 10.9023,19.9023 L10.9023,29.4297 C10.9023,29.4766 10.8789,29.5 10.832,29.5 L-10.9297,29.5 C-10.9766,29.5 -11,29.4766 -11,29.4297 L-11,19.9375 C-10.9844,19.8906 -10.9609,19.8672 -10.9297,19.8672 L-7.76563,19.8672 C-7.16406,19.8672 -6.32031,19.8555 -5.23438,19.832 L-5.23438,9.91797 C-5.21875,9.87109 -5.19531,9.84766 -5.16406,9.84766 "/>
</g>

<g fill="none" stroke="#000000" stroke-opacity="1" stroke-width="1" stroke-linecap="square" stroke-linejoin="bevel" transform="matrix(1,0,0,1,0,0)"
font-family="MS Shell Dlg 2" font-size="9.8" font-weight="400" font-style="normal" 
>
</g>

<g fill="#000000" fill-opacity="1" stroke="none" transform="matrix(1,0,0,1,15.8359,12.7344)"
font-family="MS Shell Dlg 2" font-size="9.8" font-weight="400" font-style="normal" 
>
<path vector-effect="none" fill-rule="nonzero" d="M-4.25,9.98828 L-4.10938,9.98828 C-4.0625,9.99609 -4.03906,10.0195 -4.03906,10.0586 L-4.03906,10.6914 L-2.35156,10.6914 L-2.35156,10.0586 C-2.33594,10.0117 -2.3125,9.98828 -2.28125,9.98828 L-2.14063,9.98828 C-2.09375,9.99609 -2.07031,10.0195 -2.07031,10.0586 L-2.07031,10.6914 L-0.277344,10.6914 L-0.277344,10.0586 C-0.261719,10.0117 -0.238281,9.98828 -0.207031,9.98828 L-0.0664063,9.98828 C-0.0195313,9.99609 0.00390625,10.0195 0.00390625,10.0586 L0.00390625,10.6914 L1.72656,10.6914 L1.72656,10.0586 C1.74219,10.0117 1.76563,9.98828 1.79688,9.98828 L1.9375,9.98828 C1.98438,9.99609 2.00781,10.0195 2.00781,10.0586 L2.00781,10.6914 L3.76563,10.6914 L3.76563,10.0586 C3.78125,10.0117 3.80469,9.98828 3.83594,9.98828 L3.97656,9.98828 C4.02344,9.99609 4.04688,10.0195 4.04688,10.0586 L4.04688,10.6914 L4.50391,10.6914 C4.55078,10.6992 4.57422,10.7227 4.57422,10.7617 L4.57422,10.9023 C4.57422,10.9492 4.55078,10.9727 4.50391,10.9727 L4.04688,10.9727 L4.04688,12.625 L4.50391,12.625 C4.55078,12.6328 4.57422,12.6563 4.57422,12.6953 L4.57422,12.8359 C4.57422,12.8828 4.55078,12.9063 4.50391,12.9063 L4.04688,12.9063 L4.04688,14.6641 L4.50391,14.6641 C4.55078,14.6719 4.57422,14.6953 4.57422,14.7344 L4.57422,14.875 C4.57422,14.9219 4.55078,14.9453 4.50391,14.9453 L4.04688,14.9453 L4.04688,16.7031 L4.50391,16.7031 C4.55078,16.7109 4.57422,16.7344 4.57422,16.7734 L4.57422,16.9141 C4.57422,16.9609 4.55078,16.9844 4.50391,16.9844 L4.04688,16.9844 L4.04688,18.7773 L4.50391,18.7773 C4.55078,18.7852 4.57422,18.8086 4.57422,18.8477 L4.57422,18.9883 C4.57422,19.0352 4.55078,19.0586 4.50391,19.0586 L4.04688,19.0586 L4.04688,20.6758 L5.73438,20.6758 L5.73438,20.043 C5.75,19.9961 5.77344,19.9727 5.80469,19.9727 L5.94531,19.9727 C5.99219,19.9805 6.01563,20.0039 6.01563,20.043 L6.01563,20.6758 L7.70313,20.6758 L7.70313,20.043 C7.71875,19.9961 7.74219,19.9727 7.77344,19.9727 L7.91406,19.9727 C7.96094,19.9805 7.98438,20.0039 7.98438,20.043 L7.98438,20.6758 L9.77734,20.6758 L9.77734,20.043 C9.79297,19.9961 9.81641,19.9727 9.84766,19.9727 L9.98828,19.9727 C10.0352,19.9805 10.0586,20.0039 10.0586,20.043 L10.0586,20.6758 L10.6211,20.6758 C10.668,20.6836 10.6914,20.707 10.6914,20.7461 L10.6914,20.8867 C10.6914,20.9336 10.668,20.957 10.6211,20.957 L10.0586,20.957 L10.0586,22.6797 L10.6211,22.6797 C10.668,22.6875 10.6914,22.7109 10.6914,22.75 L10.6914,22.8906 C10.6914,22.9375 10.668,22.9609 10.6211,22.9609 L10.0586,22.9609 L10.0586,24.7539 L10.6211,24.7539 C10.668,24.7617 10.6914,24.7852 10.6914,24.8242 L10.6914,24.9648 C10.6914,25.0117 10.668,25.0352 10.6211,25.0352 L10.0586,25.0352 L10.0586,26.6875 L10.6211,26.6875 C10.668,26.6953 10.6914,26.7188 10.6914,26.7578 L10.6914,26.8984 C10.6914,26.9453 10.668,26.9688 10.6211,26.9688 L10.0586,26.9688 L10.0586,28.6914 L10.6211,28.6914 C10.668,28.6992 10.6914,28.7227 10.6914,28.7617 L10.6914,28.9023 C10.6914,28.9492 10.668,28.9727 10.6211,28.9727 L10.0586,28.9727 L10.0586,29.4297 C10.0586,29.4766 10.0352,29.5 9.98828,29.5 L9.84766,29.5 C9.80078,29.5 9.77734,29.4766 9.77734,29.4297 L9.77734,28.9727 L7.98438,28.9727 L7.98438,29.4297 C7.98438,29.4766 7.96094,29.5 7.91406,29.5 L7.77344,29.5 C7.72656,29.5 7.70313,29.4766 7.70313,29.4297 L7.70313,28.9727 L6.01563,28.9727 L6.01563,29.4297 C6.01563,29.4766 5.99219,29.5 5.94531,29.5 L5.80469,29.5 C5.75781,29.5 5.73438,29.4766 5.73438,29.4297 L5.73438,28.9727 L4.04688,28.9727 L4.04688,29.4297 C4.04688,29.4766 4.02344,29.5 3.97656,29.5 L3.83594,29.5 C3.78906,29.5 3.76563,29.4766 3.76563,29.4297 L3.76563,28.9727 L2.00781,28.9727 L2.00781,29.4297 C2.00781,29.4766 1.98438,29.5 1.9375,29.5 L1.79688,29.5 C1.75,29.5 1.72656,29.4766 1.72656,29.4297 L1.72656,28.9727 L0.00390625,28.9727 L0.00390625,29.4297 C0.00390625,29.4766 -0.0195313,29.5 -0.0664063,29.5 L-0.207031,29.5 C-0.253906,29.5 -0.277344,29.4766 -0.277344,29.4297 L-0.277344,28.9727 L-2.07031,28.9727 L-2.07031,29.4297 C-2.07031,29.4766 -2.09375,29.5 -2.14063,29.5 L-2.28125,29.5 C-2.32813,29.5 -2.35156,29.4766 -2.35156,29.4297 L-2.35156,28.9727 L-4.03906,28.9727 L-4.03906,29.4297 C-4.03906,29.4766 -4.0625,29.5 -4.10938,29.5 L-4.25,29.5 C-4.29688,29.5 -4.32031,29.4766 -4.32031,29.4297 L-4.32031,28.9727 L-6.00781,28.9727 L-6.00781,29.4297 C-6.00781,29.4766 -6.03125,29.5 -6.07813,29.5 L-6.21875,29.5 C-6.26563,29.5 -6.28906,29.4766 -6.28906,29.4297 L-6.28906,28.9727 L-8.01172,28.9727 L-8.01172,29.4297 C-8.01172,29.4766 -8.03516,29.5 -8.08203,29.5 L-8.22266,29.5 C-8.26953,29.5 -8.29297,29.4766 -8.29297,29.4297 L-8.29297,28.9727 L-10.0508,28.9727 L-10.0508,29.4297 C-10.0508,29.4766 -10.0742,29.5 -10.1211,29.5 L-10.2617,29.5 C-10.3086,29.5 -10.332,29.4766 -10.332,29.4297 L-10.332,28.9727 L-10.9297,28.9727 C-10.9766,28.9727 -11,28.9492 -11,28.9023 L-11,28.7617 C-10.9844,28.7148 -10.9609,28.6914 -10.9297,28.6914 L-10.332,28.6914 L-10.332,26.9688 L-10.9297,26.9688 C-10.9766,26.9688 -11,26.9453 -11,26.8984 L-11,26.7578 C-10.9844,26.7109 -10.9609,26.6875 -10.9297,26.6875 L-10.332,26.6875 L-10.332,25.0703 L-10.9297,25.0703 C-10.9766,25.0703 -11,25.0469 -11,25 L-11,24.8594 C-10.9844,24.8125 -10.9609,24.7891 -10.9297,24.7891 L-10.332,24.7891 L-10.332,22.9609 L-10.9297,22.9609 C-10.9766,22.9609 -11,22.9375 -11,22.8906 L-11,22.75 C-10.9844,22.7031 -10.9609,22.6797 -10.9297,22.6797 L-10.332,22.6797 L-10.332,20.957 L-10.9297,20.957 C-10.9766,20.957 -11,20.9336 -11,20.8867 L-11,20.7461 C-10.9844,20.6992 -10.9609,20.6758 -10.9297,20.6758 L-10.332,20.6758 L-10.332,20.043 C-10.3164,19.9961 -10.293,19.9727 -10.2617,19.9727 L-10.1211,19.9727 C-10.0742,19.9805 -10.0508,20.0039 -10.0508,20.043 L-10.0508,20.6758 L-8.29297,20.6758 L-8.29297,20.043 C-8.27734,19.9961 -8.25391,19.9727 -8.22266,19.9727 L-8.08203,19.9727 C-8.03516,19.9805 -8.01172,20.0039 -8.01172,20.043 L-8.01172,20.6758 L-6.28906,20.6758 L-6.28906,20.043 C-6.27344,19.9961 -6.25,19.9727 -6.21875,19.9727 L-6.07813,19.9727 C-6.03125,19.9805 -6.00781,20.0039 -6.00781,20.043 L-6.00781,20.6758 L-4.32031,20.6758 L-4.32031,19.0586 L-5.09375,19.0586 C-5.14063,19.0586 -5.16406,19.0352 -5.16406,18.9883 L-5.16406,18.8477 C-5.14844,18.8008 -5.125,18.7773 -5.09375,18.7773 L-4.32031,18.7773 L-4.32031,16.9844 L-5.09375,16.9844 C-5.14063,16.9844 -5.16406,16.9609 -5.16406,16.9141 L-5.16406,16.7734 C-5.14844,16.7266 -5.125,16.7031 -5.09375,16.7031 L-4.32031,16.7031 L-4.32031,14.9453 L-5.09375,14.9453 C-5.14063,14.9453 -5.16406,14.9219 -5.16406,14.875 L-5.16406,14.7344 C-5.14844,14.6875 -5.125,14.6641 -5.09375,14.6641 L-4.32031,14.6641 L-4.32031,12.9063 L-5.09375,12.9063 C-5.14063,12.9063 -5.16406,12.8828 -5.16406,12.8359 L-5.16406,12.6953 C-5.14844,12.6484 -5.125,12.625 -5.09375,12.625 L-4.32031,12.625 L-4.32031,10.9727 L-5.05859,10.9727 C-5.08984,10.9727 -5.125,10.9375 -5.16406,10.8672 L-5.16406,10.7617 C-5.14844,10.7148 -5.125,10.6914 -5.09375,10.6914 L-4.32031,10.6914 L-4.32031,10.0586 C-4.30469,10.0117 -4.28125,9.98828 -4.25,9.98828 M-4.03906,10.9727 L-4.03906,12.625 L-2.35156,12.625 L-2.35156,10.9727 L-4.03906,10.9727 M-2.07031,10.9727 L-2.07031,12.625 L-0.277344,12.625 L-0.277344,10.9727 L-2.07031,10.9727 M0.00390625,10.9727 L0.00390625,12.625 L1.72656,12.625 L1.72656,10.9727 L0.00390625,10.9727 M2.00781,10.9727 L2.00781,12.625 L3.76563,12.625 L3.76563,10.9727 L2.00781,10.9727 M-4.03906,12.9063 L-4.03906,14.6641 L-2.35156,14.6641 L-2.35156,12.9063 L-4.03906,12.9063 M-2.07031,12.9063 L-2.07031,14.6641 L-0.277344,14.6641 L-0.277344,12.9063 L-2.07031,12.9063 M0.00390625,12.9063 L0.00390625,14.6641 L1.72656,14.6641 L1.72656,12.9063 L0.00390625,12.9063 M2.00781,12.9063 L2.00781,14.6641 L3.76563,14.6641 L3.76563,12.9063 L2.00781,12.9063 M-4.03906,14.9453 L-4.03906,16.7031 L-2.35156,16.7031 L-2.35156,14.9453 L-4.03906,14.9453 M-2.07031,14.9453 L-2.07031,16.7031 L-0.277344,16.7031 L-0.277344,14.9453 L-2.07031,14.9453 M0.00390625,14.9453 L0.00390625,16.7031 L1.72656,16.7031 L1.72656,14.9453 L0.00390625,14.9453 M2.00781,14.9453 L2.00781,16.7031 L3.76563,16.7031 L3.76563,14.9453 L2.00781,14.9453 M-4.03906,16.9844 L-4.03906,18.7773 L-2.35156,18.7773 L-2.35156,16.9844 L-4.03906,16.9844 M-2.07031,16.9844 L-2.07031,18.7773 L-0.277344,18.7773 L-0.277344,16.9844 L-2.07031,16.9844 M0.00390625,16.9844 L0.00390625,18.7773 L1.72656,18.7773 L1.72656,16.9844 L0.00390625,16.9844 M2.00781,16.9844 L2.00781,18.7773 L3.76563,18.7773 L3.76563,16.9844 L2.00781,16.9844 M-4.03906,19.0586 L-4.03906,20.6758 L-2.35156,20.6758 L-2.35156,19.0586 L-4.03906,19.0586 M-2.07031,19.0586 L-2.07031,20.6758 L-0.277344,20.6758 L-0.277344,19.0586 L-2.07031,19.0586 M0.00390625,19.0586 L0.00390625,20.6758 L1.72656,20.6758 L1.72656,19.0586 L0.00390625,19.0586 M2.00781,19.0586 L2.00781,20.6758 L3.76563,20.6758 L3.76563,19.0586 L2.00781,19.0586 M-10.0508,20.957 L-10.0508,22.6797 L-8.29297,22.6797 L-8.29297,20.957 L-10.0508,20.957 M-8.01172,20.957 L-8.01172,22.6797 L-6.28906,22.6797 L-6.28906,20.957 L-8.01172,20.957 M-6.00781,20.957 L-6.00781,22.6797 L-4.32031,22.6797 L-4.32031,20.957 L-6.00781,20.957 M-4.03906,20.957 L-4.03906,22.6797 L-2.35156,22.6797 L-2.35156,20.957 L-4.03906,20.957 M-2.07031,20.957 L-2.07031,22.6797 L-0.277344,22.6797 L-0.277344,20.957 L-2.07031,20.957 M0.00390625,20.957 L0.00390625,22.6797 L1.72656,22.6797 L1.72656,20.957 L0.00390625,20.957 M2.00781,20.957 L2.00781,22.6797 L3.76563,22.6797 L3.76563,20.957 L2.00781,20.957 M4.04688,20.957 L4.04688,22.6797 L5.73438,22.6797 L5.73438,20.957 L4.04688,20.957 M6.01563,20.957 L6.01563,22.6797 L7.70313,22.6797 L7.70313,20.957 L6.01563,20.957 M7.98438,20.957 L7.98438,22.6797 L9.77734,22.6797 L9.77734,20.957 L7.98438,20.957 M-10.0508,22.9609 L-10.0508,24.7891 L-8.29297,24.7891 L-8.29297,22.9609 L-10.0508,22.9609 M-8.01172,22.9609 L-8.01172,24.7891 L-6.28906,24.7891 L-6.28906,22.9609 L-8.01172,22.9609 M-6.00781,22.9609 L-6.00781,24.7891 L-4.32031,24.7891 L-4.32031,22.9609 L-6.00781,22.9609 M-4.03906,22.9609 L-4.03906,24.7891 L-2.35156,24.7891 L-2.35156,22.9609 L-4.03906,22.9609 M-2.07031,22.9609 L-2.07031,24.7891 L-0.277344,24.7891 L-0.277344,22.9609 L-2.07031,22.9609 M0.00390625,22.9609 L0.00390625,24.7891 C0.472656,24.7656 0.824219,24.7539 1.05859,24.7539 L1.72656,24.7539 L1.72656,22.9609 L0.00390625,22.9609 M2.00781,22.9609 L2.00781,24.7539 L3.76563,24.7539 L3.76563,22.9609 L2.00781,22.9609 M4.04688,22.9609 L4.04688,24.7539 L5.73438,24.7539 L5.73438,22.9609 L4.04688,22.9609 M6.01563,22.9609 L6.01563,24.7539 L7.70313,24.7539 L7.70313,22.9609 L6.01563,22.9609 M7.98438,22.9609 L7.98438,24.7539 L9.77734,24.7539 L9.77734,22.9609 L7.98438,22.9609 M0.00390625,25.0703 L0.00390625,26.6875 L1.72656,26.6875 L1.72656,25.0352 L1.05859,25.0352 C0.824219,25.0352 0.472656,25.0469 0.00390625,25.0703 M2.00781,25.0352 L2.00781,26.6875 L3.76563,26.6875 L3.76563,25.0352 L2.00781,25.0352 M4.04688,25.0352 L4.04688,26.6875 L5.73438,26.6875 L5.73438,25.0352 L4.04688,25.0352 M6.01563,25.0352 L6.01563,26.6875 L7.70313,26.6875 L7.70313,25.0352 L6.01563,25.0352 M7.98438,25.0352 L7.98438,26.6875 L9.77734,26.6875 L9.77734,25.0352 L7.98438,25.0352 M-10.0508,25.0703 L-10.0508,26.6875 L-8.29297,26.6875 L-8.29297,25.0703 L-10.0508,25.0703 M-8.01172,25.0703 L-8.01172,26.6875 L-6.28906,26.6875 L-6.28906,25.0703 L-8.01172,25.0703 M-6.00781,25.0703 L-6.00781,26.6875 L-4.32031,26.6875 L-4.32031,25.0703 L-6.00781,25.0703 M-4.03906,25.0703 L-4.03906,26.6875 L-2.35156,26.6875 L-2.35156,25.0703 L-4.03906,25.0703 M-2.07031,25.0703 L-2.07031,26.6875 L-0.277344,26.6875 L-0.277344,25.0703 L-2.07031,25.0703 M-10.0508,26.9688 L-10.0508,28.6914 L-8.29297,28.6914 L-8.29297,26.9688 L-10.0508,26.9688 M-8.01172,26.9688 L-8.01172,28.6914 L-6.28906,28.6914 L-6.28906,26.9688 L-8.01172,26.9688 M-6.00781,26.9688 L-6.00781,28.6914 L-4.32031,28.6914 L-4.32031,26.9688 L-6.00781,26.9688 M-4.03906,26.9688 L-4.03906,28.6914 L-2.35156,28.6914 L-2.35156,26.9688 L-4.03906,26.9688 M-2.07031,26.9688 L-2.07031,28.6914 L-0.277344,28.6914 L-0.277344,26.9688 L-2.07031,26.9688 M0.00390625,26.9688 L0.00390625,28.6914 L1.72656,28.6914 L1.72656,26.9688 L0.00390625,26.9688 M2.00781,26.9688 L2.00781,28.6914 L3.76563,28.6914 L3.76563,26.9688 L2.00781,26.9688 M4.04688,26.9688 L4.04688,28.6914 L5.73438,28.6914 L5.73438,26.9688 L4.04688,26.9688 M6.01563,26.9688 L6.01563,28.6914 L7.70313,28.6914 L7.70313,26.9688 L6.01563,26.9688 M7.98438,26.9688 L7.98438,28.6914 L9.77734,28.6914 L9.77734,26.9688 L7.98438,26.9688"/>
</g>

<g fill="none" stroke="#000000" stroke-opacity="1" stroke-width="1" stroke-linecap="square" stroke-linejoin="bevel" transform="matrix(1,0,0,1,0,0)"
font-family="MS Shell Dlg 2" font-size="9.8" font-weight="400" font-style="normal" 
>
</g>
</g>
</svg>
