<?xml version="1.0" encoding="UTF-8" standalone="no"?>
<svg width="11.2889mm" height="11.2889mm"
 viewBox="0 0 32 32"
 xmlns="http://www.w3.org/2000/svg" xmlns:xlink="http://www.w3.org/1999/xlink"  version="1.2" baseProfile="tiny">
<title>Qt SVG Document</title>
<desc>Generated with Qt</desc>
<defs>
</defs>
<g fill="none" stroke="black" stroke-width="1" fill-rule="evenodd" stroke-linecap="square" stroke-linejoin="bevel" >

<g fill="#ffffff" fill-opacity="1" stroke="none" transform="matrix(1,0,0,1,15.5703,12.7344)"
font-family="MS Shell Dlg 2" font-size="9.8" font-weight="400" font-style="normal" 
>
<path vector-effect="none" fill-rule="nonzero" d="M13.1875,6.49609 L13.1875,29.2656 L-13.7656,29.2656 L-13.7656,6.49609 L13.1875,6.49609"/>
</g>

<g fill="none" stroke="#000000" stroke-opacity="1" stroke-width="1" stroke-linecap="square" stroke-linejoin="bevel" transform="matrix(1,0,0,1,0,0)"
font-family="MS Shell Dlg 2" font-size="9.8" font-weight="400" font-style="normal" 
>
</g>

<g fill="#005ce6" fill-opacity="1" stroke="none" transform="matrix(1,0,0,1,15.9063,12.7344)"
font-family="MS Shell Dlg 2" font-size="9.8" font-weight="400" font-style="normal" 
>
<path vector-effect="none" fill-rule="nonzero" d="M-14,6.29688 L13.6914,6.29688 L13.6914,29.5 L-14,29.5 L-14,6.29688 M-13.2969,6.90625 L-13.2969,27.8242 L-8.98438,20.793 L-6.08984,20.793 L1.5625,13.1523 L3.49609,15.168 L-4.23828,22.9023 L-5.5625,21.8477 L-5.5625,27.3906 C-4.79688,27.1563 -4.22266,27.0391 -3.83984,27.0391 C-3.46484,27.0391 -3.08594,27.1992 -2.70313,27.5195 C-2.5,27.6836 -2.32422,27.7656 -2.17578,27.7656 C-2.03516,27.7656 -1.91797,27.6953 -1.82422,27.5547 C-1.62109,27.2656 -1.19531,27.0625 -0.546875,26.9453 C-0.367188,26.9141 -0.199219,26.8984 -0.0429688,26.8984 C0.347656,26.8984 0.648438,27 0.859375,27.2031 C1.14844,27.5 1.33984,27.6484 1.43359,27.6484 C1.51953,27.6484 1.66406,27.5469 1.86719,27.3438 C2.07031,27.1406 2.53906,26.9922 3.27344,26.8984 C3.40625,26.8828 3.53125,26.875 3.64844,26.875 C4.20313,26.875 4.64844,27.0469 4.98438,27.3906 L4.98438,20.793 L8.14844,20.793 L12.8945,27.918 L12.8945,6.90625 L-13.2969,6.90625 M-5.0293,27.5664 C-5.32227,27.6836 -5.48438,27.8594 -5.51563,28.0938 L-5.51563,28.1289 C-5.51563,28.2305 -5.44922,28.2813 -5.31641,28.2813 C-5.18359,28.2813 -4.98438,28.2305 -4.71875,28.1289 C-4.46094,28.0352 -4.21875,27.9883 -3.99219,27.9883 C-3.72656,27.9883 -3.48438,28.0508 -3.26563,28.1758 C-3.01563,28.3242 -2.83594,28.3984 -2.72656,28.3984 C-2.66406,28.3984 -2.625,28.3672 -2.60938,28.3047 L-2.60938,28.2578 C-2.60938,28.125 -2.71484,27.9531 -2.92578,27.7422 C-3.16016,27.5078 -3.49609,27.3906 -3.93359,27.3906 C-4.37109,27.3906 -4.73633,27.4492 -5.0293,27.5664 M-1.64844,28.0938 L-1.64844,28.1406 C-1.64844,28.25 -1.58984,28.3047 -1.47266,28.3047 C-1.38672,28.3047 -1.26953,28.2773 -1.12109,28.2227 C-0.738281,28.0742 -0.398437,28 -0.101563,28 C0.1875,28 0.507813,28.0859 0.859375,28.2578 C1,28.3359 1.10156,28.375 1.16406,28.375 C1.22656,28.375 1.25781,28.3477 1.25781,28.293 C1.25781,28.2539 1.24219,28.1992 1.21094,28.1289 C1.09375,27.8711 0.84375,27.6367 0.460938,27.4258 C0.273438,27.3242 0.0664062,27.2734 -0.160156,27.2734 C-0.378906,27.2734 -0.609375,27.3242 -0.851563,27.4258 C-1.35156,27.6367 -1.61719,27.8594 -1.64844,28.0938 M2.5293,27.5664 C2.23633,27.6836 2.03125,27.8594 1.91406,28.0938 C1.89844,28.1328 1.89063,28.168 1.89063,28.1992 C1.89063,28.2617 1.94531,28.293 2.05469,28.293 C2.17969,28.293 2.36719,28.2539 2.61719,28.1758 C2.91406,28.0898 3.19141,28.0469 3.44922,28.0469 C3.71484,28.0469 3.96484,28.0898 4.19922,28.1758 C4.45703,28.2773 4.64063,28.3281 4.75,28.3281 C4.85156,28.3281 4.90234,28.293 4.90234,28.2227 C4.90234,28.0742 4.82813,27.8984 4.67969,27.6953 C4.53125,27.4922 4.21094,27.3906 3.71875,27.3906 C3.21875,27.3906 2.82227,27.4492 2.5293,27.5664 M-4.58984,28.3984 C-4.94141,28.4844 -5.20703,28.6758 -5.38672,28.9727 L-2.83203,28.9727 C-2.89453,28.6758 -3.11328,28.4844 -3.48828,28.3984 C-3.68359,28.3516 -3.87109,28.3281 -4.05078,28.3281 C-4.23047,28.3281 -4.41016,28.3516 -4.58984,28.3984 M-0.816406,28.3984 C-1.16797,28.4844 -1.42969,28.6758 -1.60156,28.9727 L0.941406,28.9727 C0.886719,28.6758 0.667969,28.4844 0.285156,28.3984 C0.0976563,28.3516 -0.0898438,28.3281 -0.277344,28.3281 C-0.457031,28.3281 -0.636719,28.3516 -0.816406,28.3984 M2.875,28.3984 C2.52344,28.4844 2.28906,28.6758 2.17188,28.9727 L4.72656,28.9727 C4.60938,28.6758 4.35938,28.4844 3.97656,28.3984 C3.78906,28.3516 3.60156,28.3281 3.41406,28.3281 C3.23438,28.3281 3.05469,28.3516 2.875,28.3984 "/>
</g>

<g fill="none" stroke="#000000" stroke-opacity="1" stroke-width="1" stroke-linecap="square" stroke-linejoin="bevel" transform="matrix(1,0,0,1,0,0)"
font-family="MS Shell Dlg 2" font-size="9.8" font-weight="400" font-style="normal" 
>
</g>
</g>
</svg>
