<?xml version="1.0" encoding="UTF-8" standalone="no"?>
<svg width="11.2889mm" height="11.2889mm"
 viewBox="0 0 32 32"
 xmlns="http://www.w3.org/2000/svg" xmlns:xlink="http://www.w3.org/1999/xlink"  version="1.2" baseProfile="tiny">
<title>Qt SVG Document</title>
<desc>Generated with Qt</desc>
<defs>
</defs>
<g fill="none" stroke="black" stroke-width="1" fill-rule="evenodd" stroke-linecap="square" stroke-linejoin="bevel" >

<g fill="#ffff00" fill-opacity="1" stroke="none" transform="matrix(1,0,0,1,15.4375,12.7344)"
font-family="MS Shell Dlg 2" font-size="9.8" font-weight="400" font-style="normal" 
>
<path vector-effect="none" fill-rule="nonzero" d="M-0.195313,5.93359 L-0.113281,5.93359 C0.0585937,6.04297 2.37109,9.99219 6.82422,17.7813 L13.1641,28.7266 L13.1641,28.8906 L-13.1445,28.8906 L-13.3086,28.8086 C-4.73828,13.8867 -0.367188,6.26172 -0.195313,5.93359 "/>
</g>

<g fill="none" stroke="#000000" stroke-opacity="1" stroke-width="1" stroke-linecap="square" stroke-linejoin="bevel" transform="matrix(1,0,0,1,0,0)"
font-family="MS Shell Dlg 2" font-size="9.8" font-weight="400" font-style="normal" 
>
</g>

<g fill="#000000" fill-opacity="1" stroke="none" transform="matrix(1,0,0,1,15.9063,12.7344)"
font-family="MS Shell Dlg 2" font-size="9.8" font-weight="400" font-style="normal" 
>
<path vector-effect="none" fill-rule="nonzero" d="M-1.51953,18.5078 C-1.31641,18.4766 -1.13672,18.4609 -0.980469,18.4609 C-0.503906,18.4609 -0.242188,18.5938 -0.195313,18.8594 L-0.195313,18.9414 C-0.195313,19.3008 -0.546875,19.5078 -1.25,19.5625 L-4.41406,20.0078 L-4.68359,20.2656 L-4.76563,20.2656 L-4.94141,18.6836 L-4.85938,18.6836 L-4.58984,18.8594 L-1.51953,18.5078 M5.60547,21.1445 C5.37109,21.9102 5.01953,22.293 4.55078,22.293 L4.375,22.293 C4.84375,22.1133 5.25391,21.7305 5.60547,21.1445 M6.30859,21.4141 C5.89453,22.2344 5.27734,22.7305 4.45703,22.9023 L4.28125,22.9023 C4.92969,22.668 5.60547,22.1719 6.30859,21.4141 M2.44141,20.793 C2.73047,21.3789 3.05078,21.8477 3.40234,22.1992 L3.32031,22.1992 C2.90625,22.082 2.61328,21.6133 2.44141,20.793 M1.46875,21.0625 C2,21.7656 2.55859,22.293 3.14453,22.6445 L3.05078,22.6445 C2.41016,22.5273 1.88281,22 1.46875,21.0625 M3.75391,22.7266 C3.75391,22.8438 3.72656,22.9023 3.67188,22.9023 C3.55469,22.9023 3.49609,22.875 3.49609,22.8203 C3.49609,22.7031 3.52344,22.6445 3.57813,22.6445 C3.69531,22.6445 3.75391,22.6719 3.75391,22.7266 M4.19922,22.1172 C4.19922,22.2344 4.16797,22.293 4.10547,22.293 C3.98828,22.293 3.92969,22.2617 3.92969,22.1992 C3.92969,22.082 3.96094,22.0234 4.02344,22.0234 C4.14063,22.0234 4.19922,22.0547 4.19922,22.1172 M4.375,21.0625 C4.375,21.1797 4.34375,21.2383 4.28125,21.2383 C4.16406,21.2383 4.10547,21.207 4.10547,21.1445 C4.10547,21.0273 4.13672,20.9688 4.19922,20.9688 C4.31641,20.9688 4.375,21 4.375,21.0625 M5.07813,20.4414 C5.07813,20.5586 5.04688,20.6172 4.98438,20.6172 C4.86719,20.6172 4.80859,20.5898 4.80859,20.5352 C4.80859,20.418 4.83984,20.3594 4.90234,20.3594 C5.01953,20.3594 5.07813,20.3867 5.07813,20.4414 M1.29297,18.5078 L4.375,18.8594 L4.63281,18.6836 L4.72656,18.6836 L4.55078,20.2656 L4.45703,20.2656 L4.19922,20.0078 L1.03516,19.5625 C0.324219,19.5156 -0.03125,19.3125 -0.03125,18.9531 C-0.03125,18.9219 -0.0273438,18.8906 -0.0195313,18.8594 C0.0195312,18.5938 0.277344,18.4609 0.753906,18.4609 C0.910156,18.4609 1.08984,18.4766 1.29297,18.5078 M-3.88672,22.6445 C-3.88672,22.7617 -3.91797,22.8203 -3.98047,22.8203 C-4.09766,22.8203 -4.15625,22.7891 -4.15625,22.7266 C-4.15625,22.6094 -4.125,22.5508 -4.0625,22.5508 C-3.94531,22.5508 -3.88672,22.582 -3.88672,22.6445 M-4.58984,22.1172 C-4.58984,22.2344 -4.62109,22.293 -4.68359,22.293 C-4.80078,22.293 -4.85938,22.2617 -4.85938,22.1992 C-4.85938,22.082 -4.82813,22.0234 -4.76563,22.0234 C-4.64844,22.0234 -4.58984,22.0547 -4.58984,22.1172 M-4.33203,21.3203 C-4.33203,21.4375 -4.35938,21.4961 -4.41406,21.4961 C-4.53125,21.4961 -4.58984,21.4688 -4.58984,21.4141 C-4.58984,21.2969 -4.5625,21.2383 -4.50781,21.2383 C-4.39063,21.2383 -4.33203,21.2656 -4.33203,21.3203 M-0.289063,24.5781 C-0.171875,24.5781 -0.113281,24.6367 -0.113281,24.7539 L-0.113281,26.1602 C-0.113281,26.2773 -0.171875,26.3359 -0.289063,26.3359 L-8.02344,26.3359 C-8.14063,26.3359 -8.19922,26.2773 -8.19922,26.1602 L-8.19922,24.7539 C-8.19922,24.6367 -8.14063,24.5781 -8.02344,24.5781 L-4.85938,24.5781 L-4.85938,24.9297 C-4.85938,25.4531 -4.65234,25.7148 -4.23828,25.7148 C-3.76953,25.7148 -3.53516,25.4805 -3.53516,25.0117 L-3.53516,24.6602 L-0.289063,24.5781 M-6.52344,22.7266 C-6,23.4297 -5.44531,23.957 -4.85938,24.3086 L-4.94141,24.3086 C-5.58984,24.1914 -6.11719,23.6641 -6.52344,22.7266 M-1.51953,22.8203 C-1.92578,23.6406 -2.53906,24.1367 -3.35938,24.3086 L-3.53516,24.3086 C-2.89453,24.0742 -2.22266,23.5781 -1.51953,22.8203 M-2.48047,22.6445 C-2.71484,23.4023 -3.06641,23.7813 -3.53516,23.7813 L-3.71094,23.7813 C-3.24219,23.6094 -2.83203,23.2305 -2.48047,22.6445 M-5.64453,22.4688 C-5.35547,23.0547 -5.03516,23.5234 -4.68359,23.875 L-4.76563,23.875 C-5.17969,23.7578 -5.47266,23.2891 -5.64453,22.4688 M-3.27734,22.9023 C-3.27734,23.1992 -3.42188,23.4063 -3.71094,23.5234 L-3.80469,23.5234 C-3.57031,23.3438 -3.39453,23.1367 -3.27734,22.9023 M-4.76563,22.8203 C-4.71094,23.0547 -4.59375,23.3164 -4.41406,23.6055 L-4.50781,23.5234 C-4.67969,23.4063 -4.76563,23.1719 -4.76563,22.8203 M0.414063,25.8906 C0.414063,25.6016 0.621094,25.457 1.03516,25.457 C0.621094,25.3398 0.414063,25.1914 0.414063,25.0117 C0.414063,24.7773 0.621094,24.6602 1.03516,24.6602 C0.730469,24.6133 0.578125,24.5 0.578125,24.3203 C0.578125,24.2891 0.582031,24.2578 0.589844,24.2266 C0.636719,24.0391 0.839844,23.9453 1.19922,23.9453 C1.27734,23.9453 1.36719,23.9492 1.46875,23.957 L2.79297,23.957 L2.79297,23.875 C1.79297,23.875 1.26563,23.6094 1.21094,23.0781 C1.25,22.8125 1.45703,22.6797 1.83203,22.6797 C1.95703,22.6797 2.10156,22.6953 2.26563,22.7266 C2.74219,22.7813 2.98047,22.9102 2.98047,23.1133 C2.98047,23.1289 2.97656,23.1484 2.96875,23.1719 C3.14063,23.1719 3.22656,23.2891 3.22656,23.5234 C3.28906,23.6172 3.36719,23.6641 3.46094,23.6641 C3.53125,23.6641 3.61719,23.6289 3.71875,23.5586 C3.82813,23.4805 3.96094,23.4414 4.11719,23.4414 C4.25,23.4414 4.39453,23.4688 4.55078,23.5234 C4.90234,23.5781 5.28125,23.7227 5.6875,23.957 L6.03906,23.957 L6.91797,23.875 C7.21484,24.3984 7.36328,24.8086 7.36328,25.1055 L7.36328,25.6328 C7.30078,26.3359 7.09375,26.6875 6.74219,26.6875 C6.50781,26.6875 6.12891,26.6563 5.60547,26.5938 C4.90234,26.6563 4.25781,26.7734 3.67188,26.9453 L1.11719,26.9453 C0.828125,26.9375 0.683594,26.8203 0.683594,26.5938 L0.683594,26.582 C0.683594,26.4102 0.804688,26.3125 1.04688,26.2891 L0.988281,26.2891 C0.621094,26.2891 0.429688,26.1563 0.414063,25.8906 M-4.85938,20.793 C-4.85938,20.9102 -4.88672,20.9688 -4.94141,20.9688 C-5.05859,20.9688 -5.11719,20.9414 -5.11719,20.8867 C-5.11719,20.7695 -5.08984,20.7109 -5.03516,20.7109 C-4.91797,20.7109 -4.85938,20.7383 -4.85938,20.793 M-10.3906,27.2969 L10.1758,27.2969 L10.1758,27.2148 L-0.0195313,9.46094 C-0.253906,9.63281 -2.74609,13.9375 -7.49609,22.375 C-7.55078,22.375 -8.51563,24.0156 -10.3906,27.2969 M-0.195313,5.32422 L-0.113281,5.32422 C0.0664062,5.44141 2.5,9.60156 7.1875,17.8047 L13.8672,29.3242 L13.8672,29.5 L-13.8242,29.5 L-14,29.4063 C-4.97656,13.7031 -0.375,5.67578 -0.195313,5.32422 "/>
</g>

<g fill="none" stroke="#000000" stroke-opacity="1" stroke-width="1" stroke-linecap="square" stroke-linejoin="bevel" transform="matrix(1,0,0,1,0,0)"
font-family="MS Shell Dlg 2" font-size="9.8" font-weight="400" font-style="normal" 
>
</g>
</g>
</svg>
