<?xml version="1.0" encoding="UTF-8" standalone="no"?>
<svg width="11.2889mm" height="11.2889mm"
 viewBox="0 0 32 32"
 xmlns="http://www.w3.org/2000/svg" xmlns:xlink="http://www.w3.org/1999/xlink"  version="1.2" baseProfile="tiny">
<title>Qt SVG Document</title>
<desc>Generated with Qt</desc>
<defs>
</defs>
<g fill="none" stroke="black" stroke-width="1" fill-rule="evenodd" stroke-linecap="square" stroke-linejoin="bevel" >

<g fill="#005ce6" fill-opacity="1" stroke="none" transform="matrix(1,0,0,1,16,15.9297)"
font-family="MS Shell Dlg 2" font-size="9.8" font-weight="400" font-style="normal" 
>
<path vector-effect="none" fill-rule="nonzero" d="M7.9,0.8 C7.9,-0.0799996 7.59933,-1.29733 6.998,-2.852 L5.414,-1.224 C4.798,-2.368 4.27733,-3.12333 3.852,-3.49 C3.47067,-3.73933 3.137,-3.94833 2.851,-4.117 C2.565,-4.28567 2.32667,-4.414 2.136,-4.502 L3.72,-6.064 C2.37067,-6.60667 1.20467,-6.878 0.222,-6.878 C-1.186,-6.878 -2.374,-6.592 -3.342,-6.02 L-1.824,-4.502 C-2.14667,-4.31133 -2.46933,-4.106 -2.792,-3.886 C-3.11467,-3.666 -3.44467,-3.41667 -3.782,-3.138 C-4.662,-2.39 -5.102,-1.752 -5.102,-1.224 L-6.62,-2.698 C-7.17733,-1.27533 -7.456,-0.109333 -7.456,0.8 C-7.456,1.73867 -7.17733,2.89733 -6.62,4.276 L-5.102,2.692 C-4.42733,3.95333 -3.81867,4.782 -3.276,5.178 C-3.24667,5.20733 -3.155,5.25867 -3.001,5.332 C-2.847,5.40533 -2.64533,5.508 -2.396,5.64 C-2.01467,5.816 -1.824,5.94067 -1.824,6.014 L-3.386,7.598 C-1.87533,8.19933 -0.672666,8.5 0.222,8.5 C1.61533,8.5 2.796,8.214 3.764,7.642 L2.136,5.97 C2.47333,5.80867 2.807,5.61433 3.137,5.387 C3.467,5.15967 3.80067,4.89933 4.138,4.606 C4.98867,3.858 5.414,3.22 5.414,2.692 L7.086,4.32 C7.62867,2.92667 7.9,1.75333 7.9,0.8 M4.776,0.712 C4.776,2.01733 4.32867,3.11733 3.434,4.012 C2.554,4.892 1.46133,5.332 0.156,5.332 C-1.13467,5.332 -2.22,4.892 -3.1,4.012 C-3.98,3.14667 -4.42,2.04667 -4.42,0.712 C-4.42,-0.578667 -3.98,-1.65667 -3.1,-2.522 C-2.23467,-3.38733 -1.14933,-3.82 0.156,-3.82 C1.476,-3.82 2.56867,-3.39467 3.434,-2.544 C4.32867,-1.67867 4.776,-0.593334 4.776,0.712 "/>
</g>

<g fill="none" stroke="#000000" stroke-opacity="1" stroke-width="1" stroke-linecap="square" stroke-linejoin="bevel" transform="matrix(1,0,0,1,0,0)"
font-family="MS Shell Dlg 2" font-size="9.8" font-weight="400" font-style="normal" 
>
</g>

<g fill="#ffffff" fill-opacity="0" stroke="#000000" stroke-opacity="1" stroke-width="0.5" stroke-linecap="square" stroke-linejoin="miter" stroke-miterlimit="2" transform="matrix(1,0,0,1,0,0)"
font-family="MS Shell Dlg 2" font-size="9.8" font-weight="400" font-style="normal" 
>
<path vector-effect="none" fill-rule="evenodd" d="M7.91368,7.91368 L24.0863,7.91368 L24.0863,24.0863 L7.91368,24.0863 L7.91368,7.91368"/>
</g>

<g fill="#000000" fill-opacity="1" stroke="none" transform="matrix(1,0,0,1,15.9219,14.625)"
font-family="MS Shell Dlg 2" font-size="9.8" font-weight="400" font-style="normal" 
>
<path vector-effect="none" fill-rule="nonzero" d="M-2.71387,4.5 L-2.71387,-2.6582 L0.459961,-2.6582 C1.09798,-2.6582 1.58301,-2.59391 1.91504,-2.46533 C2.24707,-2.33675 2.51237,-2.1097 2.71094,-1.78418 C2.9095,-1.45866 3.00879,-1.09896 3.00879,-0.705078 C3.00879,-0.197266 2.8444,0.230794 2.51563,0.579102 C2.18685,0.927409 1.67904,1.14876 0.992188,1.24316 C1.24284,1.36361 1.43327,1.48242 1.56348,1.59961 C1.84017,1.85352 2.10221,2.1709 2.34961,2.55176 L3.59473,4.5 L2.40332,4.5 L1.45605,3.01074 C1.17936,2.58105 0.951497,2.25228 0.772461,2.02441 C0.593424,1.79655 0.433105,1.63704 0.291504,1.5459 C0.149902,1.45475 0.00585937,1.39128 -0.140625,1.35547 C-0.248047,1.33268 -0.423828,1.32129 -0.667969,1.32129 L-1.7666,1.32129 L-1.7666,4.5 L-2.71387,4.5 M-1.7666,0.500977 L0.269531,0.500977 C0.702474,0.500977 1.04102,0.456217 1.28516,0.366699 C1.5293,0.277181 1.71484,0.133952 1.8418,-0.0629883 C1.96875,-0.259928 2.03223,-0.473958 2.03223,-0.705078 C2.03223,-1.04362 1.90934,-1.32194 1.66357,-1.54004 C1.41781,-1.75814 1.02962,-1.86719 0.499023,-1.86719 L-1.7666,-1.86719 L-1.7666,0.500977"/>
</g>

<g fill="#ffffff" fill-opacity="0" stroke="#000000" stroke-opacity="1" stroke-width="0.5" stroke-linecap="square" stroke-linejoin="miter" stroke-miterlimit="2" transform="matrix(1,0,0,1,0,0)"
font-family="MS Shell Dlg 2" font-size="9.8" font-weight="400" font-style="normal" 
>
</g>
</g>
</svg>
