<?xml version="1.0" encoding="UTF-8" standalone="no"?>
<svg width="11.2889mm" height="11.2889mm"
 viewBox="0 0 32 32"
 xmlns="http://www.w3.org/2000/svg" xmlns:xlink="http://www.w3.org/1999/xlink"  version="1.2" baseProfile="tiny">
<title>Qt SVG Document</title>
<desc>Generated with Qt</desc>
<defs>
</defs>
<g fill="none" stroke="black" stroke-width="1" fill-rule="evenodd" stroke-linecap="square" stroke-linejoin="bevel" >

<g fill="#9c9c9c" fill-opacity="1" stroke="none" transform="matrix(1,0,0,1,15.8516,12.7344)"
font-family="MS Shell Dlg 2" font-size="9.8" font-weight="400" font-style="normal" 
>
<path vector-effect="none" fill-rule="nonzero" d="M-0.171875,-14.3281 C0.367187,-14.2422 0.671875,-13.8867 0.742188,-13.2617 C1.625,-12.9648 2.17578,-12.3555 2.39453,-11.4336 L1.38672,-7.02734 C3.69141,-6.43359 4.97266,-6.01563 5.23047,-5.77344 C5.26953,-5.57813 5.28906,-5.40234 5.28906,-5.24609 C5.28906,-5.09766 5.26953,-4.96484 5.23047,-4.84766 C5.62891,-4.83203 5.83203,-4.68359 5.83984,-4.40234 C5.76172,-4.14453 5.62109,-4.01563 5.41797,-4.01563 L5.34766,-4.01563 L5.34766,-2.73828 C5.30859,-1.69141 5.0625,-0.859375 4.60938,-0.242188 C4.0625,0.617187 3.30859,1.30859 2.34766,1.83203 L3.35547,6.34375 L3.35547,8.40625 L-3.86328,8.40625 L-3.86328,6.32031 L-2.85547,1.71484 C-3.81641,1.12109 -4.53516,0.457031 -5.01172,-0.277344 C-5.52734,-1.14453 -5.78516,-2.03516 -5.78516,-2.94922 C-5.78516,-3.47266 -5.77734,-3.84766 -5.76172,-4.07422 C-5.84766,-4.05078 -5.92578,-4.03906 -5.99609,-4.03906 C-6.26172,-4.03906 -6.42969,-4.1875 -6.5,-4.48438 C-6.45313,-4.78906 -6.29688,-4.95313 -6.03125,-4.97656 C-5.99219,-5.20313 -5.93359,-5.41016 -5.85547,-5.59766 L-5.67969,-5.96094 L-2,-7.02734 L-2.89063,-11.4922 C-2.66406,-12.4141 -2.10156,-12.9961 -1.20313,-13.2383 C-1.16406,-13.9648 -0.820313,-14.3281 -0.171875,-14.3281 M0.613281,29.4766 L0.613281,29.5 L0.589844,29.5 L0.589844,29.4766 L0.613281,29.4766 M-0.5,-16.0977 L-0.5,-16.0859 L-0.511719,-16.0859 L-0.511719,-16.0977 L-0.5,-16.0977"/>
</g>

<g fill="none" stroke="#000000" stroke-opacity="1" stroke-width="1" stroke-linecap="square" stroke-linejoin="bevel" transform="matrix(1,0,0,1,0,0)"
font-family="MS Shell Dlg 2" font-size="9.8" font-weight="400" font-style="normal" 
>
</g>

<g fill="#ff0000" fill-opacity="1" stroke="none" transform="matrix(1,0,0,1,15.5078,12.7344)"
font-family="MS Shell Dlg 2" font-size="9.8" font-weight="400" font-style="normal" 
>
<path vector-effect="none" fill-rule="nonzero" d="M-0.464844,29.4063 L-0.464844,29.5 L-0.59375,29.5 L-0.59375,29.4063 L-0.464844,29.4063 M0.847656,-13.2148 C1.68359,-12.8945 2.25781,-12.2969 2.57031,-11.4219 L1.71484,-7.07422 L5.17188,-6.03125 C5.27344,-5.77344 5.32422,-5.50781 5.32422,-5.23438 C5.32422,-5.125 5.31641,-5.01172 5.30078,-4.89453 C5.22266,-4.51953 5.125,-4.19922 5.00781,-3.93359 C4.89063,-3.66797 4.66406,-3.47266 4.32813,-3.34766 L1.5625,-3.34766 L3.51953,6.20313 L3.51953,6.36719 L-3.89844,6.36719 L-3.89844,6.22656 L-2.08203,-3.37109 L-4.8125,-3.37109 C-5.19531,-3.55078 -5.47656,-3.75781 -5.65625,-3.99219 C-5.875,-4.3125 -5.98438,-4.67188 -5.98438,-5.07031 C-5.9375,-5.51563 -5.8125,-5.86328 -5.60938,-6.11328 L-2.19922,-7.07422 L-3.05469,-11.4453 C-2.71875,-12.3906 -2.10156,-12.9727 -1.20313,-13.1914 C-0.882813,-13.2617 -0.539063,-13.2969 -0.171875,-13.2969 C0.148437,-13.2969 0.488281,-13.2695 0.847656,-13.2148 M-0.5,-16.0977 L-0.5,-16.0859 L-0.511719,-16.0859 L-0.511719,-16.0977 L-0.5,-16.0977"/>
</g>

<g fill="none" stroke="#000000" stroke-opacity="1" stroke-width="1" stroke-linecap="square" stroke-linejoin="bevel" transform="matrix(1,0,0,1,0,0)"
font-family="MS Shell Dlg 2" font-size="9.8" font-weight="400" font-style="normal" 
>
</g>

<g fill="#000000" fill-opacity="1" stroke="none" transform="matrix(1,0,0,1,15.9141,12.7344)"
font-family="MS Shell Dlg 2" font-size="9.8" font-weight="400" font-style="normal" 
>
<path vector-effect="none" fill-rule="nonzero" d="M-0.171875,-14.1406 C-0.65625,-14.1094 -0.898438,-13.8906 -0.898438,-13.4844 L-0.898438,-13.3672 C-0.648438,-13.3984 -0.40625,-13.4141 -0.171875,-13.4141 C0.0703125,-13.4141 0.304688,-13.3984 0.53125,-13.3672 C0.5,-13.8359 0.265625,-14.0938 -0.171875,-14.1406 M-2.75,-11.3516 L-1.87109,-6.93359 L-5.38672,-5.92578 L-4.61328,-3.61719 L-1.67188,-3.61719 L-3.53516,6.19141 L3.16797,6.19141 C2.13672,1.29297 1.48438,-1.97656 1.21094,-3.61719 L4.17578,-3.61719 L4.87891,-5.9375 L1.36328,-6.93359 L2.28906,-11.3516 L-2.75,-11.3516 M-5.64453,-5.76172 C-5.73828,-5.55078 -5.78516,-5.33203 -5.78516,-5.10547 C-5.78516,-4.93359 -5.75781,-4.75781 -5.70313,-4.57813 C-5.57813,-4.15625 -5.33203,-3.87109 -4.96484,-3.72266 L-5.64453,-5.76172 M5.10156,-5.76172 L4.48047,-3.69922 C4.69922,-3.69922 4.89063,-3.98828 5.05469,-4.56641 C5.14063,-4.89453 5.18359,-5.16406 5.18359,-5.375 C5.18359,-5.53906 5.15625,-5.66797 5.10156,-5.76172 M-6.26563,-4.42578 C-6.19531,-4.26172 -6.10156,-4.17969 -5.98438,-4.17969 C-5.9375,-4.17969 -5.88281,-4.19531 -5.82031,-4.22656 C-5.92188,-4.39063 -5.98047,-4.57422 -5.99609,-4.77734 C-6.18359,-4.77734 -6.27734,-4.6875 -6.27734,-4.50781 C-6.27734,-4.48438 -6.27344,-4.45703 -6.26563,-4.42578 M5.33594,-4.70703 C5.30469,-4.53516 5.25391,-4.375 5.18359,-4.22656 C5.29297,-4.17969 5.38281,-4.15625 5.45313,-4.15625 C5.57813,-4.15625 5.66406,-4.21875 5.71094,-4.34375 C5.72656,-4.39844 5.73438,-4.44531 5.73438,-4.48438 C5.73438,-4.54688 5.71875,-4.58984 5.6875,-4.61328 C5.63281,-4.65234 5.51563,-4.68359 5.33594,-4.70703 M-3.58203,6.49609 L-3.58203,8.05469 L3.22656,8.05469 L3.22656,6.51953 L-3.58203,6.49609 M0.507813,-13.1094 C0.289063,-13.1328 0.0703125,-13.1445 -0.148438,-13.1445 C-0.5,-13.1445 -0.847656,-13.1094 -1.19141,-13.0391 C-1.96484,-12.8359 -2.47656,-12.3594 -2.72656,-11.6094 L2.21875,-11.6094 C1.95313,-12.2734 1.51953,-12.7422 0.917969,-13.0156 L0.507813,-13.1094 M0.859375,-13.2969 C1.70313,-12.9844 2.28125,-12.3867 2.59375,-11.5039 L1.73828,-7.10938 L5.23047,-6.05469 C5.33203,-5.79688 5.38281,-5.53125 5.38281,-5.25781 C5.38281,-5.14063 5.375,-5.02344 5.35938,-4.90625 C5.57813,-4.90625 5.73828,-4.84375 5.83984,-4.71875 C5.90234,-4.63281 5.93359,-4.53516 5.93359,-4.42578 C5.93359,-4.37109 5.92578,-4.3125 5.91016,-4.25 C5.84766,-4.08594 5.73828,-3.99219 5.58203,-3.96875 C5.53516,-3.96094 5.48828,-3.95703 5.44141,-3.95703 C5.32422,-3.95703 5.21094,-3.98047 5.10156,-4.02734 C5.02344,-3.76953 4.78125,-3.54297 4.375,-3.34766 L1.58594,-3.34766 L3.55469,6.29688 L3.55469,8.40625 L-3.93359,8.40625 L-3.93359,6.32031 L-2.10547,-3.37109 L-4.85938,-3.37109 C-5.24219,-3.55078 -5.52734,-3.75781 -5.71484,-3.99219 C-5.80859,-3.96875 -5.89453,-3.95703 -5.97266,-3.95703 C-6.23047,-3.95703 -6.40234,-4.09766 -6.48828,-4.37891 C-6.49609,-4.43359 -6.5,-4.48438 -6.5,-4.53125 C-6.5,-4.78125 -6.35547,-4.95313 -6.06641,-5.04688 C-6.00391,-5.52344 -5.87109,-5.88672 -5.66797,-6.13672 L-2.22266,-7.10938 L-3.07813,-11.5273 C-2.74219,-12.4805 -2.12109,-13.0664 -1.21484,-13.2852 C-1.18359,-13.9883 -0.835938,-14.3594 -0.171875,-14.3984 C0.453125,-14.3281 0.796875,-13.9648 0.859375,-13.3086 L0.859375,-13.2969 M-0.382813,29.4766 L-0.382813,29.5 L-0.40625,29.5 L-0.40625,29.4766 L-0.382813,29.4766 M-0.5,-16.0977 L-0.5,-16.0859 L-0.511719,-16.0859 L-0.511719,-16.0977 L-0.5,-16.0977"/>
</g>

<g fill="none" stroke="#000000" stroke-opacity="1" stroke-width="1" stroke-linecap="square" stroke-linejoin="bevel" transform="matrix(1,0,0,1,0,0)"
font-family="MS Shell Dlg 2" font-size="9.8" font-weight="400" font-style="normal" 
>
</g>
</g>
</svg>
