<?xml version="1.0" encoding="UTF-8" standalone="no"?>
<svg width="11.2889mm" height="11.2889mm"
 viewBox="0 0 32 32"
 xmlns="http://www.w3.org/2000/svg" xmlns:xlink="http://www.w3.org/1999/xlink"  version="1.2" baseProfile="tiny">
<title>Qt SVG Document</title>
<desc>Generated with Qt</desc>
<defs>
</defs>
<g fill="none" stroke="black" stroke-width="1" fill-rule="evenodd" stroke-linecap="square" stroke-linejoin="bevel" >

<g fill="#ffffff" fill-opacity="1" stroke="none" transform="matrix(1,0,0,1,15.6797,12.7344)"
font-family="MS Shell Dlg 2" font-size="9.8" font-weight="400" font-style="normal" 
>
<path vector-effect="none" fill-rule="nonzero" d="M-11.4453,4.91406 L11.4063,4.91406 C11.8594,4.96875 12.0859,5.19531 12.0859,5.59375 L12.0859,28.4453 C12.0859,28.8984 11.8594,29.125 11.4063,29.125 L-11.4453,29.125 C-11.8984,29.125 -12.125,28.8984 -12.125,28.4453 L-12.125,5.59375 C-12.0625,5.14063 -11.8359,4.91406 -11.4453,4.91406 "/>
</g>

<g fill="none" stroke="#000000" stroke-opacity="1" stroke-width="1" stroke-linecap="square" stroke-linejoin="bevel" transform="matrix(1,0,0,1,0,0)"
font-family="MS Shell Dlg 2" font-size="9.8" font-weight="400" font-style="normal" 
>
</g>

<g fill="#ff0000" fill-opacity="1" stroke="none" transform="matrix(1,0,0,1,15.9297,12.7344)"
font-family="MS Shell Dlg 2" font-size="9.8" font-weight="400" font-style="normal" 
>
<path vector-effect="none" fill-rule="nonzero" d="M-11.7969,4.53906 L11.7578,4.53906 C12.2266,4.59375 12.4609,4.82813 12.4609,5.24219 L12.4609,28.7969 C12.4609,29.2656 12.2266,29.5 11.7578,29.5 L-11.7969,29.5 C-12.2656,29.5 -12.5,29.2656 -12.5,28.7969 L-12.5,5.24219 C-12.4375,4.77344 -12.2031,4.53906 -11.7969,4.53906 M-7.22656,8.40625 L-7.22656,21.4141 C-7.16406,21.8828 -6.92969,22.1172 -6.52344,22.1172 L-6.17188,22.1172 L-6.17188,7.35156 C-6.52344,7.35156 -6.875,7.70313 -7.22656,8.40625 M1.91406,7.35156 L1.91406,22.1172 L2.61719,22.1172 C3.08594,22.1172 3.32031,21.8828 3.32031,21.4141 L3.32031,15.4375 L3.84766,15.4375 C4.08203,16.6094 4.90234,17.2539 6.30859,17.3711 C7.83203,17.2539 8.68359,16.4023 8.86328,14.8164 C8.68359,13.2383 7.83203,12.3906 6.30859,12.2734 C5.01953,12.3906 4.19922,12.9766 3.84766,14.0313 L3.32031,14.0313 L3.32031,8.40625 C3.32031,8.05469 2.96875,7.70313 2.26563,7.35156 L1.91406,7.35156 M-5.11719,9.46094 L-5.11719,24.2266 L-3.71094,24.2266 L-3.71094,9.46094 C-3.71094,8.99219 -3.94531,8.75781 -4.41406,8.75781 C-4.88281,8.8125 -5.11719,9.04688 -5.11719,9.46094 M-2.65625,9.46094 L-2.65625,20.3594 C-2.59375,20.8281 -2.35938,21.0625 -1.95313,21.0625 C-1.48438,21.0625 -1.25,20.8281 -1.25,20.3594 L-1.25,9.46094 C-1.25,8.99219 -1.48438,8.75781 -1.95313,8.75781 C-2.42188,8.8125 -2.65625,9.04688 -2.65625,9.46094 M-0.195313,9.46094 L-0.195313,20.3594 C-0.132813,20.8281 0.101563,21.0625 0.507813,21.0625 C0.976563,21.0625 1.21094,20.8281 1.21094,20.3594 L1.21094,9.46094 C1.21094,8.99219 0.976563,8.75781 0.507813,8.75781 C0.0390625,8.8125 -0.195313,9.04688 -0.195313,9.46094 M-5.11719,25.2813 L-5.11719,27.0391 L-3.71094,27.0391 L-3.71094,25.2813 L-5.11719,25.2813 M6.05078,15.0859 L6.05078,16.8438 C5.11328,16.6641 4.52734,16.0781 4.29297,15.0859 L6.05078,15.0859 M6.48438,14.6406 L6.48438,12.8828 C7.42188,13.0625 8.00781,13.6484 8.24219,14.6406 L6.48438,14.6406 M4.29297,14.6406 C4.52734,13.6484 5.11328,13.0625 6.05078,12.8828 L6.05078,14.6406 L4.29297,14.6406 M8.24219,15.0859 C8.00781,16.0781 7.42188,16.6641 6.48438,16.8438 L6.48438,15.0859 L8.24219,15.0859"/>
</g>

<g fill="none" stroke="#000000" stroke-opacity="1" stroke-width="1" stroke-linecap="square" stroke-linejoin="bevel" transform="matrix(1,0,0,1,0,0)"
font-family="MS Shell Dlg 2" font-size="9.8" font-weight="400" font-style="normal" 
>
</g>
</g>
</svg>
