<?xml version="1.0" encoding="UTF-8" standalone="no"?>
<svg width="11.2889mm" height="11.2889mm"
 viewBox="0 0 32 32"
 xmlns="http://www.w3.org/2000/svg" xmlns:xlink="http://www.w3.org/1999/xlink"  version="1.2" baseProfile="tiny">
<title>Qt SVG Document</title>
<desc>Generated with Qt</desc>
<defs>
</defs>
<g fill="none" stroke="black" stroke-width="1" fill-rule="evenodd" stroke-linecap="square" stroke-linejoin="bevel" >

<g fill="#ffffff" fill-opacity="1" stroke="none" transform="matrix(1,0,0,1,15.6875,12.7344)"
font-family="MS Shell Dlg 2" font-size="9.8" font-weight="400" font-style="normal" 
>
<path vector-effect="none" fill-rule="nonzero" d="M-13.9688,10.6563 L11.8359,10.6563 C12.2187,10.7031 12.4102,10.8984 12.4102,11.2422 L12.4102,12.6953 L14.4492,12.6953 C14.832,12.7344 15.0234,12.9258 15.0234,13.2695 L15.0234,26.6055 C15.0234,26.9883 14.832,27.1797 14.4492,27.1797 L12.4102,27.1797 L12.4102,28.6328 C12.4102,29.0234 12.2187,29.2188 11.8359,29.2188 L-13.9688,29.2188 C-14.3516,29.2188 -14.543,29.0234 -14.543,28.6328 L-14.543,11.2422 C-14.4883,10.8516 -14.2969,10.6563 -13.9688,10.6563 "/>
</g>

<g fill="none" stroke="#000000" stroke-opacity="1" stroke-width="1" stroke-linecap="square" stroke-linejoin="bevel" transform="matrix(1,0,0,1,0,0)"
font-family="MS Shell Dlg 2" font-size="9.8" font-weight="400" font-style="normal" 
>
</g>

<g fill="#ff0000" fill-opacity="1" stroke="none" transform="matrix(1,0,0,1,13.5938,12.7344)"
font-family="MS Shell Dlg 2" font-size="9.8" font-weight="400" font-style="normal" 
>
<path vector-effect="none" fill-rule="nonzero" d="M11.8594,10.8086 L-1.25391,19.6563 L-14.3789,10.8086 L11.8594,10.8086 M-1.30078,19.8555 L11.8828,29.0078 L-14.4258,29.0078 L-1.30078,19.8555"/>
</g>

<g fill="none" stroke="#000000" stroke-opacity="1" stroke-width="1" stroke-linecap="square" stroke-linejoin="bevel" transform="matrix(1,0,0,1,0,0)"
font-family="MS Shell Dlg 2" font-size="9.8" font-weight="400" font-style="normal" 
>
</g>

<g fill="#000000" fill-opacity="1" stroke="none" transform="matrix(1,0,0,1,15.9922,12.7344)"
font-family="MS Shell Dlg 2" font-size="9.8" font-weight="400" font-style="normal" 
>
<path vector-effect="none" fill-rule="nonzero" d="M-14.4023,10.375 L12.1992,10.375 C12.5977,10.4219 12.7969,10.6211 12.7969,10.9727 L12.7969,12.4609 L14.8828,12.4609 C15.2812,12.5078 15.4805,12.707 15.4805,13.0586 L15.4805,26.8047 C15.4805,27.2031 15.2812,27.4023 14.8828,27.4023 L12.7969,27.4023 L12.7969,28.9023 C12.7969,29.3008 12.5977,29.5 12.1992,29.5 L-14.4023,29.5 C-14.8008,29.5 -15,29.3008 -15,28.9023 L-15,10.9727 C-14.9453,10.5742 -14.7461,10.375 -14.4023,10.375 M-13.7227,11.043 L-1.25391,19.3398 L11.2266,11.043 L-13.7227,11.043 M-0.574219,19.7852 L12.1289,28.5273 L12.1289,27.4727 C12.1289,27.0273 12.3516,26.8047 12.7969,26.8047 L14.8828,26.8047 L14.8828,13.0586 L12.7148,13.0586 C12.3633,13.0586 12.1875,12.7969 12.1875,12.2734 C12.1875,12.2109 12.1914,12.1484 12.1992,12.0859 L12.1992,11.2656 L-0.574219,19.7852 M-14.168,11.793 L-14.168,28.3047 L-1.92188,19.7852 L-14.168,11.793 M-13.6523,28.8203 L11.2266,28.8203 L-1.25391,20.1602 L-13.6523,28.8203"/>
</g>

<g fill="none" stroke="#000000" stroke-opacity="1" stroke-width="1" stroke-linecap="square" stroke-linejoin="bevel" transform="matrix(1,0,0,1,0,0)"
font-family="MS Shell Dlg 2" font-size="9.8" font-weight="400" font-style="normal" 
>
</g>
</g>
</svg>
