<?xml version="1.0" encoding="UTF-8" standalone="no"?>
<svg width="11.2889mm" height="11.2889mm"
 viewBox="0 0 32 32"
 xmlns="http://www.w3.org/2000/svg" xmlns:xlink="http://www.w3.org/1999/xlink"  version="1.2" baseProfile="tiny">
<title>Qt SVG Document</title>
<desc>Generated with Qt</desc>
<defs>
</defs>
<g fill="none" stroke="black" stroke-width="1" fill-rule="evenodd" stroke-linecap="square" stroke-linejoin="bevel" >

<g fill="#ffffff" fill-opacity="1" stroke="none" transform="matrix(1,0,0,1,15.5391,12.7344)"
font-family="MS Shell Dlg 2" font-size="9.8" font-weight="400" font-style="normal" 
>
<path vector-effect="none" fill-rule="nonzero" d="M15.6445,9.69531 L15.6445,24.4023 L-15.7031,24.4023 L-15.7031,9.69531 L15.6445,9.69531 M-5.55469,29.1367 L-5.55469,29.2305 L-5.67188,29.2305 L-5.67188,29.1367 L-5.55469,29.1367"/>
</g>

<g fill="none" stroke="#000000" stroke-opacity="1" stroke-width="1" stroke-linecap="square" stroke-linejoin="bevel" transform="matrix(1,0,0,1,0,0)"
font-family="MS Shell Dlg 2" font-size="9.8" font-weight="400" font-style="normal" 
>
</g>

<g fill="#ff0000" fill-opacity="1" stroke="none" transform="matrix(1,0,0,1,15.4922,12.7344)"
font-family="MS Shell Dlg 2" font-size="9.8" font-weight="400" font-style="normal" 
>
<path vector-effect="none" fill-rule="nonzero" d="M15.5742,10.5273 L15.5742,24.0625 L-15.8086,24.0625 L15.5742,10.5273 M-5.33203,29.1602 L-5.33203,29.2539 L-5.42578,29.2539 L-5.42578,29.1602 L-5.33203,29.1602 M15.5156,9.20313 L15.5156,9.29688 L15.3984,9.29688 L15.3984,9.20313 L15.5156,9.20313"/>
</g>

<g fill="none" stroke="#000000" stroke-opacity="1" stroke-width="1" stroke-linecap="square" stroke-linejoin="bevel" transform="matrix(1,0,0,1,0,0)"
font-family="MS Shell Dlg 2" font-size="9.8" font-weight="400" font-style="normal" 
>
</g>

<g fill="#000000" fill-opacity="1" stroke="none" transform="matrix(1,0,0,1,15.9063,12.7344)"
font-family="MS Shell Dlg 2" font-size="9.8" font-weight="400" font-style="normal" 
>
<path vector-effect="none" fill-rule="nonzero" d="M5.34375,25.8086 C6.10937,25.8086 6.63672,26.1289 6.92578,26.7695 L6.92578,26.9453 C6.84766,27.1016 6.71875,27.1797 6.53906,27.1797 C6.44531,27.1797 6.33984,27.1602 6.22266,27.1211 L6.14063,27.0391 C6.02344,26.8047 5.78906,26.6875 5.4375,26.6875 C4.96875,26.6875 4.70313,26.9805 4.64063,27.5664 C4.64063,28.0352 4.81641,28.3281 5.16797,28.4453 C5.28516,28.4766 5.39453,28.4922 5.49609,28.4922 C5.80859,28.4922 6.05078,28.3594 6.22266,28.0938 L6.31641,28 C6.37109,27.9766 6.42187,27.9648 6.46875,27.9648 C6.64062,27.9648 6.79297,28.125 6.92578,28.4453 L6.92578,28.6211 C6.57422,29.207 6.04687,29.5 5.34375,29.5 C4.23438,29.5 3.67969,28.8555 3.67969,27.5664 C3.73437,26.4492 4.28906,25.8633 5.34375,25.8086 M-6.70313,25.8906 L-4.41797,25.8906 C-4.00391,26.0938 -3.79687,26.3711 -3.79688,26.7227 C-3.79687,26.7695 -3.80078,26.8164 -3.80859,26.8633 C-3.80859,27.0977 -3.92578,27.3008 -4.16016,27.4727 C-3.86328,27.5898 -3.6875,27.8242 -3.63281,28.1758 L-3.63281,28.2695 C-3.63281,28.9727 -3.98437,29.3242 -4.6875,29.3242 L-6.70313,29.3242 C-6.88281,29.3242 -6.97266,29.2344 -6.97266,29.0547 L-6.97266,26.1602 C-6.91016,25.9805 -6.82031,25.8906 -6.70313,25.8906 M-1.62891,25.8906 L-0.75,25.8906 C-0.515625,25.8906 -0.28125,26.5078 -0.046875,27.7422 L0.0351563,27.7422 C0.269531,26.5078 0.503906,25.8906 0.738281,25.8906 L1.79297,25.8906 C1.97266,25.9531 2.0625,26.043 2.0625,26.1602 L2.0625,29.0547 C2.0625,29.2344 1.97266,29.3242 1.79297,29.3242 L1.35938,29.3242 C1.17969,29.3242 1.08984,29.2344 1.08984,29.0547 L1.08984,27.1211 L1.00781,27.1211 C0.710938,28.5898 0.445312,29.3242 0.210938,29.3242 L-0.222656,29.3242 C-0.457031,29.3242 -0.664063,28.6797 -0.84375,27.3906 L-1.01953,27.3906 L-1.01953,29.0547 C-1.01953,29.2344 -1.10547,29.3242 -1.27734,29.3242 L-1.62891,29.3242 C-1.80859,29.3242 -1.89844,29.2344 -1.89844,29.0547 L-1.89844,26.1602 C-1.89844,25.9805 -1.80859,25.8906 -1.62891,25.8906 M-5.74219,26.6875 L-5.74219,27.2148 L-5.21484,27.2148 C-5.03516,27.2148 -4.94531,27.125 -4.94531,26.9453 C-4.94531,26.7734 -5.09375,26.6875 -5.39063,26.6875 L-5.74219,26.6875 M-5.74219,27.918 L-5.74219,28.6211 L-5.03906,28.6211 C-4.74219,28.6211 -4.59375,28.5039 -4.59375,28.2695 C-4.59375,28.0352 -4.74219,27.918 -5.03906,27.918 L-5.74219,27.918 M-0.574219,10.2344 L-0.574219,10.4102 L-0.222656,10.4102 L-0.222656,10.2344 L-0.574219,10.2344 M-16.2305,9.12109 L15.9375,9.12109 C16.1094,9.18359 16.1953,9.27344 16.1953,9.39063 L16.1953,25.1172 C16.1953,25.2969 16.1094,25.3867 15.9375,25.3867 L-16.2305,25.3867 C-16.4102,25.3867 -16.5,25.2969 -16.5,25.1172 L-16.5,9.39063 C-16.4375,9.21094 -16.3477,9.12109 -16.2305,9.12109 M-15,10.8789 L-15,23.1016 L13.7344,10.9727 L13.7344,10.8789 L-15,10.8789 M-13.5938,23.2773 L-13.5938,23.3594 L14.8828,23.3594 L14.8828,11.4063 L14.7891,11.4063 C-4.01562,19.3203 -13.4766,23.2773 -13.5938,23.2773 "/>
</g>

<g fill="none" stroke="#000000" stroke-opacity="1" stroke-width="1" stroke-linecap="square" stroke-linejoin="bevel" transform="matrix(1,0,0,1,0,0)"
font-family="MS Shell Dlg 2" font-size="9.8" font-weight="400" font-style="normal" 
>
</g>
</g>
</svg>
