<?xml version="1.0" encoding="UTF-8" standalone="no"?>
<svg width="11.2889mm" height="11.2889mm"
 viewBox="0 0 32 32"
 xmlns="http://www.w3.org/2000/svg" xmlns:xlink="http://www.w3.org/1999/xlink"  version="1.2" baseProfile="tiny">
<title>Qt SVG Document</title>
<desc>Generated with Qt</desc>
<defs>
</defs>
<g fill="none" stroke="black" stroke-width="1" fill-rule="evenodd" stroke-linecap="square" stroke-linejoin="bevel" >

<g fill="#ffffff" fill-opacity="1" stroke="none" transform="matrix(1,0,0,1,15.8125,12.7344)"
font-family="MS Shell Dlg 2" font-size="9.8" font-weight="400" font-style="normal" 
>
<path vector-effect="none" fill-rule="nonzero" d="M10.3047,5.10156 C11.0938,5.10156 11.6211,5.51953 11.8867,6.35547 C11.9102,6.58203 11.9219,6.76953 11.9219,6.91797 L11.9219,27.6484 C11.9219,28.5078 11.5078,29.0742 10.6797,29.3477 C10.5391,29.3711 10.4023,29.3828 10.2695,29.3828 L-10.7656,29.3828 C-11.5859,29.3828 -12.125,28.8984 -12.3828,27.9297 L-12.3828,6.71875 C-12.3828,5.89844 -11.8984,5.35938 -10.9297,5.10156 L10.3047,5.10156"/>
</g>

<g fill="none" stroke="#000000" stroke-opacity="1" stroke-width="1" stroke-linecap="square" stroke-linejoin="bevel" transform="matrix(1,0,0,1,0,0)"
font-family="MS Shell Dlg 2" font-size="9.8" font-weight="400" font-style="normal" 
>
</g>

<g fill="#ff0000" fill-opacity="1" stroke="none" transform="matrix(1,0,0,1,15.8984,12.7344)"
font-family="MS Shell Dlg 2" font-size="9.8" font-weight="400" font-style="normal" 
>
<path vector-effect="none" fill-rule="nonzero" d="M10.4219,4.98438 C11.2188,4.98438 11.75,5.40625 12.0156,6.25 C12.0391,6.47656 12.0508,6.66406 12.0508,6.8125 L12.0508,27.7539 C12.0508,28.6211 11.6328,29.1914 10.7969,29.4648 C10.6563,29.4883 10.5195,29.5 10.3867,29.5 L-10.8711,29.5 C-11.6992,29.5 -12.2422,29.0117 -12.5,28.0352 L-12.5,6.61328 C-12.5,5.78516 -12.0117,5.24219 -11.0352,4.98438 L10.4219,4.98438 M-12.2539,6.89453 L-12.2539,27.543 C-12.2539,28.3789 -11.9688,28.9102 -11.3984,29.1367 C-11.2188,29.2148 -11.0313,29.2539 -10.8359,29.2539 L10.4219,29.2539 C11.0781,29.2539 11.543,28.875 11.8164,28.1172 L11.8633,27.7539 L11.875,6.83594 L11.8164,6.36719 C11.6992,5.91406 11.4531,5.57422 11.0781,5.34766 C10.8125,5.26953 10.582,5.23047 10.3867,5.23047 L-10.8359,5.23047 C-11.5078,5.23047 -11.9688,5.59766 -12.2188,6.33203 C-12.2422,6.55859 -12.2539,6.74609 -12.2539,6.89453 M-10.8359,5.75781 L10.5039,5.75781 C11.0508,5.75781 11.3242,6.15234 11.3242,6.94141 L11.3242,27.543 C11.3242,28.332 11.0781,28.7266 10.5859,28.7266 L-10.8359,28.7266 C-11.4297,28.7266 -11.7266,28.4023 -11.7266,27.7539 L-11.7266,6.73047 C-11.7266,6.08203 -11.4297,5.75781 -10.8359,5.75781 M-10.543,18.9883 C-10.4648,19.3242 -10.3008,20.1953 -10.0508,21.6016 L-10.0977,21.6016 C-10.0664,21.6563 -10.0117,21.9258 -9.93359,22.4102 C-9.97266,22.4102 -10.1211,22.5625 -10.3789,22.8672 L-10.3789,25.0234 L-8.83203,25.0234 C-8.77734,25.0313 -8.75,25.0586 -8.75,25.1055 L-8.75,26.5703 L-5.41016,26.5703 L-5.41016,25.2227 C-5.40234,25.168 -5.375,25.1406 -5.32813,25.1406 L4.36328,25.1406 C4.41797,25.1484 4.44531,25.1758 4.44531,25.2227 L4.44531,26.6523 L7.90234,26.6523 L7.90234,25.2227 C7.91016,25.168 7.9375,25.1406 7.98438,25.1406 L9.61328,25.1406 L9.61328,22.9492 C9.39453,22.6992 9.28516,22.5625 9.28516,22.5391 C9.28516,22.3125 9.33984,21.9727 9.44922,21.5195 C9.44922,21.4883 9.4375,21.4727 9.41406,21.4727 L9.85938,18.8359 L9.41406,16.0234 L9.44922,16.0234 C8.96484,12.9063 8.61328,10.7734 8.39453,9.625 C7.94922,8.57031 7.25391,8.04297 6.30859,8.04297 L-6.47656,8.04297 C-7.4375,8.04297 -8.30469,8.67969 -9.07813,9.95313 C-9.24219,10.4844 -9.69141,13.3203 -10.4258,18.4609 L-10.543,18.9883 M-5.41016,8.58203 L4.89063,8.57031 L4.90234,10.8086 L-5.41016,10.8086 L-5.41016,8.58203 M0.449219,11.1367 C4.91797,11.3789 7.41406,11.5 7.9375,11.5 C8.04688,12.1094 8.18359,13.0859 8.34766,14.4297 L8.3125,14.4297 C8.58594,16.1797 8.72266,17.1992 8.72266,17.4883 L0.449219,17.4883 C0.394531,17.4883 0.367188,17.4609 0.367188,17.4063 L0.367188,11.2188 C0.375,11.1641 0.402344,11.1367 0.449219,11.1367 M-0.898438,11.1719 L-0.851563,11.2539 L-0.839844,17.3945 L-1.08594,17.4883 L-9.41797,17.4883 C-9.48828,17.4023 -9.52344,17.332 -9.52344,17.2773 L-8.96094,13.9023 L-8.99609,13.8203 C-8.76953,12.3359 -8.63281,11.5742 -8.58594,11.5352 L-8.1875,11.5 L-8.05859,11.5 C-7.46484,11.5 -5.07812,11.3906 -0.898438,11.1719 M-7.73047,19.7617 L-7.69531,19.7617 C-7.42969,19.7617 -7.18359,19.9141 -6.95703,20.2188 L-6.92188,20.2188 C-6.92188,19.9922 -6.66406,19.8555 -6.14844,19.8086 C-5.60156,19.8086 -5.32813,20.0938 -5.32813,20.6641 L-5.32813,20.7461 C-5.41406,21.2617 -5.67188,21.5195 -6.10156,21.5195 L-6.14844,21.5195 C-6.46875,21.5195 -6.73828,21.3828 -6.95703,21.1094 C-7.13672,21.3828 -7.41016,21.5195 -7.77734,21.5195 C-8.34766,21.5195 -8.63281,21.2617 -8.63281,20.7461 L-8.63281,20.5352 C-8.63281,20.0195 -8.33203,19.7617 -7.73047,19.7617 M5.30078,19.8906 L5.74609,19.8906 C5.95703,19.8906 6.14453,20.0391 6.30859,20.3359 L6.35547,20.3359 C6.55859,20.0625 6.78906,19.9258 7.04688,19.9258 L7.09375,19.9258 C7.57813,19.9258 7.85938,20.1445 7.9375,20.582 L7.9375,20.9453 C7.9375,21.4375 7.65625,21.6836 7.09375,21.6836 C6.625,21.6055 6.39063,21.457 6.39063,21.2383 L6.30859,21.2383 C6.14453,21.5352 5.92969,21.6836 5.66406,21.6836 L5.58203,21.6836 C4.98047,21.6836 4.67969,21.4375 4.67969,20.9453 L4.67969,20.582 C4.78125,20.1211 4.98828,19.8906 5.30078,19.8906 M7.83203,22.6445 L7.84375,23.3359 L-8.75,23.3359 L-8.75,22.6445 L7.83203,22.6445"/>
</g>

<g fill="none" stroke="#000000" stroke-opacity="1" stroke-width="1" stroke-linecap="square" stroke-linejoin="bevel" transform="matrix(1,0,0,1,0,0)"
font-family="MS Shell Dlg 2" font-size="9.8" font-weight="400" font-style="normal" 
>
</g>
</g>
</svg>
