<?xml version="1.0" encoding="UTF-8" standalone="no"?>
<svg width="11.2889mm" height="11.2889mm"
 viewBox="0 0 32 32"
 xmlns="http://www.w3.org/2000/svg" xmlns:xlink="http://www.w3.org/1999/xlink"  version="1.2" baseProfile="tiny">
<title>Qt SVG Document</title>
<desc>Generated with Qt</desc>
<defs>
</defs>
<g fill="none" stroke="black" stroke-width="1" fill-rule="evenodd" stroke-linecap="square" stroke-linejoin="bevel" >

<g fill="#ffffff" fill-opacity="1" stroke="none" transform="matrix(1,0,0,1,15.9531,12.7344)"
font-family="MS Shell Dlg 2" font-size="9.8" font-weight="400" font-style="normal" 
>
<path vector-effect="none" fill-rule="nonzero" d="M-11.6328,16.4922 L-8.11719,16.4922 L-8.11719,17.0195 L6.29688,17.0195 L6.29688,16.4922 L9.8125,16.4922 L9.8125,17.0195 C13.3906,17.0195 15.2656,18.0156 15.4375,20.0078 L15.4375,25.6328 C15.4375,27.8594 13.5625,28.9727 9.8125,28.9727 L9.8125,29.5 L6.29688,29.5 L6.29688,28.9727 L-8.11719,28.9727 L-8.11719,29.5 L-11.6328,29.5 L-11.6328,28.9727 L-15.5,28.9727 L-15.5,17.0195 L-11.6328,17.0195 L-11.6328,16.4922 M10.1641,19.6563 L10.1641,26.3359 L11.9219,26.3359 L12.9766,25.5391 L12.9766,20.4414 L11.9219,19.6563 L10.1641,19.6563"/>
</g>

<g fill="none" stroke="#000000" stroke-opacity="1" stroke-width="1" stroke-linecap="square" stroke-linejoin="bevel" transform="matrix(1,0,0,1,0,0)"
font-family="MS Shell Dlg 2" font-size="9.8" font-weight="400" font-style="normal" 
>
</g>

<g fill="#e60000" fill-opacity="1" stroke="none" transform="matrix(1,0,0,1,15.9531,12.7344)"
font-family="MS Shell Dlg 2" font-size="9.8" font-weight="400" font-style="normal" 
>
<path vector-effect="none" fill-rule="nonzero" d="M-11.0117,17.8047 L-14.6211,17.8047 L-14.6211,28.0938 L-10.8359,28.0938 L-10.8359,28.7969 L-8.90234,28.7969 L-8.90234,28.0938 L7.17578,28.0938 L7.17578,28.7969 L9.02734,28.7969 L9.02734,28.0938 L10.1641,28.0938 C12.8672,28.0938 14.3047,27.2422 14.4766,25.5391 L14.4766,19.832 C14.0234,18.4805 12.5664,17.8047 10.1055,17.8047 L9.02734,17.8047 L9.02734,17.1953 L7,17.1953 L7,17.8047 L-8.82031,17.8047 L-8.82031,17.1953 L-11.0117,17.1953 L-11.0117,17.8047 M-11.6328,16.4922 L-8.11719,16.4922 L-8.11719,17.0195 L6.29688,17.0195 L6.29688,16.4922 L9.8125,16.4922 L9.8125,17.0195 C13.3906,17.0195 15.2656,18.0156 15.4375,20.0078 L15.4375,25.6328 C15.4375,27.8594 13.5625,28.9727 9.8125,28.9727 L9.8125,29.5 L6.29688,29.5 L6.29688,28.9727 L-8.11719,28.9727 L-8.11719,29.5 L-11.6328,29.5 L-11.6328,28.9727 L-15.5,28.9727 L-15.5,17.0195 L-11.6328,17.0195 L-11.6328,16.4922 M11.9219,19.6563 L12.9766,20.4414 L12.9766,25.5391 L11.9219,26.3359 L10.1641,26.3359 L10.1641,19.6563 L11.9219,19.6563"/>
</g>

<g fill="none" stroke="#000000" stroke-opacity="1" stroke-width="1" stroke-linecap="square" stroke-linejoin="bevel" transform="matrix(1,0,0,1,0,0)"
font-family="MS Shell Dlg 2" font-size="9.8" font-weight="400" font-style="normal" 
>
</g>

<g fill="#000000" fill-opacity="1" stroke="none" transform="matrix(1,0,0,1,4.78906,14.8359)"
font-family="MS Shell Dlg 2" font-size="9.8" font-weight="400" font-style="normal" 
>
<path vector-effect="none" fill-rule="nonzero" d="M1.70313,1.49219 L2.46094,1.68359 C2.30208,2.30599 2.01628,2.7806 1.60352,3.10742 C1.19076,3.43424 0.686198,3.59766 0.0898438,3.59766 C-0.527344,3.59766 -1.0293,3.472 -1.41602,3.2207 C-1.80273,2.9694 -2.09701,2.60547 -2.29883,2.12891 C-2.50065,1.65234 -2.60156,1.14062 -2.60156,0.59375 C-2.60156,-0.00260416 -2.48763,-0.522786 -2.25977,-0.966797 C-2.0319,-1.41081 -1.70768,-1.74805 -1.28711,-1.97852 C-0.866536,-2.20898 -0.403646,-2.32422 0.101563,-2.32422 C0.674479,-2.32422 1.15625,-2.17839 1.54688,-1.88672 C1.9375,-1.59505 2.20964,-1.1849 2.36328,-0.65625 L1.61719,-0.480469 C1.48438,-0.897135 1.29167,-1.20052 1.03906,-1.39063 C0.786458,-1.58073 0.46875,-1.67578 0.0859375,-1.67578 C-0.354167,-1.67578 -0.722005,-1.57031 -1.01758,-1.35938 C-1.31315,-1.14844 -1.52083,-0.865234 -1.64063,-0.509766 C-1.76042,-0.154297 -1.82031,0.21224 -1.82031,0.589844 C-1.82031,1.07682 -1.74935,1.50195 -1.60742,1.86523 C-1.46549,2.22852 -1.24479,2.5 -0.945313,2.67969 C-0.645833,2.85938 -0.321615,2.94922 0.0273438,2.94922 C0.451823,2.94922 0.811198,2.82682 1.10547,2.58203 C1.39974,2.33724 1.59896,1.97396 1.70313,1.49219 "/>
</g>

<g fill="none" stroke="#000000" stroke-opacity="1" stroke-width="1" stroke-linecap="square" stroke-linejoin="bevel" transform="matrix(1,0,0,1,0,0)"
font-family="MS Shell Dlg 2" font-size="9.8" font-weight="400" font-style="normal" 
>
</g>

<g fill="#000000" fill-opacity="1" stroke="none" transform="matrix(1,0,0,1,10.7578,14.8359)"
font-family="MS Shell Dlg 2" font-size="9.8" font-weight="400" font-style="normal" 
>
<path vector-effect="none" fill-rule="nonzero" d="M-2.61328,0.710938 C-2.61328,-0.239583 -2.35807,-0.983724 -1.84766,-1.52148 C-1.33724,-2.05924 -0.678385,-2.32813 0.128906,-2.32813 C0.657552,-2.32813 1.13411,-2.20182 1.55859,-1.94922 C1.98307,-1.69661 2.30664,-1.3444 2.5293,-0.892578 C2.75195,-0.440755 2.86328,0.0716146 2.86328,0.644531 C2.86328,1.22526 2.74609,1.74479 2.51172,2.20313 C2.27734,2.66146 1.94531,3.00846 1.51563,3.24414 C1.08594,3.47982 0.622396,3.59766 0.125,3.59766 C-0.414062,3.59766 -0.895833,3.46745 -1.32031,3.20703 C-1.74479,2.94661 -2.06641,2.59115 -2.28516,2.14063 C-2.50391,1.6901 -2.61328,1.21354 -2.61328,0.710938 M-1.83203,0.722656 C-1.83203,1.41276 -1.64648,1.95638 -1.27539,2.35352 C-0.904297,2.75065 -0.438802,2.94922 0.121094,2.94922 C0.691406,2.94922 1.16081,2.7487 1.5293,2.34766 C1.89779,1.94661 2.08203,1.3776 2.08203,0.640625 C2.08203,0.174479 2.00326,-0.232422 1.8457,-0.580078 C1.68815,-0.927734 1.45768,-1.19727 1.1543,-1.38867 C0.850911,-1.58008 0.510417,-1.67578 0.132813,-1.67578 C-0.403646,-1.67578 -0.865234,-1.49154 -1.25195,-1.12305 C-1.63867,-0.754557 -1.83203,-0.139323 -1.83203,0.722656 "/>
</g>

<g fill="none" stroke="#000000" stroke-opacity="1" stroke-width="1" stroke-linecap="square" stroke-linejoin="bevel" transform="matrix(1,0,0,1,0,0)"
font-family="MS Shell Dlg 2" font-size="9.8" font-weight="400" font-style="normal" 
>
</g>

<g fill="#000000" fill-opacity="1" stroke="none" transform="matrix(1,0,0,1,17.7656,14.8359)"
font-family="MS Shell Dlg 2" font-size="9.8" font-weight="400" font-style="normal" 
>
<path vector-effect="none" fill-rule="nonzero" d="M-1.88281,3.5 L-1.88281,-2.22656 L0.277344,-2.22656 C0.657552,-2.22656 0.947917,-2.20833 1.14844,-2.17188 C1.42969,-2.125 1.66536,-2.03581 1.85547,-1.9043 C2.04557,-1.77279 2.19857,-1.58854 2.31445,-1.35156 C2.43034,-1.11458 2.48828,-0.854167 2.48828,-0.570313 C2.48828,-0.0833333 2.33333,0.328776 2.02344,0.666016 C1.71354,1.00326 1.15365,1.17188 0.34375,1.17188 L-1.125,1.17188 L-1.125,3.5 L-1.88281,3.5 M-1.125,0.496094 L0.355469,0.496094 C0.845052,0.496094 1.19271,0.404948 1.39844,0.222656 C1.60417,0.0403646 1.70703,-0.216146 1.70703,-0.546875 C1.70703,-0.786458 1.64648,-0.991536 1.52539,-1.16211 C1.4043,-1.33268 1.24479,-1.44531 1.04688,-1.5 C0.919271,-1.53385 0.683594,-1.55078 0.339844,-1.55078 L-1.125,-1.55078 L-1.125,0.496094"/>
</g>

<g fill="none" stroke="#000000" stroke-opacity="1" stroke-width="1" stroke-linecap="square" stroke-linejoin="bevel" transform="matrix(1,0,0,1,0,0)"
font-family="MS Shell Dlg 2" font-size="9.8" font-weight="400" font-style="normal" 
>
</g>

<g fill="#000000" fill-opacity="1" stroke="none" transform="matrix(1,0,0,1,22.5078,14.8359)"
font-family="MS Shell Dlg 2" font-size="9.8" font-weight="400" font-style="normal" 
>
<path vector-effect="none" fill-rule="nonzero" d="M-0.253906,3.5 L-0.253906,-2.22656 L0.503906,-2.22656 L0.503906,3.5 L-0.253906,3.5"/>
</g>

<g fill="none" stroke="#000000" stroke-opacity="1" stroke-width="1" stroke-linecap="square" stroke-linejoin="bevel" transform="matrix(1,0,0,1,0,0)"
font-family="MS Shell Dlg 2" font-size="9.8" font-weight="400" font-style="normal" 
>
</g>
</g>
</svg>
