<?xml version="1.0" encoding="UTF-8" standalone="no"?>
<svg width="11.2889mm" height="11.2889mm"
 viewBox="0 0 32 32"
 xmlns="http://www.w3.org/2000/svg" xmlns:xlink="http://www.w3.org/1999/xlink"  version="1.2" baseProfile="tiny">
<title>Qt SVG Document</title>
<desc>Generated with Qt</desc>
<defs>
</defs>
<g fill="none" stroke="black" stroke-width="1" fill-rule="evenodd" stroke-linecap="square" stroke-linejoin="bevel" >

<g fill="#ffffff" fill-opacity="1" stroke="none" transform="matrix(1,0,0,1,15.7344,12.7344)"
font-family="MS Shell Dlg 2" font-size="9.8" font-weight="400" font-style="normal" 
>
<path vector-effect="none" fill-rule="nonzero" d="M-0.261719,7.31641 C2.74609,7.31641 5.3125,8.38281 7.4375,10.5156 C9.5625,12.6484 10.625,15.2266 10.625,18.25 C10.625,21.2578 9.5625,23.8281 7.4375,25.9609 C5.3125,28.0938 2.74609,29.1602 -0.261719,29.1602 C-3.27734,29.1602 -5.82813,28.1426 -7.91406,26.1074 C-10,24.0723 -11.082,21.4531 -11.1602,18.25 C-11.1602,15.2266 -10.0977,12.6484 -7.97266,10.5156 C-5.84766,8.38281 -3.27734,7.31641 -0.261719,7.31641 "/>
</g>

<g fill="none" stroke="#000000" stroke-opacity="1" stroke-width="1" stroke-linecap="square" stroke-linejoin="bevel" transform="matrix(1,0,0,1,0,0)"
font-family="MS Shell Dlg 2" font-size="9.8" font-weight="400" font-style="normal" 
>
</g>

<g fill="#000000" fill-opacity="1" stroke="none" transform="matrix(1,0,0,1,10.0469,12.7344)"
font-family="MS Shell Dlg 2" font-size="9.8" font-weight="400" font-style="normal" 
>
<path vector-effect="none" fill-rule="nonzero" d="M2.09375,29.0898 L-2.59375,29.0898 L-0.25,23.7461 L2.09375,29.0898 M-0.308594,12.8125 L-2.65234,7.46875 L2.03516,7.46875 L-0.308594,12.8125"/>
</g>

<g fill="none" stroke="#000000" stroke-opacity="1" stroke-width="1" stroke-linecap="square" stroke-linejoin="bevel" transform="matrix(1,0,0,1,0,0)"
font-family="MS Shell Dlg 2" font-size="9.8" font-weight="400" font-style="normal" 
>
</g>

<g fill="#ff0000" fill-opacity="1" stroke="none" transform="matrix(1,0,0,1,15.9609,12.7344)"
font-family="MS Shell Dlg 2" font-size="9.8" font-weight="400" font-style="normal" 
>
<path vector-effect="none" fill-rule="nonzero" d="M10.9648,18.25 C10.9648,21.3516 9.86914,24.002 7.67773,26.2012 C5.48633,28.4004 2.83984,29.5 -0.261719,29.5 C-3.37109,29.5 -6.00195,28.4512 -8.1543,26.3535 C-10.3066,24.2559 -11.4219,21.5547 -11.5,18.25 C-11.5,15.1328 -10.4043,12.4746 -8.21289,10.2754 C-6.02148,8.07617 -3.37109,6.97656 -0.261719,6.97656 C2.83984,6.97656 5.48633,8.07617 7.67773,10.2754 C9.86914,12.4746 10.9648,15.1328 10.9648,18.25 M-0.179688,8.6875 C-2.80469,8.6875 -5.04297,9.61719 -6.89453,11.4766 C-8.74609,13.3359 -9.67188,15.582 -9.67188,18.2148 C-9.60938,21.0039 -8.66797,23.2852 -6.84766,25.0586 C-5.02734,26.832 -2.80469,27.7188 -0.179688,27.7188 C2.44531,27.7188 4.68359,26.7891 6.53516,24.9297 C8.38672,23.0703 9.3125,20.832 9.3125,18.2148 C9.3125,15.582 8.38672,13.3359 6.53516,11.4766 C4.68359,9.61719 2.44531,8.6875 -0.179688,8.6875 "/>
</g>

<g fill="none" stroke="#000000" stroke-opacity="1" stroke-width="1" stroke-linecap="square" stroke-linejoin="bevel" transform="matrix(1,0,0,1,0,0)"
font-family="MS Shell Dlg 2" font-size="9.8" font-weight="400" font-style="normal" 
>
</g>
</g>
</svg>
