<?xml version="1.0" encoding="UTF-8" standalone="no"?>
<svg width="11.2889mm" height="11.2889mm"
 viewBox="0 0 32 32"
 xmlns="http://www.w3.org/2000/svg" xmlns:xlink="http://www.w3.org/1999/xlink"  version="1.2" baseProfile="tiny">
<title>Qt SVG Document</title>
<desc>Generated with Qt</desc>
<defs>
</defs>
<g fill="none" stroke="black" stroke-width="1" fill-rule="evenodd" stroke-linecap="square" stroke-linejoin="bevel" >

<g fill="#ffff00" fill-opacity="1" stroke="none" transform="matrix(1,0,0,1,15.4375,12.7344)"
font-family="MS Shell Dlg 2" font-size="9.8" font-weight="400" font-style="normal" 
>
<path vector-effect="none" fill-rule="nonzero" d="M-0.195313,5.93359 L-0.113281,5.93359 C0.0585937,6.04297 2.37109,9.99219 6.82422,17.7813 L13.1641,28.7266 L13.1641,28.8906 L-13.1445,28.8906 L-13.3086,28.8086 C-4.73828,13.8867 -0.367188,6.26172 -0.195313,5.93359 "/>
</g>

<g fill="none" stroke="#000000" stroke-opacity="1" stroke-width="1" stroke-linecap="square" stroke-linejoin="bevel" transform="matrix(1,0,0,1,0,0)"
font-family="MS Shell Dlg 2" font-size="9.8" font-weight="400" font-style="normal" 
>
</g>

<g fill="#000000" fill-opacity="1" stroke="none" transform="matrix(1,0,0,1,15.8203,12.7344)"
font-family="MS Shell Dlg 2" font-size="9.8" font-weight="400" font-style="normal" 
>
<path vector-effect="none" fill-rule="nonzero" d="M-0.125,5.46484 C0.0390625,5.69141 4.66016,13.6445 13.7383,29.3242 C13.7383,29.4414 13.6797,29.5 13.5625,29.5 L-14,29.5 L-14,29.3242 C-5.15625,13.9336 -0.53125,5.98047 -0.125,5.46484 M-0.21875,9.51953 C-1.42187,11.6992 -4.83594,17.6406 -10.4609,27.3438 L10.2109,27.3438 C4.00781,16.6641 0.589844,10.7227 -0.0429688,9.51953 L-0.21875,9.51953 M-0.21875,11.7578 L0.121094,12.8711 L-1.33203,16.9258 L-1.33203,17.0078 L-1.25,17.0078 L0.90625,14.1719 L1.16406,14.5117 L-4.00391,22.4336 L-4.17969,22.4336 C-4.40625,22.3242 -4.51953,22.2383 -4.51953,22.1758 L-2.97266,16.75 L-2.79688,16.4922 L-2.79688,16.832 L-4.17969,21.4844 L-4.17969,21.5781 L-4.08594,21.5781 C-4.03125,21.2891 -2.80078,18.1289 -0.394531,12.0977 L-0.21875,11.7578 M0.566406,13.3047 L0.648438,13.3047 C0.757813,13.3047 0.8125,13.3633 0.8125,13.4805 L0.8125,13.5625 C0.8125,13.6719 0.757813,13.7266 0.648438,13.7266 C0.59375,13.7266 0.507813,13.6445 0.390625,13.4805 C0.390625,13.3633 0.449219,13.3047 0.566406,13.3047 M-2.53906,15.625 L-2.28125,15.625 C-2.17188,15.625 -2.11719,15.6836 -2.11719,15.8008 L-2.11719,16.0586 C-2.11719,16.1758 -2.17188,16.2344 -2.28125,16.2344 L-2.53906,16.2344 C-2.60156,16.2344 -2.6875,16.1484 -2.79688,15.9766 L-2.79688,15.8945 C-2.79688,15.7773 -2.71094,15.6875 -2.53906,15.625 M0.472656,16.1406 L0.730469,16.1406 C0.847656,16.1406 0.933594,16.2852 0.988281,16.5742 L0.648438,16.832 L0.566406,16.832 C0.503906,16.832 0.414063,16.7461 0.296875,16.5742 L0.296875,16.3164 C0.296875,16.1992 0.355469,16.1406 0.472656,16.1406 M2.19531,16.4922 L2.45313,17.0078 L-3.74609,22.6094 L-3.83984,22.6094 L-3.83984,22.5156 C-0.847656,19.4766 1.16406,17.4688 2.19531,16.4922 M0.390625,17.1016 L0.472656,17.1016 C0.589844,17.1016 0.675781,17.1836 0.730469,17.3477 C0.730469,17.4102 0.644531,17.5 0.472656,17.6172 L0.390625,17.6172 C0.273438,17.6172 0.214844,17.5586 0.214844,17.4414 L0.214844,17.2656 C0.214844,17.1563 0.273438,17.1016 0.390625,17.1016 M1.77344,18.3789 C1.88281,18.3789 1.9375,18.4375 1.9375,18.5547 C1.9375,18.6719 1.88281,18.7305 1.77344,18.7305 L1.59766,18.7305 L1.59766,18.5547 C1.59766,18.4375 1.65625,18.3789 1.77344,18.3789 M1.24609,18.4727 L1.32813,18.4727 C1.44531,18.4727 1.50391,18.5313 1.50391,18.6484 C1.50391,18.7656 1.44531,18.8242 1.32813,18.8242 L1.24609,18.8242 C1.13672,18.8242 1.08203,18.7656 1.08203,18.6484 C1.08203,18.5313 1.13672,18.4727 1.24609,18.4727 M3.56641,18.8242 L4.17578,19.8555 C3.26172,20.3633 0.679687,21.4219 -3.57031,23.0313 L-3.66406,22.8672 L3.56641,18.8242 M0.8125,18.9883 L0.988281,18.9883 C1.10547,18.9883 1.16406,19.0469 1.16406,19.1641 L1.16406,19.5039 C1.16406,19.6211 1.10547,19.6797 0.988281,19.6797 L0.8125,19.6797 C0.757813,19.6797 0.675781,19.5938 0.566406,19.4219 L0.566406,19.2461 C0.566406,19.1289 0.648438,19.043 0.8125,18.9883 M-1.94141,19.7617 C-1.82422,19.7617 -1.76563,19.8203 -1.76563,19.9375 L-1.76563,20.0195 C-1.76563,20.1367 -1.82422,20.1953 -1.94141,20.1953 C-2.05859,20.1953 -2.11719,20.1367 -2.11719,20.0195 L-2.11719,19.9375 C-2.11719,19.8203 -2.05859,19.7617 -1.94141,19.7617 M4.86719,20.3711 L4.94922,20.3711 C5.06641,20.3711 5.125,20.4297 5.125,20.5469 C5.125,20.6563 5.06641,20.7109 4.94922,20.7109 L4.86719,20.7109 C4.75,20.7109 4.69141,20.6563 4.69141,20.5469 C4.69141,20.4297 4.75,20.3711 4.86719,20.3711 M-4.77734,20.3711 L-4.77734,22.0938 C-4.77734,22.2109 -4.83594,22.2695 -4.95313,22.2695 L-5.04688,22.2695 L-5.29297,21.0625 L-4.77734,20.3711 M3.22656,20.5469 L3.32031,20.5469 C3.4375,20.5469 3.49609,20.6016 3.49609,20.7109 C3.49609,20.8281 3.4375,20.8867 3.32031,20.8867 L3.22656,20.8867 C3.10938,20.8867 3.05078,20.8281 3.05078,20.7109 C3.05078,20.6016 3.10938,20.5469 3.22656,20.5469 M4.09375,20.9688 L4.17578,20.9688 C4.29297,20.9688 4.35156,21.0273 4.35156,21.1445 C4.35156,21.2539 4.29297,21.3086 4.17578,21.3086 L4.09375,21.3086 C3.97656,21.3086 3.91797,21.2539 3.91797,21.1445 C3.91797,21.0273 3.97656,20.9688 4.09375,20.9688 M7.79688,26.2305 L8.13672,26.7461 L7.01172,26.7461 L-3.39453,23.9922 L-3.39453,23.8984 L-3.23047,23.8164 L7.79688,26.2305 M-3.39453,23.4648 L-3.39453,23.3828 L5.64063,21.7422 L6.15625,22.4336 L3.49609,23.0313 L6.76563,23.8164 L6.84766,23.9922 L-3.39453,23.4648 M-5.80859,21.918 L-5.46875,22.5156 L-5.64453,22.6094 L-6.07813,22.2695 L-5.80859,21.918 M-0.476563,22.0938 L-0.394531,22.0938 C-0.277344,22.0938 -0.21875,22.1523 -0.21875,22.2695 L-0.21875,22.4336 C-0.21875,22.5508 -0.277344,22.6094 -0.394531,22.6094 L-0.558594,22.6094 C-0.675781,22.6094 -0.734375,22.5508 -0.734375,22.4336 L-0.734375,22.3398 C-0.734375,22.2305 -0.648438,22.1484 -0.476563,22.0938 M-6.41797,22.5156 C-6.12891,22.8047 -5.84375,22.9492 -5.5625,22.9492 C-5.38281,23.293 -5.15234,23.4922 -4.87109,23.5469 L-4.74219,23.5469 C-4.1875,23.5469 -3.82813,23.8945 -3.66406,24.5898 C-3.25781,24.6992 -3.05469,24.8438 -3.05469,25.0234 C-3.51563,25.4844 -4.00391,25.7148 -4.51953,25.7148 L-4.66016,25.7148 C-6.17578,25.7148 -6.93359,24.9883 -6.93359,23.5352 L-6.93359,23.3828 C-6.82422,22.8047 -6.65234,22.5156 -6.41797,22.5156 M-4.77734,22.6094 L-4.69531,22.6094 C-4.57813,22.6094 -4.49219,22.6953 -4.4375,22.8672 C-4.4375,22.9219 -4.52344,23.0078 -4.69531,23.125 L-4.77734,23.125 C-4.89453,23.125 -4.95313,23.0664 -4.95313,22.9492 L-4.95313,22.7852 C-4.95313,22.668 -4.89453,22.6094 -4.77734,22.6094 M-4.17969,22.7852 L-4.00391,22.7852 L-4.00391,22.9492 C-4.00391,23.0664 -4.0625,23.125 -4.17969,23.125 C-4.29688,23.125 -4.35547,23.0664 -4.35547,22.9492 C-4.35547,22.8398 -4.29688,22.7852 -4.17969,22.7852 M0.472656,23.8164 L0.648438,23.8164 C0.757813,23.8164 0.8125,23.875 0.8125,23.9922 L0.8125,24.1563 C0.8125,24.2734 0.757813,24.332 0.648438,24.332 L0.472656,24.332 C0.355469,24.332 0.296875,24.2734 0.296875,24.1563 L0.296875,23.9922 C0.296875,23.875 0.355469,23.8164 0.472656,23.8164 M-3.57031,24.1563 L-3.48828,24.1563 L2.53516,26.8281 L1.16406,26.8281 L-3.57031,24.1563 M5.04297,24.1563 L5.125,24.1563 C5.23438,24.1563 5.34766,24.2734 5.46484,24.5078 C5.46484,24.5625 5.35156,24.6758 5.125,24.8477 L5.04297,24.8477 C4.98047,24.8477 4.89063,24.7617 4.77344,24.5898 L4.77344,24.4141 C4.77344,24.2969 4.86328,24.2109 5.04297,24.1563 M2.71094,24.4141 L2.88672,24.4141 C2.99609,24.4141 3.08203,24.5 3.14453,24.6719 C3.14453,24.7266 3.05859,24.8125 2.88672,24.9297 L2.80469,24.9297 C2.74219,24.9297 2.65234,24.8438 2.53516,24.6719 L2.53516,24.5898 C2.53516,24.4727 2.59375,24.4141 2.71094,24.4141 M6.94141,24.9297 C7.05078,24.9297 7.13281,25.0156 7.1875,25.1875 C7.1875,25.3047 7.12891,25.3633 7.01172,25.3633 L6.94141,25.3633 C6.82422,25.3633 6.76563,25.3047 6.76563,25.1875 L6.76563,25.1055 C6.76563,24.9883 6.82422,24.9297 6.94141,24.9297 M-2.71484,25.0234 L-2.53906,25.0234 C-2.42188,25.0234 -2.33594,25.1055 -2.28125,25.2695 L-2.28125,25.5391 C-2.28125,25.6563 -2.33984,25.7148 -2.45703,25.7148 L-2.71484,25.7148 C-2.76953,25.7148 -2.85547,25.5977 -2.97266,25.3633 C-2.85547,25.1367 -2.76953,25.0234 -2.71484,25.0234 M1.59766,25.5391 L1.84375,25.5391 C1.96094,25.5391 2.01953,25.5977 2.01953,25.7148 L2.01953,25.9609 C2.01953,26.0781 1.96094,26.1367 1.84375,26.1367 L1.59766,26.1367 C1.48047,26.1367 1.39063,25.9961 1.32813,25.7148 L1.59766,25.5391 M-5.46875,21.4844 C-5.35156,21.4844 -5.26563,21.5703 -5.21094,21.7422 C-5.21094,21.7969 -5.29688,21.8555 -5.46875,21.918 C-5.58594,21.918 -5.64453,21.8594 -5.64453,21.7422 L-5.64453,21.6602 C-5.64453,21.543 -5.58594,21.4844 -5.46875,21.4844 M-4.35547,19.8555 L-4.26172,19.8555 C-4.14453,19.8555 -4.08594,19.8828 -4.08594,19.9375 L-4.08594,20.1953 C-4.08594,20.3125 -4.14453,20.3711 -4.26172,20.3711 L-4.35547,20.3711 C-4.46484,20.3711 -4.54688,20.3125 -4.60156,20.1953 L-4.60156,20.0195 C-4.60156,19.9648 -4.51953,19.9102 -4.35547,19.8555 M1.84375,21.6602 L1.9375,21.6602 C2.10938,21.6602 2.19531,21.7461 2.19531,21.918 C2.19531,22.0352 2.10938,22.0938 1.9375,22.0938 L1.84375,22.0938 C1.67969,22.0938 1.59766,22.0352 1.59766,21.918 C1.59766,21.7461 1.67969,21.6602 1.84375,21.6602 "/>
</g>

<g fill="none" stroke="#000000" stroke-opacity="1" stroke-width="1" stroke-linecap="square" stroke-linejoin="bevel" transform="matrix(1,0,0,1,0,0)"
font-family="MS Shell Dlg 2" font-size="9.8" font-weight="400" font-style="normal" 
>
</g>
</g>
</svg>
