<?xml version="1.0" encoding="UTF-8" standalone="no"?>
<svg width="11.2889mm" height="11.2889mm"
 viewBox="0 0 32 32"
 xmlns="http://www.w3.org/2000/svg" xmlns:xlink="http://www.w3.org/1999/xlink"  version="1.2" baseProfile="tiny">
<title>Qt SVG Document</title>
<desc>Generated with Qt</desc>
<defs>
</defs>
<g fill="none" stroke="black" stroke-width="1" fill-rule="evenodd" stroke-linecap="square" stroke-linejoin="bevel" >

<g fill="#ffff00" fill-opacity="1" stroke="none" transform="matrix(1,0,0,1,15.9219,12.7344)"
font-family="MS Shell Dlg 2" font-size="9.8" font-weight="400" font-style="normal" 
>
<path vector-effect="none" fill-rule="nonzero" d="M14.125,27.0039 C14.125,27.707 13.8965,28.2988 13.4395,28.7793 C12.9824,29.2598 12.4102,29.5 11.7227,29.5 L-11.5391,29.5 C-12.2422,29.5 -12.8281,29.2598 -13.2969,28.7793 C-13.7656,28.2988 -14,27.707 -14,27.0039 C-14,26.5586 -13.8516,26.1055 -13.5547,25.6445 L-2.04688,5.76953 C-1.58594,4.90234 -0.875,4.46875 0.0859375,4.46875 C1.23438,4.46875 2,4.98438 2.38281,6.01563 L13.6563,25.6094 C13.9688,25.9844 14.125,26.4492 14.125,27.0039 "/>
</g>

<g fill="none" stroke="#000000" stroke-opacity="1" stroke-width="1" stroke-linecap="square" stroke-linejoin="bevel" transform="matrix(1,0,0,1,0,0)"
font-family="MS Shell Dlg 2" font-size="9.8" font-weight="400" font-style="normal" 
>
</g>

<g fill="#000000" fill-opacity="1" stroke="none" transform="matrix(1,0,0,1,15.7266,12.7344)"
font-family="MS Shell Dlg 2" font-size="9.8" font-weight="400" font-style="normal" 
>
<path vector-effect="none" fill-rule="nonzero" d="M-0.675781,5.94531 C-0.472656,5.72656 -0.273437,5.61719 -0.078125,5.61719 C0.109375,5.61719 0.292969,5.71875 0.472656,5.92188 L13.457,28.1055 C13.5508,28.3398 13.5977,28.5469 13.5977,28.7266 C13.5977,29.1328 13.3516,29.3906 12.8594,29.5 L-13.3203,29.5 C-13.7734,29.3203 -14,29 -14,28.5391 C-14,28.4375 -13.9883,28.3281 -13.9648,28.2109 L-0.675781,5.94531 M-11.1289,27.5664 L10.5273,27.5664 L-0.0664063,9.02734 L-11.1289,27.5664 M-4.58984,18.8359 L-1.36719,18.8359 C-0.929688,18.9063 -0.710938,19.1211 -0.710938,19.4805 L-0.710938,19.8086 C-0.710938,20.2383 -0.929688,20.4531 -1.36719,20.4531 L-3.94531,20.4531 L-3.94531,22.0703 L-1.68359,22.0703 C-1.25391,22.1328 -1.03906,22.3477 -1.03906,22.7148 L-1.03906,23.0313 C-1.03906,23.4688 -1.25391,23.6875 -1.68359,23.6875 L-3.94531,23.6875 L-3.94531,25.3047 L-1.36719,25.3047 C-0.929688,25.3672 -0.710938,25.582 -0.710938,25.9492 L-0.710938,26.2656 C-0.710938,26.6953 -0.929688,26.9102 -1.36719,26.9102 L-4.58984,26.9102 C-5.01953,26.9102 -5.23438,26.6953 -5.23438,26.2656 L-5.23438,19.4805 C-5.17188,19.0508 -4.95703,18.8359 -4.58984,18.8359 M-0.289063,18.8594 L1.17578,18.8594 L2.47656,21.4727 L3.67188,18.8594 L5.03125,18.8594 L3.20313,22.7969 L5.23047,26.9453 L3.61328,26.9453 L2.3125,24.25 L1.07031,26.9453 L-0.394531,26.9453 L-0.394531,26.8633 L1.5625,22.8555 L-0.289063,18.8594"/>
</g>

<g fill="none" stroke="#000000" stroke-opacity="1" stroke-width="1" stroke-linecap="square" stroke-linejoin="bevel" transform="matrix(1,0,0,1,0,0)"
font-family="MS Shell Dlg 2" font-size="9.8" font-weight="400" font-style="normal" 
>
</g>
</g>
</svg>
