<?xml version="1.0" encoding="UTF-8" standalone="no"?>
<svg width="11.2889mm" height="11.2889mm"
 viewBox="0 0 32 32"
 xmlns="http://www.w3.org/2000/svg" xmlns:xlink="http://www.w3.org/1999/xlink"  version="1.2" baseProfile="tiny">
<title>Qt SVG Document</title>
<desc>Generated with Qt</desc>
<defs>
</defs>
<g fill="none" stroke="black" stroke-width="1" fill-rule="evenodd" stroke-linecap="square" stroke-linejoin="bevel" >

<g fill="#ffffff" fill-opacity="1" stroke="none" transform="matrix(1,0,0,1,15.6016,12.7344)"
font-family="MS Shell Dlg 2" font-size="9.8" font-weight="400" font-style="normal" 
>
<path vector-effect="none" fill-rule="nonzero" d="M-15.75,8.34766 L15.457,8.34766 C15.6211,8.41016 15.7031,8.49609 15.7031,8.60547 L15.7031,23.8633 C15.7031,24.0352 15.6211,24.1211 15.457,24.1211 L-15.75,24.1211 C-15.9219,24.1211 -16.0078,24.0352 -16.0078,23.8633 L-16.0078,8.60547 C-15.9453,8.43359 -15.8594,8.34766 -15.75,8.34766 M-15.5977,28.8789 L-15.5977,29.1953 C-15.6055,29.1953 -15.6094,29.1641 -15.6094,29.1016 L-15.6094,28.9844 C-15.6094,28.9141 -15.6055,28.8789 -15.5977,28.8789 M-9.24609,29.4297 L-9.24609,29.5 L-9.28125,29.5 L-9.28125,29.4297 L-9.24609,29.4297"/>
</g>

<g fill="none" stroke="#000000" stroke-opacity="1" stroke-width="1" stroke-linecap="square" stroke-linejoin="bevel" transform="matrix(1,0,0,1,0,0)"
font-family="MS Shell Dlg 2" font-size="9.8" font-weight="400" font-style="normal" 
>
</g>

<g fill="#ffff00" fill-opacity="1" stroke="none" transform="matrix(1,0,0,1,15.5313,12.7344)"
font-family="MS Shell Dlg 2" font-size="9.8" font-weight="400" font-style="normal" 
>
<path vector-effect="none" fill-rule="nonzero" d="M-15.668,23.1016 C-15.543,23.1016 -5.15625,18.6484 15.4922,9.74219 L15.5859,9.74219 L15.5977,23.1953 L-15.668,23.1953 L-15.668,23.1016 M-15.5977,28.8789 L-15.5977,29.1953 C-15.6055,29.1953 -15.6094,29.1641 -15.6094,29.1016 L-15.6094,28.9844 C-15.6094,28.9141 -15.6055,28.8789 -15.5977,28.8789 M-9.24609,29.4297 L-9.24609,29.5 L-9.28125,29.5 L-9.28125,29.4297 L-9.24609,29.4297 M-15.3281,8.42969 L-15.3281,8.51172 L-15.668,8.51172 L-15.668,8.42969 L-15.3281,8.42969"/>
</g>

<g fill="none" stroke="#000000" stroke-opacity="1" stroke-width="1" stroke-linecap="square" stroke-linejoin="bevel" transform="matrix(1,0,0,1,0,0)"
font-family="MS Shell Dlg 2" font-size="9.8" font-weight="400" font-style="normal" 
>
</g>

<g fill="#000000" fill-opacity="1" stroke="none" transform="matrix(1,0,0,1,15.9297,12.7344)"
font-family="MS Shell Dlg 2" font-size="9.8" font-weight="400" font-style="normal" 
>
<path vector-effect="none" fill-rule="nonzero" d="M-14.3555,24.625 C-13.5664,24.625 -13.082,24.9531 -12.9023,25.6094 L-13.4297,25.6094 C-13.4766,25.2578 -13.7852,25.082 -14.3555,25.082 C-14.9258,25.082 -15.2773,25.457 -15.4102,26.207 C-15.3633,27.082 -14.9883,27.5195 -14.2852,27.5195 C-13.668,27.5195 -13.3398,27.3867 -13.3008,27.1211 L-13.3008,26.6641 L-14.1563,26.6641 L-14.1563,26.2656 L-12.832,26.2656 L-12.832,27.1211 C-12.9648,27.6523 -13.4492,27.918 -14.2852,27.918 C-15.3008,27.918 -15.8086,27.3477 -15.8086,26.207 C-15.7617,25.1914 -15.2773,24.6641 -14.3555,24.625 M-11.5898,24.625 L-10.9922,24.625 L-9.86719,27.918 L-10.3945,27.918 L-10.6641,26.9336 L-11.7773,26.9336 L-12.0469,27.918 L-12.5039,27.918 L-11.5898,24.625 M-8.35547,24.625 C-7.60547,24.625 -7.1875,24.9531 -7.10156,25.6094 L-7.5,25.6094 C-7.58594,25.2578 -7.84766,25.0586 -8.28516,25.0117 C-8.68359,25.0117 -8.90625,25.168 -8.95313,25.4805 C-8.95313,25.6523 -8.63281,25.8379 -7.99219,26.0371 C-7.35156,26.2363 -7.03125,26.5781 -7.03125,27.0625 C-7.07812,27.6328 -7.45312,27.918 -8.15625,27.918 C-8.94531,27.918 -9.36328,27.543 -9.41016,26.793 L-8.95313,26.793 C-8.95313,27.2773 -8.6875,27.5195 -8.15625,27.5195 C-7.71875,27.4805 -7.5,27.3281 -7.5,27.0625 C-7.5,26.7109 -7.82812,26.457 -8.48438,26.3008 C-9.10156,26.1523 -9.41016,25.9063 -9.41016,25.5625 L-9.41016,25.4805 C-9.41016,24.9102 -9.05859,24.625 -8.35547,24.625 M-11.25,25.0117 L-11.7188,26.5352 L-10.793,26.5352 L-11.25,25.0117 M-10.6641,28.2461 L-10.5352,28.2461 L-10.5352,28.4453 L-10.6641,28.4453 L-10.6641,28.2461 M-5.26172,28.3164 L-5.12109,28.3164 C-5.03516,28.3164 -4.99219,28.3594 -4.99219,28.4453 L-4.99219,29.1016 L-4.86328,29.1016 L-4.86328,29.2305 L-5.32031,29.2305 L-5.32031,29.1016 L-5.12109,29.1016 L-5.12109,28.4453 L-5.26172,28.4453 L-5.26172,28.3164 M-15.4102,28.375 C-15.1914,28.375 -15.0586,28.4648 -15.0117,28.6445 L-15.0117,28.9727 C-15.0117,29.1445 -15.1641,29.2305 -15.4688,29.2305 L-15.668,29.2305 L-15.668,28.375 L-15.4102,28.375 M-15.5391,28.5156 L-15.5391,29.1016 L-15.3398,29.1016 C-15.207,29.1016 -15.1406,29.0352 -15.1406,28.9023 L-15.1406,28.7031 C-15.1406,28.5781 -15.207,28.5156 -15.3398,28.5156 L-15.5391,28.5156 M-14.6133,28.5742 L-14.5547,28.5742 C-14.3672,28.5742 -14.2734,28.668 -14.2734,28.8555 C-14.2734,28.8945 -14.2773,28.9336 -14.2852,28.9727 L-14.7539,28.9727 C-14.7539,29.0586 -14.6875,29.1016 -14.5547,29.1016 L-14.2852,29.1016 L-14.2852,29.2305 L-14.6836,29.2305 C-14.8164,29.2305 -14.8828,29.1445 -14.8828,28.9727 L-14.8828,28.8438 C-14.8828,28.6641 -14.793,28.5742 -14.6133,28.5742 M-11.9766,28.5742 L-11.9766,28.7031 C-12.1953,28.7031 -12.3047,28.7695 -12.3047,28.9023 C-12.3047,29.043 -12.2344,29.1133 -12.0938,29.1133 C-12.0625,29.1133 -12.0234,29.1094 -11.9766,29.1016 L-11.9766,29.2305 C-12.0312,29.2383 -12.082,29.2422 -12.1289,29.2422 C-12.3789,29.2422 -12.5039,29.1289 -12.5039,28.9023 C-12.5039,28.6836 -12.3281,28.5742 -11.9766,28.5742 M-10.793,28.5742 L-10.6641,28.5742 C-10.5781,28.5742 -10.5352,28.6172 -10.5352,28.7031 L-10.5352,29.1016 L-10.3945,29.1016 L-10.3945,29.2305 L-10.8633,29.2305 L-10.8633,29.1016 L-10.6641,29.1016 L-10.6641,28.7031 L-10.793,28.7031 L-10.793,28.5742 M-9.14063,28.5742 L-9.14063,28.6445 C-9.09375,28.6367 -9.05078,28.6328 -9.01172,28.6328 C-8.83203,28.6328 -8.72266,28.7227 -8.68359,28.9023 C-8.68359,29.1289 -8.79297,29.2422 -9.01172,29.2422 C-9.05078,29.2422 -9.09375,29.2383 -9.14063,29.2305 L-9.14063,29.5 L-9.33984,29.5 L-9.33984,28.5742 L-9.14063,28.5742 M-8.48438,28.6445 C-8.39844,28.5977 -8.26563,28.5742 -8.08594,28.5742 C-8,28.5742 -7.95703,28.6172 -7.95703,28.7031 L-7.95703,29.2305 L-8.35547,29.2305 C-8.48828,29.2305 -8.55469,29.168 -8.55469,29.043 C-8.55469,28.9102 -8.39844,28.8438 -8.08594,28.8438 L-8.08594,28.7031 C-8.21875,28.7031 -8.33203,28.7266 -8.42578,28.7734 L-8.48438,28.6445 M-7.62891,28.5742 L-7.62891,28.6445 C-7.57422,28.6367 -7.52344,28.6328 -7.47656,28.6328 C-7.27344,28.6328 -7.17187,28.7227 -7.17188,28.9023 L-7.17188,29.2305 L-7.30078,29.2305 L-7.30078,28.9023 C-7.30078,28.8008 -7.35937,28.75 -7.47656,28.75 C-7.52344,28.75 -7.57422,28.7578 -7.62891,28.7734 L-7.62891,29.2305 L-7.75781,29.2305 L-7.75781,28.5742 L-7.62891,28.5742 M-14.7539,28.8438 L-14.4141,28.8438 C-14.4141,28.75 -14.4609,28.7031 -14.5547,28.7031 L-14.6133,28.7031 C-14.707,28.7031 -14.7539,28.75 -14.7539,28.8438 M-9.14063,28.7734 L-9.14063,29.1016 C-9.09375,29.1094 -9.05469,29.1133 -9.02344,29.1133 C-8.88281,29.1133 -8.8125,29.043 -8.8125,28.9023 C-8.84375,28.8008 -8.91406,28.75 -9.02344,28.75 C-9.05469,28.75 -9.09375,28.7578 -9.14063,28.7734 M-8.08594,28.9727 L-8.17969,28.9727 C-8.29688,28.9727 -8.35547,28.9961 -8.35547,29.043 L-8.35547,29.0664 C-8.35547,29.1133 -8.32422,29.1367 -8.26172,29.1367 C-8.21484,29.1367 -8.15625,29.125 -8.08594,29.1016 L-8.08594,28.9727 M-13.0313,28.5742 L-12.9727,28.5742 C-12.7852,28.5742 -12.6914,28.668 -12.6914,28.8555 C-12.6914,28.8945 -12.6953,28.9336 -12.7031,28.9727 L-13.1719,28.9727 C-13.1719,29.0586 -13.1055,29.1016 -12.9727,29.1016 L-12.7031,29.1016 L-12.7031,29.2305 L-13.1016,29.2305 C-13.2344,29.2305 -13.3008,29.1445 -13.3008,28.9727 L-13.3008,28.8438 C-13.3008,28.6641 -13.2109,28.5742 -13.0313,28.5742 M-13.1719,28.8438 L-12.832,28.8438 C-12.832,28.75 -12.8789,28.7031 -12.9727,28.7031 L-13.0313,28.7031 C-13.125,28.7031 -13.1719,28.75 -13.1719,28.8438 M-9.9375,28.5742 L-9.86719,28.5742 C-9.6875,28.5742 -9.59766,28.6641 -9.59766,28.8438 C-9.59766,28.8828 -9.60156,28.9258 -9.60938,28.9727 L-10.0664,28.9727 C-10.0664,29.0586 -10,29.1016 -9.86719,29.1016 L-9.60938,29.1016 L-9.60938,29.2305 L-10.0078,29.2305 C-10.1328,29.2305 -10.1953,29.1445 -10.1953,28.9727 L-10.1953,28.8438 C-10.1953,28.6641 -10.1094,28.5742 -9.9375,28.5742 M-10.0664,28.8438 L-9.73828,28.8438 C-9.73828,28.75 -9.78125,28.7031 -9.86719,28.7031 L-9.9375,28.7031 C-10.0234,28.7031 -10.0664,28.75 -10.0664,28.8438 M-6.70313,28.5742 L-6.64453,28.5742 C-6.42578,28.5742 -6.31641,28.707 -6.31641,28.9727 L-6.84375,28.9727 C-6.84375,29.0586 -6.77734,29.1016 -6.64453,29.1016 L-6.31641,29.1016 L-6.31641,29.2305 L-6.77344,29.2305 C-6.90625,29.2305 -6.97266,29.1445 -6.97266,28.9727 L-6.97266,28.8438 C-6.92578,28.6641 -6.83594,28.5742 -6.70313,28.5742 M-6.84375,28.8438 L-6.44531,28.8438 C-6.44531,28.75 -6.48828,28.7031 -6.57422,28.7031 L-6.70313,28.7031 C-6.79687,28.7031 -6.84375,28.75 -6.84375,28.8438 M-5.91797,28.5742 L-5.84766,28.5742 C-5.62891,28.5742 -5.51953,28.707 -5.51953,28.9727 L-6.04688,28.9727 C-6.04687,29.0586 -5.98047,29.1016 -5.84766,29.1016 L-5.51953,29.1016 L-5.51953,29.2305 L-5.97656,29.2305 C-6.10937,29.2305 -6.17578,29.1445 -6.17578,28.9727 L-6.17578,28.8438 C-6.13672,28.6641 -6.05078,28.5742 -5.91797,28.5742 M-6.04688,28.8438 L-5.64844,28.8438 C-5.64844,28.75 -5.69531,28.7031 -5.78906,28.7031 L-5.91797,28.7031 C-6.00391,28.7031 -6.04687,28.75 -6.04688,28.8438 M-11.5898,28.375 L-11.4492,28.4453 L-11.4492,28.5742 L-11.25,28.5742 L-11.25,28.7031 L-11.4492,28.7031 L-11.4492,29.1016 L-11.25,29.1016 L-11.25,29.2305 L-11.4492,29.2305 C-11.543,29.2305 -11.5898,29.168 -11.5898,29.043 L-11.5898,28.7031 L-11.7188,28.7031 L-11.7188,28.5742 L-11.5898,28.5742 L-11.5898,28.375 M-13.957,28.4453 L-13.7578,28.4453 L-13.7578,28.5742 L-13.6289,28.5742 L-13.6289,28.7031 L-13.7578,28.7031 L-13.7578,29.1016 L-13.5586,29.1016 L-13.5586,29.2305 L-13.7578,29.2305 C-13.8906,29.2305 -13.957,29.168 -13.957,29.043 L-13.957,28.7031 L-14.0859,28.7031 L-14.0859,28.5742 L-13.957,28.5742 L-13.957,28.4453 M-16.2305,8.07813 L15.9375,8.07813 C16.1094,8.14063 16.1953,8.23047 16.1953,8.34766 L16.1953,24.0742 C16.1953,24.2539 16.1094,24.3438 15.9375,24.3438 L-16.2305,24.3438 C-16.4102,24.3438 -16.5,24.2539 -16.5,24.0742 L-16.5,8.34766 C-16.4375,8.16797 -16.3477,8.07813 -16.2305,8.07813 M-15,9.83594 L-15,22.0586 L13.7344,9.92969 L13.7344,9.83594 L-15,9.83594 M-13.5938,22.2344 L-13.5938,22.3164 L14.8828,22.3164 L14.8828,10.3633 L14.7891,10.3633 C-4.01562,18.2773 -13.4766,22.2344 -13.5938,22.2344 "/>
</g>

<g fill="none" stroke="#000000" stroke-opacity="1" stroke-width="1" stroke-linecap="square" stroke-linejoin="bevel" transform="matrix(1,0,0,1,0,0)"
font-family="MS Shell Dlg 2" font-size="9.8" font-weight="400" font-style="normal" 
>
</g>
</g>
</svg>
