<?xml version="1.0" encoding="UTF-8" standalone="no"?>
<svg width="11.2889mm" height="11.2889mm"
 viewBox="0 0 32 32"
 xmlns="http://www.w3.org/2000/svg" xmlns:xlink="http://www.w3.org/1999/xlink"  version="1.2" baseProfile="tiny">
<title>Qt SVG Document</title>
<desc>Generated with Qt</desc>
<defs>
</defs>
<g fill="none" stroke="black" stroke-width="1" fill-rule="evenodd" stroke-linecap="square" stroke-linejoin="bevel" >

<g fill="#ffffff" fill-opacity="1" stroke="none" transform="matrix(1,0,0,1,15.5938,12.7344)"
font-family="MS Shell Dlg 2" font-size="9.8" font-weight="400" font-style="normal" 
>
<path vector-effect="none" fill-rule="nonzero" d="M11.0977,6.41406 L11.0977,29.0078 L-11.5078,29.0078 L-11.5078,6.41406 L11.0977,6.41406"/>
</g>

<g fill="none" stroke="#000000" stroke-opacity="1" stroke-width="1" stroke-linecap="square" stroke-linejoin="bevel" transform="matrix(1,0,0,1,0,0)"
font-family="MS Shell Dlg 2" font-size="9.8" font-weight="400" font-style="normal" 
>
</g>

<g fill="#000000" fill-opacity="1" stroke="none" transform="matrix(1,0,0,1,15.9141,12.7344)"
font-family="MS Shell Dlg 2" font-size="9.8" font-weight="400" font-style="normal" 
>
<path vector-effect="none" fill-rule="nonzero" d="M11.5781,5.92188 L11.5781,29.5 L-12,29.5 L-12,5.92188 L11.5781,5.92188 M-11.0742,6.84766 L-11.0742,28.5742 L10.6523,28.5742 L10.6523,6.84766 L-11.0742,6.84766 M-0.210938,13.4219 C3.46094,13.4688 5.83594,15.3047 6.91406,18.9297 L-7.25391,18.9297 C-6.03516,15.2578 -3.6875,13.4219 -0.210938,13.4219 M-5.71875,19.7031 L-4.80469,20.1602 L-6.55078,22.2227 L-7.40625,21.6953 L-5.71875,19.7031 M5.29688,19.6094 L6.83203,22 L5.98828,22.5273 L4.3125,20.0781 L5.29688,19.6094 M-3.19922,20.4766 L-2.27344,20.8398 L-3.19922,23.4414 L-4.19531,23.0664 L-3.19922,20.4766 M2.69531,20.4766 L3.77344,23.2188 L2.84766,23.5352 L1.78125,20.7695 L2.69531,20.4766 M0.105469,20.7695 L0.105469,23.8281 L-0.820313,23.8281 L-0.820313,20.7695 L0.105469,20.7695 M-8.09766,22.6914 L-7.32422,23.1484 L-9.09375,25.0586 L-9.85547,24.5195 L-8.09766,22.6914 M7.59375,22.832 L9.21094,24.6719 L8.36719,25.2109 L6.83203,23.3711 L7.59375,22.832 M-4.57031,24.2148 L-3.64453,24.6016 L-4.65234,26.8164 L-5.56641,26.4414 L-4.57031,24.2148 M4.07813,24.2852 L5.00391,26.5938 L4.07813,26.8984 L3.16406,24.6016 L4.07813,24.2852 M0.105469,24.9063 L0.105469,27.3555 L-0.820313,27.3555 L-0.820313,24.9063 L0.105469,24.9063"/>
</g>

<g fill="none" stroke="#000000" stroke-opacity="1" stroke-width="1" stroke-linecap="square" stroke-linejoin="bevel" transform="matrix(1,0,0,1,0,0)"
font-family="MS Shell Dlg 2" font-size="9.8" font-weight="400" font-style="normal" 
>
</g>

<g fill="#9c9c9c" fill-opacity="1" stroke="none" transform="matrix(1,0,0,1,12.3438,12.7344)"
font-family="MS Shell Dlg 2" font-size="9.8" font-weight="400" font-style="normal" 
>
<path vector-effect="none" fill-rule="nonzero" d="M-0.199219,13.8086 C3.07422,13.957 5.21484,15.5313 6.22266,18.5313 L-6.5625,18.5313 C-5.45313,15.4297 -3.33203,13.8555 -0.199219,13.8086 M-0.855469,5.95703 L-0.855469,6.00391 L-0.902344,6.00391 L-0.902344,5.95703 L-0.855469,5.95703 M0.0117188,29.3945 L0.0117188,29.4297 L-0.046875,29.4297 L-0.046875,29.3945 L0.0117188,29.3945"/>
</g>

<g fill="none" stroke="#000000" stroke-opacity="1" stroke-width="1" stroke-linecap="square" stroke-linejoin="bevel" transform="matrix(1,0,0,1,0,0)"
font-family="MS Shell Dlg 2" font-size="9.8" font-weight="400" font-style="normal" 
>
</g>

<g fill="#000000" fill-opacity="1" stroke="none" transform="matrix(1,0,0,1,11.5781,12.7344)"
font-family="MS Shell Dlg 2" font-size="9.8" font-weight="400" font-style="normal" 
>
<path vector-effect="none" fill-rule="nonzero" d="M-3.77344,7.73828 L-3.49219,7.73828 C-2.76563,7.73828 -2.23828,8.14063 -1.91016,8.94531 C-2.05859,9.04688 -2.30859,9.13672 -2.66016,9.21484 C-2.92578,8.72266 -3.26562,8.47656 -3.67969,8.47656 L-3.77344,8.47656 C-4.45313,8.47656 -4.79297,8.91016 -4.79297,9.77734 L-4.79297,10.0586 C-4.79297,10.9258 -4.45313,11.3594 -3.77344,11.3594 L-3.67969,11.3594 C-3.28125,11.3594 -2.94141,11.0469 -2.66016,10.4219 C-2.16016,10.5703 -1.91016,10.6953 -1.91016,10.7969 C-2.25391,11.6641 -2.8125,12.0977 -3.58594,12.0977 L-3.77344,12.0977 C-4.88281,12.0977 -5.5,11.3867 -5.625,9.96484 L-5.625,9.68359 C-5.42188,8.38672 -4.80469,7.73828 -3.77344,7.73828 M0.585938,7.73828 C1.9375,7.73828 2.65234,8.48047 2.73047,9.96484 C2.65234,11.3945 2.01563,12.1367 0.820313,12.1914 C-0.484375,12.1836 -1.1875,11.4844 -1.28906,10.0938 L-1.28906,10.0117 C-1.28906,8.57422 -0.664062,7.81641 0.585938,7.73828 M4.13672,10.5625 C4.76172,10.5625 5.07422,10.875 5.07422,11.5 C5.07422,11.8047 4.69531,12.3164 3.9375,13.0352 L4.94531,13.0352 C5.03125,13.0508 5.07422,13.0977 5.07422,13.1758 L5.07422,13.5039 C5.07422,13.5977 5.03125,13.6445 4.94531,13.6445 L3.19922,13.6445 C3.11328,13.6445 3.07031,13.5977 3.07031,13.5039 C3.07031,13.293 3.33203,12.9297 3.85547,12.4141 C4.34766,11.9375 4.59375,11.5977 4.59375,11.3945 L4.59375,11.3594 C4.55469,11.1641 4.42188,11.0586 4.19531,11.043 L4.17188,11.043 C3.94531,11.043 3.75781,11.2188 3.60938,11.5703 L3.14063,11.3711 C3.32812,10.832 3.66016,10.5625 4.13672,10.5625 M-0.527344,10.0586 C-0.417969,10.9805 0.015625,11.4414 0.773438,11.4414 C1.41406,11.4414 1.78516,10.9805 1.88672,10.0586 C1.88672,9.00391 1.48047,8.47266 0.667969,8.46484 C-0.128906,8.47266 -0.527344,9.00391 -0.527344,10.0586 M-0.867188,6.01563 L-0.867188,6.12109 L-1.00781,6.12109 L-1.00781,6.01563 L-0.867188,6.01563 M1.25391,29.2539 L1.25391,29.3828 L1.125,29.3828 L1.125,29.2539 L1.25391,29.2539"/>
</g>

<g fill="none" stroke="#000000" stroke-opacity="1" stroke-width="1" stroke-linecap="square" stroke-linejoin="bevel" transform="matrix(1,0,0,1,0,0)"
font-family="MS Shell Dlg 2" font-size="9.8" font-weight="400" font-style="normal" 
>
</g>
</g>
</svg>
