<?xml version="1.0" encoding="UTF-8" standalone="no"?>
<svg width="11.2889mm" height="11.2889mm"
 viewBox="0 0 32 32"
 xmlns="http://www.w3.org/2000/svg" xmlns:xlink="http://www.w3.org/1999/xlink"  version="1.2" baseProfile="tiny">
<title>Qt SVG Document</title>
<desc>Generated with Qt</desc>
<defs>
</defs>
<g fill="none" stroke="black" stroke-width="1" fill-rule="evenodd" stroke-linecap="square" stroke-linejoin="bevel" >

<g fill="#ff0000" fill-opacity="1" stroke="none" transform="matrix(1,0,0,1,15.9063,12.7344)"
font-family="MS Shell Dlg 2" font-size="9.8" font-weight="400" font-style="normal" 
>
<path vector-effect="none" fill-rule="nonzero" d="M-0.121094,6.95313 C3.32422,6.95313 6.26563,8.42578 8.70313,11.3711 C10.2734,13.457 11.0586,15.7422 11.0586,18.2266 C11.0586,22.1953 9.16016,25.4219 5.36328,27.9063 C3.51953,28.8906 1.625,29.3828 -0.320313,29.3828 C-4.35938,29.3828 -7.65234,27.3594 -10.1992,23.3125 C-10.9883,21.5938 -11.3828,19.8633 -11.3828,18.1211 C-11.3828,13.8555 -9.35547,10.5625 -5.30078,8.24219 C-3.58203,7.38281 -1.85547,6.95313 -0.121094,6.95313 "/>
</g>

<g fill="none" stroke="#000000" stroke-opacity="1" stroke-width="1" stroke-linecap="square" stroke-linejoin="bevel" transform="matrix(1,0,0,1,0,0)"
font-family="MS Shell Dlg 2" font-size="9.8" font-weight="400" font-style="normal" 
>
</g>

<g fill="#000000" fill-opacity="1" stroke="none" transform="matrix(1,0,0,1,15.9766,12.7344)"
font-family="MS Shell Dlg 2" font-size="9.8" font-weight="400" font-style="normal" 
>
<path vector-effect="none" fill-rule="nonzero" d="M-0.121094,6.83594 C3.35547,6.83594 6.32422,8.32422 8.78516,11.3008 C10.3711,13.4102 11.1641,15.7188 11.1641,18.2266 C11.1641,22.2344 9.24609,25.4922 5.41016,28 C3.55078,29 1.64062,29.5 -0.320313,29.5 C-4.40625,29.5 -7.73438,27.4531 -10.3047,23.3594 C-11.1016,21.625 -11.5,19.8789 -11.5,18.1211 C-11.5,13.8086 -9.45312,10.4805 -5.35938,8.13672 C-3.625,7.26953 -1.87891,6.83594 -0.121094,6.83594 M-11.0898,18.1211 C-11.0898,20.9727 -9.90625,23.6445 -7.53906,26.1367 C-5.26563,28.0352 -2.75781,28.9844 -0.015625,28.9844 C3.64844,28.9844 6.74219,27.1758 9.26563,23.5586 C10.1875,21.543 10.6484,19.7969 10.6484,18.3203 L10.6484,17.9102 C10.6484,14.8398 9.23828,12.0469 6.41797,9.53125 C4.16797,8.07813 1.88672,7.35156 -0.425781,7.35156 C-2.94141,7.35156 -5.40625,8.40625 -7.82031,10.5156 C-10,12.9297 -11.0898,15.4648 -11.0898,18.1211 "/>
</g>

<g fill="none" stroke="#000000" stroke-opacity="1" stroke-width="1" stroke-linecap="square" stroke-linejoin="bevel" transform="matrix(1,0,0,1,0,0)"
font-family="MS Shell Dlg 2" font-size="9.8" font-weight="400" font-style="normal" 
>
</g>

<g fill="#ffffff" fill-opacity="1" stroke="none" transform="matrix(1,0,0,1,15.6094,12.7344)"
font-family="MS Shell Dlg 2" font-size="9.8" font-weight="400" font-style="normal" 
>
<path vector-effect="none" fill-rule="nonzero" d="M-0.273438,7.28125 L-0.0859375,7.28125 C-0.0859375,7.42188 0.742188,9.95313 2.39844,14.875 L10.6133,14.875 L10.6133,15.0625 L3.98047,19.7266 L6.48828,27.1094 L6.24219,27.1797 L-0.179688,22.6563 L-6.71875,27.2617 L-6.91797,27.1328 L-4.43359,19.6328 L-10.9727,14.9688 L-10.9727,14.875 L-2.75781,14.875 L-0.273438,7.28125 M-0.203125,29.1367 L-0.203125,29.3008 L-0.402344,29.3008 L-0.402344,29.1367 L-0.203125,29.1367"/>
</g>

<g fill="none" stroke="#000000" stroke-opacity="1" stroke-width="1" stroke-linecap="square" stroke-linejoin="bevel" transform="matrix(1,0,0,1,0,0)"
font-family="MS Shell Dlg 2" font-size="9.8" font-weight="400" font-style="normal" 
>
</g>
</g>
</svg>
