<?xml version="1.0" encoding="UTF-8" standalone="no"?>
<svg width="11.2889mm" height="11.2889mm"
 viewBox="0 0 32 32"
 xmlns="http://www.w3.org/2000/svg" xmlns:xlink="http://www.w3.org/1999/xlink"  version="1.2" baseProfile="tiny">
<title>Qt SVG Document</title>
<desc>Generated with Qt</desc>
<defs>
</defs>
<g fill="none" stroke="black" stroke-width="1" fill-rule="evenodd" stroke-linecap="square" stroke-linejoin="bevel" >

<g fill="#ffffff" fill-opacity="1" stroke="none" transform="matrix(1,0,0,1,15.75,12.7344)"
font-family="MS Shell Dlg 2" font-size="9.8" font-weight="400" font-style="normal" 
>
<path vector-effect="none" fill-rule="nonzero" d="M-0.078125,5.73438 C3.29687,5.8125 6.10742,6.95898 8.35352,9.17383 C10.5996,11.3887 11.7813,14.1563 11.8984,17.4766 C11.5859,20.8984 10.373,23.5898 8.25977,25.5508 C6.14648,27.5117 3.36719,28.707 -0.078125,29.1367 C-3.40625,29.1367 -6.24805,28 -8.60352,25.7266 C-10.959,23.4531 -12.1367,20.7031 -12.1367,17.4766 C-12.1367,14.1953 -10.959,11.418 -8.60352,9.14453 C-6.24805,6.87109 -3.40625,5.73438 -0.078125,5.73438 "/>
</g>

<g fill="none" stroke="#000000" stroke-opacity="1" stroke-width="1" stroke-linecap="square" stroke-linejoin="bevel" transform="matrix(1,0,0,1,0,0)"
font-family="MS Shell Dlg 2" font-size="9.8" font-weight="400" font-style="normal" 
>
</g>

<g fill="#005ce6" fill-opacity="1" stroke="none" transform="matrix(1,0,0,1,15.9375,12.7344)"
font-family="MS Shell Dlg 2" font-size="9.8" font-weight="400" font-style="normal" 
>
<path vector-effect="none" fill-rule="nonzero" d="M-11.1523,14.4531 C-10.8945,14.3984 -10.6563,14.3711 -10.4375,14.3711 C-9.8125,14.3711 -9.37891,14.6055 -9.13672,15.0742 C-8.81641,15.707 -8.56641,16.0234 -8.38672,16.0234 C-8.20703,16.0234 -7.70313,15.6953 -6.875,15.0391 L-6.875,12.625 L1.72656,12.625 L1.72656,15.7773 C3.11719,15.9023 4.1543,16.3496 4.83789,17.1191 C5.52148,17.8887 5.86328,18.7148 5.86328,19.5977 C6.01953,19.6836 6.17969,19.7266 6.34375,19.7266 C6.49219,19.7266 6.64063,19.6875 6.78906,19.6094 C7.09375,19.4531 7.53125,19.2539 8.10156,19.0117 C8.57813,18.8164 8.99219,18.7188 9.34375,18.7188 C9.41406,18.7188 9.48047,18.7227 9.54297,18.7305 C9.93359,18.7773 10.3711,19.0195 10.8555,19.457 C10.8789,19.4648 10.8984,19.4688 10.9141,19.4688 C11.1406,19.4688 11.3164,18.8477 11.4414,17.6055 C11.4023,14.5039 10.2656,11.8242 8.03125,9.56641 C5.84375,7.35547 3.19531,6.25 0.0859375,6.25 L-0.113281,6.25 C-3.21484,6.39063 -5.71875,7.30078 -7.625,8.98047 C-9.53125,10.6602 -10.6797,12.3984 -11.0703,14.1953 L-11.1523,14.4531 M-6.20703,13.4102 L-6.20703,19.457 L1.14063,19.457 L1.14063,13.4102 L-6.20703,13.4102 M-11.3516,15.1797 C-11.4688,15.5234 -11.5273,15.8711 -11.5273,16.2227 C-11.1211,16.0898 -10.7734,16.0234 -10.4844,16.0234 C-10.3359,16.0234 -10.2031,16.0391 -10.0859,16.0703 C-9.74219,16.1719 -9.45703,16.4102 -9.23047,16.7852 C-9.06641,17.0664 -8.78906,17.207 -8.39844,17.207 C-8.26563,17.207 -8.11719,17.1875 -7.95313,17.1484 C-7.32031,17.0234 -6.96094,16.8711 -6.875,16.6914 L-6.875,15.7773 C-7.625,16.3164 -8.14844,16.5859 -8.44531,16.5859 L-8.46875,16.5859 C-8.75781,16.5625 -9.06641,16.2344 -9.39453,15.6016 C-9.60547,15.1953 -9.94922,14.9922 -10.4258,14.9922 C-10.6914,14.9922 -11,15.0547 -11.3516,15.1797 M1.78516,16.8906 L1.78516,18.9297 C1.97266,18.75 2.29688,18.6289 2.75781,18.5664 C2.95313,18.5352 3.14453,18.5195 3.33203,18.5195 C3.55859,18.5195 3.76953,18.543 3.96484,18.5898 C3.96484,18.1133 3.80859,17.7305 3.49609,17.4414 C3.18359,17.1523 2.61328,16.9688 1.78516,16.8906 M1.92578,19.457 L1.92578,20.2305 C1.96484,20.3086 2.04297,20.3477 2.16016,20.3477 C2.32422,20.3477 2.55469,20.2773 2.85156,20.1367 C3.375,19.8945 3.73828,19.7734 3.94141,19.7734 C4.13672,19.7734 4.44141,19.957 4.85547,20.3242 C5.18359,20.6289 5.58594,20.7813 6.0625,20.7813 C6.16406,20.7813 6.27344,20.7734 6.39063,20.7578 C7,20.6797 7.58203,20.5078 8.13672,20.2422 C8.60547,20.0156 8.95313,19.9023 9.17969,19.9023 L9.28516,19.9023 C9.49609,19.9492 9.77734,20.1602 10.1289,20.5352 C10.4023,20.832 10.5859,20.9805 10.6797,20.9805 C10.7031,20.9805 10.7188,20.9727 10.7266,20.957 C10.8594,20.7148 10.9258,20.5039 10.9258,20.3242 C10.9258,20.1523 10.8594,20.0117 10.7266,19.9023 C10.2969,19.457 9.80859,19.2344 9.26172,19.2344 C8.91016,19.2344 8.53125,19.3281 8.125,19.5156 C7.10156,19.9922 6.40234,20.2305 6.02734,20.2305 C5.65234,20.2305 5.19141,20.0234 4.64453,19.6094 C4.22266,19.2969 3.77734,19.1406 3.30859,19.1406 C3.16797,19.1406 3.02344,19.1523 2.875,19.1758 C2.24219,19.3086 1.92578,19.4023 1.92578,19.457 M-11.2109,20.2305 C-11.0781,21.7617 -10.0586,23.502 -8.15234,25.4512 C-6.24609,27.4004 -3.54297,28.5117 -0.0429688,28.7852 C0.355469,28.7852 0.730469,28.7344 1.08203,28.6328 L1.14063,20.2305 L-11.2109,20.2305 M-0.113281,5.66406 C3.25391,5.66406 6.14453,6.82422 8.55859,9.14453 C10.9727,11.4648 12.1797,14.2852 12.1797,17.6055 C12.1797,20.8867 10.9727,23.6895 8.55859,26.0137 C6.14453,28.3379 3.25391,29.5 -0.113281,29.5 C-3.51953,29.5 -6.41797,28.3379 -8.80859,26.0137 C-11.1992,23.6895 -12.3945,20.8867 -12.3945,17.6055 C-12.3945,14.2852 -11.1992,11.4648 -8.80859,9.14453 C-6.41797,6.82422 -3.51953,5.66406 -0.113281,5.66406 "/>
</g>

<g fill="none" stroke="#000000" stroke-opacity="1" stroke-width="1" stroke-linecap="square" stroke-linejoin="bevel" transform="matrix(1,0,0,1,0,0)"
font-family="MS Shell Dlg 2" font-size="9.8" font-weight="400" font-style="normal" 
>
</g>
</g>
</svg>
