<?xml version="1.0" encoding="UTF-8" standalone="no"?>
<svg width="11.2889mm" height="11.2889mm"
 viewBox="0 0 32 32"
 xmlns="http://www.w3.org/2000/svg" xmlns:xlink="http://www.w3.org/1999/xlink"  version="1.2" baseProfile="tiny">
<title>Qt SVG Document</title>
<desc>Generated with Qt</desc>
<defs>
</defs>
<g fill="none" stroke="black" stroke-width="1" fill-rule="evenodd" stroke-linecap="square" stroke-linejoin="bevel" >

<g fill="#ffffff" fill-opacity="1" stroke="none" transform="matrix(1,0,0,1,15.7188,12.7344)"
font-family="MS Shell Dlg 2" font-size="9.8" font-weight="400" font-style="normal" 
>
<path vector-effect="none" fill-rule="nonzero" d="M1.69922,7.01172 L8.66016,7.01172 C9.65234,7.16797 10.1836,7.62109 10.2539,8.37109 C10.1836,9.20703 9.69141,9.66797 8.77734,9.75391 L2.27344,9.75391 C7.28906,10.8867 9.83594,13.9648 9.91406,18.9883 L9.91406,19.2109 C9.91406,25.6016 6.56641,28.9531 -0.128906,29.2656 C-6.36328,29.0391 -9.55859,25.6914 -9.71484,19.2227 C-9.71484,14.043 -7.16797,10.8867 -2.07422,9.75391 L-8.91797,9.75391 C-9.67578,9.66797 -10.1328,9.20703 -10.2891,8.37109 C-10.2109,7.53516 -9.75391,7.08203 -8.91797,7.01172 L-1.72266,7.01172 C-1.19141,6.31641 -0.621094,5.96875 -0.0117188,5.96875 C0.597656,5.96875 1.16797,6.31641 1.69922,7.01172 "/>
</g>

<g fill="none" stroke="#000000" stroke-opacity="1" stroke-width="1" stroke-linecap="square" stroke-linejoin="bevel" transform="matrix(1,0,0,1,0,0)"
font-family="MS Shell Dlg 2" font-size="9.8" font-weight="400" font-style="normal" 
>
</g>

<g fill="#ff0000" fill-opacity="1" stroke="none" transform="matrix(1,0,0,1,11.8281,12.7344)"
font-family="MS Shell Dlg 2" font-size="9.8" font-weight="400" font-style="normal" 
>
<path vector-effect="none" fill-rule="nonzero" d="M-0.984375,12.0977 C-2.19531,13.8711 -2.85156,16.0625 -2.95313,18.6719 C-2.63281,22.5234 -1.5625,24.7656 0.257813,25.3984 C2.24219,24.9453 3.26172,22.7266 3.31641,18.7422 C3.24609,16.0859 2.69141,13.8711 1.65234,12.0977 L2.39063,12.0977 C2.75781,12.0977 3.18164,12.7344 3.66211,14.0078 C4.14258,15.2813 4.39453,16.8711 4.41797,18.7773 C4.32422,23.0352 3.29297,25.5859 1.32422,26.4297 L-0.808594,26.4297 C-2.72266,25.4219 -3.8125,22.8281 -4.07813,18.6484 C-4.07813,16.7109 -3.80078,15.1328 -3.24609,13.9141 C-2.69922,12.7031 -2.25,12.0977 -1.89844,12.0977 L-0.984375,12.0977 M0.0117188,5.81641 L0.0117188,5.82813 L-0.0117188,5.82813 L-0.0117188,5.81641 L0.0117188,5.81641 M0.199219,29.3359 L0.199219,29.3594 L0.175781,29.3594 L0.175781,29.3359 L0.199219,29.3359"/>
</g>

<g fill="none" stroke="#000000" stroke-opacity="1" stroke-width="1" stroke-linecap="square" stroke-linejoin="bevel" transform="matrix(1,0,0,1,0,0)"
font-family="MS Shell Dlg 2" font-size="9.8" font-weight="400" font-style="normal" 
>
</g>

<g fill="#0070ff" fill-opacity="1" stroke="none" transform="matrix(1,0,0,1,15.8594,12.7344)"
font-family="MS Shell Dlg 2" font-size="9.8" font-weight="400" font-style="normal" 
>
<path vector-effect="none" fill-rule="nonzero" d="M1.73438,6.78906 L8.83594,6.78906 C9.85156,6.94531 10.3945,7.41016 10.4648,8.18359 C10.3945,9.03516 9.89063,9.50391 8.95313,9.58984 L2.32031,9.58984 C7.4375,10.7461 10.0391,13.8867 10.125,19.0117 L10.125,19.2109 C10.125,25.7578 6.70703,29.1875 -0.128906,29.5 C-6.49609,29.2656 -9.75781,25.8477 -9.91406,19.2461 C-9.91406,13.9648 -7.3125,10.7461 -2.10938,9.58984 L-9.09375,9.58984 C-9.875,9.50391 -10.3438,9.03516 -10.5,8.18359 C-10.4141,7.33203 -9.94531,6.86719 -9.09375,6.78906 L-1.75781,6.78906 C-1.21875,6.08594 -0.636719,5.73438 -0.0117188,5.73438 C0.605469,5.73438 1.1875,6.08594 1.73438,6.78906 M-0.363281,6.78906 L-1.05469,9.23828 L-1.05469,9.58984 L1.04297,9.58984 L1.04297,9.23828 L0.328125,6.78906 L-0.363281,6.78906 M2.08594,7.83203 L2.08594,8.53516 L8.71875,8.53516 C9.1875,8.53516 9.42188,8.41797 9.42188,8.18359 C9.42188,7.94922 9.1875,7.83203 8.71875,7.83203 L2.08594,7.83203 M-8.85938,7.83203 C-9.25,7.83203 -9.44531,7.94922 -9.44531,8.18359 C-9.44531,8.41797 -9.21484,8.53516 -8.75391,8.53516 L-2.10938,8.53516 L-2.10938,7.83203 L-8.85938,7.83203 M9.07031,19.0117 C8.83594,14.1992 6.39062,11.3672 1.73438,10.5156 L1.73438,11.5586 C5.92187,12.3242 8.01563,14.7344 8.01563,18.7891 L8.01563,19.0117 C7.94531,22.7383 6.58984,25.1875 3.94922,26.3594 L4.40625,27.4023 C7.4375,26.1602 8.99219,23.3633 9.07031,19.0117 M-0.363281,10.6328 L-0.363281,11.3242 L0.679688,11.3242 L0.679688,10.6328 L-0.363281,10.6328 M-1.40625,10.6328 C-6.14062,11.3359 -8.625,14.1719 -8.85938,19.1406 L-8.85938,19.4453 C-8.85938,22.7813 -7.5,25.3555 -4.78125,27.168 L-4.08984,26.2305 C-6.57422,24.6836 -7.81641,22.3203 -7.81641,19.1406 C-7.58203,14.7109 -5.44531,12.1836 -1.40625,11.5586 L-1.40625,10.6328 M6.85547,19.0117 C6.85547,14.9023 4.60547,12.6914 0.105469,12.3789 C-4.16797,12.5352 -6.41797,14.7461 -6.64453,19.0117 C-6.48828,23.5195 -4.23828,25.8906 0.105469,26.125 C4.61328,25.75 6.86719,23.5195 6.86719,19.4336 C6.86719,19.293 6.86328,19.1523 6.85547,19.0117 M3.12891,26.6992 C2.04297,27.0508 0.976562,27.2266 -0.0703125,27.2266 C-1.11719,27.2266 -2.14844,27.0508 -3.16406,26.6992 L-3.73828,27.7539 C-2.51953,28.2383 -1.27344,28.4805 0,28.4805 C1.17187,28.4805 2.37109,28.2773 3.59766,27.8711 L3.12891,26.6992"/>
</g>

<g fill="none" stroke="#000000" stroke-opacity="1" stroke-width="1" stroke-linecap="square" stroke-linejoin="bevel" transform="matrix(1,0,0,1,0,0)"
font-family="MS Shell Dlg 2" font-size="9.8" font-weight="400" font-style="normal" 
>
</g>
</g>
</svg>
