<?xml version="1.0" encoding="UTF-8" standalone="no"?>
<svg width="11.2889mm" height="11.2889mm"
 viewBox="0 0 32 32"
 xmlns="http://www.w3.org/2000/svg" xmlns:xlink="http://www.w3.org/1999/xlink"  version="1.2" baseProfile="tiny">
<title>Qt SVG Document</title>
<desc>Generated with Qt</desc>
<defs>
</defs>
<g fill="none" stroke="black" stroke-width="1" fill-rule="evenodd" stroke-linecap="square" stroke-linejoin="bevel" >

<g fill="#ff0000" fill-opacity="1" stroke="none" transform="matrix(1,0,0,1,11.4922,12.7344)"
font-family="MS Shell Dlg 2" font-size="9.8" font-weight="400" font-style="normal" 
>
<path vector-effect="none" fill-rule="nonzero" d="M0.203125,16.6094 L-5.73828,10.668 L0.203125,4.72656 L6.15625,10.668 L0.203125,16.6094 M0.179688,29.3125 L0.0859375,29.2305 L0.167969,29.1367 L0.25,29.2188 L0.179688,29.3125"/>
</g>

<g fill="none" stroke="#000000" stroke-opacity="1" stroke-width="1" stroke-linecap="square" stroke-linejoin="bevel" transform="matrix(1,0,0,1,0,0)"
font-family="MS Shell Dlg 2" font-size="9.8" font-weight="400" font-style="normal" 
>
</g>

<g fill="#005ce6" fill-opacity="1" stroke="none" transform="matrix(1,0,0,1,7.35156,12.7344)"
font-family="MS Shell Dlg 2" font-size="9.8" font-weight="400" font-style="normal" 
>
<path vector-effect="none" fill-rule="nonzero" d="M-6.00781,22.7383 L-11.9492,16.7969 L-6.00781,10.8555 L-0.0546875,16.7969 L-6.00781,22.7383"/>
</g>

<g fill="none" stroke="#000000" stroke-opacity="1" stroke-width="1" stroke-linecap="square" stroke-linejoin="bevel" transform="matrix(1,0,0,1,0,0)"
font-family="MS Shell Dlg 2" font-size="9.8" font-weight="400" font-style="normal" 
>
</g>

<g fill="#ffff00" fill-opacity="1" stroke="none" transform="matrix(1,0,0,1,15.5391,12.7344)"
font-family="MS Shell Dlg 2" font-size="9.8" font-weight="400" font-style="normal" 
>
<path vector-effect="none" fill-rule="nonzero" d="M6.27344,22.7383 L0.332031,16.7969 L6.27344,10.8555 L12.2266,16.7969 L6.27344,22.7383"/>
</g>

<g fill="none" stroke="#000000" stroke-opacity="1" stroke-width="1" stroke-linecap="square" stroke-linejoin="bevel" transform="matrix(1,0,0,1,0,0)"
font-family="MS Shell Dlg 2" font-size="9.8" font-weight="400" font-style="normal" 
>
</g>

<g fill="#ffffff" fill-opacity="1" stroke="none" transform="matrix(1,0,0,1,11.4609,12.7344)"
font-family="MS Shell Dlg 2" font-size="9.8" font-weight="400" font-style="normal" 
>
<path vector-effect="none" fill-rule="nonzero" d="M0.15625,28.8555 L-5.78516,22.9141 L0.15625,16.9727 L6.10938,22.9141 L0.15625,28.8555 M0.167969,4.72656 L0.0390625,4.60938 L0.167969,4.48047 L0.296875,4.59766 L0.167969,4.72656"/>
</g>

<g fill="none" stroke="#000000" stroke-opacity="1" stroke-width="1" stroke-linecap="square" stroke-linejoin="bevel" transform="matrix(1,0,0,1,0,0)"
font-family="MS Shell Dlg 2" font-size="9.8" font-weight="400" font-style="normal" 
>
</g>

<g fill="#000000" fill-opacity="1" stroke="none" transform="matrix(1,0,0,1,15.9375,12.7344)"
font-family="MS Shell Dlg 2" font-size="9.8" font-weight="400" font-style="normal" 
>
<path vector-effect="none" fill-rule="nonzero" d="M0.167969,29.5 L-12.5,16.832 L0.167969,4.17578 L12.8242,16.832 L0.167969,29.5 M5.81641,22.9141 L0.15625,17.2539 L-5.50391,22.9141 L0.15625,28.5742 L5.81641,22.9141 M11.9336,16.7969 L6.27344,11.1367 L0.613281,16.7969 L6.27344,22.457 L11.9336,16.7969 M5.86328,10.668 L0.203125,5.00781 L-5.45703,10.668 L0.203125,16.3281 L5.86328,10.668 M-0.347656,16.7969 L-5.99609,11.1367 L-11.6563,16.7969 L-5.99609,22.457 L-0.347656,16.7969"/>
</g>

<g fill="none" stroke="#000000" stroke-opacity="1" stroke-width="1" stroke-linecap="square" stroke-linejoin="bevel" transform="matrix(1,0,0,1,0,0)"
font-family="MS Shell Dlg 2" font-size="9.8" font-weight="400" font-style="normal" 
>
</g>
</g>
</svg>
