<?xml version="1.0" encoding="UTF-8" standalone="no"?>
<svg width="11.2889mm" height="11.2889mm"
 viewBox="0 0 32 32"
 xmlns="http://www.w3.org/2000/svg" xmlns:xlink="http://www.w3.org/1999/xlink"  version="1.2" baseProfile="tiny">
<title>Qt SVG Document</title>
<desc>Generated with Qt</desc>
<defs>
</defs>
<g fill="none" stroke="black" stroke-width="1" fill-rule="evenodd" stroke-linecap="square" stroke-linejoin="bevel" >

<g fill="#ffff00" fill-opacity="1" stroke="none" transform="matrix(1,0,0,1,15.4375,12.7344)"
font-family="MS Shell Dlg 2" font-size="9.8" font-weight="400" font-style="normal" 
>
<path vector-effect="none" fill-rule="nonzero" d="M-0.195313,5.93359 L-0.113281,5.93359 C0.0585937,6.04297 2.37109,9.99219 6.82422,17.7813 L13.1641,28.7266 L13.1641,28.8906 L-13.1445,28.8906 L-13.3086,28.8086 C-4.73828,13.8867 -0.367188,6.26172 -0.195313,5.93359 "/>
</g>

<g fill="none" stroke="#000000" stroke-opacity="1" stroke-width="1" stroke-linecap="square" stroke-linejoin="bevel" transform="matrix(1,0,0,1,0,0)"
font-family="MS Shell Dlg 2" font-size="9.8" font-weight="400" font-style="normal" 
>
</g>

<g fill="#ffffff" fill-opacity="1" stroke="none" transform="matrix(1,0,0,1,8.82031,12.7344)"
font-family="MS Shell Dlg 2" font-size="9.8" font-weight="400" font-style="normal" 
>
<path vector-effect="none" fill-rule="nonzero" d="M-0.0546875,16.5273 C1.50781,16.5273 2.54688,17.0586 3.0625,18.1211 C3.17969,18.3555 3.23828,18.6797 3.23828,19.0938 C2.98828,20.2969 2.67578,21.3008 2.30078,22.1055 L1.79688,23.7461 C1.67188,24.2617 1.45313,24.8008 1.14063,25.3633 C0.914063,25.5273 0.605469,25.6172 0.214844,25.6328 L-0.0195313,25.6328 C-0.855469,25.6328 -1.38672,25.4297 -1.61328,25.0234 C-2.70703,21.7969 -3.27734,19.6367 -3.32422,18.543 C-2.96484,17.1992 -1.875,16.5273 -0.0546875,16.5273 M-0.0429688,5.42969 L-0.0429688,5.52344 L-0.242188,5.52344 L-0.242188,5.42969 L-0.0429688,5.42969 M0.015625,29.2891 L0.015625,29.3828 L-0.113281,29.3828 L-0.113281,29.2891 L0.015625,29.2891"/>
</g>

<g fill="none" stroke="#000000" stroke-opacity="1" stroke-width="1" stroke-linecap="square" stroke-linejoin="bevel" transform="matrix(1,0,0,1,0,0)"
font-family="MS Shell Dlg 2" font-size="9.8" font-weight="400" font-style="normal" 
>
</g>

<g fill="#000000" fill-opacity="1" stroke="none" transform="matrix(1,0,0,1,15.9063,12.7344)"
font-family="MS Shell Dlg 2" font-size="9.8" font-weight="400" font-style="normal" 
>
<path vector-effect="none" fill-rule="nonzero" d="M-0.195313,5.32422 L-0.113281,5.32422 C0.0664062,5.44141 2.5,9.60156 7.1875,17.8047 L13.8672,29.3242 L13.8672,29.5 L-13.8242,29.5 L-14,29.4063 C-4.97656,13.7031 -0.375,5.67578 -0.195313,5.32422 M-10.3906,27.2969 L10.1758,27.2969 L10.1758,27.2148 L-0.0195313,9.46094 C-0.253906,9.63281 -2.74609,13.9375 -7.49609,22.375 C-7.55078,22.375 -8.51563,24.0156 -10.3906,27.2969 M-0.160156,16.4102 C1.51953,16.4102 2.65625,17.0352 3.25,18.2852 C3.30469,18.3789 3.33203,18.4922 3.33203,18.625 L3.33203,18.9648 C3.33203,19.8242 2.93359,21.0781 2.13672,22.7266 L2.23047,22.7266 C3.16016,22.5078 3.625,22.2813 3.625,22.0469 L3.625,22.0352 L3.61328,22.0352 C3.61328,21.8008 3.80469,21.6016 4.1875,21.4375 C4.28125,21.4063 4.36328,21.3906 4.43359,21.3906 C4.58203,21.3906 4.65625,21.4727 4.65625,21.6367 L4.65625,21.6484 L4.64453,21.6602 C4.64453,21.9023 4.74219,22.1094 4.9375,22.2813 C5.01563,22.3594 5.05469,22.4375 5.05469,22.5156 C5.05469,22.6094 4.98438,22.7031 4.84375,22.7969 C4.71875,22.8359 4.60156,22.8555 4.49219,22.8555 C4.40625,22.8555 4.32422,22.8438 4.24609,22.8203 L4.17578,22.8203 C3.91797,22.8203 3.27344,23.0234 2.24219,23.4297 C1.89063,23.6953 1.71484,23.9727 1.71484,24.2617 L1.72656,24.332 C2.48438,24.6758 2.96484,24.8477 3.16797,24.8477 C3.20703,24.8477 3.23438,24.8438 3.25,24.8359 C3.44531,24.7188 3.64063,24.6602 3.83594,24.6602 C3.89844,24.6602 3.96094,24.6641 4.02344,24.6719 C4.21875,24.7656 4.31641,24.8633 4.31641,24.9648 C4.31641,25.0117 4.29297,25.0586 4.24609,25.1055 C4.11328,25.2461 4.04688,25.4414 4.04688,25.6914 L4.04688,25.7969 C4.04688,26 3.9375,26.1016 3.71875,26.1016 C3.65625,26.1016 3.58594,26.0938 3.50781,26.0781 C3.28906,25.9141 3.14844,25.7383 3.08594,25.5508 C3.02344,25.3633 2.59766,25.2344 1.80859,25.1641 C1.73047,25.1328 1.66016,25.1172 1.59766,25.1172 C1.51172,25.1172 1.4375,25.1445 1.375,25.1992 C1.1875,25.4648 0.902344,25.6641 0.519531,25.7969 C-0.636719,25.7969 -1.43359,25.5391 -1.87109,25.0234 L-2.03516,25.0234 C-2.91797,25.1563 -3.38477,25.3398 -3.43555,25.5742 C-3.48633,25.8086 -3.67188,25.9805 -3.99219,26.0898 L-4.07422,26.0898 C-4.26953,26.0898 -4.36719,26.0039 -4.36719,25.832 C-4.36719,25.8008 -4.36328,25.7656 -4.35547,25.7266 C-4.34766,25.6484 -4.34375,25.5742 -4.34375,25.5039 C-4.34375,25.332 -4.37891,25.1797 -4.44922,25.0469 C-4.48047,24.9922 -4.49609,24.9336 -4.49609,24.8711 C-4.49609,24.7461 -4.41797,24.6289 -4.26172,24.5195 C-4.19922,24.4961 -4.13281,24.4844 -4.0625,24.4844 C-3.88281,24.4844 -3.69141,24.5781 -3.48828,24.7656 C-3.47266,24.7734 -3.45313,24.7773 -3.42969,24.7773 C-3.27344,24.7773 -2.89453,24.6328 -2.29297,24.3438 C-2.12109,24.2266 -2.03516,24.1133 -2.03516,24.0039 C-2.12109,23.6602 -2.30078,23.4102 -2.57422,23.2539 C-3.52734,22.8164 -4.12109,22.5977 -4.35547,22.5977 L-4.4375,22.5977 C-4.53125,22.6367 -4.64844,22.6563 -4.78906,22.6563 C-4.89063,22.6563 -5.00391,22.6484 -5.12891,22.6328 C-5.31641,22.5078 -5.41016,22.3906 -5.41016,22.2813 C-5.41016,22.2031 -5.36719,22.1289 -5.28125,22.0586 C-5.0625,21.8867 -4.94141,21.7051 -4.91797,21.5137 C-4.89453,21.3223 -4.76172,21.2148 -4.51953,21.1914 C-4.30078,21.2148 -4.10156,21.4688 -3.92188,21.9531 C-3.5625,22.1406 -3.07813,22.3398 -2.46875,22.5508 L-2.46875,22.4688 C-2.79688,21.9609 -3.10938,20.793 -3.40625,18.9648 L-3.40625,18.625 C-3.40625,17.4922 -2.41016,16.7539 -0.417969,16.4102 L-0.160156,16.4102 M-3.23047,18.3672 L-3.23047,18.543 C-3.23047,19.2305 -3.08984,19.9961 -2.80859,20.8398 L-2.70313,20.8398 L-2.63281,20.5938 C-2.35156,19.5859 -2.15234,18.6758 -2.03516,17.8633 L-1.87109,17.8633 C-1.98047,18.7539 -2.20703,19.832 -2.55078,21.0977 C-2.51172,21.3398 -2.0625,21.6172 -1.20313,21.9297 C-1.03906,22.4609 -0.863281,22.7266 -0.675781,22.7266 C-0.464844,22.7813 -0.207031,22.8086 0.0976563,22.8086 C0.324219,22.8086 0.566406,22.5547 0.824219,22.0469 C1.81641,21.7891 2.3125,21.5313 2.3125,21.2734 C2.14063,20.5156 1.96875,19.4336 1.79688,18.0273 L1.92578,18.0156 L2.3125,20.5 L2.47656,21.0977 C2.64844,21.0977 2.87891,20.4453 3.16797,19.1406 L3.16797,18.8008 C3.16797,17.9727 2.57031,17.3164 1.375,16.832 C0.820313,16.6602 0.308594,16.5742 -0.160156,16.5742 C-1.66797,16.5742 -2.69141,17.1719 -3.23047,18.3672 M-0.933594,19.6563 C-0.605469,19.7656 -0.433594,19.9063 -0.417969,20.0781 L-0.417969,20.1602 C-0.417969,20.6289 -0.730469,20.9766 -1.35547,21.2031 C-1.88672,20.7578 -2.15234,20.418 -2.15234,20.1836 C-2.15234,20.1445 -2.14453,20.1094 -2.12891,20.0781 C-1.95703,19.7969 -1.55859,19.6563 -0.933594,19.6563 M0.859375,19.7383 C1.60156,19.7383 1.97266,19.9375 1.97266,20.3359 C1.97266,20.6172 1.6875,20.9297 1.11719,21.2734 C0.492188,20.8984 0.179688,20.5273 0.179688,20.1602 C0.242188,19.8789 0.46875,19.7383 0.859375,19.7383 M-2.80859,21.0156 L-2.80859,21.1914 C-2.29297,22.3945 -1.89453,23.6445 -1.61328,24.9414 C-1.43359,25.3398 -0.78125,25.5391 0.34375,25.5391 C1.10156,25.5391 1.53125,24.9141 1.63281,23.6641 C1.63281,23.4688 1.91406,22.7578 2.47656,21.5313 L0.859375,22.3867 C0.664063,22.7852 0.523438,22.9844 0.4375,22.9844 L-0.757813,22.9844 C-0.859375,22.9844 -1.08594,22.668 -1.4375,22.0352 C-2.29688,21.7773 -2.72656,21.4375 -2.72656,21.0156 L-2.80859,21.0156 M-0.160156,20.9336 L0.00390625,20.9336 C0.277344,21.2852 0.414063,21.7031 0.414063,22.1875 L0.414063,22.3047 L0.0976563,22.4688 C0.0195313,22.3672 -0.0664063,22.3164 -0.160156,22.3164 C-0.246094,22.3164 -0.339844,22.3672 -0.441406,22.4688 L-0.734375,22.293 C-0.679688,21.8477 -0.488281,21.3945 -0.160156,20.9336 M1.63281,22.8086 L1.63281,22.8906 C1.39063,24.5391 0.960937,25.3633 0.34375,25.3633 C0.164063,25.2539 0.0195312,25.1992 -0.0898438,25.1992 C-0.121094,25.1914 -0.15625,25.1875 -0.195313,25.1875 C-0.320313,25.1875 -0.507813,25.2188 -0.757813,25.2813 C-1.5,25.2813 -1.87109,24.543 -1.87109,23.0664 C-1.86328,22.9492 -1.83594,22.8906 -1.78906,22.8906 C-1.78906,23.8828 -1.21875,24.4258 -0.078125,24.5195 C0.734375,24.5195 1.23438,24.0977 1.42188,23.2539 C1.5,22.957 1.57031,22.8086 1.63281,22.8086 "/>
</g>

<g fill="none" stroke="#000000" stroke-opacity="1" stroke-width="1" stroke-linecap="square" stroke-linejoin="bevel" transform="matrix(1,0,0,1,0,0)"
font-family="MS Shell Dlg 2" font-size="9.8" font-weight="400" font-style="normal" 
>
</g>
</g>
</svg>
