<?xml version="1.0" encoding="UTF-8" standalone="no"?>
<svg width="11.2889mm" height="11.2889mm"
 viewBox="0 0 32 32"
 xmlns="http://www.w3.org/2000/svg" xmlns:xlink="http://www.w3.org/1999/xlink"  version="1.2" baseProfile="tiny">
<title>Qt SVG Document</title>
<desc>Generated with Qt</desc>
<defs>
</defs>
<g fill="none" stroke="black" stroke-width="1" fill-rule="evenodd" stroke-linecap="square" stroke-linejoin="bevel" >

<g fill="#ffffff" fill-opacity="1" stroke="none" transform="matrix(1,0,0,1,15.6094,12.7344)"
font-family="MS Shell Dlg 2" font-size="9.8" font-weight="400" font-style="normal" 
>
<path vector-effect="none" fill-rule="nonzero" d="M-11.5313,6.10938 L10.9453,6.10938 L10.9453,29.0195 L-11.5313,29.0195 L-11.5313,6.10938"/>
</g>

<g fill="none" stroke="#000000" stroke-opacity="1" stroke-width="1" stroke-linecap="square" stroke-linejoin="bevel" transform="matrix(1,0,0,1,0,0)"
font-family="MS Shell Dlg 2" font-size="9.8" font-weight="400" font-style="normal" 
>
</g>

<g fill="#ff0000" fill-opacity="1" stroke="none" transform="matrix(1,0,0,1,15.9219,12.7344)"
font-family="MS Shell Dlg 2" font-size="9.8" font-weight="400" font-style="normal" 
>
<path vector-effect="none" fill-rule="nonzero" d="M-12,5.62891 L11.4141,5.62891 L11.4141,29.5 L-12,29.5 L-12,5.62891 M-5.44922,7 L-5.44922,13.5391 L-3.16406,13.5391 L-3.16406,13.1172 C-3.16406,12.8906 -3.125,12.6914 -3.04688,12.5195 L-4.30078,12.5195 C-4.46484,12.5195 -4.54688,12.4375 -4.54688,12.2734 L-4.54688,8.14844 C-4.52344,8 -4.44141,7.92578 -4.30078,7.92578 L-0.0585938,7.92578 C0.0898437,7.94922 0.164063,8.02344 0.164063,8.14844 L0.164063,12.2734 C0.164063,12.4375 0.0898437,12.5195 -0.0585938,12.5195 L-1.10156,12.5195 C-1.02344,12.6992 -0.984375,12.8711 -0.984375,13.0352 L-0.984375,13.5391 L1.07813,13.5391 L1.07813,7 L-5.44922,7 M-3.83203,10.2461 L-3.83203,10.293 C-3.83203,11.3477 -3.28125,11.8789 -2.17969,11.8867 L-2.15625,11.8867 C-1.0625,11.8867 -0.511719,11.3477 -0.503906,10.2695 C-0.503906,9.19141 -1.05469,8.64453 -2.15625,8.62891 L-2.19141,8.62891 C-3.26953,8.62891 -3.81641,9.16797 -3.83203,10.2461 M-2.92969,13.3164 L-2.92969,21.4609 C-2.92969,21.6172 -3.00781,21.6953 -3.16406,21.6953 L-3.39844,21.6953 C-3.54687,21.6953 -3.62109,21.6172 -3.62109,21.4609 L-3.62109,18.707 C-3.62109,17.9414 -3.89062,17.5586 -4.42969,17.5586 C-4.96094,17.5586 -5.22656,17.9297 -5.22656,18.6719 L-5.22656,21.9297 C-5.22656,23.0469 -4.61719,24.2344 -3.39844,25.4922 L-3.39844,27.3203 C-3.375,27.4688 -3.29687,27.543 -3.16406,27.543 L3.60938,27.543 C3.79687,27.543 3.90234,27.4648 3.92578,27.3086 L3.92578,27.2734 C3.92578,27.1406 3.82422,27.0273 3.62109,26.9336 C3.38672,26.832 3.26953,26.7148 3.26953,26.582 C3.26953,26.4492 3.38477,26.3477 3.61523,26.2773 C3.8457,26.207 3.96094,25.9453 3.96094,25.4922 L3.96094,18.6016 C3.96094,18.125 3.73047,17.8398 3.26953,17.7461 C3.15234,17.7227 3.04297,17.7109 2.94141,17.7109 C2.63672,17.7109 2.39844,17.8125 2.22656,18.0156 C2.17969,17.5938 1.97656,17.3203 1.61719,17.1953 C1.48438,17.1484 1.35156,17.125 1.21875,17.125 C0.992187,17.125 0.757812,17.1953 0.515625,17.3359 C0.40625,16.9531 0.160156,16.7422 -0.222656,16.7031 C-0.269531,16.6953 -0.3125,16.6914 -0.351563,16.6914 C-0.679687,16.6914 -0.964844,16.8281 -1.20703,17.1016 L-1.20703,13.082 C-1.20703,12.668 -1.39844,12.3633 -1.78125,12.168 L-2.35547,12.168 C-2.73828,12.3398 -2.92969,12.7227 -2.92969,13.3164 "/>
</g>

<g fill="none" stroke="#000000" stroke-opacity="1" stroke-width="1" stroke-linecap="square" stroke-linejoin="bevel" transform="matrix(1,0,0,1,0,0)"
font-family="MS Shell Dlg 2" font-size="9.8" font-weight="400" font-style="normal" 
>
</g>
</g>
</svg>
