<?xml version="1.0" encoding="UTF-8" standalone="no"?>
<svg width="11.2889mm" height="11.2889mm"
 viewBox="0 0 32 32"
 xmlns="http://www.w3.org/2000/svg" xmlns:xlink="http://www.w3.org/1999/xlink"  version="1.2" baseProfile="tiny">
<title>Qt SVG Document</title>
<desc>Generated with Qt</desc>
<defs>
</defs>
<g fill="none" stroke="black" stroke-width="1" fill-rule="evenodd" stroke-linecap="square" stroke-linejoin="bevel" >

<g fill="#ffffff" fill-opacity="1" stroke="none" transform="matrix(1,0,0,1,15.4375,12.7344)"
font-family="MS Shell Dlg 2" font-size="9.8" font-weight="400" font-style="normal" 
>
<path vector-effect="none" fill-rule="nonzero" d="M-0.195313,5.93359 L-0.113281,5.93359 C0.0585937,6.04297 2.37109,9.99219 6.82422,17.7813 L13.1641,28.7266 L13.1641,28.8906 L-13.1445,28.8906 L-13.3086,28.8086 C-4.73828,13.8867 -0.367188,6.26172 -0.195313,5.93359 "/>
</g>

<g fill="none" stroke="#000000" stroke-opacity="1" stroke-width="1" stroke-linecap="square" stroke-linejoin="bevel" transform="matrix(1,0,0,1,0,0)"
font-family="MS Shell Dlg 2" font-size="9.8" font-weight="400" font-style="normal" 
>
</g>

<g fill="#000000" fill-opacity="1" stroke="none" transform="matrix(1,0,0,1,14.2578,12.7344)"
font-family="MS Shell Dlg 2" font-size="9.8" font-weight="400" font-style="normal" 
>
<path vector-effect="none" fill-rule="nonzero" d="M-11.8789,28.0117 L6.75391,19.8672 L11.3945,28.0117 L-11.8789,28.0117 M-0.183594,6.00391 L-0.078125,6.15625 L-0.289063,6.15625 L-0.183594,6.00391 M-0.160156,29.2773 L-0.0546875,29.4297 L-0.265625,29.4297 L-0.160156,29.2773"/>
</g>

<g fill="none" stroke="#000000" stroke-opacity="1" stroke-width="1" stroke-linecap="square" stroke-linejoin="bevel" transform="matrix(1,0,0,1,0,0)"
font-family="MS Shell Dlg 2" font-size="9.8" font-weight="400" font-style="normal" 
>
</g>

<g fill="#ff0000" fill-opacity="1" stroke="none" transform="matrix(1,0,0,1,15.9063,12.7344)"
font-family="MS Shell Dlg 2" font-size="9.8" font-weight="400" font-style="normal" 
>
<path vector-effect="none" fill-rule="nonzero" d="M-0.195313,5.32422 L-0.113281,5.32422 C0.0664062,5.44141 2.5,9.60156 7.1875,17.8047 L13.8672,29.3242 L13.8672,29.5 L-13.8242,29.5 L-14,29.4063 C-4.97656,13.7031 -0.375,5.67578 -0.195313,5.32422 M-10.3906,27.2969 L10.1758,27.2969 L10.1758,27.2148 L-0.0195313,9.46094 C-0.253906,9.63281 -2.74609,13.9375 -7.49609,22.375 C-7.55078,22.375 -8.51563,24.0156 -10.3906,27.2969 "/>
</g>

<g fill="none" stroke="#000000" stroke-opacity="1" stroke-width="1" stroke-linecap="square" stroke-linejoin="bevel" transform="matrix(1,0,0,1,0,0)"
font-family="MS Shell Dlg 2" font-size="9.8" font-weight="400" font-style="normal" 
>
</g>
</g>
</svg>
