<?xml version="1.0" encoding="UTF-8" standalone="no"?>
<svg width="11.2889mm" height="11.2889mm"
 viewBox="0 0 32 32"
 xmlns="http://www.w3.org/2000/svg" xmlns:xlink="http://www.w3.org/1999/xlink"  version="1.2" baseProfile="tiny">
<title>Qt SVG Document</title>
<desc>Generated with Qt</desc>
<defs>
</defs>
<g fill="none" stroke="black" stroke-width="1" fill-rule="evenodd" stroke-linecap="square" stroke-linejoin="bevel" >

<g fill="#ffffff" fill-opacity="1" stroke="none" transform="matrix(1,0,0,1,15.9531,12.7344)"
font-family="MS Shell Dlg 2" font-size="9.8" font-weight="400" font-style="normal" 
>
<path vector-effect="none" fill-rule="nonzero" d="M-11.6328,16.4922 L-8.11719,16.4922 L-8.11719,17.0195 L6.29688,17.0195 L6.29688,16.4922 L9.8125,16.4922 L9.8125,17.0195 C13.3906,17.0195 15.2656,18.0156 15.4375,20.0078 L15.4375,25.6328 C15.4375,27.8594 13.5625,28.9727 9.8125,28.9727 L9.8125,29.5 L6.29688,29.5 L6.29688,28.9727 L-8.11719,28.9727 L-8.11719,29.5 L-11.6328,29.5 L-11.6328,28.9727 L-15.5,28.9727 L-15.5,17.0195 L-11.6328,17.0195 L-11.6328,16.4922 M10.1641,19.6563 L10.1641,26.3359 L11.9219,26.3359 L12.9766,25.5391 L12.9766,20.4414 L11.9219,19.6563 L10.1641,19.6563"/>
</g>

<g fill="none" stroke="#000000" stroke-opacity="1" stroke-width="1" stroke-linecap="square" stroke-linejoin="bevel" transform="matrix(1,0,0,1,0,0)"
font-family="MS Shell Dlg 2" font-size="9.8" font-weight="400" font-style="normal" 
>
</g>

<g fill="#e60000" fill-opacity="1" stroke="none" transform="matrix(1,0,0,1,15.9531,12.7344)"
font-family="MS Shell Dlg 2" font-size="9.8" font-weight="400" font-style="normal" 
>
<path vector-effect="none" fill-rule="nonzero" d="M-11.0117,17.8047 L-14.6211,17.8047 L-14.6211,28.0938 L-10.8359,28.0938 L-10.8359,28.7969 L-8.90234,28.7969 L-8.90234,28.0938 L7.17578,28.0938 L7.17578,28.7969 L9.02734,28.7969 L9.02734,28.0938 L10.1641,28.0938 C12.8672,28.0938 14.3047,27.2422 14.4766,25.5391 L14.4766,19.832 C14.0234,18.4805 12.5664,17.8047 10.1055,17.8047 L9.02734,17.8047 L9.02734,17.1953 L7,17.1953 L7,17.8047 L-8.82031,17.8047 L-8.82031,17.1953 L-11.0117,17.1953 L-11.0117,17.8047 M-11.6328,16.4922 L-8.11719,16.4922 L-8.11719,17.0195 L6.29688,17.0195 L6.29688,16.4922 L9.8125,16.4922 L9.8125,17.0195 C13.3906,17.0195 15.2656,18.0156 15.4375,20.0078 L15.4375,25.6328 C15.4375,27.8594 13.5625,28.9727 9.8125,28.9727 L9.8125,29.5 L6.29688,29.5 L6.29688,28.9727 L-8.11719,28.9727 L-8.11719,29.5 L-11.6328,29.5 L-11.6328,28.9727 L-15.5,28.9727 L-15.5,17.0195 L-11.6328,17.0195 L-11.6328,16.4922 M11.9219,19.6563 L12.9766,20.4414 L12.9766,25.5391 L11.9219,26.3359 L10.1641,26.3359 L10.1641,19.6563 L11.9219,19.6563"/>
</g>

<g fill="none" stroke="#000000" stroke-opacity="1" stroke-width="1" stroke-linecap="square" stroke-linejoin="bevel" transform="matrix(1,0,0,1,0,0)"
font-family="MS Shell Dlg 2" font-size="9.8" font-weight="400" font-style="normal" 
>
</g>

<g fill="#000000" fill-opacity="1" stroke="none" transform="matrix(1,0,0,1,7.50781,14.8359)"
font-family="MS Shell Dlg 2" font-size="9.8" font-weight="400" font-style="normal" 
>
<path vector-effect="none" fill-rule="nonzero" d="M-0.253906,3.5 L-0.253906,-2.22656 L0.503906,-2.22656 L0.503906,3.5 L-0.253906,3.5"/>
</g>

<g fill="none" stroke="#000000" stroke-opacity="1" stroke-width="1" stroke-linecap="square" stroke-linejoin="bevel" transform="matrix(1,0,0,1,0,0)"
font-family="MS Shell Dlg 2" font-size="9.8" font-weight="400" font-style="normal" 
>
</g>

<g fill="#000000" fill-opacity="1" stroke="none" transform="matrix(1,0,0,1,13.7891,14.8359)"
font-family="MS Shell Dlg 2" font-size="9.8" font-weight="400" font-style="normal" 
>
<path vector-effect="none" fill-rule="nonzero" d="M1.70313,1.49219 L2.46094,1.68359 C2.30208,2.30599 2.01628,2.7806 1.60352,3.10742 C1.19076,3.43424 0.686198,3.59766 0.0898438,3.59766 C-0.527344,3.59766 -1.0293,3.472 -1.41602,3.2207 C-1.80273,2.9694 -2.09701,2.60547 -2.29883,2.12891 C-2.50065,1.65234 -2.60156,1.14062 -2.60156,0.59375 C-2.60156,-0.00260416 -2.48763,-0.522786 -2.25977,-0.966797 C-2.0319,-1.41081 -1.70768,-1.74805 -1.28711,-1.97852 C-0.866536,-2.20898 -0.403646,-2.32422 0.101563,-2.32422 C0.674479,-2.32422 1.15625,-2.17839 1.54688,-1.88672 C1.9375,-1.59505 2.20964,-1.1849 2.36328,-0.65625 L1.61719,-0.480469 C1.48438,-0.897135 1.29167,-1.20052 1.03906,-1.39063 C0.786458,-1.58073 0.46875,-1.67578 0.0859375,-1.67578 C-0.354167,-1.67578 -0.722005,-1.57031 -1.01758,-1.35938 C-1.31315,-1.14844 -1.52083,-0.865234 -1.64063,-0.509766 C-1.76042,-0.154297 -1.82031,0.21224 -1.82031,0.589844 C-1.82031,1.07682 -1.74935,1.50195 -1.60742,1.86523 C-1.46549,2.22852 -1.24479,2.5 -0.945313,2.67969 C-0.645833,2.85938 -0.321615,2.94922 0.0273438,2.94922 C0.451823,2.94922 0.811198,2.82682 1.10547,2.58203 C1.39974,2.33724 1.59896,1.97396 1.70313,1.49219 "/>
</g>

<g fill="none" stroke="#000000" stroke-opacity="1" stroke-width="1" stroke-linecap="square" stroke-linejoin="bevel" transform="matrix(1,0,0,1,0,0)"
font-family="MS Shell Dlg 2" font-size="9.8" font-weight="400" font-style="normal" 
>
</g>

<g fill="#000000" fill-opacity="1" stroke="none" transform="matrix(1,0,0,1,19.5625,14.8359)"
font-family="MS Shell Dlg 2" font-size="9.8" font-weight="400" font-style="normal" 
>
<path vector-effect="none" fill-rule="nonzero" d="M1.375,-2.22656 L2.13281,-2.22656 L2.13281,1.08203 C2.13281,1.65755 2.06771,2.11458 1.9375,2.45313 C1.80729,2.79167 1.57227,3.06706 1.23242,3.2793 C0.892578,3.49154 0.446615,3.59766 -0.105469,3.59766 C-0.641927,3.59766 -1.08073,3.50521 -1.42188,3.32031 C-1.76302,3.13542 -2.00651,2.86784 -2.15234,2.51758 C-2.29818,2.16732 -2.37109,1.6888 -2.37109,1.08203 L-2.37109,-2.22656 L-1.61328,-2.22656 L-1.61328,1.07813 C-1.61328,1.57552 -1.56706,1.94206 -1.47461,2.17773 C-1.38216,2.41341 -1.22331,2.59505 -0.998047,2.72266 C-0.772786,2.85026 -0.497396,2.91406 -0.171875,2.91406 C0.385417,2.91406 0.782552,2.78776 1.01953,2.53516 C1.25651,2.28255 1.375,1.79687 1.375,1.07813 L1.375,-2.22656"/>
</g>

<g fill="none" stroke="#000000" stroke-opacity="1" stroke-width="1" stroke-linecap="square" stroke-linejoin="bevel" transform="matrix(1,0,0,1,0,0)"
font-family="MS Shell Dlg 2" font-size="9.8" font-weight="400" font-style="normal" 
>
</g>
</g>
</svg>
