<?xml version="1.0" encoding="UTF-8" standalone="no"?>
<svg width="11.2889mm" height="11.2889mm"
 viewBox="0 0 32 32"
 xmlns="http://www.w3.org/2000/svg" xmlns:xlink="http://www.w3.org/1999/xlink"  version="1.2" baseProfile="tiny">
<title>Qt SVG Document</title>
<desc>Generated with Qt</desc>
<defs>
</defs>
<g fill="none" stroke="black" stroke-width="1" fill-rule="evenodd" stroke-linecap="square" stroke-linejoin="bevel" >

<g fill="#ffff00" fill-opacity="1" stroke="none" transform="matrix(1,0,0,1,15.4375,12.7344)"
font-family="MS Shell Dlg 2" font-size="9.8" font-weight="400" font-style="normal" 
>
<path vector-effect="none" fill-rule="nonzero" d="M-0.195313,5.93359 L-0.113281,5.93359 C0.0585937,6.04297 2.37109,9.99219 6.82422,17.7813 L13.1641,28.7266 L13.1641,28.8906 L-13.1445,28.8906 L-13.3086,28.8086 C-4.73828,13.8867 -0.367188,6.26172 -0.195313,5.93359 "/>
</g>

<g fill="none" stroke="#000000" stroke-opacity="1" stroke-width="1" stroke-linecap="square" stroke-linejoin="bevel" transform="matrix(1,0,0,1,0,0)"
font-family="MS Shell Dlg 2" font-size="9.8" font-weight="400" font-style="normal" 
>
</g>

<g fill="#000000" fill-opacity="1" stroke="none" transform="matrix(1,0,0,1,15.7344,12.7344)"
font-family="MS Shell Dlg 2" font-size="9.8" font-weight="400" font-style="normal" 
>
<path vector-effect="none" fill-rule="nonzero" d="M-0.511719,5.75781 C-0.394531,5.61719 -0.289063,5.54688 -0.195313,5.54688 C-0.09375,5.54688 -0.00390625,5.61719 0.0742188,5.75781 L13.5508,28.668 C13.5898,28.7773 13.6094,28.875 13.6094,28.9609 C13.6094,29.2734 13.3711,29.4531 12.8945,29.5 L-13.1563,29.5 C-13.7344,29.5 -14.0234,29.3203 -14.0234,28.9609 C-14.0234,28.875 -14.0078,28.7773 -13.9766,28.668 L-0.511719,5.75781 M-0.335938,8.82813 L-10.8359,27.4258 L10.4102,27.4258 L-0.335938,8.82813 M-0.0078125,16.1055 L-0.0078125,17.7578 L1.23438,17.0078 L1.48047,17.5 L-0.0078125,18.4961 L0.0742188,20.1484 L0.484375,20.4063 L2.06641,19.4922 L2.06641,17.7578 L2.72266,17.7578 L2.72266,19.2461 L4.04688,18.4141 L4.375,18.9883 L2.96875,19.7383 L4.29297,20.3125 L3.95313,20.9805 L2.30078,20.2422 L0.8125,21.0625 L0.8125,21.6367 L2.30078,22.4688 L3.95313,21.6367 L4.29297,22.2227 L2.96875,22.8789 L4.29297,23.7109 L3.95313,24.2031 L2.72266,23.5469 L2.72266,24.7773 L1.97266,24.7773 L1.97266,23.0547 L0.578125,22.2227 L-0.0078125,22.4688 L-0.0078125,24.2031 L1.64453,25.1172 L1.31641,25.6094 L-0.0078125,24.9414 L-0.0078125,26.5234 L-0.675781,26.5234 L-0.675781,24.9414 L-1.74219,25.6914 L-2.07031,25.1992 L-0.675781,24.2852 L-0.675781,22.4688 L-1.00391,22.2227 L-2.65625,23.2188 L-2.65625,24.7773 L-3.23047,24.7773 L-3.23047,23.4531 L-4.55469,24.3672 L-4.97656,23.7109 L-3.65234,22.7969 L-4.88281,22.3047 L-4.55469,21.7305 L-2.90234,22.4688 L-1.49609,21.5664 L-1.49609,21.0625 L-2.98438,20.2422 C-3.97656,20.6797 -4.5,20.9258 -4.55469,20.9805 L-4.88281,20.4063 L-3.55859,19.7383 L-4.97656,18.9883 L-4.55469,18.4141 L-3.23047,19.2461 L-3.23047,17.7578 L-2.65625,17.7578 L-2.65625,19.4922 L-1.16797,20.4063 L-0.675781,20.1484 L-0.675781,18.4961 L-2.23438,17.5 L-1.82422,17.0078 L-0.675781,17.7578 L-0.675781,16.1055 L-0.0078125,16.1055"/>
</g>

<g fill="none" stroke="#000000" stroke-opacity="1" stroke-width="1" stroke-linecap="square" stroke-linejoin="bevel" transform="matrix(1,0,0,1,0,0)"
font-family="MS Shell Dlg 2" font-size="9.8" font-weight="400" font-style="normal" 
>
</g>
</g>
</svg>
