<?xml version="1.0" encoding="UTF-8" standalone="no"?>
<svg width="11.2889mm" height="11.2889mm"
 viewBox="0 0 32 32"
 xmlns="http://www.w3.org/2000/svg" xmlns:xlink="http://www.w3.org/1999/xlink"  version="1.2" baseProfile="tiny">
<title>Qt SVG Document</title>
<desc>Generated with Qt</desc>
<defs>
</defs>
<g fill="none" stroke="black" stroke-width="1" fill-rule="evenodd" stroke-linecap="square" stroke-linejoin="bevel" >

<g fill="#ffff00" fill-opacity="1" stroke="none" transform="matrix(1,0,0,1,15.4375,12.7344)"
font-family="MS Shell Dlg 2" font-size="9.8" font-weight="400" font-style="normal" 
>
<path vector-effect="none" fill-rule="nonzero" d="M-0.195313,5.93359 L-0.113281,5.93359 C0.0585937,6.04297 2.37109,9.99219 6.82422,17.7813 L13.1641,28.7266 L13.1641,28.8906 L-13.1445,28.8906 L-13.3086,28.8086 C-4.73828,13.8867 -0.367188,6.26172 -0.195313,5.93359 "/>
</g>

<g fill="none" stroke="#000000" stroke-opacity="1" stroke-width="1" stroke-linecap="square" stroke-linejoin="bevel" transform="matrix(1,0,0,1,0,0)"
font-family="MS Shell Dlg 2" font-size="9.8" font-weight="400" font-style="normal" 
>
</g>

<g fill="#000000" fill-opacity="1" stroke="none" transform="matrix(1,0,0,1,15.6797,12.7344)"
font-family="MS Shell Dlg 2" font-size="9.8" font-weight="400" font-style="normal" 
>
<path vector-effect="none" fill-rule="nonzero" d="M-0.722656,6.01563 C-0.558594,5.85156 -0.402344,5.76953 -0.253906,5.76953 C-0.0976563,5.76953 0.046875,5.85156 0.179688,6.01563 L13.4922,28.9141 C13.5156,28.9844 13.5273,29.0508 13.5273,29.1133 C13.5273,29.3711 13.3242,29.5 12.918,29.5 L-13.3789,29.5 C-13.8008,29.5 -14.0117,29.3398 -14.0117,29.0195 C-14.0117,28.918 -13.9922,28.8008 -13.9531,28.668 L-0.722656,6.01563 M-0.230469,9.07422 L-11.0703,27.6836 L10.5977,27.6836 L7.29297,22.3047 L1.92578,22.3047 L1.92578,22.3867 L3.64844,22.8789 L3.48438,23.3828 L1.83203,22.8789 L1.75,22.9609 L4.64453,24.2031 L4.39844,24.7773 L1.50391,23.2891 L1.50391,23.3828 L2.58203,24.543 L2.16016,24.9414 L1.17578,23.793 L1.09375,23.793 L2.66406,26.5234 L2.08984,26.8516 L0.601563,24.1211 L0.4375,24.2031 L0.929688,25.6094 L0.507813,25.7734 L-0.0664063,24.2852 L-0.148438,24.2852 L-0.148438,27.4258 L-0.816406,27.4258 L-0.816406,24.2852 L-0.886719,24.2852 L-1.30859,25.6914 L-1.80078,25.5273 L-1.30859,24.1211 L-1.47266,24.1211 L-3.20703,26.8516 L-3.62891,26.5234 L-1.80078,23.875 L-1.88281,23.793 L-3.04297,24.9414 L-3.46484,24.543 L-2.21094,23.4531 L-2.30469,23.3828 L-5.02344,24.8711 L-5.28125,24.3672 L-2.55078,22.9609 L-2.63281,22.7969 L-4.20313,23.2188 L-4.36719,22.7148 L-2.71484,22.3867 L-2.79688,22.3047 L-5.9375,22.3047 L-5.9375,21.6367 L-2.79688,21.6367 L-2.79688,21.4727 L-4.20313,21.0625 L-4.03906,20.5703 L-2.63281,20.9805 L-2.63281,20.8164 L-5.11719,19.4922 L-4.85938,18.9883 L-2.375,20.4063 L-2.30469,20.3125 L-3.20703,19.4102 L-2.79688,18.918 L-1.88281,19.9023 L-1.71875,19.8203 L-3.20703,17.3359 L-2.79688,17.0078 L-1.30859,19.5742 L-1.14453,19.4922 L-1.63672,18.168 L-1.14453,17.9219 L-0.652344,19.4102 L-0.558594,19.4102 L-0.558594,16.2695 L0.0976563,16.2695 L0.0976563,19.4102 L0.179688,19.4922 L0.671875,17.9219 L1.17578,18.0039 L0.671875,19.5742 L0.765625,19.6563 L2.32422,17.0898 L2.74609,17.3359 L1.17578,19.9023 L1.25781,20.0781 L2.41797,18.918 L2.74609,19.4102 L1.50391,20.4063 L1.58594,20.4766 L4.39844,18.9883 L4.64453,19.4102 L1.83203,20.8984 L1.83203,21.0625 L3.64844,20.5703 L3.8125,21.0625 L1.99609,21.5664 L1.99609,21.6367 L7.12891,21.6367 L-0.230469,9.07422"/>
</g>

<g fill="none" stroke="#000000" stroke-opacity="1" stroke-width="1" stroke-linecap="square" stroke-linejoin="bevel" transform="matrix(1,0,0,1,0,0)"
font-family="MS Shell Dlg 2" font-size="9.8" font-weight="400" font-style="normal" 
>
</g>
</g>
</svg>
