<?xml version="1.0" encoding="UTF-8" standalone="no"?>
<svg width="11.2889mm" height="11.2889mm"
 viewBox="0 0 32 32"
 xmlns="http://www.w3.org/2000/svg" xmlns:xlink="http://www.w3.org/1999/xlink"  version="1.2" baseProfile="tiny">
<title>Qt SVG Document</title>
<desc>Generated with Qt</desc>
<defs>
</defs>
<g fill="none" stroke="black" stroke-width="1" fill-rule="evenodd" stroke-linecap="square" stroke-linejoin="bevel" >

<g fill="#ffff00" fill-opacity="1" stroke="none" transform="matrix(1,0,0,1,15.9219,12.7344)"
font-family="MS Shell Dlg 2" font-size="9.8" font-weight="400" font-style="normal" 
>
<path vector-effect="none" fill-rule="nonzero" d="M14.125,27.0039 C14.125,27.707 13.8965,28.2988 13.4395,28.7793 C12.9824,29.2598 12.4102,29.5 11.7227,29.5 L-11.5391,29.5 C-12.2422,29.5 -12.8281,29.2598 -13.2969,28.7793 C-13.7656,28.2988 -14,27.707 -14,27.0039 C-14,26.5586 -13.8516,26.1055 -13.5547,25.6445 L-2.04688,5.76953 C-1.58594,4.90234 -0.875,4.46875 0.0859375,4.46875 C1.23438,4.46875 2,4.98438 2.38281,6.01563 L13.6563,25.6094 C13.9688,25.9844 14.125,26.4492 14.125,27.0039 "/>
</g>

<g fill="none" stroke="#000000" stroke-opacity="1" stroke-width="1" stroke-linecap="square" stroke-linejoin="bevel" transform="matrix(1,0,0,1,0,0)"
font-family="MS Shell Dlg 2" font-size="9.8" font-weight="400" font-style="normal" 
>
</g>

<g fill="#000000" fill-opacity="1" stroke="none" transform="matrix(1,0,0,1,15.5781,12.7344)"
font-family="MS Shell Dlg 2" font-size="9.8" font-weight="400" font-style="normal" 
>
<path vector-effect="none" fill-rule="nonzero" d="M13.6094,27.0508 C13.6094,27.582 13.4316,28.0352 13.0762,28.4102 C12.7207,28.7852 12.2891,28.9727 11.7813,28.9727 L-11.4688,28.9727 C-11.9766,28.9727 -12.418,28.7852 -12.793,28.4102 C-13.168,28.0352 -13.3555,27.582 -13.3555,27.0508 C-13.3555,26.6055 -13.2383,26.2617 -13.0039,26.0195 L-1.50781,6.12109 C-1.14063,5.46484 -0.589844,5.13672 0.144531,5.13672 C0.988281,5.13672 1.57422,5.53516 1.90234,6.33203 L13.2109,25.9844 C13.4766,26.3203 13.6094,26.6758 13.6094,27.0508 M11.3125,26.6992 L0.144531,7.57422 L-11.0117,26.6992 L11.3125,26.6992 M-3.91016,18.6719 C-3.91016,17.3125 -3.48047,16.2695 -2.62109,15.543 C-1.81641,14.8711 -0.953125,14.5352 -0.03125,14.5352 L0.320313,14.5352 C1.24219,14.5352 2.10938,14.8711 2.92188,15.543 C3.78125,16.2695 4.21094,17.3125 4.21094,18.6719 L3.37891,25.3984 L2.03125,25.3984 L2.81641,18.6719 C2.81641,17.7109 2.51563,16.9883 1.91406,16.5039 C1.375,16.0742 0.84375,15.8594 0.320313,15.8594 C0.265625,15.8594 0.207031,15.8633 0.144531,15.8711 C0.0898438,15.8633 0.0351562,15.8594 -0.0195313,15.8594 C-0.519531,15.8594 -1.04688,16.082 -1.60156,16.5273 C-2.21875,17.0195 -2.52734,17.7344 -2.52734,18.6719 L-1.64844,25.3984 L-3.125,25.3984 L-3.91016,18.6719 M3.33203,23.5 L2.53516,23.5 L2.34766,25.0469 L3.13281,25.0469 L3.33203,23.5 M6.46094,23.3477 C6.64844,23.5195 6.77344,23.6816 6.83594,23.834 C6.89844,23.9863 6.92969,24.1758 6.92969,24.4023 C6.92969,24.5977 6.89844,24.8066 6.83594,25.0293 C6.77344,25.252 6.64844,25.3984 6.46094,25.4688 L6.10938,25.4688 C6.16406,25.4609 6.2207,25.4121 6.2793,25.3223 C6.33789,25.2324 6.38867,25.1348 6.43164,25.0293 C6.47461,24.9238 6.50977,24.8125 6.53711,24.6953 C6.56445,24.5781 6.57813,24.4805 6.57813,24.4023 C6.57813,24.3164 6.56445,24.2148 6.53711,24.0977 C6.50977,23.9805 6.47461,23.8691 6.43164,23.7637 C6.38867,23.6582 6.33789,23.5703 6.2793,23.5 C6.2207,23.4297 6.16406,23.3789 6.10938,23.3477 L6.46094,23.3477 M4.91406,23.3477 C5.10156,23.5195 5.22656,23.6816 5.28906,23.834 C5.35156,23.9863 5.38281,24.1758 5.38281,24.4023 C5.38281,24.5977 5.35156,24.8066 5.28906,25.0293 C5.22656,25.252 5.10156,25.3984 4.91406,25.4688 L4.5625,25.4688 C4.61719,25.4609 4.67383,25.4121 4.73242,25.3223 C4.79102,25.2324 4.8418,25.1348 4.88477,25.0293 C4.92773,24.9238 4.96289,24.8125 4.99023,24.6953 C5.01758,24.5781 5.03125,24.4805 5.03125,24.4023 C5.03125,24.3164 5.01758,24.2148 4.99023,24.0977 C4.96289,23.9805 4.92773,23.8691 4.88477,23.7637 C4.8418,23.6582 4.79102,23.5703 4.73242,23.5 C4.67383,23.4297 4.61719,23.3789 4.5625,23.3477 L4.91406,23.3477 M-5.90234,23.3477 C-5.95703,23.3789 -6.01367,23.4297 -6.07227,23.5 C-6.13086,23.5703 -6.18359,23.6582 -6.23047,23.7637 C-6.27734,23.8691 -6.3125,23.9805 -6.33594,24.0977 C-6.35938,24.2148 -6.37109,24.3164 -6.37109,24.4023 C-6.37109,24.4805 -6.35938,24.5781 -6.33594,24.6953 C-6.3125,24.8125 -6.27734,24.9238 -6.23047,25.0293 C-6.18359,25.1348 -6.13086,25.2324 -6.07227,25.3223 C-6.01367,25.4121 -5.95703,25.4609 -5.90234,25.4688 L-6.26563,25.4688 C-6.44531,25.3984 -6.56641,25.252 -6.62891,25.0293 C-6.69141,24.8066 -6.72266,24.5977 -6.72266,24.4023 C-6.72266,24.1758 -6.69141,23.9863 -6.62891,23.834 C-6.56641,23.6816 -6.44531,23.5195 -6.26563,23.3477 L-5.90234,23.3477 M-4.35547,23.3477 C-4.41016,23.3789 -4.4668,23.4297 -4.52539,23.5 C-4.58398,23.5703 -4.63672,23.6582 -4.68359,23.7637 C-4.73047,23.8691 -4.76563,23.9805 -4.78906,24.0977 C-4.8125,24.2148 -4.82422,24.3164 -4.82422,24.4023 C-4.82422,24.4805 -4.8125,24.5781 -4.78906,24.6953 C-4.76563,24.8125 -4.73047,24.9238 -4.68359,25.0293 C-4.63672,25.1348 -4.58398,25.2324 -4.52539,25.3223 C-4.4668,25.4121 -4.41016,25.4609 -4.35547,25.4688 L-4.70703,25.4688 C-4.89453,25.3984 -5.01953,25.252 -5.08203,25.0293 C-5.14453,24.8066 -5.17578,24.5977 -5.17578,24.4023 C-5.17578,24.1758 -5.14453,23.9863 -5.08203,23.834 C-5.01953,23.6816 -4.89453,23.5195 -4.70703,23.3477 L-4.35547,23.3477 M-2.82031,25.0703 L-2.03516,25.0703 L-2.22266,23.5234 L-3.01953,23.5234 L-2.82031,25.0703"/>
</g>

<g fill="none" stroke="#000000" stroke-opacity="1" stroke-width="1" stroke-linecap="square" stroke-linejoin="bevel" transform="matrix(1,0,0,1,0,0)"
font-family="MS Shell Dlg 2" font-size="9.8" font-weight="400" font-style="normal" 
>
</g>
</g>
</svg>
