<?xml version="1.0" encoding="UTF-8" standalone="no"?>
<svg width="11.2889mm" height="11.2889mm"
 viewBox="0 0 32 32"
 xmlns="http://www.w3.org/2000/svg" xmlns:xlink="http://www.w3.org/1999/xlink"  version="1.2" baseProfile="tiny">
<title>Qt SVG Document</title>
<desc>Generated with Qt</desc>
<defs>
</defs>
<g fill="none" stroke="black" stroke-width="1" fill-rule="evenodd" stroke-linecap="square" stroke-linejoin="bevel" >

<g fill="#ff0000" fill-opacity="1" stroke="none" transform="matrix(1,0,0,1,14.1875,12.7344)"
font-family="MS Shell Dlg 2" font-size="9.8" font-weight="400" font-style="normal" 
>
<path vector-effect="none" fill-rule="nonzero" d="M-10.7539,17.7695 C-10.7539,14.7539 -9.7207,12.2988 -7.6543,10.4043 C-5.58789,8.50977 -3.19922,7.51953 -0.488281,7.43359 C2.65234,7.63672 5.15234,8.68359 7.01172,10.5742 C8.74609,12.3555 9.61328,14.5313 9.61328,17.1016 C9.61328,17.2734 9.60938,17.4492 9.60156,17.6289 C9.53906,20.6445 8.61914,23.0781 6.8418,24.9297 C5.06445,26.7813 2.58203,27.7891 -0.605469,27.9531 C-3.41016,27.7891 -5.76953,26.7676 -7.68359,24.8887 C-9.59766,23.0098 -10.6211,20.6367 -10.7539,17.7695 "/>
</g>

<g fill="none" stroke="#000000" stroke-opacity="1" stroke-width="1" stroke-linecap="square" stroke-linejoin="bevel" transform="matrix(1,0,0,1,0,0)"
font-family="MS Shell Dlg 2" font-size="9.8" font-weight="400" font-style="normal" 
>
</g>

<g fill="#000000" fill-opacity="1" stroke="none" transform="matrix(1,0,0,1,15.1484,12.7344)"
font-family="MS Shell Dlg 2" font-size="9.8" font-weight="400" font-style="normal" 
>
<path vector-effect="none" fill-rule="nonzero" d="M-10.1797,17.875 C-10.0469,20.5547 -9.0918,22.7676 -7.31445,24.5137 C-5.53711,26.2598 -3.34375,27.207 -0.734375,27.3555 C2.23437,27.207 4.54688,26.2695 6.20313,24.543 C7.85938,22.8164 8.71875,20.5508 8.78125,17.7461 C8.78906,17.5898 8.79297,17.4375 8.79297,17.2891 C8.79297,14.8828 7.98047,12.8477 6.35547,11.1836 C4.62891,9.42578 2.30469,8.44922 -0.617188,8.25391 C-3.14063,8.33984 -5.36523,9.26367 -7.29102,11.0254 C-9.2168,12.7871 -10.1797,15.0703 -10.1797,17.875 M-0.734375,6.14453 C2.50781,6.14453 5.25586,7.2207 7.50977,9.37305 C9.76367,11.5254 10.9453,14.3398 11.0547,17.8164 C10.9844,21.3164 9.8125,24.1348 7.53906,26.2715 C5.26563,28.4082 2.50781,29.4766 -0.734375,29.4766 C-3.98437,29.4766 -6.75195,28.3418 -9.03711,26.0723 C-11.3223,23.8027 -12.4648,21.0508 -12.4648,17.8164 C-12.4648,14.6055 -11.3223,11.8574 -9.03711,9.57227 C-6.75195,7.28711 -3.98437,6.14453 -0.734375,6.14453 "/>
</g>

<g fill="none" stroke="#000000" stroke-opacity="1" stroke-width="1" stroke-linecap="square" stroke-linejoin="bevel" transform="matrix(1,0,0,1,0,0)"
font-family="MS Shell Dlg 2" font-size="9.8" font-weight="400" font-style="normal" 
>
</g>
</g>
</svg>
