<?xml version="1.0" encoding="UTF-8" standalone="no"?>
<svg width="11.2889mm" height="11.2889mm"
 viewBox="0 0 32 32"
 xmlns="http://www.w3.org/2000/svg" xmlns:xlink="http://www.w3.org/1999/xlink"  version="1.2" baseProfile="tiny">
<title>Qt SVG Document</title>
<desc>Generated with Qt</desc>
<defs>
</defs>
<g fill="none" stroke="black" stroke-width="1" fill-rule="evenodd" stroke-linecap="square" stroke-linejoin="bevel" >

<g fill="#ff0000" fill-opacity="1" stroke="none" transform="matrix(1,0,0,1,0,0)"
font-family="MS Shell Dlg 2" font-size="9.8" font-weight="400" font-style="normal" 
>
<path vector-effect="non-scaling-stroke" fill-rule="evenodd" d="M23.3636,16 C23.3636,20.0668 20.0668,23.3636 16,23.3636 C11.9332,23.3636 8.6364,20.0668 8.6364,16 C8.6364,11.9332 11.9332,8.6364 16,8.6364 C20.0668,8.6364 23.3636,11.9332 23.3636,16 "/>
</g>

<g fill="#000000" fill-opacity="1" stroke="none" transform="matrix(1,0,0,1,15.5469,14.8359)"
font-family="MS Shell Dlg 2" font-size="9.8" font-weight="400" font-style="normal" 
>
<path vector-effect="none" fill-rule="nonzero" d="M-0.0976563,2.07813 L-0.3125,-0.957031 L-0.3125,-2.22656 L0.558594,-2.22656 L0.558594,-0.957031 L0.355469,2.07813 L-0.0976563,2.07813 M-0.28125,3.5 L-0.28125,2.69922 L0.527344,2.69922 L0.527344,3.5 L-0.28125,3.5"/>
</g>

<g fill="#ff0000" fill-opacity="1" stroke="none" transform="matrix(1,0,0,1,0,0)"
font-family="MS Shell Dlg 2" font-size="9.8" font-weight="400" font-style="normal" 
>
</g>

<g fill="#ffffff" fill-opacity="0" stroke="#000000" stroke-opacity="1" stroke-width="0.416667" stroke-linecap="square" stroke-linejoin="miter" stroke-miterlimit="2" transform="matrix(1,0,0,1,0,0)"
font-family="MS Shell Dlg 2" font-size="9.8" font-weight="400" font-style="normal" 
>
<path vector-effect="none" fill-rule="evenodd" d="M22.7386,16 C22.7386,19.7216 19.7216,22.7386 16,22.7386 C12.2784,22.7386 9.2614,19.7216 9.2614,16 C9.2614,12.2784 12.2784,9.2614 16,9.2614 C19.7216,9.2614 22.7386,12.2784 22.7386,16 "/>
</g>
</g>
</svg>
