<?xml version="1.0" encoding="UTF-8" standalone="no"?>
<svg width="11.2889mm" height="11.2889mm"
 viewBox="0 0 32 32"
 xmlns="http://www.w3.org/2000/svg" xmlns:xlink="http://www.w3.org/1999/xlink"  version="1.2" baseProfile="tiny">
<title>Qt SVG Document</title>
<desc>Generated with Qt</desc>
<defs>
</defs>
<g fill="none" stroke="black" stroke-width="1" fill-rule="evenodd" stroke-linecap="square" stroke-linejoin="bevel" >

<g fill="#ffffff" fill-opacity="1" stroke="none" transform="matrix(1,0,0,1,15.9766,12.7344)"
font-family="MS Shell Dlg 2" font-size="9.8" font-weight="400" font-style="normal" 
>
<path vector-effect="none" fill-rule="nonzero" d="M-7.11719,4.89063 L1.67188,4.89063 L14.0117,17.418 L1.67188,29.5 L-7.11719,29.5 L1.32031,20.3594 L-13.7969,20.3594 C-14.2656,20.3594 -14.5,20.125 -14.5,19.6563 L-14.5,14.7344 C-14.4375,14.2656 -14.2031,14.0313 -13.7969,14.0313 L1.32031,14.0313 L-7.11719,4.89063"/>
</g>

<g fill="none" stroke="#000000" stroke-opacity="1" stroke-width="1" stroke-linecap="square" stroke-linejoin="bevel" transform="matrix(1,0,0,1,0,0)"
font-family="MS Shell Dlg 2" font-size="9.8" font-weight="400" font-style="normal" 
>
</g>

<g fill="#ff0000" fill-opacity="1" stroke="none" transform="matrix(1,0,0,1,15.9766,12.7344)"
font-family="MS Shell Dlg 2" font-size="9.8" font-weight="400" font-style="normal" 
>
<path vector-effect="none" fill-rule="nonzero" d="M-3.85938,6.27344 L2.52734,13.1641 C3.06641,13.6563 3.33594,14.1016 3.33594,14.5 C3.33594,14.6328 3.30859,14.7578 3.25391,14.875 C3.04297,15.3281 2.5,15.5547 1.625,15.5547 L1.41406,15.5547 L-12.8711,15.5898 L-12.8594,18.8711 L1.33203,18.8477 L1.46094,18.8477 C2.41406,18.8477 3.00391,19.1094 3.23047,19.6328 C3.28516,19.7813 3.3125,19.9297 3.3125,20.0781 C3.3125,20.5078 3.07813,20.9727 2.60938,21.4727 L-3.40234,27.9297 L0.945313,27.9297 L11.832,17.4297 L0.898438,6.32031 L-3.85938,6.27344 M-7.11719,4.89063 L1.67188,4.89063 L14.0117,17.418 L1.67188,29.5 L-7.11719,29.5 L1.32031,20.3594 L-13.7969,20.3594 C-14.2656,20.3594 -14.5,20.125 -14.5,19.6563 L-14.5,14.7344 C-14.4375,14.2656 -14.2031,14.0313 -13.7969,14.0313 L1.32031,14.0313 L-7.11719,4.89063"/>
</g>

<g fill="none" stroke="#000000" stroke-opacity="1" stroke-width="1" stroke-linecap="square" stroke-linejoin="bevel" transform="matrix(1,0,0,1,0,0)"
font-family="MS Shell Dlg 2" font-size="9.8" font-weight="400" font-style="normal" 
>
</g>
</g>
</svg>
