<?xml version="1.0" encoding="UTF-8" standalone="no"?>
<svg width="11.2889mm" height="11.2889mm"
 viewBox="0 0 32 32"
 xmlns="http://www.w3.org/2000/svg" xmlns:xlink="http://www.w3.org/1999/xlink"  version="1.2" baseProfile="tiny">
<title>Qt SVG Document</title>
<desc>Generated with Qt</desc>
<defs>
</defs>
<g fill="none" stroke="black" stroke-width="1" fill-rule="evenodd" stroke-linecap="square" stroke-linejoin="bevel" >

<g fill="#ffffff" fill-opacity="1" stroke="none" transform="matrix(1,0,0,1,15.4531,12.7344)"
font-family="MS Shell Dlg 2" font-size="9.8" font-weight="400" font-style="normal" 
>
<path vector-effect="none" fill-rule="nonzero" d="M11.0039,6.49609 L11.0039,28.7969 L-11.2969,28.7969 L-11.2969,6.49609 L11.0039,6.49609"/>
</g>

<g fill="none" stroke="#000000" stroke-opacity="1" stroke-width="1" stroke-linecap="square" stroke-linejoin="bevel" transform="matrix(1,0,0,1,0,0)"
font-family="MS Shell Dlg 2" font-size="9.8" font-weight="400" font-style="normal" 
>
</g>

<g fill="#000000" fill-opacity="1" stroke="none" transform="matrix(1,0,0,1,15.9297,12.7344)"
font-family="MS Shell Dlg 2" font-size="9.8" font-weight="400" font-style="normal" 
>
<path vector-effect="none" fill-rule="nonzero" d="M-11.332,5.78125 L11.0508,5.78125 C11.4961,5.83594 11.7188,6.05859 11.7188,6.44922 L11.7188,28.832 C11.7188,29.2773 11.4961,29.5 11.0508,29.5 L-11.332,29.5 C-11.7773,29.5 -12,29.2773 -12,28.832 L-12,6.44922 C-11.9375,6.00391 -11.7148,5.78125 -11.332,5.78125 M-10.6641,7.11719 L-10.6641,28.1641 L10.3828,28.1641 L10.3828,7.11719 L-10.6641,7.11719 M-0.128906,8.125 C4.65234,8.125 7.18359,10.6836 7.46484,15.8008 L-7.99219,15.8008 C-7.60937,10.6836 -5.14453,8.125 -0.597656,8.125 L-0.128906,8.125 M-2.64844,17.1367 L2.02734,17.1367 C2.47266,17.1367 2.69531,17.8047 2.69531,19.1406 L6.70313,19.1406 C7.14844,19.1953 7.37109,19.418 7.37109,19.8086 L7.37109,20.8164 C7.37109,21.2617 7.14844,21.4844 6.70313,21.4844 L-6.98438,21.4844 C-7.42969,21.4844 -7.65234,21.2617 -7.65234,20.8164 L-7.65234,19.8086 C-7.59766,19.3633 -7.375,19.1406 -6.98438,19.1406 L-3.31641,19.1406 C-3.31641,17.8047 -3.09375,17.1367 -2.64844,17.1367 M-5.64844,22.4805 C-4.92188,22.5352 -4.55859,22.5938 -4.55859,22.6563 L-4.55859,23.3945 C-4.89453,23.2852 -5.28516,23.2305 -5.73047,23.2305 C-6.12109,23.2305 -6.34375,23.3438 -6.39844,23.5703 C-6.39844,23.625 -6.42969,23.6523 -6.49219,23.6523 C-6.49219,23.9258 -6.04687,24.2031 -5.15625,24.4844 C-4.53906,24.7656 -4.23047,25.1289 -4.23047,25.5742 L-4.23047,25.8203 C-4.23047,26.3828 -4.59375,26.7734 -5.32031,26.9922 C-5.59375,27.0469 -5.84375,27.0742 -6.07031,27.0742 C-6.96094,27.0195 -7.40625,26.9375 -7.40625,26.8281 L-7.40625,26.0664 C-6.90625,26.2383 -6.46094,26.3242 -6.07031,26.3242 C-5.46094,26.3242 -5.15625,26.1563 -5.15625,25.8203 C-5.15625,25.4922 -5.60156,25.2148 -6.49219,24.9883 C-7.10156,24.707 -7.40625,24.2891 -7.40625,23.7344 C-7.40625,23.125 -7.01562,22.7344 -6.23438,22.5625 C-6.00781,22.5078 -5.8125,22.4805 -5.64844,22.4805 M1.86328,22.4805 C2.69922,22.4805 3.25391,22.8711 3.52734,23.6523 C3.58984,23.9883 3.62109,24.293 3.62109,24.5664 L3.62109,24.9883 C3.62109,25.9336 3.25781,26.5742 2.53125,26.9102 C2.30469,27.0195 2.08203,27.0742 1.86328,27.0742 L1.78125,27.0742 C1,27.0742 0.46875,26.6836 0.1875,25.9023 C0.078125,25.5664 0.0234375,25.2617 0.0234375,24.9883 L0.0234375,24.5664 C0.0234375,23.6211 0.386719,22.9844 1.11328,22.6563 C1.38672,22.5391 1.63672,22.4805 1.86328,22.4805 M-3.5625,22.5625 L-0.386719,22.5625 C-0.332031,22.5625 -0.304688,22.5938 -0.304688,22.6563 L-0.304688,23.2305 L-1.55859,23.2305 L-1.55859,26.9102 C-1.55859,26.9648 -1.58594,26.9922 -1.64063,26.9922 L-2.39063,26.9922 L-2.39063,23.2305 L-3.64453,23.2305 L-3.64453,22.6563 C-3.64453,22.5938 -3.61719,22.5625 -3.5625,22.5625 M4.28906,22.5625 L5.53125,22.5625 C6.48437,22.5625 7.07031,22.8711 7.28906,23.4883 L7.28906,24.0625 C7.28906,24.7891 6.87109,25.2656 6.03516,25.4922 C5.87109,25.5469 5.70313,25.5742 5.53125,25.5742 L5.03906,25.5742 L5.03906,26.9922 L4.28906,26.9922 C4.22656,26.9922 4.19531,26.9648 4.19531,26.9102 L4.19531,22.6563 C4.19531,22.5938 4.22656,22.5625 4.28906,22.5625 M0.949219,24.6602 L0.949219,24.8242 C0.949219,25.8242 1.25391,26.3242 1.86328,26.3242 C2.48047,26.3242 2.78906,25.8242 2.78906,24.8242 L2.78906,24.7305 C2.78906,23.7305 2.48047,23.2305 1.86328,23.2305 C1.25391,23.2305 0.949219,23.707 0.949219,24.6602 M5.03906,23.2305 L5.03906,24.8242 L5.53125,24.8242 C5.92969,24.8242 6.21094,24.6836 6.375,24.4023 C6.42969,24.293 6.45703,24.1797 6.45703,24.0625 L6.45703,23.9922 C6.45703,23.4844 6.125,23.2305 5.46094,23.2305 L5.03906,23.2305"/>
</g>

<g fill="none" stroke="#000000" stroke-opacity="1" stroke-width="1" stroke-linecap="square" stroke-linejoin="bevel" transform="matrix(1,0,0,1,0,0)"
font-family="MS Shell Dlg 2" font-size="9.8" font-weight="400" font-style="normal" 
>
</g>

<g fill="#ff0000" fill-opacity="1" stroke="none" transform="matrix(1,0,0,1,12.3203,12.7344)"
font-family="MS Shell Dlg 2" font-size="9.8" font-weight="400" font-style="normal" 
>
<path vector-effect="none" fill-rule="nonzero" d="M-0.304688,8.98047 C3.85937,9.34766 6.0625,11.3516 6.30469,14.9922 L-6.83203,14.9922 C-6.26172,11.125 -4.08594,9.12109 -0.304688,8.98047 M-0.714844,5.81641 L-0.714844,5.83984 L-0.75,5.83984 L-0.75,5.81641 L-0.714844,5.81641 M-0.175781,29.3945 L-0.175781,29.4531 L-0.304688,29.4531 L-0.304688,29.3945 L-0.175781,29.3945"/>
</g>

<g fill="none" stroke="#000000" stroke-opacity="1" stroke-width="1" stroke-linecap="square" stroke-linejoin="bevel" transform="matrix(1,0,0,1,0,0)"
font-family="MS Shell Dlg 2" font-size="9.8" font-weight="400" font-style="normal" 
>
</g>
</g>
</svg>
