<?xml version="1.0" encoding="UTF-8" standalone="no"?>
<svg width="11.2889mm" height="11.2889mm"
 viewBox="0 0 32 32"
 xmlns="http://www.w3.org/2000/svg" xmlns:xlink="http://www.w3.org/1999/xlink"  version="1.2" baseProfile="tiny">
<title>Qt SVG Document</title>
<desc>Generated with Qt</desc>
<defs>
</defs>
<g fill="none" stroke="black" stroke-width="1" fill-rule="evenodd" stroke-linecap="square" stroke-linejoin="bevel" >

<g fill="#ffffff" fill-opacity="1" stroke="none" transform="matrix(1,0,0,1,15.3047,12.7344)"
font-family="MS Shell Dlg 2" font-size="9.8" font-weight="400" font-style="normal" 
>
<path vector-effect="none" fill-rule="nonzero" d="M-14.3594,13.2578 L14.2344,13.2578 C14.7031,13.3125 14.9375,13.5508 14.9375,13.9727 L14.9375,28.082 C14.9375,28.5586 14.7031,28.7969 14.2344,28.7969 L-14.3594,28.7969 C-14.8281,28.7969 -15.0625,28.5586 -15.0625,28.082 L-15.0625,13.9727 C-15,13.4961 -14.7656,13.2578 -14.3594,13.2578 "/>
</g>

<g fill="none" stroke="#000000" stroke-opacity="1" stroke-width="1" stroke-linecap="square" stroke-linejoin="bevel" transform="matrix(1,0,0,1,0,0)"
font-family="MS Shell Dlg 2" font-size="9.8" font-weight="400" font-style="normal" 
>
</g>

<g fill="#38a800" fill-opacity="1" stroke="none" transform="matrix(1,0,0,1,15.6094,12.7344)"
font-family="MS Shell Dlg 2" font-size="9.8" font-weight="400" font-style="normal" 
>
<path vector-effect="none" fill-rule="nonzero" d="M-14.8047,13.0234 L14.668,13.0234 C15.1523,13.0781 15.3945,13.3203 15.3945,13.75 L15.3945,28.3047 C15.3945,28.7891 15.1523,29.0313 14.668,29.0313 L-14.8047,29.0313 C-15.2891,29.0313 -15.5313,28.7891 -15.5313,28.3047 L-15.5313,13.75 C-15.4688,13.2656 -15.2266,13.0234 -14.8047,13.0234 M-3.61328,15.2031 C-4.03516,15.2031 -4.24609,15.4453 -4.24609,15.9297 L-4.24609,22.4805 C-4.18359,22.9648 -3.94141,23.207 -3.51953,23.207 L-2.06641,23.207 L-2.06641,22.1172 C-2.79297,22.1172 -3.15625,21.875 -3.15625,21.3906 L-3.15625,17.0195 C-3.09375,16.5352 -2.85156,16.293 -2.42969,16.293 L2.29297,16.293 C2.78516,16.3555 3.03125,16.5977 3.03125,17.0195 L3.03125,21.3906 C3.03125,21.875 2.66406,22.1172 1.92969,22.1172 L1.92969,23.207 L3.57031,23.207 C3.9375,23.207 4.12109,22.9922 4.12109,22.5625 L4.12109,15.9297 C4.12109,15.4453 3.87891,15.2031 3.39453,15.2031 L-3.61328,15.2031 M-0.613281,18.4844 L-0.613281,24.2969 L-2.79297,24.2969 L0.113281,27.2148 L2.65625,24.2969 L0.476563,24.2969 L0.476563,18.4844 L-0.613281,18.4844"/>
</g>

<g fill="none" stroke="#000000" stroke-opacity="1" stroke-width="1" stroke-linecap="square" stroke-linejoin="bevel" transform="matrix(1,0,0,1,0,0)"
font-family="MS Shell Dlg 2" font-size="9.8" font-weight="400" font-style="normal" 
>
</g>

<g fill="#000000" fill-opacity="1" stroke="none" transform="matrix(1,0,0,1,15.9219,12.7344)"
font-family="MS Shell Dlg 2" font-size="9.8" font-weight="400" font-style="normal" 
>
<path vector-effect="none" fill-rule="nonzero" d="M15.8633,12.625 L15.8633,29.5 L-16,29.5 L-16,12.625 L15.8633,12.625 M-15.25,13.3867 L-15.25,28.7383 L15.1133,28.7383 L15.1133,13.3867 L-15.25,13.3867"/>
</g>

<g fill="none" stroke="#000000" stroke-opacity="1" stroke-width="1" stroke-linecap="square" stroke-linejoin="bevel" transform="matrix(1,0,0,1,0,0)"
font-family="MS Shell Dlg 2" font-size="9.8" font-weight="400" font-style="normal" 
>
</g>
</g>
</svg>
