<?xml version="1.0" encoding="UTF-8" standalone="no"?>
<svg width="11.2889mm" height="11.2889mm"
 viewBox="0 0 32 32"
 xmlns="http://www.w3.org/2000/svg" xmlns:xlink="http://www.w3.org/1999/xlink"  version="1.2" baseProfile="tiny">
<title>Qt SVG Document</title>
<desc>Generated with Qt</desc>
<defs>
</defs>
<g fill="none" stroke="black" stroke-width="1" fill-rule="evenodd" stroke-linecap="square" stroke-linejoin="bevel" >

<g fill="#ff0000" fill-opacity="1" stroke="none" transform="matrix(1,0,0,1,14.8125,12.7344)"
font-family="MS Shell Dlg 2" font-size="9.8" font-weight="400" font-style="normal" 
>
<path vector-effect="none" fill-rule="nonzero" d="M-0.382813,29.4648 L-0.382813,29.5 L-0.429688,29.5 L-0.429688,29.4648 L-0.382813,29.4648 M-1.56641,-9.14844 L-3.13672,-7.83594 L-4.80078,-10.168 L-1.69531,-12.2891 L1.28125,-12.2891 L4.46875,-10.0625 L2.93359,-7.84766 L1.22266,-9.11328 L1.22266,5.80469 L-1.56641,5.80469 L-1.56641,-9.14844 M-3.46484,-16.0977 L-3.46484,-16.0859 L-3.47656,-16.0859 L-3.47656,-16.0977 L-3.46484,-16.0977"/>
</g>

<g fill="none" stroke="#000000" stroke-opacity="1" stroke-width="1" stroke-linecap="square" stroke-linejoin="bevel" transform="matrix(1,0,0,1,0,0)"
font-family="MS Shell Dlg 2" font-size="9.8" font-weight="400" font-style="normal" 
>
</g>

<g fill="#000000" fill-opacity="1" stroke="none" transform="matrix(1,0,0,1,15.9844,12.7344)"
font-family="MS Shell Dlg 2" font-size="9.8" font-weight="400" font-style="normal" 
>
<path vector-effect="none" fill-rule="nonzero" d="M3.4375,-13.7188 L5.14844,-12.3242 L4.82031,-11.9609 L4.26953,-12.3945 L3.29688,-11.2578 L4.50391,-10.332 L5.19531,-11.3164 L6.22656,-10.5898 L5.95703,-10.2031 L5.34766,-10.6367 L2.79297,-6.79297 L3.32031,-6.34766 L3.01563,-5.99609 L2.11328,-6.76953 L2.6875,-7.56641 L1.48047,-8.44531 L1.48047,-4.66016 L2.28906,-4.66016 L2.28906,-4.15625 L1.48047,-4.15625 L1.48047,4.02344 C2.41797,4.125 3.2832,4.38477 4.07617,4.80273 C4.86914,5.2207 5.28516,5.71484 5.32422,6.28516 C5.29297,7.12891 4.70703,7.80469 3.56641,8.3125 C2.45703,8.80469 1.23828,9.05078 -0.0898438,9.05078 L-0.453125,9.05078 C-2.07031,9.05078 -3.36719,8.74219 -4.34375,8.125 C-5.25781,7.55469 -5.71484,7.01563 -5.71484,6.50781 C-5.71484,6.44531 -5.70703,6.38281 -5.69141,6.32031 C-5.61328,5.73438 -5.23828,5.21875 -4.56641,4.77344 C-3.89453,4.32813 -2.98047,4.04688 -1.82422,3.92969 L-1.82422,-4.15625 L-2.48047,-4.15625 L-2.48047,-4.66016 L-1.82422,-4.66016 L-1.82422,-8.44531 L-2.85547,-7.56641 L-2.48047,-7.01563 L-3.46484,-6.13672 L-3.76953,-6.48828 L-3.06641,-7.09766 L-5.49219,-10.5078 L-6.23047,-10.0273 L-6.5,-10.4609 L-5.375,-11.1641 L-4.87109,-10.3906 L-3.64063,-11.2578 L-4.49609,-12.5469 L-5.22266,-12.1133 L-5.51563,-12.4883 L-3.46484,-13.6953 L-3.24219,-13.2969 L-4.0625,-12.793 L-3.24219,-11.4922 L-1.66016,-12.5703 L1.36328,-12.5703 L2.91016,-11.5156 L3.89453,-12.6992 L3.09766,-13.3438 L3.4375,-13.7188 M-4.56641,-10.0039 L-3.11328,-7.96484 L-1.48438,-9.32422 L-1.48438,-7.67188 L1.15234,-7.67188 L1.15234,-9.32422 L2.94531,-8 L4.26953,-9.98047 L1.30469,-12.1133 L-1.48438,-12.1133 L-4.56641,-10.0039 M-1.48438,-7.16797 L-1.48438,-4.70703 L1.15234,-4.70703 L1.15234,-7.16797 L-1.48438,-7.16797 M-1.48438,-4.20313 L-1.48438,-1.74219 L1.15234,-1.74219 L1.15234,-4.20313 L-1.48438,-4.20313 M-1.48438,-1.23828 L-1.48438,5.6875 L1.15234,5.6875 L1.15234,-1.23828 L-1.48438,-1.23828 M-3.47656,-13.6836 L-3.47656,-13.6719 L-3.46484,-13.6719 L-3.46484,-13.6836 L-3.47656,-13.6836 M-1.47266,29.4766 L-1.47266,29.5 L-1.50781,29.5 L-1.50781,29.4766 L-1.47266,29.4766 M-3.46484,-16.0977 L-3.46484,-16.0859 L-3.47656,-16.0859 L-3.47656,-16.0977 L-3.46484,-16.0977"/>
</g>

<g fill="none" stroke="#000000" stroke-opacity="1" stroke-width="1" stroke-linecap="square" stroke-linejoin="bevel" transform="matrix(1,0,0,1,0,0)"
font-family="MS Shell Dlg 2" font-size="9.8" font-weight="400" font-style="normal" 
>
</g>

<g fill="#ffffff" fill-opacity="1" stroke="none" transform="matrix(1,0,0,1,15.2031,12.7344)"
font-family="MS Shell Dlg 2" font-size="9.8" font-weight="400" font-style="normal" 
>
<path vector-effect="none" fill-rule="nonzero" d="M-3.39453,29.4297 L-3.39453,29.5 L-3.52344,29.5 L-3.52344,29.4297 L-3.39453,29.4297 M-5.39844,6.28516 C-5.3125,5.72266 -4.91406,5.24023 -4.20313,4.83789 C-3.49219,4.43555 -2.71875,4.22266 -1.88281,4.19922 L-1.88281,6.0625 L1.57422,6.0625 L1.57422,4.26953 C2.51953,4.40234 3.33008,4.65234 4.00586,5.01953 C4.68164,5.38672 5.03125,5.83203 5.05469,6.35547 C4.88281,7.12109 4.29688,7.70898 3.29688,8.11914 C2.29688,8.5293 1.12891,8.74219 -0.207031,8.75781 C-0.371094,8.76563 -0.535156,8.76953 -0.699219,8.76953 C-1.84766,8.76953 -2.90234,8.52734 -3.86328,8.04297 C-4.89453,7.52734 -5.41016,6.98047 -5.41016,6.40234 C-5.41016,6.36328 -5.40625,6.32422 -5.39844,6.28516 M-3.46484,-16.0977 L-3.46484,-16.0859 L-3.47656,-16.0859 L-3.47656,-16.0977 L-3.46484,-16.0977"/>
</g>

<g fill="none" stroke="#000000" stroke-opacity="1" stroke-width="1" stroke-linecap="square" stroke-linejoin="bevel" transform="matrix(1,0,0,1,0,0)"
font-family="MS Shell Dlg 2" font-size="9.8" font-weight="400" font-style="normal" 
>
</g>
</g>
</svg>
