<?xml version="1.0" encoding="UTF-8" standalone="no"?>
<svg width="11.2889mm" height="11.2889mm"
 viewBox="0 0 32 32"
 xmlns="http://www.w3.org/2000/svg" xmlns:xlink="http://www.w3.org/1999/xlink"  version="1.2" baseProfile="tiny">
<title>Qt SVG Document</title>
<desc>Generated with Qt</desc>
<defs>
</defs>
<g fill="none" stroke="black" stroke-width="1" fill-rule="evenodd" stroke-linecap="square" stroke-linejoin="bevel" >

<g fill="#38a800" fill-opacity="1" stroke="none" transform="matrix(1,0,0,1,15.8438,12.7344)"
font-family="MS Shell Dlg 2" font-size="9.8" font-weight="400" font-style="normal" 
>
<path vector-effect="none" fill-rule="nonzero" d="M0.0273438,2.93359 L0.0273438,2.94531 L0.0390625,2.94531 L0.0390625,2.93359 L0.0273438,2.93359 M-1.21484,3.05078 L-1.23828,-8.52734 L-1.60156,-9.16016 L-1.61328,-9.53516 L-1.21484,-10.2852 L-2.78516,-12.2773 L-3.37109,-12.2773 L-3.37109,-13.2148 L-2.66797,-13.2148 L-2.66797,-13.4141 L-1.90625,-14.2578 L-1.67188,-14.2578 L-0.710938,-13.0859 L0.71875,-13.0859 L1.72656,-14.2578 L1.9375,-14.2578 L2.75781,-13.4609 L2.75781,-13.25 L3.40234,-13.25 L3.40234,-12.1836 L2.82813,-12.1836 L1.26953,-10.2266 L1.57422,-9.52344 L1.59766,-9.13672 L1.26953,-8.62109 L1.26953,3.05078 L-1.21484,3.05078 M0.15625,29.4883 L0.15625,29.5 L0.144531,29.5 L0.144531,29.4883 L0.15625,29.4883 M0.0507813,-23.7148 L0.0507813,-23.7031 L0.0390625,-23.7031 L0.0390625,-23.7148 L0.0507813,-23.7148"/>
</g>

<g fill="none" stroke="#000000" stroke-opacity="1" stroke-width="1" stroke-linecap="square" stroke-linejoin="bevel" transform="matrix(1,0,0,1,0,0)"
font-family="MS Shell Dlg 2" font-size="9.8" font-weight="400" font-style="normal" 
>
</g>

<g fill="#000000" fill-opacity="1" stroke="none" transform="matrix(1,0,0,1,15.9609,12.7344)"
font-family="MS Shell Dlg 2" font-size="9.8" font-weight="400" font-style="normal" 
>
<path vector-effect="none" fill-rule="nonzero" d="M-1.90625,-21.6875 L2.05469,-21.6875 L2.05469,-21.1953 L0.273438,-21.1953 L0.273438,-13.2734 L0.671875,-13.2734 L1.65625,-14.3984 L1.65625,-15.0547 L2.28906,-15.0547 L2.28906,-14.7266 L1.96094,-14.7266 L1.96094,-14.3984 L3.03906,-13.3672 L3.57813,-13.3672 L3.57813,-12.1719 L3.0625,-12.1484 L1.49219,-10.1563 L1.96094,-9.26563 L1.53906,-8.53906 L1.53906,1.39844 C2.52344,1.63281 3.07031,2.16406 3.17969,2.99219 C3.16406,3.63281 2.83594,4.10938 2.19531,4.42188 C1.55469,4.73438 0.851562,4.89063 0.0859375,4.89063 C-0.664063,4.875 -1.375,4.70313 -2.04688,4.375 C-2.6875,4.0625 -3.00781,3.62891 -3.00781,3.07422 L-3.00781,2.99219 C-2.97656,2.17969 -2.45313,1.64844 -1.4375,1.39844 L-1.4375,-8.53906 L-1.85938,-9.24219 L-1.39063,-10.1563 L-2.91406,-12.1719 L-3.5,-12.1719 L-3.5,-13.3672 L-2.9375,-13.3672 L-1.83594,-14.4219 L-1.83594,-14.7266 L-2.14063,-14.7266 L-2.14063,-15.0547 L-1.50781,-15.0547 L-1.50781,-14.4219 L-0.476563,-13.2734 L-0.101563,-13.2734 L-0.101563,-21.1953 L-1.90625,-21.1953 L-1.90625,-21.6875 M-1.83594,-14.0938 L-2.58594,-13.2734 L-2.58594,-12.1719 L-1.03906,-10.2031 L-1.46094,-9.40625 L1.53906,-9.40625 L1.14063,-10.1563 L2.73438,-12.1719 L2.73438,-13.3203 L1.9375,-14.0938 L1.72656,-14.0938 L0.742188,-12.9453 L-0.664063,-12.9453 L-1.60156,-14.0938 L-1.83594,-14.0938 M-3.26563,-13.1797 L-3.26563,-12.3594 L-2.89063,-12.3594 L-2.89063,-13.1797 L-3.26563,-13.1797 M-1.50781,-9.125 L-1.17969,-8.5625 L1.23438,-8.5625 L1.5625,-9.125 L-1.50781,-9.125 M-1.15625,-8.25781 L-1.15625,-7.92969 L1.28125,-7.92969 L1.28125,-8.25781 L-1.15625,-8.25781 M-1.15625,-7.625 L-1.15625,2.99219 L-1.4375,2.99219 L-1.4375,1.72656 C-2.25,1.92969 -2.67188,2.35156 -2.70313,2.99219 C-2.70313,3.47656 -2.39453,3.85547 -1.77734,4.12891 C-1.16016,4.40234 -0.539063,4.55469 0.0859375,4.58594 C0.820312,4.58594 1.45703,4.45703 1.99609,4.19922 C2.53516,3.94141 2.82031,3.53906 2.85156,2.99219 C2.80469,2.32031 2.36719,1.89844 1.53906,1.72656 L1.53906,2.99219 L1.28125,2.99219 L1.28125,-7.625 L-1.15625,-7.625 M2.99219,-13.1797 L2.99219,-12.3594 L3.36719,-12.3594 L3.36719,-13.1797 L2.99219,-13.1797 M0.15625,29.4883 L0.15625,29.5 L0.144531,29.5 L0.144531,29.4883 L0.15625,29.4883 M0.0507813,-23.7148 L0.0507813,-23.7031 L0.0390625,-23.7031 L0.0390625,-23.7148 L0.0507813,-23.7148"/>
</g>

<g fill="none" stroke="#000000" stroke-opacity="1" stroke-width="1" stroke-linecap="square" stroke-linejoin="bevel" transform="matrix(1,0,0,1,0,0)"
font-family="MS Shell Dlg 2" font-size="9.8" font-weight="400" font-style="normal" 
>
</g>

<g fill="#ffffff" fill-opacity="1" stroke="none" transform="matrix(1,0,0,1,15.5234,12.7344)"
font-family="MS Shell Dlg 2" font-size="9.8" font-weight="400" font-style="normal" 
>
<path vector-effect="none" fill-rule="nonzero" d="M0.0625,4.9375 L0.0625,4.94922 L0.0507813,4.94922 L0.0507813,4.9375 L0.0625,4.9375 M1.5625,2.99219 L1.5625,1.67969 C2.42188,1.85938 2.875,2.29688 2.92188,2.99219 C2.89063,3.5625 2.59375,3.98242 2.03125,4.25195 C1.46875,4.52148 0.808594,4.65625 0.0507813,4.65625 C-0.605469,4.625 -1.25391,4.4668 -1.89453,4.18164 C-2.53516,3.89648 -2.85547,3.5 -2.85547,2.99219 C-2.82422,2.32813 -2.38672,1.89063 -1.54297,1.67969 L-1.54297,2.99219 L1.5625,2.99219 M0.15625,29.4883 L0.15625,29.5 L0.144531,29.5 L0.144531,29.4883 L0.15625,29.4883 M0.0507813,-23.7148 L0.0507813,-23.7031 L0.0390625,-23.7031 L0.0390625,-23.7148 L0.0507813,-23.7148"/>
</g>

<g fill="none" stroke="#000000" stroke-opacity="1" stroke-width="1" stroke-linecap="square" stroke-linejoin="bevel" transform="matrix(1,0,0,1,0,0)"
font-family="MS Shell Dlg 2" font-size="9.8" font-weight="400" font-style="normal" 
>
</g>
</g>
</svg>
