<?xml version="1.0" encoding="UTF-8" standalone="no"?>
<svg width="11.2889mm" height="11.2889mm"
 viewBox="0 0 32 32"
 xmlns="http://www.w3.org/2000/svg" xmlns:xlink="http://www.w3.org/1999/xlink"  version="1.2" baseProfile="tiny">
<title>Qt SVG Document</title>
<desc>Generated with Qt</desc>
<defs>
</defs>
<g fill="none" stroke="black" stroke-width="1" fill-rule="evenodd" stroke-linecap="square" stroke-linejoin="bevel" >

<g fill="#ffff00" fill-opacity="1" stroke="none" transform="matrix(1,0,0,1,15.4375,12.7344)"
font-family="MS Shell Dlg 2" font-size="9.8" font-weight="400" font-style="normal" 
>
<path vector-effect="none" fill-rule="nonzero" d="M-0.195313,5.93359 L-0.113281,5.93359 C0.0585937,6.04297 2.37109,9.99219 6.82422,17.7813 L13.1641,28.7266 L13.1641,28.8906 L-13.1445,28.8906 L-13.3086,28.8086 C-4.73828,13.8867 -0.367188,6.26172 -0.195313,5.93359 "/>
</g>

<g fill="none" stroke="#000000" stroke-opacity="1" stroke-width="1" stroke-linecap="square" stroke-linejoin="bevel" transform="matrix(1,0,0,1,0,0)"
font-family="MS Shell Dlg 2" font-size="9.8" font-weight="400" font-style="normal" 
>
</g>

<g fill="#000000" fill-opacity="1" stroke="none" transform="matrix(1,0,0,1,15.7344,12.7344)"
font-family="MS Shell Dlg 2" font-size="9.8" font-weight="400" font-style="normal" 
>
<path vector-effect="none" fill-rule="nonzero" d="M0.238281,6.01563 L13.5508,28.668 C13.5898,28.7852 13.6094,28.8906 13.6094,28.9844 C13.6094,29.3281 13.3711,29.5 12.8945,29.5 L-13.3203,29.5 C-13.7813,29.4453 -14.0117,29.2422 -14.0117,28.8906 C-14.0117,28.8203 -14.0039,28.7461 -13.9883,28.668 L-0.828125,6.08594 C-0.65625,5.85156 -0.476563,5.73438 -0.289063,5.73438 C-0.117188,5.73438 0.0585938,5.82813 0.238281,6.01563 M-0.253906,8.99219 L-11.0117,27.4258 L10.4102,27.4258 L-0.253906,8.99219 M3.05078,25.7734 L3.05078,26.6055 L-2.98438,26.6055 L-2.98438,25.7734 L3.05078,25.7734 M-0.828125,25.6914 L-0.933594,25.6914 C-3.12891,25.6914 -4.30859,23.9844 -4.47266,20.5703 C-4.08984,21.2344 -3.84375,21.5664 -3.73438,21.5664 C-3.69531,21.5664 -3.67578,21.5156 -3.67578,21.4141 C-3.67578,21.3281 -3.69141,21.1953 -3.72266,21.0156 C-3.79297,20.6719 -3.82813,20.3711 -3.82813,20.1133 C-3.82813,19.7305 -3.75391,19.4414 -3.60547,19.2461 C-3.52734,19.1367 -3.48828,19.0234 -3.48828,18.9063 C-3.48828,18.6719 -3.65234,18.4258 -3.98047,18.168 C-3.90234,18.1211 -3.82031,18.0977 -3.73438,18.0977 C-3.39063,18.0977 -2.97656,18.4492 -2.49219,19.1523 C-2.03906,18.6367 -1.8125,18.0938 -1.8125,17.5234 C-1.8125,17.125 -1.92578,16.707 -2.15234,16.2695 C-2.13672,16.2617 -2.11719,16.2578 -2.09375,16.2578 C-1.91406,16.2578 -1.55078,16.5078 -1.00391,17.0078 C-1.01953,16.8203 -1.02734,16.6445 -1.02734,16.4805 C-1.02734,15.6523 -0.796875,15.168 -0.335938,15.0273 C-0.382813,15.2305 -0.40625,15.418 -0.40625,15.5898 C-0.40625,16.0586 -0.230469,16.4063 0.121094,16.6328 C0.589844,16.9375 0.933594,17.4219 1.15234,18.0859 C1.42578,18.0859 1.5625,17.5625 1.5625,16.5156 C2.1875,17.2813 2.5,18.2344 2.5,19.375 C2.5,19.5469 2.49219,19.7227 2.47656,19.9023 C2.84375,19.7383 3.02734,19.3398 3.02734,18.707 C3.02734,18.4961 3.00781,18.2617 2.96875,18.0039 C3.69531,19.1211 4.05859,20.5039 4.05859,22.1523 C4.05859,22.3711 4.05469,22.5977 4.04688,22.832 C3.92969,24.7383 3.01562,25.6914 1.30469,25.6914 L1.15234,25.6914 C2.19922,25.2773 2.72266,24.582 2.72266,23.6055 L2.72266,23.4531 C2.40234,23.6875 2.11719,23.8047 1.86719,23.8047 C1.82031,23.8047 1.77344,23.8008 1.72656,23.793 C2.17188,23.1992 2.39453,22.7188 2.39453,22.3516 C2.39453,22.3047 2.39063,22.2617 2.38281,22.2227 C2.03125,22.6133 1.69922,22.8086 1.38672,22.8086 C1.21484,22.8086 1.05078,22.75 0.894531,22.6328 C1.28516,22.1875 1.48047,21.6758 1.48047,21.0977 C1.48047,20.5273 1.26172,20.0469 0.824219,19.6563 C0.761719,20.9297 0.457031,21.6445 -0.0898438,21.8008 C-0.535156,21.3086 -0.78125,20.6484 -0.828125,19.8203 C-1.03125,20.1484 -1.13281,20.543 -1.13281,21.0039 C-1.13281,21.293 -1.08984,21.6133 -1.00391,21.9648 C-1.16797,22.0195 -1.32031,22.0469 -1.46094,22.0469 C-1.77344,22.0469 -2.00391,21.9102 -2.15234,21.6367 C-2.16797,21.707 -2.17578,21.7852 -2.17578,21.8711 C-2.17578,22.3945 -1.86719,23.0625 -1.25,23.875 C-1.35938,23.9141 -1.46484,23.9336 -1.56641,23.9336 C-1.77734,23.9336 -1.97266,23.8594 -2.15234,23.7109 C-2.22266,23.8438 -2.25781,23.9766 -2.25781,24.1094 C-2.25781,24.6016 -1.78125,25.1289 -0.828125,25.6914 "/>
</g>

<g fill="none" stroke="#000000" stroke-opacity="1" stroke-width="1" stroke-linecap="square" stroke-linejoin="bevel" transform="matrix(1,0,0,1,0,0)"
font-family="MS Shell Dlg 2" font-size="9.8" font-weight="400" font-style="normal" 
>
</g>
</g>
</svg>
