<?xml version="1.0" encoding="UTF-8" standalone="no"?>
<svg width="11.2889mm" height="11.2889mm"
 viewBox="0 0 32 32"
 xmlns="http://www.w3.org/2000/svg" xmlns:xlink="http://www.w3.org/1999/xlink"  version="1.2" baseProfile="tiny">
<title>Qt SVG Document</title>
<desc>Generated with Qt</desc>
<defs>
</defs>
<g fill="none" stroke="black" stroke-width="1" fill-rule="evenodd" stroke-linecap="square" stroke-linejoin="bevel" >

<g fill="#ffffff" fill-opacity="1" stroke="none" transform="matrix(1,0,0,1,15.9219,12.7344)"
font-family="MS Shell Dlg 2" font-size="9.8" font-weight="400" font-style="normal" 
>
<path vector-effect="none" fill-rule="nonzero" d="M26.3984,16.0586 L26.3984,29.5 L-26.5,29.5 L-26.5,16.0586 L26.3984,16.0586"/>
</g>

<g fill="none" stroke="#000000" stroke-opacity="1" stroke-width="1" stroke-linecap="square" stroke-linejoin="bevel" transform="matrix(1,0,0,1,0,0)"
font-family="MS Shell Dlg 2" font-size="9.8" font-weight="400" font-style="normal" 
>
</g>

<g fill="#005ce6" fill-opacity="1" stroke="none" transform="matrix(1,0,0,1,15.8516,12.7344)"
font-family="MS Shell Dlg 2" font-size="9.8" font-weight="400" font-style="normal" 
>
<path vector-effect="none" fill-rule="nonzero" d="M-19.8086,25.457 C-18.5508,25.457 -17.0566,25.9844 -15.3262,27.0391 C-13.5957,28.0938 -11.7773,28.6211 -9.87109,28.6211 C-7.97266,28.6211 -6.17383,28.123 -4.47461,27.127 C-2.77539,26.1309 -1.39844,25.6328 -0.34375,25.6328 C0.710938,25.6328 2.13281,26.1152 3.92188,27.0801 C5.71094,28.0449 7.66016,28.5703 9.76953,28.6563 C9.92578,28.6641 10.0781,28.668 10.2266,28.668 C12.1797,28.668 14.0938,28.1367 15.9688,27.0742 C17.9297,25.9648 19.4531,25.4102 20.5391,25.4102 L20.6211,25.4102 C21.707,25.4414 22.9082,25.8809 24.2246,26.7285 C25.541,27.5762 26.1992,28.1016 26.1992,28.3047 C26.1992,28.5156 26.1289,28.6328 25.9883,28.6563 C25.9805,28.6641 25.9727,28.668 25.9648,28.668 C25.793,28.668 25.125,28.2852 23.9609,27.5195 C22.7578,26.7305 21.6602,26.3203 20.668,26.2891 L20.5742,26.2891 C19.582,26.2891 18.207,26.8164 16.4492,27.8711 C14.6289,28.957 12.4883,29.5 10.0273,29.5 C7.56641,29.5 5.47266,29.002 3.74609,28.0059 C2.01953,27.0098 0.703125,26.5117 -0.203125,26.5117 C-1.11719,26.5117 -2.20313,26.8633 -3.46094,27.5664 C-4.71875,28.2695 -5.93359,28.7969 -7.10547,29.1484 C-7.80859,29.3594 -8.61719,29.4648 -9.53125,29.4648 C-10.1406,29.4648 -10.7969,29.418 -11.5,29.3242 C-13.2578,29.0898 -14.7813,28.5469 -16.0703,27.6953 C-17.3594,26.8438 -18.5,26.375 -19.4922,26.2891 C-19.5859,26.2813 -19.6797,26.2773 -19.7734,26.2773 C-20.6953,26.2773 -21.7031,26.6602 -22.7969,27.4258 C-24,28.2773 -24.8789,28.7188 -25.4336,28.75 C-25.5508,28.7578 -25.6563,28.7617 -25.75,28.7617 C-26.1094,28.7617 -26.3086,28.7148 -26.3477,28.6211 C-26.3945,28.543 -26.418,28.457 -26.418,28.3633 C-26.418,28.3164 -26.4102,28.2695 -26.3945,28.2227 C-26.3711,28.0742 -26.0957,27.9707 -25.5684,27.9121 C-25.041,27.8535 -24.2637,27.4297 -23.2363,26.6406 C-22.209,25.8516 -21.0664,25.457 -19.8086,25.457 M-19.8906,22.5508 C-18.6328,22.5508 -17.1406,23.0781 -15.4141,24.1328 C-13.6875,25.1875 -11.8711,25.7305 -9.96484,25.7617 L-9.80078,25.7617 C-7.95703,25.7617 -6.20703,25.2617 -4.55078,24.2617 C-2.85547,23.2383 -1.48047,22.7266 -0.425781,22.7266 C0.628906,22.7266 2.03516,23.2246 3.79297,24.2207 C5.55078,25.2168 7.5,25.7578 9.64063,25.8438 C9.78906,25.8516 9.9375,25.8555 10.0859,25.8555 C12.0625,25.8555 13.9922,25.3125 15.875,24.2266 C17.8516,23.0781 19.3789,22.5039 20.457,22.5039 L20.5391,22.5039 C21.6172,22.5352 22.8164,22.9766 24.1367,23.8281 C25.457,24.6797 26.1172,25.207 26.1172,25.4102 C26.1172,25.6133 26.0313,25.7422 25.8594,25.7969 C25.8438,25.8047 25.8281,25.8086 25.8125,25.8086 C25.5859,25.8086 24.9258,25.4258 23.832,24.6602 C22.6602,23.8398 21.5781,23.4141 20.5859,23.3828 L20.5039,23.3828 C19.5117,23.3828 18.1328,23.9102 16.3672,24.9648 C14.5469,26.0508 12.4063,26.5938 9.94531,26.5938 C7.48438,26.5938 5.38867,26.0957 3.6582,25.0996 C1.92773,24.1035 0.609375,23.6055 -0.296875,23.6055 C-1.20313,23.6055 -2.28711,23.957 -3.54883,24.6602 C-4.81055,25.3633 -6.02734,25.8906 -7.19922,26.2422 C-7.94141,26.4688 -8.80859,26.582 -9.80078,26.582 C-10.3711,26.582 -10.9805,26.543 -11.6289,26.4648 C-13.418,26.2617 -14.9434,25.7207 -16.2051,24.8418 C-17.4668,23.9629 -18.5938,23.4766 -19.5859,23.3828 C-19.6797,23.375 -19.7734,23.3711 -19.8672,23.3711 C-20.7891,23.3711 -21.793,23.7695 -22.8789,24.5664 C-24.082,25.4492 -24.9609,25.8906 -25.5156,25.8906 C-26.0781,25.8906 -26.3867,25.832 -26.4414,25.7148 C-26.4805,25.6367 -26.5,25.5547 -26.5,25.4688 C-26.5,25.4219 -26.4961,25.3711 -26.4883,25.3164 C-26.457,25.1758 -26.1777,25.0898 -25.6504,25.0586 C-25.123,25.0273 -24.3477,24.6016 -23.3242,23.7813 C-22.3008,22.9609 -21.1563,22.5508 -19.8906,22.5508 M-19.8086,19.6563 C-18.5508,19.6563 -17.0566,20.1836 -15.3262,21.2383 C-13.5957,22.293 -11.7773,22.8203 -9.87109,22.8203 C-7.97266,22.8203 -6.17383,22.3066 -4.47461,21.2793 C-2.77539,20.252 -1.39844,19.7383 -0.34375,19.7383 C0.710938,19.7383 2.13281,20.2363 3.92188,21.2324 C5.71094,22.2285 7.66016,22.7695 9.76953,22.8555 C9.91797,22.8633 10.0664,22.8672 10.2148,22.8672 C12.168,22.8672 14.0859,22.3242 15.9688,21.2383 C17.8906,20.1211 19.3867,19.5625 20.457,19.5625 L20.6211,19.5625 C21.707,19.625 22.9082,20.0801 24.2246,20.9277 C25.541,21.7754 26.1992,22.2852 26.1992,22.457 C26.1992,22.6367 26.1289,22.7539 25.9883,22.8086 C25.9727,22.8164 25.957,22.8203 25.9414,22.8203 C25.7461,22.8203 25.0859,22.4375 23.9609,21.6719 C22.7578,20.8516 21.6602,20.4414 20.668,20.4414 C19.668,20.4414 18.2598,20.9844 16.4434,22.0703 C14.627,23.1563 12.4883,23.6992 10.0273,23.6992 C7.56641,23.6992 5.47266,23.2012 3.74609,22.2051 C2.01953,21.209 0.703125,20.7109 -0.203125,20.7109 C-1.11719,20.7109 -2.20313,21.0625 -3.46094,21.7656 C-4.71875,22.4688 -5.93359,22.9961 -7.10547,23.3477 C-7.80859,23.5586 -8.61719,23.6641 -9.53125,23.6641 C-10.1406,23.6641 -10.7969,23.6172 -11.5,23.5234 C-13.2578,23.2891 -14.7813,22.7461 -16.0703,21.8945 C-17.3594,21.043 -18.5,20.5742 -19.4922,20.4883 C-19.5859,20.4805 -19.6797,20.4766 -19.7734,20.4766 C-20.6953,20.4766 -21.7031,20.8594 -22.7969,21.625 C-24,22.4766 -24.8789,22.918 -25.4336,22.9492 C-25.5508,22.957 -25.6563,22.9609 -25.75,22.9609 C-26.1094,22.9609 -26.3086,22.9141 -26.3477,22.8203 C-26.3945,22.7422 -26.418,22.6563 -26.418,22.5625 C-26.418,22.5156 -26.4102,22.4688 -26.3945,22.4219 C-26.3711,22.2734 -26.0957,22.1699 -25.5684,22.1113 C-25.041,22.0527 -24.2637,21.6289 -23.2363,20.8398 C-22.209,20.0508 -21.0664,19.6563 -19.8086,19.6563 M-19.7148,16.8438 C-18.457,16.8438 -16.9648,17.3711 -15.2383,18.4258 C-13.5117,19.4805 -11.6953,20.0195 -9.78906,20.043 C-9.74219,20.0508 -9.69141,20.0547 -9.63672,20.0547 C-7.78516,20.0547 -6.03125,19.5547 -4.375,18.5547 C-2.67969,17.5313 -1.30469,17.0195 -0.25,17.0195 C0.804687,17.0195 2.21094,17.5176 3.96875,18.5137 C5.72656,19.5098 7.67578,20.0508 9.81641,20.1367 C9.95703,20.1445 10.1016,20.1484 10.25,20.1484 C12.2344,20.1484 14.168,19.6016 16.0508,18.5078 C18.0195,17.3672 19.543,16.7969 20.6211,16.7969 L20.7148,16.7969 C21.793,16.8281 22.9922,17.2676 24.3125,18.1152 C25.6328,18.9629 26.293,19.4883 26.293,19.6914 C26.293,19.9023 26.207,20.0352 26.0352,20.0898 C26.0195,20.0977 26.0039,20.1016 25.9883,20.1016 C25.7617,20.1016 25.1016,19.7188 24.0078,18.9531 C22.8359,18.1328 21.7539,17.707 20.7617,17.6758 L20.668,17.6758 C19.6758,17.6758 18.3008,18.2031 16.543,19.2578 C14.7227,20.3438 12.582,20.8867 10.1211,20.8867 C7.66016,20.8867 5.56445,20.3887 3.83398,19.3926 C2.10352,18.3965 0.785156,17.8984 -0.121094,17.8984 C-1.02734,17.8984 -2.11133,18.25 -3.37305,18.9531 C-4.63477,19.6563 -5.85156,20.1836 -7.02344,20.5352 C-7.75781,20.7539 -8.61719,20.8633 -9.60156,20.8633 C-10.1797,20.8633 -10.7969,20.8242 -11.4531,20.7461 C-13.2422,20.543 -14.7676,20.002 -16.0293,19.123 C-17.291,18.2441 -18.418,17.7617 -19.4102,17.6758 C-19.5039,17.668 -19.5977,17.6641 -19.6914,17.6641 C-20.6133,17.6641 -21.6172,18.0469 -22.7031,18.8125 C-23.9063,19.6641 -24.7852,20.1055 -25.3398,20.1367 C-25.4648,20.1445 -25.5742,20.1484 -25.668,20.1484 C-26.0273,20.1484 -26.2266,20.1016 -26.2656,20.0078 C-26.3047,19.9297 -26.3242,19.8477 -26.3242,19.7617 C-26.3242,19.7148 -26.3203,19.6641 -26.3125,19.6094 C-26.2813,19.4609 -26.002,19.3574 -25.4746,19.2988 C-24.9473,19.2402 -24.1719,18.8164 -23.1484,18.0273 C-22.125,17.2383 -20.9805,16.8438 -19.7148,16.8438 "/>
</g>

<g fill="none" stroke="#000000" stroke-opacity="1" stroke-width="1" stroke-linecap="square" stroke-linejoin="bevel" transform="matrix(1,0,0,1,0,0)"
font-family="MS Shell Dlg 2" font-size="9.8" font-weight="400" font-style="normal" 
>
</g>

<g fill="#000000" fill-opacity="1" stroke="none" transform="matrix(1,0,0,1,3.89844,13.9922)"
font-family="MS Shell Dlg 2" font-size="9.8" font-weight="400" font-style="normal" 
>
<path vector-effect="none" fill-rule="nonzero" d="M-3.66992,6.5 L-6.3291,-3.52148 L-4.96875,-3.52148 L-3.44434,3.04785 C-3.28027,3.736 -3.139,4.4196 -3.02051,5.09863 C-2.7653,4.02767 -2.61491,3.41016 -2.56934,3.24609 L-0.662109,-3.52148 L0.9375,-3.52148 L2.37305,1.55078 C2.73307,2.80859 2.99284,3.99121 3.15234,5.09863 C3.27995,4.46517 3.44629,3.73828 3.65137,2.91797 L5.22363,-3.52148 L6.55664,-3.52148 L3.80859,6.5 L2.53027,6.5 L0.417969,-1.13574 C0.240234,-1.77376 0.135417,-2.16569 0.103516,-2.31152 C-0.00130208,-1.85124 -0.0992839,-1.45931 -0.19043,-1.13574 L-2.31641,6.5 L-3.66992,6.5"/>
</g>

<g fill="none" stroke="#000000" stroke-opacity="1" stroke-width="1" stroke-linecap="square" stroke-linejoin="bevel" transform="matrix(1,0,0,1,0,0)"
font-family="MS Shell Dlg 2" font-size="9.8" font-weight="400" font-style="normal" 
>
</g>

<g fill="#000000" fill-opacity="1" stroke="none" transform="matrix(1,0,0,1,17.8125,13.9922)"
font-family="MS Shell Dlg 2" font-size="9.8" font-weight="400" font-style="normal" 
>
<path vector-effect="none" fill-rule="nonzero" d="M-0.870117,6.5 L-0.870117,-2.33887 L-4.17188,-2.33887 L-4.17188,-3.52148 L3.77148,-3.52148 L3.77148,-2.33887 L0.456055,-2.33887 L0.456055,6.5 L-0.870117,6.5"/>
</g>

<g fill="none" stroke="#000000" stroke-opacity="1" stroke-width="1" stroke-linecap="square" stroke-linejoin="bevel" transform="matrix(1,0,0,1,0,0)"
font-family="MS Shell Dlg 2" font-size="9.8" font-weight="400" font-style="normal" 
>
</g>

<g fill="#000000" fill-opacity="1" stroke="none" transform="matrix(1,0,0,1,30.5078,13.9922)"
font-family="MS Shell Dlg 2" font-size="9.8" font-weight="400" font-style="normal" 
>
<path vector-effect="none" fill-rule="nonzero" d="M-3.87109,3.28027 L-2.62012,3.1709 C-2.56087,3.6722 -2.42301,4.0835 -2.20654,4.40479 C-1.99007,4.72607 -1.65397,4.98584 -1.19824,5.18408 C-0.742513,5.38232 -0.229818,5.48145 0.339844,5.48145 C0.845703,5.48145 1.29232,5.40625 1.67969,5.25586 C2.06706,5.10547 2.35531,4.89925 2.54443,4.63721 C2.73356,4.37516 2.82813,4.08919 2.82813,3.7793 C2.82813,3.46484 2.73698,3.19027 2.55469,2.95557 C2.3724,2.72087 2.07161,2.52376 1.65234,2.36426 C1.38346,2.25944 0.788737,2.09652 -0.131836,1.87549 C-1.05241,1.65446 -1.69727,1.44596 -2.06641,1.25 C-2.54492,0.999349 -2.90153,0.688314 -3.13623,0.316895 C-3.37093,-0.0545247 -3.48828,-0.470378 -3.48828,-0.930664 C-3.48828,-1.43652 -3.34473,-1.90934 -3.05762,-2.34912 C-2.77051,-2.7889 -2.35124,-3.12272 -1.7998,-3.35059 C-1.24837,-3.57845 -0.635417,-3.69238 0.0390625,-3.69238 C0.781901,-3.69238 1.43701,-3.57275 2.00439,-3.3335 C2.57178,-3.09424 3.00814,-2.74219 3.31348,-2.27734 C3.61881,-1.8125 3.78288,-1.28613 3.80566,-0.698242 L2.53418,-0.602539 C2.46582,-1.236 2.23454,-1.71452 1.84033,-2.03809 C1.44613,-2.36165 0.863932,-2.52344 0.09375,-2.52344 C-0.708333,-2.52344 -1.29281,-2.37646 -1.65967,-2.08252 C-2.02653,-1.78857 -2.20996,-1.43424 -2.20996,-1.01953 C-2.20996,-0.659505 -2.08008,-0.363281 -1.82031,-0.130859 C-1.5651,0.101562 -0.8986,0.339681 0.179199,0.583496 C1.257,0.827311 1.99642,1.04036 2.39746,1.22266 C2.98079,1.49154 3.41146,1.83219 3.68945,2.24463 C3.96745,2.65706 4.10645,3.13216 4.10645,3.66992 C4.10645,4.20313 3.95378,4.70557 3.64844,5.17725 C3.3431,5.64893 2.90446,6.01579 2.33252,6.27783 C1.76058,6.53988 1.11686,6.6709 0.401367,6.6709 C-0.505534,6.6709 -1.26546,6.53874 -1.87842,6.27441 C-2.49137,6.01009 -2.97217,5.61247 -3.3208,5.08154 C-3.66943,4.55062 -3.85286,3.9502 -3.87109,3.28027 "/>
</g>

<g fill="none" stroke="#000000" stroke-opacity="1" stroke-width="1" stroke-linecap="square" stroke-linejoin="bevel" transform="matrix(1,0,0,1,0,0)"
font-family="MS Shell Dlg 2" font-size="9.8" font-weight="400" font-style="normal" 
>
</g>
</g>
</svg>
