<?xml version="1.0" encoding="UTF-8" standalone="no"?>
<svg width="11.2889mm" height="11.2889mm"
 viewBox="0 0 32 32"
 xmlns="http://www.w3.org/2000/svg" xmlns:xlink="http://www.w3.org/1999/xlink"  version="1.2" baseProfile="tiny">
<title>Qt SVG Document</title>
<desc>Generated with Qt</desc>
<defs>
</defs>
<g fill="none" stroke="black" stroke-width="1" fill-rule="evenodd" stroke-linecap="square" stroke-linejoin="bevel" >

<g fill="#ffffff" fill-opacity="1" stroke="none" transform="matrix(1,0,0,1,15.9531,12.7344)"
font-family="MS Shell Dlg 2" font-size="9.8" font-weight="400" font-style="normal" 
>
<path vector-effect="none" fill-rule="nonzero" d="M-11.6328,16.4922 L-8.11719,16.4922 L-8.11719,17.0195 L6.29688,17.0195 L6.29688,16.4922 L9.8125,16.4922 L9.8125,17.0195 C13.3906,17.0195 15.2656,18.0156 15.4375,20.0078 L15.4375,25.6328 C15.4375,27.8594 13.5625,28.9727 9.8125,28.9727 L9.8125,29.5 L6.29688,29.5 L6.29688,28.9727 L-8.11719,28.9727 L-8.11719,29.5 L-11.6328,29.5 L-11.6328,28.9727 L-15.5,28.9727 L-15.5,17.0195 L-11.6328,17.0195 L-11.6328,16.4922 M10.1641,19.6563 L10.1641,26.3359 L11.9219,26.3359 L12.9766,25.5391 L12.9766,20.4414 L11.9219,19.6563 L10.1641,19.6563"/>
</g>

<g fill="none" stroke="#000000" stroke-opacity="1" stroke-width="1" stroke-linecap="square" stroke-linejoin="bevel" transform="matrix(1,0,0,1,0,0)"
font-family="MS Shell Dlg 2" font-size="9.8" font-weight="400" font-style="normal" 
>
</g>

<g fill="#000000" fill-opacity="1" stroke="none" transform="matrix(1,0,0,1,6.79688,12.7344)"
font-family="MS Shell Dlg 2" font-size="9.8" font-weight="400" font-style="normal" 
>
<path vector-effect="none" fill-rule="nonzero" d="M-6.00781,20.8164 C-5.04688,20.8164 -4.56641,21.2461 -4.56641,22.1055 C-4.58203,22.7227 -4.87891,23.0898 -5.45703,23.207 L-4.25,25.2578 L-5.24609,25.2578 L-6.23047,23.3711 L-6.54688,23.3711 L-6.54688,25.2578 L-7.4375,25.2578 L-7.4375,20.8164 L-6.00781,20.8164 M-1.17969,20.8633 L-0.207031,24.2031 L-0.101563,24.2031 L0.871094,20.875 L1.70313,20.875 L0.367188,25.2461 L-0.675781,25.2461 L-1.76563,21.9648 L-2.08203,20.8633 L-1.17969,20.8633 M-6.54688,21.4961 L-6.54688,22.6914 L-6.18359,22.6914 C-5.66016,22.668 -5.39844,22.4766 -5.39844,22.1172 C-5.39844,21.7031 -5.67578,21.4961 -6.23047,21.4961 L-6.54688,21.4961"/>
</g>

<g fill="none" stroke="#000000" stroke-opacity="1" stroke-width="1" stroke-linecap="square" stroke-linejoin="bevel" transform="matrix(1,0,0,1,0,0)"
font-family="MS Shell Dlg 2" font-size="9.8" font-weight="400" font-style="normal" 
>
</g>

<g fill="#ff0000" fill-opacity="1" stroke="none" transform="matrix(1,0,0,1,15.9531,12.7344)"
font-family="MS Shell Dlg 2" font-size="9.8" font-weight="400" font-style="normal" 
>
<path vector-effect="none" fill-rule="nonzero" d="M-11.7148,19.832 L6.12109,19.832 C6.23828,19.832 6.29688,19.8906 6.29688,20.0078 L6.29688,25.9844 C6.29688,26.1563 6.23828,26.2422 6.12109,26.2422 L-11.7148,26.2422 C-11.8945,26.2422 -11.9844,26.1563 -11.9844,25.9844 L-11.9844,20.0078 C-11.9219,19.8906 -11.832,19.832 -11.7148,19.832 M-11.5391,20.2656 L-11.5391,25.8086 L5.86328,25.8086 L5.86328,20.2656 L-11.5391,20.2656 M-11.0117,17.8047 L-14.6211,17.8047 L-14.6211,28.0938 L-10.8359,28.0938 L-10.8359,28.7969 L-8.90234,28.7969 L-8.90234,28.0938 L7.17578,28.0938 L7.17578,28.7969 L9.02734,28.7969 L9.02734,28.0938 L10.1641,28.0938 C12.8672,28.0938 14.3047,27.2422 14.4766,25.5391 L14.4766,19.832 C14.0234,18.4805 12.5664,17.8047 10.1055,17.8047 L9.02734,17.8047 L9.02734,17.1953 L7,17.1953 L7,17.8047 L-8.82031,17.8047 L-8.82031,17.1953 L-11.0117,17.1953 L-11.0117,17.8047 M-11.6328,16.4922 L-8.11719,16.4922 L-8.11719,17.0195 L6.29688,17.0195 L6.29688,16.4922 L9.8125,16.4922 L9.8125,17.0195 C13.3906,17.0195 15.2656,18.0156 15.4375,20.0078 L15.4375,25.6328 C15.4375,27.8594 13.5625,28.9727 9.8125,28.9727 L9.8125,29.5 L6.29688,29.5 L6.29688,28.9727 L-8.11719,28.9727 L-8.11719,29.5 L-11.6328,29.5 L-11.6328,28.9727 L-15.5,28.9727 L-15.5,17.0195 L-11.6328,17.0195 L-11.6328,16.4922 M11.9219,19.6563 L12.9766,20.4414 L12.9766,25.5391 L11.9219,26.3359 L10.1641,26.3359 L10.1641,19.6563 L11.9219,19.6563"/>
</g>

<g fill="none" stroke="#000000" stroke-opacity="1" stroke-width="1" stroke-linecap="square" stroke-linejoin="bevel" transform="matrix(1,0,0,1,0,0)"
font-family="MS Shell Dlg 2" font-size="9.8" font-weight="400" font-style="normal" 
>
</g>
</g>
</svg>
