<?xml version="1.0" encoding="UTF-8" standalone="no"?>
<svg width="11.2889mm" height="11.2889mm"
 viewBox="0 0 32 32"
 xmlns="http://www.w3.org/2000/svg" xmlns:xlink="http://www.w3.org/1999/xlink"  version="1.2" baseProfile="tiny">
<title>Qt SVG Document</title>
<desc>Generated with Qt</desc>
<defs>
</defs>
<g fill="none" stroke="black" stroke-width="1" fill-rule="evenodd" stroke-linecap="square" stroke-linejoin="bevel" >

<g fill="#ffff00" fill-opacity="1" stroke="none" transform="matrix(1,0,0,1,15.4375,12.7344)"
font-family="MS Shell Dlg 2" font-size="9.8" font-weight="400" font-style="normal" 
>
<path vector-effect="none" fill-rule="nonzero" d="M-0.195313,5.93359 L-0.113281,5.93359 C0.0585937,6.04297 2.37109,9.99219 6.82422,17.7813 L13.1641,28.7266 L13.1641,28.8906 L-13.1445,28.8906 L-13.3086,28.8086 C-4.73828,13.8867 -0.367188,6.26172 -0.195313,5.93359 "/>
</g>

<g fill="none" stroke="#000000" stroke-opacity="1" stroke-width="1" stroke-linecap="square" stroke-linejoin="bevel" transform="matrix(1,0,0,1,0,0)"
font-family="MS Shell Dlg 2" font-size="9.8" font-weight="400" font-style="normal" 
>
</g>

<g fill="#000000" fill-opacity="1" stroke="none" transform="matrix(1,0,0,1,15.6484,12.7344)"
font-family="MS Shell Dlg 2" font-size="9.8" font-weight="400" font-style="normal" 
>
<path vector-effect="none" fill-rule="nonzero" d="M-0.558594,5.92188 C-0.441406,5.84375 -0.328125,5.80469 -0.21875,5.80469 C-0.109375,5.80469 3.72529e-09,5.84375 0.109375,5.92188 L13.3398,28.4219 C13.4336,28.6406 13.4805,28.8281 13.4805,28.9844 C13.4805,29.2891 13.2969,29.4609 12.9297,29.5 L-13.3672,29.5 C-13.8125,29.4531 -14.0352,29.2891 -14.0352,29.0078 C-14.0352,28.9141 -14.0078,28.8008 -13.9531,28.668 L-0.558594,5.92188 M-11.0469,27.5898 L10.6211,27.5898 L-0.136719,8.99219 L-11.0469,27.5898 M-0.839844,14.4766 C-0.871094,14.3281 -0.886719,14.1875 -0.886719,14.0547 C-0.886719,13.5313 -0.664063,13.1367 -0.21875,12.8711 C-0.25,13.0195 -0.265625,13.1602 -0.265625,13.293 C-0.265625,13.5977 -0.179688,13.8438 -0.0078125,14.0313 C0.242187,14.3125 0.460938,14.6563 0.648438,15.0625 C0.75,15.2891 0.800781,15.5352 0.800781,15.8008 C0.800781,16.0273 0.765625,16.2656 0.695313,16.5156 C0.96875,16.4609 1.10547,16.1563 1.10547,15.6016 C1.55859,15.8281 1.78516,16.2109 1.78516,16.75 C1.78516,16.8594 1.77734,16.9727 1.76172,17.0898 C1.80859,17.0977 1.85156,17.1016 1.89063,17.1016 C2.25,17.1016 2.45703,16.8789 2.51172,16.4336 C2.89453,16.6523 3.11328,17.4258 3.16797,18.7539 L3.16797,19.7383 C3.29297,19.6758 3.41016,19.6445 3.51953,19.6445 C3.70703,19.6445 3.86719,19.7305 4,19.9023 C3.60938,19.957 3.41406,20.1797 3.41406,20.5703 C3.49219,21.0078 3.53125,21.3945 3.53125,21.7305 C3.53125,22.3086 3.41016,22.7188 3.16797,22.9609 L3.16797,23.4531 C2.89453,25.5547 1.76562,26.6328 -0.21875,26.6875 C-2.32031,26.5781 -3.48047,25.4766 -3.69922,23.3828 C-4.00391,23.0703 -4.15625,22.7383 -4.15625,22.3867 C-4.15625,22.3633 -4.15234,22.3359 -4.14453,22.3047 C-4.12109,21.9219 -3.98438,21.5078 -3.73438,21.0625 C-3.67188,20.9531 -3.64063,20.8359 -3.64063,20.7109 C-3.64063,20.3516 -3.90625,19.9453 -4.4375,19.4922 C-4.30469,19.3984 -4.16797,19.3516 -4.02734,19.3516 C-3.81641,19.3516 -3.59766,19.4531 -3.37109,19.6563 C-3.37109,19.1016 -3.27344,18.7969 -3.07813,18.7422 C-2.88281,18.6875 -2.75781,18.5352 -2.70313,18.2852 C-2.69531,18.2539 -2.69141,18.2188 -2.69141,18.1797 C-2.69141,17.9609 -2.83203,17.7109 -3.11328,17.4297 C-3.05859,17.3828 -2.99219,17.3594 -2.91406,17.3594 C-2.70313,17.3594 -2.41406,17.5469 -2.04688,17.9219 C-2.04688,17.5313 -1.98828,17.1992 -1.87109,16.9258 C-1.84766,16.8555 -1.83594,16.7813 -1.83594,16.7031 C-1.83594,16.4688 -1.96094,16.1836 -2.21094,15.8477 C-2.11719,15.8008 -2.01953,15.7773 -1.91797,15.7773 C-1.64453,15.7773 -1.32422,15.9414 -0.957031,16.2695 C-0.824219,15.9961 -0.757813,15.668 -0.757813,15.2852 C-0.757813,15.043 -0.785156,14.7734 -0.839844,14.4766 M-0.0546875,18.0039 C-0.390625,18.168 -0.570313,18.4844 -0.59375,18.9531 L-0.59375,19.1289 C-0.59375,19.5117 -0.523438,19.8281 -0.382813,20.0781 C-0.273438,20.0469 -0.15625,20.0313 -0.03125,20.0313 C0.09375,20.0313 0.226563,20.0469 0.367188,20.0781 C0.015625,19.5391 -0.160156,19.0391 -0.160156,18.5781 C-0.160156,18.3828 -0.125,18.1914 -0.0546875,18.0039 M-1.29688,19.2461 C-1.28125,19.3398 -1.27344,19.4336 -1.27344,19.5273 C-1.27344,19.793 -1.33594,20.0313 -1.46094,20.2422 C-1.29688,20.1172 -1.13281,20.0547 -0.96875,20.0547 C-0.914063,20.0547 -0.855469,20.0625 -0.792969,20.0781 C-0.964844,19.6328 -1.13281,19.3555 -1.29688,19.2461 M1.26953,19.4102 C1.26953,19.793 1.15625,20.0391 0.929688,20.1484 C1.10156,20.2109 1.24219,20.2969 1.35156,20.4063 C1.36719,20.2578 1.375,20.1211 1.375,19.9961 C1.375,19.7539 1.33984,19.5586 1.26953,19.4102 M-2.375,19.1523 C-2.375,19.6523 -2.42969,19.9961 -2.53906,20.1836 C-2.60938,20.3164 -2.64453,20.4883 -2.64453,20.6992 C-2.64453,20.8086 -2.63672,20.9297 -2.62109,21.0625 C-2.50391,20.8438 -2.33594,20.6797 -2.11719,20.5703 C-2.08594,20.5 -2.07031,20.3828 -2.07031,20.2188 C-2.07031,20.1406 -2.07422,20.0508 -2.08203,19.9492 C-2.10547,19.6445 -2.20313,19.3789 -2.375,19.1523 M2.25391,20.1484 C2.03516,20.2578 1.90234,20.4531 1.85547,20.7344 L2.18359,21.1445 C2.16016,21.0195 2.14844,20.8984 2.14844,20.7813 C2.14844,20.5703 2.18359,20.3594 2.25391,20.1484 M-3.03125,23.4531 C-2.8125,25.1094 -1.875,25.9922 -0.21875,26.1016 C1.42969,25.9922 2.33984,25.1094 2.51172,23.4531 C2.40234,21.5781 1.46484,20.6172 -0.300781,20.5703 C-2.01172,20.6797 -2.92188,21.6406 -3.03125,23.4531 M3.00391,20.2422 C2.78516,20.2422 2.67578,20.6836 2.67578,21.5664 C2.83984,21.832 2.94922,22.0781 3.00391,22.3047 C3.11328,22.0078 3.16797,21.7617 3.16797,21.5664 C3.16797,21.4648 3.15625,21.3789 3.13281,21.3086 C3.04688,21.0898 3.00391,20.7344 3.00391,20.2422 M-3.27734,20.9805 C-3.55859,21.418 -3.72656,21.7734 -3.78125,22.0469 C-3.79688,22.1172 -3.80469,22.1875 -3.80469,22.2578 C-3.80469,22.4609 -3.73828,22.668 -3.60547,22.8789 C-3.55859,22.4961 -3.44922,22.1367 -3.27734,21.8008 C-3.33203,21.7227 -3.35938,21.6133 -3.35938,21.4727 C-3.35938,21.3398 -3.33203,21.1758 -3.27734,20.9805 "/>
</g>

<g fill="none" stroke="#000000" stroke-opacity="1" stroke-width="1" stroke-linecap="square" stroke-linejoin="bevel" transform="matrix(1,0,0,1,0,0)"
font-family="MS Shell Dlg 2" font-size="9.8" font-weight="400" font-style="normal" 
>
</g>
</g>
</svg>
