<?xml version="1.0" encoding="UTF-8" standalone="no"?>
<svg width="11.2889mm" height="11.2889mm"
 viewBox="0 0 32 32"
 xmlns="http://www.w3.org/2000/svg" xmlns:xlink="http://www.w3.org/1999/xlink"  version="1.2" baseProfile="tiny">
<title>Qt SVG Document</title>
<desc>Generated with Qt</desc>
<defs>
</defs>
<g fill="none" stroke="black" stroke-width="1" fill-rule="evenodd" stroke-linecap="square" stroke-linejoin="bevel" >

<g fill="#ffffff" fill-opacity="1" stroke="none" transform="matrix(1,0,0,1,15.7656,12.7344)"
font-family="MS Shell Dlg 2" font-size="9.8" font-weight="400" font-style="normal" 
>
<path vector-effect="none" fill-rule="nonzero" d="M-7.42578,3.17969 L7.41016,3.17969 C7.63672,3.17969 7.75,3.29297 7.75,3.51953 L7.75,28.7617 C7.75,28.9883 7.63672,29.1016 7.41016,29.1016 L-7.42578,29.1016 C-7.65234,29.1016 -7.76563,28.9883 -7.76563,28.7617 L-7.76563,3.51953 C-7.70313,3.29297 -7.58984,3.17969 -7.42578,3.17969 "/>
</g>

<g fill="none" stroke="#000000" stroke-opacity="1" stroke-width="1" stroke-linecap="square" stroke-linejoin="bevel" transform="matrix(1,0,0,1,0,0)"
font-family="MS Shell Dlg 2" font-size="9.8" font-weight="400" font-style="normal" 
>
</g>

<g fill="#005ce6" fill-opacity="1" stroke="none" transform="matrix(1,0,0,1,15.9297,12.7344)"
font-family="MS Shell Dlg 2" font-size="9.8" font-weight="400" font-style="normal" 
>
<path vector-effect="none" fill-rule="nonzero" d="M-7.64844,2.78125 L7.64453,2.78125 C7.87891,2.78125 7.99609,2.89844 7.99609,3.13281 L7.99609,29.1484 C7.99609,29.3828 7.87891,29.5 7.64453,29.5 L-7.64844,29.5 C-7.88281,29.5 -8,29.3828 -8,29.1484 L-8,3.13281 C-7.9375,2.89844 -7.82031,2.78125 -7.64844,2.78125 M-5.1875,7.87891 L-5.1875,22.8203 L-3.25391,22.8203 L-3.25391,17.0195 C-3.19141,16.7852 -3.07422,16.668 -2.90234,16.668 L1.14063,16.668 C3.95312,16.668 5.53516,15.3203 5.88672,12.625 L5.88672,11.7461 C5.88672,9.40234 4.36328,8.11328 1.31641,7.87891 L-5.1875,7.87891 M-2.90234,9.63672 L0.789063,9.63672 C2.89844,9.63672 3.95313,10.5156 3.95313,12.2734 C3.95313,14.0313 2.54687,14.9102 -0.265625,14.9102 L-2.90234,14.9102 C-3.13672,14.9102 -3.25391,14.793 -3.25391,14.5586 L-3.25391,9.98828 C-3.19141,9.75391 -3.07422,9.63672 -2.90234,9.63672 "/>
</g>

<g fill="none" stroke="#000000" stroke-opacity="1" stroke-width="1" stroke-linecap="square" stroke-linejoin="bevel" transform="matrix(1,0,0,1,0,0)"
font-family="MS Shell Dlg 2" font-size="9.8" font-weight="400" font-style="normal" 
>
</g>
</g>
</svg>
