<?xml version="1.0" encoding="UTF-8" standalone="no"?>
<svg width="11.2889mm" height="11.2889mm"
 viewBox="0 0 32 32"
 xmlns="http://www.w3.org/2000/svg" xmlns:xlink="http://www.w3.org/1999/xlink"  version="1.2" baseProfile="tiny">
<title>Qt SVG Document</title>
<desc>Generated with Qt</desc>
<defs>
</defs>
<g fill="none" stroke="black" stroke-width="1" fill-rule="evenodd" stroke-linecap="square" stroke-linejoin="bevel" >

<g fill="#e60000" fill-opacity="1" stroke="none" transform="matrix(1,0,0,1,16,15.9844)"
font-family="MS Shell Dlg 2" font-size="9.8" font-weight="400" font-style="normal" 
>
<path vector-effect="none" fill-rule="nonzero" d="M12,6.79429 L12,2.92 L11.4171,2.92 L11.4171,2.30286 L11.2457,2.30286 L11.2457,2.92 L2.91428,2.92 L2.91428,2.30286 L2.74286,2.30286 L2.74286,2.92 L2.16,2.92 L1.33714,4.15429 C1.54286,5.09143 1.64571,6.21143 1.64571,7.51429 C1.64571,8.01714 1.62857,8.54286 1.59429,9.09143 C1.56,9.64 1.52,10.2114 1.47429,10.8057 L4.69714,10.8057 L5.04,9.57143 C5.2,9.22857 5.77143,9.05714 6.75429,9.05714 C7.28,9.05714 7.68,9.10857 7.95428,9.21143 C8.22857,9.31429 8.42286,9.44 8.53714,9.58857 C8.65143,9.73714 8.71428,9.91429 8.72571,10.12 C8.73714,10.3257 8.75428,10.5429 8.77714,10.7714 C9.37143,10.7943 9.87428,10.8171 10.2857,10.84 C10.6971,10.8629 11.0286,10.8743 11.28,10.8743 C11.5771,10.8743 11.7486,10.8514 11.7943,10.8057 C11.84,10.1886 11.88,9.63429 11.9143,9.14286 C11.9486,8.65143 11.9657,8.24571 11.9657,7.92571 C11.9657,7.4 11.9314,7.04571 11.8629,6.86286 L12,6.79429 M8.4,11.3543 C8.4,10.8971 8.24,10.5029 7.92,10.1714 C7.6,9.84 7.21143,9.67429 6.75429,9.67429 C6.29714,9.67429 5.90857,9.84 5.58857,10.1714 C5.26857,10.5029 5.10857,10.8971 5.10857,11.3543 C5.10857,11.8114 5.26857,12.2 5.58857,12.52 C5.90857,12.84 6.29714,13 6.75429,13 C7.21143,13 7.6,12.84 7.92,12.52 C8.24,12.2 8.4,11.8114 8.4,11.3543 M1.13143,10.8057 C1.2,10.1886 1.24571,9.6 1.26857,9.04 C1.29143,8.48 1.30286,7.94857 1.30286,7.44571 C1.30286,6.78286 1.28,6.17714 1.23429,5.62857 C1.18857,5.08 1.12,4.57714 1.02857,4.12 C0.754285,4.05143 0.262857,4.01714 -0.445715,4.01714 C-0.4,3.94857 -0.377143,3.88 -0.377143,3.81143 L-0.377143,3.64 C-0.377143,3.45714 -0.491429,3.36572 -0.72,3.36572 L-1.13143,3.36572 C-1.36,3.36572 -1.47429,3.48 -1.47429,3.70857 L-1.47429,3.81143 C-1.47429,3.85714 -1.45143,3.92571 -1.40571,4.01714 C-2.20571,4.04 -2.81714,4.05714 -3.24,4.06857 C-3.66286,4.08 -3.92,4.10857 -4.01143,4.15429 C-4.28571,4.29143 -4.72,4.64571 -5.31429,5.21714 C-5.54286,5.44571 -5.77714,5.67429 -6.01714,5.90286 C-6.25714,6.13143 -6.50286,6.37143 -6.75429,6.62286 L-11.7943,7.20571 C-11.9086,7.22857 -11.9771,7.49143 -12,7.99429 L-12,9.46857 C-12,9.83429 -11.9943,10.1143 -11.9829,10.3086 C-11.9714,10.5029 -11.9657,10.5886 -11.9657,10.5657 C-11.8514,10.6343 -11.7429,10.6914 -11.64,10.7371 C-11.5371,10.7829 -11.4514,10.8057 -11.3829,10.8057 L-10.9714,10.8057 L-10.6286,9.57143 C-10.4457,9.22857 -9.87429,9.05714 -8.91429,9.05714 C-8.36571,9.05714 -7.96,9.10857 -7.69714,9.21143 C-7.43429,9.31429 -7.24571,9.44 -7.13143,9.58857 C-7.01714,9.73714 -6.95429,9.91429 -6.94286,10.12 C-6.93143,10.3257 -6.91429,10.5429 -6.89143,10.7714 C-6.70857,10.7943 -6.41714,10.8114 -6.01714,10.8229 C-5.61714,10.8343 -5.09714,10.8514 -4.45714,10.8743 C-4.02286,10.8743 -3.50857,10.8743 -2.91429,10.8743 C-2.34286,10.8743 -1.69143,10.8629 -0.96,10.84 C-0.297143,10.8171 0.205714,10.8057 0.548571,10.8057 C0.891428,10.8057 1.08571,10.8057 1.13143,10.8057 M-7.23429,11.3543 C-7.23429,10.8971 -7.4,10.5029 -7.73143,10.1714 C-8.06286,9.84 -8.45714,9.67429 -8.91429,9.67429 C-9.37143,9.67429 -9.76,9.84 -10.08,10.1714 C-10.4,10.5029 -10.56,10.8971 -10.56,11.3543 C-10.56,11.8114 -10.4,12.2 -10.08,12.52 C-9.76,12.84 -9.37143,13 -8.91429,13 C-8.45714,13 -8.06286,12.84 -7.73143,12.52 C-7.4,12.2 -7.23429,11.8114 -7.23429,11.3543 M7.61143,11.3543 C7.61143,11.5829 7.52571,11.7829 7.35428,11.9543 C7.18286,12.1257 6.98286,12.2114 6.75429,12.2114 C6.52571,12.2114 6.32571,12.1257 6.15429,11.9543 C5.98286,11.7829 5.89714,11.5829 5.89714,11.3543 C5.89714,11.1029 5.98286,10.8971 6.15429,10.7371 C6.32571,10.5771 6.52571,10.4971 6.75429,10.4971 C6.98286,10.4971 7.18286,10.5771 7.35428,10.7371 C7.52571,10.8971 7.61143,11.1029 7.61143,11.3543 M0.308571,6.79429 L-1.61143,6.79429 C-1.56571,6.58857 -1.54286,6.17714 -1.54286,5.56 C-1.56571,4.94286 -1.6,4.53143 -1.64571,4.32572 L-1.50857,4.32572 L-1.44,4.32572 C-1.21143,4.28 -0.982857,4.25714 -0.754286,4.25714 C-0.502857,4.25714 -0.194286,4.29143 0.171428,4.36 C0.239999,4.49714 0.297142,4.89714 0.342856,5.56 C0.342856,5.69714 0.342856,5.83429 0.342856,5.97143 C0.342856,6.08571 0.342856,6.18857 0.342856,6.28 C0.342856,6.55429 0.331428,6.72571 0.308571,6.79429 M-2.12571,4.32572 C-2.10286,4.6 -2.08571,4.85143 -2.07429,5.08 C-2.06286,5.30857 -2.05714,5.52571 -2.05714,5.73143 C-2.05714,6.16571 -2.08,6.49714 -2.12571,6.72571 C-2.14857,6.72571 -2.25143,6.72571 -2.43429,6.72571 C-2.59429,6.72571 -2.84,6.73714 -3.17143,6.76 C-3.50286,6.78286 -3.81714,6.79429 -4.11429,6.79429 C-4.38857,6.79429 -4.64,6.79429 -4.86857,6.79429 C-5.18857,6.79429 -5.47429,6.78857 -5.72571,6.77714 C-5.97714,6.76571 -6.18286,6.74857 -6.34286,6.72571 C-6.29714,6.58857 -5.93143,6.2 -5.24571,5.56 C-4.60571,4.96571 -4.14857,4.57714 -3.87429,4.39429 C-3.80571,4.34857 -3.54286,4.32572 -3.08571,4.32572 C-2.94857,4.32572 -2.8,4.32572 -2.64,4.32572 C-2.48,4.32572 -2.30857,4.32572 -2.12571,4.32572 M-8.05714,11.3543 C-8.05714,11.5829 -8.13714,11.7829 -8.29714,11.9543 C-8.45714,12.1257 -8.66286,12.2114 -8.91429,12.2114 C-9.14286,12.2114 -9.34286,12.1257 -9.51429,11.9543 C-9.68571,11.7829 -9.77143,11.5829 -9.77143,11.3543 C-9.77143,11.1029 -9.68571,10.8971 -9.51429,10.7371 C-9.34286,10.5771 -9.14286,10.4971 -8.91429,10.4971 C-8.66286,10.4971 -8.45714,10.5771 -8.29714,10.7371 C-8.13714,10.8971 -8.05714,11.1029 -8.05714,11.3543 "/>
</g>

<g fill="none" stroke="#000000" stroke-opacity="1" stroke-width="1" stroke-linecap="square" stroke-linejoin="bevel" transform="matrix(1,0,0,1,0,0)"
font-family="MS Shell Dlg 2" font-size="9.8" font-weight="400" font-style="normal" 
>
</g>
</g>
</svg>
