<?xml version="1.0" encoding="UTF-8" standalone="no"?>
<svg width="11.2889mm" height="11.2889mm"
 viewBox="0 0 32 32"
 xmlns="http://www.w3.org/2000/svg" xmlns:xlink="http://www.w3.org/1999/xlink"  version="1.2" baseProfile="tiny">
<title>Qt SVG Document</title>
<desc>Generated with Qt</desc>
<defs>
</defs>
<g fill="none" stroke="black" stroke-width="1" fill-rule="evenodd" stroke-linecap="square" stroke-linejoin="bevel" >

<g fill="#000000" fill-opacity="1" stroke="none" transform="matrix(1,0,0,1,15.9688,12.7344)"
font-family="MS Shell Dlg 2" font-size="9.8" font-weight="400" font-style="normal" 
>
<path vector-effect="none" fill-rule="nonzero" d="M-17,22.0469 L-0.476563,7.38672 L16.7383,22.0469 L10.5977,22.082 L10.6094,29.5 L-11,29.5 L-10.9648,22.082 L-17,22.0469"/>
</g>

<g fill="none" stroke="#000000" stroke-opacity="1" stroke-width="1" stroke-linecap="square" stroke-linejoin="bevel" transform="matrix(1,0,0,1,0,0)"
font-family="MS Shell Dlg 2" font-size="9.8" font-weight="400" font-style="normal" 
>
</g>

<g fill="#ffff00" fill-opacity="1" stroke="none" transform="matrix(1,0,0,1,13.4922,12.7344)"
font-family="MS Shell Dlg 2" font-size="9.8" font-weight="400" font-style="normal" 
>
<path vector-effect="none" fill-rule="nonzero" d="M-13.8711,20.9102 L-0.417969,9.05078 L13.0234,20.7344 L9.22656,20.7109 L9.23828,28.5391 L-9.60547,28.5508 L-9.62891,20.8867 L-13.8711,20.9102"/>
</g>

<g fill="none" stroke="#000000" stroke-opacity="1" stroke-width="1" stroke-linecap="square" stroke-linejoin="bevel" transform="matrix(1,0,0,1,0,0)"
font-family="MS Shell Dlg 2" font-size="9.8" font-weight="400" font-style="normal" 
>
</g>

<g fill="#000000" fill-opacity="1" stroke="none" transform="matrix(1,0,0,1,7.0625,12.7344)"
font-family="MS Shell Dlg 2" font-size="9.8" font-weight="400" font-style="normal" 
>
<path vector-effect="none" fill-rule="nonzero" d="M-3.32422,15.8828 L-0.0546875,15.8828 C1.16406,15.8828 2.01172,16.3477 2.48828,17.2773 C2.64453,17.8242 2.72266,18.2305 2.72266,18.4961 C2.72266,19.582 2.17969,20.3477 1.09375,20.793 L0.929688,20.793 L3.37891,23.9805 L3.37891,24.1445 L0.847656,24.1445 C0.800781,24.1445 0.117187,23.1914 -1.20313,21.2852 L-1.20313,23.9805 C-1.20313,24.0898 -1.25781,24.1445 -1.36719,24.1445 L-3.32422,24.1445 C-3.43359,24.1445 -3.48828,24.0898 -3.48828,23.9805 L-3.48828,16.0469 C-3.47266,15.9375 -3.41797,15.8828 -3.32422,15.8828 M-1.20313,17.5234 L-1.20313,19.5625 L-0.957031,19.5625 C-0.0273438,19.5625 0.4375,19.2344 0.4375,18.5781 C0.4375,17.875 -0.0273438,17.5234 -0.957031,17.5234 L-1.20313,17.5234"/>
</g>

<g fill="none" stroke="#000000" stroke-opacity="1" stroke-width="1" stroke-linecap="square" stroke-linejoin="bevel" transform="matrix(1,0,0,1,0,0)"
font-family="MS Shell Dlg 2" font-size="9.8" font-weight="400" font-style="normal" 
>
</g>
</g>
</svg>
