<?xml version="1.0" encoding="UTF-8" standalone="no"?>
<svg width="11.2889mm" height="11.2889mm"
 viewBox="0 0 32 32"
 xmlns="http://www.w3.org/2000/svg" xmlns:xlink="http://www.w3.org/1999/xlink"  version="1.2" baseProfile="tiny">
<title>Qt SVG Document</title>
<desc>Generated with Qt</desc>
<defs>
</defs>
<g fill="none" stroke="black" stroke-width="1" fill-rule="evenodd" stroke-linecap="square" stroke-linejoin="bevel" >

<g fill="#ffffff" fill-opacity="1" stroke="none" transform="matrix(1,0,0,1,15.9531,12.7344)"
font-family="MS Shell Dlg 2" font-size="9.8" font-weight="400" font-style="normal" 
>
<path vector-effect="none" fill-rule="nonzero" d="M-11.6328,16.4922 L-8.11719,16.4922 L-8.11719,17.0195 L6.29688,17.0195 L6.29688,16.4922 L9.8125,16.4922 L9.8125,17.0195 C13.3906,17.0195 15.2656,18.0156 15.4375,20.0078 L15.4375,25.6328 C15.4375,27.8594 13.5625,28.9727 9.8125,28.9727 L9.8125,29.5 L6.29688,29.5 L6.29688,28.9727 L-8.11719,28.9727 L-8.11719,29.5 L-11.6328,29.5 L-11.6328,28.9727 L-15.5,28.9727 L-15.5,17.0195 L-11.6328,17.0195 L-11.6328,16.4922 M10.1641,19.6563 L10.1641,26.3359 L11.9219,26.3359 L12.9766,25.5391 L12.9766,20.4414 L11.9219,19.6563 L10.1641,19.6563"/>
</g>

<g fill="none" stroke="#000000" stroke-opacity="1" stroke-width="1" stroke-linecap="square" stroke-linejoin="bevel" transform="matrix(1,0,0,1,0,0)"
font-family="MS Shell Dlg 2" font-size="9.8" font-weight="400" font-style="normal" 
>
</g>

<g fill="#e60000" fill-opacity="1" stroke="none" transform="matrix(1,0,0,1,15.9531,12.7344)"
font-family="MS Shell Dlg 2" font-size="9.8" font-weight="400" font-style="normal" 
>
<path vector-effect="none" fill-rule="nonzero" d="M-11.0117,17.8047 L-14.6211,17.8047 L-14.6211,28.0938 L-10.8359,28.0938 L-10.8359,28.7969 L-8.90234,28.7969 L-8.90234,28.0938 L7.17578,28.0938 L7.17578,28.7969 L9.02734,28.7969 L9.02734,28.0938 L10.1641,28.0938 C12.8672,28.0938 14.3047,27.2422 14.4766,25.5391 L14.4766,19.832 C14.0234,18.4805 12.5664,17.8047 10.1055,17.8047 L9.02734,17.8047 L9.02734,17.1953 L7,17.1953 L7,17.8047 L-8.82031,17.8047 L-8.82031,17.1953 L-11.0117,17.1953 L-11.0117,17.8047 M-11.6328,16.4922 L-8.11719,16.4922 L-8.11719,17.0195 L6.29688,17.0195 L6.29688,16.4922 L9.8125,16.4922 L9.8125,17.0195 C13.3906,17.0195 15.2656,18.0156 15.4375,20.0078 L15.4375,25.6328 C15.4375,27.8594 13.5625,28.9727 9.8125,28.9727 L9.8125,29.5 L6.29688,29.5 L6.29688,28.9727 L-8.11719,28.9727 L-8.11719,29.5 L-11.6328,29.5 L-11.6328,28.9727 L-15.5,28.9727 L-15.5,17.0195 L-11.6328,17.0195 L-11.6328,16.4922 M11.9219,19.6563 L12.9766,20.4414 L12.9766,25.5391 L11.9219,26.3359 L10.1641,26.3359 L10.1641,19.6563 L11.9219,19.6563"/>
</g>

<g fill="none" stroke="#000000" stroke-opacity="1" stroke-width="1" stroke-linecap="square" stroke-linejoin="bevel" transform="matrix(1,0,0,1,0,0)"
font-family="MS Shell Dlg 2" font-size="9.8" font-weight="400" font-style="normal" 
>
</g>

<g fill="#000000" fill-opacity="1" stroke="none" transform="matrix(1,0,0,1,10.7188,14.8359)"
font-family="MS Shell Dlg 2" font-size="9.8" font-weight="400" font-style="normal" 
>
<path vector-effect="none" fill-rule="nonzero" d="M-2.14063,1.66016 L-1.42578,1.59766 C-1.39193,1.88411 -1.31315,2.11914 -1.18945,2.30273 C-1.06576,2.48633 -0.873698,2.63477 -0.613281,2.74805 C-0.352865,2.86133 -0.0598958,2.91797 0.265625,2.91797 C0.554688,2.91797 0.809896,2.875 1.03125,2.78906 C1.2526,2.70313 1.41732,2.58529 1.52539,2.43555 C1.63346,2.28581 1.6875,2.1224 1.6875,1.94531 C1.6875,1.76562 1.63542,1.60872 1.53125,1.47461 C1.42708,1.34049 1.25521,1.22786 1.01563,1.13672 C0.861979,1.07682 0.522135,0.983724 -0.00390625,0.857422 C-0.529948,0.73112 -0.898438,0.611979 -1.10938,0.5 C-1.38281,0.356771 -1.58659,0.179036 -1.7207,-0.0332031 C-1.85482,-0.245443 -1.92187,-0.483073 -1.92188,-0.746094 C-1.92187,-1.03516 -1.83984,-1.30534 -1.67578,-1.55664 C-1.51172,-1.80794 -1.27214,-1.9987 -0.957031,-2.12891 C-0.641927,-2.25911 -0.291667,-2.32422 0.09375,-2.32422 C0.518229,-2.32422 0.892578,-2.25586 1.2168,-2.11914 C1.54102,-1.98242 1.79036,-1.78125 1.96484,-1.51563 C2.13932,-1.25 2.23307,-0.949219 2.24609,-0.613281 L1.51953,-0.558594 C1.48047,-0.920573 1.34831,-1.19401 1.12305,-1.37891 C0.897786,-1.5638 0.565104,-1.65625 0.125,-1.65625 C-0.333333,-1.65625 -0.667318,-1.57227 -0.876953,-1.4043 C-1.08659,-1.23633 -1.19141,-1.03385 -1.19141,-0.796875 C-1.19141,-0.591146 -1.11719,-0.421875 -0.96875,-0.289063 C-0.822917,-0.15625 -0.442057,-0.0201823 0.173828,0.119141 C0.789714,0.258464 1.21224,0.380208 1.44141,0.484375 C1.77474,0.638021 2.02083,0.832682 2.17969,1.06836 C2.33854,1.30404 2.41797,1.57552 2.41797,1.88281 C2.41797,2.1875 2.33073,2.47461 2.15625,2.74414 C1.98177,3.01367 1.73112,3.22331 1.4043,3.37305 C1.07747,3.52279 0.709635,3.59766 0.300781,3.59766 C-0.217448,3.59766 -0.651693,3.52214 -1.00195,3.37109 C-1.35221,3.22005 -1.62695,2.99284 -1.82617,2.68945 C-2.02539,2.38607 -2.13021,2.04297 -2.14063,1.66016 "/>
</g>

<g fill="none" stroke="#000000" stroke-opacity="1" stroke-width="1" stroke-linecap="square" stroke-linejoin="bevel" transform="matrix(1,0,0,1,0,0)"
font-family="MS Shell Dlg 2" font-size="9.8" font-weight="400" font-style="normal" 
>
</g>

<g fill="#000000" fill-opacity="1" stroke="none" transform="matrix(1,0,0,1,18.7109,14.8359)"
font-family="MS Shell Dlg 2" font-size="9.8" font-weight="400" font-style="normal" 
>
<path vector-effect="none" fill-rule="nonzero" d="M-1.91406,3.5 L-1.91406,-2.22656 L0.234375,-2.22656 C0.671875,-2.22656 1.02279,-2.16862 1.28711,-2.05273 C1.55143,-1.93685 1.75846,-1.75846 1.9082,-1.51758 C2.05794,-1.27669 2.13281,-1.02474 2.13281,-0.761719 C2.13281,-0.516927 2.06641,-0.286458 1.93359,-0.0703125 C1.80078,0.145833 1.60026,0.320313 1.33203,0.453125 C1.67839,0.554688 1.94466,0.727865 2.13086,0.972656 C2.31706,1.21745 2.41016,1.50651 2.41016,1.83984 C2.41016,2.10807 2.35352,2.35742 2.24023,2.58789 C2.12695,2.81836 1.98698,2.99609 1.82031,3.12109 C1.65365,3.24609 1.44466,3.34049 1.19336,3.4043 C0.942057,3.4681 0.634115,3.5 0.269531,3.5 L-1.91406,3.5 M-1.15625,0.179688 L0.0820313,0.179688 C0.417969,0.179688 0.658854,0.157552 0.804688,0.113281 C0.997396,0.0559896 1.14258,-0.0390625 1.24023,-0.171875 C1.33789,-0.304687 1.38672,-0.471354 1.38672,-0.671875 C1.38672,-0.861979 1.34115,-1.0293 1.25,-1.17383 C1.15885,-1.31836 1.02865,-1.41732 0.859375,-1.4707 C0.690104,-1.52409 0.39974,-1.55078 -0.0117188,-1.55078 L-1.15625,-1.55078 L-1.15625,0.179688 M-1.15625,2.82422 L0.269531,2.82422 C0.514323,2.82422 0.686198,2.8151 0.785156,2.79688 C0.959635,2.76563 1.10547,2.71354 1.22266,2.64063 C1.33984,2.56771 1.4362,2.46159 1.51172,2.32227 C1.58724,2.18294 1.625,2.02214 1.625,1.83984 C1.625,1.6263 1.57031,1.44076 1.46094,1.2832 C1.35156,1.12565 1.19987,1.01497 1.00586,0.951172 C0.811849,0.88737 0.532552,0.855469 0.167969,0.855469 L-1.15625,0.855469 L-1.15625,2.82422"/>
</g>

<g fill="none" stroke="#000000" stroke-opacity="1" stroke-width="1" stroke-linecap="square" stroke-linejoin="bevel" transform="matrix(1,0,0,1,0,0)"
font-family="MS Shell Dlg 2" font-size="9.8" font-weight="400" font-style="normal" 
>
</g>
</g>
</svg>
