<?xml version="1.0" encoding="UTF-8" standalone="no"?>
<svg width="11.2889mm" height="11.2889mm"
 viewBox="0 0 32 32"
 xmlns="http://www.w3.org/2000/svg" xmlns:xlink="http://www.w3.org/1999/xlink"  version="1.2" baseProfile="tiny">
<title>Qt SVG Document</title>
<desc>Generated with Qt</desc>
<defs>
</defs>
<g fill="none" stroke="black" stroke-width="1" fill-rule="evenodd" stroke-linecap="square" stroke-linejoin="bevel" >

<g fill="#ffffff" fill-opacity="1" stroke="none" transform="matrix(1,0,0,1,15.3125,12.7344)"
font-family="MS Shell Dlg 2" font-size="9.8" font-weight="400" font-style="normal" 
>
<path vector-effect="none" fill-rule="nonzero" d="M10.5586,6.94141 L10.5586,28.6797 L-11.1797,28.6797 L-11.1797,6.94141 L10.5586,6.94141"/>
</g>

<g fill="none" stroke="#000000" stroke-opacity="1" stroke-width="1" stroke-linecap="square" stroke-linejoin="bevel" transform="matrix(1,0,0,1,0,0)"
font-family="MS Shell Dlg 2" font-size="9.8" font-weight="400" font-style="normal" 
>
</g>

<g fill="#ff0000" fill-opacity="1" stroke="none" transform="matrix(1,0,0,1,13.75,12.7344)"
font-family="MS Shell Dlg 2" font-size="9.8" font-weight="400" font-style="normal" 
>
<path vector-effect="none" fill-rule="nonzero" d="M8.21484,9.10938 L8.21484,21.5781 L-4.73438,21.5781 L-4.73438,9.10938 L8.21484,9.10938 M-11.25,6.21484 L-11.25,6.30859 L-11.3555,6.30859 L-11.3555,6.21484 L-11.25,6.21484 M-11.3906,29.2305 L-11.3906,29.3242 L-11.5898,29.3242 L-11.5898,29.2305 L-11.3906,29.2305"/>
</g>

<g fill="none" stroke="#000000" stroke-opacity="1" stroke-width="1" stroke-linecap="square" stroke-linejoin="bevel" transform="matrix(1,0,0,1,0,0)"
font-family="MS Shell Dlg 2" font-size="9.8" font-weight="400" font-style="normal" 
>
</g>

<g fill="#000000" fill-opacity="1" stroke="none" transform="matrix(1,0,0,1,15.8594,12.7344)"
font-family="MS Shell Dlg 2" font-size="9.8" font-weight="400" font-style="normal" 
>
<path vector-effect="none" fill-rule="nonzero" d="M-11.332,6.12109 L10.7109,6.12109 C11.1563,6.17578 11.3789,6.39844 11.3789,6.78906 L11.3789,28.832 C11.3789,29.2773 11.1563,29.5 10.7109,29.5 L-11.332,29.5 C-11.7773,29.5 -12,29.2773 -12,28.832 L-12,6.78906 C-11.9375,6.34375 -11.7148,6.12109 -11.332,6.12109 M-10.6641,7.45703 L-10.6641,28.1641 L10.043,28.1641 L10.043,7.45703 L-10.6641,7.45703 M-4.65234,8.45313 L8.03906,8.45313 C8.48438,8.50781 8.70703,8.73047 8.70703,9.12109 L8.70703,21.4844 C8.70703,21.9297 8.48438,22.1523 8.03906,22.1523 L-4.65234,22.1523 C-5.09766,22.1523 -5.32031,21.9297 -5.32031,21.4844 L-5.32031,16.4688 L-6.07031,16.4688 L-6.07031,17.8867 C-6.07031,18.332 -6.26562,18.6406 -6.65625,18.8125 L-6.65625,21.8125 C-5.92969,22.2813 -5.56641,23.0664 -5.56641,24.168 L-5.56641,24.4023 C-5.56641,25.9102 -6.09766,26.7461 -7.16016,26.9102 C-8.26953,26.8555 -8.85156,25.9922 -8.90625,24.3203 C-8.90625,22.9844 -8.48828,22.1484 -7.65234,21.8125 L-7.65234,18.8125 C-8.09766,18.7031 -8.32031,18.3672 -8.32031,17.8047 L-8.32031,13.4688 C-8.26563,13.0234 -8.04297,12.8008 -7.65234,12.8008 L-6.73828,12.8008 C-6.29297,12.8008 -6.07031,13.0234 -6.07031,13.4688 L-6.07031,16.1406 L-5.32031,16.1406 L-5.32031,9.12109 C-5.25781,8.67578 -5.03516,8.45313 -4.65234,8.45313 M-4.48828,9.29688 L-4.48828,21.3906 L7.95703,21.3906 L7.95703,9.29688 L-4.48828,9.29688 M-7.16016,22.6563 C-7.71484,22.6563 -7.99219,23.2109 -7.99219,24.3203 C-7.99219,25.4375 -7.71484,25.9961 -7.16016,25.9961 C-6.65234,25.9961 -6.39844,25.4102 -6.39844,24.2383 C-6.46094,23.1836 -6.71484,22.6563 -7.16016,22.6563 "/>
</g>

<g fill="none" stroke="#000000" stroke-opacity="1" stroke-width="1" stroke-linecap="square" stroke-linejoin="bevel" transform="matrix(1,0,0,1,0,0)"
font-family="MS Shell Dlg 2" font-size="9.8" font-weight="400" font-style="normal" 
>
</g>

<g fill="#ffffff" fill-opacity="1" stroke="none" transform="matrix(1,0,0,1,13.0938,12.7344)"
font-family="MS Shell Dlg 2" font-size="9.8" font-weight="400" font-style="normal" 
>
<path vector-effect="none" fill-rule="nonzero" d="M-3.46875,12.2852 L-1.25391,12.2852 C-0.230469,12.3164 0.308594,12.7969 0.363281,13.7266 C0.300781,14.5234 -0.136719,14.9531 -0.949219,15.0156 L0.703125,17.2305 L-0.234375,17.2305 L-1.83984,15.1797 L-2.70703,15.1797 L-2.70703,17.0547 C-2.70703,17.1719 -2.76563,17.2305 -2.88281,17.2305 L-3.46875,17.2305 C-3.58594,17.2305 -3.64453,17.1719 -3.64453,17.0547 L-3.64453,12.4492 C-3.62891,12.3398 -3.57031,12.2852 -3.46875,12.2852 M1.64063,12.2852 L2.49609,15.6133 L2.57813,15.6133 L3.51563,12.2852 L4.45313,12.2852 L5.39063,15.6133 L5.48438,15.6133 L6.32813,12.2852 L7.23047,12.2852 L5.82422,17.2305 L4.96875,17.2305 L4.03125,13.6445 L3.94922,13.6445 L2.91797,17.2305 L2.15625,17.2305 L0.75,12.2852 L1.64063,12.2852 M-2.70703,13.1406 L-2.70703,14.3242 L-1.42969,14.3242 C-0.835938,14.3008 -0.539063,14.1133 -0.539063,13.7617 L-0.539063,13.7148 C-0.539063,13.3633 -0.777344,13.1719 -1.25391,13.1406 L-2.70703,13.1406 M-2.73047,6.25 L-2.73047,6.40234 L-2.94141,6.40234 L-2.94141,6.25 L-2.73047,6.25 M0.503906,29.2422 L0.503906,29.3711 L0.351563,29.3711 L0.351563,29.2422 L0.503906,29.2422"/>
</g>

<g fill="none" stroke="#000000" stroke-opacity="1" stroke-width="1" stroke-linecap="square" stroke-linejoin="bevel" transform="matrix(1,0,0,1,0,0)"
font-family="MS Shell Dlg 2" font-size="9.8" font-weight="400" font-style="normal" 
>
</g>
</g>
</svg>
