<?xml version="1.0" encoding="UTF-8" standalone="no"?>
<svg width="11.2889mm" height="11.2889mm"
 viewBox="0 0 32 32"
 xmlns="http://www.w3.org/2000/svg" xmlns:xlink="http://www.w3.org/1999/xlink"  version="1.2" baseProfile="tiny">
<title>Qt SVG Document</title>
<desc>Generated with Qt</desc>
<defs>
</defs>
<g fill="none" stroke="black" stroke-width="1" fill-rule="evenodd" stroke-linecap="square" stroke-linejoin="bevel" >

<g fill="#ffff00" fill-opacity="1" stroke="none" transform="matrix(1,0,0,1,15.8359,13.0469)"
font-family="MS Shell Dlg 2" font-size="9.8" font-weight="400" font-style="normal" 
>
<path vector-effect="none" fill-rule="nonzero" d="M9.4043,4.63477 C10.1276,4.63477 10.611,5.0179 10.8545,5.78418 C10.876,5.99186 10.8867,6.16374 10.8867,6.2998 L10.8867,25.3027 C10.8867,26.0905 10.5072,26.6097 9.74805,26.8604 C9.61914,26.8818 9.49381,26.8926 9.37207,26.8926 L-9.91016,26.8926 C-10.6621,26.8926 -11.1563,26.4486 -11.3926,25.5605 L-11.3926,6.11719 C-11.3926,5.36523 -10.9486,4.87109 -10.0605,4.63477 L9.4043,4.63477"/>
</g>

<g fill="none" stroke="#000000" stroke-opacity="1" stroke-width="1" stroke-linecap="square" stroke-linejoin="bevel" transform="matrix(1,0,0,1,0,0)"
font-family="MS Shell Dlg 2" font-size="9.8" font-weight="400" font-style="normal" 
>
</g>

<g fill="#ff0000" fill-opacity="1" stroke="none" transform="matrix(1,0,0,1,15.8594,12.7344)"
font-family="MS Shell Dlg 2" font-size="9.8" font-weight="400" font-style="normal" 
>
<path vector-effect="none" fill-rule="nonzero" d="M1.94531,10.375 L1.11328,14.7109 L3.86719,14.1367 L0.28125,20.0547 L1.78125,15.6367 L-0.550781,16.1406 L1.94531,10.375 M-11.332,6.12109 L10.7109,6.12109 C11.1563,6.17578 11.3789,6.39844 11.3789,6.78906 L11.3789,28.832 C11.3789,29.2773 11.1563,29.5 10.7109,29.5 L-11.332,29.5 C-11.7773,29.5 -12,29.2773 -12,28.832 L-12,6.78906 C-11.9375,6.34375 -11.7148,6.12109 -11.332,6.12109 M-10.6641,7.45703 L-10.6641,28.1641 L10.043,28.1641 L10.043,7.45703 L-10.6641,7.45703 M-4.65234,8.45313 L8.03906,8.45313 C8.48438,8.50781 8.70703,8.73047 8.70703,9.12109 L8.70703,21.4844 C8.70703,21.9297 8.48438,22.1523 8.03906,22.1523 L-4.65234,22.1523 C-5.09766,22.1523 -5.32031,21.9297 -5.32031,21.4844 L-5.32031,16.4688 L-6.07031,16.4688 L-6.07031,17.8867 C-6.07031,18.332 -6.26562,18.6406 -6.65625,18.8125 L-6.65625,21.8125 C-5.92969,22.2813 -5.56641,23.0664 -5.56641,24.168 L-5.56641,24.4023 C-5.56641,25.9102 -6.09766,26.7461 -7.16016,26.9102 C-8.26953,26.8555 -8.85156,25.9922 -8.90625,24.3203 C-8.90625,22.9844 -8.48828,22.1484 -7.65234,21.8125 L-7.65234,18.8125 C-8.09766,18.7031 -8.32031,18.3672 -8.32031,17.8047 L-8.32031,13.4688 C-8.26563,13.0234 -8.04297,12.8008 -7.65234,12.8008 L-6.73828,12.8008 C-6.29297,12.8008 -6.07031,13.0234 -6.07031,13.4688 L-6.07031,16.1406 L-5.32031,16.1406 L-5.32031,9.12109 C-5.25781,8.67578 -5.03516,8.45313 -4.65234,8.45313 M-4.48828,9.29688 L-4.48828,21.3906 L7.95703,21.3906 L7.95703,9.29688 L-4.48828,9.29688 M-7.16016,22.6563 C-7.71484,22.6563 -7.99219,23.2109 -7.99219,24.3203 C-7.99219,25.4375 -7.71484,25.9961 -7.16016,25.9961 C-6.65234,25.9961 -6.39844,25.4102 -6.39844,24.2383 C-6.46094,23.1836 -6.71484,22.6563 -7.16016,22.6563 "/>
</g>

<g fill="none" stroke="#000000" stroke-opacity="1" stroke-width="1" stroke-linecap="square" stroke-linejoin="bevel" transform="matrix(1,0,0,1,0,0)"
font-family="MS Shell Dlg 2" font-size="9.8" font-weight="400" font-style="normal" 
>
</g>
</g>
</svg>
