<?xml version="1.0" encoding="UTF-8" standalone="no"?>
<svg width="11.2889mm" height="11.2889mm"
 viewBox="0 0 32 32"
 xmlns="http://www.w3.org/2000/svg" xmlns:xlink="http://www.w3.org/1999/xlink"  version="1.2" baseProfile="tiny">
<title>Qt SVG Document</title>
<desc>Generated with Qt</desc>
<defs>
</defs>
<g fill="none" stroke="black" stroke-width="1" fill-rule="evenodd" stroke-linecap="square" stroke-linejoin="bevel" >

<g fill="#ffffff" fill-opacity="1" stroke="none" transform="matrix(1,0,0,1,15.3125,12.7344)"
font-family="MS Shell Dlg 2" font-size="9.8" font-weight="400" font-style="normal" 
>
<path vector-effect="none" fill-rule="nonzero" d="M10.5586,6.94141 L10.5586,28.6797 L-11.1797,28.6797 L-11.1797,6.94141 L10.5586,6.94141"/>
</g>

<g fill="none" stroke="#000000" stroke-opacity="1" stroke-width="1" stroke-linecap="square" stroke-linejoin="bevel" transform="matrix(1,0,0,1,0,0)"
font-family="MS Shell Dlg 2" font-size="9.8" font-weight="400" font-style="normal" 
>
</g>

<g fill="#ff0000" fill-opacity="1" stroke="none" transform="matrix(1,0,0,1,13.75,12.7344)"
font-family="MS Shell Dlg 2" font-size="9.8" font-weight="400" font-style="normal" 
>
<path vector-effect="none" fill-rule="nonzero" d="M8.21484,9.10938 L8.21484,21.5781 L-4.73438,21.5781 L-4.73438,9.10938 L8.21484,9.10938 M-11.25,6.21484 L-11.25,6.30859 L-11.3555,6.30859 L-11.3555,6.21484 L-11.25,6.21484 M-11.3906,29.2305 L-11.3906,29.3242 L-11.5898,29.3242 L-11.5898,29.2305 L-11.3906,29.2305"/>
</g>

<g fill="none" stroke="#000000" stroke-opacity="1" stroke-width="1" stroke-linecap="square" stroke-linejoin="bevel" transform="matrix(1,0,0,1,0,0)"
font-family="MS Shell Dlg 2" font-size="9.8" font-weight="400" font-style="normal" 
>
</g>

<g fill="#000000" fill-opacity="1" stroke="none" transform="matrix(1,0,0,1,15.8594,12.7344)"
font-family="MS Shell Dlg 2" font-size="9.8" font-weight="400" font-style="normal" 
>
<path vector-effect="none" fill-rule="nonzero" d="M-11.332,6.12109 L10.7109,6.12109 C11.1563,6.17578 11.3789,6.39844 11.3789,6.78906 L11.3789,28.832 C11.3789,29.2773 11.1563,29.5 10.7109,29.5 L-11.332,29.5 C-11.7773,29.5 -12,29.2773 -12,28.832 L-12,6.78906 C-11.9375,6.34375 -11.7148,6.12109 -11.332,6.12109 M-10.6641,7.45703 L-10.6641,28.1641 L10.043,28.1641 L10.043,7.45703 L-10.6641,7.45703 M-4.65234,8.45313 L8.03906,8.45313 C8.48438,8.50781 8.70703,8.73047 8.70703,9.12109 L8.70703,21.4844 C8.70703,21.9297 8.48438,22.1523 8.03906,22.1523 L-4.65234,22.1523 C-5.09766,22.1523 -5.32031,21.9297 -5.32031,21.4844 L-5.32031,16.4688 L-6.07031,16.4688 L-6.07031,17.8867 C-6.07031,18.332 -6.26562,18.6406 -6.65625,18.8125 L-6.65625,21.8125 C-5.92969,22.2813 -5.56641,23.0664 -5.56641,24.168 L-5.56641,24.4023 C-5.56641,25.9102 -6.09766,26.7461 -7.16016,26.9102 C-8.26953,26.8555 -8.85156,25.9922 -8.90625,24.3203 C-8.90625,22.9844 -8.48828,22.1484 -7.65234,21.8125 L-7.65234,18.8125 C-8.09766,18.7031 -8.32031,18.3672 -8.32031,17.8047 L-8.32031,13.4688 C-8.26563,13.0234 -8.04297,12.8008 -7.65234,12.8008 L-6.73828,12.8008 C-6.29297,12.8008 -6.07031,13.0234 -6.07031,13.4688 L-6.07031,16.1406 L-5.32031,16.1406 L-5.32031,9.12109 C-5.25781,8.67578 -5.03516,8.45313 -4.65234,8.45313 M-4.48828,9.29688 L-4.48828,21.3906 L7.95703,21.3906 L7.95703,9.29688 L-4.48828,9.29688 M-7.16016,22.6563 C-7.71484,22.6563 -7.99219,23.2109 -7.99219,24.3203 C-7.99219,25.4375 -7.71484,25.9961 -7.16016,25.9961 C-6.65234,25.9961 -6.39844,25.4102 -6.39844,24.2383 C-6.46094,23.1836 -6.71484,22.6563 -7.16016,22.6563 "/>
</g>

<g fill="none" stroke="#000000" stroke-opacity="1" stroke-width="1" stroke-linecap="square" stroke-linejoin="bevel" transform="matrix(1,0,0,1,0,0)"
font-family="MS Shell Dlg 2" font-size="9.8" font-weight="400" font-style="normal" 
>
</g>

<g fill="#ffffff" fill-opacity="1" stroke="none" transform="matrix(1,0,0,1,12.5625,12.7344)"
font-family="MS Shell Dlg 2" font-size="9.8" font-weight="400" font-style="normal" 
>
<path vector-effect="none" fill-rule="nonzero" d="M-2.39063,11.8164 L-1.61719,11.8164 L0.679688,15.4609 L0.773438,15.4609 L0.773438,12.0156 C0.796875,11.8828 0.863281,11.8164 0.972656,11.8164 L1.64063,11.8164 C1.76562,11.8398 1.82812,11.9063 1.82813,12.0156 L1.82813,17.1836 C1.82812,17.3164 1.76562,17.3828 1.64063,17.3828 L0.773438,17.3828 L-1.42969,13.832 L-1.52344,13.832 L-1.52344,17.1836 C-1.52344,17.3164 -1.58594,17.3828 -1.71094,17.3828 L-2.39063,17.3828 C-2.51563,17.3828 -2.57813,17.3164 -2.57813,17.1836 L-2.57813,12.0156 C-2.55469,11.8828 -2.49219,11.8164 -2.39063,11.8164 M4.47656,13.2578 C5.78125,13.2578 6.43359,13.9922 6.43359,15.4609 C6.43359,15.5938 6.37109,15.6602 6.24609,15.6602 L3.75,15.6602 L3.75,15.7539 C3.83594,16.3945 4.12109,16.7148 4.60547,16.7148 C4.94922,16.6523 5.20703,16.457 5.37891,16.1289 L6.24609,16.2344 C6.00391,17.0156 5.49219,17.4297 4.71094,17.4766 C3.36719,17.4766 2.69531,16.7734 2.69531,15.3672 C2.78125,13.9609 3.36328,13.2578 4.44141,13.2578 L4.47656,13.2578 M3.75,14.9805 L5.37891,14.9805 C5.29297,14.3477 5.00391,14.0313 4.51172,14.0313 C4.08203,14.0313 3.82812,14.3477 3.75,14.9805 M-1.61719,6.21484 L-1.61719,6.39063 L-1.80469,6.39063 L-1.80469,6.21484 L-1.61719,6.21484 M0.46875,29.2305 L0.46875,29.0664 L0.738281,29.0664 L0.738281,29.2305 L0.46875,29.2305"/>
</g>

<g fill="none" stroke="#000000" stroke-opacity="1" stroke-width="1" stroke-linecap="square" stroke-linejoin="bevel" transform="matrix(1,0,0,1,0,0)"
font-family="MS Shell Dlg 2" font-size="9.8" font-weight="400" font-style="normal" 
>
</g>
</g>
</svg>
