<?xml version="1.0" encoding="UTF-8" standalone="no"?>
<svg width="11.2889mm" height="11.2889mm"
 viewBox="0 0 32 32"
 xmlns="http://www.w3.org/2000/svg" xmlns:xlink="http://www.w3.org/1999/xlink"  version="1.2" baseProfile="tiny">
<title>Qt SVG Document</title>
<desc>Generated with Qt</desc>
<defs>
</defs>
<g fill="none" stroke="black" stroke-width="1" fill-rule="evenodd" stroke-linecap="square" stroke-linejoin="bevel" >

<g fill="#ffffff" fill-opacity="1" stroke="none" transform="matrix(1,0,0,1,15.8672,12.7344)"
font-family="MS Shell Dlg 2" font-size="9.8" font-weight="400" font-style="normal" 
>
<path vector-effect="none" fill-rule="nonzero" d="M-0.121094,6.95313 C3.32422,6.95313 6.26563,8.42578 8.70313,11.3711 C10.2734,13.457 11.0586,15.7422 11.0586,18.2266 C11.0586,22.1953 9.16016,25.4219 5.36328,27.9063 C3.51953,28.8906 1.625,29.3828 -0.320313,29.3828 C-4.35938,29.3828 -7.65234,27.3594 -10.1992,23.3125 C-10.9883,21.5938 -11.3828,19.8633 -11.3828,18.1211 C-11.3828,13.8555 -9.35547,10.5625 -5.30078,8.24219 C-3.58203,7.38281 -1.85547,6.95313 -0.121094,6.95313 "/>
</g>

<g fill="none" stroke="#000000" stroke-opacity="1" stroke-width="1" stroke-linecap="square" stroke-linejoin="bevel" transform="matrix(1,0,0,1,0,0)"
font-family="MS Shell Dlg 2" font-size="9.8" font-weight="400" font-style="normal" 
>
</g>

<g fill="#000000" fill-opacity="1" stroke="none" transform="matrix(1,0,0,1,15.2969,13.1406)"
font-family="MS Shell Dlg 2" font-size="9.8" font-weight="400" font-style="normal" 
>
<path vector-effect="none" fill-rule="nonzero" d="M-5.60156,4.40039 L-3.81445,4.24414 C-3.72982,4.96029 -3.53288,5.54785 -3.22363,6.00684 C-2.91439,6.46582 -2.43424,6.83691 -1.7832,7.12012 C-1.13216,7.40332 -0.39974,7.54492 0.414063,7.54492 C1.13672,7.54492 1.77474,7.4375 2.32813,7.22266 C2.88151,7.00781 3.29329,6.71322 3.56348,6.33887 C3.83366,5.96452 3.96875,5.55599 3.96875,5.11328 C3.96875,4.66406 3.83854,4.27181 3.57813,3.93652 C3.31771,3.60124 2.88802,3.31966 2.28906,3.0918 C1.90495,2.94206 1.05534,2.70931 -0.259766,2.39355 C-1.57487,2.0778 -2.49609,1.77995 -3.02344,1.5 C-3.70703,1.14193 -4.21647,0.697591 -4.55176,0.166992 C-4.88704,-0.363607 -5.05469,-0.957682 -5.05469,-1.61523 C-5.05469,-2.33789 -4.84961,-3.01335 -4.43945,-3.6416 C-4.0293,-4.26986 -3.43034,-4.74674 -2.64258,-5.07227 C-1.85482,-5.39779 -0.979167,-5.56055 -0.015625,-5.56055 C1.04557,-5.56055 1.98145,-5.38965 2.79199,-5.04785 C3.60254,-4.70605 4.22591,-4.20313 4.66211,-3.53906 C5.09831,-2.875 5.33268,-2.12305 5.36523,-1.2832 L3.54883,-1.14648 C3.45117,-2.05143 3.12077,-2.73503 2.55762,-3.19727 C1.99447,-3.6595 1.16276,-3.89062 0.0625,-3.89063 C-1.08333,-3.89062 -1.91829,-3.68066 -2.44238,-3.26074 C-2.96647,-2.84082 -3.22852,-2.33464 -3.22852,-1.74219 C-3.22852,-1.22786 -3.04297,-0.804688 -2.67188,-0.472656 C-2.30729,-0.140625 -1.35514,0.199544 0.18457,0.547852 C1.72428,0.896159 2.7806,1.20052 3.35352,1.46094 C4.18685,1.84505 4.80208,2.33171 5.19922,2.9209 C5.59635,3.51009 5.79492,4.1888 5.79492,4.95703 C5.79492,5.71875 5.57682,6.43652 5.14063,7.11035 C4.70443,7.78418 4.0778,8.30827 3.26074,8.68262 C2.44368,9.05697 1.52409,9.24414 0.501953,9.24414 C-0.79362,9.24414 -1.87923,9.05534 -2.75488,8.67773 C-3.63053,8.30013 -4.31738,7.7321 -4.81543,6.97363 C-5.31348,6.21517 -5.57552,5.35742 -5.60156,4.40039 "/>
</g>

<g fill="none" stroke="#000000" stroke-opacity="1" stroke-width="1" stroke-linecap="square" stroke-linejoin="bevel" transform="matrix(1,0,0,1,0,0)"
font-family="MS Shell Dlg 2" font-size="9.8" font-weight="400" font-style="normal" 
>
</g>

<g fill="#ffffff" fill-opacity="0" stroke="#000000" stroke-opacity="1" stroke-width="0.666667" stroke-linecap="square" stroke-linejoin="miter" stroke-miterlimit="2" transform="matrix(1,0,0,1,0,0)"
font-family="MS Shell Dlg 2" font-size="9.8" font-weight="400" font-style="normal" 
>
<path vector-effect="none" fill-rule="evenodd" d="M26.7818,16 C26.7818,21.9546 21.9546,26.7818 16,26.7818 C10.0454,26.7818 5.21824,21.9546 5.21824,16 C5.21824,10.0454 10.0454,5.21824 16,5.21824 C21.9546,5.21824 26.7818,10.0454 26.7818,16 "/>
</g>
</g>
</svg>
