<?xml version="1.0" encoding="UTF-8" standalone="no"?>
<svg width="11.2889mm" height="11.2889mm"
 viewBox="0 0 32 32"
 xmlns="http://www.w3.org/2000/svg" xmlns:xlink="http://www.w3.org/1999/xlink"  version="1.2" baseProfile="tiny">
<title>Qt SVG Document</title>
<desc>Generated with Qt</desc>
<defs>
</defs>
<g fill="none" stroke="black" stroke-width="1" fill-rule="evenodd" stroke-linecap="square" stroke-linejoin="bevel" >

<g fill="#ff0000" fill-opacity="1" stroke="none" transform="matrix(1,0,0,1,0,0)"
font-family="MS Shell Dlg 2" font-size="9.8" font-weight="400" font-style="normal" 
>
<path vector-effect="non-scaling-stroke" fill-rule="evenodd" d="M7.16368,7.16368 L24.8363,7.16368 L24.8363,24.8363 L7.16368,24.8363 L7.16368,7.16368"/>
</g>

<g fill="#ffffff" fill-opacity="0" stroke="#000000" stroke-opacity="1" stroke-width="0.416667" stroke-linecap="square" stroke-linejoin="miter" stroke-miterlimit="2" transform="matrix(1,0,0,1,0,0)"
font-family="MS Shell Dlg 2" font-size="9.8" font-weight="400" font-style="normal" 
>
<path vector-effect="none" fill-rule="evenodd" d="M9.2614,9.2614 L22.7386,9.2614 L22.7386,22.7386 L9.2614,22.7386 L9.2614,9.2614"/>
</g>

<g fill="#000000" fill-opacity="1" stroke="none" transform="matrix(1,0,0,1,12.7188,14.8359)"
font-family="MS Shell Dlg 2" font-size="9.8" font-weight="400" font-style="normal" 
>
<path vector-effect="none" fill-rule="nonzero" d="M-2.14063,1.66016 L-1.42578,1.59766 C-1.39193,1.88411 -1.31315,2.11914 -1.18945,2.30273 C-1.06576,2.48633 -0.873698,2.63477 -0.613281,2.74805 C-0.352865,2.86133 -0.0598958,2.91797 0.265625,2.91797 C0.554688,2.91797 0.809896,2.875 1.03125,2.78906 C1.2526,2.70313 1.41732,2.58529 1.52539,2.43555 C1.63346,2.28581 1.6875,2.1224 1.6875,1.94531 C1.6875,1.76562 1.63542,1.60872 1.53125,1.47461 C1.42708,1.34049 1.25521,1.22786 1.01563,1.13672 C0.861979,1.07682 0.522135,0.983724 -0.00390625,0.857422 C-0.529948,0.73112 -0.898438,0.611979 -1.10938,0.5 C-1.38281,0.356771 -1.58659,0.179036 -1.7207,-0.0332031 C-1.85482,-0.245443 -1.92187,-0.483073 -1.92188,-0.746094 C-1.92187,-1.03516 -1.83984,-1.30534 -1.67578,-1.55664 C-1.51172,-1.80794 -1.27214,-1.9987 -0.957031,-2.12891 C-0.641927,-2.25911 -0.291667,-2.32422 0.09375,-2.32422 C0.518229,-2.32422 0.892578,-2.25586 1.2168,-2.11914 C1.54102,-1.98242 1.79036,-1.78125 1.96484,-1.51563 C2.13932,-1.25 2.23307,-0.949219 2.24609,-0.613281 L1.51953,-0.558594 C1.48047,-0.920573 1.34831,-1.19401 1.12305,-1.37891 C0.897786,-1.5638 0.565104,-1.65625 0.125,-1.65625 C-0.333333,-1.65625 -0.667318,-1.57227 -0.876953,-1.4043 C-1.08659,-1.23633 -1.19141,-1.03385 -1.19141,-0.796875 C-1.19141,-0.591146 -1.11719,-0.421875 -0.96875,-0.289063 C-0.822917,-0.15625 -0.442057,-0.0201823 0.173828,0.119141 C0.789714,0.258464 1.21224,0.380208 1.44141,0.484375 C1.77474,0.638021 2.02083,0.832682 2.17969,1.06836 C2.33854,1.30404 2.41797,1.57552 2.41797,1.88281 C2.41797,2.1875 2.33073,2.47461 2.15625,2.74414 C1.98177,3.01367 1.73112,3.22331 1.4043,3.37305 C1.07747,3.52279 0.709635,3.59766 0.300781,3.59766 C-0.217448,3.59766 -0.651693,3.52214 -1.00195,3.37109 C-1.35221,3.22005 -1.62695,2.99284 -1.82617,2.68945 C-2.02539,2.38607 -2.13021,2.04297 -2.14063,1.66016 "/>
</g>

<g fill="#ffffff" fill-opacity="0" stroke="#000000" stroke-opacity="1" stroke-width="0.416667" stroke-linecap="square" stroke-linejoin="miter" stroke-miterlimit="2" transform="matrix(1,0,0,1,0,0)"
font-family="MS Shell Dlg 2" font-size="9.8" font-weight="400" font-style="normal" 
>
</g>

<g fill="#000000" fill-opacity="1" stroke="none" transform="matrix(1,0,0,1,19.8047,14.8359)"
font-family="MS Shell Dlg 2" font-size="9.8" font-weight="400" font-style="normal" 
>
<path vector-effect="none" fill-rule="nonzero" d="M-1.41406,3.5 L-1.41406,-2.22656 L-0.65625,-2.22656 L-0.65625,2.82422 L2.16406,2.82422 L2.16406,3.5 L-1.41406,3.5"/>
</g>

<g fill="#ffffff" fill-opacity="0" stroke="#000000" stroke-opacity="1" stroke-width="0.416667" stroke-linecap="square" stroke-linejoin="miter" stroke-miterlimit="2" transform="matrix(1,0,0,1,0,0)"
font-family="MS Shell Dlg 2" font-size="9.8" font-weight="400" font-style="normal" 
>
</g>
</g>
</svg>
