<?xml version="1.0" encoding="UTF-8" standalone="no"?>
<svg width="11.2889mm" height="11.2889mm"
 viewBox="0 0 32 32"
 xmlns="http://www.w3.org/2000/svg" xmlns:xlink="http://www.w3.org/1999/xlink"  version="1.2" baseProfile="tiny">
<title>Qt SVG Document</title>
<desc>Generated with Qt</desc>
<defs>
</defs>
<g fill="none" stroke="black" stroke-width="1" fill-rule="evenodd" stroke-linecap="square" stroke-linejoin="bevel" >

<g fill="#ffffff" fill-opacity="1" stroke="none" transform="matrix(1,0,0,1,15.3906,12.7344)"
font-family="MS Shell Dlg 2" font-size="9.8" font-weight="400" font-style="normal" 
>
<path vector-effect="none" fill-rule="nonzero" d="M-0.0429688,5.60547 C3.61328,5.77734 6.4668,6.94922 8.51758,9.12109 C10.5684,11.293 11.5938,13.9609 11.5938,17.125 C11.5938,20.3125 10.4551,23.0273 8.17773,25.2695 C5.90039,27.5117 3.16016,28.6328 -0.0429688,28.6328 C-3.26172,28.6328 -5.99609,27.5117 -8.24609,25.2695 C-10.4961,23.0273 -11.6211,20.3125 -11.6211,17.125 C-11.6211,13.9609 -10.4961,11.25 -8.24609,8.99219 C-5.99609,6.73438 -3.26172,5.60547 -0.0429688,5.60547 "/>
</g>

<g fill="none" stroke="#000000" stroke-opacity="1" stroke-width="1" stroke-linecap="square" stroke-linejoin="bevel" transform="matrix(1,0,0,1,0,0)"
font-family="MS Shell Dlg 2" font-size="9.8" font-weight="400" font-style="normal" 
>
</g>

<g fill="#ff0000" fill-opacity="1" stroke="none" transform="matrix(1,0,0,1,15.9453,12.7344)"
font-family="MS Shell Dlg 2" font-size="9.8" font-weight="400" font-style="normal" 
>
<path vector-effect="none" fill-rule="nonzero" d="M-10.0742,17.1367 C-9.94141,19.9727 -8.93164,22.3164 -7.04492,24.168 C-5.1582,26.0195 -2.83203,27.0273 -0.0664063,27.1914 C3.07422,27.0273 5.52344,26.0332 7.28125,24.209 C9.03906,22.3848 9.94922,19.9844 10.0117,17.0078 C9.91016,14.2031 9.02734,11.8945 7.36328,10.082 C5.69922,8.26953 3.39844,7.28516 0.460938,7.12891 C0.242188,7.12109 0.0273437,7.11719 -0.183594,7.11719 C-2.84766,7.11719 -5.125,8.00781 -7.01563,9.78906 C-9.05469,11.7188 -10.0742,14.168 -10.0742,17.1367 M-0.0664063,4.77344 C3.86328,4.96094 6.92773,6.21875 9.12695,8.54688 C11.3262,10.875 12.4258,13.7383 12.4258,17.1367 C12.4258,20.5664 11.2031,23.4844 8.75781,25.8906 C6.3125,28.2969 3.37109,29.5 -0.0664063,29.5 C-3.51953,29.5 -6.45508,28.2969 -8.87305,25.8906 C-11.291,23.4844 -12.5,20.5664 -12.5,17.1367 C-12.5,13.7383 -11.291,10.8281 -8.87305,8.40625 C-6.45508,5.98438 -3.51953,4.77344 -0.0664063,4.77344 M-0.183594,13.1875 C0.910156,13.1875 1.84961,13.5566 2.63477,14.2949 C3.41992,15.0332 3.8125,15.957 3.8125,17.0664 C3.8125,18.1367 3.41992,19.0527 2.63477,19.8145 C1.84961,20.5762 0.910156,20.957 -0.183594,20.957 C-1.29297,20.957 -2.24219,20.5762 -3.03125,19.8145 C-3.82031,19.0527 -4.21484,18.1367 -4.21484,17.0664 C-4.21484,15.957 -3.82031,15.0332 -3.03125,14.2949 C-2.24219,13.5566 -1.29297,13.1875 -0.183594,13.1875 "/>
</g>

<g fill="none" stroke="#000000" stroke-opacity="1" stroke-width="1" stroke-linecap="square" stroke-linejoin="bevel" transform="matrix(1,0,0,1,0,0)"
font-family="MS Shell Dlg 2" font-size="9.8" font-weight="400" font-style="normal" 
>
</g>
</g>
</svg>
