<?xml version="1.0" encoding="UTF-8" standalone="no"?>
<svg width="11.2889mm" height="11.2889mm"
 viewBox="0 0 32 32"
 xmlns="http://www.w3.org/2000/svg" xmlns:xlink="http://www.w3.org/1999/xlink"  version="1.2" baseProfile="tiny">
<title>Qt SVG Document</title>
<desc>Generated with Qt</desc>
<defs>
</defs>
<g fill="none" stroke="black" stroke-width="1" fill-rule="evenodd" stroke-linecap="square" stroke-linejoin="bevel" >

<g fill="#ffffff" fill-opacity="1" stroke="none" transform="matrix(1,0,0,1,15.375,12.7344)"
font-family="MS Shell Dlg 2" font-size="9.8" font-weight="400" font-style="normal" 
>
<path vector-effect="none" fill-rule="nonzero" d="M11.0625,6.4375 L11.0625,28.75 L-11.25,28.75 L-11.25,6.4375 L11.0625,6.4375"/>
</g>

<g fill="none" stroke="#000000" stroke-opacity="1" stroke-width="1" stroke-linecap="square" stroke-linejoin="bevel" transform="matrix(1,0,0,1,0,0)"
font-family="MS Shell Dlg 2" font-size="9.8" font-weight="400" font-style="normal" 
>
</g>

<g fill="#ff0000" fill-opacity="1" stroke="none" transform="matrix(1,0,0,1,15.875,12.7344)"
font-family="MS Shell Dlg 2" font-size="9.8" font-weight="400" font-style="normal" 
>
<path vector-effect="none" fill-rule="nonzero" d="M11.8125,5.6875 L11.8125,29.5 L-12,29.5 L-12,5.6875 L11.8125,5.6875 M-10.7227,6.96484 L-10.7227,28.2227 L10.5352,28.2227 L10.5352,6.96484 L-10.7227,6.96484 M-1.21875,10.3516 L-1.39453,10.3516 C-2.65234,10.3516 -3.28906,10.8242 -3.30469,11.7695 C-3.3125,11.7852 -3.31641,11.8008 -3.31641,11.8164 C-3.31641,12.7773 -2.66797,13.2773 -1.37109,13.3164 L-1.21875,13.3164 C-0.00781253,13.3164 0.636719,12.8438 0.714844,11.8984 C0.722656,11.8438 0.726563,11.793 0.726563,11.7461 C0.726563,10.8633 0.078125,10.3984 -1.21875,10.3516 M-5.14453,11.5703 C-5.08203,9.80469 -3.85156,8.92188 -1.45313,8.92188 L-1.33594,8.92188 C1.13281,8.95313 2.36719,9.80859 2.36719,11.4883 L2.36719,11.5117 C2.35156,13.2148 1.44141,14.1875 -0.363281,14.4297 L-0.363281,19.9609 L3.72656,19.9492 L3.72656,21.9297 L2.23828,21.9297 L2.23828,24.3789 L3.72656,24.3789 L3.72656,26.3125 L-2.57813,26.3125 L-2.57813,14.3828 C-4.28906,14.3047 -5.14453,13.4297 -5.14453,11.7578 L-5.14453,11.5703"/>
</g>

<g fill="none" stroke="#000000" stroke-opacity="1" stroke-width="1" stroke-linecap="square" stroke-linejoin="bevel" transform="matrix(1,0,0,1,0,0)"
font-family="MS Shell Dlg 2" font-size="9.8" font-weight="400" font-style="normal" 
>
</g>

<g fill="#000000" fill-opacity="1" stroke="none" transform="matrix(1,0,0,1,10.5703,12.7344)"
font-family="MS Shell Dlg 2" font-size="9.8" font-weight="400" font-style="normal" 
>
<path vector-effect="none" fill-rule="nonzero" d="M-4.48828,11.3828 L-4.48828,11.582 C-4.48828,12.8711 -3.74219,13.668 -2.25,13.9727 L-2.25,26.0781 L-0.621094,26.0781 L-0.621094,13.8789 C1.07422,13.6211 1.95703,12.8594 2.02734,11.5938 C1.89453,10.0547 0.777344,9.28516 -1.32422,9.28516 C-3.22266,9.28516 -4.27734,9.98438 -4.48828,11.3828 M-1.32422,9.88281 C0.363281,9.88281 1.24219,10.4844 1.3125,11.6875 C1.24219,12.8203 0.324219,13.4219 -1.44141,13.4922 C-2.93359,13.4219 -3.71094,12.7891 -3.77344,11.5938 C-3.64844,10.4531 -2.83203,9.88281 -1.32422,9.88281 M-3.16406,11.6875 C-3.09375,12.4297 -2.48047,12.8008 -1.32422,12.8008 L-1.10156,12.8008 C-0.0390625,12.8008 0.492187,12.4297 0.492188,11.6875 C0.492187,10.9453 -0.113281,10.5742 -1.32422,10.5742 C-2.48047,10.5742 -3.09375,10.9453 -3.16406,11.6875 M0.492188,20.1953 L0.492188,26.0781 L3.15234,26.0781 L3.15234,24.4844 L2.02734,24.4844 L2.02734,21.5781 L3.24609,21.5781 L3.24609,20.1953 L0.492188,20.1953 M-1.32422,8.48828 C1.31641,8.55859 2.70703,9.52344 2.84766,11.3828 L2.84766,11.5234 C2.84766,13.0469 1.89453,14.0977 -0.0117188,14.6758 L-0.0117188,19.6797 L3.85547,19.6797 L3.85547,22.1875 L2.63672,22.1875 L2.63672,23.8867 L3.85547,23.8867 L3.85547,26.7813 L-2.05078,26.7813 C-2.66797,26.7813 -2.97656,26.5117 -2.97656,25.9727 L-2.97656,14.6758 C-4.60156,14.1289 -5.41406,13.1211 -5.41406,11.6523 C-5.41406,11.5352 -5.41016,11.4141 -5.40234,11.2891 C-5.19922,9.54688 -3.83984,8.61328 -1.32422,8.48828 "/>
</g>

<g fill="none" stroke="#000000" stroke-opacity="1" stroke-width="1" stroke-linecap="square" stroke-linejoin="bevel" transform="matrix(1,0,0,1,0,0)"
font-family="MS Shell Dlg 2" font-size="9.8" font-weight="400" font-style="normal" 
>
</g>
</g>
</svg>
