<?xml version="1.0" encoding="UTF-8" standalone="no"?>
<svg width="11.2889mm" height="11.2889mm"
 viewBox="0 0 32 32"
 xmlns="http://www.w3.org/2000/svg" xmlns:xlink="http://www.w3.org/1999/xlink"  version="1.2" baseProfile="tiny">
<title>Qt SVG Document</title>
<desc>Generated with Qt</desc>
<defs>
</defs>
<g fill="none" stroke="black" stroke-width="1" fill-rule="evenodd" stroke-linecap="square" stroke-linejoin="bevel" >

<g fill="#0070ff" fill-opacity="1" stroke="none" transform="matrix(1,0,0,1,15.9297,11.7344)"
font-family="MS Shell Dlg 2" font-size="9.8" font-weight="400" font-style="normal" 
>
<path vector-effect="none" fill-rule="nonzero" d="M-11.332,5.78125 L11.0508,5.78125 C11.4961,5.83594 11.7188,6.05859 11.7188,6.44922 L11.7188,28.832 C11.7188,29.2773 11.4961,29.5 11.0508,29.5 L-11.332,29.5 C-11.7773,29.5 -12,29.2773 -12,28.832 L-12,6.44922 C-11.9375,6.00391 -11.7148,5.78125 -11.332,5.78125 M-10.6641,7.11719 L-10.6641,28.1641 L10.3828,28.1641 L10.3828,7.11719 L-10.6641,7.11719 M-0.128906,8.125 C4.65234,8.125 7.18359,10.6836 7.46484,15.8008 L-7.99219,15.8008 C-7.60937,10.6836 -5.14453,8.125 -0.597656,8.125 L-0.128906,8.125 M-2.64844,17.1367 L2.02734,17.1367 C2.47266,17.1367 2.69531,17.8047 2.69531,19.1406 L6.70313,19.1406 C7.14844,19.1953 7.37109,19.418 7.37109,19.8086 L7.37109,20.8164 C7.37109,21.2617 7.14844,21.4844 6.70313,21.4844 L-6.98438,21.4844 C-7.42969,21.4844 -7.65234,21.2617 -7.65234,20.8164 L-7.65234,19.8086 C-7.59766,19.3633 -7.375,19.1406 -6.98438,19.1406 L-3.31641,19.1406 C-3.31641,17.8047 -3.09375,17.1367 -2.64844,17.1367 M-5.64844,22.4805 C-4.92188,22.5352 -4.55859,22.5938 -4.55859,22.6563 L-4.55859,23.3945 C-4.89453,23.2852 -5.28516,23.2305 -5.73047,23.2305 C-6.12109,23.2305 -6.34375,23.3438 -6.39844,23.5703 C-6.39844,23.625 -6.42969,23.6523 -6.49219,23.6523 C-6.49219,23.9258 -6.04687,24.2031 -5.15625,24.4844 C-4.53906,24.7656 -4.23047,25.1289 -4.23047,25.5742 L-4.23047,25.8203 C-4.23047,26.3828 -4.59375,26.7734 -5.32031,26.9922 C-5.59375,27.0469 -5.84375,27.0742 -6.07031,27.0742 C-6.96094,27.0195 -7.40625,26.9375 -7.40625,26.8281 L-7.40625,26.0664 C-6.90625,26.2383 -6.46094,26.3242 -6.07031,26.3242 C-5.46094,26.3242 -5.15625,26.1563 -5.15625,25.8203 C-5.15625,25.4922 -5.60156,25.2148 -6.49219,24.9883 C-7.10156,24.707 -7.40625,24.2891 -7.40625,23.7344 C-7.40625,23.125 -7.01562,22.7344 -6.23438,22.5625 C-6.00781,22.5078 -5.8125,22.4805 -5.64844,22.4805 M1.86328,22.4805 C2.69922,22.4805 3.25391,22.8711 3.52734,23.6523 C3.58984,23.9883 3.62109,24.293 3.62109,24.5664 L3.62109,24.9883 C3.62109,25.9336 3.25781,26.5742 2.53125,26.9102 C2.30469,27.0195 2.08203,27.0742 1.86328,27.0742 L1.78125,27.0742 C1,27.0742 0.46875,26.6836 0.1875,25.9023 C0.078125,25.5664 0.0234375,25.2617 0.0234375,24.9883 L0.0234375,24.5664 C0.0234375,23.6211 0.386719,22.9844 1.11328,22.6563 C1.38672,22.5391 1.63672,22.4805 1.86328,22.4805 M-3.5625,22.5625 L-0.386719,22.5625 C-0.332031,22.5625 -0.304688,22.5938 -0.304688,22.6563 L-0.304688,23.2305 L-1.55859,23.2305 L-1.55859,26.9102 C-1.55859,26.9648 -1.58594,26.9922 -1.64063,26.9922 L-2.39063,26.9922 L-2.39063,23.2305 L-3.64453,23.2305 L-3.64453,22.6563 C-3.64453,22.5938 -3.61719,22.5625 -3.5625,22.5625 M4.28906,22.5625 L5.53125,22.5625 C6.48437,22.5625 7.07031,22.8711 7.28906,23.4883 L7.28906,24.0625 C7.28906,24.7891 6.87109,25.2656 6.03516,25.4922 C5.87109,25.5469 5.70313,25.5742 5.53125,25.5742 L5.03906,25.5742 L5.03906,26.9922 L4.28906,26.9922 C4.22656,26.9922 4.19531,26.9648 4.19531,26.9102 L4.19531,22.6563 C4.19531,22.5938 4.22656,22.5625 4.28906,22.5625 M0.949219,24.6602 L0.949219,24.8242 C0.949219,25.8242 1.25391,26.3242 1.86328,26.3242 C2.48047,26.3242 2.78906,25.8242 2.78906,24.8242 L2.78906,24.7305 C2.78906,23.7305 2.48047,23.2305 1.86328,23.2305 C1.25391,23.2305 0.949219,23.707 0.949219,24.6602 M5.03906,23.2305 L5.03906,24.8242 L5.53125,24.8242 C5.92969,24.8242 6.21094,24.6836 6.375,24.4023 C6.42969,24.293 6.45703,24.1797 6.45703,24.0625 L6.45703,23.9922 C6.45703,23.4844 6.125,23.2305 5.46094,23.2305 L5.03906,23.2305"/>
</g>

<g fill="none" stroke="#000000" stroke-opacity="1" stroke-width="1" stroke-linecap="square" stroke-linejoin="bevel" transform="matrix(1,0,0,1,0,0)"
font-family="MS Shell Dlg 2" font-size="9.8" font-weight="400" font-style="normal" 
>
</g>

<g fill="#ffffff" fill-opacity="1" stroke="none" transform="matrix(1,0,0,1,16,17.7344)"
font-family="MS Shell Dlg 2" font-size="9.8" font-weight="400" font-style="normal" 
>
<path vector-effect="none" fill-rule="nonzero" d="M-9.5,3.80078 L9.82422,3.80078 L9.82422,7.79688 L-9.5,7.79688 L-9.5,3.80078"/>
</g>

<g fill="none" stroke="#000000" stroke-opacity="1" stroke-width="1" stroke-linecap="square" stroke-linejoin="bevel" transform="matrix(1,0,0,1,0,0)"
font-family="MS Shell Dlg 2" font-size="9.8" font-weight="400" font-style="normal" 
>
</g>

<g fill="#000000" fill-opacity="1" stroke="none" transform="matrix(1,0,0,1,7.82031,21.2656)"
font-family="MS Shell Dlg 2" font-size="9.8" font-weight="400" font-style="normal" 
>
<path vector-effect="none" fill-rule="nonzero" d="M-1.27539,1.3501 L-0.828613,1.31104 C-0.807454,1.49007 -0.758219,1.63696 -0.680908,1.75171 C-0.603597,1.86646 -0.483561,1.95923 -0.320801,2.03003 C-0.15804,2.10083 0.0250651,2.13623 0.228516,2.13623 C0.40918,2.13623 0.568685,2.10938 0.707031,2.05566 C0.845378,2.00195 0.948324,1.9283 1.01587,1.83472 C1.08341,1.74113 1.11719,1.639 1.11719,1.52832 C1.11719,1.41602 1.08464,1.31795 1.01953,1.23413 C0.954427,1.15031 0.847005,1.07992 0.697266,1.02295 C0.601237,0.985514 0.388835,0.927327 0.0600586,0.848389 C-0.268717,0.76945 -0.499023,0.694987 -0.630859,0.625 C-0.801758,0.535482 -0.929118,0.424398 -1.01294,0.291748 C-1.09676,0.159098 -1.13867,0.0105794 -1.13867,-0.153809 C-1.13867,-0.334473 -1.0874,-0.503337 -0.984863,-0.6604 C-0.882324,-0.817464 -0.732585,-0.936686 -0.535645,-1.01807 C-0.338704,-1.09945 -0.119792,-1.14014 0.121094,-1.14014 C0.386393,-1.14014 0.620361,-1.09741 0.822998,-1.01196 C1.02563,-0.926514 1.18148,-0.800781 1.29053,-0.634766 C1.39958,-0.46875 1.45817,-0.280762 1.46631,-0.0708008 L1.01221,-0.0366211 C0.987793,-0.262858 0.905192,-0.433757 0.764404,-0.549316 C0.623617,-0.664876 0.41569,-0.722656 0.140625,-0.722656 C-0.145833,-0.722656 -0.354574,-0.670166 -0.485596,-0.565186 C-0.616618,-0.460205 -0.682129,-0.333659 -0.682129,-0.185547 C-0.682129,-0.0569661 -0.635742,0.0488281 -0.542969,0.131836 C-0.451823,0.214844 -0.213786,0.299886 0.171143,0.386963 C0.556071,0.47404 0.82015,0.55013 0.963379,0.615234 C1.17171,0.711263 1.32552,0.832926 1.4248,0.980225 C1.52409,1.12752 1.57373,1.2972 1.57373,1.48926 C1.57373,1.67969 1.51921,1.85913 1.41016,2.02759 C1.30111,2.19604 1.14445,2.32707 0.940186,2.42065 C0.735921,2.51424 0.506022,2.56104 0.250488,2.56104 C-0.0734049,2.56104 -0.344808,2.51383 -0.563721,2.41943 C-0.782633,2.32503 -0.954346,2.18302 -1.07886,1.99341 C-1.20337,1.80379 -1.26888,1.58936 -1.27539,1.3501 "/>
</g>

<g fill="none" stroke="#000000" stroke-opacity="1" stroke-width="1" stroke-linecap="square" stroke-linejoin="bevel" transform="matrix(1,0,0,1,0,0)"
font-family="MS Shell Dlg 2" font-size="9.8" font-weight="400" font-style="normal" 
>
</g>

<g fill="#000000" fill-opacity="1" stroke="none" transform="matrix(1,0,0,1,11.9375,21.2656)"
font-family="MS Shell Dlg 2" font-size="9.8" font-weight="400" font-style="normal" 
>
<path vector-effect="none" fill-rule="nonzero" d="M-0.203613,2.5 L-0.203613,-0.656738 L-1.38281,-0.656738 L-1.38281,-1.0791 L1.4541,-1.0791 L1.4541,-0.656738 L0.27002,-0.656738 L0.27002,2.5 L-0.203613,2.5"/>
</g>

<g fill="none" stroke="#000000" stroke-opacity="1" stroke-width="1" stroke-linecap="square" stroke-linejoin="bevel" transform="matrix(1,0,0,1,0,0)"
font-family="MS Shell Dlg 2" font-size="9.8" font-weight="400" font-style="normal" 
>
</g>

<g fill="#000000" fill-opacity="1" stroke="none" transform="matrix(1,0,0,1,16,21.2656)"
font-family="MS Shell Dlg 2" font-size="9.8" font-weight="400" font-style="normal" 
>
<path vector-effect="none" fill-rule="nonzero" d="M-1.50732,2.5 L-0.132813,-1.0791 L0.377441,-1.0791 L1.84229,2.5 L1.30273,2.5 L0.885254,1.41602 L-0.611328,1.41602 L-1.00439,2.5 L-1.50732,2.5 M-0.474609,1.03027 L0.73877,1.03027 L0.365234,0.0390625 C0.251302,-0.262044 0.166667,-0.50944 0.111328,-0.703125 C0.0657552,-0.473633 0.00146484,-0.245768 -0.081543,-0.0195313 L-0.474609,1.03027"/>
</g>

<g fill="none" stroke="#000000" stroke-opacity="1" stroke-width="1" stroke-linecap="square" stroke-linejoin="bevel" transform="matrix(1,0,0,1,0,0)"
font-family="MS Shell Dlg 2" font-size="9.8" font-weight="400" font-style="normal" 
>
</g>

<g fill="#000000" fill-opacity="1" stroke="none" transform="matrix(1,0,0,1,19.9609,21.2656)"
font-family="MS Shell Dlg 2" font-size="9.8" font-weight="400" font-style="normal" 
>
<path vector-effect="none" fill-rule="nonzero" d="M-1.60693,2.5 L-1.60693,-1.0791 L-0.0200195,-1.0791 C0.298991,-1.0791 0.541504,-1.04696 0.70752,-0.982666 C0.873535,-0.918376 1.00618,-0.80485 1.10547,-0.64209 C1.20475,-0.479329 1.25439,-0.299479 1.25439,-0.102539 C1.25439,0.151367 1.1722,0.365397 1.00781,0.539551 C0.843424,0.713704 0.589518,0.824381 0.246094,0.871582 C0.371419,0.931803 0.466634,0.991211 0.531738,1.0498 C0.670085,1.17676 0.801107,1.33545 0.924805,1.52588 L1.54736,2.5 L0.95166,2.5 L0.478027,1.75537 C0.339681,1.54053 0.225749,1.37614 0.13623,1.26221 C0.0467122,1.14827 -0.0334473,1.06852 -0.104248,1.02295 C-0.175049,0.977376 -0.24707,0.945638 -0.320313,0.927734 C-0.374023,0.916341 -0.461914,0.910645 -0.583984,0.910645 L-1.1333,0.910645 L-1.1333,2.5 L-1.60693,2.5 M-1.1333,0.500488 L-0.115234,0.500488 C0.101237,0.500488 0.270508,0.478109 0.392578,0.43335 C0.514648,0.38859 0.607422,0.316976 0.670898,0.218506 C0.734375,0.120036 0.766113,0.0130208 0.766113,-0.102539 C0.766113,-0.27181 0.704671,-0.41097 0.581787,-0.52002 C0.458903,-0.629069 0.264811,-0.683594 -0.000488281,-0.683594 L-1.1333,-0.683594 L-1.1333,0.500488"/>
</g>

<g fill="none" stroke="#000000" stroke-opacity="1" stroke-width="1" stroke-linecap="square" stroke-linejoin="bevel" transform="matrix(1,0,0,1,0,0)"
font-family="MS Shell Dlg 2" font-size="9.8" font-weight="400" font-style="normal" 
>
</g>

<g fill="#000000" fill-opacity="1" stroke="none" transform="matrix(1,0,0,1,23.9375,21.2656)"
font-family="MS Shell Dlg 2" font-size="9.8" font-weight="400" font-style="normal" 
>
<path vector-effect="none" fill-rule="nonzero" d="M-0.203613,2.5 L-0.203613,-0.656738 L-1.38281,-0.656738 L-1.38281,-1.0791 L1.4541,-1.0791 L1.4541,-0.656738 L0.27002,-0.656738 L0.27002,2.5 L-0.203613,2.5"/>
</g>

<g fill="none" stroke="#000000" stroke-opacity="1" stroke-width="1" stroke-linecap="square" stroke-linejoin="bevel" transform="matrix(1,0,0,1,0,0)"
font-family="MS Shell Dlg 2" font-size="9.8" font-weight="400" font-style="normal" 
>
</g>

<g fill="#ffaa00" fill-opacity="1" stroke="none" transform="matrix(1,0,0,1,12.0078,7.42969)"
font-family="MS Shell Dlg 2" font-size="9.8" font-weight="400" font-style="normal" 
>
<path vector-effect="none" fill-rule="nonzero" d="M-0.21582,14.501 C3.3304,14.6618 5.64941,16.3672 6.74121,19.6172 L-7.10938,19.6172 C-5.90755,16.2572 -3.6097,14.5518 -0.21582,14.501 M-0.926758,5.99512 L-0.926758,6.0459 L-0.977539,6.0459 L-0.977539,5.99512 L-0.926758,5.99512 M0.0126953,31.3857 L0.0126953,31.4238 L-0.0507813,31.4238 L-0.0507813,31.3857 L0.0126953,31.3857"/>
</g>

<g fill="none" stroke="#000000" stroke-opacity="1" stroke-width="1" stroke-linecap="square" stroke-linejoin="bevel" transform="matrix(1,0,0,1,0,0)"
font-family="MS Shell Dlg 2" font-size="9.8" font-weight="400" font-style="normal" 
>
</g>
</g>
</svg>
