<?xml version="1.0" encoding="UTF-8" standalone="no"?>
<svg width="11.2889mm" height="11.2889mm"
 viewBox="0 0 32 32"
 xmlns="http://www.w3.org/2000/svg" xmlns:xlink="http://www.w3.org/1999/xlink"  version="1.2" baseProfile="tiny">
<title>Qt SVG Document</title>
<desc>Generated with Qt</desc>
<defs>
</defs>
<g fill="none" stroke="black" stroke-width="1" fill-rule="evenodd" stroke-linecap="square" stroke-linejoin="bevel" >

<g fill="#4ce600" fill-opacity="1" stroke="none" transform="matrix(1,0,0,1,15.9141,12.7344)"
font-family="MS Shell Dlg 2" font-size="9.8" font-weight="400" font-style="normal" 
>
<path vector-effect="none" fill-rule="nonzero" d="M11.5781,5.92188 L11.5781,29.5 L-12,29.5 L-12,5.92188 L11.5781,5.92188 M-11.0742,6.84766 L-11.0742,28.5742 L10.6523,28.5742 L10.6523,6.84766 L-11.0742,6.84766 M-0.210938,13.4219 C3.46094,13.4688 5.83594,15.3047 6.91406,18.9297 L-7.25391,18.9297 C-6.03516,15.2578 -3.6875,13.4219 -0.210938,13.4219 M-5.71875,19.7031 L-4.80469,20.1602 L-6.55078,22.2227 L-7.40625,21.6953 L-5.71875,19.7031 M5.29688,19.6094 L6.83203,22 L5.98828,22.5273 L4.3125,20.0781 L5.29688,19.6094 M-3.19922,20.4766 L-2.27344,20.8398 L-3.19922,23.4414 L-4.19531,23.0664 L-3.19922,20.4766 M2.69531,20.4766 L3.77344,23.2188 L2.84766,23.5352 L1.78125,20.7695 L2.69531,20.4766 M0.105469,20.7695 L0.105469,23.8281 L-0.820313,23.8281 L-0.820313,20.7695 L0.105469,20.7695 M-8.09766,22.6914 L-7.32422,23.1484 L-9.09375,25.0586 L-9.85547,24.5195 L-8.09766,22.6914 M7.59375,22.832 L9.21094,24.6719 L8.36719,25.2109 L6.83203,23.3711 L7.59375,22.832 M-4.57031,24.2148 L-3.64453,24.6016 L-4.65234,26.8164 L-5.56641,26.4414 L-4.57031,24.2148 M4.07813,24.2852 L5.00391,26.5938 L4.07813,26.8984 L3.16406,24.6016 L4.07813,24.2852 M0.105469,24.9063 L0.105469,27.3555 L-0.820313,27.3555 L-0.820313,24.9063 L0.105469,24.9063"/>
</g>

<g fill="none" stroke="#000000" stroke-opacity="1" stroke-width="1" stroke-linecap="square" stroke-linejoin="bevel" transform="matrix(1,0,0,1,0,0)"
font-family="MS Shell Dlg 2" font-size="9.8" font-weight="400" font-style="normal" 
>
</g>

<g fill="#ffffff" fill-opacity="1" stroke="none" transform="matrix(1,0,0,1,16,17.7344)"
font-family="MS Shell Dlg 2" font-size="9.8" font-weight="400" font-style="normal" 
>
<path vector-effect="none" fill-rule="nonzero" d="M-9.5,3.80078 L9.82422,3.80078 L9.82422,7.79688 L-9.5,7.79688 L-9.5,3.80078"/>
</g>

<g fill="none" stroke="#000000" stroke-opacity="1" stroke-width="1" stroke-linecap="square" stroke-linejoin="bevel" transform="matrix(1,0,0,1,0,0)"
font-family="MS Shell Dlg 2" font-size="9.8" font-weight="400" font-style="normal" 
>
</g>

<g fill="#000000" fill-opacity="1" stroke="none" transform="matrix(1,0,0,1,6.82031,21.2656)"
font-family="MS Shell Dlg 2" font-size="9.8" font-weight="400" font-style="normal" 
>
<path vector-effect="none" fill-rule="nonzero" d="M-1.27539,1.3501 L-0.828613,1.31104 C-0.807454,1.49007 -0.758219,1.63696 -0.680908,1.75171 C-0.603597,1.86646 -0.483561,1.95923 -0.320801,2.03003 C-0.15804,2.10083 0.0250651,2.13623 0.228516,2.13623 C0.40918,2.13623 0.568685,2.10938 0.707031,2.05566 C0.845378,2.00195 0.948324,1.9283 1.01587,1.83472 C1.08341,1.74113 1.11719,1.639 1.11719,1.52832 C1.11719,1.41602 1.08464,1.31795 1.01953,1.23413 C0.954427,1.15031 0.847005,1.07992 0.697266,1.02295 C0.601237,0.985514 0.388835,0.927327 0.0600586,0.848389 C-0.268717,0.76945 -0.499023,0.694987 -0.630859,0.625 C-0.801758,0.535482 -0.929118,0.424398 -1.01294,0.291748 C-1.09676,0.159098 -1.13867,0.0105794 -1.13867,-0.153809 C-1.13867,-0.334473 -1.0874,-0.503337 -0.984863,-0.6604 C-0.882324,-0.817464 -0.732585,-0.936686 -0.535645,-1.01807 C-0.338704,-1.09945 -0.119792,-1.14014 0.121094,-1.14014 C0.386393,-1.14014 0.620361,-1.09741 0.822998,-1.01196 C1.02563,-0.926514 1.18148,-0.800781 1.29053,-0.634766 C1.39958,-0.46875 1.45817,-0.280762 1.46631,-0.0708008 L1.01221,-0.0366211 C0.987793,-0.262858 0.905192,-0.433757 0.764404,-0.549316 C0.623617,-0.664876 0.41569,-0.722656 0.140625,-0.722656 C-0.145833,-0.722656 -0.354574,-0.670166 -0.485596,-0.565186 C-0.616618,-0.460205 -0.682129,-0.333659 -0.682129,-0.185547 C-0.682129,-0.0569661 -0.635742,0.0488281 -0.542969,0.131836 C-0.451823,0.214844 -0.213786,0.299886 0.171143,0.386963 C0.556071,0.47404 0.82015,0.55013 0.963379,0.615234 C1.17171,0.711263 1.32552,0.832926 1.4248,0.980225 C1.52409,1.12752 1.57373,1.2972 1.57373,1.48926 C1.57373,1.67969 1.51921,1.85913 1.41016,2.02759 C1.30111,2.19604 1.14445,2.32707 0.940186,2.42065 C0.735921,2.51424 0.506022,2.56104 0.250488,2.56104 C-0.0734049,2.56104 -0.344808,2.51383 -0.563721,2.41943 C-0.782633,2.32503 -0.954346,2.18302 -1.07886,1.99341 C-1.20337,1.80379 -1.26888,1.58936 -1.27539,1.3501 "/>
</g>

<g fill="none" stroke="#000000" stroke-opacity="1" stroke-width="1" stroke-linecap="square" stroke-linejoin="bevel" transform="matrix(1,0,0,1,0,0)"
font-family="MS Shell Dlg 2" font-size="9.8" font-weight="400" font-style="normal" 
>
</g>

<g fill="#000000" fill-opacity="1" stroke="none" transform="matrix(1,0,0,1,10.9375,21.2656)"
font-family="MS Shell Dlg 2" font-size="9.8" font-weight="400" font-style="normal" 
>
<path vector-effect="none" fill-rule="nonzero" d="M-0.203613,2.5 L-0.203613,-0.656738 L-1.38281,-0.656738 L-1.38281,-1.0791 L1.4541,-1.0791 L1.4541,-0.656738 L0.27002,-0.656738 L0.27002,2.5 L-0.203613,2.5"/>
</g>

<g fill="none" stroke="#000000" stroke-opacity="1" stroke-width="1" stroke-linecap="square" stroke-linejoin="bevel" transform="matrix(1,0,0,1,0,0)"
font-family="MS Shell Dlg 2" font-size="9.8" font-weight="400" font-style="normal" 
>
</g>

<g fill="#000000" fill-opacity="1" stroke="none" transform="matrix(1,0,0,1,16,21.2656)"
font-family="MS Shell Dlg 2" font-size="9.8" font-weight="400" font-style="normal" 
>
<path vector-effect="none" fill-rule="nonzero" d="M-1.50732,2.5 L-0.132813,-1.0791 L0.377441,-1.0791 L1.84229,2.5 L1.30273,2.5 L0.885254,1.41602 L-0.611328,1.41602 L-1.00439,2.5 L-1.50732,2.5 M-0.474609,1.03027 L0.73877,1.03027 L0.365234,0.0390625 C0.251302,-0.262044 0.166667,-0.50944 0.111328,-0.703125 C0.0657552,-0.473633 0.00146484,-0.245768 -0.081543,-0.0195313 L-0.474609,1.03027"/>
</g>

<g fill="none" stroke="#000000" stroke-opacity="1" stroke-width="1" stroke-linecap="square" stroke-linejoin="bevel" transform="matrix(1,0,0,1,0,0)"
font-family="MS Shell Dlg 2" font-size="9.8" font-weight="400" font-style="normal" 
>
</g>

<g fill="#000000" fill-opacity="1" stroke="none" transform="matrix(1,0,0,1,20.9609,21.2656)"
font-family="MS Shell Dlg 2" font-size="9.8" font-weight="400" font-style="normal" 
>
<path vector-effect="none" fill-rule="nonzero" d="M-1.60693,2.5 L-1.60693,-1.0791 L-0.0200195,-1.0791 C0.298991,-1.0791 0.541504,-1.04696 0.70752,-0.982666 C0.873535,-0.918376 1.00618,-0.80485 1.10547,-0.64209 C1.20475,-0.479329 1.25439,-0.299479 1.25439,-0.102539 C1.25439,0.151367 1.1722,0.365397 1.00781,0.539551 C0.843424,0.713704 0.589518,0.824381 0.246094,0.871582 C0.371419,0.931803 0.466634,0.991211 0.531738,1.0498 C0.670085,1.17676 0.801107,1.33545 0.924805,1.52588 L1.54736,2.5 L0.95166,2.5 L0.478027,1.75537 C0.339681,1.54053 0.225749,1.37614 0.13623,1.26221 C0.0467122,1.14827 -0.0334473,1.06852 -0.104248,1.02295 C-0.175049,0.977376 -0.24707,0.945638 -0.320313,0.927734 C-0.374023,0.916341 -0.461914,0.910645 -0.583984,0.910645 L-1.1333,0.910645 L-1.1333,2.5 L-1.60693,2.5 M-1.1333,0.500488 L-0.115234,0.500488 C0.101237,0.500488 0.270508,0.478109 0.392578,0.43335 C0.514648,0.38859 0.607422,0.316976 0.670898,0.218506 C0.734375,0.120036 0.766113,0.0130208 0.766113,-0.102539 C0.766113,-0.27181 0.704671,-0.41097 0.581787,-0.52002 C0.458903,-0.629069 0.264811,-0.683594 -0.000488281,-0.683594 L-1.1333,-0.683594 L-1.1333,0.500488"/>
</g>

<g fill="none" stroke="#000000" stroke-opacity="1" stroke-width="1" stroke-linecap="square" stroke-linejoin="bevel" transform="matrix(1,0,0,1,0,0)"
font-family="MS Shell Dlg 2" font-size="9.8" font-weight="400" font-style="normal" 
>
</g>

<g fill="#000000" fill-opacity="1" stroke="none" transform="matrix(1,0,0,1,24.9375,21.2656)"
font-family="MS Shell Dlg 2" font-size="9.8" font-weight="400" font-style="normal" 
>
<path vector-effect="none" fill-rule="nonzero" d="M-0.203613,2.5 L-0.203613,-0.656738 L-1.38281,-0.656738 L-1.38281,-1.0791 L1.4541,-1.0791 L1.4541,-0.656738 L0.27002,-0.656738 L0.27002,2.5 L-0.203613,2.5"/>
</g>

<g fill="none" stroke="#000000" stroke-opacity="1" stroke-width="1" stroke-linecap="square" stroke-linejoin="bevel" transform="matrix(1,0,0,1,0,0)"
font-family="MS Shell Dlg 2" font-size="9.8" font-weight="400" font-style="normal" 
>
</g>
</g>
</svg>
