<?xml version="1.0" encoding="UTF-8" standalone="no"?>
<svg width="11.2889mm" height="11.2889mm"
 viewBox="0 0 32 32"
 xmlns="http://www.w3.org/2000/svg" xmlns:xlink="http://www.w3.org/1999/xlink"  version="1.2" baseProfile="tiny">
<title>Qt SVG Document</title>
<desc>Generated with Qt</desc>
<defs>
</defs>
<g fill="none" stroke="black" stroke-width="1" fill-rule="evenodd" stroke-linecap="square" stroke-linejoin="bevel" >

<g fill="#ffffff" fill-opacity="1" stroke="none" transform="matrix(1,0,0,1,15.9297,12.7344)"
font-family="MS Shell Dlg 2" font-size="9.8" font-weight="400" font-style="normal" 
>
<path vector-effect="none" fill-rule="nonzero" d="M-15.1836,4.90234 L15.0625,4.90234 C15.2891,4.90234 15.4023,5.01563 15.4023,5.24219 L15.4023,29.1836 C15.4023,29.3945 15.2891,29.5 15.0625,29.5 L-15.1836,29.5 C-15.3945,29.5 -15.5,29.3945 -15.5,29.1836 L-15.5,18.8828 C-15.4219,18.6719 -15.3164,18.5664 -15.1836,18.5664 L4.25781,18.5664 L4.25781,15.7539 L-15.1836,15.7539 C-15.3945,15.7539 -15.5,15.6367 -15.5,15.4023 L-15.5,5.24219 C-15.4219,5.01563 -15.3164,4.90234 -15.1836,4.90234 "/>
</g>

<g fill="none" stroke="#000000" stroke-opacity="1" stroke-width="1" stroke-linecap="square" stroke-linejoin="bevel" transform="matrix(1,0,0,1,0,0)"
font-family="MS Shell Dlg 2" font-size="9.8" font-weight="400" font-style="normal" 
>
</g>

<g fill="#000000" fill-opacity="1" stroke="none" transform="matrix(1,0,0,1,15.9297,12.7344)"
font-family="MS Shell Dlg 2" font-size="9.8" font-weight="400" font-style="normal" 
>
<path vector-effect="none" fill-rule="nonzero" d="M-14.9727,5.57031 L-14.9727,9.76563 L-14.3398,9.76563 L-14.3398,5.57031 L-14.9727,5.57031 M-13.6133,5.57031 L-13.6133,9.76563 L-12.9805,9.76563 L-12.9805,5.57031 L-13.6133,5.57031 M-12.3477,5.57031 L-12.3477,9.76563 L-11.7266,9.76563 L-11.7266,5.57031 L-12.3477,5.57031 M-11.0938,5.57031 L-11.0938,9.76563 L-10.4609,9.76563 L-10.4609,5.57031 L-11.0938,5.57031 M-9.82813,5.57031 L-9.82813,9.76563 L-9.20703,9.76563 L-9.20703,5.57031 L-9.82813,5.57031 M-8.36328,5.57031 L-8.36328,9.76563 L-7.94141,9.76563 L-7.94141,5.57031 L-8.36328,5.57031 M-7.09766,5.57031 L-7.09766,9.76563 L-6.47656,9.76563 L-6.47656,5.57031 L-7.09766,5.57031 M-5.84375,5.57031 L-5.84375,9.76563 L-5.21094,9.76563 L-5.21094,5.57031 L-5.84375,5.57031 M-4.57813,5.57031 L-4.57813,9.76563 L-3.95703,9.76563 L-3.95703,5.57031 L-4.57813,5.57031 M-3.20703,5.57031 L-3.20703,9.76563 L-2.69141,9.76563 L-2.69141,5.57031 L-3.20703,5.57031 M-1.95313,5.57031 L-1.95313,8.51172 L-1.32031,8.71094 L-1.32031,5.57031 L-1.95313,5.57031 M-0.6875,5.57031 L-0.6875,8.92188 L-0.0664063,9.13281 L-0.0664063,5.57031 L-0.6875,5.57031 M0.566406,5.57031 L0.566406,9.34375 L1.19922,9.44922 L1.19922,5.57031 L0.566406,5.57031 M1.83203,5.57031 L1.83203,9.64844 L2.45313,9.76563 L2.45313,5.57031 L1.83203,5.57031 M3.08594,5.57031 L3.08594,9.97656 L3.71875,10.0703 L3.71875,5.57031 L3.08594,5.57031 M4.35156,5.57031 L4.35156,15.1094 C4.69531,15.1094 4.86719,15.2188 4.86719,15.4375 L4.86719,18.8945 C4.86719,19.1055 4.69531,19.2109 4.35156,19.2109 L4.35156,28.8672 L14.7344,28.8672 L14.7344,5.57031 L4.35156,5.57031 M-1.95313,8.71094 L-1.95313,9.76563 L-1.32031,9.76563 C-1.53906,9.13281 -1.75,8.78125 -1.95313,8.71094 M3.08594,10.3984 L3.08594,15.1094 L3.71875,15.1094 L3.71875,10.2813 L3.08594,10.3984 M-14.9727,10.6094 L-14.9727,15.1094 L-14.3398,15.1094 L-14.3398,10.6094 L-14.9727,10.6094 M-13.6133,10.6094 L-13.6133,15.1094 L-12.9805,15.1094 L-12.9805,10.6094 L-13.6133,10.6094 M-12.3477,10.6094 L-12.3477,15.1094 L-11.7266,15.1094 L-11.7266,10.6094 L-12.3477,10.6094 M-11.0938,10.6094 L-11.0938,15.1094 L-10.4609,15.1094 L-10.4609,10.6094 L-11.0938,10.6094 M-9.82813,10.6094 L-9.82813,15.1094 L-9.20703,15.1094 L-9.20703,10.6094 L-9.82813,10.6094 M-8.36328,10.6094 L-8.36328,15.1094 L-7.94141,15.1094 L-7.94141,10.6094 L-8.36328,10.6094 M-7.09766,10.6094 L-7.09766,15.1094 L-6.47656,15.1094 L-6.47656,10.6094 L-7.09766,10.6094 M-5.84375,10.6094 L-5.84375,15.1094 L-5.21094,15.1094 L-5.21094,10.6094 L-5.84375,10.6094 M-4.57813,10.6094 L-4.57813,15.1094 L-3.95703,15.1094 L-3.95703,10.6094 L-4.57813,10.6094 M-3.20703,10.6094 L-3.20703,15.1094 L-2.69141,15.1094 L-2.69141,10.6094 L-3.20703,10.6094 M-1.95313,10.6094 L-1.95313,11.8633 C-1.75,11.7227 -1.53906,11.3047 -1.32031,10.6094 L-1.95313,10.6094 M1.83203,10.7031 L1.83203,15.1094 L2.45313,15.1094 L2.45313,10.6094 L1.83203,10.7031 M0.566406,11.125 L0.566406,15.1094 L1.19922,15.1094 L1.19922,10.9141 L0.566406,11.125 M-0.6875,11.5469 L-0.6875,15.1094 L-0.0664063,15.1094 L-0.0664063,11.3359 L-0.6875,11.5469 M-1.95313,12.0742 L-1.95313,15.1094 L-1.32031,15.1094 L-1.32031,11.8633 L-1.95313,12.0742 M-14.9727,19.2109 L-14.9727,24.1445 L-14.3398,23.9336 L-14.3398,19.2109 L-14.9727,19.2109 M-13.6133,19.2109 L-13.6133,23.8281 L-12.9805,23.6172 L-12.9805,19.2109 L-13.6133,19.2109 M-12.3477,19.2109 L-12.3477,23.4063 L-11.7266,23.207 L-11.7266,19.2109 L-12.3477,19.2109 M-11.0938,19.2109 L-11.0938,23.0898 L-10.4609,22.7852 L-10.4609,19.2109 L-11.0938,19.2109 M-9.82813,19.2109 L-9.82813,22.668 L-9.20703,22.3633 L-9.20703,19.2109 L-9.82813,19.2109 M-8.36328,19.2109 L-8.36328,23.8281 L-7.94141,23.8281 L-7.94141,19.2109 L-8.36328,19.2109 M-7.09766,19.2109 L-7.09766,23.8281 L-6.47656,23.8281 L-6.47656,19.2109 L-7.09766,19.2109 M-5.84375,19.2109 L-5.84375,23.8281 L-5.21094,23.8281 L-5.21094,19.2109 L-5.84375,19.2109 M-4.57813,19.2109 L-4.57813,23.8281 L-3.95703,23.8281 L-3.95703,19.2109 L-4.57813,19.2109 M-3.20703,19.2109 L-3.20703,23.8281 L-2.69141,23.8281 L-2.69141,19.2109 L-3.20703,19.2109 M-1.95313,19.2109 L-1.95313,23.8281 L-1.32031,23.8281 L-1.32031,19.2109 L-1.95313,19.2109 M-0.6875,19.2109 L-0.6875,23.8281 L-0.0664063,23.8281 L-0.0664063,19.2109 L-0.6875,19.2109 M0.566406,19.2109 L0.566406,23.8281 L1.19922,23.8281 L1.19922,19.2109 L0.566406,19.2109 M1.83203,19.2109 L1.83203,23.8281 L2.45313,23.8281 L2.45313,19.2109 L1.83203,19.2109 M3.08594,19.2109 L3.08594,23.8281 L3.71875,23.8281 L3.71875,19.2109 L3.08594,19.2109 M-9.82813,23.207 L-9.82813,23.8281 L-9.20703,23.8281 L-9.20703,22.5742 C-9.41016,22.7773 -9.61719,22.9883 -9.82813,23.207 M-14.9727,24.25 L-14.9727,28.8672 L-14.3398,28.8672 L-14.3398,24.3438 L-14.9727,24.25 M-13.6133,24.5547 L-13.6133,28.8672 L-12.9805,28.8672 L-12.9805,24.7656 L-13.6133,24.5547 M-9.82813,24.5547 L-9.82813,25.1875 C-9.6875,25.5469 -9.48047,25.8281 -9.20703,26.0313 L-9.20703,24.5547 L-9.82813,24.5547 M-8.36328,24.5547 L-8.36328,28.8672 L-7.94141,28.8672 L-7.94141,24.5547 L-8.36328,24.5547 M-7.09766,24.5547 L-7.09766,28.8672 L-6.47656,28.8672 L-6.47656,24.5547 L-7.09766,24.5547 M-5.84375,24.5547 L-5.84375,28.8672 L-5.21094,28.8672 L-5.21094,24.5547 L-5.84375,24.5547 M-4.57813,24.5547 L-4.57813,28.8672 L-3.95703,28.8672 L-3.95703,24.5547 L-4.57813,24.5547 M-3.20703,24.5547 L-3.20703,28.8672 L-2.69141,28.8672 L-2.69141,24.5547 L-3.20703,24.5547 M-1.95313,24.5547 L-1.95313,28.8672 L-1.32031,28.8672 L-1.32031,24.5547 L-1.95313,24.5547 M-0.6875,24.5547 L-0.6875,28.8672 L-0.0664063,28.8672 L-0.0664063,24.5547 L-0.6875,24.5547 M0.566406,24.5547 L0.566406,28.8672 L1.19922,28.8672 L1.19922,24.5547 L0.566406,24.5547 M1.83203,24.5547 L1.83203,28.8672 L2.45313,28.8672 L2.45313,24.5547 L1.83203,24.5547 M3.08594,24.5547 L3.08594,28.8672 L3.71875,28.8672 L3.71875,24.5547 L3.08594,24.5547 M-12.3477,24.8828 L-12.3477,28.8672 L-11.7266,28.8672 L-11.7266,25.0938 L-12.3477,24.8828 M-11.0938,25.3047 L-11.0938,28.8672 L-10.4609,28.8672 L-10.4609,25.6094 L-11.0938,25.3047 M-9.82813,25.8203 L-9.82813,28.8672 L-9.20703,28.8672 L-9.20703,26.1367 L-9.82813,25.8203 M-15.1836,4.90234 L15.0625,4.90234 C15.2891,4.90234 15.4023,5.01563 15.4023,5.24219 L15.4023,29.1836 C15.4023,29.3945 15.2891,29.5 15.0625,29.5 L-15.1836,29.5 C-15.3945,29.5 -15.5,29.3945 -15.5,29.1836 L-15.5,18.8828 C-15.4219,18.6719 -15.3164,18.5664 -15.1836,18.5664 L4.25781,18.5664 L4.25781,15.7539 L-15.1836,15.7539 C-15.3945,15.7539 -15.5,15.6367 -15.5,15.4023 L-15.5,5.24219 C-15.4219,5.01563 -15.3164,4.90234 -15.1836,4.90234 "/>
</g>

<g fill="none" stroke="#000000" stroke-opacity="1" stroke-width="1" stroke-linecap="square" stroke-linejoin="bevel" transform="matrix(1,0,0,1,0,0)"
font-family="MS Shell Dlg 2" font-size="9.8" font-weight="400" font-style="normal" 
>
</g>
</g>
</svg>
