<?xml version="1.0" encoding="UTF-8" standalone="no"?>
<svg width="11.2889mm" height="11.2889mm"
 viewBox="0 0 32 32"
 xmlns="http://www.w3.org/2000/svg" xmlns:xlink="http://www.w3.org/1999/xlink"  version="1.2" baseProfile="tiny">
<title>Qt SVG Document</title>
<desc>Generated with Qt</desc>
<defs>
</defs>
<g fill="none" stroke="black" stroke-width="1" fill-rule="evenodd" stroke-linecap="square" stroke-linejoin="bevel" >

<g fill="#ffffff" fill-opacity="1" stroke="none" transform="matrix(1,0,0,1,15.8281,12.7344)"
font-family="MS Shell Dlg 2" font-size="9.8" font-weight="400" font-style="normal" 
>
<path vector-effect="none" fill-rule="nonzero" d="M-18.2539,13.6797 L17.7344,13.6797 C17.8906,13.7266 17.9688,13.8047 17.9688,13.9141 L17.9688,29.2539 C17.9688,29.418 17.8906,29.5 17.7344,29.5 L-18.2539,29.5 C-18.418,29.5 -18.5,29.418 -18.5,29.2539 L-18.5,13.9141 C-18.4453,13.7578 -18.3633,13.6797 -18.2539,13.6797 "/>
</g>

<g fill="none" stroke="#000000" stroke-opacity="1" stroke-width="1" stroke-linecap="square" stroke-linejoin="bevel" transform="matrix(1,0,0,1,0,0)"
font-family="MS Shell Dlg 2" font-size="9.8" font-weight="400" font-style="normal" 
>
</g>

<g fill="#000000" fill-opacity="1" stroke="none" transform="matrix(1,0,0,1,15.8281,12.7344)"
font-family="MS Shell Dlg 2" font-size="9.8" font-weight="400" font-style="normal" 
>
<path vector-effect="none" fill-rule="nonzero" d="M-18.2539,13.6797 L17.7344,13.6797 C17.8906,13.7266 17.9688,13.8047 17.9688,13.9141 L17.9688,29.2539 C17.9688,29.418 17.8906,29.5 17.7344,29.5 L-18.2539,29.5 C-18.418,29.5 -18.5,29.418 -18.5,29.2539 L-18.5,13.9141 C-18.4453,13.7578 -18.3633,13.6797 -18.2539,13.6797 M-17.8672,14.3828 L-17.8672,20.7109 L-15.9688,20.7109 L-15.9688,14.3828 L-17.8672,14.3828 M-15.2539,14.3828 L-15.2539,20.7109 L-12.8047,20.7109 L-12.8047,14.3828 L-15.2539,14.3828 M-11.9258,14.3828 L-11.9258,20.7109 L-9.71094,20.7109 L-9.71094,14.3828 L-11.9258,14.3828 M-9.00781,14.3828 L-9.00781,20.7109 L-6.71094,20.7109 L-6.71094,14.3828 L-9.00781,14.3828 M-5.99609,14.3828 L-5.99609,20.7109 L-3.78125,20.7109 L-3.78125,14.3828 L-5.99609,14.3828 M-3.06641,14.3828 L-3.06641,20.7109 L-0.699219,20.7109 L-0.699219,14.3828 L-3.06641,14.3828 M0.015625,14.3828 L0.015625,20.7109 L2.14844,20.7109 L2.14844,14.3828 L0.015625,14.3828 M2.86328,14.3828 L2.86328,20.7109 L5.23047,20.7109 L5.23047,14.3828 L2.86328,14.3828 M5.94531,14.3828 L5.94531,20.7109 L8.32422,20.7109 L8.32422,14.3828 L5.94531,14.3828 M9.02734,14.3828 L9.02734,20.7109 L11.3242,20.7109 L11.3242,14.3828 L9.02734,14.3828 M12.0391,14.3828 L12.0391,18.6602 C12.0391,18.8164 12.8281,19.1055 14.4063,19.5273 L14.4063,14.3828 L12.0391,14.3828 M15.1211,14.3828 L15.1211,19.6094 C15.1211,19.7656 15.832,20.0547 17.2539,20.4766 L17.2539,14.3828 L15.1211,14.3828 M-17.8672,21.4258 L-17.8672,28.7852 L-15.9688,28.7852 L-15.9688,21.4258 L-17.8672,21.4258 M-15.2539,21.4258 L-15.2539,28.7852 L-12.8047,28.7852 L-12.8047,21.4258 L-15.2539,21.4258 M-11.9258,21.4258 L-11.9258,28.7852 L-9.71094,28.7852 L-9.71094,21.4258 L-11.9258,21.4258 M-9.00781,21.4258 L-9.00781,28.7852 L-6.71094,28.7852 L-6.71094,21.4258 L-9.00781,21.4258 M-5.99609,21.4258 L-5.99609,28.7852 L-3.78125,28.7852 L-3.78125,21.4258 L-5.99609,21.4258 M-3.06641,21.4258 L-3.06641,28.5508 C-3.01953,28.707 -2.94141,28.7852 -2.83203,28.7852 L-0.699219,28.7852 L-0.699219,21.4258 L-3.06641,21.4258 M0.015625,21.4258 L0.015625,28.7852 L2.14844,28.7852 L2.14844,21.4258 L0.015625,21.4258 M2.86328,21.4258 L2.86328,28.7852 L5.23047,28.7852 L5.23047,21.4258 L2.86328,21.4258 M5.94531,21.4258 L5.94531,28.7852 L8.32422,28.7852 L8.32422,21.4258 L5.94531,21.4258 M9.02734,21.4258 L9.02734,28.7852 L11.3242,28.7852 L11.3242,21.4258 L9.02734,21.4258 M15.1211,22.457 L15.1211,28.7852 L17.2539,28.7852 L17.2539,21.5078 C15.9414,21.9844 15.2305,22.3008 15.1211,22.457 M12.0391,23.5586 L12.0391,28.5508 C12.0391,28.707 12.1172,28.7852 12.2734,28.7852 L14.4063,28.7852 L14.4063,22.6094 C12.8281,23.0859 12.0391,23.4023 12.0391,23.5586 "/>
</g>

<g fill="none" stroke="#000000" stroke-opacity="1" stroke-width="1" stroke-linecap="square" stroke-linejoin="bevel" transform="matrix(1,0,0,1,0,0)"
font-family="MS Shell Dlg 2" font-size="9.8" font-weight="400" font-style="normal" 
>
</g>
</g>
</svg>
