<?xml version="1.0" encoding="UTF-8" standalone="no"?>
<svg width="11.2889mm" height="11.2889mm"
 viewBox="0 0 32 32"
 xmlns="http://www.w3.org/2000/svg" xmlns:xlink="http://www.w3.org/1999/xlink"  version="1.2" baseProfile="tiny">
<title>Qt SVG Document</title>
<desc>Generated with Qt</desc>
<defs>
</defs>
<g fill="none" stroke="black" stroke-width="1" fill-rule="evenodd" stroke-linecap="square" stroke-linejoin="bevel" >

<g fill="#ffffff" fill-opacity="1" stroke="none" transform="matrix(1,0,0,1,15.7422,12.7344)"
font-family="MS Shell Dlg 2" font-size="9.8" font-weight="400" font-style="normal" 
>
<path vector-effect="none" fill-rule="nonzero" d="M-0.339844,3.47266 C3.30859,3.47266 6.42383,4.73438 9.00586,7.25781 C11.5879,9.78125 12.8789,12.8398 12.8789,16.4336 C12.8789,19.9727 11.5879,23.0195 9.00586,25.5742 C6.42383,28.1289 3.30859,29.4063 -0.339844,29.4063 C-3.94141,29.4063 -7.0332,28.1289 -9.61523,25.5742 C-12.1973,23.0195 -13.4883,19.9727 -13.4883,16.4336 C-13.4883,12.8398 -12.1973,9.78125 -9.61523,7.25781 C-7.0332,4.73438 -3.94141,3.47266 -0.339844,3.47266 "/>
</g>

<g fill="none" stroke="#000000" stroke-opacity="1" stroke-width="1" stroke-linecap="square" stroke-linejoin="bevel" transform="matrix(1,0,0,1,0,0)"
font-family="MS Shell Dlg 2" font-size="9.8" font-weight="400" font-style="normal" 
>
</g>

<g fill="#000000" fill-opacity="1" stroke="none" transform="matrix(1,0,0,1,15.8359,12.7344)"
font-family="MS Shell Dlg 2" font-size="9.8" font-weight="400" font-style="normal" 
>
<path vector-effect="none" fill-rule="nonzero" d="M-1.57031,4.22266 L-1.83984,4.22266 L-0.785156,11.6055 L-0.609375,11.6055 L-0.609375,4.12891 L-1.57031,4.22266 M0.1875,4.12891 L0.1875,11.7813 L0.796875,11.7813 L3.08203,4.65625 L2.90625,4.65625 C2.08594,4.42188 1.17969,4.24609 0.1875,4.12891 M-6.58594,5.80469 L-2.625,12.2148 L-1.48828,11.7813 L-2.44922,4.39844 L-2.625,4.39844 C-4.03125,4.51563 -5.35156,4.98438 -6.58594,5.80469 M3.87891,4.92578 L1.59375,12.0391 L2.29688,12.3086 L6.59766,6.33203 C6.01172,5.86328 5.10547,5.39453 3.87891,4.92578 M-9.83203,8.61719 L-9.83203,8.69922 L-4.03125,13.0938 L-3.24609,12.4844 L-7.19531,6.23828 C-7.49219,6.23828 -8.37109,7.03125 -9.83203,8.61719 M3.08203,12.8359 L3.43359,13.0938 L9.23438,8.96875 L9.23438,8.875 C8.41406,7.76563 7.76953,7.09375 7.30078,6.85938 L2.90625,12.8359 L3.08203,12.8359 M-10.3594,9.22656 C-11.3594,10.6953 -11.8594,11.8086 -11.8594,12.5664 L-5.08594,14.5 L-4.55859,13.6211 L-10.3594,9.22656 M3.96094,13.7148 L4.40625,14.418 L11.0859,12.3906 L11.0859,12.3086 C10.3828,10.4336 9.91406,9.49609 9.67969,9.49609 L3.96094,13.7148 M0.1875,12.3906 L0.0117188,14.2422 L0.1875,14.2422 L0.714844,12.4844 L0.1875,12.3906 M-2.19141,12.8359 L-1.3125,14.3242 L-0.960938,14.1484 L-1.3125,12.5664 L-2.19141,12.8359 M1.32422,12.6602 L0.714844,14.2422 L0.890625,14.3242 L1.85156,12.8359 L1.32422,12.6602 M4.93359,15.1211 L5.19141,16.2578 L11.8711,16.2578 L11.8711,16.082 C11.8711,15.2617 11.6953,14.2656 11.3438,13.0938 L4.93359,15.1211 M-12.2109,13.3633 C-12.3828,13.8867 -12.5273,14.7656 -12.6445,16 L-5.61328,16 L-5.53125,15.2031 L-12.2109,13.1875 L-12.2109,13.3633 M-3.42188,13.6211 L-2.19141,14.6758 L-1.92188,14.5 L-2.89453,13.0938 L-3.42188,13.6211 M2.55469,13.1875 L1.5,14.5 L1.67578,14.6758 L3,13.6211 L2.55469,13.1875 M-3.94922,14.1484 L-4.30078,14.7695 L-2.80078,15.2969 L-2.71875,14.9453 L-3.94922,14.1484 M2.02734,14.9453 L2.12109,15.2031 L3.78516,14.7695 L3.43359,14.1484 L2.02734,14.9453 M-2.36719,16.9609 C-2.36719,18.4844 -1.66406,19.2461 -0.257813,19.2461 C1.14844,19.1289 1.85156,18.3984 1.85156,17.0547 C1.79687,15.7031 1.09375,15 -0.257813,14.9453 C-1.66406,15 -2.36719,15.6719 -2.36719,16.9609 M-4.73438,15.3789 L-4.82813,16 L-3.15234,16.082 L-3.07031,15.8242 L-4.73438,15.3789 M2.37891,15.8242 L2.55469,16.2578 L4.40625,16.2578 L4.13672,15.3789 L2.37891,15.8242 M-12.6445,16.7852 C-12.6445,17.5508 -12.4687,18.6055 -12.1172,19.9492 L-5.61328,18.1914 L-5.78906,16.8789 L-5.78906,16.7852 L-12.6445,16.7852 M-5.00391,16.7852 L-4.82813,17.9336 L-3.15234,17.582 L-3.15234,16.7852 L-5.00391,16.7852 M2.64844,16.8789 L2.64844,17.3125 L4.40625,17.6641 L4.40625,16.8789 L2.64844,16.8789 M5.19141,16.8789 L5.19141,17.9336 L11.3438,19.9492 C11.5234,19.3086 11.6992,18.3438 11.8711,17.0547 L11.6133,16.8789 L5.19141,16.8789 M2.64844,17.8398 L2.64844,18.1914 L4.13672,19.0703 L4.3125,18.543 L2.64844,17.8398 M-4.73438,18.7188 L-4.30078,19.5156 L-2.80078,18.543 L-2.97656,18.1914 L-4.73438,18.7188 M5.01563,18.6367 L4.66406,19.5156 L9.76172,23.3828 C10.582,22.0313 10.9922,21.0938 10.9922,20.5703 L5.01563,18.6367 M2.29688,18.7188 L1.94531,19.1641 L3,20.4766 L3.70313,19.7734 L2.29688,18.7188 M-11.8594,20.7461 C-11.3281,21.918 -10.8281,22.8242 -10.3594,23.4648 L-5.00391,19.9492 C-5.23828,19.4258 -5.35547,19.0742 -5.35547,18.8945 L-11.8594,20.7461 M-2.44922,19.0703 L-3.77344,20.2188 L-2.97656,21.0039 L-1.83984,19.5156 L-2.44922,19.0703 M1.06641,19.7734 L1.5,21.5313 L2.47266,21.0039 L1.32422,19.5156 L1.06641,19.7734 M-2.19141,21.3555 L-1.13672,21.8008 L-0.785156,20.043 L-1.3125,19.9492 L-2.19141,21.3555 M-0.0820313,20.043 L-0.339844,21.8008 L0.796875,21.8008 L0.363281,20.043 L-0.0820313,20.043 M3.60938,21.0977 L7.125,26.0195 C7.42187,26.0195 8.125,25.3164 9.23438,23.9102 L4.40625,20.2188 L3.60938,21.0977 M-9.83203,23.9922 L-9.83203,24.168 C-8.66016,25.457 -7.87109,26.1914 -7.46484,26.3711 L-3.42188,21.625 L-4.47656,20.5703 L-9.83203,23.9922 M1.76953,22.3281 L3.35156,27.9531 L3.43359,27.9531 C4.01953,27.9531 5.04688,27.4844 6.51563,26.5469 L2.90625,21.625 L1.76953,22.3281 M-2.625,21.9766 L-6.66797,26.8984 C-5.20703,27.7734 -3.85937,28.2109 -2.625,28.2109 L-1.3125,22.4102 L-2.625,21.9766 M-1.92188,28.4805 L-1.66406,28.6563 L-0.0820313,28.6563 C1.73828,28.5938 2.64844,28.418 2.64844,28.1289 L1.06641,22.4102 L-0.515625,22.5859 L-1.92188,28.4805 M-0.339844,3.34375 C3.34766,3.34375 6.49609,4.61719 9.10547,7.16406 C11.7148,9.71094 13.0195,12.8008 13.0195,16.4336 C13.0195,20.0117 11.7148,23.0898 9.10547,25.668 C6.49609,28.2461 3.34766,29.5352 -0.339844,29.5352 C-3.97266,29.5352 -7.09375,28.2461 -9.70313,25.668 C-12.3125,23.0898 -13.6172,20.0117 -13.6172,16.4336 C-13.6172,12.8008 -12.3125,9.71094 -9.70313,7.16406 C-7.09375,4.61719 -3.97266,3.34375 -0.339844,3.34375 "/>
</g>

<g fill="none" stroke="#000000" stroke-opacity="1" stroke-width="1" stroke-linecap="square" stroke-linejoin="bevel" transform="matrix(1,0,0,1,0,0)"
font-family="MS Shell Dlg 2" font-size="9.8" font-weight="400" font-style="normal" 
>
</g>
</g>
</svg>
