<?xml version="1.0" encoding="UTF-8" standalone="no"?>
<svg width="11.2889mm" height="11.2889mm"
 viewBox="0 0 32 32"
 xmlns="http://www.w3.org/2000/svg" xmlns:xlink="http://www.w3.org/1999/xlink"  version="1.2" baseProfile="tiny">
<title>Qt SVG Document</title>
<desc>Generated with Qt</desc>
<defs>
</defs>
<g fill="none" stroke="black" stroke-width="1" fill-rule="evenodd" stroke-linecap="square" stroke-linejoin="bevel" >

<g fill="#ffff00" fill-opacity="1" stroke="none" transform="matrix(1,0,0,1,15.9219,12.7344)"
font-family="MS Shell Dlg 2" font-size="9.8" font-weight="400" font-style="normal" 
>
<path vector-effect="none" fill-rule="nonzero" d="M14.125,27.0039 C14.125,27.707 13.8965,28.2988 13.4395,28.7793 C12.9824,29.2598 12.4102,29.5 11.7227,29.5 L-11.5391,29.5 C-12.2422,29.5 -12.8281,29.2598 -13.2969,28.7793 C-13.7656,28.2988 -14,27.707 -14,27.0039 C-14,26.5586 -13.8516,26.1055 -13.5547,25.6445 L-2.04688,5.76953 C-1.58594,4.90234 -0.875,4.46875 0.0859375,4.46875 C1.23438,4.46875 2,4.98438 2.38281,6.01563 L13.6563,25.6094 C13.9688,25.9844 14.125,26.4492 14.125,27.0039 "/>
</g>

<g fill="none" stroke="#000000" stroke-opacity="1" stroke-width="1" stroke-linecap="square" stroke-linejoin="bevel" transform="matrix(1,0,0,1,0,0)"
font-family="MS Shell Dlg 2" font-size="9.8" font-weight="400" font-style="normal" 
>
</g>

<g fill="#000000" fill-opacity="1" stroke="none" transform="matrix(1,0,0,1,15.5781,12.7344)"
font-family="MS Shell Dlg 2" font-size="9.8" font-weight="400" font-style="normal" 
>
<path vector-effect="none" fill-rule="nonzero" d="M13.6094,27.0508 C13.6094,27.582 13.4316,28.0352 13.0762,28.4102 C12.7207,28.7852 12.2891,28.9727 11.7813,28.9727 L-11.4688,28.9727 C-11.9766,28.9727 -12.418,28.7852 -12.793,28.4102 C-13.168,28.0352 -13.3555,27.582 -13.3555,27.0508 C-13.3555,26.6055 -13.2383,26.2617 -13.0039,26.0195 L-1.50781,6.12109 C-1.14063,5.46484 -0.589844,5.13672 0.144531,5.13672 C0.988281,5.13672 1.57422,5.53516 1.90234,6.33203 L13.2109,25.9844 C13.4766,26.3203 13.6094,26.6758 13.6094,27.0508 M11.3125,26.6992 L0.144531,7.57422 L-11.0117,26.6992 L11.3125,26.6992 M-1.26172,14.0313 C-1.26172,13.9609 -1.23242,13.8965 -1.17383,13.8379 C-1.11523,13.7793 -1.04297,13.75 -0.957031,13.75 C-0.839844,13.75 -0.734375,13.7969 -0.640625,13.8906 L0.0390625,16.2227 L1.79688,17.2656 L5.23047,19.7266 L5.94531,22.1289 C5.94531,22.1523 5.95117,22.1699 5.96289,22.1816 C5.97461,22.1934 5.98047,22.2109 5.98047,22.2344 C5.98047,22.3281 5.94531,22.4043 5.875,22.4629 C5.80469,22.5215 5.71875,22.5508 5.61719,22.5508 C5.46094,22.5508 5.36719,22.4688 5.33594,22.3047 L4.64453,20.0781 L3.0625,19.0352 L0.625,21.8828 L-1.97656,23.2422 L-3.59375,25.8789 C-3.63281,25.9102 -3.68164,25.9355 -3.74023,25.9551 C-3.79883,25.9746 -3.84375,25.9844 -3.875,25.9844 C-3.96094,25.9844 -4.03906,25.9512 -4.10938,25.8848 C-4.17969,25.8184 -4.21484,25.7148 -4.21484,25.5742 L-2.43359,22.7148 L-0.464844,21.2734 L-4.17969,20.7227 L-6.89844,22.4102 C-6.96875,22.5039 -7.07031,22.5508 -7.20313,22.5508 C-7.27344,22.5508 -7.33789,22.5098 -7.39648,22.4277 C-7.45508,22.3457 -7.48438,22.2578 -7.48438,22.1641 C-7.48438,22.0938 -7.46289,22.0293 -7.41992,21.9707 C-7.37695,21.9121 -7.32813,21.8672 -7.27344,21.8359 L-4.25,19.9727 L-0.957031,20.4063 L1.22266,17.6641 L-0.5,16.7031 L-1.22656,14.207 C-1.25,14.1602 -1.26172,14.1016 -1.26172,14.0313 M2.45313,16.5391 C2.45313,16.2344 2.55469,15.9746 2.75781,15.7598 C2.96094,15.5449 3.22266,15.4375 3.54297,15.4375 C3.82422,15.4375 4.06641,15.5449 4.26953,15.7598 C4.47266,15.9746 4.57422,16.2344 4.57422,16.5391 C4.57422,16.8594 4.47266,17.1211 4.26953,17.3242 C4.06641,17.5273 3.82422,17.6289 3.54297,17.6289 C3.22266,17.6289 2.96094,17.5273 2.75781,17.3242 C2.55469,17.1211 2.45313,16.8594 2.45313,16.5391 M-8.82031,23.3477 L-5.83203,23.3477 L-5.83203,26.3359 L-6.07813,26.3359 L-6.07813,23.5703 L-8.82031,23.5703 L-8.82031,23.3477"/>
</g>

<g fill="none" stroke="#000000" stroke-opacity="1" stroke-width="1" stroke-linecap="square" stroke-linejoin="bevel" transform="matrix(1,0,0,1,0,0)"
font-family="MS Shell Dlg 2" font-size="9.8" font-weight="400" font-style="normal" 
>
</g>
</g>
</svg>
