<?xml version="1.0" encoding="UTF-8" standalone="no"?>
<svg width="11.2889mm" height="11.2889mm"
 viewBox="0 0 32 32"
 xmlns="http://www.w3.org/2000/svg" xmlns:xlink="http://www.w3.org/1999/xlink"  version="1.2" baseProfile="tiny">
<title>Qt SVG Document</title>
<desc>Generated with Qt</desc>
<defs>
</defs>
<g fill="none" stroke="black" stroke-width="1" fill-rule="evenodd" stroke-linecap="square" stroke-linejoin="bevel" >

<g fill="#ffffff" fill-opacity="1" stroke="none" transform="matrix(1,0,0,1,15.5703,12.7344)"
font-family="MS Shell Dlg 2" font-size="9.8" font-weight="400" font-style="normal" 
>
<path vector-effect="none" fill-rule="nonzero" d="M13.1875,6.49609 L13.1875,29.2656 L-13.7656,29.2656 L-13.7656,6.49609 L13.1875,6.49609"/>
</g>

<g fill="none" stroke="#000000" stroke-opacity="1" stroke-width="1" stroke-linecap="square" stroke-linejoin="bevel" transform="matrix(1,0,0,1,0,0)"
font-family="MS Shell Dlg 2" font-size="9.8" font-weight="400" font-style="normal" 
>
</g>

<g fill="#005ce6" fill-opacity="1" stroke="none" transform="matrix(1,0,0,1,15.7266,12.7344)"
font-family="MS Shell Dlg 2" font-size="9.8" font-weight="400" font-style="normal" 
>
<path vector-effect="none" fill-rule="nonzero" d="M12.8945,27.7539 L12.8945,6.82422 L-13.4727,6.82422 L-13.4727,28.4453 L-8.72656,20.793 L7.62109,20.793 L12.8945,27.7539 M2.04297,28.0938 L2.04297,28.1289 C2.04297,28.2305 2.10547,28.2813 2.23047,28.2813 C2.35547,28.2813 2.54297,28.2305 2.79297,28.1289 C3.03516,28.0352 3.26953,27.9883 3.49609,27.9883 C3.76172,27.9883 4.01172,28.0508 4.24609,28.1758 C4.49609,28.3086 4.67578,28.375 4.78516,28.375 C4.86328,28.375 4.90234,28.3359 4.90234,28.2578 C4.90234,28.0859 4.79883,27.8984 4.5918,27.6953 C4.38477,27.4922 4.15234,27.3438 3.89453,27.25 C3.80859,27.2266 3.71875,27.2148 3.625,27.2148 C3.39844,27.2148 3.12109,27.2852 2.79297,27.4258 C2.32422,27.6367 2.07422,27.8594 2.04297,28.0938 M-1.37891,27.6953 C-1.69141,27.8125 -1.84766,27.9531 -1.84766,28.1172 C-1.84766,28.1484 -1.83984,28.1836 -1.82422,28.2227 C-1.77734,28.3242 -1.67578,28.375 -1.51953,28.375 C-1.35547,28.375 -1.13281,28.3242 -0.851563,28.2227 C-0.578125,28.1211 -0.324219,28.0703 -0.0898438,28.0703 C0.144531,28.0703 0.359375,28.1211 0.554688,28.2227 C0.789063,28.3477 0.960938,28.4102 1.07031,28.4102 C1.14063,28.4102 1.1875,28.3906 1.21094,28.3516 C1.21875,28.3359 1.22266,28.3164 1.22266,28.293 C1.22266,28.1758 1.07031,27.9883 0.765625,27.7305 C0.476563,27.4883 0.183594,27.3672 -0.113281,27.3672 C-0.175781,27.3672 -0.234375,27.3711 -0.289063,27.3789 C-0.640625,27.4414 -1.00391,27.5469 -1.37891,27.6953 M-5.46875,28.0938 C-5.46875,28.2266 -5.38281,28.293 -5.21094,28.293 C-5.07813,28.293 -4.89844,28.2539 -4.67188,28.1758 C-4.45313,28.1055 -4.23828,28.0703 -4.02734,28.0703 C-3.74609,28.0703 -3.48047,28.1367 -3.23047,28.2695 C-2.99609,28.3945 -2.82031,28.457 -2.70313,28.457 C-2.60156,28.457 -2.54297,28.4063 -2.52734,28.3047 L-2.52734,28.2461 C-2.52734,28.0664 -2.64453,27.8945 -2.87891,27.7305 C-3.14453,27.5586 -3.48047,27.4414 -3.88672,27.3789 C-4.00391,27.3633 -4.11719,27.3555 -4.22656,27.3555 C-4.50781,27.3555 -4.76172,27.4102 -4.98828,27.5195 C-5.30859,27.668 -5.46875,27.8594 -5.46875,28.0938 M2.08984,29.0547 L4.63281,29.0547 C4.57813,28.7656 4.35938,28.5742 3.97656,28.4805 C3.78906,28.4414 3.60156,28.4219 3.41406,28.4219 C3.23438,28.4219 3.05469,28.4414 2.875,28.4805 C2.52344,28.5742 2.26172,28.7656 2.08984,29.0547 M-1.51953,29.0547 L1.03516,29.0547 C0.972656,28.7656 0.753906,28.5742 0.378906,28.4805 C0.183594,28.4414 -0.00781251,28.4219 -0.195313,28.4219 C-0.382813,28.4219 -0.574219,28.4414 -0.769531,28.4805 C-1.15234,28.5742 -1.40234,28.7656 -1.51953,29.0547 M-5.38672,29.0547 L-2.83203,29.0547 C-2.89453,28.7656 -3.11328,28.5742 -3.48828,28.4805 C-3.68359,28.4414 -3.875,28.4219 -4.0625,28.4219 C-4.25,28.4219 -4.44141,28.4414 -4.63672,28.4805 C-5.01953,28.5742 -5.26953,28.7656 -5.38672,29.0547 M-5.5625,23.4297 L-5.5625,27.3906 C-5.03125,27.0469 -4.55859,26.875 -4.14453,26.875 C-4.05859,26.875 -3.97266,26.8828 -3.88672,26.8984 C-3.41797,26.9922 -3.00781,27.1406 -2.65625,27.3438 C-2.46875,27.4531 -2.29297,27.5078 -2.12891,27.5078 C-1.98828,27.5078 -1.85547,27.4648 -1.73047,27.3789 C-1.47266,27.207 -1.0625,27.0625 -0.5,26.9453 C-0.34375,26.9141 -0.195313,26.8984 -0.0546875,26.8984 C0.296875,26.8984 0.585938,27 0.8125,27.2031 C1.07813,27.4531 1.31641,27.5781 1.52734,27.5781 C1.56641,27.5781 1.60547,27.5703 1.64453,27.5547 C1.87891,27.5 2.1582,27.3555 2.48242,27.1211 C2.80664,26.8867 3.14453,26.7539 3.49609,26.7227 L3.55469,26.7227 C3.90625,26.7227 4.38281,26.9453 4.98438,27.3906 L4.98438,23.4297 L-5.5625,23.4297 M13.4219,29.5 L-14,29.5 L-14,6.29688 L13.4219,6.29688 L13.4219,29.5"/>
</g>

<g fill="none" stroke="#000000" stroke-opacity="1" stroke-width="1" stroke-linecap="square" stroke-linejoin="bevel" transform="matrix(1,0,0,1,0,0)"
font-family="MS Shell Dlg 2" font-size="9.8" font-weight="400" font-style="normal" 
>
</g>
</g>
</svg>
