<?xml version="1.0" encoding="UTF-8" standalone="no"?>
<svg width="11.2889mm" height="11.2889mm"
 viewBox="0 0 32 32"
 xmlns="http://www.w3.org/2000/svg" xmlns:xlink="http://www.w3.org/1999/xlink"  version="1.2" baseProfile="tiny">
<title>Qt SVG Document</title>
<desc>Generated with Qt</desc>
<defs>
</defs>
<g fill="none" stroke="black" stroke-width="1" fill-rule="evenodd" stroke-linecap="square" stroke-linejoin="bevel" >

<g fill="#ffffff" fill-opacity="1" stroke="none" transform="matrix(1,0,0,1,15.6406,12.7344)"
font-family="MS Shell Dlg 2" font-size="9.8" font-weight="400" font-style="normal" 
>
<path vector-effect="none" fill-rule="nonzero" d="M-10.9688,6.29688 L10.5234,6.29688 C10.9766,6.35156 11.2031,6.57813 11.2031,6.97656 L11.2031,28.4688 C11.2031,28.9219 10.9766,29.1484 10.5234,29.1484 L-10.9688,29.1484 C-11.4219,29.1484 -11.6484,28.9219 -11.6484,28.4688 L-11.6484,6.97656 C-11.5859,6.52344 -11.3594,6.29688 -10.9688,6.29688 "/>
</g>

<g fill="none" stroke="#000000" stroke-opacity="1" stroke-width="1" stroke-linecap="square" stroke-linejoin="bevel" transform="matrix(1,0,0,1,0,0)"
font-family="MS Shell Dlg 2" font-size="9.8" font-weight="400" font-style="normal" 
>
</g>

<g fill="#38a800" fill-opacity="1" stroke="none" transform="matrix(1,0,0,1,15.875,12.7344)"
font-family="MS Shell Dlg 2" font-size="9.8" font-weight="400" font-style="normal" 
>
<path vector-effect="none" fill-rule="nonzero" d="M-1.71094,11.9219 C-1.65625,12.9141 -1.10156,13.4414 -0.046875,13.5039 C0.890625,13.3867 1.39063,12.8594 1.45313,11.9219 C1.39063,10.9844 0.863281,10.4844 -0.128906,10.4219 C-1.18359,10.4219 -1.71094,10.9219 -1.71094,11.9219 M9.89063,6.55469 L7.42969,9.10938 L7.42969,6.82422 L6.02344,8.3125 L6.02344,11.6523 L9.44531,11.6523 L10.7695,10.2461 L8.48438,10.2461 L11.0273,7.70313 L9.89063,6.55469 M-11.4727,7.70313 L-8.91797,10.2461 L-11.2031,10.2461 L-9.89063,11.6523 L-6.45703,11.6523 L-6.45703,8.3125 L-7.86328,6.82422 L-7.86328,9.10938 L-10.3242,6.55469 L-11.4727,7.70313 M10.8516,27.7422 L8.30859,25.1875 L10.5938,25.1875 L9.26953,23.7813 L5.84766,23.7813 L5.84766,27.1211 L7.25391,28.6211 L7.25391,26.3359 L9.71484,28.8789 L10.8516,27.7422 M-2.07422,17.7227 C-2.31641,17.1992 -2.46094,16.6719 -2.50781,16.1406 L-6.02344,16.1406 C-7.42969,16.1406 -8.13281,16.8438 -8.13281,18.25 L-8.13281,21.7656 L-7.25391,21.7656 L-7.25391,18.5078 C-7.25391,18.3359 -7.16406,18.25 -6.98438,18.25 C-6.8125,18.25 -6.72656,18.3359 -6.72656,18.5078 L-6.72656,21.7656 L-4.17188,21.7656 L-4.17188,18.8594 C-4.17188,18.1563 -3.82031,17.7773 -3.11719,17.7227 L-2.07422,17.7227 M3.38672,17.7227 C3.67578,17.7773 3.82031,17.9531 3.82031,18.25 L3.82031,21.7656 L5.67188,21.7656 L5.67188,18.6016 C5.67188,18.4219 5.77344,18.332 5.97656,18.332 C6.17969,18.332 6.28125,18.4219 6.28125,18.6016 L6.28125,21.7656 L7.6875,21.7656 L7.6875,18.25 C7.6875,16.8438 6.98437,16.1406 5.57813,16.1406 L2.0625,16.1406 C2.0625,16.6719 1.92969,17.1992 1.66406,17.7227 L3.38672,17.7227 M-3.11719,18.25 C-3.41406,18.3047 -3.5625,18.5078 -3.5625,18.8594 L-3.5625,24.2266 L-2.15625,24.2266 L-2.15625,20.7109 C-2.09375,20.4766 -1.97266,20.3594 -1.79297,20.3594 C-1.62109,20.3594 -1.50781,20.4766 -1.45313,20.7109 L-1.45313,24.2266 L1.35938,24.2266 L1.35938,20.7109 C1.42188,20.4766 1.54297,20.3594 1.72266,20.3594 C1.89453,20.3594 2.00781,20.4766 2.0625,20.7109 L2.0625,24.2266 L3.21094,24.2266 L3.21094,18.6836 C3.14844,18.3945 3,18.25 2.76563,18.25 L-3.11719,18.25 M-1.71094,15.8711 C-1.65625,16.9258 -1.10156,17.4844 -0.046875,17.5469 C0.890625,17.4297 1.35938,16.8711 1.35938,15.8711 C1.35938,14.8789 0.832031,14.3516 -0.222656,14.2891 C-1.21484,14.4063 -1.71094,14.9336 -1.71094,15.8711 M2.41406,13.8555 C2.53125,14.8477 3.11719,15.3438 4.17188,15.3438 C5.10938,15.2266 5.57813,14.6719 5.57813,13.6797 C5.52344,12.8594 4.99609,12.3906 3.99609,12.2734 C3.00391,12.3281 2.47656,12.8555 2.41406,13.8555 M-6.10547,13.8555 C-6.05078,14.8477 -5.55469,15.375 -4.61719,15.4375 C-3.5,15.375 -2.94141,14.875 -2.94141,13.9375 C-2.94141,12.8828 -3.46875,12.3281 -4.52344,12.2734 C-5.57812,12.3281 -6.10547,12.8555 -6.10547,13.8555 M-11.2969,5.94531 L10.8516,5.94531 C11.3203,6 11.5547,6.23438 11.5547,6.64844 L11.5547,28.7969 C11.5547,29.2656 11.3203,29.5 10.8516,29.5 L-11.2969,29.5 C-11.7656,29.5 -12,29.2656 -12,28.7969 L-12,6.64844 C-11.9375,6.17969 -11.7031,5.94531 -11.2969,5.94531 M-10.1484,28.7969 L-7.6875,26.2422 L-7.6875,28.5273 L-6.28125,27.0391 L-6.28125,23.6992 L-9.71484,23.6992 L-11.0273,25.1055 L-8.74219,25.1055 L-11.2969,27.6484 L-10.1484,28.7969"/>
</g>

<g fill="none" stroke="#000000" stroke-opacity="1" stroke-width="1" stroke-linecap="square" stroke-linejoin="bevel" transform="matrix(1,0,0,1,0,0)"
font-family="MS Shell Dlg 2" font-size="9.8" font-weight="400" font-style="normal" 
>
</g>
</g>
</svg>
