<?xml version="1.0" encoding="UTF-8" standalone="no"?>
<svg width="11.2889mm" height="11.2889mm"
 viewBox="0 0 32 32"
 xmlns="http://www.w3.org/2000/svg" xmlns:xlink="http://www.w3.org/1999/xlink"  version="1.2" baseProfile="tiny">
<title>Qt SVG Document</title>
<desc>Generated with Qt</desc>
<defs>
</defs>
<g fill="none" stroke="black" stroke-width="1" fill-rule="evenodd" stroke-linecap="square" stroke-linejoin="bevel" >

<g fill="#ffffff" fill-opacity="1" stroke="none" transform="matrix(1,0,0,1,15.9531,12.7344)"
font-family="MS Shell Dlg 2" font-size="9.8" font-weight="400" font-style="normal" 
>
<path vector-effect="none" fill-rule="nonzero" d="M-11.6328,16.4922 L-8.11719,16.4922 L-8.11719,17.0195 L6.29688,17.0195 L6.29688,16.4922 L9.8125,16.4922 L9.8125,17.0195 C13.3906,17.0195 15.2656,18.0156 15.4375,20.0078 L15.4375,25.6328 C15.4375,27.8594 13.5625,28.9727 9.8125,28.9727 L9.8125,29.5 L6.29688,29.5 L6.29688,28.9727 L-8.11719,28.9727 L-8.11719,29.5 L-11.6328,29.5 L-11.6328,28.9727 L-15.5,28.9727 L-15.5,17.0195 L-11.6328,17.0195 L-11.6328,16.4922 M10.1641,19.6563 L10.1641,26.3359 L11.9219,26.3359 L12.9766,25.5391 L12.9766,20.4414 L11.9219,19.6563 L10.1641,19.6563"/>
</g>

<g fill="none" stroke="#000000" stroke-opacity="1" stroke-width="1" stroke-linecap="square" stroke-linejoin="bevel" transform="matrix(1,0,0,1,0,0)"
font-family="MS Shell Dlg 2" font-size="9.8" font-weight="400" font-style="normal" 
>
</g>

<g fill="#e60000" fill-opacity="1" stroke="none" transform="matrix(1,0,0,1,15.9531,12.7344)"
font-family="MS Shell Dlg 2" font-size="9.8" font-weight="400" font-style="normal" 
>
<path vector-effect="none" fill-rule="nonzero" d="M-11.0117,17.8047 L-14.6211,17.8047 L-14.6211,28.0938 L-10.8359,28.0938 L-10.8359,28.7969 L-8.90234,28.7969 L-8.90234,28.0938 L7.17578,28.0938 L7.17578,28.7969 L9.02734,28.7969 L9.02734,28.0938 L10.1641,28.0938 C12.8672,28.0938 14.3047,27.2422 14.4766,25.5391 L14.4766,19.832 C14.0234,18.4805 12.5664,17.8047 10.1055,17.8047 L9.02734,17.8047 L9.02734,17.1953 L7,17.1953 L7,17.8047 L-8.82031,17.8047 L-8.82031,17.1953 L-11.0117,17.1953 L-11.0117,17.8047 M-11.6328,16.4922 L-8.11719,16.4922 L-8.11719,17.0195 L6.29688,17.0195 L6.29688,16.4922 L9.8125,16.4922 L9.8125,17.0195 C13.3906,17.0195 15.2656,18.0156 15.4375,20.0078 L15.4375,25.6328 C15.4375,27.8594 13.5625,28.9727 9.8125,28.9727 L9.8125,29.5 L6.29688,29.5 L6.29688,28.9727 L-8.11719,28.9727 L-8.11719,29.5 L-11.6328,29.5 L-11.6328,28.9727 L-15.5,28.9727 L-15.5,17.0195 L-11.6328,17.0195 L-11.6328,16.4922 M11.9219,19.6563 L12.9766,20.4414 L12.9766,25.5391 L11.9219,26.3359 L10.1641,26.3359 L10.1641,19.6563 L11.9219,19.6563"/>
</g>

<g fill="none" stroke="#000000" stroke-opacity="1" stroke-width="1" stroke-linecap="square" stroke-linejoin="bevel" transform="matrix(1,0,0,1,0,0)"
font-family="MS Shell Dlg 2" font-size="9.8" font-weight="400" font-style="normal" 
>
</g>

<g fill="#000000" fill-opacity="1" stroke="none" transform="matrix(1,0,0,1,7.96094,14.8359)"
font-family="MS Shell Dlg 2" font-size="9.8" font-weight="400" font-style="normal" 
>
<path vector-effect="none" fill-rule="nonzero" d="M-0.246094,3.5 L-2.46484,-2.22656 L-1.64453,-2.22656 L-0.15625,1.93359 C-0.0364583,2.26693 0.0638021,2.57943 0.144531,2.87109 C0.233073,2.55859 0.335938,2.24609 0.453125,1.93359 L2,-2.22656 L2.77344,-2.22656 L0.53125,3.5 L-0.246094,3.5"/>
</g>

<g fill="none" stroke="#000000" stroke-opacity="1" stroke-width="1" stroke-linecap="square" stroke-linejoin="bevel" transform="matrix(1,0,0,1,0,0)"
font-family="MS Shell Dlg 2" font-size="9.8" font-weight="400" font-style="normal" 
>
</g>

<g fill="#000000" fill-opacity="1" stroke="none" transform="matrix(1,0,0,1,13.5078,14.8359)"
font-family="MS Shell Dlg 2" font-size="9.8" font-weight="400" font-style="normal" 
>
<path vector-effect="none" fill-rule="nonzero" d="M-0.253906,3.5 L-0.253906,-2.22656 L0.503906,-2.22656 L0.503906,3.5 L-0.253906,3.5"/>
</g>

<g fill="none" stroke="#000000" stroke-opacity="1" stroke-width="1" stroke-linecap="square" stroke-linejoin="bevel" transform="matrix(1,0,0,1,0,0)"
font-family="MS Shell Dlg 2" font-size="9.8" font-weight="400" font-style="normal" 
>
</g>

<g fill="#000000" fill-opacity="1" stroke="none" transform="matrix(1,0,0,1,20.0078,14.8359)"
font-family="MS Shell Dlg 2" font-size="9.8" font-weight="400" font-style="normal" 
>
<path vector-effect="none" fill-rule="nonzero" d="M-2.51172,3.5 L-0.3125,-2.22656 L0.503906,-2.22656 L2.84766,3.5 L1.98438,3.5 L1.31641,1.76563 L-1.07813,1.76563 L-1.70703,3.5 L-2.51172,3.5 M-0.859375,1.14844 L1.08203,1.14844 L0.484375,-0.4375 C0.302083,-0.919271 0.166667,-1.3151 0.078125,-1.625 C0.00520834,-1.25781 -0.0976563,-0.893229 -0.230469,-0.53125 L-0.859375,1.14844"/>
</g>

<g fill="none" stroke="#000000" stroke-opacity="1" stroke-width="1" stroke-linecap="square" stroke-linejoin="bevel" transform="matrix(1,0,0,1,0,0)"
font-family="MS Shell Dlg 2" font-size="9.8" font-weight="400" font-style="normal" 
>
</g>
</g>
</svg>
