<?xml version="1.0" encoding="UTF-8" standalone="no"?>
<svg width="11.2889mm" height="11.2889mm"
 viewBox="0 0 32 32"
 xmlns="http://www.w3.org/2000/svg" xmlns:xlink="http://www.w3.org/1999/xlink"  version="1.2" baseProfile="tiny">
<title>Qt SVG Document</title>
<desc>Generated with Qt</desc>
<defs>
</defs>
<g fill="none" stroke="black" stroke-width="1" fill-rule="evenodd" stroke-linecap="square" stroke-linejoin="bevel" >

<g fill="#ff0000" fill-opacity="1" stroke="none" transform="matrix(1,0,0,1,15.9844,12.7344)"
font-family="MS Shell Dlg 2" font-size="9.8" font-weight="400" font-style="normal" 
>
<path vector-effect="none" fill-rule="nonzero" d="M22.6797,8.21875 L22.6797,10.8438 L0.0742188,14.5 L0.0742188,5.34766 L22.6797,8.21875 M0.15625,4.94922 L0.15625,5.07813 L-0.0664063,5.07813 L-0.0664063,4.94922 L0.15625,4.94922 M0.109375,29.2422 L0.109375,29.4063 L-0.0898438,29.4063 L-0.0898438,29.2422 L0.109375,29.2422"/>
</g>

<g fill="none" stroke="#000000" stroke-opacity="1" stroke-width="1" stroke-linecap="square" stroke-linejoin="bevel" transform="matrix(1,0,0,1,0,0)"
font-family="MS Shell Dlg 2" font-size="9.8" font-weight="400" font-style="normal" 
>
</g>

<g fill="#ffffff" fill-opacity="1" stroke="none" transform="matrix(1,0,0,1,13.1328,12.7344)"
font-family="MS Shell Dlg 2" font-size="9.8" font-weight="400" font-style="normal" 
>
<path vector-effect="none" fill-rule="nonzero" d="M9.61328,6.53125 L9.61328,13.0586 L5.06641,13.7969 L5.06641,5.99219 L9.61328,6.53125 M14.2539,7.15234 L18.4023,7.69141 L18.4023,11.6406 L14.2539,12.3086 L14.2539,7.15234 M0.109375,4.9375 L0.109375,5.07813 L-0.101563,5.07813 L-0.101563,4.9375 L0.109375,4.9375 M0.296875,29.3008 L0.296875,29.4414 L0.0859375,29.4414 L0.0859375,29.3008 L0.296875,29.3008"/>
</g>

<g fill="none" stroke="#000000" stroke-opacity="1" stroke-width="1" stroke-linecap="square" stroke-linejoin="bevel" transform="matrix(1,0,0,1,0,0)"
font-family="MS Shell Dlg 2" font-size="9.8" font-weight="400" font-style="normal" 
>
</g>

<g fill="#000000" fill-opacity="1" stroke="none" transform="matrix(1,0,0,1,15.9844,12.7344)"
font-family="MS Shell Dlg 2" font-size="9.8" font-weight="400" font-style="normal" 
>
<path vector-effect="none" fill-rule="nonzero" d="M0.578125,4.89063 L22.457,7.85547 C22.5977,7.87891 22.6719,7.95703 22.6797,8.08984 L22.6797,10.9727 C22.6719,11.0898 22.5859,11.168 22.4219,11.207 L0.613281,14.9336 L0.613281,29.5 L-0.148438,29.5 L-0.148438,4.89063 L0.578125,4.89063 M0.613281,5.81641 L0.613281,13.7852 L21.9766,10.5977 L21.9766,8.44141 L0.613281,5.81641"/>
</g>

<g fill="none" stroke="#000000" stroke-opacity="1" stroke-width="1" stroke-linecap="square" stroke-linejoin="bevel" transform="matrix(1,0,0,1,0,0)"
font-family="MS Shell Dlg 2" font-size="9.8" font-weight="400" font-style="normal" 
>
</g>
</g>
</svg>
