<?xml version="1.0" encoding="UTF-8" standalone="no"?>
<svg width="11.2889mm" height="11.2889mm"
 viewBox="0 0 32 32"
 xmlns="http://www.w3.org/2000/svg" xmlns:xlink="http://www.w3.org/1999/xlink"  version="1.2" baseProfile="tiny">
<title>Qt SVG Document</title>
<desc>Generated with Qt</desc>
<defs>
</defs>
<g fill="none" stroke="black" stroke-width="1" fill-rule="evenodd" stroke-linecap="square" stroke-linejoin="bevel" >

<g fill="#ff0000" fill-opacity="1" stroke="none" transform="matrix(1,0,0,1,14.3438,15.9297)"
font-family="MS Shell Dlg 2" font-size="9.8" font-weight="400" font-style="normal" 
>
<path vector-effect="none" fill-rule="nonzero" d="M2.916,-4.444 L0.484,-1.548 L3.172,-1.548 L0.404,1.412 L2.724,1.412 L-2.844,6.404 L-0.38,2.484 L-2.972,2.484 C-2.95067,2.484 -2.06533,1.40133 -0.316,-0.764 L-2.956,-0.764 C-1.932,-1.98 -1.16933,-2.9 -0.668,-3.524 C-0.166667,-4.148 0.0733334,-4.46 0.052,-4.46 L2.916,-4.444"/>
</g>

<g fill="none" stroke="#000000" stroke-opacity="1" stroke-width="1" stroke-linecap="square" stroke-linejoin="bevel" transform="matrix(1,0,0,1,0,0)"
font-family="MS Shell Dlg 2" font-size="9.8" font-weight="400" font-style="normal" 
>
</g>

<g fill="#ff0000" fill-opacity="1" stroke="none" transform="matrix(1,0,0,1,16,15.8438)"
font-family="MS Shell Dlg 2" font-size="9.8" font-weight="400" font-style="normal" 
>
<path vector-effect="none" fill-rule="nonzero" d="M12.7,6.24 L12.7,4.56 L8.476,4.56 C8.284,2.896 7.66,1.408 6.604,0.0960007 L9.58,-2.928 L8.428,-4.08 L5.404,-1.104 C4.092,-2.16 2.604,-2.784 0.940001,-2.976 L0.940001,-7.2 L-0.74,-7.2 L-0.74,-2.976 C-2.436,-2.784 -3.924,-2.16 -5.204,-1.104 L-8.228,-4.08 L-9.38,-2.928 L-6.404,0.0960007 C-7.46,1.408 -8.084,2.896 -8.276,4.56 L-12.5,4.56 L-12.5,6.24 L-8.276,6.24 C-8.084,7.936 -7.46,9.424 -6.404,10.704 L-9.38,13.728 L-8.228,14.88 L-5.204,11.904 C-3.924,12.96 -2.436,13.584 -0.74,13.776 L-0.74,18 L0.940001,18 L0.940001,13.776 C2.604,13.584 4.092,12.96 5.404,11.904 L8.428,14.88 L9.58,13.728 L6.604,10.704 C7.66,9.424 8.284,7.936 8.476,6.24 L12.7,6.24 M6.796,5.424 C6.796,7.248 6.14,8.816 4.828,10.128 C3.516,11.44 1.932,12.096 0.0760002,12.096 C-1.684,12.096 -3.268,11.44 -4.676,10.128 C-5.988,8.816 -6.644,7.248 -6.644,5.424 C-6.644,3.568 -5.988,1.984 -4.676,0.671999 C-3.268,-0.64 -1.684,-1.296 0.0760002,-1.296 C1.932,-1.296 3.516,-0.64 4.828,0.671999 C6.14,1.984 6.796,3.568 6.796,5.424 "/>
</g>

<g fill="none" stroke="#000000" stroke-opacity="1" stroke-width="1" stroke-linecap="square" stroke-linejoin="bevel" transform="matrix(1,0,0,1,0,0)"
font-family="MS Shell Dlg 2" font-size="9.8" font-weight="400" font-style="normal" 
>
</g>
</g>
</svg>
