<?xml version="1.0" encoding="UTF-8" standalone="no"?>
<svg width="11.2889mm" height="11.2889mm"
 viewBox="0 0 32 32"
 xmlns="http://www.w3.org/2000/svg" xmlns:xlink="http://www.w3.org/1999/xlink"  version="1.2" baseProfile="tiny">
<title>Qt SVG Document</title>
<desc>Generated with Qt</desc>
<defs>
</defs>
<g fill="none" stroke="black" stroke-width="1" fill-rule="evenodd" stroke-linecap="square" stroke-linejoin="bevel" >

<g fill="#ffff00" fill-opacity="1" stroke="none" transform="matrix(1,0,0,1,15.4375,12.7344)"
font-family="MS Shell Dlg 2" font-size="9.8" font-weight="400" font-style="normal" 
>
<path vector-effect="none" fill-rule="nonzero" d="M-0.195313,5.93359 L-0.113281,5.93359 C0.0585937,6.04297 2.37109,9.99219 6.82422,17.7813 L13.1641,28.7266 L13.1641,28.8906 L-13.1445,28.8906 L-13.3086,28.8086 C-4.73828,13.8867 -0.367188,6.26172 -0.195313,5.93359 "/>
</g>

<g fill="none" stroke="#000000" stroke-opacity="1" stroke-width="1" stroke-linecap="square" stroke-linejoin="bevel" transform="matrix(1,0,0,1,0,0)"
font-family="MS Shell Dlg 2" font-size="9.8" font-weight="400" font-style="normal" 
>
</g>

<g fill="#000000" fill-opacity="1" stroke="none" transform="matrix(1,0,0,1,15.9063,12.7344)"
font-family="MS Shell Dlg 2" font-size="9.8" font-weight="400" font-style="normal" 
>
<path vector-effect="none" fill-rule="nonzero" d="M-2.62109,20.0664 C-1.01172,20.0664 -0.0546875,20.7656 0.25,22.1641 C0.304688,22.4375 0.332031,22.7461 0.332031,23.0898 L0.332031,23.2656 C0.316406,24.7734 -0.25,25.707 -1.36719,26.0664 C-1.75781,26.1914 -2.18359,26.2539 -2.64453,26.2539 C-3.92578,26.2539 -4.81641,25.8125 -5.31641,24.9297 C-5.52734,24.4375 -5.63281,23.8672 -5.63281,23.2188 L-5.63281,23.0898 C-5.63281,21.0742 -4.62891,20.0664 -2.62109,20.0664 M-3.76953,23.1719 C-3.76953,24.3281 -3.56641,24.9961 -3.16016,25.1758 C-2.98828,25.2461 -2.80078,25.2813 -2.59766,25.2813 C-2.08984,25.2813 -1.76953,24.9961 -1.63672,24.4258 C-1.56641,24.0742 -1.53125,23.6484 -1.53125,23.1484 C-1.53125,21.8828 -1.76953,21.2031 -2.24609,21.1094 C-2.33203,21.0625 -2.45703,21.0391 -2.62109,21.0391 L-2.66797,21.0391 C-3.23047,21.0391 -3.56641,21.3516 -3.67578,21.9766 C-3.73828,22.3594 -3.76953,22.7578 -3.76953,23.1719 M2.35938,17.6758 L2.44141,17.6758 C2.98828,17.6758 3.375,17.8984 3.60156,18.3438 C3.66406,18.4922 3.69531,18.6445 3.69531,18.8008 L3.69531,18.8125 C3.69531,19.3125 3.42969,19.7969 2.89844,20.2656 C2.42969,20.6875 2.17969,20.9453 2.14844,21.0391 L3.68359,21.0391 L3.69531,21.0508 L3.69531,21.7539 C3.69531,21.7617 3.69141,21.7656 3.68359,21.7656 L0.976563,21.7656 C0.96875,21.7656 0.964844,21.7617 0.964844,21.7539 C0.980469,21.5352 1.0625,21.2891 1.21094,21.0156 C1.27344,20.8906 1.47266,20.6523 1.80859,20.3008 C2.25391,19.8789 2.5625,19.5703 2.73438,19.375 C2.85156,19.1953 2.91016,19.0195 2.91016,18.8477 C2.91016,18.5898 2.79297,18.4219 2.55859,18.3438 C2.49609,18.3281 2.44141,18.3203 2.39453,18.3203 C2.15234,18.3203 1.98828,18.4219 1.90234,18.625 C1.86328,18.7422 1.83984,18.8516 1.83203,18.9531 L1.82031,18.9648 C1.34375,18.918 1.08984,18.8906 1.05859,18.8828 L1.05859,18.8711 C1.05859,18.7773 1.09375,18.6172 1.16406,18.3906 C1.27344,18.1328 1.45703,17.9414 1.71484,17.8164 C1.92578,17.7227 2.14063,17.6758 2.35938,17.6758 M-0.195313,5.32422 L-0.113281,5.32422 C0.0664062,5.44141 2.5,9.60156 7.1875,17.8047 L13.8672,29.3242 L13.8672,29.5 L-13.8242,29.5 L-14,29.4063 C-4.97656,13.7031 -0.375,5.67578 -0.195313,5.32422 M-10.3906,27.2969 L10.1758,27.2969 L10.1758,27.2148 L-0.0195313,9.46094 C-0.253906,9.63281 -2.74609,13.9375 -7.49609,22.375 C-7.55078,22.375 -8.51563,24.0156 -10.3906,27.2969 "/>
</g>

<g fill="none" stroke="#000000" stroke-opacity="1" stroke-width="1" stroke-linecap="square" stroke-linejoin="bevel" transform="matrix(1,0,0,1,0,0)"
font-family="MS Shell Dlg 2" font-size="9.8" font-weight="400" font-style="normal" 
>
</g>
</g>
</svg>
