<?xml version="1.0" encoding="UTF-8" standalone="no"?>
<svg width="11.2889mm" height="11.2889mm"
 viewBox="0 0 32 32"
 xmlns="http://www.w3.org/2000/svg" xmlns:xlink="http://www.w3.org/1999/xlink"  version="1.2" baseProfile="tiny">
<title>Qt SVG Document</title>
<desc>Generated with Qt</desc>
<defs>
</defs>
<g fill="none" stroke="black" stroke-width="1" fill-rule="evenodd" stroke-linecap="square" stroke-linejoin="bevel" >
<g fill="#ffffff" fill-opacity="1" stroke="none" transform="matrix(1,0,0,1,15.75,12.7344)" font-family="MS Shell Dlg 2" font-size="9.8" font-weight="400" font-style="normal" >
<path vector-effect="none" fill-rule="nonzero" d="M-0.078125,5.73438 C3.29687,5.8125 6.10742,6.95898 8.35352,9.17383 C10.5996,11.3887 11.7813,14.1563 11.8984,17.4766 C11.5859,20.8984 10.373,23.5898 8.25977,25.5508 C6.14648,27.5117 3.36719,28.707 -0.078125,29.1367 C-3.40625,29.1367 -6.24805,28 -8.60352,25.7266 C-10.959,23.4531 -12.1367,20.7031 -12.1367,17.4766 C-12.1367,14.1953 -10.959,11.418 -8.60352,9.14453 C-6.24805,6.87109 -3.40625,5.73438 -0.078125,5.73438 "/>
</g>

<g fill="none" stroke="#000000" stroke-opacity="1" stroke-width="1" stroke-linecap="square" stroke-linejoin="bevel" transform="matrix(1,0,0,1,0,0)" font-family="MS Shell Dlg 2" font-size="9.8" font-weight="400" font-style="normal">
</g>

<g fill="#005ce6" fill-opacity="1" stroke="none" transform="matrix(1,0,0,1,16.0937,1)"
font-family="MS Shell Dlg 2" font-size="9.8" font-weight="400" font-style="normal" 
>
<path vector-effect="none" fill-rule="nonzero" d="M-11.7148,17.4648 L-11.7148,17.9805 C-11.668,18.8477 -11.4922,19.2813 -11.1875,19.2813 C-9.97656,18.5781 -9.23828,18.2266 -8.97266,18.2266 C-8.71484,18.2266 -8.41406,18.3789 -8.07031,18.6836 C-7.89844,18.8398 -7.69531,18.918 -7.46094,18.918 C-7.21875,18.918 -6.94531,18.8398 -6.64063,18.6836 C-6.03906,18.3789 -5.45313,18.207 -4.88281,18.168 L0.507813,15.1094 L-0.195313,13.9609 L-3.91016,15.1094 L-4.16797,14.5938 L-0.0078125,12.25 L5.85156,19.4805 C6.0625,19.293 6.44141,18.9961 6.98828,18.5898 C7.24609,18.3945 7.54297,18.2969 7.87891,18.2969 C8.23047,18.2969 8.62891,18.4063 9.07422,18.625 C9.91797,19.0625 10.6211,19.2813 11.1836,19.2813 C11.4492,19.1563 11.6016,18.5039 11.6406,17.3242 C11.6406,14.0664 10.5117,11.334 8.25391,9.12695 C5.99609,6.91992 3.24219,5.78906 -0.0078125,5.73438 C-3.25781,5.73438 -6.00977,6.88672 -8.26367,9.19141 C-10.5176,11.4961 -11.668,14.2539 -11.7148,17.4648 M-11.3984,20.1484 C-11.4219,20.2266 -11.4336,20.293 -11.4336,20.3477 C-11.4336,20.4648 -11.3672,20.5313 -11.2344,20.5469 L-11.1992,20.5469 C-10.9961,20.5469 -10.668,20.3828 -10.2148,20.0547 C-9.73047,19.7109 -9.33594,19.5391 -9.03125,19.5391 C-8.73438,19.5391 -8.44531,19.668 -8.16406,19.9258 C-7.88281,20.1836 -7.66406,20.3125 -7.50781,20.3125 C-7.35938,20.3125 -7.06836,20.1836 -6.63477,19.9258 C-6.20117,19.668 -5.83203,19.5156 -5.52734,19.4688 C-5.37109,19.4531 -5.24219,19.4453 -5.14063,19.4453 C-5.03125,19.4453 -4.94531,19.4531 -4.88281,19.4688 C-4.75781,19.5156 -4.52148,19.668 -4.17383,19.9258 C-3.82617,20.1836 -3.47656,20.3125 -3.125,20.3125 C-2.78125,20.3125 -2.44727,20.1836 -2.12305,19.9258 C-1.79883,19.668 -1.49219,19.5391 -1.20313,19.5391 C-0.921875,19.5391 -0.542969,19.7129 -0.0664063,20.0605 C0.410156,20.4082 0.714844,20.582 0.847656,20.582 C0.972656,20.582 1.33789,20.4082 1.94336,20.0605 C2.54883,19.7129 2.99609,19.4961 3.28516,19.4102 C3.42578,19.3633 3.55078,19.3398 3.66016,19.3398 C3.76953,19.3398 3.85938,19.3633 3.92969,19.4102 C4.07813,19.4961 4.41406,19.8203 4.9375,20.3828 C5.20313,20.6719 5.47656,20.8164 5.75781,20.8164 C6.03906,20.8164 6.33203,20.6719 6.63672,20.3828 C7.24609,19.8203 7.72266,19.5391 8.06641,19.5391 C8.41016,19.5391 8.74414,19.668 9.06836,19.9258 C9.39258,20.1836 9.76563,20.3359 10.1875,20.3828 C10.4766,20.4141 10.707,20.4297 10.8789,20.4297 C10.957,20.4297 11.0195,20.4258 11.0664,20.418 C11.2383,20.4023 11.3242,20.293 11.3242,20.0898 C11.3242,19.9414 11.2422,19.8672 11.0781,19.8672 C11.0313,19.8672 10.9727,19.875 10.9023,19.8906 C10.8633,19.8984 10.8242,19.9023 10.7852,19.9023 C10.457,19.9023 9.86719,19.6836 9.01563,19.2461 C8.63281,19.0508 8.28125,18.9531 7.96094,18.9531 C7.46875,18.9531 7.05078,19.1914 6.70703,19.668 C6.40234,20.082 6.10156,20.2891 5.80469,20.2891 C5.53906,20.2891 5.27344,20.125 5.00781,19.7969 C4.4375,19.1016 4.06641,18.7344 3.89453,18.6953 C3.80859,18.6719 3.72656,18.6602 3.64844,18.6602 C3.57031,18.6602 3.49219,18.6719 3.41406,18.6953 C3.26563,18.7344 2.8125,18.9805 2.05469,19.4336 C1.67969,19.668 1.33594,19.7852 1.02344,19.7852 C0.710938,19.7852 0.4375,19.668 0.203125,19.4336 C-0.28125,18.9805 -0.652344,18.7539 -0.910156,18.7539 C-1.17578,18.7539 -1.55469,18.9063 -2.04688,19.2109 C-2.48438,19.4844 -2.82813,19.6211 -3.07813,19.6211 C-3.11719,19.6211 -3.15234,19.6172 -3.18359,19.6094 C-3.44922,19.5625 -3.76758,19.4082 -4.13867,19.1465 C-4.50977,18.8848 -4.8125,18.7422 -5.04688,18.7188 L-5.09375,18.7188 C-5.34375,18.7188 -5.85938,18.8906 -6.64063,19.2344 C-7.02344,19.4063 -7.35156,19.4922 -7.625,19.4922 C-7.94531,19.4922 -8.19141,19.375 -8.36328,19.1406 C-8.52734,18.9297 -8.75,18.8242 -9.03125,18.8242 C-9.3125,18.8242 -9.65625,18.9297 -10.0625,19.1406 C-10.8672,19.5781 -11.3125,19.9141 -11.3984,20.1484 M-0.0078125,5.11328 C3.41406,5.11328 6.33984,6.30273 8.76953,8.68164 C11.1992,11.0605 12.4141,13.9414 12.4141,17.3242 C12.4141,20.6602 11.1992,23.5234 8.76953,25.9141 C6.33984,28.3047 3.41406,29.5 -0.0078125,29.5 C-3.47656,29.5 -6.42578,28.3047 -8.85547,25.9141 C-11.2852,23.5234 -12.5,20.6602 -12.5,17.3242 C-12.5,13.9414 -11.2852,11.0605 -8.85547,8.68164 C-6.42578,6.30273 -3.47656,5.11328 -0.0078125,5.11328 M4.86719,13.4336 C5.3125,13.4336 5.68555,13.584 5.98633,13.8848 C6.28711,14.1855 6.4375,14.5547 6.4375,14.9922 C6.4375,15.375 6.28711,15.7207 5.98633,16.0293 C5.68555,16.3379 5.3125,16.4922 4.86719,16.4922 C4.39063,16.4922 4.00195,16.3379 3.70117,16.0293 C3.40039,15.7207 3.25,15.375 3.25,14.9922 C3.25,14.5547 3.40039,14.1855 3.70117,13.8848 C4.00195,13.584 4.39063,13.4336 4.86719,13.4336 "/>
</g>

<g fill="none" stroke="#000000" stroke-opacity="1" stroke-width="1" stroke-linecap="square" stroke-linejoin="bevel" transform="matrix(1,0,0,1,0,0)"
font-family="MS Shell Dlg 2" font-size="9.8" font-weight="400" font-style="normal" 
>
</g>
</g>
</svg>
