<?xml version="1.0" encoding="utf-8"?>
<!-- Generator: Adobe Illustrator 24.0.2, SVG Export Plug-In . SVG Version: 6.00 Build 0)  -->
<svg version="1.1" xmlns="http://www.w3.org/2000/svg" xmlns:xlink="http://www.w3.org/1999/xlink" x="0px" y="0px"
	 viewBox="0 0 141.7 123.9" style="enable-background:new 0 0 141.7 123.9;" xml:space="preserve">
<style type="text/css">
	.st0{fill:#FFFFFF;}
	.st1{fill:#1D1D1B;}
	.st2{fill-rule:evenodd;clip-rule:evenodd;fill:#1D1D1B;}
</style>
<g id="Laag_2">
	<rect y="0" class="st0" width="141.7" height="123.9"/>
</g>
<g id="Laag_1">
	<title>R-NL-008 Hoefdieren groot</title>
	<path class="st1" d="M70.9,4l67.4,117.9H3.5L70.9,4 M70.9,0L0,123.9h141.7L70.9,0z"/>
	<path class="st2" d="M98.5,104.7c0,0.8,0,1.6-0.1,2.4c0,0.8,0.1,1.7,0.2,2.5c0.1,1.4,0.4,2.8,0.9,4.2c0.1,0.6,0.1,1.2-0.2,1.7
		c-0.1,0.3-0.3,0.4-0.6,0.1s-0.5-0.2-0.6,0.2c-0.1,0.5-0.1,1-0.3,1.4c-0.1,0.5-0.6,0.9-1.1,1c-0.9,0.2-1.9,0.3-2.8,0.1
		c-0.8-0.2-0.9-0.4-0.4-1.1c0.5-0.7,1.1-1.4,1.8-1.8c0.4-0.3,0.7-0.7,0.7-1.2c0.2-2,0.1-4-0.3-6c-0.1-0.5-0.3-1-0.6-1.3
		c-0.4-0.5-0.5-1.3-0.9-1.8c-0.1-0.2-0.2-0.5-0.4-0.5s-0.3,0.4-0.4,0.6c-0.1,0.4-0.1,0.8-0.1,1.2c0,0.7-0.3,1.2-0.7,1.2
		s-0.7-0.2-1-0.9l-0.1-0.3c-0.1-0.7-0.8-1.2-1.5-1.1c0,0,0,0,0,0c-0.3,0-0.6,0.2-0.6,0.5c0,0,0,0,0,0c0,0.3-0.1,0.7-0.2,1
		c0,0.4-0.3,0.7-0.7,0.7c-0.4,0-0.6-0.3-0.7-0.6c-0.1-0.4-0.2-0.9-0.2-1.4c0-0.4-0.3-0.8-0.7-0.9c-0.6-0.3-1.2-0.7-1.6-1.2
		c-0.3-0.3-0.5-0.6-0.8-0.8c-0.6-0.6-1.5-0.8-2.2-0.5c-1.5,0.5-3.1,0.6-4.6,0.4c-1.5-0.1-2.9-0.5-4.3-0.9c-0.7-0.2-0.7-0.2-0.9,0.5
		s-0.4,1.5-0.7,2.2c-0.2,0.6-0.3,1.2-0.3,1.8c0,0.4,0,0.9-0.1,1.3c-0.4,2.4-0.3,4.9,0.2,7.3c0.1,0.4,0.1,0.8,0.2,1.2
		c0,0.5-0.3,0.6-0.7,0.4s-0.4-0.1-0.6,0.2c-0.6,1.5-2.3,2.3-3.9,1.7c0,0-0.1,0-0.1-0.1c-0.9-0.3-1-0.8-0.3-1.5
		c0.4-0.4,0.8-0.7,1.3-0.9c0.6-0.3,1-0.8,1.1-1.5c0.3-1.5,0.4-3,0.3-4.5c0.1-0.6,0-1.3-0.3-1.8c-0.1-0.2-0.2-0.5-0.2-0.8
		c-0.2-1.4-0.8-2.8-1.7-3.8l-1.1-1.4c-0.2,1.3-0.4,2.4-0.5,3.5c0,0.9-0.1,1.8-0.2,2.6c-0.2,2.3-0.1,4.6,0.4,6.8
		c0.1,0.3,0.1,0.7,0.1,1c0,0.4-0.3,0.6-0.6,0.3s-0.5-0.1-0.7,0.2c-0.6,1.5-2.4,2.3-3.9,1.6c0,0-0.1,0-0.1,0c-0.9-0.3-1-0.8-0.3-1.4
		c0.4-0.4,0.8-0.7,1.3-0.9c0.7-0.3,1.2-1.1,1.3-1.9c0.2-1.4,0.3-2.8,0.2-4.3c0-0.6-0.1-1.3-0.4-1.9c-0.2-0.6-0.4-1.3-0.5-1.9
		c-0.5-1.2-1.3-2.4-2.1-3.4c-1.1-1.5-2.4-2.9-3.5-4.5c-0.5-0.8-0.9-1.7-1.2-2.6c-0.5-1.8-1.4-3.5-2.6-5c-1-1.3-1.8-2.6-2.7-3.9
		c-0.2-0.3-0.5-0.7-0.7-1c-0.5-0.9-1.5-1.4-2.5-1.1c-1,0.1-2,0.1-3,0c-0.4,0-0.7,0-1,0.1c-1.2,0.2-2.3,0.3-3.5,0.6
		c-0.4,0.1-0.8,0.1-1.2,0c-0.8,0-1.5-0.6-1.7-1.4c0-0.2-0.1-0.3-0.1-0.5c-0.3-0.7,0-1.4,0.7-1.7c0.7-0.5,1.4-1.1,2-1.7
		c0.7-0.8,1.4-1.7,1.9-2.7c0.1-0.2,0.2-0.4,0.2-0.5c0.2-0.6,0.1-0.7-0.5-0.8c-0.9-0.1-1.7-0.6-2.2-1.3c-0.2-0.2-0.3-0.5-0.1-0.7
		c0.1-0.1,0.1-0.1,0.2-0.2c0.6-0.4,1.4-0.6,2.1-0.5c0.7,0.1,1.4,0.3,2,0.6c0.4,0.1,0.6,0.1,0.8-0.3c0.3-0.5,0.6-1,1-1.4
		c0.5-0.5,0.3-1.1,0.1-1.7c-0.2-0.6-0.5-1.1-0.9-1.6c0.2-0.2,0.3,0,0.4,0c1,0.5,1.7,1.3,2.1,2.3c0.1,0.3,0.2,0.5,0.6,0.6
		c0.4,0,0.9,0.2,1.2,0.4c0.3,0.2,0.6,0.1,0.8-0.1c0.9-0.9,1.3-2.3,1-3.6c0-0.2-0.1-0.3-0.1-0.5s0-0.1,0-0.1c0.2,0,0.3,0.2,0.4,0.4
		c1.1,1.4,1.3,3.4,0.4,5c-0.2,0.3-0.1,0.5,0.2,0.7c2.2,1.4,4.5,2.4,7,3.1c1.3,0.5,2.6,0.8,3.9,1c0.8,0.1,1.6,0.1,2.5,0
		c1.7-0.1,3.5-0.1,5.2,0.1c1.8,0.2,3.6,0.3,5.4,0.4c2.4,0.1,4.8,0.2,7.2,0.3s5-0.2,7.5-0.4c0.9-0.1,1.7,0.1,2.6,0
		c2.2-0.1,4.4-0.2,6.5-0.1c0.9,0,1.8,0.1,2.6,0.4c2.3,0.7,4,2.7,4.3,5.2c0.3,2.1,0.3,4.2,0.1,6.3c-0.3,2.9,0,5.8,0.9,8.6
		c0.8,2.3,0.1,4.5-0.9,6.5c-0.1,0.1-0.1,0.3-0.3,0.3s-0.1-0.2-0.1-0.4c0-0.7-0.2-1.3-0.4-1.9c-0.5-1.4-0.8-2.9-0.7-4.4
		c0-2.1,0.2-4.3,0.1-6.4c0.1-2.1,0-4.2-0.4-6.3c0-0.1-0.1-0.2-0.1-0.3c-0.2,1.6-0.4,3.2-0.7,4.8c-0.4,1.9-1,3.8-1.8,5.6
		c-0.2,0.4-0.2,0.8-0.1,1.3c0.3,1.2,0.6,2.5,0.9,3.7c0.2,0.6,0.4,1.1,0.7,1.7c0.6,0.9,0.8,2,0.6,3c-0.1,1.3-0.1,2.7,0.1,4
		c0.1,1.3,0.4,2.6,0.8,3.8c0.2,0.6,0.1,1.2-0.1,1.7c-0.1,0.5-0.3,0.5-0.7,0.2s-0.4,0.1-0.5,0.3c-0.1,0.5-0.2,1-0.3,1.4
		c-0.1,0.5-0.6,0.9-1.1,1c-0.9,0.2-1.9,0.3-2.8,0.1c-0.9-0.2-1-0.4-0.4-1.1c0.4-0.7,1.1-1.3,1.8-1.8c0.4-0.2,0.6-0.6,0.7-1.1
		c0.2-1.4,0.2-2.8,0.1-4.2c0-0.5-0.1-1-0.2-1.4c-0.1-0.7-0.3-1.3-0.7-1.8c-0.2-0.3-0.3-0.5-0.4-0.8
		C99.2,105.6,98.9,105.1,98.5,104.7z"/>
</g>
</svg>
