<svg id="Laag_1" data-name="Laag 1" xmlns="http://www.w3.org/2000/svg" viewBox="0 0 141.73 123.94"><defs><style>.cls-1,.cls-2{fill:#1d1d1b;}.cls-1{fill-rule:evenodd;}</style></defs><title>R-NL-009 Hoefdieren klein</title><path class="cls-1" d="M63,74.19c-1.7-2-5-5.79-7.26-7.09-.81-.48-.6-1.17-.72-1.82,0-.27.14-.66-.27-.79a.71.71,0,0,0-.79.36c-1.12,1.74-3,2.4-4.65,3.37-2.62,1.5-4.29,4.07-6,6.5a3.18,3.18,0,0,0-.34,1.12,2.18,2.18,0,0,0,2.72,2.56c1.19-.27,2.37-.56,3.55-.9s1.53,0,1.75,1.11l0,.16c.2.28.44.56.11.92a.38.38,0,0,0,0,.43.44.44,0,0,1-.07.59s-.08.11-.06.14c.21.62-.18,1.27.11,1.87s-.17.91,0,1.38a3,3,0,0,0,.15.63.53.53,0,0,1,0,.52,1.56,1.56,0,0,0,.22,1.92.54.54,0,0,1,.1.59,2.49,2.49,0,0,0,.12,1.65A5.6,5.6,0,0,1,52,92a.82.82,0,0,0,.21.68,6.48,6.48,0,0,1,.61,1.1.37.37,0,0,1,0,.11c0,.52.77.42.83.85a1.46,1.46,0,0,0,.44,1,9,9,0,0,1,1.68,1.53c.24.39.86.41,1.16.86a3.58,3.58,0,0,0,1.7,1.34,1,1,0,0,1,.6.86,92,92,0,0,1,.67,9.39,6.15,6.15,0,0,1-1,3.5c-.59,1-1.19,1.93-1.77,2.92-.33.56-.31.58.32.78.05,0,.12,0,.14.07.49,1,1.38.79,2.21.77a3.16,3.16,0,0,0,.6-.11,1.54,1.54,0,0,0,1.42-1.56c0-.29.06-.58.08-.87a1.54,1.54,0,0,1,.73-1.44,1.1,1.1,0,0,0,.4-1.28c-.61-3.21.14-6.27,1-9.45a5.13,5.13,0,0,1,.36,1.67c.2,1.54.43,3.09.5,4.65a6.09,6.09,0,0,1-.91,4c-.59,1.21-1.23,2.38-1.83,3.58-.28.55-.24.6.36.77.07,0,.16,0,.2.08.53.82,1.36.65,2.14.67a3.7,3.7,0,0,0,1.18-.24A1.5,1.5,0,0,0,67.06,117a11.32,11.32,0,0,0,.09-1.16,1.42,1.42,0,0,1,.56-1.29,1,1,0,0,0,.32-.85,2.58,2.58,0,0,0,0-.68c-.34-4.14.6-7.61,2-11.45a1.62,1.62,0,0,1,1.65-1,10.41,10.41,0,0,0,2.44-.15,4.79,4.79,0,0,1,2.08-.25c1,.27,1.88-.52,2.88-.43.3,0,.42-.4.69-.52a9,9,0,0,1,2.12-.5c1-.13,1.94,0,2.89-.23a.87.87,0,0,1,1.11.52A22.18,22.18,0,0,1,88,106a12.49,12.49,0,0,1,.26,3.66,7.48,7.48,0,0,1-.78,2.29c-.57,1.17-1.17,2.33-1.73,3.51-.16.33-.6.87.31.88a.13.13,0,0,1,.09,0c.24.77.94.7,1.5.76a3.46,3.46,0,0,0,2.18-.43,1.58,1.58,0,0,0,.77-1.38c0-.35,0-.7,0-1.05a.79.79,0,0,1,.25-.65,2,2,0,0,0,.64-1.9c-.11-1.3-.24-2.59-.31-3.89a24.29,24.29,0,0,1,.66-6,27.76,27.76,0,0,1,.88,3.26,23.6,23.6,0,0,1,.73,4.33,6.22,6.22,0,0,1-.89,3.52c-.44,1-.91,2-1.35,3-.16.38-.21.74.38.76,0,0,.13,0,.15.06.59,1.17,1.64.76,2.52.64,1.25-.16,1.8-.91,1.84-2.28a1.31,1.31,0,0,1,.43-1.12,1.43,1.43,0,0,0,.33-1.34c-.09-.86-.22-1.71-.32-2.57a15.93,15.93,0,0,1,.27-5.42c.14-.87.31-1.74.46-2.61a1.08,1.08,0,0,0,0-.43,5.48,5.48,0,0,1,.36-2.72,1.23,1.23,0,0,1,.18-.46,5.38,5.38,0,0,0,.68-2.56,1,1,0,0,1,.26-.7,2,2,0,0,0,.53-1c0-.08,0-.2.09-.25a2.92,2.92,0,0,0,.75-2.14,6.39,6.39,0,0,0,.05-1.59c.93.57,1.67.21,2.1-.92a13.31,13.31,0,0,0,.56-2.93,3,3,0,0,0-.48-1.88A2.42,2.42,0,0,1,102,83.3a12,12,0,0,0-.63-2.2.42.42,0,0,0-.18-.27c-.72-.41-.9-1.23-1.37-1.81a2.67,2.67,0,0,0-2-1.28,1.34,1.34,0,0,1-1.11-.51,2.29,2.29,0,0,0-1.82-1c-.1,0-.27,0-.3-.11a1.29,1.29,0,0,0-1.46-.7.27.27,0,0,1-.22-.14c-.27-.56-.93-.61-1.3-1.05-.21-.25-.59-.16-.88,0a.55.55,0,0,1-.59,0,6.24,6.24,0,0,0-1.58-.36,1.77,1.77,0,0,1-.88-.22c-.3-.18-.73-.11-1-.23-.92-.49-1.83.29-2.72-.07-.18-.08-.38-.08-.52-.25A.38.38,0,0,0,83,73a.54.54,0,0,1-.64-.13,1.81,1.81,0,0,0-1.54.18c-.23.26-.43.2-.68.1-.1,0-.24-.13-.31-.1-.64.35-1.36.16-2,.27a10.48,10.48,0,0,0-1.57.35,2.33,2.33,0,0,1-1.85,0,.36.36,0,0,0-.31.06,4.22,4.22,0,0,1-2.34.64.77.77,0,0,1-.37,0,.62.62,0,0,0-.86.23.55.55,0,0,1-.47.24,22.41,22.41,0,0,0-3.37.27c-.12,0-.23,0-.31,0-.38-.41-1-.22-1.4-.57-.12-.1-.27,0-.41,0A1.2,1.2,0,0,1,63,74.19Z"/><path class="cls-2" d="M70.87,4l67.42,117.91H3.45L70.87,4m0-4L0,123.94H141.73L70.87,0Z"/></svg>