<svg id="Laag_1" data-name="Laag 1" xmlns="http://www.w3.org/2000/svg" viewBox="0 0 141.73 123.94"><defs><style>.cls-1{fill:#ffd300;}.cls-2{fill:#1d1d1b;}</style></defs><title>W-NL-006 Schadelijk voor het milieu</title><polygon class="cls-1" points="11.72 115.44 70.87 12.91 130.01 115.44 11.72 115.44 11.72 115.44"/><path class="cls-2" d="M11.72,115.44,70.87,12.91,130,115.44Zm129.46,2.35L74.42,2.06a4.1,4.1,0,0,0-7.11,0L.56,117.79a4.09,4.09,0,0,0,3.55,6.15H137.63a4.09,4.09,0,0,0,3.55-6.15Z" transform="translate(0 0)"/><path class="cls-2" d="M97.9,89a1.23,1.23,0,1,1,1.39-1.22A1.31,1.31,0,0,1,97.9,89m4.21,17.81c1.61.69,1.87,3.28,1.87,3.28H43.81s10.66-3.51,11.81-3.51,1.19.7,2,.7,7.89-2.31,13.27-5.74l-3.27-1.11c1.22-.92,4-1.53,6.4-2.28-2-.39-6.42-1.2-7.39-1s-3.14,5-3.17,5.13c-1-2.45-2.29-3.09-4.08-3.07-2,0-3.21,1.12-7.86.81,4.74-1.53,7.82-3.43,7.82-4.34,0-.42,0-1.7,0-3.38H31.18L34,87.47H59.44c0-2.42.05-4.86.05-6.51,0-4.19-7.61-8.9-10.85-6.23l-.94-1.32c2.43-1.75,6.17-1.88,10.24,1.42a.84.84,0,0,0,.85.08c0-2.61-.62-4.1-1.85-5.31s-4.62-5.09-8-6.81l.56-1.09c2.56,1,6.25,5.2,7.87,5.14,0-4.85-.8-9-4.38-12.28l.75-.9a14.43,14.43,0,0,1,4.68,6.75,13.77,13.77,0,0,0,1.08-5l1,.06c0,4.8-.8,3.82-.8,6.07,0,2.7,3,14.23,3.74,14.23.16,0,3.77-4.22,3.77-6.82,0-2.45-1-12.88-1-12.88L67.61,56l1.06,8.72s4.88-3.54,5.88-7.85l1.24.19c-1.46,5.84-6.63,8.77-6.63,9.9s.39,1.37.39,3-2.3,6.48-2.3,6.48a35.83,35.83,0,0,1,3-2.56c.74-.44,4.24-.42,4.88-.62s4.75-4.69,6-6.47l.67.82a41.66,41.66,0,0,1-5.5,7.7c-.37.2-4,.89-4.27,1s-4.85,5.18-4.85,5.18l0,6H82.49a13.12,13.12,0,0,1,1.4-1.72c2.27-2.29,5.8-5.15,13.27-5.15l-1,3.07,5.47-1.11a18.32,18.32,0,0,1-.61,4.91h6.69l2.8,4.85H98.26A24.58,24.58,0,0,1,93.16,96s4.65,2.17,4.65,4.14c0,1.43-2.34,1.63-6.07,2.88a.31.31,0,0,0-.18.14c0,.22.44.2.44.2s3.83-.38,4.67-.4c1.07,0,1.74,0,2.28,0a1.15,1.15,0,0,1,1,1c0,1.43-1.84,1.91-1.9,2s.26.18.26.18A11.27,11.27,0,0,1,102.11,106.79ZM75,97.82a6.14,6.14,0,0,0,3-1.72,26.27,26.27,0,0,0,1.92-3.78H67.24v1.21C68.82,94.74,72.17,97.16,75,97.82Zm6.21.79c2.65-1.4,7.77-1.18,13.26-5.11,5.23-3.76,5.61-6.84,5.61-9.25l-6.25,1.48L95.19,82a15.58,15.58,0,0,0-8.94,3.45C81.7,89,80.67,95.35,78.7,97.25s-7.16,3.11-7.16,3.11a21.24,21.24,0,0,1,3.41,1.7,22.4,22.4,0,0,1,2.81,2.43S78.55,100,81.21,98.61Z" transform="translate(0 0)"/></svg>