<svg id="Laag_1" data-name="Laag 1" xmlns="http://www.w3.org/2000/svg" viewBox="0 0 141.8 173.06"><defs><style>.cls-1{font-size:37.69px;font-family:Arial-BoldMT, Arial;font-weight:700;}.cls-1,.cls-3{fill:#1d1d1b;}.cls-2{fill:#ffd300;}</style></defs><title>W-NL-008 Li-ion batterijen</title><text class="cls-1" transform="translate(19.66 158.87)">Li-ion</text><polygon class="cls-2" points="11.72 115.44 70.86 12.91 130 115.44 11.72 115.44 11.72 115.44"/><path class="cls-3" d="M141.71,119.93a4,4,0,0,0-.55-2.14L74.4,2.06a4.1,4.1,0,0,0-7.11,0L.54,117.79a4.06,4.06,0,0,0-.48,2.8v45.87H141.79V119.93Zm-70.86-107L130,115.44H11.71Zm68.94,151.55H2.06v-38.4H139.79Z" transform="translate(0.01 0)"/><path class="cls-3" d="M83.33,71.4V67.82H75.76V71.4H57.58V67.82H50V71.4H42.57V99.62H91V71.4Zm5.73,26.24H44.54V73.38H89.06Z" transform="translate(0.01 0)"/><polygon class="cls-3" points="103.14 108.11 55.66 108.11 55.66 106.14 101.16 106.14 101.16 80.88 103.14 80.88 103.14 108.11 103.14 108.11"/><polygon class="cls-3" points="96.88 103.39 49.4 103.39 49.4 101.41 94.9 101.41 94.9 76.16 96.88 76.16 96.88 103.39 96.88 103.39"/><polygon class="cls-3" points="84.09 81.57 80.8 81.57 80.8 78.28 78.43 78.28 78.43 81.57 75.14 81.57 75.14 83.94 78.43 83.94 78.43 87.23 80.8 87.23 80.8 83.94 84.09 83.94 84.09 81.57"/><polygon class="cls-3" points="58.33 83.94 49.38 83.94 49.38 81.57 58.33 81.57 58.33 83.94 58.33 83.94"/></svg>