<svg id="Laag_1" data-name="Laag 1" xmlns="http://www.w3.org/2000/svg" viewBox="0 0 141.73 123.94"><defs><style>.cls-1{fill:#ffd300;}.cls-2{fill:#1d1d1b;}</style></defs><title>W-NL-004 Helling</title><polygon class="cls-1" points="11.72 115.44 70.87 12.91 130.01 115.44 11.72 115.44 11.72 115.44"/><polygon class="cls-2" points="21.06 110.24 42.24 73.7 120.67 110.24 21.06 110.24 21.06 110.24"/><path class="cls-2" d="M11.72,115.44,70.87,12.91,130,115.44Zm129.46,2.35L74.42,2.06a4.1,4.1,0,0,0-7.11,0L.56,117.79a4.09,4.09,0,0,0,3.55,6.15H137.63a4.09,4.09,0,0,0,3.55-6.15Z" transform="translate(0 0)"/><path class="cls-2" d="M49.19,75.13l23-16.2L74,59.8,51,76ZM61.92,61.91c-2.12,4.51-5.54,5.63-8.3,4.33s-4-4.47-2-8.8,5.48-5.58,8.31-4.25C63,54.6,63.84,57.83,61.92,61.91ZM54,58.43c-1.35,2.69-1.31,5.25.5,6.1s3.73-.74,5.06-3.57c1.22-2.6,1.48-5.13-.52-6.07C57.23,54,55.27,55.73,54,58.43ZM71.67,77.31c-2.12,4.5-5.54,5.63-8.27,4.34s-4-4.47-2-8.77,5.49-5.61,8.32-4.28C72.73,70,73.59,73.23,71.67,77.31Zm-7.92-3.49c-1.32,2.72-1.24,5.28.54,6.12s3.72-.74,5-3.57c1.22-2.6,1.49-5.12-.52-6.07C67,69.45,65,71.12,63.75,73.82Z" transform="translate(0 0)"/></svg>