<svg id="Laag_1" data-name="Laag 1" xmlns="http://www.w3.org/2000/svg" viewBox="0 0 141.73 123.94"><defs><style>.cls-1{fill:#ffd300;}.cls-2{fill:#1d1d1b;}</style></defs><title>W-NL-001 Explosieve atmosfeer</title><polygon class="cls-1" points="11.72 115.44 70.87 12.91 130.01 115.44 11.72 115.44 11.72 115.44"/><path class="cls-2" d="M11.72,115.44,70.87,12.91,130,115.44Zm129.46,2.35L74.42,2.06a4.1,4.1,0,0,0-7.11,0L.56,117.79a4.09,4.09,0,0,0,3.55,6.15H137.63a4.09,4.09,0,0,0,3.55-6.15Z" transform="translate(0 0)"/><polyline class="cls-2" points="44.7 110.07 44.7 69.66 66.79 69.66 66.79 76.52 50.72 76.52 50.72 85.47 65.7 85.47 65.7 92.33 50.72 92.33 50.72 103.21 67.37 103.21 67.37 110.07 44.7 110.07"/><polyline class="cls-2" points="69.42 110.07 79.66 89.09 70.34 69.66 77.48 69.66 83.28 81.66 89.14 69.66 96.12 69.66 86.81 88.93 97.04 110.07 89.72 110.07 83.18 96.44 76.59 110.07 69.42 110.07"/></svg>