<svg id="Laag_1" data-name="Laag 1" xmlns="http://www.w3.org/2000/svg" viewBox="0 0 141.8 166.46"><defs><style>.cls-1{fill:#ffd300;}.cls-2{fill:#1d1d1b;}</style></defs><title>W-NL-008 Niet Lithium houdende</title><polygon class="cls-1" points="11.72 115.44 70.86 12.91 130 115.44 11.72 115.44 11.72 115.44"/><path class="cls-2" d="M141.71,119.93a4,4,0,0,0-.55-2.14L74.4,2.06a4.1,4.1,0,0,0-7.11,0L.54,117.79a4.06,4.06,0,0,0-.48,2.8v45.87H141.79V119.93Zm-70.86-107L130,115.44H11.71Zm68.94,151.55H2.06v-38.4H139.79Z" transform="translate(0.01 0)"/><path class="cls-2" d="M83.33,71.4V67.82H75.76V71.4H57.58V67.82H50V71.4H42.57V99.62H91V71.4Zm5.73,26.24H44.54V73.38H89.06Z" transform="translate(0.01 0)"/><polygon class="cls-2" points="103.14 108.11 55.66 108.11 55.66 106.14 101.16 106.14 101.16 80.88 103.14 80.88 103.14 108.11 103.14 108.11"/><polygon class="cls-2" points="96.88 103.39 49.4 103.39 49.4 101.41 94.9 101.41 94.9 76.16 96.88 76.16 96.88 103.39 96.88 103.39"/><polygon class="cls-2" points="84.09 81.57 80.8 81.57 80.8 78.28 78.43 78.28 78.43 81.57 75.14 81.57 75.14 83.94 78.43 83.94 78.43 87.23 80.8 87.23 80.8 83.94 84.09 83.94 84.09 81.57"/><polygon class="cls-2" points="58.33 83.94 49.38 83.94 49.38 81.57 58.33 81.57 58.33 83.94 58.33 83.94"/><path class="cls-2" d="M25.5,155.83V134.35h4.22l8.79,14.34V134.35h4v21.48H38.19l-8.66-14v14Z" transform="translate(0.01 0)"/><path class="cls-2" d="M46.14,147.83a8.45,8.45,0,0,1,1-4A6.94,6.94,0,0,1,50,140.93a8.39,8.39,0,0,1,4.13-1,7.75,7.75,0,0,1,5.79,2.29A7.94,7.94,0,0,1,62.2,148a8,8,0,0,1-2.28,5.86,7.73,7.73,0,0,1-5.74,2.32,9.14,9.14,0,0,1-4.08-1,6.67,6.67,0,0,1-3-2.83A9.53,9.53,0,0,1,46.14,147.83Zm4.22.22a5.16,5.16,0,0,0,1.1,3.54,3.59,3.59,0,0,0,5.41,0A5.2,5.2,0,0,0,58,148a5.12,5.12,0,0,0-1.09-3.52,3.59,3.59,0,0,0-5.41,0A5.17,5.17,0,0,0,50.36,148.05Z" transform="translate(0.01 0)"/><path class="cls-2" d="M79.57,155.83H75.45v-7.94a12.13,12.13,0,0,0-.26-3.26,2.25,2.25,0,0,0-.86-1.15,2.39,2.39,0,0,0-1.43-.41,3.26,3.26,0,0,0-1.91.58,2.94,2.94,0,0,0-1.17,1.56,13.41,13.41,0,0,0-.31,3.57v7.05H65.39V140.27h3.82v2.28a6.25,6.25,0,0,1,5.13-2.63,6.11,6.11,0,0,1,2.49.49,4.23,4.23,0,0,1,1.71,1.25,4.58,4.58,0,0,1,.8,1.73,12.9,12.9,0,0,1,.23,2.77Z" transform="translate(0.01 0)"/><path class="cls-2" d="M83.28,150.1V146h8.08v4.12Z" transform="translate(0.01 0)"/><path class="cls-2" d="M93.88,155.83v-21.3h4.34v17.68H109v3.62Z" transform="translate(0.01 0)"/><path class="cls-2" d="M112.06,138.16v-3.81h4.12v3.81Zm0,17.67V140.27h4.12v15.56Z" transform="translate(0.01 0)"/></svg>