<svg id="Laag_1" data-name="Laag 1" xmlns="http://www.w3.org/2000/svg" viewBox="0 0 141.73 123.94"><defs><style>.cls-1{fill:#ffd300;}.cls-2{fill:#1d1d1b;}</style></defs><title>W001 Algemeen gevaar</title><polygon class="cls-1" points="11.72 115.44 70.87 12.91 130.01 115.44 11.72 115.44 11.72 115.44"/><path class="cls-2" d="M70.86,38.71a10.32,10.32,0,0,0-7.56,3.54,7.9,7.9,0,0,0-2.17,6l5.06,37.17c.35,2.31,1.76,4.79,4.67,4.79s4.33-2.48,4.68-4.8L80.6,48.28a7.89,7.89,0,0,0-2.17-6,10.33,10.33,0,0,0-7.57-3.54Zm0,55.25a6.81,6.81,0,1,0,6.83,6.81A6.82,6.82,0,0,0,70.86,94ZM11.72,115.44,70.87,12.91,130,115.44Zm129.46,2.35L74.42,2.06a4.1,4.1,0,0,0-7.11,0L.56,117.79a4.09,4.09,0,0,0,3.55,6.15H137.63a4.09,4.09,0,0,0,3.55-6.15Z" transform="translate(0 0)"/></svg>