<svg id="Laag_1" data-name="Laag 1" xmlns="http://www.w3.org/2000/svg" viewBox="0 0 141.73 123.94"><defs><style>.cls-1{fill:#ffd300;}.cls-2{fill:#1d1d1b;}</style></defs><title>W004 Laserstralen</title><polygon class="cls-1" points="11.72 115.44 130.01 115.44 70.86 12.91 11.72 115.44"/><path class="cls-2" d="M11.72,115.44,70.87,12.91l38.28,66.36H80.34a2.06,2.06,0,0,0,0-.26l10-2.31-.66-2.38-9.82,3c-.08-.21-.2-.4-.3-.6L97,67.2l-1.51-2.61L78.41,75c-.13-.17-.27-.34-.41-.5l7.45-7L83.71,65.8l-7,7.52c-.16-.13-.3-.27-.47-.39L86.59,56,84,54.49,74.45,72c-.19-.08-.4-.12-.59-.19l3-9.79-2.39-.63-2.31,10-.6-.05L72,51.48H69l.51,19.92c-.18,0-.38,0-.56,0l-2.29-9.91-2.38.64,3,9.77-.48.2L57.24,54.66l-2.61,1.51,10.43,17c-.16.11-.31.25-.46.37l-7-7.53-1.74,1.75,7.47,7c-.12.15-.25.29-.36.44L46,64.85l-1.51,2.61L62,77c-.08.16-.15.32-.22.49l-9.82-3-.62,2.38,9.94,2.28a6.2,6.2,0,0,0-.06.62l-20-.5v3l20-.52c0,.18,0,.36,0,.54l-10,2.37L51.8,87l9.78-3c.07.2.11.41.19.6L44.23,94.15l1.5,2.6,17-10.36c.12.17.26.31.39.48l-7.5,7.07,1.74,1.74,7-7.51c.19.17.38.32.58.47l-10.43,17,2.61,1.51L66.56,89.7c.2.09.39.2.6.28l-3,9.81,2.38.63,2.29-9.91c.23,0,.48,0,.72.07l-.5,20h3l-.51-19.92.72-.07,2.36,10L77,99.91l-3-9.8a7.41,7.41,0,0,0,.71-.25l9.53,17.47,2.61-1.5-10.4-17c.19-.13.36-.29.54-.44l7,7.48,1.74-1.74-7.53-7c.18-.21.36-.4.52-.62l17,10.37,1.51-2.61L79.74,84.78c.08-.2.13-.42.2-.63l9.83,3,.63-2.38-10-2.29c0-.12,0-.24,0-.36h30.36L130,115.44Zm129.46,2.35L74.42,2.06a4.1,4.1,0,0,0-7.11,0L.55,117.79a4.1,4.1,0,0,0,3.56,6.15H137.63a4.09,4.09,0,0,0,3.55-6.15Z" transform="translate(0 0)"/></svg>