<svg id="Laag_1" data-name="Laag 1" xmlns="http://www.w3.org/2000/svg" viewBox="0 0 141.73 123.94"><defs><style>.cls-1{fill:#ffd300;}.cls-2,.cls-3{fill:#1d1d1b;}.cls-3{fill-rule:evenodd;}</style></defs><title>W005 Niet-ioniserende straling</title><polygon class="cls-1" points="11.72 115.44 70.86 12.91 130.01 115.44 11.72 115.44 11.72 115.44"/><path class="cls-2" d="M11.72,115.44,70.87,12.91,130,115.44Zm129.46,2.35L74.42,2.06a4.1,4.1,0,0,0-7.11,0L.55,117.79a4.1,4.1,0,0,0,3.56,6.15H137.63a4.1,4.1,0,0,0,3.55-6.15Z" transform="translate(0 0)"/><path class="cls-3" d="M70.91,80.42a3.79,3.79,0,1,0-3.8-3.79,3.8,3.8,0,0,0,3.8,3.79" transform="translate(0 0)"/><path class="cls-2" d="M61.65,85.14a12.3,12.3,0,0,1,.1-17l3.07,3a8,8,0,0,0-.06,11.11l-3.11,2.94Z" transform="translate(0 0)"/><path class="cls-2" d="M51,95.23a26.87,26.87,0,0,1,.2-37.2l3.07,3a22.59,22.59,0,0,0-.16,31.28l-3.11,3Z" transform="translate(0 0)"/><path class="cls-2" d="M56.43,90.28a19.81,19.81,0,0,1,.15-27.45l3.07,3a15.54,15.54,0,0,0-.12,21.52l-3.1,3Z" transform="translate(0 0)"/><path class="cls-2" d="M80.08,85.14,77,82.2a8,8,0,0,0-.06-11.11l3.07-3a12.3,12.3,0,0,1,.1,17Z" transform="translate(0 0)"/><path class="cls-2" d="M90.72,95.23l-3.11-3A22.58,22.58,0,0,0,87.44,61l3.08-3a26.88,26.88,0,0,1,.2,37.21Z" transform="translate(0 0)"/><path class="cls-2" d="M85.3,90.28l-3.1-3a15.54,15.54,0,0,0-.12-21.52l3.08-3a19.82,19.82,0,0,1,.14,27.45Z" transform="translate(0 0)"/><polyline class="cls-3" points="80.4 110.65 73.76 84.12 68.06 84.12 61.42 110.65 80.4 110.65"/></svg>