<svg id="Laag_1" data-name="Laag 1" xmlns="http://www.w3.org/2000/svg" viewBox="0 0 141.73 123.94"><defs><style>.cls-1{fill:#ffd300;}.cls-2,.cls-3{fill:#1d1d1b;}.cls-3{fill-rule:evenodd;}</style></defs><title>W006 Magnetisch veld</title><polygon class="cls-1" points="11.72 115.44 70.86 12.91 130.01 115.44 11.72 115.44 11.72 115.44"/><path class="cls-2" d="M11.72,115.44,70.87,12.91,130,115.44Zm129.46,2.35L74.42,2.06a4.1,4.1,0,0,0-7.11,0L.55,117.79a4.1,4.1,0,0,0,3.56,6.15H137.63a4.1,4.1,0,0,0,3.55-6.15Z" transform="translate(0 0)"/><path class="cls-3" d="M86.62,107.88H78L79.3,95.66h8.51l-1.19,12.22ZM62.81,95.67,64,107.88h-8.6L54.3,95.67ZM90.33,59c-2-4.79-6.85-10.59-19.33-10.59S53.68,54.16,51.65,59c-1.39,3.28-1.13,9.34-1.13,9.34l3.54,40.89H65.44S61.9,74.6,60.88,68.54C59.62,56.94,68.71,56.93,71,56.94s11.37,0,10.11,11.6c-1,6.06-4.55,40.64-4.55,40.64H87.94l3.54-40.89s.24-6.06-1.15-9.34Z" transform="translate(0 0)"/><path class="cls-2" d="M41.71,108.91a23.86,23.86,0,0,1,.48-15.21l2.12.76a22,22,0,0,0-.48,13.69l-2.12.76Z" transform="translate(0 0)"/><path class="cls-2" d="M47,108.91a23.7,23.7,0,0,1,.48-15.21l2.11.77a21.93,21.93,0,0,0-.48,13.68l-2.11.76Z" transform="translate(0 0)"/><path class="cls-2" d="M100.34,108.91l-2.11-.76a22,22,0,0,0-.48-13.69l2.11-.76a23.78,23.78,0,0,1,.48,15.21Z" transform="translate(0 0)"/><path class="cls-2" d="M95,108.91l-2.12-.76a21.91,21.91,0,0,0-.47-13.69l2.11-.76A23.86,23.86,0,0,1,95,108.91Z" transform="translate(0 0)"/></svg>