<svg id="Laag_1" data-name="Laag 1" xmlns="http://www.w3.org/2000/svg" viewBox="0 0 141.72 123.93"><defs><style>.cls-1{fill:#ffd300;}.cls-2,.cls-3{fill:#1d1d1b;}.cls-3{fill-rule:evenodd;}</style></defs><title>W008_hoogteverschil</title><polygon class="cls-1" points="11.72 115.43 70.86 12.91 130 115.43 11.72 115.43 11.72 115.43"/><path class="cls-2" d="M11.87,115.44,71,12.92l59.14,102.52Zm129.45,2.34L74.56,2.07a4.09,4.09,0,0,0-7.1,0L.71,117.78a4.09,4.09,0,0,0,3.55,6.16H137.77a4.1,4.1,0,0,0,3.55-6.16Z" transform="translate(-0.15 -0.01)"/><path class="cls-3" d="M101.29,87.26,98.4,76.05h0a2.35,2.35,0,0,0-.81-1.24h0l-9-7.21h0a2.23,2.23,0,0,0-.55-.33h0l-9.47-4.09L69.66,57,65,47h0a2.33,2.33,0,1,0-4.21,2h0L65.71,59.5h0a2.39,2.39,0,0,0,.77.92h0L76,67.07h0a2.38,2.38,0,0,0,.41.23L70.56,80.77,58,79.25h0a2.72,2.72,0,0,0-1.34.19L43.13,85a2.67,2.67,0,1,0,2,4.93l12.89-5.33,12.73,1.53-7.84,4.17h0a2.66,2.66,0,0,0-.77.62l-9.53,11.12a2.66,2.66,0,1,0,4,3.46l9.2-10.74,12.48-6.64a2.65,2.65,0,0,0,1.32-1.66l6.42-14.87,8,6.35,2.7,10.45a2.33,2.33,0,1,0,4.51-1.16Z" transform="translate(-0.15 -0.01)"/><path class="cls-3" d="M85.48,64.33a4.67,4.67,0,1,0-4.66-4.67,4.67,4.67,0,0,0,4.66,4.67Z" transform="translate(-0.15 -0.01)"/><polygon class="cls-3" points="44.23 109.11 47.23 109.11 47.23 92.22 32.47 92.22 32.47 95.2 44.23 95.2 44.23 109.11 44.23 109.11"/></svg>