<svg id="Laag_1" data-name="Laag 1" xmlns="http://www.w3.org/2000/svg" viewBox="0 0 141.73 123.94"><defs><style>.cls-1{fill:#ffd300;}.cls-2{fill:#1d1d1b;}</style></defs><title>W010 Lage temperatuur</title><polygon class="cls-1" points="11.72 115.44 70.86 12.91 130.01 115.44 11.72 115.44 11.72 115.44"/><path class="cls-2" d="M11.72,115.44,70.87,12.91,130,115.44Zm129.46,2.34L74.42,2.06a4.1,4.1,0,0,0-7.11,0L.55,117.78a4.1,4.1,0,0,0,3.56,6.16H137.63a4.1,4.1,0,0,0,3.55-6.16Z" transform="translate(0 0)"/><path class="cls-2" d="M96.32,87.37,95.14,83,83.74,86l-6.3-3.62a6.56,6.56,0,0,0,.12-1.18,6.34,6.34,0,0,0-.12-1.16l6.3-3.63,11.4,3,1.17-4.4-7-1.87,7.08-4.08-2.27-4L87,69.25l1.88-7-4.41-1.18L81.46,72.47,75.15,76.1a6.89,6.89,0,0,0-2-1.17V68.61l8.34-8.33-3.22-3.23-5.12,5.11V53H68.57v9.12l-5.12-5.11-3.23,3.23,8.35,8.33v6.32a6.73,6.73,0,0,0-2,1.17l-5.49-3.16L58,61.56l-4.41,1.18,1.87,7-7.92-4.57L45.27,69.1l7.9,4.56-7,1.87,1.18,4.41,11.4-3L64.25,80a6.45,6.45,0,0,0-.12,1.17,6.56,6.56,0,0,0,.12,1.18l-5.48,3.15-11.4-3-1.18,4.4,7,1.87-7.9,4.55,2.27,4,7.92-4.57-1.87,7L58,100.87l3-11.38,5.49-3.16a6.73,6.73,0,0,0,2,1.17v7.26l-8.35,8.33,3.23,3.22,5.12-5.11v8.19h4.56V101.2l5.12,5.11,3.22-3.22-8.34-8.33V87.5a6.68,6.68,0,0,0,2-1.17L81.46,90l3.05,11.38,4.41-1.18-1.88-7,7.11,4.1,2.27-4-7.08-4.08,7-1.87Z" transform="translate(0 0)"/></svg>