<svg id="Laag_1" data-name="Laag 1" xmlns="http://www.w3.org/2000/svg" viewBox="0 0 141.73 123.94"><defs><style>.cls-1{fill:#ffd300;}.cls-2,.cls-3{fill:#1d1d1b;}.cls-3{fill-rule:evenodd;}</style></defs><title>W011 Glad oppervlak</title><polygon class="cls-1" points="11.72 115.44 70.87 12.91 130.01 115.44 11.72 115.44 11.72 115.44"/><path class="cls-2" d="M11.72,115.44,70.87,12.91,130,115.44Zm129.46,2.35L74.42,2.06a4.1,4.1,0,0,0-7.11,0L.56,117.79a4.09,4.09,0,0,0,3.55,6.15H137.62a4.1,4.1,0,0,0,3.56-6.15Z" transform="translate(0 0)"/><path class="cls-3" d="M90.82,60.69a2,2,0,0,0-2.66,1.12l-3.47,8.47-8.14,2.19-7.78-3.34-7.66-5.36-3.52-8.88a2,2,0,1,0-3.8,1.51l3.75,9.45h0a2,2,0,0,0,.73.92h0l8.3,5.81h0a1.83,1.83,0,0,0,.39.21L61.93,84.62l-11-1.31h0a2.36,2.36,0,0,0-1.22.17h0L37.92,88.67A2.34,2.34,0,0,0,39.81,93L51,88l9.82,1.16-5.94,2.34h0a2.13,2.13,0,0,0-.56.29h0L44,99.54a2.34,2.34,0,0,0,2.81,3.74l10-7.53,11.66-4.58a2.36,2.36,0,0,0,1.28-1.24h0L75.58,76.5a2,2,0,0,0,1.33.1h0L86.73,74h0a2,2,0,0,0,1.36-1.19h0l3.85-9.41a2,2,0,0,0-1.12-2.67Z" transform="translate(0 0)"/><path class="cls-3" d="M75,70.16a4.09,4.09,0,1,0-4.09-4.09A4.09,4.09,0,0,0,75,70.16Z" transform="translate(0 0)"/><polygon class="cls-3" points="115.02 109.32 26.71 109.32 26.71 104.87 115.02 104.87 115.02 109.32 115.02 109.32"/></svg>