<svg id="Laag_1" data-name="Laag 1" xmlns="http://www.w3.org/2000/svg" viewBox="0 0 141.73 123.94"><defs><style>.cls-1{fill:#ffd300;}.cls-2{fill:#1d1d1b;}</style></defs><title>W012 Elektrische spanning</title><polygon class="cls-1" points="11.72 115.44 70.87 12.91 130.01 115.44 11.72 115.44 11.72 115.44"/><path class="cls-2" d="M11.72,115.44,70.87,12.91,130,115.44Zm129.46,2.35L74.42,2.06a4.1,4.1,0,0,0-7.11,0L.55,117.79a4.1,4.1,0,0,0,3.56,6.15H137.63a4.09,4.09,0,0,0,3.55-6.15Z" transform="translate(0 0)"/><polyline class="cls-2" points="65.39 37.13 53.43 79.23 71.31 69.29 67.4 97.43 63.6 92.19 66.62 110.17 77.35 94.53 71.76 98.11 82.6 58.46 62.93 69.41 77.35 37.13 65.39 37.13"/></svg>