<svg id="Laag_1" data-name="Laag 1" xmlns="http://www.w3.org/2000/svg" viewBox="0 0 141.73 123.94"><defs><style>.cls-1{fill:#ffd300;}.cls-2{fill:#1d1d1b;}</style></defs><title>W013 Honden bewaking</title><polygon class="cls-1" points="11.72 115.44 70.86 12.91 130.01 115.44 11.72 115.44 11.72 115.44"/><path class="cls-2" d="M11.72,115.44,70.87,12.91,130,115.44Zm129.46,2.34L74.42,2.06a4.1,4.1,0,0,0-7.11,0L.55,117.78a4.1,4.1,0,0,0,3.56,6.16H137.62a4.1,4.1,0,0,0,3.56-6.16Z" transform="translate(0 0)"/><path class="cls-2" d="M82.34,109.29l21.09-27.67,1.13,1.95L85,109.29Zm.76-4a2.14,2.14,0,1,1,2.14-2.14,2.14,2.14,0,0,1-2.14,2.14Zm7-9.19a2.14,2.14,0,1,1,2.14-2.14,2.14,2.14,0,0,1-2.14,2.14Zm7-9.2a2.15,2.15,0,1,1,2.15-2.15,2.14,2.14,0,0,1-2.15,2.15ZM65.49,73.1s-1.39,0-2,0-.7.57-2.26.61A2.84,2.84,0,0,1,61.17,71a6.91,6.91,0,0,1,4.32,1.67v.43Zm26.57.44c-2.55-2.37-4.84-5.65-6.87-6.59-.65-.29-1-.54-.82-1.87.18-1.75.48-4.54.86-6.77s.06-3.77.23-4.6c.41-2-.28-1.47-1.32-.75s-1.86,1.63-3,2.45a23.47,23.47,0,0,0-3.25,2.9c-.53.59-1.3,1.14-1.75-.47A15.21,15.21,0,0,1,75.93,53c0-1.6-1.21-1.2-2,.82-1.21,3.08-1.8,5.72-3.83,7.88-1.3,1.39-10.13,4.42-10.78,4.6s-1.39.41-1.4,1.46a13.27,13.27,0,0,1-.49,3.14,2.7,2.7,0,0,1-2.15,2.22,16.32,16.32,0,0,0-3.49.81c-1.46.52-4.06,1.43-5.52,1.9a34.6,34.6,0,0,1-4.24.69,1.57,1.57,0,0,0-1.38,1.68,2.89,2.89,0,0,0,.52,1.61,1.63,1.63,0,0,0,.95.73.82.82,0,0,1,.58.37,5.2,5.2,0,0,0,3.64,2.48c1.3,0,4.57.17,6.62,0,.76-.06,1,.47.34.57s-2,.38-3.11.63c-1.54.38-1.88,1.28-1.8,1.86a1,1,0,0,0,.67.78c.28.12.23.37.19.63s.1,1.08,1.36,1.11c2,0,2,.37,3.19.34a16.77,16.77,0,0,0,3.58-.63c1.89-.43,3.68-1.07,4.62-1.37a14,14,0,0,1,3,0,1.29,1.29,0,0,1,1.17.77c.71,1.09,2.35,3.91,3.31,5.56a4.56,4.56,0,0,1,1,2A8.84,8.84,0,0,0,72,99.3c.93,1.13,2.53,2.28,3.53,4.36.64,1.31.29,2,.94,3l21.29-28a54.34,54.34,0,0,1-5.73-5.08Z" transform="translate(0 0)"/></svg>