<svg id="Laag_1" data-name="Laag 1" xmlns="http://www.w3.org/2000/svg" viewBox="0 0 141.73 123.94"><defs><style>.cls-1{fill:#ffd300;}.cls-2,.cls-3{fill:#1d1d1b;}.cls-3{fill-rule:evenodd;}</style></defs><title>W017 Heet oppervlak</title><polygon class="cls-1" points="11.72 115.44 70.86 12.91 130.01 115.44 11.72 115.44 11.72 115.44"/><path class="cls-2" d="M11.72,115.44,70.87,12.91,130,115.44Zm129.46,2.34L74.42,2.06a4.1,4.1,0,0,0-7.11,0L.55,117.78a4.1,4.1,0,0,0,3.56,6.16H137.62a4.1,4.1,0,0,0,3.56-6.16Z" transform="translate(0 0)"/><polygon class="cls-3" points="100.53 103.31 42.82 103.31 42.82 109.38 100.53 109.38 100.53 103.31 100.53 103.31"/><path class="cls-2" d="M59.18,99.8l-3.32-2.52a15.91,15.91,0,0,0,3.39-9.15c0-4.88-1.31-7.67-3.72-11.13a18.11,18.11,0,0,1-3.77-10.81,19.57,19.57,0,0,1,4.12-13.4l3.27,2.58A15.33,15.33,0,0,0,55.92,66a14.13,14.13,0,0,0,3,8.62c2.75,3.95,4.46,7.59,4.46,13.51A19.89,19.89,0,0,1,59.18,99.8Z" transform="translate(0 0)"/><path class="cls-2" d="M73.28,99.8,70,97.28a16,16,0,0,0,3.38-9.15c0-4.88-1.31-7.67-3.72-11.13a18.11,18.11,0,0,1-3.77-10.81A19.57,19.57,0,0,1,70,52.79l3.27,2.58A15.33,15.33,0,0,0,70,66a14.13,14.13,0,0,0,3,8.62,21.39,21.39,0,0,1,4.46,13.51A19.89,19.89,0,0,1,73.28,99.8Z" transform="translate(0 0)"/><path class="cls-2" d="M87.38,99.8l-3.31-2.52a15.89,15.89,0,0,0,3.38-9.15c0-4.88-1.3-7.67-3.71-11.13A18.17,18.17,0,0,1,80,66.19a19.58,19.58,0,0,1,4.13-13.4l3.27,2.58A15.33,15.33,0,0,0,84.12,66a14.19,14.19,0,0,0,3,8.62c2.76,3.95,4.47,7.59,4.47,13.51A19.9,19.9,0,0,1,87.38,99.8Z" transform="translate(0 0)"/></svg>