<svg id="Laag_1" data-name="Laag 1" xmlns="http://www.w3.org/2000/svg" viewBox="0 0 141.73 123.94"><defs><style>.cls-1{fill:#ffd300;}.cls-2,.cls-3{fill:#1d1d1b;}.cls-3{fill-rule:evenodd;}</style></defs><title>W026 Accu’s en klein chemisch materiaal</title><polygon class="cls-1" points="11.72 115.44 70.87 12.91 130.01 115.44 11.72 115.44 11.72 115.44"/><path class="cls-2" d="M11.72,115.44,70.87,12.91,130,115.44Zm129.46,2.34L74.42,2.06a4.1,4.1,0,0,0-7.11,0L.56,117.78a4.09,4.09,0,0,0,3.55,6.16H137.62a4.1,4.1,0,0,0,3.56-6.16Z" transform="translate(0 0)"/><path class="cls-3" d="M62.8,54.32h1.34c.53,0,1.16,0,1.84.05a26.36,26.36,0,0,0,5.9-.19l.21,0c2.46-.5,5-1,5.66-4.32a4.65,4.65,0,0,0-3-4.76c-.56-.16-1.15-.33-1.75-.53A12,12,0,0,1,70,47.14a34.62,34.62,0,0,1-4.35,2.42,26.76,26.76,0,0,0-3.41,1.88,2.72,2.72,0,0,0-1.45,2.92c.71,0,1.38,0,2,0Zm-4,2.8a10.33,10.33,0,0,0-3.23.81.8.8,0,0,0-.52.76,1.41,1.41,0,0,0,.79,1.21,6.34,6.34,0,0,0,3.37.79c.5,0,.79-.1.85-.2a1.73,1.73,0,0,0-.24-1.32c-.43-.8-.77-1.46-1-2.05Zm.44,6.18h-.05a8.92,8.92,0,0,1-4.47-1,4,4,0,0,1-2.27-3.55,3.39,3.39,0,0,1,2-3.12,12.81,12.81,0,0,1,3.77-1,5.24,5.24,0,0,1,2.52-5.24,28.76,28.76,0,0,1,3.77-2.11,33.44,33.44,0,0,0,4-2.23,12.55,12.55,0,0,0,1.84-1.45,15.66,15.66,0,0,1-1.62-.85c-1-.59-3.26-2-3.28-4.91h2.61c0,1.23.77,1.94,2,2.69a14.55,14.55,0,0,0,1.62.83c.2-.58.39-1.28.63-2.16.77-2.83.15-5.11-2.36-8.72l2.13-1.49c2.47,3.54,3.88,6.74,2.74,10.9-.25.92-.47,1.69-.7,2.37l1.24.37a7.23,7.23,0,0,1,4.88,7.78c-1,5-5,5.82-7.69,6.36l-.21,0a27.68,27.68,0,0,1-6.53.24c-.65,0-1.26,0-1.73,0h-.56c-.55,0-1.22,0-2,0,.15.3.32.63.52,1a4.07,4.07,0,0,1,.18,3.91,3.25,3.25,0,0,1-3,1.46ZM46.09,97.7V70H54.2V66.25h6.57V70h16V66.25h6.58v.47l.64.64h8.38a1.52,1.52,0,0,1,1.51,1.51V89.4a3,3,0,0,0,3,3h5.87a4,4,0,0,1,4,4v1.86a1.46,1.46,0,0,0,.27.74,11.35,11.35,0,0,0,1.1,1.49,3.73,3.73,0,0,0,1.24,1,8,8,0,0,1,1.61.9,2.57,2.57,0,0,1,1.09,1.84,4.4,4.4,0,0,1-.9,3.28,2.47,2.47,0,0,1-1.27.78,18.65,18.65,0,0,1-2.56.55,13.41,13.41,0,0,1-1.69.09h-7a8.55,8.55,0,0,1-2.89-.35A19.3,19.3,0,0,1,92.18,107a9.17,9.17,0,0,0-5-1.46H79.64a14.66,14.66,0,0,1-5.33-1,11.58,11.58,0,0,1-3-2.28A6.17,6.17,0,0,1,69.75,100a2.83,2.83,0,0,0-.9-1.38c-.49-.4-.84-.69-1.12-1ZM59.76,80.46V77.94h-3.2v-3.2H54v3.2H50.85v2.52H54v3.19h2.52V80.46Zm26.92-2.52H77.77v2.52h8.91V77.94Zm1.94-5.13H48.92V94.87h39.7V72.81Z" transform="translate(0 0)"/></svg>