<svg id="Laag_1" data-name="Laag 1" xmlns="http://www.w3.org/2000/svg" viewBox="0 0 141.73 123.94"><defs><style>.cls-1{fill:#ffd300;}.cls-2{fill:#1d1d1b;}</style></defs><title>W037 Op afstand bestuurde machines</title><polygon class="cls-1" points="11.72 115.44 70.87 12.91 130.01 115.44 11.72 115.44"/><path class="cls-2" d="M141.18,117.79,74.42,2.06a4.1,4.1,0,0,0-7.11,0L.56,117.79a4.09,4.09,0,0,0,3.55,6.15H137.63A4.09,4.09,0,0,0,141.18,117.79ZM11.72,115.44,70.87,12.91,130,115.44Z" transform="translate(0 0)"/><path class="cls-2" d="M95.85,90.66a3.11,3.11,0,1,0-3.1,3.1A3.1,3.1,0,0,0,95.85,90.66Z" transform="translate(0 0)"/><path class="cls-2" d="M75.27,65.14a.92.92,0,0,0,1.27-.38,6.51,6.51,0,0,0,0-6.14.94.94,0,0,0-1.27-.39,1,1,0,0,0-.38,1.27,4.71,4.71,0,0,1,0,4.38A.94.94,0,0,0,75.27,65.14Z" transform="translate(0 0)"/><path class="cls-2" d="M78.82,67.11a1,1,0,0,0,.44.11.94.94,0,0,0,.83-.49,10.58,10.58,0,0,0,0-10.05,1,1,0,0,0-1.27-.38.93.93,0,0,0-.38,1.27,8.8,8.8,0,0,1,1,4.12,8.7,8.7,0,0,1-1,4.15A.93.93,0,0,0,78.82,67.11Z" transform="translate(0 0)"/><path class="cls-2" d="M82.39,69a.89.89,0,0,0,.45.12.94.94,0,0,0,.82-.49,14.64,14.64,0,0,0,0-13.92.94.94,0,1,0-1.65.89,12.79,12.79,0,0,1,0,12.13A.94.94,0,0,0,82.39,69Z" transform="translate(0 0)"/><path class="cls-2" d="M107.7,88.93a1.55,1.55,0,0,0-2.1-.6L92.89,95.39,88,92.33l-6.13-13.5A1.53,1.53,0,0,0,80,78l-1-4H71.73V64.12a2.61,2.61,0,1,0-1.88,0V74H42.47L31.35,93.27v10.41h4a8.86,8.86,0,0,0,16.47,0h8.65a8.85,8.85,0,0,0,3.08,3.93,1.78,1.78,0,0,0,1.58,1h.12a8.85,8.85,0,0,0,6.9,0H84.71a1.84,1.84,0,0,0,1.49-.81l5.73-9.18a1.55,1.55,0,0,0,1.53,0L107.1,91A1.55,1.55,0,0,0,107.7,88.93ZM43.59,107.86A7.45,7.45,0,1,1,51,100.41,7.46,7.46,0,0,1,43.59,107.86Zm25.11,0a7.45,7.45,0,1,1,5.43-12.55l-5.7,1.57a1.68,1.68,0,1,0,.89,3.24l6.53-1.8a7.18,7.18,0,0,1,.3,2.09A7.46,7.46,0,0,1,68.7,107.86ZM76.26,105a8.82,8.82,0,0,0,.67-1.34h2.41l.48,1.34ZM77.21,98l.06,0,1.56,4.34H77.36A8.79,8.79,0,0,0,77.21,98ZM82,101.16l-2-5.71a1.68,1.68,0,0,0-2.07-1.17l-2.25.62a8.85,8.85,0,0,0-15.79,5.51,8.76,8.76,0,0,0,.2,1.86H52.25a8.76,8.76,0,0,0,.2-1.86,8.86,8.86,0,1,0-17.72,0,9.46,9.46,0,0,0,.19,1.86H32.76V93.64L43.28,75.42H77.89l1,4.16a1.67,1.67,0,0,0,.12.49l4.56,18.55ZM84.63,97,82.2,87l3.29,7.27a1.61,1.61,0,0,0,.44.56Z" transform="translate(0 0)"/></svg>