<?xml version="1.0" encoding="utf-8"?>
<!-- Generator: Adobe Illustrator 24.0.2, SVG Export Plug-In . SVG Version: 6.00 Build 0)  -->
<svg version="1.1" xmlns="http://www.w3.org/2000/svg" xmlns:xlink="http://www.w3.org/1999/xlink" x="0px" y="0px"
	 viewBox="0 0 141.7 123.9" style="enable-background:new 0 0 141.7 123.9;" xml:space="preserve">
<style type="text/css">
	.st0{fill:#FFFFFF;}
	.st1{fill:#1D1D1B;}
	.st2{fill-rule:evenodd;clip-rule:evenodd;fill:#1D1D1B;}
</style>
<g id="Laag_2">
	<rect class="st0" width="141.7" height="123.9"/>
</g>
<g id="Laag_1">
	<title>R-NL-003 Kinderen 0 – 4 jaar</title>
	<path class="st1" d="M70.9,4l67.4,117.9H3.5L70.9,4 M70.9,0L0,123.9h141.7L70.9,0z"/>
	<path class="st2" d="M77.5,60.8H64.2c-1,0-1.9,0.3-2.5,1L46.3,77.4c-1.3,1.4-1.2,3.5,0.2,4.8c1.3,1.2,3.4,1.2,4.7,0l8.3-8.4v8.4
		h22.7v-8.4l8.3,8.4c1.3,1.3,3.5,1.4,4.8,0c1.3-1.3,1.4-3.5,0-4.8L80.1,61.8C79.4,61.2,78.5,60.8,77.5,60.8z"/>
	<path class="st2" d="M82,88.1l-7.3,7.6l6,5.3l-6.3,7.2c-1.2,1.4-1.1,3.4,0.3,4.6c1.4,1.2,3.4,1.1,4.6-0.3l10.8-12.2
		c1.2-1.4,1.1-3.4-0.3-4.6L82,88.1z"/>
	<path class="st2" d="M61,101l6-5.3l-7.3-7.6l-7.8,7.5c-1.4,1.2-1.5,3.3-0.3,4.6c0,0,0,0,0,0l10.8,12.2c1.2,1.4,3.3,1.5,4.6,0.3
		c1.4-1.2,1.5-3.3,0.3-4.6L61,101z"/>
	<path class="st2" d="M60.6,48.4c0,5.7,4.6,10.2,10.2,10.2S81.1,54,81.1,48.4s-4.6-10.2-10.2-10.2S60.6,42.7,60.6,48.4L60.6,48.4z"
		/>
</g>
</svg>
