<svg id="Laag_1" data-name="Laag 1" xmlns="http://www.w3.org/2000/svg" viewBox="0 0 141.73 123.94"><defs><style>.cls-1,.cls-2{fill:#1d1d1b;}.cls-2{fill-rule:evenodd;}</style></defs><title>R-NL-003 Kinderen 0 – 4 jaar</title><path class="cls-1" d="M70.87,4l67.42,117.91H3.45L70.87,4m0-4L0,123.94H141.73L70.87,0Z"/><path class="cls-2" d="M77.52,60.84H64.21a3.33,3.33,0,0,0-2.54,1L46.34,77.38a3.41,3.41,0,0,0,4.85,4.79l8.32-8.43v8.39H82.22V73.74l8.32,8.43a3.41,3.41,0,0,0,4.86-4.79L80.07,61.85A3.37,3.37,0,0,0,77.52,60.84Z"/><path class="cls-2" d="M82,88.14l-7.33,7.55,6,5.34-6.35,7.17a3.28,3.28,0,0,0,4.92,4.35l10.84-12.24a3.29,3.29,0,0,0-.29-4.64Z"/><path class="cls-2" d="M61,101l6-5.34-7.33-7.55-7.82,7.53a3.28,3.28,0,0,0-.28,4.64l10.83,12.24a3.28,3.28,0,0,0,4.92-4.35Z"/><path class="cls-2" d="M60.63,48.36A10.24,10.24,0,1,0,70.87,38.12,10.24,10.24,0,0,0,60.63,48.36Z"/></svg>