<svg id="Laag_1" data-name="Laag 1" xmlns="http://www.w3.org/2000/svg" viewBox="0 0 141.73 123.94"><defs><style>.cls-1{fill:#1d1d1b;}</style></defs><title>R-NL-002 Bedlegerige</title><path class="cls-1" d="M70.87,4l67.42,117.91H3.45L70.87,4m0-4L0,123.94H141.73L70.87,0Z"/><path class="cls-1" d="M106.37,97.56H55.54s-.61-9.82,6.87-9.82S103,89.88,103,89.88,106.37,89.89,106.37,97.56Z"/><path class="cls-1" d="M53.71,91.1a5.34,5.34,0,1,1-5.34-5.34A5.34,5.34,0,0,1,53.71,91.1Z"/><path class="cls-1" d="M111.56,99.8h0V88.35a2.6,2.6,0,0,0-5.19,0V99.8h-67V82.19a2.6,2.6,0,0,0-5.19,0v33.33h5.19v-8.4h67v8.4h5.19v-8.4h0Z"/><polygon class="cls-1" points="83.86 53.58 75.2 53.58 75.2 62.25 66.53 62.25 66.53 53.58 57.87 53.58 57.87 44.92 66.53 44.92 66.53 36.26 75.2 36.26 75.2 44.92 83.86 44.92 83.86 53.58"/></svg>