<svg id="Laag_1" data-name="Laag 1" xmlns="http://www.w3.org/2000/svg" viewBox="0 0 141.73 123.94"><defs><style>.cls-1,.cls-2{fill:#1d1d1b;}.cls-2{fill-rule:evenodd;}</style></defs><title>R-NL-004 Kinderen 5 – 12 jaar</title><path class="cls-1" d="M70.87,4l67.42,117.91H3.45L70.87,4m0-4L0,123.94H141.73L70.87,0Z"/><path class="cls-2" d="M81.43,89.94a3.4,3.4,0,1,0-5.64,3.79l4.38,6.54-4.8,3.22A3.3,3.3,0,1,0,79.05,109l7.8-5.23a3.3,3.3,0,0,0,.9-4.58Z"/><path class="cls-2" d="M82.56,79.09,74.27,64.8c-1.74-3-4.61-3-6.35,0L59.63,79.09c-1.7,3-.34,5.84,3,5.84H79.54C82.9,84.93,84.26,82.08,82.56,79.09Z"/><path class="cls-2" d="M66.21,90.15a3.4,3.4,0,0,0-4.57,1.48l-3.59,7L52.91,96a3.3,3.3,0,1,0-3,5.88l8.36,4.27a3.29,3.29,0,0,0,4.44-1.43l5-10A3.4,3.4,0,0,0,66.21,90.15Z"/><path class="cls-2" d="M71.3,42.25a8.21,8.21,0,1,0,8.21,8.2A8.21,8.21,0,0,0,71.3,42.25Z"/><path class="cls-2" d="M59.43,69.17a3.67,3.67,0,1,0,0-7.33H49a3.67,3.67,0,1,0,0,7.33Z"/><path class="cls-2" d="M81.68,68.84,91.59,72a3.67,3.67,0,0,0,2.25-7l-9.92-3.18a3.66,3.66,0,1,0-2.24,7Z"/></svg>