<?xml version="1.0" encoding="utf-8"?>
<!-- Generator: Adobe Illustrator 24.0.2, SVG Export Plug-In . SVG Version: 6.00 Build 0)  -->
<svg version="1.1" xmlns="http://www.w3.org/2000/svg" xmlns:xlink="http://www.w3.org/1999/xlink" x="0px" y="0px"
	 viewBox="0 0 141.7 123.9" style="enable-background:new 0 0 141.7 123.9;" xml:space="preserve">
<style type="text/css">
	.st0{fill:#FFFFFF;}
	.st1{fill:#1D1D1B;}
</style>
<g id="Laag_2">
	<rect class="st0" width="141.7" height="123.9"/>
</g>
<g id="Laag_1">
	<title>R-NL-005 Valide personen</title>
	<path class="st1" d="M70.9,4l67.4,117.9H3.5L70.9,4 M70.9,0L0,123.9h141.7L70.9,0z"/>
	<path class="st1" d="M70.9,36.3c3.2,0,5.8,2.6,5.8,5.8s-2.6,5.8-5.8,5.8s-5.8-2.6-5.8-5.8c0,0,0,0,0,0
		C65.1,38.8,67.7,36.3,70.9,36.3C70.9,36.3,70.9,36.3,70.9,36.3z"/>
	<path class="st1" d="M84.8,80.9c0,1.6-1.3,2.9-2.9,2.9s-2.9-1.3-2.9-2.9V58.4c0-0.2-0.2-0.5-0.4-0.5c-0.3,0-0.5,0.2-0.5,0.5v53.8
		c0,1.9-1.5,3.4-3.4,3.4s-3.4-1.5-3.4-3.4V79.6c0-0.2-0.2-0.4-0.4-0.4c-0.3,0-0.5,0.2-0.5,0.4v32.5c0,1.9-1.5,3.4-3.4,3.4
		s-3.4-1.5-3.4-3.4V58.4c0-0.2-0.2-0.5-0.5-0.5l0,0c-0.3,0-0.5,0.2-0.5,0.5v22.5c-0.1,1.6-1.5,2.8-3.1,2.8c-1.5-0.1-2.7-1.3-2.8-2.8
		v-23c0-4.7,3.8-8.5,8.5-8.5h10.8c4.7,0,8.5,3.8,8.5,8.5V80.9z"/>
</g>
</svg>
