<svg id="Laag_1" data-name="Laag 1" xmlns="http://www.w3.org/2000/svg" viewBox="0 0 141.73 123.94"><defs><style>.cls-1{fill:#1d1d1b;}</style></defs><title>R-NL-005 Valide personen</title><path class="cls-1" d="M70.87,4l67.42,117.91H3.45L70.87,4m0-4L0,123.94H141.73L70.87,0Z"/><path class="cls-1" d="M70.87,36.26A5.76,5.76,0,1,1,65.11,42,5.75,5.75,0,0,1,70.87,36.26Z"/><path class="cls-1" d="M84.81,80.89a2.93,2.93,0,0,1-5.86,0V58.37a.45.45,0,0,0-.45-.45.46.46,0,0,0-.46.45v53.79a3.36,3.36,0,1,1-6.72,0V79.62a.45.45,0,0,0-.45-.45.46.46,0,0,0-.46.45v32.54a3.36,3.36,0,1,1-6.72,0V58.37a.45.45,0,0,0-.45-.45.46.46,0,0,0-.46.45V80.89a2.93,2.93,0,0,1-5.85,0v-23a8.51,8.51,0,0,1,8.51-8.51H76.29a8.52,8.52,0,0,1,8.52,8.51Z"/></svg>