<?xml version="1.0" encoding="utf-8"?>
<!-- Generator: Adobe Illustrator 24.0.2, SVG Export Plug-In . SVG Version: 6.00 Build 0)  -->
<svg version="1.1" xmlns="http://www.w3.org/2000/svg" xmlns:xlink="http://www.w3.org/1999/xlink" x="0px" y="0px"
	 viewBox="0 0 141.7 123.9" style="enable-background:new 0 0 141.7 123.9;" xml:space="preserve">
<style type="text/css">
	.st0{fill:#FFFFFF;}
	.st1{fill:#1D1D1B;}
	.st2{fill-rule:evenodd;clip-rule:evenodd;fill:#1D1D1B;}
</style>
<g id="Laag_2">
	<rect y="0" class="st0" width="141.7" height="123.9"/>
</g>
<g id="Laag_1">
	<title>R-NL-004 Kinderen 5 – 12 jaar</title>
	<path class="st1" d="M70.9,4l67.4,117.9H3.5L70.9,4 M70.9,0L0,123.9h141.7L70.9,0z"/>
	<path class="st2" d="M81.4,89.9c-1-1.6-3.1-2.1-4.7-1.1c-1.6,1-2.1,3.1-1.1,4.7c0,0.1,0.1,0.1,0.1,0.2l4.4,6.5l-4.8,3.2
		c-1.5,1-1.9,3.1-0.9,4.6s3.1,1.9,4.6,0.9l0,0l7.8-5.2c1.5-1,1.9-3.1,0.9-4.6c0,0,0,0,0,0L81.4,89.9z"/>
	<path class="st2" d="M82.6,79.1l-8.3-14.3c-1.7-3-4.6-3-6.3,0l-8.3,14.3c-1.7,3-0.3,5.8,3,5.8h16.9C82.9,84.9,84.3,82.1,82.6,79.1z
		"/>
	<path class="st2" d="M66.2,90.1c-1.7-0.9-3.7-0.2-4.6,1.5l-3.6,7L52.9,96c-1.6-0.8-3.6-0.2-4.4,1.4c-0.8,1.6-0.2,3.6,1.4,4.4
		l8.4,4.3c1.6,0.8,3.6,0.2,4.4-1.4c0,0,0,0,0,0l5-10C68.6,93,67.9,91,66.2,90.1C66.2,90.2,66.2,90.2,66.2,90.1z"/>
	<path class="st2" d="M71.3,42.2c-4.5,0-8.2,3.7-8.2,8.2s3.7,8.2,8.2,8.2c4.5,0,8.2-3.7,8.2-8.2c0,0,0,0,0,0
		C79.5,45.9,75.8,42.2,71.3,42.2z"/>
	<path class="st2" d="M59.4,69.2c2,0.1,3.8-1.4,3.9-3.5c0.1-2-1.4-3.8-3.5-3.9c-0.1,0-0.3,0-0.4,0H49c-2-0.1-3.8,1.4-3.9,3.5
		c-0.1,2,1.4,3.8,3.5,3.9c0.1,0,0.3,0,0.4,0H59.4z"/>
	<path class="st2" d="M81.7,68.8l9.9,3.2c1.9,0.6,4-0.4,4.6-2.4s-0.4-4-2.4-4.6l-9.9-3.2c-1.9-0.6-4,0.4-4.6,2.4
		C78.7,66.1,79.7,68.2,81.7,68.8L81.7,68.8z"/>
</g>
</svg>
