<?xml version="1.0" encoding="utf-8"?>
<!-- Generator: Adobe Illustrator 24.0.2, SVG Export Plug-In . SVG Version: 6.00 Build 0)  -->
<svg version="1.1" xmlns="http://www.w3.org/2000/svg" xmlns:xlink="http://www.w3.org/1999/xlink" x="0px" y="0px"
	 viewBox="0 0 141.7 123.9" style="enable-background:new 0 0 141.7 123.9;" xml:space="preserve">
<style type="text/css">
	.st0{fill:#FFFFFF;}
	.st1{fill:#1D1D1B;}
</style>
<g id="Laag_2">
	<rect class="st0" width="141.7" height="123.9"/>
</g>
<g id="Laag_1">
	<title>R-NL-006 Mindervalide personen</title>
	<path class="st1" d="M70.9,4l67.4,117.9H3.5L70.9,4 M70.9,0L0,123.9h141.7L70.9,0z"/>
	<path class="st1" d="M65.8,50.3c3.8,1,7.7-1.2,8.8-5c1-3.8-1.2-7.7-5-8.8c-3.8-1-7.7,1.2-8.8,5C59.8,45.3,62,49.2,65.8,50.3
		C65.8,50.3,65.8,50.3,65.8,50.3 M67.5,51.8c-3.3,0.4-5.6,3.4-5.2,6.7L65,80.9c0.4,3.2,3.2,5.5,6.4,5.2h18.7c0,0,9.2,21.6,9.2,21.7
		c0.8,1.2,2.8,1,4.4,0.6c2.3-0.6,3.8-2.1,3.5-3.3c0,0-10.7-25.1-10.8-25.4c-0.3-0.6-0.7-1.1-1.3-1.4c-0.4-0.2-0.8-0.4-1.2-0.4
		c-0.5-0.1-0.9-0.1-1.4-0.1H76.7L76,70.9h13.4c1.5,0,2.7-1.2,2.7-2.7s-1.2-2.7-2.7-2.7h-14l-1.2-8.6C73.8,53.8,70.8,51.4,67.5,51.8
		 M76.1,115.5c7.7,0,14.9-3.4,19.8-9.4l0.3-0.4l-2.7-6.3c-0.1,0.2-0.2,0.4-0.3,0.6c-5.6,9.4-17.7,12.6-27.1,7
		c-6.1-3.6-9.8-10.1-9.8-17.1c-0.1-5.4,2.1-10.6,6.1-14.3l-0.8-6.8c-7,4.7-11.1,12.6-11,21.1C50.5,104.1,61.9,115.5,76.1,115.5"/>
</g>
</svg>
