<?xml version="1.0" encoding="utf-8"?>
<!-- Generator: Adobe Illustrator 24.0.2, SVG Export Plug-In . SVG Version: 6.00 Build 0)  -->
<svg version="1.1" xmlns="http://www.w3.org/2000/svg" xmlns:xlink="http://www.w3.org/1999/xlink" x="0px" y="0px"
	 viewBox="0 0 141.7 123.9" style="enable-background:new 0 0 141.7 123.9;" xml:space="preserve">
<style type="text/css">
	.st0{fill:#FFFFFF;}
	.st1{fill:#1D1D1B;}
</style>
<g id="Laag_2">
	<rect class="st0" width="141.7" height="123.9"/>
</g>
<g id="Laag_1">
	<title>R-NL-001 Slaapplaatsen</title>
	<g id="IW001_-_Gevaar">
		<path class="st1" d="M70.9,4l67.4,117.9H3.5L70.9,4 M70.9,0L0,123.9h141.7L70.9,0z"/>
		<path class="st1" d="M106.4,97.6H55.5c0,0-0.6-9.8,6.9-9.8s40.6,2.1,40.6,2.1S106.4,89.9,106.4,97.6z"/>
		<path class="st1" d="M53.7,91.1c0,2.9-2.4,5.3-5.3,5.3S43,94,43,91.1c0-2.9,2.4-5.3,5.3-5.3S53.7,88.2,53.7,91.1L53.7,91.1z"/>
		<path class="st1" d="M111.6,99.8L111.6,99.8V88.3c-0.1-1.4-1.3-2.5-2.8-2.4c-1.3,0.1-2.4,1.1-2.4,2.4v11.5h-67V82.2
			c-0.1-1.4-1.3-2.5-2.8-2.4c-1.3,0.1-2.4,1.1-2.4,2.4v33.3h5.2v-8.4h67v8.4h5.2v-8.4l0,0V99.8z"/>
	</g>
</g>
</svg>
