<?xml version="1.0" encoding="utf-8"?>
<!-- Generator: Adobe Illustrator 24.0.2, SVG Export Plug-In . SVG Version: 6.00 Build 0)  -->
<svg version="1.1" xmlns="http://www.w3.org/2000/svg" xmlns:xlink="http://www.w3.org/1999/xlink" x="0px" y="0px"
	 viewBox="0 0 141.7 141.6" style="enable-background:new 0 0 141.7 141.6;" xml:space="preserve">
<style type="text/css">
	.st0{fill:#FFFFFF;}
	.st1{fill:#007E48;}
</style>
<g id="Laag_2">
	<rect y="0" class="st0" width="141.7" height="141.7"/>
</g>
<g id="Laag_1">
	<path class="st1" d="M0,0v141.7h141.7V0H0z M43.3,10.5h38.5V49H69.3V46c0-1-0.3-2-0.8-2.8c2.8,0,4.6,0,7.4,0V16.4H48.9v26.8
		c3.6,0,5.9,0,9.2,0c-0.5,0.8-0.8,1.8-0.8,2.8V49h-14V10.5z M62.4,39.1c-5.1,0-9.4-4.1-9.4-9.5c0-5.1,4.3-9.2,9.4-9.2
		s9.4,4.1,9.4,9.2C71.9,35,67.6,39.1,62.4,39.1z M98.4,118.5c0,2-1.3,7.2-4.1,7.2c-1,0,0.3,1.5,2,1.8c0.8,0,1.8,1,1.8,2
		c-0.3,0.8-1,1.8-1.8,1.8H55.8c-0.5-0.3-0.5-3.6-0.5-7.4c0.3-1.5,0.3-3.1,0.5-4.1c-5.6-5.9-10.2-12.5-11-17.6c0-0.5,0-1,0-1.3V77.6
		c0-2.8,1.5-5.1,4.8-4.8c2.3,0,4.1,1.5,4.1,4.8V95c0,0.5,0,1.8,1.8,2.3c0,0,0.3,0,0.5,0c0.5,0,1.3-0.3,1.5-0.8
		c0.5-0.3,0.8-0.8,0.8-1.3V46c0-2.8,2.3-5.1,5.1-5.1c2.8,0,4.8,2.3,4.8,5.1v27c0-2.8,2.3-5.1,5.1-5.1c2.8,0,5.1,2.3,5.1,5.1v0.3
		c0.8-1.5,2.6-2.8,4.6-2.8c2.8,0,5.1,2.3,5.1,5.1v2.6c0.5-2.6,2.3-4.3,5.4-4.3c3.3,0,4.8,2.3,4.8,5.1
		C98.4,78.9,98.4,118.5,98.4,118.5z"/>
</g>
</svg>
