<?xml version="1.0" encoding="utf-8"?>
<!-- Generator: Adobe Illustrator 24.0.2, SVG Export Plug-In . SVG Version: 6.00 Build 0)  -->
<svg version="1.1" xmlns="http://www.w3.org/2000/svg" xmlns:xlink="http://www.w3.org/1999/xlink" x="0px" y="0px"
	 viewBox="0 0 141.7 141.7" style="enable-background:new 0 0 141.7 141.7;" xml:space="preserve">
<style type="text/css">
	.st0{fill:#FFFFFF;}
	.st1{fill:#007E48;}
</style>
<g id="Laag_2">
	<rect y="0" class="st0" width="141.7" height="141.7"/>
</g>
<g id="Laag_1">
	<rect y="0" class="st1" width="141.7" height="141.7"/>
	<polygon class="st0" points="128.9,36.4 117.1,36.4 117.1,48.2 105.3,48.2 105.3,36.4 93.5,36.4 93.5,24.6 105.3,24.6 105.3,12.8 
		117.1,12.8 117.1,24.6 128.9,24.6 	"/>
	<path class="st1" d="M41.3,25.7c2.4-0.1,9.5-0.3,12.4,2.8c-0.5-0.1-1.1-0.1-1.6-0.1c-9.8,0.9-14.5,0.5-16.3,0.3
		C36.5,27.8,37.9,26,41.3,25.7z M55.1,69.4c-14.8-1-22.6-10.7-22.7-10.8c-0.2-0.3-0.7-0.3-1-0.1s-0.4,0.7-0.1,1
		c0.3,0.4,8.1,10.2,23.4,11.3c0.4,1.1,1.4,4.7-0.7,7c-1.9,2.2-5,2.6-9.5,1.3l-1.8-0.5l0.1,0.1c-13.2-3.2-17-7-17.1-7.1
		c-0.3-0.3-0.7-0.3-1,0c-0.3,0.3-0.3,0.7,0,1c0.2,0.2,4.4,4.5,19.2,7.8c0.2,0.3,0.4,1,0.1,1.8c-0.5,1.4-2.1,2.6-4.9,3.5
		c-4.8,1.6-12.1-0.8-15.7-2.5c-0.1,0-11.9-4.1-9.1-12.9c0.4-1.3,1.1-2.1,2-2.6c1.6-0.8,3.4-0.1,3.4-0.1l2.6,1l-1.8-2.1
		c-0.2-0.2-4.1-4.9-1.2-9.7c2.6-4.4,7.1-2.6,7.2-2.5l2.1,0.9l-1.3-1.9c0,0-2.1-3.2-1.4-6.6c0.4-2,1.8-3.7,4-5.1c1.3,1,5.4,4,9.5,4.8
		c1.1,1.7,7.6,10.6,18.4,13.7l0.6,0.6c1.1,1.1,0.2,4.5-0.2,5.6l0,0C57.9,67.4,56.9,68.6,55.1,69.4z M42.9,46.6
		c5.1-1.1,10.2,1.5,10.3,1.6c0,0,5.3,2.9,8.2,6c0.5,0.5,0.7,1.1,0.6,1.7c-0.2,1.3-1.6,2.6-2.7,3.3c-0.1,0-0.1-0.1-0.2-0.1
		c-9.4-2.3-15.7-9.5-17.9-12.4C41.8,46.7,42.4,46.7,42.9,46.6z"/>
	<path class="st0" d="M55.1,69.4c-14.8-1-22.6-10.7-22.7-10.8c-0.2-0.3-0.7-0.3-1-0.1s-0.4,0.7-0.1,1c0.3,0.4,8.1,10.2,23.4,11.3
		c0.4,1.1,1.4,4.7-0.7,7c-1.9,2.2-5,2.6-9.5,1.3l-1.8-0.5l0.1,0.1c-13.2-3.2-17-7-17.1-7.1c-0.3-0.3-0.7-0.3-1,0
		c-0.3,0.3-0.3,0.7,0,1c0.2,0.2,4.4,4.5,19.2,7.8c0.2,0.3,0.4,1,0.1,1.8c-0.5,1.4-2.1,2.6-4.9,3.5c-4.8,1.6-12.1-0.8-15.7-2.5
		c-0.1,0-11.9-4.1-9.1-12.9c0.4-1.3,1.1-2.1,2-2.6c1.6-0.8,3.4-0.1,3.4-0.1l2.6,1l-1.8-2.1c-0.2-0.2-4.1-4.9-1.2-9.7
		c2.6-4.4,7.1-2.6,7.2-2.5l2.1,0.9l-1.3-1.9c0,0-2.1-3.2-1.4-6.6c0.4-2,1.8-3.7,4-5.1c1.3,1,5.4,4,9.5,4.8
		c1.1,1.7,7.6,10.6,18.4,13.7l0.6,0.6c1.1,1.1,0.2,4.5-0.2,5.6l0,0C57.9,67.4,56.9,68.6,55.1,69.4z"/>
	<path class="st0" d="M42.9,46.6c5.1-1.1,10.2,1.5,10.3,1.6c0,0,5.3,2.9,8.2,6c0.5,0.5,0.7,1.1,0.6,1.7c-0.2,1.3-1.6,2.6-2.7,3.3
		c-0.1,0-0.1-0.1-0.2-0.1c-9.4-2.3-15.7-9.5-17.9-12.4C41.8,46.7,42.4,46.7,42.9,46.6z"/>
	<path class="st0" d="M82.7,55.9c-2.2-10.3-7.3-13.4-9.1-14.2l0,0c-4.5-1.3-7.9-4-10.5-6.2c-3.3-2.9-8.1-6-10.8-5.7
		c-10.6,1-15.3,0.5-16.9,0.3v0l-0.1,0C35,30,34.8,30,34.8,30c-0.2,0-4.3-0.8-6.3,2c-0.2,0.3-0.4,0.5-0.5,0.9
		c-1.8,3.9,2.5,7.5,2.5,7.5l0.1,0.1c0.7,0.6,5.2,4.1,9.4,4.8c0,0,0.1,0,0.1,0c0.9,0.2,1.8,0.2,2.6,0c5.6-1.2,11,1.6,11.2,1.7
		c0.2,0.1,5.5,3,8.6,6.3c0.8,0.9,1.1,1.8,1,2.9c-0.3,2-2.4,3.7-3.4,4.4c0.5,0.9,0.5,2.1,0.4,3.2l0.1,0L60.2,65
		c0,0.1-0.3,3.2-3.7,5.3l-0.3,0.5c0.5,1.7,1.2,5.3-1.1,7.9c-1.2,1.3-2.8,2.1-4.8,2.4l-11.8,20.7c24.1,11.7,40.2,27.1,40.2,27.1
		L112,96.2C93,84.4,85.4,68.6,82.7,55.9z M52.9,82.6c-0.2-0.3,0-0.8,0.4-0.9c0.3-0.2,0.8,0,0.9,0.4c5,11.5,15.6,9.5,16,9.4
		c0.4-0.1,0.7,0.2,0.8,0.5c0.1,0.4-0.2,0.7-0.5,0.8c0,0-0.9,0.2-2.4,0.2C64.3,93,56.8,91.8,52.9,82.6z M85.8,87.7
		c-0.2,0.3-4.2,7.9-10.6,8.2c-5.3,0.3-8,3.4-8.2,4.6c-0.8,6.6-5.7,10.2-5.9,10.4c-0.1,0.1-0.3,0.1-0.4,0.1c-0.2,0-0.4-0.1-0.6-0.3
		c-0.2-0.3-0.2-0.7,0.2-1c0,0,4.6-3.4,5.3-9.4c0.3-2.2,3.8-5.5,9.4-5.8c5.6-0.3,9.4-7.4,9.4-7.5c0.2-0.3,0.6-0.5,0.9-0.3
		C85.9,86.9,86,87.3,85.8,87.7z"/>
	<path class="st0" d="M41.3,25.7c2.4-0.1,9.5-0.3,12.4,2.8c-0.5-0.1-1.1-0.1-1.6-0.1c-9.8,0.9-14.5,0.5-16.3,0.3
		C36.5,27.8,37.9,26,41.3,25.7z"/>
	<g>
		<path class="st0" d="M64,34.5c2,1.8,4.7,4,8,5.3L80,26c0,0-0.1-3.2-6.8-7.1c-6.7-3.9-9.9-2.6-9.9-2.6l-7.4,12.8
			C59.6,30.6,63.5,34,64,34.5z"/>
		<path class="st0" d="M45.5,80.8c0.1,0.5,0.1,1.1-0.1,1.8c-0.6,1.8-2.5,3.3-5.8,4.4c-1.3,0.4-2.7,0.6-4.2,0.6
			c-4.1,0-8.7-1.4-11.6-2.7l-9.1,15.8l0.6,5.4l-2.5,4.4l11.1,6.4l2.5-4.4l5-2.2l16.8-29.1C47.3,81.1,46.4,81,45.5,80.8z"/>
	</g>
</g>
</svg>
