<?xml version="1.0" encoding="utf-8"?>
<!-- Generator: Adobe Illustrator 24.0.2, SVG Export Plug-In . SVG Version: 6.00 Build 0)  -->
<svg version="1.1" xmlns="http://www.w3.org/2000/svg" xmlns:xlink="http://www.w3.org/1999/xlink" x="0px" y="0px"
	 viewBox="0 0 141.7 141.7" style="enable-background:new 0 0 141.7 141.7;" xml:space="preserve">
<style type="text/css">
	.st0{fill:#FFFFFF;}
	.st1{fill-rule:evenodd;clip-rule:evenodd;fill:#007E48;}
</style>
<g id="Laag_2">
	<rect y="0" class="st0" width="141.7" height="141.7"/>
</g>
<g id="Laag_1">
	<path class="st1" d="M63.4,97.3c-0.5-0.2-1.8-0.3-3.6-0.3h-3.3v5.2h3.7c1.5,0,2.4,0,2.8-0.1c0.6-0.1,1.1-0.4,1.5-0.8
		c0.4-0.4,0.6-1,0.6-1.7c0-0.6-0.2-1.1-0.4-1.5C64.4,97.8,64,97.5,63.4,97.3z"/>
	<path class="st1" d="M62.2,93.6c0.7-0.1,1.2-0.3,1.6-0.7c0.4-0.4,0.6-0.9,0.6-1.6c0-0.6-0.2-1.1-0.5-1.5c-0.3-0.4-0.8-0.6-1.5-0.7
		c-0.4,0-1.5-0.1-3.5-0.1h-2.3v4.6h2.7C60.8,93.7,61.8,93.6,62.2,93.6z"/>
	<path class="st1" d="M122.5,111.4l-37.4,2.4c-0.4,0-0.4,0.4-0.4,0.8s0.4,0.8,0.8,0.8l37.4,2c0.8,0,1.2-0.8,1.2-1.6s0-1.6,0-2.4
		C124.1,112.2,123.3,111.4,122.5,111.4z"/>
	<path class="st1" d="M130,110.6h-1.6c-1.2,0-2,1.2-2,2v5.5c0,0.8-0.4,1.6-1.2,1.6c-0.8,0.4-1.2,1.2-1.2,2c0,0.3,0,0.7,0,1
		l-77.9-5.7c-0.4,0-1.2,0-1.6,0l-31.5,2c-0.8,0-1.6-0.4-1.6-1.6c0-0.4,0.4-1.2,1.2-1.2c9.5-0.8,16.9-8.3,17.7-17.7
		c5.1-64.2,100.4-59.8,100.4,4.3C130.8,105.5,130.4,107.8,130,110.6z M0,0v141.7h141.7V0H0z M33.1,98.8c-0.4,6.7-3.9,12.6-9.5,16.5
		l103.6-7.1c0.4-1.6,0.4-3.5,0.4-5.5C127.6,42.1,38.2,38.5,33.1,98.8z M68.6,102.5c-0.4,0.8-1,1.5-1.7,2s-1.6,0.8-2.7,0.9
		c-0.7,0.1-2.3,0.1-4.9,0.1h-6.8v-20h8c1.6,0,2.8,0.1,3.5,0.2s1.5,0.4,2.1,0.8s1.1,1,1.5,1.7c0.4,0.7,0.6,1.5,0.6,2.3
		c0,0.9-0.3,1.8-0.8,2.6c-0.5,0.8-1.2,1.4-2.1,1.8c1.2,0.3,2.2,0.9,2.8,1.8c0.7,0.8,1,1.8,1,3C69.3,100.8,69.1,101.7,68.6,102.5z
		 M88.6,105.6h-4v-8.7h-7.9v8.7h-4v-20h4v7.9h7.9v-7.9h4V105.6z M102.1,105.6h-4.3l-7-20h4.4l5,14.8l4.9-14.8h4.3L102.1,105.6z
		 M129,36.4h-11.8v11.8h-11.8V36.4H93.5V24.6h11.8V12.8h11.8v11.8H129L129,36.4L129,36.4z"/>
</g>
</svg>
