<?xml version="1.0" encoding="utf-8"?>
<!-- Generator: Adobe Illustrator 24.0.2, SVG Export Plug-In . SVG Version: 6.00 Build 0)  -->
<svg version="1.1" xmlns="http://www.w3.org/2000/svg" xmlns:xlink="http://www.w3.org/1999/xlink" x="0px" y="0px"
	 viewBox="0 0 141.7 141.7" style="enable-background:new 0 0 141.7 141.7;" xml:space="preserve">
<style type="text/css">
	.st0{fill:#FFFFFF;}
	.st1{fill:#007E48;}
</style>
<g id="Laag_2">
	<rect y="0" class="st0" width="141.7" height="141.7"/>
</g>
<g id="Laag_1">
	<g id="Layer_1">
	</g>
	<g id="Laag_1_1_">
		<path class="st1" d="M0,0v141.7h141.7V0H0z M40.7,12.8c1.3,0.1,2.3,1.3,2.3,1.3s1.7,6.7,3.2,13.5c1.8,7.8,3.6,15.8,3.6,15.8
			s-1.3,1.9-2.9,2.5c-1.9,0.7-4.2,0-4.2,0l-6.8-32.5C35.9,13.4,38.6,12.6,40.7,12.8z M69,125.8c-6.3,2.1-14.5,3.2-14.5,3.2
			s-11.6-7.6-21.6-21.8c-8.7-12.5-14.1-29.3-14.1-29.3S13.7,62,13,46.6c-0.6-13.6,0.7-23.7,0.7-23.7s3.4-4,8.4-6.3
			c4.9-2.3,11.6-2.2,11.6-2.2l6.8,33.1c0,0-3.3-0.3-5.8-0.9c-2.3-0.5-3.9,1.9-3.9,1.9s3.2,12.4,7.7,24.9c3.6,9.8,6.8,20.3,9,24.9
			c1,2,2.6,3.5,2.6,3.5l6.8-6.3l22.6,25.3C79.3,120.7,75.1,123.7,69,125.8z M85.5,116.3c-1.3,1.6-3.9,2.9-3.9,2.9L59,93.9
			c0,0,1-1.9,2.6-2.9c1.8-1,4.2-1.1,4.2-1.1s4,5,8.7,10.2c5.6,6.3,11.6,13.3,11.6,13.3S86.5,115,85.5,116.3z M128.9,36.4h-11.8v11.8
			h-11.8V36.4H93.5V24.6h11.8V12.8h11.8v11.8H129L128.9,36.4L128.9,36.4z"/>
	</g>
</g>
</svg>
