<?xml version="1.0" encoding="utf-8"?>
<!-- Generator: Adobe Illustrator 24.0.2, SVG Export Plug-In . SVG Version: 6.00 Build 0)  -->
<svg version="1.1" xmlns="http://www.w3.org/2000/svg" xmlns:xlink="http://www.w3.org/1999/xlink" x="0px" y="0px"
	 viewBox="0 0 141.7 141.7" style="enable-background:new 0 0 141.7 141.7;" xml:space="preserve">
<style type="text/css">
	.st0{fill:#FFFFFF;}
	.st1{fill-rule:evenodd;clip-rule:evenodd;fill:#007E48;}
</style>
<g id="Laag_2">
	<rect y="0" class="st0" width="141.7" height="141.7"/>
</g>
<g id="Layer_1">
	<path class="st1" d="M0,0v141.7h141.7V0H0z M84.1,44.8c2.4,0,4.4,2,4.4,4.4c0,2.4-2,4.4-4.4,4.4s-4.4-2-4.4-4.4
		S81.6,44.8,84.1,44.8z M57.7,44.8c2.4,0,4.4,2,4.4,4.4c0,2.4-2,4.4-4.4,4.4c-2.4,0-4.4-2-4.4-4.4C53.3,46.8,55.3,44.8,57.7,44.8z
		 M42.8,121.4l-7.6,7.6v-16.7L18.5,129l-5.7-5.7l16.7-16.6H12.8l7.6-7.6h22.4V121.4z M42.8,42.7H20.4l-7.6-7.6h16.7L12.8,18.5
		l5.7-5.7l16.7,16.7V12.8l7.6,7.6V42.7z M68.1,78.6c0,1.2-0.9,2.1-2.1,2.1s-2.1-0.9-2.1-2.1v-17c0-0.3-0.2-0.5-0.5-0.5
		S63,61.3,63,61.6v40.7c0,1.3-1.1,2.4-2.4,2.4s-2.4-1.1-2.4-2.4V77.7c0-0.3-0.2-0.5-0.5-0.5s-0.5,0.2-0.5,0.5v24.6
		c0,1.3-1.1,2.4-2.4,2.4s-2.4-1.1-2.4-2.4V61.6c0-0.3-0.2-0.5-0.5-0.5c-0.3,0-0.5,0.2-0.5,0.5v17c0,1.2-0.9,2.1-2.1,2.1
		s-2.1-0.9-2.1-2.1V61.1c0-4.1,3.7-6.2,5.8-6.2h4.7h4.7c2.1,0,5.8,2.2,5.8,6.2L68.1,78.6L68.1,78.6z M66.5,41.1c0-2.4,2-4.4,4.4-4.4
		s4.4,2,4.4,4.4s-2,4.4-4.4,4.4C68.4,45.5,66.5,43.5,66.5,41.1z M94.5,78.6c0,1.2-0.9,2.1-2.1,2.1s-2.1-0.9-2.1-2.1v-17
		c0-0.3-0.2-0.5-0.5-0.5c-0.3,0-0.5,0.2-0.5,0.5v40.7c0,1.3-1.1,2.4-2.4,2.4c-1.3,0-2.4-1.1-2.4-2.4V77.7c0-0.3-0.2-0.5-0.5-0.5
		s-0.5,0.2-0.5,0.5v24.6c0,1.3-1.1,2.4-2.4,2.4c-1.3,0-2.4-1.1-2.4-2.4V61.6c0-0.3-0.2-0.5-0.5-0.5c-0.3,0-0.5,0.2-0.5,0.5v17
		c0,1.2-0.9,2.1-2.1,2.1s-2.1-0.9-2.1-2.1V61.1c0-4.1,3.7-6.2,5.8-6.2h4.7h4.7c2.1,0,5.8,2.2,5.8,6.2L94.5,78.6L94.5,78.6z
		 M128.9,123.2l-5.7,5.7l-16.7-16.7V129l-7.6-7.6V99h22.4l7.6,7.6h-16.6L128.9,123.2z M128.9,35.2l-7.6,7.6H99V20.4l7.6-7.6v16.7
		l16.7-16.7l5.7,5.7l-16.6,16.6H128.9z"/>
</g>
</svg>
