<?xml version="1.0" encoding="utf-8"?>
<!-- Generator: Adobe Illustrator 24.0.2, SVG Export Plug-In . SVG Version: 6.00 Build 0)  -->
<svg version="1.1" xmlns="http://www.w3.org/2000/svg" xmlns:xlink="http://www.w3.org/1999/xlink" x="0px" y="0px"
	 viewBox="0 0 141.7 98.5" style="enable-background:new 0 0 141.7 98.5;" xml:space="preserve">
<style type="text/css">
	.st0{fill:#FFFFFF;}
	.st1{fill-rule:evenodd;clip-rule:evenodd;fill:#007E48;}
	.st2{fill:#007E48;}
</style>
<g id="Laag_2">
	<rect y="0.1" class="st0" width="103" height="98.5"/>
</g>
<g id="Laag_1">
	<title>E007_verzamelplaats-4</title>
	<path class="st1" d="M0,0.1v98.5h98.5V0.1H0z M58.4,31.2c1.7,0,3,1.3,3,3c0,1.7-1.3,3-3,3s-3-1.3-3-3S56.7,31.2,58.4,31.2
		C58.4,31.2,58.4,31.2,58.4,31.2z M40.1,31.2c1.7,0,3,1.3,3,3c0,1.7-1.3,3-3,3s-3-1.3-3-3S38.4,31.2,40.1,31.2
		C40.1,31.2,40.1,31.2,40.1,31.2z M29.7,84.4l-5.3,5.3V78.1L12.9,89.6l-4-4l11.6-11.5H8.9l5.3-5.3h15.5V84.4z M29.7,29.8H14.2
		l-5.3-5.3h11.6L8.9,12.9l4-4l11.5,11.6V8.9l5.3,5.3V29.8z M47.3,54.7c0,0.8-0.6,1.5-1.5,1.5s-1.5-0.6-1.5-1.5V42.8
		c0-0.2-0.1-0.3-0.3-0.3h0c-0.2,0-0.3,0.1-0.3,0.3v28.3c0.1,0.9-0.6,1.7-1.5,1.8s-1.7-0.6-1.8-1.5c0-0.1,0-0.2,0-0.3V54
		c0-0.2-0.2-0.3-0.4-0.3c-0.1,0-0.3,0.1-0.3,0.3v17.1c0,0.9-0.7,1.7-1.7,1.7c-0.9,0-1.7-0.7-1.7-1.7V42.8c0-0.2-0.1-0.3-0.3-0.3h0
		c-0.2,0-0.3,0.1-0.3,0.3v0v11.8c0,0.8-0.6,1.5-1.5,1.5s-1.5-0.6-1.5-1.5V42.5c0-2.3,1.7-4.1,4-4.3h6.5c2.3,0.2,4,2.1,4,4.3
		L47.3,54.7z M46.2,28.6c0-1.7,1.3-3,3-3s3,1.3,3,3s-1.3,3-3,3S46.2,30.3,46.2,28.6z M65.6,54.7c0.1,0.8-0.5,1.5-1.3,1.6
		s-1.5-0.5-1.6-1.3c0-0.1,0-0.2,0-0.2V42.8c0-0.2-0.2-0.3-0.4-0.3c-0.1,0-0.3,0.1-0.3,0.3v28.3c0.1,0.9-0.6,1.7-1.5,1.8
		s-1.7-0.6-1.8-1.5c0-0.1,0-0.2,0-0.3V54c0-0.2-0.2-0.3-0.3-0.3c-0.2,0-0.3,0.1-0.3,0.3v17.1c0.1,0.9-0.6,1.7-1.5,1.8
		s-1.7-0.6-1.8-1.5c0-0.1,0-0.2,0-0.3V42.8c0-0.2-0.2-0.3-0.4-0.3c-0.1,0-0.3,0.1-0.3,0.3v11.8c0,0.8-0.6,1.5-1.5,1.5
		s-1.5-0.6-1.5-1.5V42.5c0-2.3,1.7-4.1,4-4.3h6.5c2.3,0.2,4,2.1,4,4.3L65.6,54.7z M89.6,85.7l-4,4L74,78.1v11.6l-5.3-5.3V68.8h15.6
		l5.3,5.3H78L89.6,85.7z M89.6,24.5l-5.3,5.3H68.8V14.2L74,8.9v11.6L85.6,8.9l4,4L78,24.5L89.6,24.5z"/>
	<rect x="102.2" y="0" class="st2" width="39.5" height="98.5"/>
	<path class="st0" d="M135.7,8.9v52.8h4.1v13.8h-4.1v14.2h-14.4V75.4h-17.1V61.7l12.4-52.8H135.7z M121.3,61.7V27.3l-6.4,34.4H121.3
		z"/>
</g>
</svg>
