<?xml version="1.0" encoding="utf-8"?>
<!-- Generator: Adobe Illustrator 24.0.2, SVG Export Plug-In . SVG Version: 6.00 Build 0)  -->
<svg version="1.1" xmlns="http://www.w3.org/2000/svg" xmlns:xlink="http://www.w3.org/1999/xlink" x="0px" y="0px"
	 viewBox="0 0 141.7 141.7" style="enable-background:new 0 0 141.7 141.7;" xml:space="preserve">
<style type="text/css">
	.st0{fill:#FFFFFF;}
	.st1{fill:#007E48;}
</style>
<g id="Laag_2">
	<rect y="0" class="st0" width="141.7" height="141.7"/>
</g>
<g id="Laag_1">
	<path class="st1" d="M48.6,121.9c-7.4,0-10.7-9.1-11.3-16.2c2.9-0.9,5-3.7,5-6.9c0-4-3.2-7.2-7.2-7.2s-7.2,3.2-7.2,7.2
		c0,3.8,2.9,6.9,6.6,7.2c0.8,8.4,4.8,18.7,14.1,18.7c5,0,8.6-2.1,10.6-6l-1.5-3.3C56.9,119.6,53.6,121.9,48.6,121.9z M35.1,101
		c-1.2,0-2.2-1-2.2-2.2c0-1.2,1-2.2,2.2-2.2c1.2,0,2.2,1,2.2,2.2C37.3,100,36.3,101,35.1,101z"/>
	<path class="st1" d="M0,0v141.7h141.7V0H0z M59.4,25.9c10.4,0,18.8,9.3,18.8,20.9s-8.4,20.9-18.8,20.9c-10.4,0-18.9-9.3-18.9-20.9
		C40.5,35.2,49,25.9,59.4,25.9z M105.8,129.2h-17v-27.6h-3.5v27.6H12.6V99.6c0-14.8,11-27,25.3-28.8l19.8,44.6v-32
		C44.4,82.1,35.5,66,35.5,50.9c0-0.9,0.8-1.7,1.7-1.7s1.7,0.8,1.7,1.7c0,13.8,8.4,29.3,20.5,29.3s20.5-15.4,20.5-29.3
		c0-0.9,0.8-1.7,1.7-1.7s1.7,0.8,1.7,1.7c0,15.1-8.8,31.3-22.2,32.5v31.2l19.4-43.8c14.3,1.8,25.3,14.1,25.3,28.8V129.2z M129,36.4
		h-11.8v11.8h-11.8V36.4H93.5V24.6h11.8V12.8h11.8v11.8H129L129,36.4L129,36.4z"/>
</g>
</svg>
