<?xml version="1.0" encoding="utf-8"?>
<!-- Generator: Adobe Illustrator 24.0.2, SVG Export Plug-In . SVG Version: 6.00 Build 0)  -->
<svg version="1.1" xmlns="http://www.w3.org/2000/svg" xmlns:xlink="http://www.w3.org/1999/xlink" x="0px" y="0px"
	 viewBox="0 0 141.7 141.7" style="enable-background:new 0 0 141.7 141.7;" xml:space="preserve">
<style type="text/css">
	.st0{fill:#FFFFFF;}
	.st1{fill:#007E48;}
</style>
<g id="Laag_2">
	<rect y="0" class="st0" width="141.7" height="141.7"/>
</g>
<g id="Laag_1">
	<path class="st1" d="M70.9,56.3L59.4,80.6h14.8l-26.4,30.8l10.1-24.2H43.3L70.9,56.3 M0,0v141.7h141.7V0H0z M59.9,125.4
		c-29.5-19.9-43.6-39.5-43.6-55c0-13.8,10.4-25,23.4-25c8.6,0,16.3,5,20.3,12.6c4-7.6,11.6-12.6,20.3-12.6
		c12.9,0,23.3,11.2,23.3,24.9C103.6,85.9,89.5,105.5,59.9,125.4z M129,36.4h-11.8v11.8h-11.8V36.4H93.5V24.6h11.8V12.8h11.8v11.8
		H129L129,36.4L129,36.4z"/>
</g>
</svg>
