<?xml version="1.0" encoding="utf-8"?>
<!-- Generator: Adobe Illustrator 24.0.2, SVG Export Plug-In . SVG Version: 6.00 Build 0)  -->
<svg version="1.1" xmlns="http://www.w3.org/2000/svg" xmlns:xlink="http://www.w3.org/1999/xlink" x="0px" y="0px"
	 viewBox="0 0 141.7 141.7" style="enable-background:new 0 0 141.7 141.7;" xml:space="preserve">
<style type="text/css">
	.st0{fill:#FFFFFF;}
	.st1{fill:#007E48;}
</style>
<g id="Laag_2">
	<rect y="0" class="st0" width="141.7" height="141.7"/>
</g>
<g id="Laag_1">
	<g>
		<path class="st1" d="M52.5,37.5c3.9,0,7.1-3.2,7.1-7.1s-3.2-7.1-7.1-7.1s-7.1,3.2-7.1,7.1C45.4,34.4,48.6,37.5,52.5,37.5z"/>
		<path class="st1" d="M52.6,46.5c6.3-0.1,17.2-2.1,24.4-12.6c-3.4-5-7.5-8.1-11.6-10c1,2,1.6,4.2,1.6,6.6c0,8-6.5,14.4-14.4,14.4
			S38,38.4,38,30.5c0-2.3,0.5-4.5,1.5-6.5c-4,1.9-8,5-11.3,9.9C35.3,44.5,46.3,46.4,52.6,46.5z"/>
		<path class="st1" d="M0,0v141.7h141.7V0H0z M15.1,46.9c-1.3,0-2.3-1-2.3-2.3c0-1.3,1-2.3,2.3-2.3s2.3,1,2.3,2.3
			C17.4,45.8,16.4,46.9,15.1,46.9z M52.6,14.5c12.1,0.2,25,5.6,32.3,19.4C77.6,47.7,64.7,52.8,52.6,53c-12.1-0.2-25-5.3-32.3-19.1
			C27.6,20.2,40.5,14.8,52.6,14.5z M58,87.8c-1.3,0-2.3-1-2.3-2.3c0-1.3,1-2.3,2.3-2.3c1.3,0,2.3,1,2.3,2.3
			C60.3,86.7,59.2,87.8,58,87.8z M60.3,90.8c0,1.3-1,2.3-2.3,2.3c-1.3,0-2.3-1-2.3-2.3s1-2.3,2.3-2.3C59.2,88.5,60.3,89.6,60.3,90.8
			z M58,82.5c-1.3,0-2.3-1-2.3-2.3s1-2.3,2.3-2.3c1.3,0,2.3,1,2.3,2.3C60.3,81.5,59.2,82.5,58,82.5z M58.6,76.9
			c-1.3,0-2.3-1-2.3-2.3s1-2.3,2.3-2.3c1.3,0,2.3,1,2.3,2.3C60.9,75.9,59.9,76.9,58.6,76.9z M59.9,70.7c-1.3,0-2.3-1-2.3-2.3
			s1-2.3,2.3-2.3c1.3,0,2.3,1,2.3,2.3C62.2,69.6,61.2,70.7,59.9,70.7z M68.8,68.4c0,1.3-1,2.3-2.3,2.3s-2.3-1-2.3-2.3s1-2.3,2.3-2.3
			C67.7,66.1,68.8,67.1,68.8,68.4z M66.8,61.5c0-1.3,1-2.3,2.3-2.3s2.3,1,2.3,2.3s-1,2.3-2.3,2.3C67.8,63.8,66.8,62.8,66.8,61.5z
			 M61.8,63.8c-1.3,0-2.3-1-2.3-2.3s1-2.3,2.3-2.3c1.3,0,2.3,1,2.3,2.3S63.1,63.8,61.8,63.8z M63.8,88.5c1.3,0,2.3,1,2.3,2.3
			s-1,2.3-2.3,2.3c-1.3,0-2.3-1-2.3-2.3C61.5,89.5,62.5,88.5,63.8,88.5z M63.8,87.8c-1.3,0-2.3-1-2.3-2.3c0-1.3,1-2.3,2.3-2.3
			c1.3,0,2.3,1,2.3,2.3C66.2,86.7,65.1,87.8,63.8,87.8z M64.5,82.5c-1.3,0-2.3-1-2.3-2.3c0-1.3,1-2.3,2.3-2.3c1.3,0,2.3,1,2.3,2.3
			S65.8,82.5,64.5,82.5z M65.1,76.9c-1.3,0-2.3-1-2.3-2.3s1-2.3,2.3-2.3c1.3,0,2.3,1,2.3,2.3C67.4,75.9,66.4,76.9,65.1,76.9z
			 M69.7,88.5c1.3,0,2.3,1,2.3,2.3s-1,2.3-2.3,2.3s-2.3-1-2.3-2.3S68.4,88.5,69.7,88.5z M70.4,87.8c-1.3,0-2.3-1-2.3-2.3
			s1-2.3,2.3-2.3s2.3,1,2.3,2.3C72.7,86.8,71.6,87.8,70.4,87.8z M71.7,82.5c-1.3,0-2.3-1-2.3-2.3s1-2.3,2.3-2.3s2.3,1,2.3,2.3
			C74,81.5,72.9,82.5,71.7,82.5z M73,76.9c-1.3,0-2.3-1-2.3-2.3s1-2.3,2.3-2.3c1.3,0,2.3,1,2.3,2.3C75.3,75.9,74.3,76.9,73,76.9z
			 M69.5,53.7c0-1.3,1-2.3,2.3-2.3s2.3,1,2.3,2.3s-1,2.3-2.3,2.3C70.5,56,69.5,54.9,69.5,53.7z M52.7,87.8c-1.3,0-2.3-1-2.3-2.3
			s1-2.3,2.3-2.3c1.3,0,2.3,1,2.3,2.3C55,86.8,54,87.8,52.7,87.8z M55,90.8c0,1.3-1,2.3-2.3,2.3c-1.3,0-2.3-1-2.3-2.3s1-2.3,2.3-2.3
			C54,88.5,55,89.5,55,90.8z M52.7,82.5c-1.3,0-2.3-1-2.3-2.3s1-2.3,2.3-2.3c1.3,0,2.3,1,2.3,2.3C55,81.5,54,82.5,52.7,82.5z
			 M52.7,76.9c-1.3,0-2.3-1-2.3-2.3s1-2.3,2.3-2.3c1.3,0,2.3,1,2.3,2.3C55,75.9,54,76.9,52.7,76.9z M52.7,70.7c-1.3,0-2.3-1-2.3-2.3
			s1-2.3,2.3-2.3c1.3,0,2.3,1,2.3,2.3S54,70.7,52.7,70.7z M52.7,63.8c-1.3,0-2.3-1-2.3-2.3c0-1.3,1-2.3,2.3-2.3c1.3,0,2.3,1,2.3,2.3
			C55,62.8,54,63.8,52.7,63.8z M41.3,68.4c0,1.3-1,2.3-2.3,2.3c-1.3,0-2.3-1-2.3-2.3s1-2.3,2.3-2.3C40.3,66.1,41.3,67.1,41.3,68.4z
			 M41.3,61.5c0-1.3,1-2.3,2.3-2.3c1.3,0,2.3,1,2.3,2.3s-1,2.3-2.3,2.3C42.3,63.8,41.3,62.8,41.3,61.5z M36.4,63.8
			c-1.3,0-2.3-1-2.3-2.3s1-2.3,2.3-2.3c1.3,0,2.3,1,2.3,2.3S37.6,63.8,36.4,63.8z M33.6,56c-1.3,0-2.3-1-2.3-2.3s1-2.3,2.3-2.3
			s2.3,1,2.3,2.3S34.9,56,33.6,56z M34.7,74.6c0,1.3-1,2.3-2.3,2.3c-1.3,0-2.3-1-2.3-2.3s1-2.3,2.3-2.3S34.7,73.3,34.7,74.6z
			 M33.8,77.9c1.3,0,2.3,1,2.3,2.3s-1,2.3-2.3,2.3c-1.3,0-2.3-1-2.3-2.3C31.5,78.9,32.5,77.9,33.8,77.9z M35.1,83.2
			c1.3,0,2.3,1,2.3,2.3s-1,2.3-2.3,2.3c-1.3,0-2.3-1-2.3-2.3C32.8,84.2,33.8,83.2,35.1,83.2z M35.7,88.5c1.3,0,2.3,1,2.3,2.3
			s-1,2.3-2.3,2.3c-1.3,0-2.3-1-2.3-2.3C33.4,89.5,34.5,88.5,35.7,88.5z M38,74.6c0-1.3,1-2.3,2.3-2.3c1.3,0,2.3,1,2.3,2.3
			c0,1.3-1,2.3-2.3,2.3C39,76.9,38,75.9,38,74.6z M41,77.8c1.3,0,2.3,1,2.3,2.3s-1,2.3-2.3,2.3c-1.3,0-2.3-1-2.3-2.3
			S39.7,77.8,41,77.8z M41.6,83.2c1.3,0,2.3,1,2.3,2.3s-1,2.3-2.3,2.3c-1.3,0-2.3-1-2.3-2.3C39.3,84.2,40.3,83.2,41.6,83.2z
			 M41.6,88.5c1.3,0,2.3,1,2.3,2.3s-1,2.3-2.3,2.3c-1.3,0-2.3-1-2.3-2.3S40.3,88.5,41.6,88.5z M43.2,68.3c0-1.3,1-2.3,2.3-2.3
			c1.3,0,2.3,1,2.3,2.3s-1,2.3-2.3,2.3C44.3,70.7,43.2,69.6,43.2,68.3z M46.8,72.3c1.3,0,2.3,1,2.3,2.3c0,1.3-1,2.3-2.3,2.3
			c-1.3,0-2.3-1-2.3-2.3S45.6,72.3,46.8,72.3z M49.8,80.2c0,1.3-1,2.3-2.3,2.3c-1.3,0-2.3-1-2.3-2.3s1-2.3,2.3-2.3
			C48.7,77.9,49.8,78.9,49.8,80.2z M47.5,83.2c1.3,0,2.3,1,2.3,2.3s-1,2.3-2.3,2.3c-1.3,0-2.3-1-2.3-2.3
			C45.2,84.2,46.2,83.2,47.5,83.2z M47.5,88.5c1.3,0,2.3,1,2.3,2.3c0,1.3-1,2.3-2.3,2.3c-1.3,0-2.3-1-2.3-2.3S46.2,88.5,47.5,88.5z
			 M22.7,56.1c-1.3,0-2.3-1-2.3-2.3c0-1.3,1-2.3,2.3-2.3c1.3,0,2.3,1,2.3,2.3C25,55.1,24,56.1,22.7,56.1z M24.9,61.5
			c0-1.3,1-2.3,2.3-2.3c1.3,0,2.3,1,2.3,2.3c0,1.3-1,2.3-2.3,2.3S24.9,62.8,24.9,61.5z M28.2,68.3c0-1.3,1-2.3,2.3-2.3
			c1.3,0,2.3,1,2.3,2.3s-1,2.3-2.3,2.3C29.2,70.7,28.2,69.6,28.2,68.3z M69.5,104.9c-1.8,0.3-3.7,0.6-5.5,0.8
			c-3.7,0.4-5.4,2.2-5.6,5.3v17.7H47.1v-17.7c-0.2-3.1-2-4.9-5.6-5.3c-1.9-0.3-3.7-0.6-5.5-0.8c-5-1.1-6-5.1-6-9.5
			c0-0.4,0-1.4,0-1.4h45.4c0,0,0.1,1.1,0.1,1.4C75.6,99.9,74.5,103.9,69.5,104.9z M74.9,70.7c-1.3,0-2.3-1-2.3-2.3s1-2.3,2.3-2.3
			c1.3,0,2.3,1,2.3,2.3C77.3,69.6,76.2,70.7,74.9,70.7z M78.2,63.8c-1.3,0-2.3-1-2.3-2.3c0-1.3,1-2.3,2.3-2.3s2.3,1,2.3,2.3
			C80.5,62.8,79.5,63.8,78.2,63.8z M82.7,56.1c-1.3,0-2.3-1-2.3-2.3c0-1.3,1-2.3,2.3-2.3s2.3,1,2.3,2.3C85,55.1,84,56.1,82.7,56.1z
			 M90.4,46.9c-1.3,0-2.3-1-2.3-2.3c0-1.3,1-2.3,2.3-2.3c1.3,0,2.3,1,2.3,2.3C92.7,45.8,91.6,46.9,90.4,46.9z M129,36.4h-11.8v11.8
			h-11.8V36.4H93.5V24.6h11.8V12.8h11.8v11.8H129L129,36.4L129,36.4z"/>
	</g>
</g>
</svg>
