<?xml version="1.0" encoding="utf-8"?>
<!-- Generator: Adobe Illustrator 24.0.2, SVG Export Plug-In . SVG Version: 6.00 Build 0)  -->
<svg version="1.1" xmlns="http://www.w3.org/2000/svg" xmlns:xlink="http://www.w3.org/1999/xlink" x="0px" y="0px"
	 viewBox="0 0 141.7 141.7" style="enable-background:new 0 0 141.7 141.7;" xml:space="preserve">
<style type="text/css">
	.st0{fill:#FFFFFF;}
	.st1{fill:#007E48;}
</style>
<g id="Laag_2">
	<rect y="0" class="st0" width="141.7" height="141.7"/>
</g>
<g id="Laag_1">
	<path class="st1" d="M0,0v141.7h141.7V0H0z M68.8,41.6c0,1.1-0.9,2-2,2c-1.1,0-2-0.9-2-2s0.9-2,2-2S68.8,40.5,68.8,41.6z
		 M42.7,50.3c-1.1,0-2-0.9-2-2c0-1.1,0.9-2,2-2c1.1,0,2,0.9,2,2C44.7,49.4,43.8,50.3,42.7,50.3z M43.3,54.5c0,1.1-0.9,2-2,2
		c-1.1,0-2-0.9-2-2c0-1.1,0.9-2,2-2S43.3,53.4,43.3,54.5z M45.7,33.9c1.1,0,2,0.9,2,2c0,1.1-0.9,2-2,2c-1.1,0-2-0.9-2-2
		C43.6,34.8,44.5,33.9,45.7,33.9z M45.1,29.8c0-1.1,0.9-2,2-2c1.1,0,2,0.9,2,2c0,1.1-0.9,2-2,2S45.1,30.9,45.1,29.8z M42.1,31.8
		c-1.1,0-2-0.9-2-2c0-1.1,0.9-2,2-2c1.1,0,2,0.9,2,2C44.1,30.9,43.2,31.8,42.1,31.8z M44.2,44.2c-1.1,0-2-0.9-2-2c0-1.1,0.9-2,2-2
		c1.1,0,2,0.9,2,2S45.3,44.2,44.2,44.2z M52.1,45.9c3.3,0,6,2.7,6,6c0,3.3-2.7,6-6,6c-3.3,0-6-2.7-6-6S48.8,45.9,52.1,45.9z
		 M52.1,34.1c1.1,0,2,0.9,2,2c0,1.1-0.9,2-2,2c-1.1,0-2-0.9-2-2C50.1,35,51,34.1,52.1,34.1z M50.1,29.8c0-1.1,0.9-2,2-2
		c1.1,0,2,0.9,2,2c0,1.1-0.9,2-2,2S50.1,30.9,50.1,29.8z M52.1,40.4c1.1,0,2,0.9,2,2c0,1.1-0.9,2-2,2c-1.1,0-2-0.9-2-2
		C50.1,41.3,51,40.4,52.1,40.4z M60.7,36c0,1.1-0.9,2-2,2c-1.1,0-2-0.9-2-2c0-1.1,0.9-2,2-2C59.8,33.9,60.7,34.8,60.7,36z
		 M60.2,29.8c0-1.1,0.9-2,2-2c1.1,0,2,0.9,2,2c0,1.1-0.9,2-2,2C61.1,31.8,60.2,30.9,60.2,29.8z M57.2,31.8c-1.1,0-2-0.9-2-2
		c0-1.1,0.9-2,2-2c1.1,0,2,0.9,2,2C59.2,30.9,58.3,31.8,57.2,31.8z M58.1,42.1c0-1.1,0.9-2,2-2c1.1,0,2,0.9,2,2c0,1.1-0.9,2-2,2
		C59,44.2,58.1,43.2,58.1,42.1z M61.6,46.3c1.1,0,2,0.9,2,2c0,1.1-0.9,2-2,2c-1.1,0-2-0.9-2-2S60.5,46.3,61.6,46.3z M63,52.4
		c1.1,0,2,0.9,2,2c0,1.1-0.9,2-2,2c-1.1,0-2-0.9-2-2C61,53.4,61.9,52.4,63,52.4z M66.5,35.7c0,1.1-0.9,2-2,2c-1.1,0-2-0.9-2-2
		c0-1.1,0.9-2,2-2C65.6,33.7,66.5,34.6,66.5,35.7z M44.2,21.2h4.7v-8.4h6.6v8.4h4.7c3.1,0,5.6,2.5,5.6,5.6h-27
		C38.6,23.7,41.1,21.2,44.2,21.2z M39.8,33.7c1.1,0,2,0.9,2,2c0,1.1-0.9,2-2,2c-1.1,0-2-0.9-2-2S38.7,33.7,39.8,33.7z M37.5,39.6
		c1.1,0,2,0.9,2,2s-0.9,2-2,2c-1.1,0-2-0.9-2-2S36.4,39.6,37.5,39.6z M21.7,85.2c-1.1,0-2-0.9-2-2c0-1.1,0.9-2,2-2s2,0.9,2,2
		C23.7,84.2,22.8,85.2,21.7,85.2z M23.9,79.2c-1.1,0-2-0.9-2-2c0-1.1,0.9-2,2-2s2,0.9,2,2S25,79.2,23.9,79.2z M26.2,73.3
		c-1.1,0-2-0.9-2-2c0-1.1,0.9-2,2-2s2,0.9,2,2C28.2,72.4,27.3,73.3,26.2,73.3z M28.5,67.4c-1.1,0-2-0.9-2-2c0-1.1,0.9-2,2-2
		c1.1,0,2,0.9,2,2S29.6,67.4,28.5,67.4z M30.7,61.4c-1.1,0-2-0.9-2-2c0-1.1,0.9-2,2-2c1.1,0,2,0.9,2,2
		C32.8,60.5,31.9,61.4,30.7,61.4z M33,55.5c-1.1,0-2-0.9-2-2c0-1.1,0.9-2,2-2c1.1,0,2,0.9,2,2S34.1,55.5,33,55.5z M35.3,49.6
		c-1.1,0-2-0.9-2-2c0-1.1,0.9-2,2-2c1.1,0,2,0.9,2,2C37.3,48.7,36.4,49.6,35.3,49.6z M66.8,92.6c0,1.7-1.4,3.1-3.1,3.1
		c-1.7,0-3.1-1.4-3.1-3.1V69.1c0-0.3-0.2-0.5-0.5-0.5c-0.3,0-0.5,0.2-0.5,0.5v56.4c0,1.9-1.6,3.5-3.5,3.5c-2,0-3.5-1.6-3.5-3.5V91.3
		c0-0.3-0.2-0.5-0.5-0.5c-0.3,0-0.5,0.2-0.5,0.5v34.1c0,1.9-1.6,3.5-3.5,3.5s-3.5-1.6-3.5-3.5V69.1c0-0.3-0.2-0.5-0.5-0.5
		c-0.3,0-0.5,0.2-0.5,0.5v23.6c0,1.7-1.4,3.1-3.1,3.1c-1.7,0-3.1-1.4-3.1-3.1V68.6c0-4.9,4-8.9,8.9-8.9h11.4c4.9,0,8.9,4,8.9,8.9
		L66.8,92.6L66.8,92.6z M67,47.6c0-1.1,0.9-2,2-2c1.1,0,2,0.9,2,2c0,1.1-0.9,2-2,2C67.9,49.6,67,48.7,67,47.6z M69.2,53.5
		c0-1.1,0.9-2,2-2c1.1,0,2,0.9,2,2c0,1.1-0.9,2-2,2C70.2,55.5,69.2,54.6,69.2,53.5z M71.5,59.4c0-1.1,0.9-2,2-2c1.1,0,2,0.9,2,2
		c0,1.1-0.9,2-2,2C72.4,61.4,71.5,60.5,71.5,59.4z M73.8,65.3c0-1.1,0.9-2,2-2c1.1,0,2,0.9,2,2c0,1.1-0.9,2-2,2
		C74.7,67.4,73.8,66.5,73.8,65.3z M76.1,71.3c0-1.1,0.9-2,2-2c1.1,0,2,0.9,2,2c0,1.1-0.9,2-2,2C77,73.3,76.1,72.4,76.1,71.3z
		 M78.3,77.2c0-1.1,0.9-2,2-2c1.1,0,2,0.9,2,2c0,1.1-0.9,2-2,2C79.2,79.2,78.3,78.3,78.3,77.2z M82.6,85.2c-1.1,0-2-0.9-2-2
		c0-1.1,0.9-2,2-2c1.1,0,2,0.9,2,2C84.6,84.2,83.7,85.2,82.6,85.2z M129,36.4h-11.8v11.8h-11.8V36.4H93.5V24.6h11.8V12.8h11.8v11.8
		H129L129,36.4L129,36.4z"/>
</g>
</svg>
