<?xml version="1.0" encoding="utf-8"?>
<!-- Generator: Adobe Illustrator 24.0.2, SVG Export Plug-In . SVG Version: 6.00 Build 0)  -->
<svg version="1.1" xmlns="http://www.w3.org/2000/svg" xmlns:xlink="http://www.w3.org/1999/xlink" x="0px" y="0px"
	 viewBox="0 0 141.7 141.7" style="enable-background:new 0 0 141.7 141.7;" xml:space="preserve">
<style type="text/css">
	.st0{fill:#FFFFFF;}
	.st1{fill:#007E48;}
</style>
<g id="Laag_2">
	<rect y="0" class="st0" width="141.7" height="141.7"/>
</g>
<g id="Laag_1">
	<path class="st1" d="M74.6,88.2c0,0.3,0.2,0.5,0.5,0.5h36.6c2.1,0,3.8,1.7,3.8,3.8s-1.7,3.8-3.8,3.8H51.2c-0.3,0-0.5,0.2-0.5,0.5
		s0.2,0.5,0.5,0.5h25.3c1.8,0,3.3,1.5,3.3,3.3c0,1.8-1.5,3.3-3.3,3.3H50.7c-5.3,0-9.6-4.3-9.6-9.6V82.1c0-5.3,4.3-9.6,9.6-9.6h25.8
		c1.8,0,3.3,1.5,3.3,3.3s-1.5,3.3-3.3,3.3H51.2c-0.3,0-0.5,0.2-0.5,0.5s0.2,0.5,0.5,0.5h60.5c2.1,0,3.8,1.7,3.8,3.8
		s-1.7,3.8-3.8,3.8H75.1C74.8,87.6,74.6,87.9,74.6,88.2z M32.8,81.7c-3.6,0-6.5,2.9-6.5,6.5s2.9,6.5,6.5,6.5s6.5-2.9,6.5-6.5
		S36.4,81.7,32.8,81.7z M141.7,0v141.7H0V0H141.7z M120.4,108.4V67.9h6c1.4,0,2.5-1.1,2.5-2.5s-1.1-2.5-2.5-2.5H15.3
		c-1.4,0-2.5,1.1-2.5,2.5c0,1.4,1.1,2.5,2.5,2.5h6v40.5h-6c-1.4,0-2.5,1.1-2.5,2.5s1.1,2.5,2.5,2.5h111.1c1.4,0,2.5-1.1,2.5-2.5
		s-1.1-2.5-2.5-2.5H120.4z M128.9,24.6h-11.8V12.8h-11.8v11.8H93.5v11.8h11.8v11.8h11.8V36.4h11.8V24.6z"/>
</g>
</svg>
