<?xml version="1.0" encoding="utf-8"?>
<!-- Generator: Adobe Illustrator 24.0.2, SVG Export Plug-In . SVG Version: 6.00 Build 0)  -->
<svg version="1.1" xmlns="http://www.w3.org/2000/svg" xmlns:xlink="http://www.w3.org/1999/xlink" x="0px" y="0px"
	 viewBox="0 0 141.7 141.7" style="enable-background:new 0 0 141.7 141.7;" xml:space="preserve">
<style type="text/css">
	.st0{fill:#FFFFFF;}
	.st1{fill:#007E48;}
</style>
<g id="Laag_3">
	<rect y="0" class="st0" width="141.7" height="141.7"/>
</g>
<g id="Laag_2_1_">
	<path class="st1" d="M67.1,38.9l-1.9,6.5l-4.9-6.5C60.3,38.9,67.1,38.9,67.1,38.9z M68.9,50.2l4.9,6.5l1.9-6.5H68.9z M60.3,28.2
		l-2.2,7.7l0.8,1.1h8L60.3,28.2z M51.8,27.5l4.9,6.5l1.8-6.5H51.8z M77.4,50.9l-2.2,7.7l0.8,1.1h8L77.4,50.9z M94.5,84.2l4.9,6.5
		l1.9-6.5H94.5z M86,72.9l4.9,6.5l1.9-6.5H86z M77.4,61.6l4.9,6.5l1.8-6.5H77.4z M141.7,0v141.7H0V0H141.7z M77.9,26.1
		c0,2.3,1.8,4.1,4.1,4.1c2.3,0,4.1-1.8,4.1-4.1c0-2.3-1.8-4.1-4.1-4.1S77.9,23.9,77.9,26.1z M73.6,42.7c-1.1,0-2,0.9-2,2s0.9,2,2,2
		h10.2c1.1,0,2-0.9,2-2v-8.2l8.1,8.1l-7.5,7.5c-0.4,0.4-0.7,1-0.7,1.7v12.8c0,1.3,1.1,2.3,2.3,2.3c1.3,0,2.3-1.1,2.3-2.3V54.8
		l10.1-10.1l2.5,2.5h6.6L92.5,30h6.1v4.4l4.1,4.1V28c0-1.1-0.9-2-2-2H90.4c-0.5,0-1,0.3-1.4,0.6l-6.7,6.7c-0.4,0.4-0.6,0.9-0.6,1.5
		v8.1H73.6z M91.7,45.2v-1.1l-2.6-2.6v6.3L91.7,45.2z M37.7,85.8h5.6V83c0-1.5-1.3-2.8-2.8-2.8c-1.5,0-2.8,1.3-2.8,2.8L37.7,85.8
		L37.7,85.8z M37.8,121.1c0-4.3-3.5-7.8-7.8-7.8s-7.8,3.5-7.8,7.8s3.5,7.8,7.8,7.8S37.8,125.4,37.8,121.1z M97.4,121.1
		c0-4.3-3.5-7.8-7.8-7.8s-7.8,3.5-7.8,7.8s3.5,7.8,7.8,7.8S97.4,125.4,97.4,121.1z M99.6,107.3v-3.8l1.2-0.9l2.2,3h5.6l3.3-11.5
		l-20.4-27c-0.1,0.7-0.3,1.3-0.7,1.7l1.7,2.2h-8l-0.8-1.1l0.9-3.3v-8.8l-7.5-9.9h-2l0.3,0.4h-8l-0.8-1.1l2.2-7.7l2.4,3.2
		c0.3-0.4,0.8-0.7,1.3-0.9L60.4,25.7h-12l34.8,46.2l-1.6,5.3l10.7,14.2l-2.7,2.1H79.5v13.8H45.6V86.7h-9.5l-12.2,0.9
		c-0.9,0.1-1.7,0.7-2,1.5L16.2,104c-0.1,0.3-0.2,0.6-0.2,1v13.8c0,1.3,1,2.3,2.3,2.3H20c0-5.6,4.5-10.1,10.1-10.1
		s10.1,4.5,10.1,10.1h39.4c0-5.6,4.5-10.1,10.1-10.1s10.1,4.5,10.1,10.1h5.6l6.8-2.4v-11.4L99.6,107.3L99.6,107.3z M125.7,12.8H89.1
		v12.3c0.4-0.2,0.9-0.3,1.3-0.3h1.3v-9.4h31.3v33H98.5L95.9,51h29.8L125.7,12.8L125.7,12.8z M94.5,73.6l-2.2,7.7l0.8,1.1h8
		L94.5,73.6z M101.7,93.7h8l-6.6-8.8l-2.2,7.7L101.7,93.7z M22.7,92.4l-3.8,9.9c0,0.1,0,0.3,0,0.4c0,0.8,0.6,1.4,1.4,1.4
		c0,0,0.1,0,0.1,0l15.5-1.7V90.8l-12.3,0.9C23.1,91.7,22.8,92,22.7,92.4z M108,102.1l1.9-6.5h-6.8L108,102.1z"/>
</g>
</svg>
