<?xml version="1.0" encoding="utf-8"?>
<!-- Generator: Adobe Illustrator 24.0.2, SVG Export Plug-In . SVG Version: 6.00 Build 0)  -->
<svg version="1.1" xmlns="http://www.w3.org/2000/svg" xmlns:xlink="http://www.w3.org/1999/xlink" x="0px" y="0px"
	 viewBox="0 0 141.7 141.7" style="enable-background:new 0 0 141.7 141.7;" xml:space="preserve">
<style type="text/css">
	.st0{fill:#FFFFFF;}
	.st1{fill-rule:evenodd;clip-rule:evenodd;fill:#007E48;}
</style>
<g id="Laag_3">
	<rect y="0" class="st0" width="141.7" height="141.7"/>
</g>
<g id="Laag_2_1_">
	<path class="st1" d="M0,0v141.7h141.7V0H0z M12.3,115.9h50v4.7h-3.6v-2.4H12.3V115.9z M57.6,56.1l-3.2,7.8
		c-1.9,1.2-3.3,2.6-4.2,4.3c-0.7,0.4-1.6,0.7-2.6,0.9c-0.9,0.2-1.8,0.2-2.8,0.1c1-0.9,1.8-2.1,2.4-3.3c0,0,3.1-6.6,3.4-7.3
		c0.1-0.1,0.7-0.6,1.5-1.2c0.9-0.8,2.1-1.7,3.4-2.8c2.6-2.1,5.3-4.3,5.6-4.5c0.3-0.1,3.3-1.3,6.3-2.5L57.6,56.1z M69.1,48.8
		c0.2-0.1,1.3-0.6,2.8-1.2c0.2,0.4,0.5,0.9,0.8,1.6L65,55.7l-2.3,5.2c-2.2,0.7-4.9,1.5-5.8,1.8c0.8-2,2.1-4.8,2.3-5.3
		C59.8,56.8,68.7,49.2,69.1,48.8z M60.2,48.3l-2.8,2.3L54,53.4l-4.9,4l-3.6,7.7c-0.7,1.5-1.7,2.7-2.9,3.6c-0.7,0.5-1.4,0.9-2.2,1.2
		c-2.1,0.8-4.4,0.9-6.6,0.1c1.3-1.1,2.5-2.5,3.2-4.2c0,0,3-6.5,3.3-7.4c0.4-0.3,3.5-2.7,6.3-4.7c1.2-0.9,2.4-1.8,3.2-2.5
		c0.7-0.5,1.2-0.9,1.2-0.9c0.3-0.1,3.3-1.2,5.9-2.2c1.9-0.7,3.5-1.3,3.6-1.3c0.2,0,0.5-0.1,1-0.1c0.7,0,1.6,0,2.7,0L60.2,48.3z
		 M86.8,128.7H55v-6.4h11.2V94H54.5c0-8.1,5.6-16.6,16.5-16.6S87.4,85.8,87.4,94H75.6v28.3h11.2V128.7z M128.9,118.3H83.2v2.4h-3.6
		v-4.7h49.2L128.9,118.3L128.9,118.3z M129.4,19.7c-5,11.2-15.5,30.1-18.3,33.3c-1.7,1.9-6.5,6.5-10.2,8.1
		c-6.1,2.6-16.2,6.5-16.2,6.5l-15.3,4.8l-10.1,2.9c0,0-5.6,1.8-7.3,2.3c-0.8,0.2-1.6-0.1-1.8-1.5c-0.3-1.4,0-3.7,0.5-5.2
		c0.8-2.1,4.1-5.4,7.3-6.4l6.2-1.8l2.6-0.8l10.5-4.9c0,0-0.9-3.8-2.2-7.1c-0.3-0.7-0.5-1.3-0.8-1.9c-0.2-0.3-0.3-0.7-0.5-1
		c-0.4-0.7-0.8-1.3-1.2-1.6c-0.2-0.2-0.4-0.3-0.6-0.3c0,0-4.5-0.1-8-0.1c-1.3,0-2.4,0-3.2,0.1c-0.4,0-0.6,0.1-0.8,0.1L54.1,47
		L50,48.5l-1.8,1.4l-9.6,7.3L35,65c-2.2,4.8-7.9,7-12.8,4.8l8-17.7c0.1-0.3,0.3-0.6,0.5-0.9c0-0.1,0.1-0.1,0.1-0.2
		c0-0.1,0.1-0.1,0.2-0.2c0.2-0.3,0.5-0.5,0.7-0.7l12.9-9.8c0.1-0.1,0.3-0.2,0.4-0.3c0.1-0.1,0.2-0.1,0.4-0.2c0,0,0,0,0,0
		c0.2-0.1,0.3-0.2,0.5-0.2c0,0,13.5-5.8,14.6-6.3s2.5-0.9,3.6-0.9c0.5,0,26.6-1.4,27.6-1.5c4.4-0.1,6.2-3.4,7.3-6.8
		c1-3.4,2.3-8.1,3.3-11.7h27L129.4,19.7L129.4,19.7z"/>
</g>
</svg>
