<?xml version="1.0" encoding="utf-8"?>
<!-- Generator: Adobe Illustrator 24.0.2, SVG Export Plug-In . SVG Version: 6.00 Build 0)  -->
<svg version="1.1" xmlns="http://www.w3.org/2000/svg" xmlns:xlink="http://www.w3.org/1999/xlink" x="0px" y="0px"
	 viewBox="0 0 141.7 141.7" style="enable-background:new 0 0 141.7 141.7;" xml:space="preserve">
<style type="text/css">
	.st0{fill:#FFFFFF;}
	.st1{fill:#007E48;}
</style>
<g id="Laag_2">
	<rect y="0" class="st0" width="141.7" height="141.7"/>
</g>
<g id="Layer_1">
	<path class="st1" d="M46.9,97.7c-4.4,0-8,1.1-10.7,3.4c-0.3,0.3-0.4,0.8-0.1,1.2c0.1,0.1,0.2,0.2,0.4,0.2l0.1,2.1l0,0
		c0,0.2,0.1,0.3,0.2,0.5c0.2,0.2,0.4,0.3,0.6,0.3c0.2,0,0.4-0.1,0.5-0.2c2.5-2.1,5.1-2.8,9-2.8c3.9,0,7.6,1.2,10,3.3
		c0.2,0.1,0.3,0.2,0.5,0.2c0.2,0,0.5-0.1,0.6-0.3c0.1-0.1,0.2-0.3,0.2-0.5l0,0l0.1-2.1c0.1,0,0.3-0.1,0.4-0.2
		c0.3-0.3,0.3-0.9-0.1-1.2C55.9,99.2,51.3,97.7,46.9,97.7z M56.7,103.5c-2.7-1.8-6.2-2.7-9.8-2.7s-6.1,0.5-8.8,2.2l-0.1-1.3
		c2.5-1.8,5.2-2.4,8.8-2.4s7.4,1.1,9.9,2.9L56.7,103.5z"/>
	<path class="st1" d="M46.9,113.9c-2.9,0-5.2,1.9-5.2,4.3s2.3,4.3,5.2,4.3c2.9,0,5.2-1.9,5.2-4.3S49.7,113.9,46.9,113.9z"/>
	<path class="st1" d="M66.2,40.2c-5.7-1.6-10.2-1.5-19.3-1.5s-13.7-0.1-19.3,1.5s-11.2,4.3-11.2,17c0,8.8,0,15.8,1.4,20.9
		C19.2,83.2,22.4,91,30.5,91c2.8,0,5.6-0.1,8.1,0.2s2.9,0.7,3,1.4c0.2,0.9-1.1,1.2-2.3,2c-0.6,0.4-2.6,1.6-3.2,1.8
		c-0.4,0.2-0.7,0.6-0.5,1.1c0.1,0.3,0.4,0.5,0.7,0.6c0.1,0,0.3,0,0.4,0c1.2-0.4,3.1-1.8,3.6-2.1c1.6-1,3.5-1.7,6.6-1.7
		c4.2,0,6.3,1.5,8.4,3.1c0.9,0.7,1.9,1.4,3,2c0.1,0.1,0.3,0.1,0.4,0.1c0.3,0,0.6-0.2,0.7-0.4c0.2-0.4,0-0.9-0.4-1.1
		c-1-0.5-1.9-1.2-2.8-1.8c-0.6-0.4-1.2-0.9-1.8-1.3c-1.3-0.8-1.8-1.4-1.6-2.4c0.1-0.7,0.8-1.3,2-1.3c3,0.1,6.1,0.1,8.9,0.1
		c10.6,0,11.5-8,13-13.2c1.4-5,1.7-11.8,1.7-20.7C78.4,44.5,71.8,41.7,66.2,40.2z M25.7,85.8c-2.3-0.8-4.8-5.5-5.9-9
		c-1.4-5-0.9-18.3-0.6-22.7c0.3-4.3,4.7-3.7,5.1-0.3c0.9,8.2,1.9,15.9,4.4,25.2C29.7,83.3,27.9,86.6,25.7,85.8z M56.1,87.2
		c-3.5,1.3-6.3,1.4-9.2,1.4s-4.8-0.2-8.3-1.4c-2.1-0.8-2.1-2.4-1-5.1c1.1-2.7,4.1-8.7,5.8-11.1c1.3-1.8,2-1.7,3.5-1.7
		s3.1-0.1,4.4,1.7c1.7,2.4,4.7,8.4,5.8,11.1C58.1,84.9,58.2,86.5,56.1,87.2z M62.8,47c-3.7-0.5-8.3-0.7-16-0.7
		c-7.6,0-11.2,0.2-14.9,0.7c-1.6,0.2-5.4,0.9-7.7,2c-0.3,0.2-0.6,0.2-1,0.2c-0.8,0-1.6-0.5-2-1.3c-0.5-1.1-0.1-2.4,1-3
		c2.7-1.3,6.8-2.1,9-2.4c3.9-0.5,7.6-0.8,15.5-0.8s12.6,0.2,16.5,0.7c2.3,0.3,5.5,0.9,8.2,2.2c1.1,0.5,1.6,1.9,1,3
		c-0.4,0.8-1.2,1.3-2,1.3c-0.3,0-0.7-0.1-1-0.2C67.4,47.7,64.4,47.2,62.8,47z M75.6,53.5c0.1,1.1,0.2,2.4,0.2,3.7
		c0,8.8-0.7,17.6-2.1,22.7c-1.1,3.5-2.7,6.4-5.7,7.4C66,88,63.6,87.1,64.6,83c2.5-9.8,4.4-21.1,6-30.3
		C71.2,49.8,75.1,48.8,75.6,53.5z"/>
	<path class="st1" d="M0,0v141.7h141.7V0H0z M46.9,129.2c-7.6,0-13.8-5-13.8-11.2s6.2-11.2,13.8-11.2s13.8,5,13.8,11.2
		C60.7,124.2,54.5,129.2,46.9,129.2z M81.3,63.6c-0.5,13.1-1.7,16-5.1,24.2c-2,4.9-4.2,6.1-5.4,9c-3.1,7.7-5.9,11.1-7.3,12.9
		c-1.5,1.8-2.8,2.6-4.5,0.4c-2.8-2.9-7.3-4.8-12.2-4.8s-9.3,1.9-12.2,4.8c-2.3,2.4-2.8,3-3.7,4c-0.9,0.9-2.1,1.5-4,1.7
		c-2.4,0.3-5.7,0.7-10.1,0.7c-3.5,0.1-4.2-1.4-4.4-2.5c-0.2-1.5-0.1-2.9,1.7-3.5c2.4-0.8,10.8-3.5,12.4-4.2s1.7-0.8,1-2.3
		c-0.8-1.9-1.9-4.3-3.5-7.4c-1.4-2.8-3.2-4.7-5.5-8.8c-4.3-7.7-5.2-12.1-5.7-24.3c-0.5-11.9-0.2-18.2,4.1-23.5
		c2.3-2.7,5.7-4.4,7.2-6.3c1.3-1.6,1.1-3.3,4-6.4c2.8-3.1,5.7-5,8.2-6.8c2.5-1.7,5.5-0.2,3.5,2.3c-2.1,2.7-3.8,4.5-5.1,6.3
		c-1.7,2.3,0.6,4,2.2,1.7c1.7-2.4,2.5-3.8,4.6-6.5c1.3-1.7,1.3-1.4,1.2-4c0-0.9,0-0.4,0-3.1c0-2.7,1.3-5.6,4.5-5.6
		c3.1,0,4.4,2.4,4.4,5.1s0,2.7,0,3.6c-0.1,2.6-0.1,2.3,1.2,4c2.1,2.7,2.9,4.1,4.6,6.5c1.6,2.3,3.8,0.6,2.2-1.7
		c-1.3-1.8-3-3.6-5.1-6.3c-2-2.6,1-4,3.5-2.3c2.5,1.7,5.1,3.9,8,7c2.8,3.1,3.1,3.7,3.2,5.6c0.1,1.5,0.9,2.7,2.4,4
		c1.3,1.1,3,2.6,5.3,5.3C81.4,47.8,81.8,51.7,81.3,63.6z M129,36.4h-11.8v11.8h-11.8V36.4H93.5V24.6h11.8V12.8h11.8v11.8H129
		L129,36.4L129,36.4z"/>
</g>
</svg>
