<?xml version="1.0" encoding="utf-8"?>
<!-- Generator: Adobe Illustrator 24.0.2, SVG Export Plug-In . SVG Version: 6.00 Build 0)  -->
<svg version="1.1" xmlns="http://www.w3.org/2000/svg" xmlns:xlink="http://www.w3.org/1999/xlink" x="0px" y="0px"
	 viewBox="0 0 141.7 141.7" style="enable-background:new 0 0 141.7 141.7;" xml:space="preserve">
<style type="text/css">
	.st0{fill:#FFFFFF;}
	.st1{fill:#007E48;}
</style>
<g id="Laag_2">
	<rect y="0" class="st0" width="141.7" height="141.7"/>
</g>
<g id="Layer_1">
	<path class="st1" d="M91.5,12.9v5.3H50.3v-5.3h-5V129h5v-5.3h41.2v5.3h5V12.9H91.5z M91.5,23.2v15.1H50.3V23.2
		C50.3,23.2,91.5,23.2,91.5,23.2z M50.3,78.5V63.4h41.2v15.1H50.3z M91.5,83.5v15.1H50.3V83.5H91.5z M50.3,58.4V43.3h41.2v15.1H50.3
		z M50.3,118.7v-15.1h41.2v15.1H50.3z M0,0h141.7v141.7H0V0z"/>
</g>
</svg>
