<?xml version="1.0" encoding="utf-8"?>
<!-- Generator: Adobe Illustrator 24.0.2, SVG Export Plug-In . SVG Version: 6.00 Build 0)  -->
<svg version="1.1" xmlns="http://www.w3.org/2000/svg" xmlns:xlink="http://www.w3.org/1999/xlink" x="0px" y="0px"
	 viewBox="0 0 141.7 141.7" style="enable-background:new 0 0 141.7 141.7;" xml:space="preserve">
<style type="text/css">
	.st0{fill-rule:evenodd;clip-rule:evenodd;fill:#FFFFFF;}
	.st1{fill-rule:evenodd;clip-rule:evenodd;fill:#007E48;}
</style>
<g id="Laag_2">
	<rect y="0" class="st0" width="141.7" height="141.7"/>
</g>
<g id="Laag_1">
	<path class="st1" d="M94.5,93.1l7.8,14c-3.7-2.9-13.9-11.3-13.9-11.3L94.5,93.1z M141.7,0v141.7H0V0H141.7z M82.5,53.7
		c0.5,2.6,2.7,4.5,5.4,4.5c0.3,0,0.7,0,1-0.1c1.4-0.3,2.7-1.1,3.5-2.3s1.1-2.7,0.9-4.1c-0.5-2.6-2.7-4.5-5.4-4.5c-0.3,0-0.7,0-1,0.1
		c-1.4,0.3-2.7,1.1-3.5,2.3C82.5,50.8,82.2,52.3,82.5,53.7z M82.3,61.6l14.5,25.9l9.7-4.3l7.1,14.1c0.6,1.2,1.8,1.9,3.1,1.9
		c0.5,0,1-0.1,1.5-0.4c0.8-0.4,1.4-1.1,1.7-2c0.3-0.9,0.2-1.8-0.2-2.6l-8.6-17c-0.6-1.2-1.8-2-3.1-2c-0.5,0-1,0.1-1.4,0.3l-11.8,5.3
		l-0.3-1.5l11.9-5.4c0.7-0.3,1.3-0.9,1.6-1.7s0.3-1.6-0.1-2.3c-0.5-1.1-1.6-1.8-2.8-1.8c-0.4,0-0.8,0.1-1.3,0.3l-10.5,4.7l-1.7-9.8
		c-0.5-2.5-2.6-4.3-5.1-4.3c-0.3,0-0.7,0-1,0.1c-1.4,0.3-2.6,1-3.4,2.2C82.4,61.5,82.3,61.6,82.3,61.6z M60.9,21.7
		c2.8,0.9,5.9-0.7,6.7-3.6c0.9-2.8-0.7-5.9-3.6-6.7c-2.8-0.9-5.8,0.7-6.7,3.6S58.1,20.8,60.9,21.7z M36.7,66.1
		c0.5,1.7,2.2,2.6,3.8,2.1l15.9-4.6c1.7-0.5,2.6-2.2,2.1-3.8l-0.1-0.5l0.8,1.9l-0.6,16.1c-0.1,1.7,1.3,3.2,3,3.2
		c1.7,0.1,3.2-1.3,3.2-3l0.6-16.8c0-0.4-0.1-1-0.3-1.4L58.9,45l1.6-5.1c0.3,0.7,1,1.1,1.6,1.3L73,44.1l-1.7,6.6
		c-0.1,0.4,0,0.8,0.2,1.2L93,90.5l-7.2,3.2c-3.4-2.9-7.4-6.3-12.2-10.5c-0.7-0.6-1.7-0.5-2.3,0.2c-0.6,0.7-0.5,1.7,0.2,2.3
		c19.2,16.7,25.7,21.4,32.9,27.1c0.3,0.3,0.7,0.6,1.1,0.9c0.2,0.2,0.4,0.3,0.6,0.3c0.4,0.2,0.9,0.3,1.3,0.3c2.4,0.1,4.5-1.8,4.7-4.2
		c0.1-2.4-1.8-4.5-4.2-4.7c-0.9-0.1-1.7,0.2-2.5,0.6c-1.8-3.2-4.6-8.3-7.9-14.3l6.9-3c0.7-0.3,1.1-1.2,0.7-1.9
		c-0.3-0.7-1.2-1.1-1.9-0.7L96,89.2L74.7,50.9c0.1-0.6,0.9-3.5,1.6-6.3c0.9-0.2,1.7-0.9,2-1.9c0.4-1.4-0.5-2.9-1.9-3.3l-11.3-3
		l-1.6-6.4l0.2-0.7c0.8-2.6-0.7-5.3-3.2-6.1s-5.3,0.6-6.1,3.2l-5.2,16.8c-0.2,0.8-0.3,1.6-0.1,2.3l3,12.8l-13.1,3.8
		C37.2,62.7,36.3,64.4,36.7,66.1z M85,85.8c0.5,2.5,2.6,4.3,5.1,4.3c0.3,0,0.6-0.1,0.9-0.1l-7.7-13.7L85,85.8z M124.7,128H107v-11.6
		H92.8v-11.6H78.5V93.1H64.3V81.5H50V69.8H35.8V58.2H17.1v2.5h16.2v11.6h14.2V84h14.2v11.6H76v11.6h14.2v11.6h14.2v11.6h20.2
		L124.7,128L124.7,128z"/>
</g>
</svg>
