<svg xmlns="http://www.w3.org/2000/svg" viewBox="0 0 141.73 177.11"><defs><style>.cls-1{fill:#fff;}.cls-2{fill:#d0043c;fill-rule:evenodd;}.cls-3{fill:#1e1e1c;}</style></defs><title>F002_brandslanghaspel-HD</title><g id="Laag_2" data-name="Laag 2"><rect class="cls-1" width="141.73" height="177.11"/></g><g id="Laag_1" data-name="Laag 1"><path class="cls-2" d="M77.87,52.32h5.22V46.46A7.47,7.47,0,0,0,77.87,52.32Z" transform="translate(0 0)"/><path class="cls-2" d="M83.09,60.81V55.49H78A7.55,7.55,0,0,0,83.09,60.81Z" transform="translate(0 0)"/><path class="cls-2" d="M0,0V177.11H141.73V0ZM100.4,37.84c2.58,1.36,6.69,5,9.63,11.64s4.29,9.77,7.11,14,4.16,6.31,7.11,8.16,6,3.46,6,3.46a22.18,22.18,0,0,1-7.6,1.12c-3.67-.25-9.92-2-13.6-6.56s-7.11-10.14-8.21-15.95-1.93-8.53-3.11-10.81c-1.54-3-5.22-5.76-5.22-5.76S97.83,36.48,100.4,37.84ZM19.51,95.08H15.19L12.79,92V15.5l2.71-2.66h4Zm8.83,17.41s-.35,1.56-.65,3.26c-.45,2.16-.9,4.67-.9,4.67s-.8,0-1.81,0c-.8,0-1.86,0-1.86,0s-.4-2.31-.7-4.41c-.25-1.71-.5-3.22-.5-3.22a.54.54,0,0,1-.1-.4c.05-.1.35-.15.35-.15h5.72a1.93,1.93,0,0,1,.45,0C28.44,112.34,28.34,112.49,28.34,112.49Zm.11-5.12-6.58-.05-.1-88.56a3.73,3.73,0,0,1,3.51-2.46,3.16,3.16,0,0,1,3.17,2.41Zm9-19a3.28,3.28,0,0,1-3.57,2.91,3.11,3.11,0,0,1-3.06-3l-.05-69.2a3.72,3.72,0,0,1,3.46-2.46A3.17,3.17,0,0,1,37.43,19Zm9.13,0A3.28,3.28,0,0,1,43,91.27a3,3,0,0,1-3.06-3l0-69.2a3.62,3.62,0,0,1,3.46-2.46A3.15,3.15,0,0,1,46.56,19Zm9.08,0A3.34,3.34,0,0,1,52,91.27a3.11,3.11,0,0,1-3.06-3l0-69.2a3.73,3.73,0,0,1,3.51-2.46A3.15,3.15,0,0,1,55.64,19Zm9.09,0a3.29,3.29,0,0,1-3.57,2.91,3.11,3.11,0,0,1-3.06-3l-.05-69.2a3.63,3.63,0,0,1,3.46-2.46A3.15,3.15,0,0,1,64.73,19ZM75.87,55.49H73.51V92L71.15,95H66.83V12.78h4l2.72,2.66V52.32h2.26a9.62,9.62,0,1,1,.1,3.17Zm16,38.36c-4.47-2.62-6.74-2.13-6.74-2.13s4-4.68,10-4.68,8.69,2.71,11.13,5.09,7.63,8.89,13.08,11.47c6.58,3.12,10.72,3.36,10.72,3.36a17,17,0,0,1-11.86,4.92c-7.39,0-11.45-2-16.65-7.95S96.37,96.47,91.9,93.85Zm38.49,36.55s-8.68.83-15.58-1.05-12.35-6.4-14.7-9.76S96.45,108,96.45,108s10.64,8.69,20.39,8.36,13.55-2.18,13.55-2.18Zm0-30.59s-13.74-2.48-22.2-10.51-9.8-12.12-10.9-16.45-1.11-12.24-1.11-12.24,5.9,9.08,12,13.85,10.64,7.37,15.22,8.43a22.47,22.47,0,0,0,7,.74Zm0-31.76a24.13,24.13,0,0,1-9.59-8c-4.19-5.89-7.35-10.36-7.35-18.63s1.82-11.59,1.82-11.59,1.81,8.12,5.53,14.16,5.77,6.44,6.8,6.95a7.24,7.24,0,0,0,2.79,1Z" transform="translate(0 0)"/><path class="cls-2" d="M86.7,46.36v6h5.57A7.26,7.26,0,0,0,86.7,46.36Z" transform="translate(0 0)"/><path class="cls-2" d="M86.7,55.49v5.42a7.47,7.47,0,0,0,5.52-5.42Z" transform="translate(0 0)"/><rect class="cls-1" x="4.01" y="141.73" width="134.64" height="31.89"/><path class="cls-3" d="M51.35,168.41v-21.5h4.33v8.46h8.5v-8.46h4.33v21.5H64.18V159h-8.5v9.39Z" transform="translate(0 0)"/><path class="cls-3" d="M73,146.91h7.93a16,16,0,0,1,4.08.41,7.29,7.29,0,0,1,3.24,2,9.48,9.48,0,0,1,2,3.48,15.82,15.82,0,0,1,.75,5.11,14.44,14.44,0,0,1-.65,4.57,9.54,9.54,0,0,1-2.3,3.79,7.61,7.61,0,0,1-3,1.64,12.75,12.75,0,0,1-3.84.46H73Zm4.34,3.64v14.22h3.23a11.58,11.58,0,0,0,2.63-.21,3.89,3.89,0,0,0,1.75-.89,4.58,4.58,0,0,0,1.13-2.07,13.4,13.4,0,0,0,.44-3.94,12.68,12.68,0,0,0-.44-3.82,4.9,4.9,0,0,0-1.23-2.08,4.17,4.17,0,0,0-2-1,20.2,20.2,0,0,0-3.56-.2Z" transform="translate(0 0)"/></g></svg>