<?xml version="1.0" encoding="utf-8"?>
<!-- Generator: Adobe Illustrator 24.0.2, SVG Export Plug-In . SVG Version: 6.00 Build 0)  -->
<svg version="1.1" xmlns="http://www.w3.org/2000/svg" xmlns:xlink="http://www.w3.org/1999/xlink" x="0px" y="0px"
	 viewBox="0 0 141.7 141.7" style="enable-background:new 0 0 141.7 141.7;" xml:space="preserve">
<style type="text/css">
	.st0{fill:#FFFFFF;}
	.st1{fill-rule:evenodd;clip-rule:evenodd;fill:#D0043C;}
</style>
<g id="Laag_2">
	<rect y="0" class="st0" width="141.7" height="141.7"/>
</g>
<g id="Laag_1">
	<path class="st1" d="M0,0v141.7h141.7V0H0z M100.4,37.8c2.6,1.4,6.7,5,9.6,11.6c2.9,6.7,4.3,9.8,7.1,14c2.8,4.2,4.2,6.3,7.1,8.2
		s6,3.5,6,3.5s-3.9,1.4-7.6,1.1s-9.9-2-13.6-6.6c-3.7-4.6-7.1-10.1-8.2-16s-1.9-8.5-3.1-10.8c-1.5-3-5.2-5.8-5.2-5.8
		S97.8,36.5,100.4,37.8z M87,36.6L82.9,39c-0.1-0.3-0.3-0.6-0.4-0.8l4.1-2.4C86.7,36.1,86.8,36.4,87,36.6z M82,29
		c0.2,0.2,0.4,0.4,0.5,0.6l-3.7,3c-0.2-0.2-0.3-0.4-0.5-0.6L82,29z M80.8,40.2l-4.1,2.4c-0.1-0.3-0.3-0.6-0.4-0.8l4.1-2.4
		C80.5,39.7,80.7,39.9,80.8,40.2z M77.1,34.2l-3.7,3c-0.2-0.2-0.3-0.4-0.5-0.6l3.7-3C76.7,33.8,76.9,34,77.1,34.2z M58.4,55.3
		l3.5-1.2c-0.1,0.4-0.2,0.8-0.4,1.2l-3.2,1.1c0-0.3,0-0.6,0-0.9C58.4,55.4,58.4,55.3,58.4,55.3z M58.1,53.4
		c-0.1-0.3-0.2-0.6-0.3-0.9l4-2.3c0.1,0.3,0.2,0.6,0.2,1L58.1,53.4z M60.1,47.1c0.2,0.2,0.4,0.4,0.5,0.6l-3.8,3.1
		c-0.2-0.2-0.3-0.4-0.5-0.6L60.1,47.1z M54.6,48.9c-0.2-0.1-0.5-0.3-0.8-0.4l3-3.5c0.3,0.1,0.5,0.2,0.8,0.3L54.6,48.9z M58.5,43.1
		l3.2-3.7c0.2,0.1,0.5,0.3,0.7,0.4l-3.1,3.7C59,43.4,58.7,43.3,58.5,43.1z M61.9,45.6l3.7-3c0.2,0.2,0.4,0.4,0.5,0.6l-3.7,3
		C62.3,46,62.1,45.8,61.9,45.6z M63.2,37.6l3.1-3.7c0.2,0.2,0.5,0.3,0.7,0.5L63.9,38C63.7,37.9,63.4,37.7,63.2,37.6z M68.1,46.5
		c0.1,0.3,0.2,0.6,0.3,0.9l-4.2,2.4c-0.1-0.3-0.2-0.6-0.3-0.9L68.1,46.5z M64.4,53.1l4.8-1.7c0,0.3,0,0.6,0,0.8c0,0.1,0,0.2,0,0.2
		l-4.9,1.7C64.4,53.9,64.4,53.5,64.4,53.1z M67.9,41.7c-0.2-0.2-0.3-0.4-0.5-0.6l3.7-3c0.2,0.2,0.4,0.4,0.5,0.6L67.9,41.7z M74.2,43
		c0.1,0.3,0.3,0.6,0.4,0.8l-4.1,2.4c-0.1-0.3-0.2-0.6-0.4-0.9L74.2,43z M76.1,49c0.1,0.3,0.1,0.7,0.1,1l-4.6,1.6c0-0.3,0-0.7-0.1-1
		L76.1,49z M75.6,23.1c0.2,0.2,0.4,0.3,0.7,0.5l-3.1,3.6c-0.2-0.2-0.4-0.3-0.7-0.5L75.6,23.1z M71.6,29l-3.1,3.6
		c-0.2-0.2-0.4-0.3-0.7-0.5l3.1-3.6C71.2,28.6,71.4,28.8,71.6,29z M68.4,19c0.3,0.1,0.6,0.2,0.9,0.4l-2.4,4.1
		c-0.3-0.1-0.6-0.2-0.9-0.4L68.4,19z M64.7,25.2c0.3,0.1,0.6,0.2,0.9,0.4l-2.5,4.1c-0.3-0.1-0.6-0.2-0.9-0.3L64.7,25.2z M61,31.4
		c0.3,0.1,0.6,0.2,0.9,0.3l-2.5,4.2c-0.3-0.1-0.6-0.2-0.9-0.3L61,31.4z M57.2,37.8c0.3,0.1,0.6,0.1,1,0.2l-2.6,4.3c-0.3,0-0.7,0-1,0
		c0,0,0,0,0,0L57.2,37.8z M53,44.8c0.4-0.1,0.8-0.1,1.2-0.2l-2,3.3c-0.3-0.1-0.7-0.1-1-0.1L53,44.8z M51.5,53.2
		c0.5,0.5,0.9,1.1,1.4,1.6c1.6,1.8,0.1,3.1-1.8,3.1c-1-1.1-2-2.2-2.9-3.4C48.5,52.7,50,51.4,51.5,53.2z M22.2,61.4
		c2.6-1,5.3-1.9,7.9-2.9c0.3-0.1,0.4,0,0.6,0.1c0.7,0.8,1.3,1.6,2,2.4c0.3,0.3,0.3,0.3,0.6,0.1c4.1-1.9,8.2-3.8,12.3-5.7
		c0.5-0.2,0.8-0.1,1,0.2c0.9,1,1.8,2,2.7,3c0.4,0.5,0.3,0.7,0,0.9c-5.1,4-10.2,8.1-15.3,12.1c-0.3,0.2-0.6,0.3-1-0.3
		c-1.5-1.8-3.1-3.5-4.6-5.2c-0.2-0.2-0.2-0.4,0.1-0.7c0.6-0.5,1.3-1,1.9-1.5c0.5-0.4,0.5-0.7,0.3-0.9c-0.5-0.5-1-1.1-1.4-1.6
		c-0.2-0.2-0.4-0.4-0.8-0.2c-1.7,0.6-3.3,1.2-5,1.8c-0.3,0.1-0.5,0.1-0.8-0.3c-0.3-0.3-0.5-0.6-0.8-0.9
		C21.9,61.7,21.9,61.5,22.2,61.4z M31.8,73.6c-0.9,0.7-1.8,1.4-2.7,2.1c-0.3,0.3-0.6,0.2-0.9-0.1c-1.6-1.8-3.2-3.6-4.8-5.4
		c-0.1-0.2-0.1-0.5,0.1-0.7c0.9-0.7,1.8-1.4,2.7-2.1c0.3-0.2,0.5-0.1,0.7,0.1c1.5,1.8,3.1,3.5,4.6,5.3C31.9,73.1,32,73.4,31.8,73.6z
		 M77.9,84.1c0,0.3,0,0.6-0.4,0.7c-5.6,0.9-10.8,2.3-12.3,13.6c-1.5,11.5-14,17.6-16.9,18.6c-2.9,0.9-6,1.5-9,1.5
		c-7.7,0-14.6-3-19.7-7.8c-5.1-4.9-8.3-11.6-8.3-19c0-4,1-7.9,2.8-11.5c1.6-3.2,3.6-5.9,6.4-8.2c0.1-0.1,0.8-0.9,1.2-0.3l4.8,5.5
		c0.4,0.3,0.4,0.6,0.1,0.8c-2.1,1.7-3.7,3.8-4.9,6.1c-1.2,2.4-1.9,5-1.9,7.7c0,5,2.1,9.5,5.6,12.8c3.5,3.3,8.4,5.4,13.8,5.4
		c2.1,0,4.3-0.4,6.3-1c1.4-0.4,9.7-4.4,11.3-13.8c2.1-11.4,8.4-15,20.3-15.5c0.4,0,0.6,0,0.6,0.5C77.9,81.3,77.9,82.7,77.9,84.1z
		 M78.5,49.2c0-0.3-0.1-0.7-0.2-1l4.5-1.6c0.1,0.3,0.1,0.7,0.2,1L78.5,49.2z M89.7,44.2c0.1,0.3,0.2,0.7,0.2,1l-4.5,1.6
		c-0.1-0.3-0.1-0.7-0.2-1L89.7,44.2z M91.9,93.8c-4.5-2.6-6.7-2.1-6.7-2.1s4-4.7,10-4.7c6,0,8.7,2.7,11.1,5.1
		c2.4,2.4,7.6,8.9,13.1,11.5c6.6,3.1,10.7,3.4,10.7,3.4s-4.5,4.9-11.9,4.9s-11.4-2-16.7-7.9C96.4,97.9,96.4,96.5,91.9,93.8z
		 M130.4,130.4c0,0-8.7,0.8-15.6-1.1c-6.9-1.9-12.3-6.4-14.7-9.8c-2.4-3.4-3.7-11.6-3.7-11.6s10.6,8.7,20.4,8.4s13.6-2.2,13.6-2.2
		L130.4,130.4L130.4,130.4z M130.4,99.8c0,0-13.8-2.5-22.2-10.5c-8.4-8-9.8-12.1-10.9-16.5c-1.1-4.3-1.1-12.2-1.1-12.2
		s5.9,9.1,12,13.8c6.1,4.8,10.6,7.4,15.2,8.4c4.5,1,7,0.7,7,0.7V99.8z M130.4,68c0,0-5.4-2.1-9.6-8c-4.2-5.9-7.3-10.4-7.3-18.6
		s1.8-11.6,1.8-11.6s1.8,8.1,5.5,14.2c3.7,6,5.8,6.4,6.8,7c1.9,1,2.8,1,2.8,1L130.4,68L130.4,68z"/>
</g>
</svg>
