<?xml version="1.0" encoding="utf-8"?>
<!-- Generator: Adobe Illustrator 24.0.2, SVG Export Plug-In . SVG Version: 6.00 Build 0)  -->
<svg version="1.1" xmlns="http://www.w3.org/2000/svg" xmlns:xlink="http://www.w3.org/1999/xlink" x="0px" y="0px"
	 viewBox="0 0 141.7 141.7" style="enable-background:new 0 0 141.7 141.7;" xml:space="preserve">
<style type="text/css">
	.st0{fill:#FFFFFF;}
	.st1{fill-rule:evenodd;clip-rule:evenodd;fill:#D0043C;}
</style>
<g id="Laag_2">
	<rect y="0" class="st0" width="141.7" height="141.7"/>
</g>
<g id="Laag_1">
	<path class="st1" d="M0,0v141.7h141.7V0H0z M100.4,37.8c2.6,1.4,6.7,5,9.6,11.6c2.9,6.7,4.3,9.8,7.1,14s4.2,6.3,7.1,8.2
		c2.9,1.9,6,3.5,6,3.5s-3.9,1.4-7.6,1.1s-9.9-2-13.6-6.6c-3.7-4.6-7.1-10.1-8.2-16s-1.9-8.5-3.1-10.8c-1.5-3-5.2-5.8-5.2-5.8
		S97.8,36.5,100.4,37.8z M41.5,33.5c3.8,0,6.9,3.1,6.9,6.9s-3.1,6.9-6.9,6.9s-6.9-3.1-6.9-6.9C34.6,36.6,37.7,33.5,41.5,33.5z
		 M53.5,45.3C53.5,45.3,53.5,45.3,53.5,45.3c1.3-1.6,3.6-1.9,5.1-0.6c1.6,1.3,1.8,3.5,0.6,5.1l-5.1,6.4l-6.7-3.5L53.5,45.3z
		 M50.7,93.1l-2.5,24.4l0,0c-0.3,2.5-2.5,4.3-5,4c-2.5-0.3-4.3-2.5-4-5l0,0l2.3-22.4L29.4,81.1l3,16.1c0.3,1.7-0.4,3.4-1.6,4.4
		l-16.3,13.6v-12l8.4-7.1l-3.9-20.5c-0.3-1.5-0.2-2.5,0.3-3.6c0,0,9.1-20.2,10-22.4c1-2.3,3.7-3,6.2-1.7c2.5,1.3,9.9,4.9,9.9,4.9
		l15.2,7.9l8.8-7.7c0,0,0,0,0,0c1.7-1.5,4.3-1.3,5.8,0.4c1.5,1.7,1.3,4.3-0.4,5.8L63.6,69l0,0c-1.4,1.3-3.5,1.6-5.2,0.7l0,0l0,0l0,0
		l-16.6-8.8l-6.2,13.5l14,15.2C50.5,90.5,50.9,91.9,50.7,93.1L50.7,93.1z M81.1,112.9c-1.1-0.5-23.5-10.7-24.9-11.3
		c-0.4-0.2-0.7-0.5-0.9-1.4c-1.3-7.5-1.9-12.5-2.1-20.9c-0.1-3.9,0-7.7,0.2-11.4l4.7,2.5c0.8,0.4,1.6,0.6,2.5,0.6
		c1.4,0,2.7-0.5,3.7-1.4l11.3-9.8c1-0.9,1.6-2.1,1.7-3.4c0.1-1.3-0.3-2.6-1.2-3.6c-0.9-1.1-2.3-1.7-3.7-1.7c-1.2,0-2.3,0.4-3.3,1.2
		l-8.3,7.3l-5.7-3l5-6.3c0.7-0.9,1.1-2.1,0.9-3.3c-0.1-1.2-0.7-2.3-1.7-3c-0.8-0.6-1.8-1-2.8-1c-1.4,0-2.6,0.6-3.5,1.7l-0.6,0.8
		c-0.3-1.4-0.6-2.9-1-4.6c-0.4-1.8,1.3-1.1,1.3-1.1s23.8,10,24.3,10.4s1,0.6,1.5,1.7c2.5,5.4,1.5,15.8,0.6,23
		c-1.1,7.8-1.3,14.9,0.2,22.5s2.3,11,3.5,14.7C83.1,113.4,81.9,113.3,81.1,112.9z M91.9,93.8c-4.5-2.6-6.7-2.1-6.7-2.1s4-4.7,10-4.7
		c6,0,8.7,2.7,11.1,5.1c2.4,2.4,7.6,8.9,13.1,11.5c6.6,3.1,10.7,3.4,10.7,3.4s-4.5,4.9-11.9,4.9s-11.4-2-16.7-7.9
		C96.4,97.9,96.4,96.5,91.9,93.8z M130.4,130.4c0,0-8.7,0.8-15.6-1.1c-6.9-1.9-12.3-6.4-14.7-9.8c-2.4-3.4-3.7-11.6-3.7-11.6
		s10.6,8.7,20.4,8.4s13.6-2.2,13.6-2.2L130.4,130.4L130.4,130.4z M130.4,99.8c0,0-13.8-2.5-22.2-10.5s-9.8-12.1-10.9-16.5
		c-1.1-4.3-1.1-12.2-1.1-12.2s5.9,9.1,12,13.8c6.1,4.8,10.6,7.4,15.2,8.4c4.5,1,7,0.7,7,0.7V99.8z M130.4,68c0,0-5.4-2.1-9.6-8
		c-4.2-5.9-7.3-10.4-7.3-18.6s1.8-11.6,1.8-11.6s1.8,8.1,5.5,14.2c3.7,6,5.8,6.4,6.8,7c1.9,1,2.8,1,2.8,1L130.4,68L130.4,68z"/>
</g>
</svg>
