<?xml version="1.0" encoding="utf-8"?>
<!-- Generator: Adobe Illustrator 24.0.2, SVG Export Plug-In . SVG Version: 6.00 Build 0)  -->
<svg version="1.1" xmlns="http://www.w3.org/2000/svg" xmlns:xlink="http://www.w3.org/1999/xlink" x="0px" y="0px"
	 viewBox="0 0 141.7 141.7" style="enable-background:new 0 0 141.7 141.7;" xml:space="preserve">
<style type="text/css">
	.st0{fill:#FFFFFF;}
	.st1{fill:#1D1D1B;}
	.st2{fill:#D0043C;}
</style>
<g id="Laag_2">
	<rect y="0" class="st0" width="141.7" height="141.7"/>
</g>
<g id="Laag_1">
	<title>F-NL-026 Generator</title>
	<path class="st1" d="M73.8,68.5h25.1v32.4h-8.4l-1.3-7.5c-3.2,3.7-7.8,9.1-18.7,9.1C56,102.5,42.9,92.1,42.9,71
		c0-16.4,9.1-31.9,29.4-31.8c18.4,0,25.7,12,26.4,20.3H86.1c0-2.3-4.3-9.9-13.1-9.9s-17.2,6.2-17.2,21.6c0,16.4,8.9,20.7,17.5,20.7
		c2.8,0,12-1.1,14.6-13.2h-14L73.8,68.5z"/>
	<path class="st1" d="M22.3,70.9c0,26.8,21.7,48.6,48.6,48.6c26.8,0,48.6-21.7,48.6-48.6c0-26.8-21.7-48.6-48.6-48.6c0,0,0,0,0,0
		C44,22.3,22.3,44,22.3,70.9z M24,70.9C24,45,45,24,70.9,24s46.9,21,46.9,46.9s-21,46.9-46.9,46.9c0,0,0,0,0,0
		C45,117.7,24,96.7,24,70.9L24,70.9z"/>
	<path class="st2" d="M70.9,13.2C39,13.2,13.2,39,13.2,70.9s25.8,57.6,57.6,57.6s57.6-25.8,57.6-57.6c0,0,0,0,0,0
		C128.5,39,102.7,13.3,70.9,13.2z M70.9,119.5c-26.8,0-48.6-21.8-48.6-48.6S44,22.3,70.9,22.3s48.6,21.8,48.6,48.6l0,0
		C119.4,97.7,97.7,119.4,70.9,119.5z"/>
	<path class="st1" d="M130.2,69.1c-1-32.8-28.3-58.5-61-57.6c-31.4,0.9-56.7,26.2-57.6,57.6v3.4c1,32.8,28.3,58.5,61,57.6
		c31.4-0.9,56.7-26.2,57.6-57.6V69.1z M70.9,128.5c-31.8,0-57.6-25.8-57.6-57.6S39,13.2,70.9,13.2s57.6,25.8,57.6,57.6
		C128.5,102.7,102.7,128.5,70.9,128.5z"/>
	<path class="st1" d="M0,0v141.7h141.7V0H0z M4.8,4.8h132.1v132.1H4.8V4.8z"/>
</g>
</svg>
