<?xml version="1.0" encoding="utf-8"?>
<!-- Generator: Adobe Illustrator 24.0.2, SVG Export Plug-In . SVG Version: 6.00 Build 0)  -->
<svg version="1.1" xmlns="http://www.w3.org/2000/svg" xmlns:xlink="http://www.w3.org/1999/xlink" x="0px" y="0px"
	 viewBox="0 0 141.7 141.7" style="enable-background:new 0 0 141.7 141.7;" xml:space="preserve">
<style type="text/css">
	.st0{fill:#FFFFFF;}
	.st1{fill:#1D1D1B;}
	.st2{fill:#D0043C;}
</style>
<g id="Laag_2">
	<rect y="0" class="st0" width="141.7" height="141.7"/>
</g>
<g id="Laag_1">
	<title>F-NL-027_brandbluspomp</title>
	<path class="st1" d="M96.3,27.1v87.4L20.5,70.8L96.3,27.1 M98.3,23.7L16.5,70.8L98.3,118C98.3,118,98.3,23.7,98.3,23.7z"/>
	<path class="st1" d="M0,0v141.7h141.7V0H0z M4.8,4.8h132.1v132.1H4.8V4.8z"/>
	<path class="st1" d="M136.9,67.9h-9.9C125.5,36.9,99,13,68,14.6c-28.8,1.5-51.8,24.5-53.3,53.3H4.7v5.9h10
		c1.6,31,28.1,54.9,59.1,53.3c28.8-1.5,51.8-24.5,53.3-53.3h9.9L136.9,67.9z M70.9,125.1c-30,0-54.3-24.3-54.3-54.3
		c0-30,24.3-54.3,54.3-54.3c30,0,54.3,24.3,54.3,54.3c0,0,0,0,0,0C125.2,100.8,100.8,125.1,70.9,125.1L70.9,125.1z"/>
	<polyline class="st2" points="96.3,27.1 96.3,114.6 20.5,70.8 96.3,27.1 	"/>
</g>
</svg>
