<?xml version="1.0" encoding="utf-8"?>
<!-- Generator: Adobe Illustrator 24.0.2, SVG Export Plug-In . SVG Version: 6.00 Build 0)  -->
<svg version="1.1" id="Laag_1" xmlns="http://www.w3.org/2000/svg" xmlns:xlink="http://www.w3.org/1999/xlink" x="0px" y="0px"
	 viewBox="0 0 141.73 141.73" style="enable-background:new 0 0 141.73 141.73;" xml:space="preserve">
<style type="text/css">
	.st0{fill:#007E48;}
	.st1{fill:#FFFFFF;}
</style>
<rect class="st0" width="141.73" height="141.73"/>
<polygon class="st1" points="128.95,36.39 117.14,36.39 117.14,48.2 105.35,48.2 105.35,36.39 93.53,36.39 93.53,24.58 
	105.35,24.58 105.35,12.77 117.14,12.77 117.14,24.58 128.95,24.58 "/>
<path class="st0" d="M41.31,25.74c2.36-0.15,9.54-0.32,12.4,2.81c-0.54-0.09-1.07-0.12-1.57-0.07c-9.83,0.9-14.53,0.54-16.27,0.3
	C36.45,27.76,37.93,25.96,41.31,25.74z M55.09,69.45C40.26,68.42,32.48,58.71,32.4,58.61c-0.23-0.3-0.66-0.35-0.96-0.12
	c-0.3,0.23-0.35,0.66-0.12,0.96c0.33,0.42,8.14,10.16,23.41,11.34c0.39,1.14,1.39,4.72-0.69,7.04c-1.93,2.16-5.03,2.59-9.47,1.32
	l-1.85-0.53l0.08,0.11c-13.18-3.19-17.04-7.04-17.1-7.1c-0.26-0.27-0.69-0.29-0.97-0.03c-0.28,0.26-0.29,0.69-0.03,0.97
	c0.17,0.18,4.35,4.46,19.23,7.83c0.15,0.32,0.36,0.97,0.11,1.75c-0.45,1.36-2.14,2.58-4.91,3.53c-4.82,1.64-12.09-0.76-15.71-2.46
	c-0.12-0.04-11.91-4.07-9.08-12.86c0.41-1.26,1.08-2.12,1.99-2.56c1.56-0.75,3.39-0.07,3.4-0.06l2.57,1l-1.81-2.09
	c-0.17-0.2-4.13-4.86-1.24-9.68c2.63-4.38,7.06-2.63,7.24-2.55l2.12,0.87l-1.3-1.89c-0.02-0.03-2.15-3.19-1.38-6.62
	c0.44-1.99,1.79-3.7,3.99-5.08c1.27,1.01,5.38,4.05,9.51,4.85c1.14,1.69,7.6,10.59,18.44,13.65l0.63,0.6
	c1.14,1.08,0.23,4.51-0.17,5.63l0,0C57.86,67.38,56.91,68.57,55.09,69.45z M42.94,46.58c5.1-1.12,10.22,1.54,10.26,1.56
	c0.05,0.03,5.34,2.94,8.22,6.01c0.52,0.55,0.72,1.12,0.63,1.73c-0.19,1.29-1.64,2.59-2.67,3.34c-0.07-0.05-0.14-0.08-0.22-0.1
	c-9.41-2.3-15.69-9.52-17.87-12.39C41.84,46.73,42.4,46.7,42.94,46.58z"/>
<path class="st1" d="M55.09,69.45C40.26,68.42,32.48,58.71,32.4,58.61c-0.23-0.3-0.66-0.35-0.96-0.12c-0.3,0.23-0.35,0.66-0.12,0.96
	c0.33,0.42,8.14,10.16,23.41,11.34c0.39,1.14,1.39,4.72-0.69,7.04c-1.93,2.16-5.03,2.59-9.47,1.32l-1.85-0.53l0.08,0.11
	c-13.18-3.19-17.04-7.04-17.1-7.1c-0.26-0.27-0.69-0.29-0.97-0.03c-0.28,0.26-0.29,0.69-0.03,0.97c0.17,0.18,4.35,4.46,19.23,7.83
	c0.15,0.32,0.36,0.97,0.11,1.75c-0.45,1.36-2.14,2.58-4.91,3.53c-4.82,1.64-12.09-0.76-15.71-2.46c-0.12-0.04-11.91-4.07-9.08-12.86
	c0.41-1.26,1.08-2.12,1.99-2.56c1.56-0.75,3.39-0.07,3.4-0.06l2.57,1l-1.81-2.09c-0.17-0.2-4.13-4.86-1.24-9.68
	c2.63-4.38,7.06-2.63,7.24-2.55l2.12,0.87l-1.3-1.89c-0.02-0.03-2.15-3.19-1.38-6.62c0.44-1.99,1.79-3.7,3.99-5.08
	c1.27,1.01,5.38,4.05,9.51,4.85c1.14,1.69,7.6,10.59,18.44,13.65l0.63,0.6c1.14,1.08,0.23,4.51-0.17,5.63l0,0
	C57.86,67.38,56.91,68.57,55.09,69.45z"/>
<path class="st1" d="M42.94,46.58c5.1-1.12,10.22,1.54,10.26,1.56c0.05,0.03,5.34,2.94,8.22,6.01c0.52,0.55,0.72,1.12,0.63,1.73
	c-0.19,1.29-1.64,2.59-2.67,3.34c-0.07-0.05-0.14-0.08-0.22-0.1c-9.41-2.3-15.69-9.52-17.87-12.39
	C41.84,46.73,42.4,46.7,42.94,46.58z"/>
<path class="st1" d="M82.68,55.92c-2.21-10.35-7.31-13.38-9.13-14.15l0.01-0.01c-4.47-1.26-7.93-3.99-10.45-6.24
	c-3.29-2.94-8.09-5.97-10.82-5.67c-10.6,0.97-15.32,0.51-16.91,0.25l0,0.01l-0.12-0.02c-0.29-0.05-0.45-0.09-0.51-0.1
	c-0.24-0.05-4.28-0.82-6.32,1.96c-0.19,0.26-0.38,0.55-0.53,0.88c-1.79,3.88,2.49,7.46,2.53,7.5l0.1,0.08
	c0.71,0.58,5.22,4.12,9.42,4.84c0.03,0,0.06,0.01,0.1,0.01c0.9,0.15,1.79,0.17,2.63-0.01c5.61-1.23,10.98,1.57,11.2,1.69
	c0.23,0.13,5.55,3.05,8.57,6.28c0.81,0.87,1.14,1.83,0.99,2.87c-0.29,1.98-2.36,3.65-3.43,4.39c0.48,0.9,0.53,2.08,0.41,3.19
	l0.08,0.01L60.23,65c0,0.08-0.3,3.19-3.74,5.25l-0.31,0.54c0.51,1.68,1.22,5.33-1.12,7.95c-1.21,1.35-2.81,2.13-4.77,2.38
	l-11.83,20.72c24.06,11.69,40.16,27.11,40.16,27.11l33.38-32.71C93.01,84.38,85.39,68.62,82.68,55.92z M52.9,82.62
	c-0.15-0.35,0.01-0.75,0.36-0.9c0.35-0.15,0.75,0.01,0.9,0.36c4.96,11.52,15.56,9.52,16.01,9.43c0.37-0.08,0.73,0.16,0.81,0.53
	c0.08,0.37-0.16,0.73-0.53,0.81c-0.03,0.01-0.95,0.18-2.37,0.18C64.28,93.03,56.84,91.77,52.9,82.62z M85.83,87.67
	c-0.17,0.32-4.16,7.88-10.57,8.24c-5.32,0.3-8.02,3.42-8.15,4.56c-0.76,6.62-5.68,10.24-5.89,10.39c-0.12,0.09-0.26,0.13-0.4,0.13
	c-0.21,0-0.42-0.1-0.56-0.28c-0.22-0.31-0.15-0.74,0.15-0.96c0.05-0.03,4.64-3.44,5.33-9.44c0.25-2.16,3.75-5.46,9.44-5.78
	c5.63-0.31,9.39-7.43,9.43-7.5c0.18-0.33,0.59-0.47,0.93-0.29C85.87,86.92,86,87.34,85.83,87.67z"/>
<path class="st1" d="M41.31,25.74c2.36-0.15,9.54-0.32,12.4,2.81c-0.54-0.09-1.07-0.12-1.57-0.07c-9.83,0.9-14.53,0.54-16.27,0.3
	C36.45,27.76,37.93,25.96,41.31,25.74z"/>
<g>
	<path class="st1" d="M64.02,34.49c2.04,1.82,4.72,3.96,8.04,5.29L80,26.03c0,0-0.08-3.22-6.83-7.11c-6.74-3.89-9.94-2.56-9.94-2.56
		l-7.37,12.8C59.63,30.65,63.46,34,64.02,34.49z"/>
	<path class="st1" d="M45.47,80.8c0.09,0.5,0.09,1.12-0.13,1.79c-0.59,1.82-2.53,3.29-5.77,4.4c-1.27,0.43-2.68,0.61-4.15,0.61
		c-4.14,0-8.7-1.44-11.62-2.71l-9.09,15.79l0.59,5.43l-2.52,4.36l11.06,6.38l2.52-4.36l4.99-2.21l16.81-29.1
		C47.31,81.13,46.42,81.01,45.47,80.8z"/>
</g>
</svg>
