<?xml version="1.0" encoding="utf-8"?>
<!-- Generator: Adobe Illustrator 24.0.2, SVG Export Plug-In . SVG Version: 6.00 Build 0)  -->
<svg version="1.1" id="Laag_1" xmlns="http://www.w3.org/2000/svg" xmlns:xlink="http://www.w3.org/1999/xlink" x="0px" y="0px"
	 viewBox="0 0 141.73 141.59" style="enable-background:new 0 0 141.73 141.59;" xml:space="preserve">
<style type="text/css">
	.st0{fill:#007E48;}
</style>
<path class="st0" d="M0,0v141.73h141.73V0H0z M43.3,10.5h38.54v38.54H69.33v-3.06c0-1.03-0.25-2.04-0.76-2.81c2.81,0,4.59,0,7.4,0
	v-26.8H48.92v26.8c3.57,0,5.87,0,9.18,0c-0.51,0.76-0.76,1.78-0.76,2.81v3.06H43.3V10.5z M62.44,39.09c-5.1,0-9.44-4.08-9.44-9.45
	c0-5.1,4.34-9.19,9.44-9.19s9.44,4.09,9.44,9.19C71.89,35.01,67.55,39.09,62.44,39.09z M98.44,118.47c0,2.04-1.28,7.15-4.08,7.15
	c-1.03,0,0.25,1.53,2.04,1.78c0.77,0,1.79,1.02,1.79,2.04c-0.25,0.76-1.02,1.78-1.79,1.78H55.81c-0.51-0.25-0.51-3.57-0.51-7.4
	c0.26-1.53,0.26-3.06,0.51-4.08c-5.61-5.87-10.21-12.5-10.97-17.61c0-0.5,0-1.02,0-1.27V77.63c0-2.81,1.53-5.1,4.85-4.85
	c2.29,0,4.08,1.53,4.08,4.85v17.36c0,0.51,0,1.79,1.79,2.29c0,0,0.25,0,0.51,0c0.51,0,1.28-0.25,1.53-0.76
	c0.51-0.26,0.76-0.77,0.76-1.28V45.98c0-2.81,2.3-5.1,5.11-5.1c2.81,0,4.85,2.3,4.85,5.1v27.05c0-2.8,2.3-5.11,5.1-5.11
	c2.81,0,5.11,2.3,5.11,5.11v0.26c0.76-1.53,2.55-2.81,4.59-2.81c2.81,0,5.11,2.3,5.11,5.1v2.55c0.51-2.55,2.3-4.34,5.36-4.34
	c3.31,0,4.85,2.3,4.85,5.11V118.47z"/>
</svg>
