<?xml version="1.0" encoding="utf-8"?>
<!-- Generator: Adobe Illustrator 24.0.2, SVG Export Plug-In . SVG Version: 6.00 Build 0)  -->
<svg version="1.1" id="Laag_1" xmlns="http://www.w3.org/2000/svg" xmlns:xlink="http://www.w3.org/1999/xlink" x="0px" y="0px"
	 viewBox="0 0 141.73 141.73" style="enable-background:new 0 0 141.73 141.73;" xml:space="preserve">
<style type="text/css">
	.st0{fill-rule:evenodd;clip-rule:evenodd;fill:#007E48;}
</style>
<path class="st0" d="M63.41,97.33c-0.55-0.19-1.75-0.28-3.58-0.28h-3.26v5.21h3.74c1.46,0,2.38-0.04,2.77-0.12
	c0.6-0.11,1.09-0.36,1.47-0.78c0.38-0.41,0.57-0.96,0.57-1.66c0-0.59-0.15-1.08-0.44-1.49C64.38,97.81,63.96,97.52,63.41,97.33z"/>
<path class="st0" d="M62.15,93.6c0.69-0.08,1.24-0.32,1.63-0.71c0.4-0.39,0.6-0.91,0.6-1.55c0-0.61-0.17-1.11-0.51-1.5
	c-0.34-0.38-0.85-0.62-1.53-0.7c-0.4-0.04-1.55-0.07-3.46-0.07h-2.33v4.59h2.65C60.79,93.67,61.77,93.65,62.15,93.6z"/>
<path class="st0" d="M122.51,111.38l-37.41,2.36c-0.39,0-0.39,0.39-0.39,0.79c0,0.4,0.39,0.79,0.79,0.79l37.41,1.97
	c0.78,0,1.17-0.79,1.17-1.58c0-0.79,0-1.58,0-2.36C124.08,112.17,123.3,111.38,122.51,111.38z"/>
<path class="st0" d="M129.99,110.6h-1.58c-1.18,0-1.97,1.18-1.97,1.97v5.51c0,0.79-0.39,1.58-1.18,1.58
	c-0.79,0.39-1.18,1.18-1.18,1.97c0,0.32,0,0.65-0.02,0.98l-77.95-5.7c-0.39,0-1.18,0-1.58,0l-31.5,1.97c-0.79,0-1.57-0.4-1.57-1.57
	c0-0.4,0.4-1.19,1.18-1.19c9.45-0.79,16.93-8.27,17.72-17.72c5.12-64.18,100.41-59.85,100.41,4.33
	C130.78,105.48,130.38,107.84,129.99,110.6z M0,0v141.73h141.73V0H0z M33.13,98.78c-0.39,6.7-3.94,12.6-9.45,16.54l103.56-7.09
	c0.39-1.57,0.39-3.54,0.39-5.51C127.63,42.08,38.24,38.54,33.13,98.78z M68.63,102.53c-0.42,0.85-1,1.53-1.73,2.04
	c-0.73,0.51-1.63,0.82-2.7,0.94c-0.67,0.07-2.29,0.12-4.86,0.14h-6.79V85.7h7.98c1.58,0,2.76,0.07,3.54,0.2
	c0.78,0.13,1.47,0.41,2.08,0.83c0.61,0.42,1.12,0.98,1.53,1.68c0.41,0.7,0.61,1.48,0.61,2.35c0,0.94-0.25,1.8-0.76,2.59
	c-0.5,0.79-1.19,1.37-2.05,1.77c1.21,0.35,2.15,0.95,2.8,1.8c0.65,0.85,0.98,1.84,0.98,2.99C69.26,100.8,69.05,101.68,68.63,102.53z
	 M88.58,105.65h-4.01v-8.7h-7.92v8.7h-4.01V85.7h4.01v7.88h7.92V85.7h4.01V105.65z M102.1,105.65h-4.35L90.71,85.7h4.36l4.99,14.78
	l4.86-14.78h4.25L102.1,105.65z M128.96,36.36h-11.82v11.8h-11.79v-11.8H93.53v-11.8h11.82v-11.8h11.79v11.8h11.82V36.36z"/>
</svg>
