<?xml version="1.0" encoding="utf-8"?>
<!-- Generator: Adobe Illustrator 24.0.2, SVG Export Plug-In . SVG Version: 6.00 Build 0)  -->
<svg version="1.1" xmlns="http://www.w3.org/2000/svg" xmlns:xlink="http://www.w3.org/1999/xlink" x="0px" y="0px"
	 viewBox="0 0 141.73 141.73" style="enable-background:new 0 0 141.73 141.73;" xml:space="preserve">
<style type="text/css">
	.st0{fill:#007E48;}
</style>
<g id="Layer_1">
</g>
<g id="Laag_1">
	<path class="st0" d="M0,0v141.73h141.73V0H0z M40.68,12.84c1.26,0.1,2.26,1.25,2.26,1.25s1.66,6.72,3.21,13.54
		c1.8,7.78,3.56,15.8,3.56,15.8s-1.25,1.91-2.91,2.51c-1.91,0.65-4.17,0-4.17,0l-6.77-32.51C35.86,13.44,38.62,12.64,40.68,12.84z
		 M69.02,125.76c-6.32,2.11-14.49,3.16-14.49,3.16s-11.64-7.58-21.57-21.77C24.22,94.66,18.81,77.8,18.81,77.8S13.74,62,12.98,46.6
		C12.33,33,13.64,22.92,13.64,22.92s3.36-3.96,8.38-6.32c4.92-2.31,11.59-2.21,11.59-2.21l6.77,33.11c0,0-3.26-0.3-5.82-0.9
		c-2.26-0.55-3.87,1.86-3.87,1.86s3.21,12.44,7.73,24.93c3.56,9.83,6.77,20.27,9.03,24.93c0.95,2.01,2.56,3.46,2.56,3.46l6.77-6.32
		l22.57,25.28C79.35,120.74,75.09,123.75,69.02,125.76z M85.48,116.28c-1.25,1.56-3.87,2.86-3.87,2.86L59.04,93.9
		c0,0,0.95-1.91,2.56-2.86c1.76-1,4.21-1.05,4.21-1.05s4.01,4.97,8.68,10.23c5.57,6.27,11.59,13.25,11.59,13.25
		S86.48,115.02,85.48,116.28z M128.95,36.39h-11.82V48.2h-11.79V36.39H93.53V24.58h11.82V12.77h11.79v11.81h11.82V36.39z"/>
</g>
</svg>
