<svg id="Laag_1" data-name="Laag 1" xmlns="http://www.w3.org/2000/svg" viewBox="0 0 141.73 98.52"><defs><style>.cls-1,.cls-2{fill:#007e48;}.cls-1{fill-rule:evenodd;}.cls-3{fill:#fff;}</style></defs><title>E007_verzamelplaats-5</title><path class="cls-1" d="M0,.05V98.52H98.47V.05ZM58.4,31.19a3,3,0,1,1-3,3A3,3,0,0,1,58.4,31.19Zm-18.34,0a3,3,0,1,1-3,3A3,3,0,0,1,40.06,31.19ZM29.7,84.37l-5.28,5.27V78.08L12.85,89.64l-4-4L20.45,74.1H8.88l5.28-5.28H29.7Zm0-54.61H14.16L8.88,24.48H20.45L8.88,12.91l4-4L24.42,20.5V8.93l5.28,5.28ZM47.3,54.67a1.45,1.45,0,1,1-2.9,0V42.82a.33.33,0,0,0-.33-.33.34.34,0,0,0-.34.33V71.11a1.67,1.67,0,1,1-3.33,0V54a.34.34,0,0,0-.67,0V71.11a1.67,1.67,0,0,1-3.34,0V42.82a.33.33,0,0,0-.33-.33.33.33,0,0,0-.33.33V54.67a1.45,1.45,0,1,1-2.9,0V42.54a4.37,4.37,0,0,1,4-4.33h6.49a4.38,4.38,0,0,1,4,4.33ZM46.19,28.6a3,3,0,1,1,3,3A3,3,0,0,1,46.19,28.6ZM65.63,54.67a1.45,1.45,0,1,1-2.89,0V42.82a.34.34,0,0,0-.67,0V71.11a1.67,1.67,0,1,1-3.33,0V54a.34.34,0,0,0-.34-.33.34.34,0,0,0-.34.33V71.11a1.67,1.67,0,1,1-3.33,0V42.82a.34.34,0,0,0-.67,0V54.67a1.45,1.45,0,1,1-2.9,0V42.54a4.38,4.38,0,0,1,4-4.33h6.48a4.37,4.37,0,0,1,4,4.33Zm24,31-4,4L74,78.08V89.64l-5.28-5.27V68.82H84.32l5.27,5.28H78Zm0-61.18-5.27,5.28H68.76V14.21L74,8.93V20.5L85.61,8.93l4,4L78,24.48Z"/><rect class="cls-2" x="102.2" width="39.54" height="98.52"/><path class="cls-3" d="M136.19,8.66V21.4H118.57V34.94q3.3-5.46,8.51-5.47A9.94,9.94,0,0,1,136,34.08q3,4.61,3,17.69V63.14a94.46,94.46,0,0,1-.58,12.43,20.8,20.8,0,0,1-2.48,7.33,12.85,12.85,0,0,1-5.29,5.17,19.24,19.24,0,0,1-17.94-.89,14.55,14.55,0,0,1-6-8Q105,73.87,105,62.75V58.42h14.2v5a105.25,105.25,0,0,0,.39,11c.25,2.17,1.14,3.25,2.67,3.25a2,2,0,0,0,1.7-.93,3.83,3.83,0,0,0,.71-2c0-.72.07-3.86.12-9.4V49.46a18.41,18.41,0,0,0-.67-6.11,2.28,2.28,0,0,0-2.21-1.62,2.05,2.05,0,0,0-1.66.84,4.24,4.24,0,0,0-.86,1.79,30.33,30.33,0,0,0-.19,4.46H105.11l.59-40.16Z"/></svg>