<svg id="Laag_1" data-name="Laag 1" xmlns="http://www.w3.org/2000/svg" viewBox="0 0 141.73 98.52"><defs><style>.cls-1,.cls-2{fill:#007e48;}.cls-1{fill-rule:evenodd;}.cls-3{fill:#fff;}</style></defs><title>E007_verzamelplaats-1</title><path class="cls-1" d="M0,.05V98.52H98.47V.05ZM58.4,31.19a3,3,0,1,1-3,3A3,3,0,0,1,58.4,31.19Zm-18.34,0a3,3,0,1,1-3,3A3,3,0,0,1,40.06,31.19ZM29.7,84.37l-5.28,5.27V78.08L12.85,89.64l-4-4L20.45,74.1H8.88l5.28-5.28H29.7Zm0-54.61H14.16L8.88,24.48H20.45L8.88,12.91l4-4L24.42,20.5V8.93l5.28,5.28ZM47.3,54.67a1.45,1.45,0,1,1-2.9,0V42.82a.33.33,0,0,0-.33-.33.34.34,0,0,0-.34.33V71.11a1.67,1.67,0,1,1-3.33,0V54a.34.34,0,0,0-.67,0V71.11a1.67,1.67,0,0,1-3.34,0V42.82a.33.33,0,0,0-.33-.33.33.33,0,0,0-.33.33V54.67a1.45,1.45,0,1,1-2.9,0V42.54a4.37,4.37,0,0,1,4-4.33h6.49a4.38,4.38,0,0,1,4,4.33ZM46.19,28.6a3,3,0,1,1,3,3A3,3,0,0,1,46.19,28.6ZM65.63,54.67a1.45,1.45,0,1,1-2.89,0V42.82a.34.34,0,0,0-.67,0V71.11a1.67,1.67,0,1,1-3.33,0V54a.34.34,0,0,0-.34-.33.34.34,0,0,0-.34.33V71.11a1.67,1.67,0,1,1-3.33,0V42.82a.34.34,0,0,0-.67,0V54.67a1.45,1.45,0,1,1-2.9,0V42.54a4.38,4.38,0,0,1,4-4.33h6.48a4.37,4.37,0,0,1,4,4.33Zm24,31-4,4L74,78.08V89.64l-5.28-5.27V68.82H84.32l5.27,5.28H78Zm0-61.18-5.27,5.28H68.76V14.21L74,8.93V20.5L85.61,8.93l4,4L78,24.48Z" transform="translate(0 -0.03)"/><rect class="cls-2" x="102.2" width="39.54" height="98.52"/><path class="cls-3" d="M134.14,8.88V89.67h-14.4V46.36a107.49,107.49,0,0,0-.32-11.28,4.16,4.16,0,0,0-1.77-2.87c-1-.65-3.11-1-6.43-1h-1.43V21.82A26.2,26.2,0,0,0,125.65,8.88Z" transform="translate(0 -0.03)"/></svg>