<svg id="Laag_1" data-name="Laag 1" xmlns="http://www.w3.org/2000/svg" viewBox="0 0 141.73 98.52"><defs><style>.cls-1,.cls-2{fill:#007e48;}.cls-1{fill-rule:evenodd;}.cls-3{fill:#fff;}</style></defs><title>E007_verzamelplaats-3</title><path class="cls-1" d="M0,.05V98.52H98.47V.05ZM58.4,31.19a3,3,0,1,1-3,3A3,3,0,0,1,58.4,31.19Zm-18.34,0a3,3,0,1,1-3,3A3,3,0,0,1,40.06,31.19ZM29.7,84.37l-5.28,5.27V78.08L12.85,89.64l-4-4L20.45,74.1H8.88l5.28-5.28H29.7Zm0-54.61H14.16L8.88,24.48H20.45L8.88,12.91l4-4L24.42,20.5V8.93l5.28,5.28ZM47.3,54.67a1.45,1.45,0,1,1-2.9,0V42.82a.33.33,0,0,0-.33-.33.34.34,0,0,0-.34.33V71.11a1.67,1.67,0,1,1-3.33,0V54a.34.34,0,0,0-.67,0V71.11a1.67,1.67,0,0,1-3.34,0V42.82a.33.33,0,0,0-.33-.33.33.33,0,0,0-.33.33V54.67a1.45,1.45,0,1,1-2.9,0V42.54a4.37,4.37,0,0,1,4-4.33h6.49a4.38,4.38,0,0,1,4,4.33ZM46.19,28.6a3,3,0,1,1,3,3A3,3,0,0,1,46.19,28.6ZM65.63,54.67a1.45,1.45,0,1,1-2.89,0V42.82a.34.34,0,0,0-.67,0V71.11a1.67,1.67,0,1,1-3.33,0V54a.34.34,0,0,0-.34-.33.34.34,0,0,0-.34.33V71.11a1.67,1.67,0,1,1-3.33,0V42.82a.34.34,0,0,0-.67,0V54.67a1.45,1.45,0,1,1-2.9,0V42.54a4.38,4.38,0,0,1,4-4.33h6.48a4.37,4.37,0,0,1,4,4.33Zm24,31-4,4L74,78.08V89.64l-5.28-5.27V68.82H84.32l5.27,5.28H78Zm0-61.18-5.27,5.28H68.76V14.21L74,8.93V20.5L85.61,8.93l4,4L78,24.48Z"/><rect class="cls-2" x="102.2" width="39.54" height="98.52"/><path class="cls-3" d="M132.15,44.1A9.61,9.61,0,0,1,136.9,49q1.56,3.42,1.56,16,0,9.38-1.52,14.55a14.29,14.29,0,0,1-5.27,7.86,16,16,0,0,1-9.61,2.7q-6.65,0-10.45-3.13a14.59,14.59,0,0,1-5-7.67q-1.2-4.53-1.2-15.75V57.42h14V70.18a28.6,28.6,0,0,0,.43,6.48,1.84,1.84,0,0,0,1.93,1.39,2.14,2.14,0,0,0,2.15-1.75c.34-1.17.52-4.21.52-9.13V61.74a21.87,21.87,0,0,0-.73-6.6,4.37,4.37,0,0,0-2.15-2.74,16.18,16.18,0,0,0-5.51-.76V40.24q5,0,6.17-.54a3.39,3.39,0,0,0,1.7-2.33,22.31,22.31,0,0,0,.52-5.63V27.38a15.56,15.56,0,0,0-.61-5.44A2,2,0,0,0,122,20.63,2,2,0,0,0,120,22a20,20,0,0,0-.54,5.9v6.45h-14V27.67q0-11.26,3.68-15.22T120.78,8.5q10,0,13.59,5.48t3.57,15.23q0,6.59-1.28,9.53A13.81,13.81,0,0,1,132.15,44.1Z"/></svg>