<?xml version="1.0" encoding="utf-8"?>
<!-- Generator: Adobe Illustrator 24.0.2, SVG Export Plug-In . SVG Version: 6.00 Build 0)  -->
<svg version="1.1" id="Layer_1" xmlns="http://www.w3.org/2000/svg" xmlns:xlink="http://www.w3.org/1999/xlink" x="0px" y="0px"
	 viewBox="0 0 141.73 141.73" style="enable-background:new 0 0 141.73 141.73;" xml:space="preserve">
<style type="text/css">
	.st0{fill-rule:evenodd;clip-rule:evenodd;fill:#007E48;}
</style>
<path class="st0" d="M0,0v141.73h141.73V0H0z M84.06,44.81c2.42,0,4.38,1.96,4.38,4.38c0,2.42-1.96,4.38-4.38,4.38
	s-4.38-1.96-4.38-4.38C79.68,46.77,81.64,44.81,84.06,44.81z M57.67,44.81c2.42,0,4.38,1.96,4.38,4.38c0,2.42-1.96,4.38-4.38,4.38
	c-2.42,0-4.38-1.96-4.38-4.38C53.29,46.77,55.25,44.81,57.67,44.81z M42.75,121.36l-7.59,7.59v-16.65L18.5,128.96l-5.72-5.73
	l16.66-16.64H12.78l7.59-7.6h22.38V121.36z M42.75,42.75H20.38l-7.59-7.59h16.66L12.78,18.51l5.72-5.73l16.66,16.66V12.78l7.59,7.59
	V42.75z M68.08,78.61c0,1.15-0.93,2.09-2.08,2.09c-1.15,0-2.08-0.93-2.08-2.09V61.56c0-0.27-0.21-0.48-0.48-0.48
	c-0.27,0-0.48,0.21-0.48,0.48v40.72c0,1.33-1.07,2.4-2.4,2.4s-2.4-1.07-2.4-2.4v-24.6c0-0.26-0.22-0.48-0.49-0.48
	c-0.27,0-0.49,0.22-0.49,0.48v24.6c0,1.33-1.07,2.4-2.4,2.4s-2.4-1.07-2.4-2.4V61.56c0-0.27-0.22-0.48-0.48-0.48
	c-0.27,0-0.48,0.21-0.48,0.48v17.05c0,1.15-0.93,2.09-2.08,2.09c-1.15,0-2.08-0.93-2.08-2.09V61.15c0-4.08,3.65-6.23,5.75-6.23h4.67
	h4.67c2.1,0,5.75,2.15,5.75,6.23V78.61z M66.49,41.09c0-2.42,1.96-4.38,4.38-4.38c2.42,0,4.38,1.96,4.38,4.38s-1.96,4.38-4.38,4.38
	C68.44,45.46,66.49,43.5,66.49,41.09z M94.47,78.61c0,1.15-0.93,2.09-2.08,2.09s-2.08-0.93-2.08-2.09V61.56
	c0-0.27-0.21-0.48-0.48-0.48c-0.26,0-0.48,0.21-0.48,0.48v40.72c0,1.33-1.07,2.4-2.4,2.4c-1.32,0-2.4-1.07-2.4-2.4v-24.6
	c0-0.26-0.22-0.48-0.49-0.48c-0.27,0-0.49,0.22-0.49,0.48v24.6c0,1.33-1.07,2.4-2.4,2.4c-1.32,0-2.4-1.07-2.4-2.4V61.56
	c0-0.27-0.21-0.48-0.48-0.48c-0.27,0-0.48,0.21-0.48,0.48v17.05c0,1.15-0.93,2.09-2.08,2.09c-1.15,0-2.08-0.93-2.08-2.09V61.15
	c0-4.08,3.65-6.23,5.75-6.23h4.67h4.67c2.1,0,5.75,2.15,5.75,6.23V78.61z M128.95,123.23l-5.72,5.73l-16.66-16.65v16.65l-7.59-7.59
	V98.98h22.39l7.58,7.6h-16.64L128.95,123.23z M128.95,35.16l-7.58,7.59H98.98V20.37l7.59-7.59v16.66l16.66-16.66l5.72,5.73
	l-16.64,16.65H128.95z"/>
</svg>
