<?xml version="1.0" encoding="utf-8"?>
<!-- Generator: Adobe Illustrator 24.0.2, SVG Export Plug-In . SVG Version: 6.00 Build 0)  -->
<svg version="1.1" id="Laag_1" xmlns="http://www.w3.org/2000/svg" xmlns:xlink="http://www.w3.org/1999/xlink" x="0px" y="0px"
	 viewBox="0 0 141.73 141.73" style="enable-background:new 0 0 141.73 141.73;" xml:space="preserve">
<style type="text/css">
	.st0{fill:#007E48;}
</style>
<path class="st0" d="M48.64,121.95c-7.37,0-10.66-9.06-11.33-16.23c2.92-0.92,5.04-3.65,5.04-6.88c0-3.98-3.23-7.21-7.21-7.21
	s-7.21,3.23-7.21,7.21c0,3.77,2.91,6.87,6.61,7.18c0.78,8.43,4.81,18.71,14.1,18.71c5.01,0,8.64-2.14,10.56-5.97l-1.48-3.33
	C56.89,119.59,53.57,121.95,48.64,121.95z M35.14,101.01c-1.2,0-2.17-0.97-2.17-2.16c0-1.2,0.97-2.17,2.17-2.17
	c1.2,0,2.17,0.97,2.17,2.17C37.31,100.04,36.34,101.01,35.14,101.01z"/>
<path class="st0" d="M0,0v141.73h141.73V0H0z M59.39,25.89c10.4,0,18.84,9.35,18.84,20.88c0,11.53-8.44,20.88-18.84,20.88
	c-10.41,0-18.85-9.35-18.85-20.88C40.54,35.24,48.98,25.89,59.39,25.89z M105.83,129.18H88.88v-27.55h-3.53v27.55H12.58V99.65
	c0-14.78,11.04-26.99,25.33-28.83l19.82,44.61V83.39C44.39,82.14,35.54,66,35.54,50.89c0-0.92,0.75-1.67,1.67-1.67
	c0.92,0,1.67,0.75,1.67,1.67c0,13.84,8.43,29.25,20.52,29.25c12.09,0,20.51-15.42,20.51-29.25c0-0.92,0.75-1.67,1.67-1.67
	c0.92,0,1.67,0.75,1.67,1.67c0,15.11-8.84,31.25-22.18,32.5v31.2L80.5,70.81c14.29,1.84,25.33,14.05,25.33,28.83V129.18z
	 M128.96,36.36h-11.82v11.8h-11.79v-11.8H93.53v-11.8h11.82v-11.8h11.79v11.8h11.82V36.36z"/>
</svg>
