<?xml version="1.0" encoding="utf-8"?>
<!-- Generator: Adobe Illustrator 24.0.2, SVG Export Plug-In . SVG Version: 6.00 Build 0)  -->
<svg version="1.1" id="Laag_1" xmlns="http://www.w3.org/2000/svg" xmlns:xlink="http://www.w3.org/1999/xlink" x="0px" y="0px"
	 viewBox="0 0 141.73 141.73" style="enable-background:new 0 0 141.73 141.73;" xml:space="preserve">
<style type="text/css">
	.st0{fill:#007E48;}
</style>
<path class="st0" d="M70.89,56.33L59.42,80.61h14.81l-26.39,30.82l10.09-24.18H43.32L70.89,56.33 M0-0.01v141.74h141.73V-0.01H0z
	 M59.93,125.37c-29.53-19.91-43.58-39.51-43.58-55.04c0-13.79,10.44-24.95,23.36-24.95c8.64,0,16.25,5.04,20.27,12.6
	c4.02-7.56,11.58-12.6,20.27-12.6c12.91,0,23.35,11.16,23.35,24.95C103.61,85.86,89.46,105.46,59.93,125.37z M128.96,36.36h-11.82
	v11.8h-11.79v-11.8H93.53v-11.8h11.82v-11.8h11.79v11.8h11.82V36.36z"/>
</svg>
