<?xml version="1.0" encoding="utf-8"?>
<!-- Generator: Adobe Illustrator 24.0.2, SVG Export Plug-In . SVG Version: 6.00 Build 0)  -->
<svg version="1.1" id="Laag_1" xmlns="http://www.w3.org/2000/svg" xmlns:xlink="http://www.w3.org/1999/xlink" x="0px" y="0px"
	 viewBox="0 0 141.73 141.73" style="enable-background:new 0 0 141.73 141.73;" xml:space="preserve">
<style type="text/css">
	.st0{fill:#007E48;}
</style>
<g>
	<path class="st0" d="M52.46,37.53c3.9,0,7.06-3.16,7.06-7.06c0-3.9-3.16-7.06-7.06-7.06s-7.06,3.16-7.06,7.06
		C45.4,34.37,48.56,37.53,52.46,37.53z"/>
	<path class="st0" d="M52.57,46.54c6.29-0.14,17.22-2.06,24.36-12.63c-3.36-5.02-7.51-8.13-11.63-10.03
		c1.02,1.98,1.59,4.21,1.59,6.59c0,7.97-6.46,14.44-14.44,14.44s-14.44-6.46-14.44-14.44c0-2.32,0.55-4.51,1.52-6.45
		c-4.01,1.91-8.05,4.99-11.33,9.89C35.35,44.48,46.28,46.4,52.57,46.54z"/>
	<path class="st0" d="M0,0v141.73h141.73V0H0z M15.07,46.88c-1.28,0-2.31-1.03-2.31-2.31c0-1.28,1.03-2.31,2.31-2.31
		c1.28,0,2.31,1.03,2.31,2.31C17.38,45.85,16.35,46.88,15.07,46.88z M52.57,14.55c12.09,0.22,25.01,5.61,32.3,19.36
		c-7.29,13.75-20.2,18.88-32.3,19.1c-12.09-0.22-25.01-5.35-32.3-19.1C27.56,20.16,40.48,14.77,52.57,14.55z M57.97,87.79
		c-1.28,0-2.31-1.04-2.31-2.31c0-1.28,1.03-2.31,2.31-2.31c1.28,0,2.31,1.03,2.31,2.31C60.28,86.75,59.24,87.79,57.97,87.79z
		 M60.25,90.85c0,1.28-1.03,2.31-2.31,2.31c-1.28,0-2.31-1.03-2.31-2.31c0-1.28,1.03-2.31,2.31-2.31
		C59.21,88.54,60.25,89.57,60.25,90.85z M57.97,82.5c-1.28,0-2.31-1.03-2.31-2.31c0-1.28,1.03-2.31,2.31-2.31
		c1.28,0,2.31,1.03,2.31,2.31C60.28,81.47,59.24,82.5,57.97,82.5z M58.59,76.91c-1.28,0-2.31-1.03-2.31-2.31
		c0-1.28,1.03-2.31,2.31-2.31c1.28,0,2.31,1.04,2.31,2.31C60.9,75.88,59.87,76.91,58.59,76.91z M59.91,70.66
		c-1.28,0-2.31-1.03-2.31-2.31c0-1.28,1.03-2.31,2.31-2.31c1.28,0,2.31,1.03,2.31,2.31C62.22,69.63,61.18,70.66,59.91,70.66z
		 M68.76,68.38c0,1.28-1.03,2.31-2.31,2.31c-1.28,0-2.31-1.03-2.31-2.31c0-1.28,1.03-2.31,2.31-2.31
		C67.72,66.07,68.76,67.1,68.76,68.38z M66.76,61.54c0-1.28,1.03-2.31,2.31-2.31c1.28,0,2.31,1.03,2.31,2.31s-1.03,2.31-2.31,2.31
		C67.79,63.85,66.76,62.81,66.76,61.54z M61.84,63.85c-1.28,0-2.31-1.03-2.31-2.31s1.03-2.31,2.31-2.31c1.28,0,2.31,1.03,2.31,2.31
		S63.12,63.85,61.84,63.85z M63.82,88.51c1.28,0,2.31,1.03,2.31,2.31c0,1.28-1.04,2.31-2.31,2.31c-1.28,0-2.31-1.03-2.31-2.31
		C61.51,89.54,62.54,88.51,63.82,88.51z M63.85,87.79c-1.28,0-2.31-1.04-2.31-2.31c0-1.28,1.03-2.31,2.31-2.31
		c1.28,0,2.31,1.03,2.31,2.31C66.16,86.75,65.13,87.79,63.85,87.79z M64.48,82.47c-1.28,0-2.31-1.04-2.31-2.31
		c0-1.28,1.03-2.31,2.31-2.31c1.28,0,2.31,1.03,2.31,2.31C66.79,81.44,65.75,82.47,64.48,82.47z M65.13,76.91
		c-1.28,0-2.31-1.03-2.31-2.31c0-1.28,1.03-2.31,2.31-2.31c1.28,0,2.31,1.04,2.31,2.31C67.44,75.88,66.41,76.91,65.13,76.91z
		 M69.7,88.51c1.28,0,2.31,1.03,2.31,2.31c0,1.28-1.03,2.31-2.31,2.31c-1.28,0-2.31-1.03-2.31-2.31
		C67.39,89.54,68.43,88.51,69.7,88.51z M70.36,87.82c-1.28,0-2.31-1.03-2.31-2.31c0-1.28,1.03-2.31,2.31-2.31
		c1.28,0,2.31,1.03,2.31,2.31C72.67,86.78,71.64,87.82,70.36,87.82z M71.67,82.5c-1.28,0-2.31-1.03-2.31-2.31
		c0-1.28,1.03-2.31,2.31-2.31c1.28,0,2.31,1.03,2.31,2.31C73.98,81.47,72.95,82.5,71.67,82.5z M73.02,76.91
		c-1.28,0-2.31-1.03-2.31-2.31c0-1.28,1.04-2.31,2.31-2.31c1.28,0,2.31,1.04,2.31,2.31C75.33,75.88,74.29,76.91,73.02,76.91z
		 M69.51,53.66c0-1.28,1.03-2.31,2.31-2.31c1.28,0,2.31,1.03,2.31,2.31s-1.04,2.31-2.31,2.31C70.54,55.97,69.51,54.94,69.51,53.66z
		 M52.71,87.82c-1.28,0-2.31-1.03-2.31-2.31c0-1.28,1.03-2.31,2.31-2.31c1.28,0,2.31,1.03,2.31,2.31
		C55.03,86.78,53.99,87.82,52.71,87.82z M55.03,90.82c0,1.28-1.03,2.31-2.31,2.31c-1.28,0-2.31-1.03-2.31-2.31
		c0-1.28,1.03-2.31,2.31-2.31C53.99,88.51,55.03,89.54,55.03,90.82z M52.71,82.5c-1.28,0-2.31-1.03-2.31-2.31
		c0-1.28,1.03-2.31,2.31-2.31c1.28,0,2.31,1.03,2.31,2.31C55.03,81.47,53.99,82.5,52.71,82.5z M52.71,76.89
		c-1.28,0-2.31-1.03-2.31-2.31c0-1.28,1.03-2.31,2.31-2.31c1.28,0,2.31,1.03,2.31,2.31C55.03,75.86,53.99,76.89,52.71,76.89z
		 M52.71,70.71c-1.28,0-2.31-1.04-2.31-2.31s1.03-2.31,2.31-2.31c1.28,0,2.31,1.04,2.31,2.31S53.99,70.71,52.71,70.71z M52.71,63.85
		c-1.28,0-2.31-1.03-2.31-2.31c0-1.28,1.03-2.31,2.31-2.31c1.28,0,2.31,1.04,2.31,2.31C55.03,62.82,53.99,63.85,52.71,63.85z
		 M41.29,68.38c0,1.28-1.03,2.31-2.31,2.31c-1.28,0-2.31-1.03-2.31-2.31c0-1.28,1.03-2.31,2.31-2.31
		C40.26,66.07,41.29,67.1,41.29,68.38z M41.28,61.54c0-1.28,1.03-2.31,2.31-2.31c1.28,0,2.31,1.03,2.31,2.31s-1.03,2.31-2.31,2.31
		C42.31,63.85,41.28,62.81,41.28,61.54z M36.36,63.85c-1.28,0-2.31-1.03-2.31-2.31s1.03-2.31,2.31-2.31c1.28,0,2.31,1.03,2.31,2.31
		S37.64,63.85,36.36,63.85z M33.61,55.97c-1.28,0-2.31-1.03-2.31-2.31s1.03-2.31,2.31-2.31c1.28,0,2.31,1.03,2.31,2.31
		S34.89,55.97,33.61,55.97z M34.72,74.6c0,1.28-1.03,2.31-2.31,2.31c-1.28,0-2.31-1.03-2.31-2.31c0-1.28,1.03-2.31,2.31-2.31
		C33.69,72.29,34.72,73.32,34.72,74.6z M33.76,77.88c1.28,0,2.31,1.03,2.31,2.31c0,1.28-1.03,2.31-2.31,2.31
		c-1.28,0-2.31-1.03-2.31-2.31C31.45,78.92,32.48,77.88,33.76,77.88z M35.07,83.2c1.28,0,2.31,1.03,2.31,2.31
		c0,1.28-1.03,2.31-2.31,2.31c-1.28,0-2.31-1.03-2.31-2.31C32.76,84.23,33.79,83.2,35.07,83.2z M35.73,88.51
		c1.28,0,2.31,1.03,2.31,2.31c0,1.28-1.03,2.31-2.31,2.31c-1.28,0-2.31-1.03-2.31-2.31C33.41,89.54,34.45,88.51,35.73,88.51z
		 M37.99,74.6c0-1.28,1.03-2.31,2.31-2.31c1.28,0,2.31,1.04,2.31,2.31c0,1.28-1.03,2.31-2.31,2.31
		C39.02,76.91,37.99,75.88,37.99,74.6z M40.95,77.85c1.28,0,2.31,1.03,2.31,2.31c0,1.28-1.03,2.31-2.31,2.31
		c-1.28,0-2.31-1.04-2.31-2.31C38.64,78.89,39.68,77.85,40.95,77.85z M41.58,83.16c1.28,0,2.31,1.03,2.31,2.31
		c0,1.28-1.03,2.31-2.31,2.31c-1.28,0-2.31-1.04-2.31-2.31C39.27,84.2,40.3,83.16,41.58,83.16z M41.61,88.51
		c1.28,0,2.31,1.03,2.31,2.31c0,1.28-1.03,2.31-2.31,2.31c-1.28,0-2.31-1.03-2.31-2.31C39.3,89.54,40.33,88.51,41.61,88.51z
		 M43.21,68.35c0-1.28,1.03-2.31,2.31-2.31c1.28,0,2.31,1.03,2.31,2.31c0,1.28-1.03,2.31-2.31,2.31
		C44.25,70.66,43.21,69.63,43.21,68.35z M46.84,72.29c1.28,0,2.31,1.04,2.31,2.31c0,1.28-1.03,2.31-2.31,2.31
		c-1.28,0-2.31-1.03-2.31-2.31C44.53,73.32,45.56,72.29,46.84,72.29z M49.77,80.19c0,1.28-1.03,2.31-2.31,2.31
		c-1.28,0-2.31-1.03-2.31-2.31c0-1.28,1.03-2.31,2.31-2.31C48.74,77.88,49.77,78.92,49.77,80.19z M47.46,83.16
		c1.28,0,2.31,1.03,2.31,2.31c0,1.28-1.03,2.31-2.31,2.31c-1.28,0-2.31-1.04-2.31-2.31C45.15,84.2,46.18,83.16,47.46,83.16z
		 M47.49,88.54c1.28,0,2.31,1.04,2.31,2.31c0,1.28-1.03,2.31-2.31,2.31c-1.28,0-2.31-1.03-2.31-2.31
		C45.18,89.57,46.22,88.54,47.49,88.54z M22.73,56.13c-1.28,0-2.31-1.03-2.31-2.31c0-1.28,1.03-2.31,2.31-2.31
		c1.28,0,2.31,1.03,2.31,2.31C25.04,55.1,24,56.13,22.73,56.13z M24.91,61.51c0-1.28,1.03-2.31,2.31-2.31
		c1.28,0,2.31,1.03,2.31,2.31c0,1.28-1.04,2.31-2.31,2.31C25.95,63.82,24.91,62.78,24.91,61.51z M28.17,68.35
		c0-1.28,1.03-2.31,2.31-2.31c1.28,0,2.31,1.03,2.31,2.31c0,1.28-1.03,2.31-2.31,2.31C29.2,70.66,28.17,69.63,28.17,68.35z
		 M69.52,104.95c-1.81,0.3-3.67,0.55-5.53,0.85c-3.67,0.45-5.43,2.21-5.63,5.32v17.71H47.12v-17.71c-0.2-3.11-1.96-4.87-5.63-5.32
		c-1.86-0.3-3.72-0.55-5.53-0.85c-5.02-1.05-6.03-5.07-5.98-9.53c0-0.36,0.05-1.41,0.05-1.41h45.41c0,0,0.05,1.05,0.05,1.41
		C75.55,99.88,74.54,103.89,69.52,104.95z M74.95,70.66c-1.28,0-2.31-1.03-2.31-2.31c0-1.28,1.04-2.31,2.31-2.31
		c1.28,0,2.31,1.03,2.31,2.31C77.26,69.63,76.23,70.66,74.95,70.66z M78.2,63.82c-1.28,0-2.31-1.03-2.31-2.31
		c0-1.28,1.04-2.31,2.31-2.31s2.31,1.03,2.31,2.31C80.52,62.78,79.48,63.82,78.2,63.82z M82.7,56.13c-1.28,0-2.31-1.03-2.31-2.31
		c0-1.28,1.04-2.31,2.31-2.31s2.31,1.03,2.31,2.31C85.01,55.1,83.98,56.13,82.7,56.13z M90.36,46.88c-1.28,0-2.31-1.03-2.31-2.31
		c0-1.28,1.04-2.31,2.31-2.31c1.28,0,2.31,1.03,2.31,2.31C92.67,45.85,91.64,46.88,90.36,46.88z M128.96,36.36h-11.82v11.8h-11.79
		v-11.8H93.53v-11.8h11.82v-11.8h11.79v11.8h11.82V36.36z"/>
</g>
</svg>
