<?xml version="1.0" encoding="utf-8"?>
<!-- Generator: Adobe Illustrator 24.0.2, SVG Export Plug-In . SVG Version: 6.00 Build 0)  -->
<svg version="1.1" id="Laag_1" xmlns="http://www.w3.org/2000/svg" xmlns:xlink="http://www.w3.org/1999/xlink" x="0px" y="0px"
	 viewBox="0 0 141.73 141.73" style="enable-background:new 0 0 141.73 141.73;" xml:space="preserve">
<style type="text/css">
	.st0{fill:#007E48;}
</style>
<path class="st0" d="M0,0v141.73h141.73V0H0z M68.75,41.65c0,1.12-0.91,2.02-2.02,2.02c-1.12,0-2.02-0.91-2.02-2.02
	s0.91-2.02,2.02-2.02C67.84,39.63,68.75,40.53,68.75,41.65z M42.71,50.33c-1.12,0-2.02-0.91-2.02-2.02c0-1.12,0.91-2.02,2.02-2.02
	c1.12,0,2.02,0.91,2.02,2.02C44.73,49.42,43.82,50.33,42.71,50.33z M43.26,54.47c0,1.12-0.91,2.02-2.02,2.02
	c-1.12,0-2.02-0.91-2.02-2.02c0-1.12,0.91-2.02,2.02-2.02C42.35,52.45,43.26,53.36,43.26,54.47z M45.65,33.94
	c1.12,0,2.02,0.91,2.02,2.02c0,1.12-0.91,2.02-2.02,2.02c-1.12,0-2.02-0.91-2.02-2.02C43.62,34.85,44.53,33.94,45.65,33.94z
	 M45.09,29.8c0-1.12,0.91-2.02,2.02-2.02c1.12,0,2.02,0.91,2.02,2.02c0,1.12-0.91,2.02-2.02,2.02C46,31.82,45.09,30.92,45.09,29.8z
	 M42.09,31.82c-1.12,0-2.02-0.91-2.02-2.02c0-1.12,0.91-2.02,2.02-2.02c1.12,0,2.02,0.91,2.02,2.02
	C44.12,30.92,43.21,31.82,42.09,31.82z M44.18,44.16c-1.12,0-2.02-0.91-2.02-2.02c0-1.12,0.91-2.02,2.02-2.02
	c1.12,0,2.02,0.91,2.02,2.02C46.2,43.25,45.29,44.16,44.18,44.16z M52.14,45.89c3.33,0,6.03,2.7,6.03,6.03
	c0,3.33-2.7,6.03-6.03,6.03c-3.33,0-6.03-2.7-6.03-6.03C46.11,48.59,48.81,45.89,52.14,45.89z M52.14,34.08
	c1.12,0,2.02,0.91,2.02,2.02c0,1.12-0.91,2.02-2.02,2.02c-1.12,0-2.02-0.91-2.02-2.02C50.11,34.99,51.02,34.08,52.14,34.08z
	 M50.11,29.8c0-1.12,0.91-2.02,2.02-2.02c1.12,0,2.02,0.91,2.02,2.02c0,1.12-0.91,2.02-2.02,2.02
	C51.02,31.82,50.11,30.92,50.11,29.8z M52.14,40.39c1.12,0,2.02,0.91,2.02,2.02c0,1.12-0.91,2.02-2.02,2.02
	c-1.12,0-2.02-0.91-2.02-2.02C50.11,41.29,51.02,40.39,52.14,40.39z M60.66,35.97c0,1.12-0.91,2.02-2.02,2.02
	c-1.12,0-2.02-0.91-2.02-2.02c0-1.12,0.91-2.02,2.02-2.02C59.75,33.94,60.66,34.85,60.66,35.97z M60.16,29.8
	c0-1.12,0.91-2.02,2.02-2.02c1.12,0,2.02,0.91,2.02,2.02c0,1.12-0.91,2.02-2.02,2.02C61.07,31.82,60.16,30.92,60.16,29.8z
	 M57.16,31.82c-1.12,0-2.02-0.91-2.02-2.02c0-1.12,0.91-2.02,2.02-2.02c1.12,0,2.02,0.91,2.02,2.02
	C59.19,30.92,58.28,31.82,57.16,31.82z M58.08,42.14c0-1.12,0.91-2.02,2.02-2.02c1.12,0,2.02,0.91,2.02,2.02
	c0,1.12-0.91,2.02-2.02,2.02C58.98,44.16,58.08,43.25,58.08,42.14z M61.57,46.28c1.12,0,2.02,0.91,2.02,2.02
	c0,1.12-0.91,2.02-2.02,2.02c-1.12,0-2.02-0.91-2.02-2.02C59.55,47.19,60.45,46.28,61.57,46.28z M63.04,52.45
	c1.12,0,2.02,0.91,2.02,2.02c0,1.12-0.91,2.02-2.02,2.02c-1.12,0-2.02-0.91-2.02-2.02C61.02,53.36,61.92,52.45,63.04,52.45z
	 M66.48,35.72c0,1.12-0.91,2.02-2.03,2.02c-1.12,0-2.02-0.91-2.02-2.02c0-1.12,0.91-2.02,2.02-2.02
	C65.57,33.7,66.48,34.61,66.48,35.72z M44.19,21.18h4.66v-8.4h6.58v8.4h4.66c3.07,0,5.57,2.49,5.57,5.57H38.63
	C38.63,23.67,41.12,21.18,44.19,21.18z M39.82,33.7c1.12,0,2.02,0.91,2.02,2.02c0,1.12-0.91,2.02-2.02,2.02
	c-1.12,0-2.02-0.91-2.02-2.02C37.8,34.61,38.7,33.7,39.82,33.7z M37.55,39.63c1.12,0,2.02,0.91,2.02,2.02s-0.91,2.02-2.02,2.02
	c-1.12,0-2.02-0.91-2.02-2.02S36.43,39.63,37.55,39.63z M21.66,85.16c-1.12,0-2.02-0.91-2.02-2.03c0-1.12,0.91-2.02,2.02-2.02
	s2.02,0.91,2.02,2.02C23.68,84.25,22.78,85.16,21.66,85.16z M23.93,79.23c-1.12,0-2.02-0.91-2.02-2.02c0-1.12,0.91-2.03,2.02-2.03
	s2.02,0.91,2.02,2.03C25.95,78.33,25.05,79.23,23.93,79.23z M26.2,73.31c-1.12,0-2.02-0.91-2.02-2.02c0-1.12,0.91-2.02,2.02-2.02
	s2.02,0.91,2.02,2.02C28.22,72.4,27.32,73.31,26.2,73.31z M28.47,67.38c-1.12,0-2.02-0.91-2.02-2.02c0-1.12,0.91-2.02,2.02-2.02
	c1.12,0,2.02,0.91,2.02,2.02C30.49,66.47,29.59,67.38,28.47,67.38z M30.74,61.45c-1.12,0-2.02-0.91-2.02-2.02
	c0-1.12,0.91-2.02,2.02-2.02c1.12,0,2.02,0.91,2.02,2.02C32.76,60.55,31.86,61.45,30.74,61.45z M33.01,55.53
	c-1.12,0-2.02-0.91-2.02-2.02c0-1.12,0.91-2.02,2.02-2.02c1.12,0,2.02,0.91,2.02,2.02C35.03,54.62,34.13,55.53,33.01,55.53z
	 M35.28,49.6c-1.12,0-2.02-0.91-2.02-2.02c0-1.12,0.91-2.02,2.02-2.02c1.12,0,2.02,0.91,2.02,2.02C37.31,48.69,36.4,49.6,35.28,49.6
	z M66.75,92.65c0,1.7-1.37,3.07-3.07,3.07c-1.69,0-3.07-1.37-3.07-3.07V69.06c0-0.26-0.21-0.47-0.47-0.47
	c-0.26,0-0.47,0.21-0.47,0.47v56.36c0,1.95-1.58,3.52-3.52,3.52c-1.95,0-3.52-1.58-3.52-3.52V91.33c0-0.26-0.21-0.47-0.47-0.47
	c-0.26,0-0.47,0.21-0.47,0.47v34.09c0,1.95-1.58,3.52-3.52,3.52s-3.52-1.58-3.52-3.52V69.06c0-0.26-0.21-0.47-0.47-0.47
	c-0.26,0-0.47,0.21-0.47,0.47v23.59c0,1.7-1.37,3.07-3.07,3.07c-1.69,0-3.07-1.37-3.07-3.07V68.58c0-4.93,3.99-8.92,8.92-8.92h11.37
	c4.93,0,8.92,3.99,8.92,8.92V92.65z M66.97,47.58c0-1.12,0.91-2.02,2.02-2.02c1.12,0,2.02,0.91,2.02,2.02
	c0,1.12-0.91,2.02-2.02,2.02C67.88,49.6,66.97,48.69,66.97,47.58z M69.24,53.5c0-1.12,0.91-2.02,2.02-2.02
	c1.12,0,2.02,0.91,2.02,2.02c0,1.12-0.91,2.02-2.02,2.02C70.15,55.53,69.24,54.62,69.24,53.5z M71.51,59.43
	c0-1.12,0.91-2.02,2.02-2.02c1.12,0,2.02,0.91,2.02,2.02c0,1.12-0.91,2.02-2.02,2.02C72.42,61.45,71.51,60.55,71.51,59.43z
	 M73.78,65.35c0-1.12,0.91-2.02,2.02-2.02c1.12,0,2.02,0.91,2.02,2.02c0,1.12-0.91,2.02-2.02,2.02
	C74.69,67.38,73.78,66.47,73.78,65.35z M76.05,71.28c0-1.12,0.91-2.02,2.02-2.02c1.12,0,2.03,0.91,2.03,2.02
	c0,1.12-0.91,2.02-2.03,2.02C76.96,73.31,76.05,72.4,76.05,71.28z M78.32,77.21c0-1.12,0.91-2.03,2.02-2.03
	c1.12,0,2.02,0.91,2.02,2.03c0,1.12-0.91,2.02-2.02,2.02C79.23,79.23,78.32,78.33,78.32,77.21z M82.62,85.16
	c-1.12,0-2.02-0.91-2.02-2.03c0-1.12,0.91-2.02,2.02-2.02c1.12,0,2.02,0.91,2.02,2.02C84.64,84.25,83.74,85.16,82.62,85.16z
	 M128.96,36.4h-11.82v11.81h-11.81V36.4H93.52V24.59h11.82V12.78h11.81v11.81h11.82V36.4z"/>
</svg>
