<?xml version="1.0" encoding="utf-8"?>
<!-- Generator: Adobe Illustrator 24.0.2, SVG Export Plug-In . SVG Version: 6.00 Build 0)  -->
<svg version="1.1" id="Laag_1" xmlns="http://www.w3.org/2000/svg" xmlns:xlink="http://www.w3.org/1999/xlink" x="0px" y="0px"
	 viewBox="0 0 141.73 141.73" style="enable-background:new 0 0 141.73 141.73;" xml:space="preserve">
<style type="text/css">
	.st0{fill:#007E48;}
</style>
<path class="st0" d="M74.55,88.16c0,0.28,0.23,0.51,0.51,0.51h36.58c2.09,0,3.78,1.69,3.78,3.78c0,2.09-1.69,3.78-3.78,3.78H51.17
	c-0.28,0-0.51,0.23-0.51,0.51c0,0.28,0.23,0.51,0.51,0.51h25.31c1.82,0,3.29,1.48,3.29,3.29c0,1.82-1.47,3.29-3.29,3.29H50.65
	c-5.29,0-9.57-4.28-9.57-9.57v-12.2c0-5.29,4.28-9.57,9.57-9.57h25.83c1.82,0,3.29,1.47,3.29,3.29c0,1.82-1.47,3.29-3.29,3.29H51.17
	c-0.28,0-0.51,0.23-0.51,0.51s0.23,0.51,0.51,0.51h60.46c2.09,0,3.78,1.69,3.78,3.78c0,2.09-1.69,3.78-3.78,3.78H75.06
	C74.78,87.65,74.55,87.87,74.55,88.16z M32.78,81.68c-3.57,0-6.47,2.9-6.47,6.47c0,3.57,2.9,6.47,6.47,6.47
	c3.57,0,6.47-2.9,6.47-6.47C39.25,84.58,36.36,81.68,32.78,81.68z M141.73,0v141.73H0V0H141.73z M120.45,108.39V67.91h5.96
	c1.4,0,2.53-1.13,2.53-2.53c0-1.4-1.13-2.53-2.53-2.53H15.31c-1.4,0-2.53,1.13-2.53,2.53c0,1.4,1.13,2.53,2.53,2.53h5.96v40.48
	h-5.96c-1.4,0-2.53,1.13-2.53,2.53c0,1.4,1.13,2.53,2.53,2.53h111.1c1.4,0,2.53-1.13,2.53-2.53c0-1.4-1.13-2.53-2.53-2.53H120.45z
	 M128.95,24.6h-11.8V12.77h-11.82V24.6H93.52v11.81h11.81v11.81h11.82V36.41h11.8V24.6z"/>
</svg>
