<?xml version="1.0" encoding="utf-8"?>
<!-- Generator: Adobe Illustrator 24.0.2, SVG Export Plug-In . SVG Version: 6.00 Build 0)  -->
<svg version="1.1" id="Laag_1" xmlns="http://www.w3.org/2000/svg" xmlns:xlink="http://www.w3.org/1999/xlink" x="0px" y="0px"
	 viewBox="0 0 141.73 141.73" style="enable-background:new 0 0 141.73 141.73;" xml:space="preserve">
<style type="text/css">
	.st0{fill:#007E48;}
</style>
<path class="st0" d="M0,0v141.73h141.73V0H0z M59.18,35.28c0,3.8-3.08,6.88-6.88,6.88c-3.8,0-6.88-3.08-6.88-6.88
	c0-3.8,3.08-6.88,6.88-6.88C56.1,28.4,59.18,31.48,59.18,35.28z M48.07,128.96h-3.44v-7.37H19.26v7.37h-3.44V12.78h3.44v8.7h25.37
	v-8.7h3.44v14.71c-1.43,0.78-2.62,1.95-3.44,3.36v-6.33H19.26v16.37h25.37v-1.17c0.82,1.41,2.01,2.58,3.44,3.36v6.18l-3.44,3.44
	v-8.77H19.26V60.3h1.71c-0.11,0.43-0.17,0.88-0.17,1.34c0,0.6,0.1,1.17,0.28,1.7h-1.81v16.37h25.37v-12.8
	c0.97-0.24,1.87-0.74,2.57-1.43l0.87-0.87v23.54l-3.44,3.44v-8.82H19.26v16.37h22.61c0.29,0.82,0.76,1.57,1.39,2.21
	c0.32,0.32,0.68,0.6,1.06,0.84H19.26v16.37h25.37v-16.19c0.86,0.47,1.83,0.72,2.83,0.72c0.2,0,0.41-0.01,0.61-0.03V128.96z
	 M44.67,99.93c-1.54-1.54-1.54-4.04,0-5.59l27.77-27.77L57.86,52L45.79,64.07c-0.62,0.62-1.46,0.96-2.28,1.01H26.22
	c-1.9,0-3.44-1.54-3.44-3.44c0-1.9,1.54-3.44,3.44-3.44h15.71l22.24-22.24c0.61-0.56,1.46-0.98,2.35-0.98H83.7
	c1.9,0,3.44,1.54,3.44,3.44v17.79l-6.88-6.88v-7.46H69.99L99.03,70.9H87.85l-4.28-4.28L50.25,99.93
	C48.71,101.48,46.21,101.48,44.67,99.93z M64.29,71.92V61.23l4.4,4.4v1.89L64.29,71.92z M125.92,77.24H75.76l4.39-4.4h41.37V17.18
	H68.69v15.81h-2.16c-0.75,0-1.52,0.19-2.24,0.53V12.78h61.63V77.24z"/>
</svg>
