<?xml version="1.0" encoding="utf-8"?>
<!-- Generator: Adobe Illustrator 24.0.2, SVG Export Plug-In . SVG Version: 6.00 Build 0)  -->
<svg version="1.1" id="Laag_2" xmlns="http://www.w3.org/2000/svg" xmlns:xlink="http://www.w3.org/1999/xlink" x="0px" y="0px"
	 viewBox="0 0 141.73 141.73" style="enable-background:new 0 0 141.73 141.73;" xml:space="preserve">
<style type="text/css">
	.st0{fill:#007E48;}
</style>
<path class="st0" d="M67.06,38.88l-1.86,6.49l-4.9-6.49H67.06z M68.87,50.22l4.89,6.49l1.86-6.49H68.87z M60.26,28.2l-2.19,7.69
	l0.84,1.12h8L60.26,28.2z M51.76,27.53l4.9,6.49l1.85-6.49H51.76z M77.37,50.89l-2.2,7.69l0.84,1.12h8L77.37,50.89z M94.54,84.25
	l4.89,6.49l1.86-6.49H94.54z M85.98,72.9l4.9,6.49l1.86-6.49H85.98z M77.42,61.57l4.9,6.49l1.85-6.49H77.42z M141.73,0v141.73H0V0
	H141.73z M77.92,26.12c0,2.25,1.83,4.08,4.08,4.08c2.26,0,4.08-1.83,4.08-4.08c0-2.26-1.83-4.08-4.08-4.08
	C79.75,22.04,77.92,23.87,77.92,26.12z M73.61,42.73c-1.13,0-2.04,0.91-2.04,2.04c0,1.13,0.91,2.04,2.04,2.04h10.18
	c1.13,0,2.04-0.91,2.04-2.04v-8.21l8.12,8.12l-7.49,7.5c-0.42,0.42-0.68,1.01-0.68,1.65v12.84c0,1.29,1.05,2.34,2.34,2.34
	c1.29,0,2.34-1.05,2.34-2.34V54.8l10.09-10.09l2.54,2.54h6.63L92.5,30.02h6.09v4.43l4.08,4.08V27.98c0-1.13-0.91-2.04-2.04-2.04
	H90.44c-0.53,0-1.03,0.25-1.4,0.58l-6.66,6.66c-0.39,0.37-0.63,0.9-0.63,1.48v8.07H73.61z M91.73,45.24v-1.12l-2.61-2.61v6.34
	L91.73,45.24z M37.68,85.81h5.59v-2.81c0-1.54-1.25-2.8-2.8-2.8c-1.54,0-2.8,1.25-2.8,2.8V85.81z M37.85,121.12
	c0-4.32-3.5-7.82-7.82-7.82c-4.32,0-7.82,3.5-7.82,7.82c0,4.32,3.5,7.82,7.82,7.82C34.35,128.94,37.85,125.44,37.85,121.12z
	 M97.37,121.12c0-4.32-3.5-7.82-7.82-7.82c-4.32,0-7.82,3.5-7.82,7.82c0,4.32,3.5,7.82,7.82,7.82
	C93.87,128.94,97.37,125.44,97.37,121.12z M99.61,107.29v-3.76l1.19-0.9l2.24,2.98h5.58l3.33-11.52L91.58,67.06
	c-0.07,0.65-0.33,1.25-0.71,1.74l1.69,2.24h-8l-0.84-1.12l0.93-3.27v-8.79l-7.48-9.92h-2.01l0.3,0.4h-8l-0.85-1.12l2.19-7.69
	l2.39,3.17c0.35-0.41,0.81-0.73,1.33-0.92L60.36,25.66H48.33l34.82,46.18l-1.55,5.35l10.73,14.23l-2.7,2.05H79.47v13.82H45.61V86.74
	h-9.5l-12.19,0.89c-0.91,0.06-1.7,0.66-2.02,1.5l-5.66,14.85c-0.12,0.31-0.19,0.64-0.19,0.99l0,13.81c0,1.29,1.05,2.33,2.34,2.33
	h1.57c0-5.56,4.51-10.06,10.07-10.06c5.56,0,10.06,4.51,10.07,10.06h39.38c0-5.56,4.51-10.06,10.07-10.06
	c5.56,0,10.07,4.51,10.07,10.06h5.6l6.75-2.42v-11.41H99.61z M125.67,12.77H89.12v12.3c0.42-0.2,0.88-0.31,1.33-0.31h1.28v-9.38
	h31.34V48.4H98.52l-2.61,2.61h29.75V12.77z M94.47,73.57l-2.19,7.69l0.84,1.12h8L94.47,73.57z M101.68,93.72h8l-6.64-8.81l-2.2,7.69
	L101.68,93.72z M22.67,92.38l-3.77,9.94c-0.04,0.12-0.05,0.25-0.05,0.39c0,0.76,0.62,1.38,1.38,1.38c0.03,0,0.06,0,0.1,0l15.49-1.69
	V90.79l-12.32,0.9C23.1,91.74,22.78,92.02,22.67,92.38z M107.99,102.08l1.87-6.49h-6.77L107.99,102.08z"/>
</svg>
