<?xml version="1.0" encoding="utf-8"?>
<!-- Generator: Adobe Illustrator 24.0.2, SVG Export Plug-In . SVG Version: 6.00 Build 0)  -->
<svg version="1.1" id="Laag_2" xmlns="http://www.w3.org/2000/svg" xmlns:xlink="http://www.w3.org/1999/xlink" x="0px" y="0px"
	 viewBox="0 0 141.73 141.73" style="enable-background:new 0 0 141.73 141.73;" xml:space="preserve">
<style type="text/css">
	.st0{fill-rule:evenodd;clip-rule:evenodd;fill:#007E48;}
</style>
<path class="st0" d="M0,0v141.73h141.73V0H0z M12.3,115.93h49.96v4.74h-3.6v-2.37H12.3V115.93z M57.56,56.15l-3.17,7.75
	c-1.88,1.2-3.28,2.61-4.18,4.28c-0.67,0.37-1.6,0.74-2.56,0.93c-0.9,0.18-1.82,0.23-2.75,0.13c0.96-0.94,1.77-2.05,2.36-3.31
	c0,0,3.09-6.58,3.43-7.32c0.14-0.12,0.72-0.58,1.53-1.24c0.92-0.75,2.14-1.74,3.38-2.75c2.62-2.13,5.35-4.35,5.58-4.54
	c0.27-0.11,3.34-1.34,6.33-2.54L57.56,56.15z M69.12,48.79c0.16-0.07,1.29-0.56,2.79-1.22c0.23,0.41,0.49,0.94,0.76,1.56L65,55.71
	l-2.26,5.17c-2.21,0.68-4.87,1.51-5.82,1.81c0.85-1.96,2.09-4.84,2.3-5.32C59.85,56.82,68.7,49.16,69.12,48.79z M60.15,48.34
	l-2.78,2.26l-3.41,2.77l-4.89,3.98l-3.63,7.73c-0.69,1.47-1.71,2.67-2.92,3.57c-0.69,0.51-1.44,0.92-2.24,1.23
	c-2.06,0.79-4.4,0.87-6.6,0.07c1.35-1.12,2.45-2.52,3.19-4.17c0,0,2.96-6.54,3.33-7.36c0.4-0.31,3.49-2.65,6.25-4.74
	c1.23-0.94,2.4-1.82,3.23-2.46c0.69-0.52,1.15-0.87,1.24-0.94c0.31-0.11,3.35-1.22,5.93-2.15c1.88-0.68,3.52-1.28,3.63-1.32
	c0.19-0.03,0.55-0.06,1.04-0.07c0.68-0.02,1.6-0.04,2.67-0.03L60.15,48.34z M86.84,128.73h-31.8v-6.44h11.23V93.98H54.49
	c0-8.14,5.58-16.64,16.45-16.64c10.87,0,16.45,8.5,16.45,16.64H75.61v28.31h11.23V128.73z M128.86,118.29H83.23v2.37h-3.6v-4.74
	h49.24V118.29z M129.41,19.71c-4.96,11.24-15.46,30.07-18.28,33.26c-1.71,1.93-6.47,6.46-10.2,8.06
	c-6.11,2.63-16.19,6.46-16.19,6.46l-15.31,4.79l-10.11,2.89c0,0-5.59,1.8-7.34,2.27c-0.77,0.21-1.58-0.12-1.85-1.54
	c-0.28-1.43-0.02-3.66,0.55-5.19c0.8-2.13,4.09-5.38,7.34-6.38l6.18-1.81l2.58-0.8l10.48-4.87c0,0-0.93-3.81-2.2-7.14
	c-0.26-0.68-0.53-1.34-0.81-1.94c-0.16-0.35-0.33-0.69-0.51-1c-0.4-0.73-0.82-1.31-1.23-1.64c-0.19-0.15-0.38-0.26-0.57-0.29
	c0,0-4.51-0.13-8.03-0.13c-1.27,0-2.41,0.02-3.16,0.08c-0.37,0.03-0.64,0.06-0.79,0.1L54.12,47l-4.15,1.51l-1.82,1.38l-9.56,7.25
	l-3.54,7.82c-2.2,4.85-7.92,7-12.76,4.81l8.01-17.68c0.13-0.31,0.3-0.6,0.5-0.88c0.04-0.06,0.09-0.11,0.13-0.17
	c0.05-0.07,0.1-0.13,0.16-0.2c0.22-0.26,0.47-0.48,0.74-0.68l12.87-9.77c0.13-0.1,0.27-0.19,0.41-0.28c0.12-0.07,0.24-0.14,0.36-0.2
	c0.02-0.01,0.04-0.02,0.05-0.03c0.16-0.08,0.32-0.15,0.49-0.2c0,0,13.51-5.81,14.58-6.27c1.07-0.46,2.53-0.87,3.63-0.87
	c0.5,0,26.64-1.42,27.64-1.45c4.41-0.11,6.21-3.44,7.25-6.78c1.04-3.35,2.32-8.07,3.3-11.75h26.99V19.71z"/>
</svg>
