<?xml version="1.0" encoding="utf-8"?>
<!-- Generator: Adobe Illustrator 24.0.2, SVG Export Plug-In . SVG Version: 6.00 Build 0)  -->
<svg version="1.1" id="Layer_1" xmlns="http://www.w3.org/2000/svg" xmlns:xlink="http://www.w3.org/1999/xlink" x="0px" y="0px"
	 viewBox="0 0 141.73 141.73" style="enable-background:new 0 0 141.73 141.73;" xml:space="preserve">
<style type="text/css">
	.st0{fill:#007E48;}
</style>
<path class="st0" d="M46.86,97.66c-4.42,0-7.99,1.05-10.74,3.45c-0.35,0.3-0.38,0.83-0.08,1.18c0.1,0.12,0.23,0.19,0.37,0.24
	l0.1,2.09h0c0.01,0.18,0.07,0.35,0.19,0.5c0.17,0.2,0.4,0.3,0.64,0.3c0.19,0,0.38-0.07,0.54-0.2c2.48-2.1,5.07-2.79,8.98-2.79
	c3.9,0,7.56,1.2,10.05,3.3c0.16,0.13,0.35,0.2,0.54,0.2c0.24,0,0.47-0.1,0.64-0.3c0.12-0.14,0.18-0.32,0.19-0.5h0l0.1-2.09
	c0.14-0.04,0.27-0.12,0.37-0.24c0.3-0.35,0.27-0.87-0.08-1.18C55.92,99.21,51.28,97.66,46.86,97.66z M56.69,103.49
	c-2.67-1.75-6.16-2.74-9.83-2.74c-3.67,0-6.08,0.48-8.76,2.23l-0.06-1.26c2.52-1.79,5.2-2.4,8.82-2.4c3.62,0,7.38,1.12,9.89,2.91
	L56.69,103.49z"/>
<path class="st0" d="M46.86,113.89c-2.88,0-5.21,1.95-5.21,4.35c0,2.4,2.33,4.35,5.21,4.35c2.88,0,5.22-1.95,5.22-4.35
	C52.08,115.84,49.74,113.89,46.86,113.89z"/>
<path class="st0" d="M66.17,40.18c-5.65-1.57-10.19-1.48-19.31-1.48c-9.12,0-13.66-0.09-19.31,1.48
	c-5.65,1.57-11.19,4.35-11.19,17.04c0,8.84-0.02,15.85,1.41,20.88c1.46,5.13,4.66,12.95,12.75,12.95c2.81,0,5.57-0.1,8.09,0.15
	c2.52,0.25,2.91,0.69,3.03,1.41c0.16,0.94-1.07,1.16-2.34,2.02c-0.63,0.4-2.58,1.59-3.2,1.82c-0.43,0.16-0.67,0.62-0.53,1.05
	c0.1,0.31,0.36,0.51,0.66,0.56c0.13,0.02,0.26,0.01,0.39-0.03c1.23-0.41,3.07-1.76,3.63-2.11c1.61-1.01,3.45-1.71,6.6-1.71
	c4.24,0,6.27,1.48,8.41,3.05c0.93,0.68,1.89,1.39,3.04,1.98c0.12,0.06,0.25,0.09,0.38,0.09c0.3,0,0.59-0.16,0.74-0.45
	c0.21-0.41,0.05-0.91-0.36-1.12c-1.04-0.54-1.91-1.17-2.82-1.85c-0.58-0.42-1.21-0.88-1.84-1.28c-1.27-0.85-1.79-1.44-1.64-2.38
	c0.12-0.72,0.83-1.31,2-1.31c2.95,0.06,6.08,0.11,8.89,0.11c10.61,0,11.53-8.02,13-13.15c1.43-5.03,1.73-11.84,1.73-20.68
	C78.39,44.53,71.82,41.75,66.17,40.18z M25.66,85.78c-2.33-0.84-4.79-5.5-5.85-8.97c-1.43-5.03-0.93-18.32-0.61-22.67
	c0.33-4.35,4.68-3.65,5.05-0.28c0.9,8.2,1.92,15.92,4.36,25.22C29.71,83.3,27.93,86.6,25.66,85.78z M56.06,87.25
	c-3.55,1.25-6.25,1.45-9.19,1.45c-2.94,0-4.8-0.19-8.35-1.45c-2.13-0.75-2.08-2.37-0.97-5.06c1.11-2.69,4.12-8.69,5.79-11.06
	c1.25-1.79,2.05-1.69,3.53-1.69c1.48,0,3.13-0.1,4.38,1.69c1.66,2.38,4.68,8.38,5.79,11.06C58.14,84.88,58.18,86.5,56.06,87.25z
	 M62.83,47.01c-3.71-0.48-8.34-0.68-15.96-0.68c-7.63,0-11.17,0.24-14.88,0.72c-1.57,0.2-5.36,0.91-7.66,2.02
	c-0.31,0.15-0.64,0.22-0.97,0.22c-0.82,0-1.62-0.46-2-1.25c-0.54-1.1-0.08-2.43,1.03-2.97c2.73-1.33,6.78-2.14,9.04-2.43
	c3.91-0.51,7.62-0.75,15.45-0.75c7.83,0,12.62,0.21,16.53,0.71c2.25,0.29,5.51,0.92,8.23,2.24c1.1,0.54,1.56,1.87,1.03,2.97
	c-0.38,0.79-1.18,1.25-2,1.25c-0.33,0-0.66-0.07-0.97-0.22C67.39,47.72,64.4,47.22,62.83,47.01z M75.62,53.55
	c0.13,1.1,0.21,2.37,0.21,3.67c0,8.84-0.66,17.63-2.09,22.66c-1.06,3.47-2.65,6.42-5.65,7.41c-2.13,0.7-4.51-0.17-3.47-4.29
	c2.48-9.77,4.38-21.14,6.04-30.35C71.18,49.78,75.1,48.81,75.62,53.55z"/>
<path class="st0" d="M0,0v141.73h141.73V0H0z M46.86,129.22c-7.62,0-13.79-5.03-13.79-11.24c0-6.21,6.17-11.24,13.79-11.24
	c7.62,0,13.79,5.03,13.79,11.24C60.66,124.19,54.48,129.22,46.86,129.22z M81.33,63.65c-0.53,13.1-1.74,15.98-5.1,24.18
	c-2.01,4.9-4.17,6.06-5.36,9c-3.11,7.68-5.86,11.13-7.32,12.89c-1.45,1.76-2.82,2.64-4.51,0.44c-2.84-2.89-7.28-4.81-12.18-4.81
	c-4.9,0-9.33,1.93-12.18,4.81c-2.28,2.39-2.75,3.01-3.66,3.96c-0.9,0.95-2.07,1.48-4.02,1.69c-2.42,0.25-5.68,0.68-10.09,0.74
	c-3.52,0.05-4.24-1.42-4.41-2.48c-0.24-1.5-0.06-2.89,1.69-3.47c2.35-0.77,10.83-3.53,12.35-4.15c1.52-0.62,1.72-0.81,1.03-2.35
	c-0.84-1.9-1.92-4.3-3.45-7.38c-1.41-2.84-3.19-4.69-5.48-8.8c-4.3-7.74-5.2-12.13-5.74-24.26c-0.53-11.94-0.23-18.24,4.14-23.47
	c2.27-2.72,5.66-4.36,7.19-6.25c1.32-1.62,1.14-3.34,3.98-6.41c2.84-3.08,5.68-5.05,8.23-6.77c2.54-1.72,5.52-0.24,3.5,2.32
	c-2.14,2.71-3.82,4.52-5.12,6.33c-1.65,2.29,0.57,4.01,2.19,1.71c1.7-2.42,2.5-3.81,4.61-6.51c1.3-1.66,1.26-1.36,1.2-3.96
	c-0.02-0.92,0-0.43,0-3.08c0-2.66,1.29-5.61,4.54-5.61c3.11,0,4.41,2.4,4.41,5.06c0,2.66,0.02,2.72,0,3.64
	c-0.06,2.6-0.1,2.31,1.2,3.96c2.12,2.69,2.91,4.09,4.61,6.51c1.62,2.3,3.84,0.58,2.19-1.71c-1.3-1.81-2.98-3.62-5.12-6.33
	c-2.02-2.56,0.95-4.04,3.5-2.32c2.54,1.72,5.11,3.91,7.95,6.99c2.84,3.08,3.11,3.72,3.24,5.57c0.11,1.46,0.88,2.67,2.39,3.97
	c1.26,1.08,2.99,2.59,5.26,5.31C81.38,47.82,81.81,51.71,81.33,63.65z M128.96,36.36h-11.82v11.8h-11.79v-11.8H93.53v-11.8h11.82
	v-11.8h11.79v11.8h11.82V36.36z"/>
</svg>
