<?xml version="1.0" encoding="utf-8"?>
<!-- Generator: Adobe Illustrator 24.0.2, SVG Export Plug-In . SVG Version: 6.00 Build 0)  -->
<svg version="1.1" id="Laag_1" xmlns="http://www.w3.org/2000/svg" xmlns:xlink="http://www.w3.org/1999/xlink" x="0px" y="0px"
	 viewBox="0 0 141.73 141.73" style="enable-background:new 0 0 141.73 141.73;" xml:space="preserve">
<style type="text/css">
	.st0{fill-rule:evenodd;clip-rule:evenodd;fill:#007E48;}
</style>
<path class="st0" d="M94.46,93.08l7.8,14.03c-3.65-2.87-13.95-11.32-13.95-11.32L94.46,93.08z M141.73,0v141.73H0V0H141.73z
	 M82.46,53.73c0.49,2.58,2.74,4.45,5.36,4.45c0.34,0,0.68-0.03,1.02-0.09c1.43-0.27,2.68-1.08,3.5-2.29
	c0.82-1.21,1.13-2.66,0.86-4.09c-0.49-2.58-2.74-4.45-5.36-4.45c-0.34,0-0.68,0.03-1.02,0.1c-1.43,0.27-2.68,1.08-3.5,2.29
	C82.49,50.84,82.18,52.29,82.46,53.73z M82.29,61.63l14.48,25.94l9.65-4.35l7.11,14.12c0.58,1.19,1.77,1.92,3.09,1.92
	c0.53,0,1.04-0.12,1.52-0.36c0.83-0.41,1.44-1.11,1.74-1.98c0.3-0.87,0.23-1.81-0.18-2.64l-8.58-17.03
	c-0.55-1.24-1.76-1.98-3.12-1.98c-0.49,0-0.96,0.1-1.41,0.3l-11.77,5.3l-0.25-1.46l11.91-5.38c0.74-0.34,1.3-0.94,1.59-1.7
	s0.26-1.58-0.07-2.32c-0.49-1.09-1.58-1.79-2.77-1.79c-0.43,0-0.85,0.09-1.25,0.27l-10.46,4.73l-1.66-9.77
	c-0.47-2.47-2.63-4.27-5.14-4.27c-0.33,0-0.65,0.03-0.98,0.09c-1.38,0.26-2.57,1.04-3.36,2.19C82.36,61.52,82.33,61.57,82.29,61.63z
	 M60.91,21.73c2.84,0.88,5.86-0.72,6.73-3.56c0.88-2.84-0.72-5.86-3.56-6.73c-2.84-0.88-5.85,0.72-6.73,3.56
	C56.47,17.84,58.06,20.85,60.91,21.73z M36.74,66.07c0.48,1.65,2.2,2.6,3.85,2.12l15.87-4.59c1.65-0.48,2.6-2.2,2.12-3.85l-0.1-0.45
	l0.85,1.88l-0.6,16.12c-0.06,1.72,1.28,3.16,2.99,3.22c1.72,0.07,3.16-1.27,3.22-2.99l0.63-16.85c-0.01-0.4-0.09-1-0.27-1.39
	l-6.44-14.32l1.58-5.14c0.35,0.66,0.96,1.14,1.64,1.34l10.87,2.92l-1.65,6.61c-0.1,0.4-0.04,0.83,0.16,1.19l21.55,38.62l-7.19,3.16
	c-3.41-2.87-7.42-6.29-12.24-10.48c-0.69-0.59-1.72-0.52-2.31,0.16c-0.59,0.69-0.52,1.72,0.16,2.31
	c19.23,16.71,25.74,21.4,32.88,27.12c0.31,0.35,0.68,0.64,1.09,0.88c0.19,0.15,0.41,0.25,0.63,0.3c0.42,0.16,0.87,0.26,1.33,0.28
	c2.45,0.13,4.54-1.75,4.67-4.19c0.13-2.45-1.75-4.54-4.2-4.67c-0.89-0.05-1.74,0.18-2.46,0.59c-1.75-3.15-4.64-8.31-7.95-14.25
	l6.86-3.02c0.73-0.33,1.07-1.18,0.74-1.92c-0.32-0.73-1.18-1.06-1.92-0.74l-7.11,3.13L74.65,50.88c0.14-0.58,0.88-3.52,1.56-6.25
	c0.92-0.22,1.69-0.91,1.96-1.89c0.38-1.42-0.46-2.89-1.88-3.27l-11.25-3.02l-1.57-6.38l0.22-0.72c0.8-2.59-0.65-5.33-3.24-6.13
	c-2.59-0.8-5.33,0.65-6.13,3.24l-5.17,16.79c-0.24,0.76-0.26,1.61-0.13,2.35l2.95,12.83l-13.09,3.78
	C37.22,62.69,36.27,64.42,36.74,66.07z M85.04,85.79c0.47,2.47,2.63,4.27,5.14,4.27c0.28,0,0.58-0.05,0.88-0.11l-7.65-13.7
	L85.04,85.79z M124.67,127.97h-17.66v-11.63H92.77v-11.63H78.53V93.09H64.28V81.46H50.04V69.83H35.8V58.21H17.06v2.5H33.3v11.63
	h14.24v11.63h14.24v11.63h14.24v11.63h14.24v11.63h14.24v11.63h20.16V127.97z"/>
</svg>
