<?xml version="1.0" encoding="utf-8"?>
<!-- Generator: Adobe Illustrator 24.0.2, SVG Export Plug-In . SVG Version: 6.00 Build 0)  -->
<svg version="1.1" xmlns="http://www.w3.org/2000/svg" xmlns:xlink="http://www.w3.org/1999/xlink" x="0px" y="0px"
	 viewBox="0 0 141.7 179.8" style="enable-background:new 0 0 141.7 179.8;" xml:space="preserve">
<style type="text/css">
	.st0{fill-rule:evenodd;clip-rule:evenodd;fill:#FFFFFF;}
	.st1{fill-rule:evenodd;clip-rule:evenodd;fill:#D0043C;}
	.st2{fill:#FFFFFF;}
	.st3{fill:#1D1D1B;}
	.st4{font-family:'Arial-BoldMT';}
	.st5{font-size:30.4421px;}
</style>
<g id="Laag_2">
	<rect x="0" class="st0" width="141.8" height="141.8"/>
</g>
<g id="Laag_1">
	<title>F-NL-003_ blusleiding-S</title>
	<path class="st1" d="M62.8,55.5c-9,0-16.4,7.4-16.4,16.6s7.3,16.6,16.4,16.6c9,0,16.4-7.4,16.4-16.6c0,0,0,0,0-0.1
		C79.1,62.9,71.8,55.5,62.8,55.5z"/>
	<path class="st1" d="M0,0v179.8h141.8V0H0z M100.4,38.4c2.6,1.4,6.7,5.1,9.6,11.8s4.3,9.9,7.1,14.2s4.2,6.4,7.1,8.3
		c2.9,1.9,6,3.5,6,3.5c-2.5,0.8-5,1.2-7.6,1.1c-3.7-0.3-9.9-2-13.6-6.7c-3.7-4.6-7.1-10.3-8.2-16.2s-1.9-8.7-3.1-11
		c-1.5-3-5.2-5.8-5.2-5.8S97.8,37,100.4,38.4L100.4,38.4z M62.8,96.4c-8.5,0-16.3-4.5-20.6-11.9h-8v8.8H11.3V83h12.6V61.2H11.3V50.8
		h22.8v8.9h8c6.7-11.6,21.5-15.4,32.9-8.6s15.2,21.8,8.5,33.4C79.2,91.9,71.3,96.4,62.8,96.4z M91.9,95.2c-4.5-2.7-6.7-2.2-6.7-2.2
		s4-4.7,10-4.7s8.7,2.7,11.1,5.2c2.4,2.4,7.6,9,13.1,11.6c6.6,3.2,10.7,3.5,10.7,3.5c-3.2,3.2-7.4,5-11.9,5c-7.4,0-11.4-2-16.7-8.1
		S96.4,97.9,91.9,95.2L91.9,95.2z M130.4,132.3c0,0-8.7,0.9-15.6-1c-6.9-1.9-12.3-6.5-14.7-9.9s-3.7-11.8-3.7-11.8
		s10.6,8.8,20.4,8.5c9.8-0.3,13.5-2.2,13.5-2.2V132.3z M130.4,101.3c0,0-13.7-2.5-22.2-10.7s-9.8-12.3-10.9-16.7
		c-1.1-4.4-1.1-12.4-1.1-12.4s5.9,9.2,12,14.1s10.6,7.5,15.2,8.6c2.3,0.6,4.6,0.9,7,0.7L130.4,101.3z M130.4,69
		c-3.8-1.8-7.2-4.6-9.6-8.1c-4.2-6-7.3-10.5-7.3-18.9s1.8-11.8,1.8-11.8s1.8,8.2,5.5,14.4s5.8,6.5,6.8,7.1c0.9,0.5,1.8,0.9,2.8,1V69
		z"/>
	<g>
		<rect x="3.5" y="143.9" class="st2" width="134.6" height="32.4"/>
		<text transform="matrix(0.9855 0 0 1 60.7402 170.9943)" class="st3 st4 st5">S</text>
	</g>
</g>
</svg>
