<?xml version="1.0" encoding="utf-8"?>
<!-- Generator: Adobe Illustrator 24.0.2, SVG Export Plug-In . SVG Version: 6.00 Build 0)  -->
<svg version="1.1" xmlns="http://www.w3.org/2000/svg" xmlns:xlink="http://www.w3.org/1999/xlink" x="0px" y="0px"
	 viewBox="0 0 141.7 177.2" style="enable-background:new 0 0 141.7 177.2;" xml:space="preserve">
<style type="text/css">
	.st0{fill:#FFFFFF;}
	.st1{fill-rule:evenodd;clip-rule:evenodd;fill:#D0043C;}
	.st2{fill:#1D1D1B;}
</style>
<g id="Laag_2">
	<rect x="0" y="0" class="st0" width="141.8" height="177.2"/>
</g>
<g id="Laag_1">
	<title>F-NL-003_ blusleiding</title>
	<path class="st1" d="M62.8,54.7c-9,0-16.4,7.3-16.4,16.4s7.3,16.4,16.4,16.4c9,0,16.4-7.3,16.4-16.4c0,0,0,0,0,0
		C79.1,62,71.8,54.7,62.8,54.7z"/>
	<path class="st1" d="M0,0v177.2h141.8V0H0z M100.4,37.8c2.6,1.4,6.7,5,9.6,11.6s4.3,9.8,7.1,14s4.2,6.3,7.1,8.2s6,3.5,6,3.5
		c-2.5,0.8-5,1.2-7.6,1.1c-3.7-0.3-9.9-2-13.6-6.6s-7.1-10.2-8.2-16s-1.9-8.5-3.1-10.8c-1.5-3-5.2-5.8-5.2-5.8S97.8,36.5,100.4,37.8
		L100.4,37.8z M62.8,95c-8.5,0-16.3-4.4-20.6-11.7h-8V92H11.3V81.7h12.6V60.3H11.3V50.1h22.8v8.7h8c6.7-11.4,21.5-15.2,32.9-8.5
		s15.2,21.5,8.5,32.9C79.2,90.5,71.3,95,62.8,95z M91.9,93.8c-4.5-2.6-6.7-2.1-6.7-2.1s4-4.7,10-4.7s8.7,2.7,11.1,5.1
		s7.6,8.9,13.1,11.5c6.6,3.1,10.7,3.4,10.7,3.4c-3.2,3.1-7.4,4.9-11.9,4.9c-7.4,0-11.4-2-16.7-7.9S96.4,96.5,91.9,93.8L91.9,93.8z
		 M130.4,130.4c0,0-8.7,0.8-15.6-1c-6.9-1.8-12.3-6.4-14.7-9.8S96.5,108,96.5,108s10.6,8.7,20.4,8.4s13.5-2.2,13.5-2.2V130.4z
		 M130.4,99.8c0,0-13.7-2.5-22.2-10.5s-9.8-12.1-10.9-16.5s-1.1-12.2-1.1-12.2s5.9,9.1,12,13.8s10.6,7.4,15.2,8.4
		c2.3,0.6,4.6,0.9,7,0.7L130.4,99.8z M130.4,68c-3.8-1.8-7.2-4.5-9.6-8c-4.2-5.9-7.3-10.4-7.3-18.6s1.8-11.6,1.8-11.6
		s1.8,8.1,5.5,14.2s5.8,6.4,6.8,7c0.9,0.5,1.8,0.9,2.8,1V68z"/>
	<rect x="3.5" y="141.8" class="st0" width="134.6" height="31.9"/>
	<path class="st2" d="M41.6,147h7.9c1.4,0,2.8,0.1,4.1,0.4c1.2,0.4,2.4,1.1,3.2,2c0.9,1,1.6,2.2,2,3.5c0.5,1.6,0.7,3.4,0.7,5.1
		c0,1.5-0.2,3.1-0.7,4.6c-0.5,1.4-1.2,2.7-2.3,3.8c-0.9,0.8-1.9,1.4-3,1.7c-1.2,0.3-2.5,0.5-3.8,0.4h-8.2V147z M45.9,150.6v14.2h3.2
		c0.9,0,1.8,0,2.6-0.2c0.6-0.1,1.3-0.5,1.8-0.9c0.6-0.6,0.9-1.3,1.1-2.1c0.3-1.3,0.5-2.6,0.4-3.9c0-1.3-0.1-2.6-0.4-3.8
		c-0.2-0.8-0.7-1.5-1.2-2.1c-0.6-0.5-1.3-0.9-2-1c-1.2-0.2-2.4-0.2-3.6-0.2L45.9,150.6z"/>
	<path class="st2" d="M63.3,147h8.6c1.3,0,2.5,0,3.8,0.2c0.8,0.1,1.6,0.4,2.2,0.9c0.7,0.5,1.2,1.1,1.7,1.8c0.4,0.8,0.7,1.6,0.7,2.5
		c0,2-1.2,3.8-3,4.7c1.2,0.3,2.2,1,3,2c0.7,0.9,1.1,2.1,1.1,3.2c0,1-0.2,2-0.7,2.9c-0.4,0.9-1.1,1.6-1.9,2.2c-0.9,0.6-1.9,0.9-2.9,1
		c-0.7,0.1-2.5,0.1-5.2,0.1h-7.3V147z M67.6,150.6v5h2.8c1.7,0,2.7,0,3.2-0.1c0.7,0,1.3-0.3,1.8-0.8c0.4-0.5,0.7-1.1,0.6-1.7
		c0-0.6-0.2-1.2-0.6-1.6c-0.4-0.4-1-0.7-1.6-0.8c-0.4,0-1.7-0.1-3.7-0.1L67.6,150.6z M67.6,159.1v5.7h4c1,0,2,0,3-0.1
		c0.6-0.1,1.2-0.4,1.6-0.9c0.4-0.5,0.6-1.2,0.6-1.8c0-0.6-0.1-1.2-0.5-1.6c-0.3-0.5-0.8-0.8-1.4-1c-1.3-0.3-2.6-0.4-3.8-0.3
		L67.6,159.1z"/>
	<path class="st2" d="M85,168.5v-21.3h4.3v17.7h10.8v3.6L85,168.5z"/>
</g>
</svg>
