<?xml version="1.0" encoding="utf-8"?>
<!-- Generator: Adobe Illustrator 24.0.2, SVG Export Plug-In . SVG Version: 6.00 Build 0)  -->
<svg version="1.1" xmlns="http://www.w3.org/2000/svg" xmlns:xlink="http://www.w3.org/1999/xlink" x="0px" y="0px"
	 viewBox="0 0 141.7 179.1" style="enable-background:new 0 0 141.7 179.1;" xml:space="preserve">
<style type="text/css">
	.st0{fill:#FFFFFF;}
	.st1{fill-rule:evenodd;clip-rule:evenodd;fill:#D0043C;}
	.st2{fill:#1D1D1B;}
	.st3{font-family:'Arial-BoldMT';}
	.st4{font-size:28.2956px;}
</style>
<g id="Laag_2">
	<rect x="0" class="st0" width="141.8" height="140.3"/>
</g>
<g id="Laag_1">
	<title>F-NL-003_ blusleiding-F PUUR</title>
	<path class="st1" d="M62.8,55.3c-9,0-16.4,7.4-16.4,16.5s7.3,16.5,16.4,16.5s16.4-7.4,16.4-16.5c0,0,0,0,0-0.1
		C79.1,62.6,71.8,55.3,62.8,55.3z"/>
	<path class="st1" d="M0,0v179h141.8V0H0z M100.4,38.2c2.6,1.4,6.7,5.1,9.6,11.8s4.3,9.9,7.1,14.1s4.2,6.4,7.1,8.2s6,3.5,6,3.5
		c-2.5,0.8-5,1.2-7.6,1.1c-3.7-0.3-9.9-2-13.6-6.6s-7.1-10.3-8.2-16.1s-1.9-8.6-3.1-10.9c-1.5-3-5.2-5.8-5.2-5.8
		S97.8,36.9,100.4,38.2L100.4,38.2z M62.8,96c-8.5,0-16.3-4.5-20.6-11.8h-8V93H11.3V82.6h12.6V61H11.3V50.6h22.8v8.8h8
		c6.7-11.5,21.5-15.4,32.9-8.6s15.2,21.7,8.5,33.2C79.2,91.5,71.3,96,62.8,96z M91.9,94.8c-4.5-2.7-6.7-2.2-6.7-2.2s4-4.7,10-4.7
		s8.7,2.7,11.1,5.1s7.6,9,13.1,11.6c6.6,3.2,10.7,3.5,10.7,3.5c-3.2,3.2-7.4,4.9-11.9,5c-7.4,0-11.4-2-16.7-8S96.4,97.5,91.9,94.8
		L91.9,94.8z M130.4,131.7c0,0-8.7,0.8-15.6-1s-12.3-6.5-14.7-9.9c-2.4-3.4-3.7-11.7-3.7-11.7s10.6,8.8,20.4,8.4
		c9.8-0.3,13.5-2.2,13.5-2.2V131.7z M130.4,100.8c0,0-13.7-2.5-22.2-10.6S98.4,78,97.3,73.6s-1.1-12.4-1.1-12.4s5.9,9.2,12,14
		c6.1,4.8,10.6,7.5,15.2,8.5c2.3,0.6,4.6,0.9,7,0.7L130.4,100.8z M130.4,68.7c-3.8-1.8-7.2-4.6-9.6-8.1c-4.2-6-7.3-10.5-7.3-18.8
		s1.8-11.7,1.8-11.7s1.8,8.2,5.5,14.3s5.8,6.5,6.8,7c0.9,0.5,1.8,0.9,2.8,1V68.7z"/>
	<g>
		<rect x="3.5" y="143.3" class="st0" width="134.6" height="32.2"/>
		<text transform="matrix(0.9896 0 0 1 19.0801 170.2882)" class="st2 st3 st4">F PUUR</text>
	</g>
</g>
</svg>
