<?xml version="1.0" encoding="utf-8"?>
<!-- Generator: Adobe Illustrator 24.0.2, SVG Export Plug-In . SVG Version: 6.00 Build 0)  -->
<svg version="1.1" xmlns="http://www.w3.org/2000/svg" xmlns:xlink="http://www.w3.org/1999/xlink" x="0px" y="0px"
	 viewBox="0 0 141.7 141.7" style="enable-background:new 0 0 141.7 141.7;" xml:space="preserve">
<style type="text/css">
	.st0{fill:#FFFFFF;}
	.st1{fill-rule:evenodd;clip-rule:evenodd;}
	.st2{fill-rule:evenodd;clip-rule:evenodd;fill:#D0043C;}
</style>
<g id="Laag_2">
	<rect y="0" class="st0" width="141.7" height="141.7"/>
</g>
<g id="Laag_1">
	<path d="M18.9,19.5h-1v103.9h38.2v-2c0,0-34.3,0-36.2,0c0-1.9,0-97.9,0-99.9c1.9,0,36.2,0,36.2,0v-2C56.1,19.5,18.9,19.5,18.9,19.5
		z"/>
	<polygon class="st1" points="123.9,58.7 41,58.7 41,37.8 39,37.8 39,105.1 41,105.1 41,84.1 123.9,84.1 	"/>
	<rect x="41" y="60.7" class="st2" width="80.9" height="21.4"/>
	<path d="M0,0v141.7h141.7V0H0z M4.8,4.8h132.1v132.1H4.8V4.8z"/>
</g>
</svg>
