<svg id="Laag_1" data-name="Laag 1" xmlns="http://www.w3.org/2000/svg" viewBox="0 0 141.73 40.77"><defs><style>.cls-1{fill:#0092d4;}.cls-2{fill:#fff;}</style></defs><title>F-NL-033_bluswaterriool</title><path class="cls-1" d="M56.93,35.21c-11.52,5.12-22.39,3.9-32.34-3.76-3.48-2.5-10.15-3-14.23.24a31.65,31.65,0,0,1-9.19,5.14A1.2,1.2,0,1,0,2,39.09a33.92,33.92,0,0,0,9.9-5.51c3.15-2.5,8.56-2.17,11.29-.2C34.16,41.85,46.2,43,59,36.92A21,21,0,0,1,56.93,35.21Z" transform="translate(0)"/><path class="cls-1" d="M140,36.59a31.67,31.67,0,0,1-9.2-5.13c-4.07-3.24-10.75-2.74-14.18-.27-9.8,7.54-20.46,8.87-31.8,4a20.32,20.32,0,0,1-2.09,1.72c12.61,5.82,24.46,4.54,35.32-3.82,2.7-1.94,8.11-2.28,11.25.22a34.18,34.18,0,0,0,9.9,5.52,1.2,1.2,0,1,0,.8-2.27Z" transform="translate(0)"/><path class="cls-1" d="M52.27,28.68c-.74.33-1.53.64-2.43.94-2.48.85-8.47.83-11.06,0a42.56,42.56,0,0,1-9-4.31l-3.07-1.75c-6.39-3.2-13.56-1.56-15.61-1-3.61,1-6.75,3.1-10.19,5.52a1.2,1.2,0,0,0,1.38,2c3.86-2.72,6.52-4.35,9.47-5.18,3.78-1.07,9.4-1.42,13.83.79l3,1.71A44.46,44.46,0,0,0,38,31.88c3.07,1,9.66,1,12.59,0a29.16,29.16,0,0,0,2.77-1.09A19.51,19.51,0,0,1,52.27,28.68Z" transform="translate(0)"/><path class="cls-1" d="M140.59,28.08c-3.44-2.42-6.59-4.5-10.19-5.52-2.05-.58-9.22-2.22-15.56,1l-3.12,1.78a42,42,0,0,1-9,4.3,24.27,24.27,0,0,1-11,0c-.83-.28-1.57-.57-2.26-.87a18.85,18.85,0,0,1-1.13,2.13c.8.35,1.65.69,2.62,1,2.92,1,9.51,1,12.58,0a44.46,44.46,0,0,0,9.42-4.51l3-1.74c4.38-2.18,10-1.83,13.79-.76,2.94.83,5.6,2.46,9.46,5.18a1.2,1.2,0,0,0,1.38-2Z" transform="translate(0)"/><path class="cls-1" d="M50.49,20.66l-2,1.15a10.52,10.52,0,0,1-9-.22l-3.17-1.77a58,58,0,0,0-10.77-5.15C21.29,13.13,15,13.48,11,14.45a35.3,35.3,0,0,0-10.1,4.1,1.21,1.21,0,0,0,1.17,2.11,33.14,33.14,0,0,1,9.5-3.87c4.43-1.07,10-1,13.27.15a56.42,56.42,0,0,1,10.37,5l3.24,1.81a12.83,12.83,0,0,0,11.25.22l1-.61A21.37,21.37,0,0,1,50.49,20.66Z" transform="translate(0)"/><path class="cls-1" d="M140.58,18.32a35,35,0,0,0-10.1-4.11c-4-1-10.31-1.31-14.64.23a57.67,57.67,0,0,0-10.77,5.14l-3.17,1.77a10.54,10.54,0,0,1-9,.22l-1.67-1A21.06,21.06,0,0,1,91,23.24l.74.45A12.87,12.87,0,0,0,103,23.48l3.23-1.82a55.81,55.81,0,0,1,10.37-4.95c3.27-1.16,8.85-1.23,13.27-.16a33,33,0,0,1,9.5,3.87,1.2,1.2,0,1,0,1.17-2.1Z" transform="translate(0)"/><path class="cls-1" d="M53.82,9.23A44,44,0,0,0,47.34,13c-2.62,1.84-3.94,1.82-6.43-.06C31.39,5.77,15.81,1.17.61,9.82A1.2,1.2,0,0,0,1.8,11.91c14.19-8.08,28.76-3.76,37.66,3,3.35,2.53,5.77,2.56,9.26.1,1.05-.73,2.11-1.41,3.18-2A20.76,20.76,0,0,1,53.82,9.23Z" transform="translate(0)"/><path class="cls-1" d="M141.12,10c-15.2-8.65-30.78-4-40.3,3.14C98.33,15,97,15,94.39,13.19a39.18,39.18,0,0,0-6.55-4.08,20,20,0,0,1,2,3.85A35.9,35.9,0,0,1,93,15.13c3.53,2.48,6,2.45,9.31-.08,8.9-6.73,23.47-11,37.65-3A1.2,1.2,0,0,0,141.12,10Z" transform="translate(0)"/><path class="cls-2" d="M90,20.39A19.14,19.14,0,1,1,70.87,1.25,19.13,19.13,0,0,1,90,20.39Z" transform="translate(0)"/><path class="cls-1" d="M70.87,40.77A20.39,20.39,0,1,1,91.25,20.39,20.4,20.4,0,0,1,70.87,40.77Zm0-38.27A17.89,17.89,0,1,0,88.75,20.39,17.9,17.9,0,0,0,70.87,2.5Z" transform="translate(0)"/><path class="cls-1" d="M72.63,20.39,84.5,8.51a1.24,1.24,0,1,0-1.76-1.76L70.87,18.62,59,6.75a1.24,1.24,0,0,0-1.76,1.76L69.1,20.39,57.23,32.26A1.25,1.25,0,0,0,59,34L70.87,22.15,82.74,34a1.25,1.25,0,1,0,1.76-1.77Z" transform="translate(0)"/></svg>