<svg xmlns="http://www.w3.org/2000/svg" viewBox="0 0 141.73 141.73"><defs><style>.cls-1{fill:#d0043c;}.cls-2{fill:#fff;}</style></defs><title>F-NL-030_water-reduceer_drukbegrenzer</title><g id="Layer_1" data-name="Layer 1"><rect class="cls-1" width="141.73" height="141.73"/><path class="cls-2" d="M70.87,12c-16.58,0-30,12.64-30,28.23A27.56,27.56,0,0,0,51.94,62.13H89.8a27.6,27.6,0,0,0,11.08-21.91c0-15.59-13.44-28.23-30-28.23Z"/><path class="cls-1" d="M70.87,15.25c14.75,0,26.75,11.21,26.75,25a24.21,24.21,0,0,1-9,18.65H53.08a24.19,24.19,0,0,1-9-18.65c0-13.76,12-25,26.76-25"/><path class="cls-2" d="M70.87,21.85a.82.82,0,0,1-.82-.82V17a.82.82,0,1,1,1.63,0v4A.82.82,0,0,1,70.87,21.85Z"/><path class="cls-2" d="M58.07,27.43a.81.81,0,0,1-1.15,0L54.08,24.6a.82.82,0,1,1,1.16-1.15l2.83,2.83A.81.81,0,0,1,58.07,27.43Z"/><path class="cls-2" d="M83.66,27.43a.81.81,0,0,1,0-1.15l2.83-2.83a.82.82,0,0,1,1.16,1.15l-2.84,2.83A.81.81,0,0,1,83.66,27.43Z"/><path class="cls-2" d="M89.25,40.22a.81.81,0,0,1,.81-.81h4a.82.82,0,1,1,0,1.63h-4A.81.81,0,0,1,89.25,40.22Z"/><path class="cls-2" d="M46.84,40.22a.82.82,0,0,1,.81-.81h4a.82.82,0,1,1,0,1.63h-4A.82.82,0,0,1,46.84,40.22Z"/><path class="cls-2" d="M64.92,49.46a6.11,6.11,0,0,0,11.8,3.21c.88-3.26,2.41-32.11,2.41-32.11S65.81,46.2,64.92,49.46Zm8.88,2.42a3.09,3.09,0,1,1-2.17-3.79A3.09,3.09,0,0,1,73.8,51.88Z"/><path class="cls-2" d="M125.7,109.7V69.38h7.24V61.29H117.61v6.38H99.51L83.07,76H58.66L42.23,67.67H24.13V61.29H8.79v8.09H16v46.7H8.79v8.09H24.13v-6.38h18.1l16.43-8.34H83.07l16.44,8.34h18.1v6.38h15.33v-8.09H125.7V109.7Zm-24.26,0L85,101.36H56.73L40.29,109.7H24.13V75.76H40.29L56.73,84.1H85l16.44-8.34h16.17V109.7Z"/></g></svg>