<svg id="Laag_1" data-name="Laag 1" xmlns="http://www.w3.org/2000/svg" viewBox="0 0 141.73 177.16"><defs><style>.cls-1,.cls-3{fill:#d0043c;}.cls-1{fill-rule:evenodd;}.cls-2{fill:#fff;}.cls-4{fill:#1d1d1b;}</style></defs><title>F-NL-002 Bovengrondse brandkraan-HD</title><path class="cls-1" d="M0,0V177.16H141.73V0ZM100.4,37.84c2.58,1.36,6.69,5,9.63,11.63s4.29,9.77,7.11,14,4.16,6.31,7.11,8.16,6,3.46,6,3.46a22.45,22.45,0,0,1-7.6,1.12c-3.68-.25-9.93-2-13.6-6.56s-7.11-10.14-8.21-15.95-1.93-8.53-3.11-10.82c-1.54-3-5.22-5.75-5.22-5.75S97.83,36.48,100.4,37.84ZM43.1,11.34l9.75,5.55v6.45H33.21V17ZM63.53,130.41H22.28v-6.93H63.53ZM73.84,58.55H59V52.87H52.85v67.89H33V26.08H52.85V36.94H59V31.26H73.84v6.68H65.68V51.87h8.16ZM91.9,93.85c-4.47-2.63-6.74-2.13-6.74-2.13s4-4.68,10-4.68,8.69,2.71,11.13,5.09,7.63,8.89,13.08,11.47c6.58,3.12,10.72,3.36,10.72,3.36a17,17,0,0,1-11.86,4.92c-7.39,0-11.45-2-16.65-7.95S96.37,96.47,91.9,93.85Zm38.49,36.54s-8.68.84-15.58-1-12.35-6.39-14.7-9.75S96.45,108,96.45,108s10.64,8.69,20.39,8.36,13.55-2.18,13.55-2.18Zm0-30.58s-13.74-2.48-22.2-10.51-9.8-12.12-10.9-16.45S96.18,60.6,96.18,60.6s5.9,9.09,12,13.85,10.64,7.38,15.22,8.44a22.87,22.87,0,0,0,7,.74Zm0-31.76a24.13,24.13,0,0,1-9.59-8c-4.19-5.89-7.35-10.36-7.35-18.64s1.82-11.58,1.82-11.58,1.8,8.12,5.53,14.16,5.77,6.43,6.8,6.95a7.29,7.29,0,0,0,2.79,1Z"/><path class="cls-2" d="M42.91,63.35c-16.57,0-30,12.63-30,28.21A27.52,27.52,0,0,0,24,113.44H61.82A27.55,27.55,0,0,0,72.89,91.56c0-15.58-13.42-28.21-30-28.21Z"/><path class="cls-3" d="M42.91,66.6c14.73,0,26.73,11.2,26.73,25a24.22,24.22,0,0,1-9,18.63H25.13a24.19,24.19,0,0,1-9-18.63c0-13.76,12-25,26.74-25"/><path class="cls-2" d="M42.91,73.2a.82.82,0,0,1-.82-.82v-4a.82.82,0,1,1,1.63,0v4A.82.82,0,0,1,42.91,73.2Z"/><path class="cls-2" d="M30.12,78.78a.83.83,0,0,1-1.15,0l-2.84-2.84a.82.82,0,0,1,1.16-1.15l2.83,2.84A.81.81,0,0,1,30.12,78.78Z"/><path class="cls-2" d="M55.68,78.78a.84.84,0,0,1,0-1.16l2.84-2.83a.81.81,0,0,1,1.15,0,.82.82,0,0,1,0,1.15l-2.83,2.84A.84.84,0,0,1,55.68,78.78Z"/><path class="cls-2" d="M61.27,91.56a.82.82,0,0,1,.82-.82h4a.82.82,0,0,1,.82.82.82.82,0,0,1-.82.81h-4A.81.81,0,0,1,61.27,91.56Z"/><path class="cls-2" d="M18.9,91.56a.82.82,0,0,1,.81-.82h4a.82.82,0,0,1,.81.82.81.81,0,0,1-.81.81h-4A.81.81,0,0,1,18.9,91.56Z"/><path class="cls-2" d="M37,100.79A6.1,6.1,0,1,0,48.75,104c.89-3.25,2.41-32.08,2.41-32.08S37.85,97.53,37,100.79Zm8.87,2.41a3.09,3.09,0,1,1-2.17-3.79A3.09,3.09,0,0,1,45.84,103.2Z"/><rect class="cls-2" x="3.54" y="141.82" width="134.64" height="31.89"/><path class="cls-4" d="M50.5,168.53V147.06h4.34v8.45h8.5v-8.45h4.33v21.47H63.34v-9.39h-8.5v9.39Z"/><path class="cls-4" d="M72.14,147.06h7.92a15.65,15.65,0,0,1,4.09.41,7.17,7.17,0,0,1,3.24,2,9.26,9.26,0,0,1,2,3.48,15.78,15.78,0,0,1,.7,5.07,14.09,14.09,0,0,1-.66,4.57,9.34,9.34,0,0,1-2.3,3.8,7.6,7.6,0,0,1-3,1.71,13.27,13.27,0,0,1-3.84.45H72.14Zm4.34,3.63v14.23h3.23a11.49,11.49,0,0,0,2.62-.21,3.88,3.88,0,0,0,1.75-.89,4.45,4.45,0,0,0,1.14-2.08,14.08,14.08,0,0,0,.44-3.93,12.91,12.91,0,0,0-.44-3.82A4.86,4.86,0,0,0,84,151.91a4.08,4.08,0,0,0-2-1,19.15,19.15,0,0,0-3.56-.21Z"/></svg>