<?xml version="1.0" encoding="utf-8"?>
<!-- Generator: Adobe Illustrator 24.0.2, SVG Export Plug-In . SVG Version: 6.00 Build 0)  -->
<svg version="1.1" xmlns="http://www.w3.org/2000/svg" xmlns:xlink="http://www.w3.org/1999/xlink" x="0px" y="0px"
	 viewBox="0 0 141.7 141.7" style="enable-background:new 0 0 141.7 141.7;" xml:space="preserve">
<style type="text/css">
	.st0{fill:#FFFFFF;stroke:#000000;stroke-width:0.2;stroke-miterlimit:10;}
	.st1{stroke:#000000;stroke-width:0.2;stroke-miterlimit:10;}
	.st2{fill:#D0043C;stroke:#000000;stroke-width:0.2;stroke-miterlimit:10;}
</style>
<g id="Laag_2">
	<circle class="st0" cx="70.9" cy="70.9" r="70.9"/>
</g>
<g id="Laag_1">
	<path class="st1" d="M70.9,141.7C31.8,141.7,0,109.9,0,70.9C0,31.8,31.8,0,70.9,0s70.9,31.8,70.9,70.9
		C141.7,109.9,109.9,141.7,70.9,141.7z M70.9,3.2C33.6,3.2,3.3,33.6,3.3,70.9s30.3,67.6,67.6,67.6s67.6-30.3,67.6-67.6
		C138.5,33.6,108.2,3.2,70.9,3.2z"/>
	<path class="st1" d="M130.1,51.2H84.9l-14-43.1l-14,43.1H11.6l36.6,26.6l-14,43.1l36.6-26.6l36.6,26.6l-14-43.1L130.1,51.2z
		 M101.3,112.4L70.9,90.3l-30.4,22.1l11.6-35.8L21.6,54.5h37.6l11.6-35.8l11.6,35.8h37.6L89.7,76.6L101.3,112.4z"/>
	<g>
		<path class="st2" d="M70.9,3.2C33.5,3.2,3.3,33.5,3.3,70.9s30.3,67.6,67.6,67.6s67.6-30.3,67.6-67.6
			C138.5,33.5,108.2,3.2,70.9,3.2z M107.5,120.9L70.9,94.3l-36.6,26.6l14-43.1L11.6,51.2h45.3l14-43.1l14,43.1h45.3L93.5,77.8
			L107.5,120.9z"/>
	</g>
</g>
</svg>
