<?xml version="1.0" encoding="utf-8"?>
<!-- Generator: Adobe Illustrator 24.0.2, SVG Export Plug-In . SVG Version: 6.00 Build 0)  -->
<svg version="1.1" xmlns="http://www.w3.org/2000/svg" xmlns:xlink="http://www.w3.org/1999/xlink" x="0px" y="0px"
	 viewBox="0 0 141.7 141.7" style="enable-background:new 0 0 141.7 141.7;" xml:space="preserve">
<style type="text/css">
	.st0{fill-rule:evenodd;clip-rule:evenodd;fill:#FFFFFF;}
	.st1{fill-rule:evenodd;clip-rule:evenodd;fill:#D0043C;}
</style>
<g id="Laag_2">
	<rect y="0" class="st0" width="141.7" height="141.7"/>
</g>
<g id="Laag_1">
	<g id="Laag_1_1_">
	</g>
	<g id="Layer_1">
		<path class="st1" d="M0,0v141.7h141.7V0H0z M100.4,37.8c2.6,1.4,6.7,5,9.6,11.6c2.9,6.7,4.3,9.8,7.1,14s4.2,6.3,7.1,8.2
			c2.9,1.9,6,3.5,6,3.5s-3.9,1.4-7.6,1.1s-9.9-2-13.6-6.6c-3.7-4.6-7.1-10.1-8.2-16s-1.9-8.5-3.1-10.8c-1.5-3-5.2-5.8-5.2-5.8
			S97.8,36.5,100.4,37.8z M58.8,11.9l12.5,7.3l-1.3,2.1l-5.3-3.1l-2.3,3.9l-1.8-1.1l2.3-3.9L57.6,14L58.8,11.9z M35.9,11.9l1.3,2.1
			l-5.3,3.1l2.3,3.9l-1.8,1.1L30,18.3l-5.3,3.1l-1.3-2.1L35.9,11.9z M47.5,130.4c-13.9,0-24.7-6.3-24.7-14.2
			c0-5.7,5.5-10.5,13.8-12.8v3.5c-6.2,1.9-10.4,5.4-10.4,9.3c0,5.9,9.8,10.9,21.4,10.9c11.6,0,21.4-5,21.4-10.9
			c0-3.9-4.2-7.4-10.4-9.3v-3.5c8.2,2.3,13.8,7.1,13.8,12.8C72.2,124.2,61.3,130.4,47.5,130.4z M77.6,41.2l-5.8-3.4l-5.9,10l5.8,3.4
			L68.9,56l-10.6-6.3l2.5-4.2l-3.3-2l-3.3,5.6v66.7c0,2.1-3,3.7-6.8,3.7c-3.8,0-6.8-1.7-6.8-3.7V49.1l-3.3-5.6l-3.3,2l2.5,4.2
			L25.8,56L23,51.2l5.9-3.4l-5.9-10l-5.9,3.4l-2.8-4.8L25,30.1l2.5,4.2l3.3-2l-3.4-5.7L40.5,19l6.9,11.7L54.2,19l13.1,7.7L64,32.4
			l3.3,2l2.5-4.2l10.6,6.3L77.6,41.2z M91.9,93.8c-4.5-2.6-6.7-2.1-6.7-2.1s4-4.7,10-4.7c6,0,8.7,2.7,11.1,5.1
			c2.4,2.4,7.6,8.9,13.1,11.5c6.6,3.1,10.7,3.4,10.7,3.4s-4.5,4.9-11.9,4.9s-11.4-2-16.7-7.9C96.4,97.9,96.4,96.5,91.9,93.8z
			 M130.4,130.4c0,0-8.7,0.8-15.6-1.1c-6.9-1.9-12.3-6.4-14.7-9.8c-2.4-3.4-3.7-11.6-3.7-11.6s10.6,8.7,20.4,8.4s13.6-2.2,13.6-2.2
			V130.4z M130.4,99.8c0,0-13.8-2.5-22.2-10.5c-8.5-8-9.8-12.1-10.9-16.5c-1.1-4.3-1.1-12.2-1.1-12.2s5.9,9.1,12,13.8
			c6.1,4.8,10.6,7.4,15.2,8.4c4.5,1,7,0.7,7,0.7V99.8z M130.4,68c0,0-5.4-2.1-9.6-8c-4.2-5.9-7.3-10.4-7.3-18.6s1.8-11.6,1.8-11.6
			s1.8,8.1,5.5,14.2c3.7,6,5.8,6.4,6.8,7c1.9,1,2.8,1,2.8,1L130.4,68L130.4,68z"/>
	</g>
</g>
</svg>
