<?xml version="1.0" encoding="utf-8"?>
<!-- Generator: Adobe Illustrator 24.0.2, SVG Export Plug-In . SVG Version: 6.00 Build 0)  -->
<svg version="1.1" xmlns="http://www.w3.org/2000/svg" xmlns:xlink="http://www.w3.org/1999/xlink" x="0px" y="0px"
	 viewBox="0 0 141.7 177.2" style="enable-background:new 0 0 141.7 177.2;" xml:space="preserve">
<style type="text/css">
	.st0{fill-rule:evenodd;clip-rule:evenodd;fill:#FFFFFF;}
	.st1{fill-rule:evenodd;clip-rule:evenodd;fill:#D0043C;}
	.st2{fill:#FFFFFF;}
	.st3{fill:#D0043C;}
	.st4{fill:#1D1D1B;}
</style>
<g id="Laag_2">
	<rect y="0" class="st0" width="141.7" height="177.2"/>
</g>
<g id="Laag_1">
	<title>F-NL-002 Bovengrondse brandkraan-HD</title>
	<path class="st1" d="M0,0v177.2h141.7V0H0z M100.4,37.8c2.6,1.4,6.7,5,9.6,11.6s4.3,9.8,7.1,14s4.2,6.3,7.1,8.2s6,3.5,6,3.5
		c-2.5,0.8-5,1.2-7.6,1.1c-3.7-0.3-9.9-2-13.6-6.6s-7.1-10.1-8.2-16s-1.9-8.5-3.1-10.8c-1.5-3-5.2-5.8-5.2-5.8S97.8,36.5,100.4,37.8
		z M43.1,11.3l9.8,5.5v6.5H33.2V17L43.1,11.3z M63.5,130.4H22.3v-6.9h41.3V130.4z M73.8,58.5H59v-5.7h-6.2v67.9H33V26.1h19.8v10.9
		H59v-5.7h14.8v6.7h-8.2v13.9h8.2V58.5z M91.9,93.8c-4.5-2.6-6.7-2.1-6.7-2.1s4-4.7,10-4.7s8.7,2.7,11.1,5.1s7.6,8.9,13.1,11.5
		c6.6,3.1,10.7,3.4,10.7,3.4c-3.2,3.1-7.4,4.9-11.9,4.9c-7.4,0-11.4-2-16.7-7.9S96.4,96.5,91.9,93.8z M130.4,130.4
		c0,0-8.7,0.8-15.6-1c-6.9-1.8-12.3-6.4-14.7-9.8S96.4,108,96.4,108s10.6,8.7,20.4,8.4s13.6-2.2,13.6-2.2V130.4z M130.4,99.8
		c0,0-13.7-2.5-22.2-10.5s-9.8-12.1-10.9-16.5s-1.1-12.2-1.1-12.2s5.9,9.1,12,13.8s10.6,7.4,15.2,8.4c2.3,0.6,4.6,0.9,7,0.7
		L130.4,99.8z M130.4,68c-3.8-1.8-7.2-4.5-9.6-8c-4.2-5.9-7.3-10.4-7.3-18.6s1.8-11.6,1.8-11.6s1.8,8.1,5.5,14.2s5.8,6.4,6.8,7
		c0.9,0.5,1.8,0.9,2.8,1V68z"/>
	<path class="st2" d="M42.9,63.3c-16.6,0-30,12.6-30,28.2c0.1,8.6,4.2,16.7,11.1,21.9h37.8c6.9-5.2,11-13.3,11.1-21.9
		C72.9,76,59.5,63.3,42.9,63.3L42.9,63.3z"/>
	<path class="st3" d="M42.9,66.6c14.7,0,26.7,11.2,26.7,25c-0.1,7.2-3.4,14.1-9,18.6H25.1c-5.6-4.5-8.9-11.4-9-18.6
		C16.1,77.8,28.1,66.6,42.9,66.6"/>
	<path class="st2" d="M42.9,73.2c-0.5,0-0.8-0.4-0.8-0.8v-4c0-0.5,0.3-0.9,0.7-0.9s0.9,0.3,0.9,0.7c0,0.1,0,0.1,0,0.2v4
		C43.7,72.8,43.4,73.2,42.9,73.2z"/>
	<path class="st2" d="M30.1,78.8c-0.3,0.3-0.8,0.3-1.1,0l-2.8-2.8c-0.3-0.3-0.2-0.9,0.1-1.2c0.3-0.3,0.7-0.3,1.1,0l2.8,2.8
		C30.4,77.9,30.4,78.5,30.1,78.8C30.1,78.8,30.1,78.8,30.1,78.8z"/>
	<path class="st2" d="M55.7,78.8c-0.3-0.3-0.3-0.8,0-1.2l2.8-2.8c0.3-0.3,0.8-0.3,1.1,0c0,0,0,0,0,0c0.3,0.3,0.3,0.8,0,1.2l-2.8,2.8
		C56.5,79.1,56,79.1,55.7,78.8z"/>
	<path class="st2" d="M61.3,91.6c0-0.5,0.4-0.8,0.8-0.8h4c0.5,0,0.8,0.4,0.8,0.8c0,0.4-0.4,0.8-0.8,0.8h-4
		C61.6,92.4,61.3,92,61.3,91.6C61.3,91.6,61.3,91.6,61.3,91.6z"/>
	<path class="st2" d="M18.9,91.6c0-0.4,0.4-0.8,0.8-0.8h4c0.4,0,0.8,0.4,0.8,0.8c0,0.4-0.4,0.8-0.8,0.8h-4
		C19.3,92.4,18.9,92,18.9,91.6z"/>
	<path class="st2" d="M37,100.8c-1.1,3.2,0.7,6.7,3.8,7.7c3.2,1.1,6.7-0.7,7.7-3.8c0.1-0.2,0.1-0.4,0.2-0.7
		c0.9-3.3,2.4-32.1,2.4-32.1S37.8,97.5,37,100.8z M45.9,103.2c-0.4,1.6-2.1,2.6-3.8,2.2s-2.6-2.1-2.2-3.8s2.1-2.6,3.8-2.2
		c0,0,0,0,0,0C45.3,99.9,46.3,101.6,45.9,103.2L45.9,103.2z"/>
	<rect x="3.5" y="141.8" class="st2" width="134.6" height="31.9"/>
	<path class="st4" d="M50.5,168.5v-21.5h4.3v8.4h8.5v-8.4h4.3v21.5h-4.3v-9.4h-8.5v9.4H50.5z"/>
	<path class="st4" d="M72.1,147.1h7.9c1.4,0,2.8,0.1,4.1,0.4c1.2,0.4,2.4,1.1,3.2,2c0.9,1,1.6,2.2,2,3.5c0.5,1.6,0.7,3.4,0.7,5.1
		c0,1.5-0.2,3.1-0.7,4.6c-0.4,1.4-1.2,2.7-2.3,3.8c-0.9,0.8-1.9,1.4-3,1.7c-1.3,0.3-2.5,0.5-3.8,0.4h-8.1V147.1z M76.5,150.7v14.2
		h3.2c0.9,0,1.8,0,2.6-0.2c0.6-0.1,1.3-0.4,1.8-0.9c0.6-0.6,1-1.3,1.1-2.1c0.3-1.3,0.5-2.6,0.4-3.9c0-1.3-0.1-2.6-0.4-3.8
		c-0.2-0.8-0.6-1.5-1.2-2.1c-0.6-0.5-1.3-0.9-2-1c-1.2-0.2-2.4-0.3-3.6-0.2L76.5,150.7z"/>
</g>
</svg>
