<svg id="Laag_1" data-name="Laag 1" xmlns="http://www.w3.org/2000/svg" viewBox="0 0 141.73 178.89"><defs><style>.cls-1,.cls-3{fill:#1d1d1b;}.cls-2{fill:#d0043c;}.cls-3{font-size:30px;font-family:Arial-BoldMT, Arial;font-weight:700;}</style></defs><title>F-NL-009_hoofdafsluiter_blussysteem-O</title><path class="cls-1" d="M0,0V177.17H141.73V0ZM4.81,4.81H136.92V136.92H4.81Zm132.11,167.4H4.81V141.73H136.92Z"/><polygon class="cls-1" points="129.55 68.42 116.24 68.42 116.24 43.65 70.86 69.86 25.48 43.65 25.48 68.42 12.19 68.42 12.19 74.36 25.48 74.36 25.48 98.09 70.86 71.88 116.24 98.09 116.24 74.36 129.55 74.36 129.55 68.42"/><polygon class="cls-2" points="73.58 70.86 114.18 47.41 114.18 94.32 73.58 70.86"/><polygon class="cls-2" points="68.15 70.86 27.55 47.41 27.55 94.32 68.15 70.86"/><text class="cls-3" transform="translate(59.08 167.6)">O</text></svg>