<?xml version="1.0" encoding="utf-8"?>
<!-- Generator: Adobe Illustrator 24.0.2, SVG Export Plug-In . SVG Version: 6.00 Build 0)  -->
<svg version="1.1" xmlns="http://www.w3.org/2000/svg" xmlns:xlink="http://www.w3.org/1999/xlink" x="0px" y="0px"
	 viewBox="0 0 141.7 177.2" style="enable-background:new 0 0 141.7 177.2;" xml:space="preserve">
<style type="text/css">
	.st0{fill:#FFFFFF;}
	.st1{fill-rule:evenodd;clip-rule:evenodd;fill:#D0043C;}
	.st2{fill:#D0043C;}
	.st3{fill:#1D1D1B;}
</style>
<g id="Laag_2">
	<rect y="0" class="st0" width="141.7" height="177.2"/>
</g>
<g id="Laag_1">
	<title>F-NL-004 Ondergrondse brandkraan-HD</title>
	<path class="st1" d="M0,0v141.7h141.7V0H0z M100.4,37.8c2.6,1.4,6.7,5,9.6,11.6s4.3,9.8,7.1,14s4.2,6.3,7.1,8.2s6,3.5,6,3.5
		c-2.5,0.8-5,1.2-7.6,1.1c-3.7-0.3-9.9-2-13.6-6.6s-7.1-10.1-8.2-16s-1.9-8.5-3.1-10.8c-1.5-3-5.2-5.8-5.2-5.8S97.8,36.5,100.4,37.8
		z M58.8,11.9l12.5,7.3l-1.3,2.1l-5.3-3.1l-2.3,3.9l-1.8-1.1l2.3-3.9l-5.3-3.1L58.8,11.9z M35.9,11.9l1.3,2.1l-5.3,3.1l2.3,3.9
		l-1.8,1.1L30,18.3l-5.3,3.1l-1.3-2.1L35.9,11.9z M47.5,130.4c-13.9,0-24.7-6.3-24.7-14.2c0-5.7,5.5-10.5,13.8-12.8v3.5
		c-6.2,1.9-10.4,5.4-10.4,9.3c0,5.9,9.8,10.9,21.4,10.9s21.4-5,21.4-10.9c0-3.9-4.2-7.4-10.4-9.3v-3.5c8.2,2.3,13.8,7.1,13.8,12.8
		C72.2,124.2,61.3,130.4,47.5,130.4z M77.6,41.2l-5.8-3.4l-5.9,10l5.8,3.4L68.9,56l-10.7-6.3l2.5-4.2l-3.3-2l-3.3,5.6v66.7
		c0,2.1-3,3.7-6.8,3.7s-6.8-1.7-6.8-3.7V49.1l-3.3-5.6l-3.3,2l2.5,4.2L25.8,56L23,51.2l5.9-3.4l-5.9-10l-5.9,3.4l-2.8-4.8L25,30.2
		l2.5,4.2l3.3-1.9l-3.4-5.7L40.5,19l6.9,11.7L54.2,19l13.1,7.7L64,32.4l3.3,1.9l2.5-4.2l10.6,6.3L77.6,41.2z M91.9,93.8
		c-4.5-2.6-6.7-2.1-6.7-2.1s4-4.7,10-4.7s8.7,2.7,11.1,5.1s7.6,8.9,13.1,11.5c6.6,3.1,10.7,3.4,10.7,3.4c-3.2,3.1-7.4,4.9-11.9,4.9
		c-7.4,0-11.4-2-16.7-7.9S96.4,96.5,91.9,93.8z M130.4,130.4c0,0-8.7,0.8-15.6-1c-6.9-1.8-12.3-6.4-14.7-9.8S96.4,108,96.4,108
		s10.6,8.7,20.4,8.4s13.6-2.2,13.6-2.2V130.4z M130.4,99.8c0,0-13.7-2.5-22.2-10.5s-9.8-12.1-10.9-16.5s-1.1-12.3-1.1-12.3
		s5.9,9.1,12,13.8s10.6,7.4,15.2,8.4c2.3,0.6,4.6,0.9,7,0.7L130.4,99.8z M130.4,68c-3.8-1.8-7.2-4.5-9.6-8
		c-4.2-5.9-7.3-10.4-7.3-18.6s1.8-11.6,1.8-11.6s1.8,8.1,5.5,14.2s5.8,6.4,6.8,7c0.9,0.5,1.8,0.9,2.8,1V68z"/>
	<rect y="141.8" class="st2" width="141.7" height="35.4"/>
	<rect x="4" y="141.8" class="st0" width="134.6" height="31.9"/>
	<path class="st0" d="M47.5,56.8c-16.6,0-30,12.6-30,28.2c0.1,8.6,4.2,16.7,11.1,21.9h37.8c6.9-5.2,11-13.3,11.1-21.9
		C77.5,69.4,64.1,56.8,47.5,56.8L47.5,56.8z"/>
	<path class="st2" d="M47.5,60c14.7,0,26.7,11.2,26.7,25c-0.1,7.2-3.4,14.1-9,18.6H29.7c-5.6-4.5-8.9-11.4-9-18.6
		C20.7,71.2,32.7,60,47.5,60"/>
	<path class="st0" d="M47.5,66.6c-0.4,0-0.8-0.4-0.8-0.8v-4c0-0.4,0.4-0.8,0.8-0.8c0.4,0,0.8,0.4,0.8,0.8v4
		C48.3,66.3,47.9,66.6,47.5,66.6z"/>
	<path class="st0" d="M34.7,72.2c-0.3,0.3-0.8,0.3-1.2,0c0,0,0,0,0,0l-2.8-2.8c-0.3-0.3-0.2-0.9,0.1-1.2c0.3-0.3,0.7-0.3,1.1,0
		l2.8,2.8C35,71.4,35,71.9,34.7,72.2z"/>
	<path class="st0" d="M60.3,72.2c-0.3-0.3-0.3-0.8,0-1.1c0,0,0,0,0,0l2.8-2.8c0.3-0.3,0.9-0.2,1.2,0.1c0.3,0.3,0.3,0.7,0,1.1
		l-2.8,2.8C61.1,72.5,60.6,72.5,60.3,72.2C60.3,72.2,60.3,72.2,60.3,72.2z"/>
	<path class="st0" d="M65.9,85c0-0.4,0.4-0.8,0.8-0.8h4c0.5,0,0.8,0.5,0.7,0.9c0,0.4-0.3,0.7-0.7,0.7h-4
		C66.2,85.8,65.9,85.4,65.9,85z"/>
	<path class="st0" d="M23.5,85c0-0.4,0.4-0.8,0.8-0.8h4c0.5,0,0.9,0.3,0.9,0.7s-0.3,0.9-0.7,0.9c-0.1,0-0.1,0-0.2,0h-4
		C23.9,85.8,23.5,85.4,23.5,85z"/>
	<path class="st0" d="M41.5,94.2c-0.8,3.3,1.1,6.6,4.4,7.5c3.2,0.8,6.5-1,7.4-4.2c0.9-3.3,2.4-32.1,2.4-32.1S42.4,91,41.5,94.2z
		 M50.4,96.6c-0.4,1.6-2.1,2.6-3.8,2.2S44,96.7,44.5,95s2.1-2.6,3.8-2.2c0,0,0,0,0,0C49.9,93.3,50.9,95,50.4,96.6
		C50.4,96.6,50.4,96.6,50.4,96.6z"/>
	<path class="st3" d="M51.3,168.5V147h4.3v8.5h8.5V147h4.3v21.5h-4.3v-9.4h-8.5v9.4H51.3z"/>
	<path class="st3" d="M73,147h7.9c1.4,0,2.7,0.1,4.1,0.4c1.2,0.4,2.4,1.1,3.2,2c0.9,1,1.6,2.2,2,3.5c0.5,1.7,0.8,3.4,0.8,5.1
		c0,1.5-0.2,3.1-0.7,4.6c-0.5,1.4-1.2,2.7-2.3,3.8c-0.9,0.8-1.9,1.3-3,1.6c-1.2,0.3-2.5,0.5-3.8,0.5H73V147z M77.3,150.6v14.2h3.2
		c0.9,0,1.8,0,2.6-0.2c0.6-0.1,1.2-0.5,1.8-0.9c0.6-0.6,0.9-1.3,1.1-2.1c0.3-1.3,0.5-2.6,0.4-3.9c0-1.3-0.1-2.6-0.4-3.8
		c-0.2-0.8-0.7-1.5-1.2-2.1c-0.6-0.5-1.3-0.9-2-1c-1.2-0.2-2.4-0.2-3.6-0.2L77.3,150.6z"/>
</g>
</svg>
