<?xml version="1.0" encoding="utf-8"?>
<!-- Generator: Adobe Illustrator 24.0.2, SVG Export Plug-In . SVG Version: 6.00 Build 0)  -->
<svg version="1.1" xmlns="http://www.w3.org/2000/svg" xmlns:xlink="http://www.w3.org/1999/xlink" x="0px" y="0px"
	 viewBox="0 0 141.7 141.7" style="enable-background:new 0 0 141.7 141.7;" xml:space="preserve">
<style type="text/css">
	.st0{fill:#FFFFFF;}
	.st1{fill:#D0043C;}
</style>
<g id="Laag_2">
	<rect y="0" class="st0" width="141.7" height="141.7"/>
</g>
<g id="Laag_1">
	<title>F-NL-030_water-reduceer_drukbegrenzer</title>
	<g id="Layer_1">
		<rect y="0" class="st1" width="141.7" height="141.7"/>
		<path class="st0" d="M70.9,12c-16.6,0-30,12.6-30,28.2C40.9,48.9,45,57,51.9,62.1h37.9c6.9-5.2,11-13.3,11.1-21.9
			C100.9,24.6,87.4,12,70.9,12L70.9,12z"/>
		<path class="st1" d="M70.9,15.2c14.8,0,26.8,11.2,26.8,25c-0.1,7.3-3.4,14.1-9,18.7H53.1c-5.6-4.6-8.9-11.4-9-18.7
			C44.1,26.5,56.1,15.2,70.9,15.2"/>
		<path class="st0" d="M70.9,21.8c-0.5,0-0.8-0.4-0.8-0.8v-4c0-0.5,0.3-0.9,0.7-0.9s0.9,0.3,0.9,0.7c0,0.1,0,0.1,0,0.2v4
			C71.7,21.5,71.3,21.8,70.9,21.8C70.9,21.8,70.9,21.8,70.9,21.8z"/>
		<path class="st0" d="M58.1,27.4c-0.3,0.3-0.8,0.3-1.1,0c0,0,0,0,0,0l-2.8-2.8c-0.3-0.3-0.4-0.8-0.1-1.2c0.3-0.3,0.8-0.4,1.2-0.1
			c0,0,0.1,0.1,0.1,0.1l2.8,2.8C58.4,26.6,58.4,27.1,58.1,27.4C58.1,27.4,58.1,27.4,58.1,27.4z"/>
		<path class="st0" d="M83.7,27.4c-0.3-0.3-0.3-0.8,0-1.1c0,0,0,0,0,0l2.8-2.8c0.3-0.3,0.9-0.2,1.2,0.1c0.3,0.3,0.3,0.7,0,1.1
			l-2.8,2.8C84.5,27.7,84,27.7,83.7,27.4C83.7,27.4,83.7,27.4,83.7,27.4z"/>
		<path class="st0" d="M89.3,40.2c0-0.4,0.4-0.8,0.8-0.8h4c0.5,0,0.9,0.3,0.9,0.7S94.7,41,94.2,41c-0.1,0-0.1,0-0.2,0h-4
			C89.6,41,89.2,40.7,89.3,40.2C89.2,40.2,89.2,40.2,89.3,40.2z"/>
		<path class="st0" d="M46.8,40.2c0-0.4,0.4-0.8,0.8-0.8h4c0.5,0,0.9,0.3,0.9,0.7c0,0.5-0.3,0.9-0.7,0.9c-0.1,0-0.1,0-0.2,0h-4
			C47.2,41,46.8,40.7,46.8,40.2z"/>
		<path class="st0" d="M64.9,49.5c-0.9,3.3,1,6.6,4.3,7.5c3.3,0.9,6.6-1,7.5-4.3c0.9-3.3,2.4-32.1,2.4-32.1S65.8,46.2,64.9,49.5z
			 M73.8,51.9c-0.4,1.6-2.1,2.6-3.8,2.2c-1.6-0.4-2.6-2.1-2.2-3.8c0.4-1.6,2.1-2.6,3.8-2.2c0,0,0,0,0,0
			C73.3,48.5,74.2,50.2,73.8,51.9z"/>
		<path class="st0" d="M125.7,109.7V69.4h7.2v-8.1h-15.3v6.4H99.5L83.1,76H58.7l-16.4-8.3H24.1v-6.4H8.8v8.1H16v46.7H8.8v8.1h15.3
			v-6.4h18.1l16.4-8.3h24.4l16.4,8.3h18.1v6.4h15.3v-8.1h-7.2V109.7z M101.4,109.7L85,101.4H56.7l-16.4,8.3H24.1V75.8h16.2l16.4,8.3
			H85l16.4-8.3h16.2v33.9H101.4z"/>
	</g>
</g>
</svg>
