<svg id="Laag_1" data-name="Laag 1" xmlns="http://www.w3.org/2000/svg" viewBox="0 0 141.73 35.66"><defs><style>.cls-1{fill:#0092d4;}</style></defs><title>F-NL-032_open_water</title><path class="cls-1" d="M.61,4.71A1.2,1.2,0,0,0,.16,6.35,1.21,1.21,0,0,0,1.8,6.8C16-1.28,30.56,3,39.46,9.76c3.35,2.54,5.77,2.57,9.26.11C62.92-.12,79.88-.06,93,10c3.53,2.49,6,2.46,9.31-.07,8.9-6.73,23.47-11,37.65-3a1.2,1.2,0,1,0,1.19-2.09c-15.2-8.65-30.78-4-40.3,3.14-2.49,1.89-3.81,1.9-6.43.06-13.7-10.55-32.19-10.63-47-.17-2.62,1.84-3.94,1.82-6.43-.06C31.39.66,15.81-3.94.61,4.71Z" transform="translate(0 0)"/><path class="cls-1" d="M62.6,9.34A38.54,38.54,0,0,0,53,14.05L48.54,16.7a10.52,10.52,0,0,1-9-.22L36.39,14.7A58.64,58.64,0,0,0,25.62,9.56C21.29,8,15,8.37,11,9.34a35.3,35.3,0,0,0-10.1,4.1,1.21,1.21,0,0,0,1.17,2.11,33.14,33.14,0,0,1,9.5-3.87c4.43-1.07,10-1,13.27.15a57.12,57.12,0,0,1,10.37,5l3.24,1.82a12.83,12.83,0,0,0,11.25.22l4.6-2.73a36.24,36.24,0,0,1,9.1-4.47c3.6-1.33,10.86-1.44,14.71-.24a36.68,36.68,0,0,1,9.09,4.47l4.59,2.72A12.83,12.83,0,0,0,103,18.36l3.23-1.81a55.81,55.81,0,0,1,10.37-5c3.27-1.17,8.85-1.23,13.27-.16a33,33,0,0,1,9.5,3.87,1.21,1.21,0,1,0,1.17-2.11,35.19,35.19,0,0,0-10.1-4.1c-4-1-10.31-1.31-14.64.23a57.67,57.67,0,0,0-10.77,5.14l-3.17,1.77a10.54,10.54,0,0,1-9,.22l-4.46-2.65A38.91,38.91,0,0,0,78.8,9.08C74.92,7.87,67,7.72,62.6,9.34Z" transform="translate(0 0)"/><path class="cls-1" d="M62.69,17.83,57,21a31.08,31.08,0,0,1-7.12,3.51c-2.48.85-8.47.83-11.06,0a42.56,42.56,0,0,1-9-4.31l-3.07-1.76c-6.39-3.19-13.56-1.55-15.61-1C7.51,18.47,4.37,20.55.93,23a1.2,1.2,0,0,0,1.38,2c3.86-2.72,6.52-4.35,9.47-5.18,3.78-1.07,9.4-1.42,13.83.79l3,1.71A44.46,44.46,0,0,0,38,26.77c3.07,1,9.66,1,12.59,0a33.92,33.92,0,0,0,7.61-3.74L63.79,20c3.49-2,10.55-1.7,13.72-.12L83.18,23a34.44,34.44,0,0,0,7.74,3.81c2.92,1,9.51,1,12.58,0a44.46,44.46,0,0,0,9.42-4.51l3-1.74c4.38-2.18,10-1.83,13.79-.76,2.94.83,5.6,2.46,9.46,5.18a1.2,1.2,0,0,0,1.38-2c-3.44-2.42-6.59-4.5-10.19-5.52-2.05-.58-9.22-2.22-15.56.95l-3.12,1.78a42,42,0,0,1-9,4.3,24.27,24.27,0,0,1-11,0,33,33,0,0,1-7.26-3.59l-5.87-3.25C74.8,15.81,66.87,15.45,62.69,17.83Zm0,0Z" transform="translate(0 0)"/><path class="cls-1" d="M116.6,26.08c-11.85,9.12-25,9.18-39,.2-3.38-2.44-10.06-2.94-14.13.3-14,8.91-27.06,8.85-38.87-.24-3.48-2.5-10.15-3-14.23.24a31.39,31.39,0,0,1-9.19,5.13A1.2,1.2,0,1,0,2,34a34,34,0,0,0,9.9-5.52C15,26,20.42,26.3,23.15,28.27c12.67,9.75,26.71,9.85,41.7.27C68.1,26,73.5,26.3,76.24,28.27c15,9.62,29.09,9.52,41.79-.26,2.7-2,8.11-2.28,11.25.22a34.18,34.18,0,0,0,9.9,5.52,1.2,1.2,0,1,0,.8-2.27,31.67,31.67,0,0,1-9.2-5.13C126.71,23.11,120,23.61,116.6,26.08Z" transform="translate(0 0)"/></svg>