<?xml version="1.0" encoding="utf-8"?>
<!-- Generator: Adobe Illustrator 24.0.2, SVG Export Plug-In . SVG Version: 6.00 Build 0)  -->
<svg version="1.1" xmlns="http://www.w3.org/2000/svg" xmlns:xlink="http://www.w3.org/1999/xlink" x="0px" y="0px"
	 viewBox="0 0 141.73 141.73" style="enable-background:new 0 0 141.73 141.73;" xml:space="preserve">
<style type="text/css">
	.st0{fill-rule:evenodd;clip-rule:evenodd;fill:#D0043C;}
</style>
<g id="Laag_1">
</g>
<g id="Layer_1">
	<path class="st0" d="M0,0v141.73h141.73V0H0z M100.4,37.84c2.57,1.36,6.69,4.96,9.63,11.64c2.94,6.68,4.29,9.77,7.11,13.98
		c2.82,4.21,4.17,6.31,7.11,8.16c2.94,1.86,6,3.46,6,3.46s-3.92,1.36-7.6,1.11c-3.68-0.25-9.93-1.98-13.6-6.55
		c-3.68-4.58-7.11-10.14-8.21-15.95c-1.1-5.81-1.93-8.53-3.11-10.82c-1.54-2.99-5.23-5.76-5.23-5.76S97.83,36.48,100.4,37.84z
		 M58.82,11.91l12.51,7.35l-1.26,2.14l-5.34-3.14l-2.31,3.93l-1.83-1.08l2.31-3.93l-5.34-3.14L58.82,11.91z M35.92,11.91l1.26,2.14
		l-5.34,3.14l2.31,3.93l-1.83,1.08l-2.31-3.93l-5.34,3.14l-1.26-2.14L35.92,11.91z M47.49,130.43c-13.86,0-24.72-6.26-24.72-14.24
		c0-5.7,5.54-10.52,13.75-12.81v3.5c-6.19,1.94-10.42,5.43-10.42,9.31c0,5.91,9.79,10.91,21.39,10.91c11.59,0,21.39-5,21.39-10.91
		c0-3.89-4.23-7.37-10.42-9.31v-3.5c8.21,2.29,13.75,7.11,13.75,12.81C72.21,124.18,61.35,130.43,47.49,130.43z M77.61,41.2
		l-5.85-3.44l-5.87,9.99l5.85,3.44l-2.81,4.79l-10.64-6.25l2.49-4.24l-3.31-1.95l-3.29,5.6v66.73c0,2.06-3.04,3.74-6.8,3.74
		c-3.75,0-6.8-1.67-6.8-3.74V49.15l-3.29-5.6l-3.31,1.95l2.49,4.24l-10.64,6.25L23,51.19l5.85-3.44l-5.87-9.99l-5.85,3.44
		l-2.81-4.79l10.64-6.26l2.49,4.24l3.31-1.95l-3.36-5.71l13.1-7.7l6.87,11.68l6.87-11.68l13.1,7.7l-3.36,5.71l3.31,1.95l2.49-4.24
		l10.64,6.26L77.61,41.2z M91.9,93.85c-4.47-2.62-6.74-2.13-6.74-2.13s3.98-4.67,9.99-4.67c6.01,0,8.69,2.71,11.13,5.08
		c2.44,2.38,7.63,8.9,13.08,11.48c6.58,3.12,10.72,3.36,10.72,3.36s-4.47,4.92-11.86,4.92c-7.39,0-11.45-1.97-16.65-7.95
		C96.37,97.95,96.37,96.47,91.9,93.85z M130.39,130.39c0,0-8.68,0.84-15.58-1.05c-6.91-1.89-12.35-6.39-14.7-9.76
		c-2.36-3.36-3.66-11.56-3.66-11.56s10.64,8.69,20.39,8.36c9.75-0.33,13.55-2.18,13.55-2.18V130.39z M130.39,99.81
		c0,0-13.75-2.47-22.2-10.51c-8.46-8.04-9.8-12.12-10.91-16.45c-1.1-4.33-1.1-12.24-1.1-12.24s5.9,9.09,12.01,13.85
		c6.13,4.78,10.64,7.38,15.22,8.43c4.5,1.04,6.98,0.74,6.98,0.74V99.81z M130.39,68.05c0,0-5.4-2.14-9.6-8.03
		c-4.19-5.88-7.35-10.36-7.35-18.63c0-8.27,1.82-11.58,1.82-11.58s1.8,8.12,5.53,14.16c3.71,6.01,5.77,6.44,6.8,6.95
		c1.9,0.95,2.79,0.95,2.79,0.95V68.05z"/>
</g>
</svg>
