<?xml version="1.0" encoding="utf-8"?>
<!-- Generator: Adobe Illustrator 24.0.2, SVG Export Plug-In . SVG Version: 6.00 Build 0)  -->
<svg version="1.1" xmlns="http://www.w3.org/2000/svg" xmlns:xlink="http://www.w3.org/1999/xlink" x="0px" y="0px"
	 viewBox="0 0 141.7 40.8" style="enable-background:new 0 0 141.7 40.8;" xml:space="preserve">
<style type="text/css">
	.st0{fill:#FFFFFF;}
	.st1{fill:#0092D4;}
</style>
<g id="Laag_2">
	<rect y="0" class="st0" width="141.7" height="40.8"/>
</g>
<g id="Laag_1">
	<title>F-NL-033_bluswaterriool</title>
	<path class="st1" d="M56.9,35.2c-11.5,5.1-22.4,3.9-32.3-3.8c-3.5-2.5-10.1-3-14.2,0.2c-2.8,2.2-5.9,4-9.2,5.1
		c-0.6,0.2-0.9,0.9-0.7,1.5C0.7,39,1.4,39.3,2,39.1c3.6-1.3,6.9-3.1,9.9-5.5c3.1-2.5,8.6-2.2,11.3-0.2c11,8.5,23,9.6,35.8,3.5
		C58.3,36.4,57.6,35.8,56.9,35.2z"/>
	<path class="st1" d="M140,36.6c-3.3-1.2-6.4-2.9-9.2-5.1c-4.1-3.2-10.8-2.7-14.2-0.3c-9.8,7.5-20.5,8.9-31.8,4
		c-0.7,0.6-1.4,1.2-2.1,1.7c12.6,5.8,24.5,4.5,35.3-3.8c2.7-1.9,8.1-2.3,11.3,0.2c3,2.4,6.3,4.2,9.9,5.5c0.6,0.2,1.3-0.1,1.5-0.7
		C141,37.5,140.6,36.8,140,36.6L140,36.6z"/>
	<path class="st1" d="M52.3,28.7c-0.7,0.3-1.5,0.6-2.4,0.9c-2.5,0.9-8.5,0.8-11.1,0c-3.2-1.1-6.2-2.5-9-4.3l-3.1-1.8
		c-6.4-3.2-13.6-1.6-15.6-1c-3.6,1-6.8,3.1-10.2,5.5c-0.6,0.4-0.7,1.1-0.3,1.7c0.4,0.6,1.1,0.7,1.7,0.3c3.9-2.7,6.5-4.4,9.5-5.2
		c3.8-1.1,9.4-1.4,13.8,0.8l3,1.7c3,1.9,6.1,3.4,9.4,4.5c3.1,1,9.7,1,12.6,0c0.9-0.3,1.9-0.7,2.8-1.1C53,30.1,52.6,29.4,52.3,28.7z"
		/>
	<path class="st1" d="M140.6,28.1c-3.4-2.4-6.6-4.5-10.2-5.5c-2.1-0.6-9.2-2.2-15.6,1l-3.1,1.8c-2.8,1.8-5.8,3.2-9,4.3
		c-3.6,0.8-7.4,0.8-11,0c-0.8-0.3-1.6-0.6-2.3-0.9c-0.3,0.7-0.7,1.4-1.1,2.1c0.8,0.4,1.7,0.7,2.6,1c2.9,1,9.5,1,12.6,0
		c3.3-1.1,6.5-2.6,9.4-4.5l3-1.7c4.4-2.2,10-1.8,13.8-0.8c2.9,0.8,5.6,2.5,9.5,5.2c0.6,0.4,1.3,0.2,1.7-0.3S141.1,28.5,140.6,28.1
		L140.6,28.1L140.6,28.1z"/>
	<path class="st1" d="M50.5,20.7l-2,1.1c-2.9,1.3-6.2,1.2-9-0.2l-3.2-1.8c-3.4-2.1-7-3.8-10.8-5.1C21.3,13.1,15,13.5,11,14.4
		c-3.6,0.8-7,2.2-10.1,4.1c-0.6,0.4-0.7,1.1-0.3,1.7c0.3,0.5,1,0.7,1.5,0.4c2.9-1.8,6.2-3.1,9.5-3.9c4.4-1.1,10-1,13.3,0.1
		c3.6,1.3,7.1,3,10.4,5l3.2,1.8c3.5,1.8,7.7,1.9,11.3,0.2l1-0.6C50.6,22.5,50.5,21.6,50.5,20.7z"/>
	<path class="st1" d="M140.6,18.3c-3.1-1.9-6.5-3.3-10.1-4.1c-4-1-10.3-1.3-14.6,0.2c-3.8,1.3-7.4,3.1-10.8,5.1l-3.2,1.8
		c-2.8,1.4-6.1,1.5-9,0.2l-1.7-1c0,0.9-0.1,1.8-0.2,2.7l0.7,0.5c3.6,1.7,7.7,1.6,11.3-0.2l3.2-1.8c3.3-2,6.8-3.7,10.4-5
		c3.3-1.2,8.8-1.2,13.3-0.2c3.3,0.8,6.6,2.1,9.5,3.9c0.6,0.3,1.3,0.1,1.6-0.5C141.3,19.4,141.1,18.6,140.6,18.3L140.6,18.3z"/>
	<path class="st1" d="M53.8,9.2c-2.3,1.1-4.4,2.3-6.5,3.8c-2.6,1.8-3.9,1.8-6.4-0.1C31.4,5.8,15.8,1.2,0.6,9.8
		c-0.6,0.3-0.8,1.1-0.5,1.6c0.3,0.6,1.1,0.8,1.6,0.4c14.2-8.1,28.8-3.8,37.7,3c3.3,2.5,5.8,2.6,9.3,0.1c1-0.7,2.1-1.4,3.2-2
		C52.4,11.7,53.1,10.4,53.8,9.2z"/>
	<path class="st1" d="M141.1,10c-15.2-8.6-30.8-4-40.3,3.1c-2.5,1.9-3.8,1.9-6.4,0c-2-1.6-4.2-2.9-6.6-4.1c0.8,1.2,1.5,2.5,2,3.8
		c1.1,0.7,2.1,1.4,3.2,2.2c3.5,2.5,6,2.4,9.3-0.1c8.9-6.7,23.5-11,37.6-3c0.6,0.2,1.3-0.1,1.5-0.8C141.6,10.8,141.5,10.3,141.1,10z"
		/>
	<path class="st0" d="M90,20.4c0,10.6-8.6,19.1-19.1,19.1c-10.6,0-19.1-8.6-19.1-19.1S60.3,1.2,70.9,1.2c0,0,0,0,0,0
		C81.4,1.2,90,9.8,90,20.4C90,20.4,90,20.4,90,20.4z"/>
	<path class="st1" d="M70.9,40.8c-11.3,0-20.4-9.1-20.4-20.4C50.5,9.1,59.6,0,70.9,0s20.4,9.1,20.4,20.4c0,0,0,0,0,0
		C91.2,31.6,82.1,40.8,70.9,40.8z M70.9,2.5C61,2.5,53,10.5,53,20.4s8,17.9,17.9,17.9s17.9-8,17.9-17.9c0,0,0,0,0,0
		C88.7,10.5,80.7,2.5,70.9,2.5z"/>
	<path class="st1" d="M72.6,20.4L84.5,8.5C85,8,85,7.2,84.5,6.7c-0.5-0.5-1.3-0.5-1.8,0L70.9,18.6L59,6.7c-0.5-0.5-1.3-0.5-1.8,0
		c-0.5,0.5-0.5,1.3,0,1.8l11.9,11.9L57.2,32.3c-0.4,0.5-0.3,1.3,0.2,1.8c0.5,0.4,1.1,0.3,1.5,0l11.9-11.9L82.7,34
		c0.5,0.5,1.3,0.6,1.8,0.1s0.6-1.3,0.1-1.8c0,0-0.1-0.1-0.1-0.1L72.6,20.4z"/>
</g>
</svg>
