<svg id="Laag_1" data-name="Laag 1" xmlns="http://www.w3.org/2000/svg" viewBox="0 0 141.73 177.19"><defs><style>.cls-1,.cls-2{fill:#d0043c;}.cls-1{fill-rule:evenodd;}.cls-3{fill:#fff;}.cls-4{fill:#1d1d1b;}</style></defs><title>F-NL-004 Ondergrondse brandkraan-HD</title><path class="cls-1" d="M0,0V141.73H141.73V0ZM100.4,37.84c2.58,1.36,6.69,5,9.63,11.63s4.29,9.77,7.11,14,4.16,6.31,7.11,8.16,6,3.46,6,3.46a22.45,22.45,0,0,1-7.6,1.12c-3.67-.25-9.92-2-13.6-6.56s-7.11-10.14-8.21-15.95-1.93-8.53-3.11-10.82c-1.54-3-5.22-5.75-5.22-5.75S97.83,36.48,100.4,37.84ZM58.82,11.91l12.51,7.35-1.26,2.15-5.34-3.14L62.42,22.2l-1.83-1.08,2.31-3.93-5.34-3.13Zm-22.9,0,1.26,2.15-5.34,3.13,2.32,3.93L32.32,22.2,30,18.27l-5.34,3.14-1.26-2.15ZM47.49,130.43c-13.86,0-24.72-6.25-24.72-14.24,0-5.7,5.54-10.52,13.75-12.81v3.5c-6.19,1.94-10.42,5.42-10.42,9.31,0,5.91,9.8,10.91,21.39,10.91s21.39-5,21.39-10.91c0-3.89-4.23-7.37-10.42-9.31v-3.5c8.21,2.29,13.75,7.11,13.75,12.81C72.21,124.18,61.35,130.43,47.49,130.43ZM77.61,41.2l-5.85-3.44-5.87,10,5.85,3.44L68.93,56,58.28,49.73l2.49-4.24-3.31-2-3.29,5.61v66.72c0,2.06-3.05,3.74-6.8,3.74s-6.79-1.68-6.79-3.74V49.15l-3.3-5.61-3.31,2,2.49,4.24L25.82,56,23,51.19l5.86-3.44L23,37.76,17.13,41.2l-2.81-4.79L25,30.16l2.49,4.23,3.31-1.94-3.35-5.72L40.51,19l6.86,11.68L54.24,19l13.1,7.69L64,32.45l3.31,1.94,2.49-4.23,10.64,6.25ZM91.9,93.85c-4.47-2.63-6.74-2.14-6.74-2.14s4-4.67,10-4.67,8.69,2.71,11.13,5.09,7.63,8.89,13.08,11.47c6.58,3.12,10.72,3.36,10.72,3.36a17,17,0,0,1-11.86,4.92c-7.39,0-11.45-2-16.65-7.95S96.37,96.47,91.9,93.85Zm38.49,36.54s-8.68.84-15.58-1-12.35-6.39-14.7-9.75S96.45,108,96.45,108s10.64,8.69,20.39,8.36,13.55-2.18,13.55-2.18Zm0-30.58s-13.74-2.48-22.2-10.51-9.8-12.12-10.91-16.45-1.1-12.25-1.1-12.25,5.9,9.09,12,13.85,10.64,7.38,15.22,8.44a22.87,22.87,0,0,0,7,.74Zm0-31.76a24.13,24.13,0,0,1-9.59-8c-4.19-5.89-7.35-10.36-7.35-18.64s1.82-11.58,1.82-11.58,1.8,8.12,5.53,14.16,5.77,6.43,6.8,6.95a7.29,7.29,0,0,0,2.79,1Z" transform="translate(0 0)"/><rect class="cls-2" y="141.82" width="141.73" height="35.38"/><rect class="cls-3" x="4.01" y="141.82" width="134.64" height="31.89"/><path class="cls-3" d="M47.49,56.78c-16.56,0-30,12.64-30,28.21a27.54,27.54,0,0,0,11.08,21.89H66.4A27.54,27.54,0,0,0,77.48,85c0-15.57-13.43-28.21-30-28.21Z" transform="translate(0 0)"/><path class="cls-2" d="M47.49,60C62.23,60,74.22,71.24,74.22,85a24.18,24.18,0,0,1-9,18.63H29.72a24.16,24.16,0,0,1-9-18.63c0-13.75,12-24.95,26.73-24.95" transform="translate(0 0)"/><path class="cls-3" d="M47.49,66.63a.81.81,0,0,1-.81-.81v-4a.81.81,0,0,1,1.62,0v4A.81.81,0,0,1,47.49,66.63Z" transform="translate(0 0)"/><path class="cls-3" d="M34.71,72.21a.82.82,0,0,1-1.16,0l-2.83-2.83a.82.82,0,0,1,1.16-1.15l2.83,2.83A.83.83,0,0,1,34.71,72.21Z" transform="translate(0 0)"/><path class="cls-3" d="M60.27,72.21a.81.81,0,0,1,0-1.15l2.83-2.83a.82.82,0,0,1,1.16,1.15l-2.84,2.83A.81.81,0,0,1,60.27,72.21Z" transform="translate(0 0)"/><path class="cls-3" d="M65.86,85a.81.81,0,0,1,.81-.81h4a.82.82,0,0,1,0,1.63h-4A.82.82,0,0,1,65.86,85Z" transform="translate(0 0)"/><path class="cls-3" d="M23.49,85a.81.81,0,0,1,.81-.81h4a.82.82,0,1,1,0,1.63h-4A.82.82,0,0,1,23.49,85Z" transform="translate(0 0)"/><path class="cls-3" d="M41.55,94.22a6.11,6.11,0,0,0,11.79,3.21c.88-3.26,2.4-32.08,2.4-32.08S42.44,91,41.55,94.22Zm8.87,2.41a3.09,3.09,0,1,1-2.17-3.78A3.08,3.08,0,0,1,50.42,96.63Z" transform="translate(0 0)"/><path class="cls-4" d="M51.35,168.5V147h4.33v8.46h8.5V147h4.33V168.5H64.18v-9.39h-8.5v9.39Z" transform="translate(0 0)"/><path class="cls-4" d="M73,147h7.93a15.56,15.56,0,0,1,4.08.41,7.17,7.17,0,0,1,3.24,2,9.42,9.42,0,0,1,2,3.48A15.8,15.8,0,0,1,91,158a14.43,14.43,0,0,1-.65,4.57,9.59,9.59,0,0,1-2.3,3.79A7.71,7.71,0,0,1,85,168a12.89,12.89,0,0,1-3.84.46H73Zm4.34,3.64v14.22h3.23a11.59,11.59,0,0,0,2.63-.21,4,4,0,0,0,1.75-.89,4.55,4.55,0,0,0,1.13-2.07,13.75,13.75,0,0,0,.44-3.94,12.58,12.58,0,0,0-.44-3.82,4.86,4.86,0,0,0-1.23-2.08,4.14,4.14,0,0,0-2-1,19.59,19.59,0,0,0-3.56-.2Z" transform="translate(0 0)"/></svg>