<?xml version="1.0" encoding="utf-8"?>
<!-- Generator: Adobe Illustrator 24.0.2, SVG Export Plug-In . SVG Version: 6.00 Build 0)  -->
<svg version="1.1" xmlns="http://www.w3.org/2000/svg" xmlns:xlink="http://www.w3.org/1999/xlink" x="0px" y="0px"
	 viewBox="0 0 141.7 56.9" style="enable-background:new 0 0 141.7 56.9;" xml:space="preserve">
<style type="text/css">
	.st0{fill:#FFFFFF;}
	.st1{enable-background:new    ;}
	.st2{fill:#D0043C;}
</style>
<g id="Laag_2">
	<polygon class="st0" points="5,8.2 18.9,8.2 18.9,5 30.3,5 30.3,8.2 102.7,8.2 102.7,5 113.8,5 113.8,8.2 130.6,8.2 135.2,8.2 
		139,15.2 139,42.8 131.1,50.8 113.8,51.9 102.7,51.9 102.7,48.7 30.3,48.7 30.3,51.9 18.9,51.9 18.9,48.7 5,48.7 	"/>
</g>
<g id="Laag_1">
	<g>
		<g class="st1">
			<path class="st2" d="M113.8,5v3.2h5h11.8c5.5,4.2,6.1,6.7,6.1,7.7v12.4V41c0,1.5-1.9,4.4-6.1,7.7h-11.8h-5v3.2h-11.1v-3.2h-5
				H35.3h-5v3.2H18.9v-3.2h-5H5V8.2h8.9h5V5h11.4v3.2h5h62.4h5V5H113.8 M118.8,0H97.7v3.2H35.3V0H13.9v3.2H0v50.4h13.9v3.2h21.4
				v-3.2h62.4v3.2h21.1v-3.2h13.5c4-2.9,9.5-7.8,9.5-12.7V28.3V15.9c0-5.2-5.4-9.8-9.5-12.7h-13.5V0L118.8,0z"/>
		</g>
	</g>
	<path class="st2" d="M118.3,44.7l8.6-0.5c0,0,1.6-9,1.6-15.9s-1.6-15.5-1.6-15.5l-8.6-0.7V44.7z"/>
</g>
</svg>
