<?xml version="1.0" encoding="utf-8"?>
<!-- Generator: Adobe Illustrator 24.0.2, SVG Export Plug-In . SVG Version: 6.00 Build 0)  -->
<svg version="1.1" xmlns="http://www.w3.org/2000/svg" xmlns:xlink="http://www.w3.org/1999/xlink" x="0px" y="0px"
	 viewBox="0 0 141.7 56.9" style="enable-background:new 0 0 141.7 56.9;" xml:space="preserve">
<style type="text/css">
	.st0{fill:#FFFFFF;}
	.st1{fill:#D0043C;}
</style>
<g id="Laag_2">
	<polygon class="st0" points="5,8.2 18.9,8.2 18.9,5 30.3,5 30.3,8.2 102.7,8.2 102.7,5 113.8,5 113.8,8.2 134.9,8.2 139.5,15.1 
		139.5,42.2 131.5,51 113.8,51.9 102.7,51.9 102.7,48.7 30.3,48.7 30.3,51.9 18.9,51.9 18.9,48.7 5,48.7 	"/>
</g>
<g id="Laag_1">
	<title>F-NL-015_opstelplaats_redvoertuig</title>
	<g>
		<path class="st1" d="M113.8,5v3.2h16.8c5.5,4.2,6.1,6.7,6.1,7.7V41c0,1.5-1.9,4.4-6.1,7.7h-16.8v3.2h-11.1v-3.3H30.3v3.2H18.9
			v-3.2H5V8.2h13.9V5h11.4v3.2h72.4V5H113.8 M118.8,0H97.7v3.2H35.3V0H13.9v3.2H0v50.4h13.9v3.2h21.4v-3.2h62.4v3.2h21.1v-3.2h13.5
			c4-2.9,9.5-7.8,9.5-12.7V15.9c0-5.2-5.4-9.8-9.5-12.7h-13.5V0z"/>
	</g>
	<path class="st1" d="M118.3,44.7l8.6-0.5c0.9-5.2,1.5-10.5,1.6-15.9c-0.1-5.2-0.7-10.4-1.6-15.5l-8.6-0.7V44.7z"/>
	<path class="st1" d="M41.4,44.7V12.2h13.8c2.6-0.1,5.1,0.2,7.6,0.9c1.6,0.6,2.9,1.7,3.8,3.1c1,1.5,1.5,3.3,1.4,5.1
		c0.1,2.2-0.7,4.4-2.2,6c-1.7,1.7-4,2.8-6.4,3c1.3,0.7,2.5,1.7,3.5,2.7c1.4,1.7,2.6,3.4,3.7,5.3l4,6.3h-7.9L58,37.6
		c-1.1-1.7-2.2-3.3-3.5-4.8c-0.5-0.6-1.2-1.1-2-1.4c-1.1-0.3-2.2-0.4-3.3-0.4H48v13.6H41.4z M48,25.9h4.9c2,0.1,4,0,5.9-0.4
		c0.8-0.2,1.4-0.7,1.8-1.4c0.5-0.7,0.7-1.6,0.7-2.4c0-1-0.3-1.9-0.9-2.6c-0.6-0.7-1.5-1.2-2.5-1.3c-0.5-0.1-2.1-0.1-4.8-0.1H48V25.9
		z"/>
	<path class="st1" d="M81.7,44.7L70,12.2h7.1l8.3,24.1l8-24.1h7L88.7,44.7H81.7z"/>
</g>
</svg>
