<svg id="Laag_1" data-name="Laag 1" xmlns="http://www.w3.org/2000/svg" viewBox="0 0 141.73 123.94"><defs><style>.cls-1,.cls-2{fill:#1d1d1b;}.cls-2{fill-rule:evenodd;}</style></defs><title>R-NL-008 Hoefdieren groot</title><path class="cls-1" d="M70.87,4l67.42,117.91H3.45L70.87,4m0-4L0,123.94H141.73L70.87,0Z"/><path class="cls-2" d="M98.5,104.68a10.92,10.92,0,0,1-.13,2.43,16.58,16.58,0,0,0,.21,2.52,18,18,0,0,0,.86,4.17,2.59,2.59,0,0,1-.16,1.71c-.09.25-.29.4-.57.11s-.5-.19-.57.22a11.59,11.59,0,0,1-.27,1.45,1.29,1.29,0,0,1-1.09,1,6.55,6.55,0,0,1-2.82.11c-.79-.19-.88-.43-.41-1.07a6,6,0,0,1,1.81-1.82,1.48,1.48,0,0,0,.69-1.19,21.1,21.1,0,0,0-.26-6,2.91,2.91,0,0,0-.6-1.34c-.44-.54-.46-1.3-.9-1.84-.14-.17-.18-.51-.43-.47s-.3.37-.39.59a3.42,3.42,0,0,0-.08,1.15c0,.74-.26,1.17-.68,1.24s-.72-.21-1-.92l-.09-.25a1.3,1.3,0,0,0-1.53-1.07.57.57,0,0,0-.63.51,9.85,9.85,0,0,1-.18,1,.76.76,0,0,1-.7.68c-.43,0-.61-.29-.74-.64a5.2,5.2,0,0,1-.2-1.36.9.9,0,0,0-.66-.9,4.08,4.08,0,0,1-1.63-1.22q-.39-.44-.81-.84a2,2,0,0,0-2.22-.47,11,11,0,0,1-4.6.38,19.5,19.5,0,0,1-4.27-.93c-.72-.19-.7-.18-.9.5s-.42,1.49-.68,2.23a4.26,4.26,0,0,0-.26,1.8,4.51,4.51,0,0,1-.08,1.27,20.58,20.58,0,0,0,.21,7.34,5.4,5.4,0,0,1,.15,1.2c0,.48-.31.64-.71.37s-.45-.08-.59.19a3,3,0,0,1-4,1.68c-.92-.28-1-.84-.35-1.49a5.1,5.1,0,0,1,1.29-.91,2.09,2.09,0,0,0,1.14-1.5,18.09,18.09,0,0,0,.29-4.47,3,3,0,0,0-.35-1.82,1.74,1.74,0,0,1-.24-.75,7.43,7.43,0,0,0-1.74-3.84l-1.05-1.39c-.18,1.27-.41,2.37-.46,3.49,0,.88-.09,1.75-.21,2.62a22.32,22.32,0,0,0,.36,6.82,4.67,4.67,0,0,1,.1,1c0,.44-.29.59-.63.34s-.53-.09-.69.24a3,3,0,0,1-4,1.59q-1.29-.46-.33-1.44a4.59,4.59,0,0,1,1.25-.89,2.28,2.28,0,0,0,1.3-1.86,20.23,20.23,0,0,0,.21-4.26,4.16,4.16,0,0,0-.39-1.87,15.7,15.7,0,0,1-.48-1.94,13.7,13.7,0,0,0-2.12-3.39c-1.13-1.5-2.41-2.9-3.45-4.47a8.89,8.89,0,0,1-1.21-2.57,13.66,13.66,0,0,0-2.56-5c-1-1.25-1.75-2.64-2.65-3.94-.24-.35-.51-.68-.72-1a2.21,2.21,0,0,0-2.51-1.09,11.59,11.59,0,0,1-3,0,3.71,3.71,0,0,0-1.05.06c-1.15.24-2.34.27-3.47.62a2.89,2.89,0,0,1-1.21,0A1.61,1.61,0,0,1,36,83.71c0-.16-.06-.32-.11-.47a1.32,1.32,0,0,1,.69-1.69,11.73,11.73,0,0,0,2-1.71,15,15,0,0,0,1.93-2.69,2.83,2.83,0,0,0,.23-.54c.19-.62.14-.69-.49-.79a3.45,3.45,0,0,1-2.2-1.25.5.5,0,0,1,.12-.86,2.88,2.88,0,0,1,2.1-.54,10.9,10.9,0,0,1,2,.56c.37.14.59.09.76-.29a5.66,5.66,0,0,1,1-1.38c.45-.52.26-1.13.13-1.71a5.34,5.34,0,0,0-.88-1.6c.17-.16.29,0,.4,0a4.07,4.07,0,0,1,2.1,2.34c.11.33.23.54.63.56a2.67,2.67,0,0,1,1.24.43.6.6,0,0,0,.83-.13,3.72,3.72,0,0,0,1-3.55c0-.15-.06-.31-.08-.46s0-.06.05-.1c.22,0,.31.22.41.36a4.48,4.48,0,0,1,.4,5c-.18.32-.11.46.17.66a25.61,25.61,0,0,0,7,3.12,19.09,19.09,0,0,0,3.88,1A13.58,13.58,0,0,0,63.78,78a29.76,29.76,0,0,1,5.17.14c1.8.21,3.61.3,5.42.38,2.41.12,4.82.23,7.23.26s5-.21,7.54-.37c.87-.06,1.72.07,2.59,0,2.18-.07,4.36-.15,6.54-.09a9.21,9.21,0,0,1,2.61.38,6.18,6.18,0,0,1,4.33,5.18,23.51,23.51,0,0,1,.05,6.27,19.65,19.65,0,0,0,.95,8.58c.83,2.32.12,4.46-.93,6.54-.06.13-.12.34-.31.29s-.1-.24-.12-.37a6.2,6.2,0,0,0-.4-1.91,11.14,11.14,0,0,1-.73-4.45c0-2.13.15-4.26.13-6.39a30.53,30.53,0,0,0-.37-6.26,1.54,1.54,0,0,0-.12-.34c-.17,1.6-.36,3.2-.68,4.77a26.52,26.52,0,0,1-1.75,5.64,1.91,1.91,0,0,0-.12,1.27c.31,1.23.55,2.47.93,3.69a7.33,7.33,0,0,0,.74,1.67,4.47,4.47,0,0,1,.64,3,15.22,15.22,0,0,0,.1,4,17.2,17.2,0,0,0,.8,3.82,2.85,2.85,0,0,1-.06,1.71c-.11.46-.31.49-.68.2s-.45.07-.5.3c-.11.48-.15,1-.29,1.44a1.34,1.34,0,0,1-1.09,1,6.85,6.85,0,0,1-2.78.11c-.87-.2-1-.41-.43-1.11a5.47,5.47,0,0,1,1.78-1.77,1.38,1.38,0,0,0,.66-1.1,21.16,21.16,0,0,0,.05-4.21c0-.47-.11-1-.17-1.41a3.38,3.38,0,0,0-.71-1.8,2.46,2.46,0,0,1-.4-.85A3.71,3.71,0,0,0,98.5,104.68Z"/></svg>