<svg id="Laag_1" data-name="Laag 1" xmlns="http://www.w3.org/2000/svg" viewBox="0 0 141.73 123.94"><defs><style>.cls-1,.cls-2{fill:#1d1d1b;}.cls-2{fill-rule:evenodd;}</style></defs><title>R-NL-007 Paarden</title><path class="cls-1" d="M70.86,4l67.43,117.91H3.45L70.86,4m0-4L0,123.94H141.73L70.86,0Z"/><path class="cls-2" d="M104.92,114.47l.43.2a.85.85,0,0,0,.51.1,1.07,1.07,0,0,1,.74.18,6.07,6.07,0,0,0,1.75.66.73.73,0,0,0,1-.64,7.16,7.16,0,0,0,0-2.61,29.11,29.11,0,0,0-.71-3,9.77,9.77,0,0,1-.2-3.14,3.13,3.13,0,0,0-.08-.92,4.53,4.53,0,0,1,0-2,12.76,12.76,0,0,0,.15-3.27,34.58,34.58,0,0,1,0-5.19,21.06,21.06,0,0,0,.09-3.55,16.28,16.28,0,0,0-.88-4.31,21.35,21.35,0,0,0-2-4.33,8.87,8.87,0,0,0-3.48-3.26,63.08,63.08,0,0,0-6.71-3.15,18,18,0,0,0-5-1.18,16.67,16.67,0,0,0-3.93.19c-1.52.24-3,.53-4.57.77a16.17,16.17,0,0,1-5.42,0,8.43,8.43,0,0,1-4.25-2.08c-.87-.77-1.69-1.59-2.63-2.28a2.07,2.07,0,0,1-.58-.7,6.77,6.77,0,0,0-1.6-2c-.63-.53-1.18-1.14-1.76-1.72a14.31,14.31,0,0,0-2-1.7,27.43,27.43,0,0,1-2.49-2.08,10.94,10.94,0,0,0-5-2.54A9.55,9.55,0,0,1,53.75,60,4,4,0,0,0,52,59.57l-1.17,0a1.18,1.18,0,0,0-.42,0,.68.68,0,0,1-.72-.14,22.1,22.1,0,0,1-2-1.64.75.75,0,0,0-.6-.19c-.21,0-.27.17-.29.34a2.34,2.34,0,0,0,.06.7c0,.21,0,.23-.19.16a9.25,9.25,0,0,1-1-.51,2,2,0,0,0-.47-.21c-.27-.06-.42,0-.4.32a2.69,2.69,0,0,0,.31,1.08c.23.42.48.82.72,1.23a.59.59,0,0,0,0,.08c.45.8.43,1-.17,1.72a2.86,2.86,0,0,0-.46.77,10.18,10.18,0,0,0-.72,2.7c0,.28-.1.55-.15.83A2.35,2.35,0,0,1,43.76,68a6.27,6.27,0,0,0-1.4,2.47,12.05,12.05,0,0,1-.7,1.75,8.1,8.1,0,0,0-.34,1,1.55,1.55,0,0,1-.49.76,1.34,1.34,0,0,0-.31,1.23,2.14,2.14,0,0,0,.13.48,5.06,5.06,0,0,0,1.56,2,2.65,2.65,0,0,0,2.12.41,4.87,4.87,0,0,0,.92-.2,1.57,1.57,0,0,0,1-.84,3.08,3.08,0,0,0,.21-.53,3.09,3.09,0,0,1,1.18-1.71c.66-.51,1.29-1,1.94-1.57A5.09,5.09,0,0,1,52,72.12a1.31,1.31,0,0,1,1.35.5,7.42,7.42,0,0,1,1.06,2c.25.66.49,1.34.75,2a20.64,20.64,0,0,0,1.34,2.44,5.54,5.54,0,0,1,.73,2,6.93,6.93,0,0,1-.09,1.58A19.12,19.12,0,0,0,57,86.59a9.76,9.76,0,0,0,.93,3.29,3.65,3.65,0,0,0,.58.83,2.56,2.56,0,0,1,.67,1.93,7.64,7.64,0,0,0,.55,2.91,15.7,15.7,0,0,1,.62,4.87c0,.48,0,1,0,1.44a34,34,0,0,0,.21,3.64,20.06,20.06,0,0,1,0,4c-.07.59-.16,1.18-.26,1.77A4.46,4.46,0,0,1,59,113.74a2.29,2.29,0,0,0-.6,1.1,3.59,3.59,0,0,1-.52,1.08,5.68,5.68,0,0,0-.62,1.2c-.19.64,0,1,.64,1.18a6.66,6.66,0,0,0,2.18.12,7.72,7.72,0,0,1,1.36,0,3,3,0,0,0,.43,0,.67.67,0,0,0,.76-.61,2.51,2.51,0,0,1,.55-1,1.5,1.5,0,0,0,.31-1.46,1.61,1.61,0,0,1,.4-1.63c.11-.12.22-.26.33-.37a2.35,2.35,0,0,0,.65-2.47,28.26,28.26,0,0,1-.36-5.51c0-.67.11.2.18-.47a17.37,17.37,0,0,0-.09-3.88,14.18,14.18,0,0,1,.15-4.5q.11-.48.24-1a6,6,0,0,1,.21,1.11c.21,1.45.28,3.5.5,5,.11.76.32,3.51.47,4.27a30,30,0,0,1,.26,3,10.4,10.4,0,0,1-.08,2.3,3,3,0,0,0,0,.84,2.29,2.29,0,0,1-.34,1.49c-.14.25-.29.49-.44.74a3.42,3.42,0,0,0-.46,1.14,2.53,2.53,0,0,1-.43.87,3.66,3.66,0,0,0-.51,1,.61.61,0,0,0,.34.83,3.44,3.44,0,0,0,1.41.38,3.38,3.38,0,0,0,1.66-.24,4.49,4.49,0,0,1,1.24-.3,1.59,1.59,0,0,0,1.49-2.21c-.11-.44-.3-.86-.39-1.3a1.16,1.16,0,0,1,.16-.91,2.45,2.45,0,0,1,.26-.37,2.34,2.34,0,0,0,.47-2.21c-.18-.79-.47-3.64-.72-4.41a11.37,11.37,0,0,1-.56-4.1c0-.35.09-.7.13-1a8.92,8.92,0,0,0-.21-3.05,5.7,5.7,0,0,1-.08-2.66c0-.27.08-.53.11-.79a.8.8,0,0,1,1-.76,3.13,3.13,0,0,1,.53.12,36.75,36.75,0,0,0,5.1,1,19,19,0,0,0,3.28.3,14.48,14.48,0,0,0,4-.55,22.44,22.44,0,0,0,2.26-.8c.26-.11.37-.09.45.17a6,6,0,0,0,1.31,2,13.09,13.09,0,0,1,1.2,1.86c.74,1.24,1.46,1.61,2.29,2.79a12.21,12.21,0,0,1,1.55,3.57c.15.5.33.54.4,1.06a8.31,8.31,0,0,1-.16,3,14.78,14.78,0,0,1-.65,2.15,6.11,6.11,0,0,0-.46,1.94,1.56,1.56,0,0,1-.41.89c-.26.31-.6.59-.63,1a3.41,3.41,0,0,1-.92,1.9,2.93,2.93,0,0,0-.52.82.64.64,0,0,0,.45,1,4.45,4.45,0,0,0,1.35.23c.63,0,1.25.06,1.88.06a2,2,0,0,0,1-.31,4.51,4.51,0,0,1,1-.48A1.93,1.93,0,0,0,96,115.57a1.66,1.66,0,0,0-.43-.76c-.06-.09-.14-.16-.2-.25a.38.38,0,0,1,.1-.59.83.83,0,0,1,.16-.09,1.91,1.91,0,0,0,1.15-1.68,10.28,10.28,0,0,0,0-2.6,15.11,15.11,0,0,1,.17-4.14c.15-.87.37-1.27.59-2.13a2.66,2.66,0,0,0-.36-2.19c-.42-.66-.82-.93-1.23-1.59a3.46,3.46,0,0,1-.74-2,13.9,13.9,0,0,1,0-1.58c0-.06,0-.14,0-.17s.1,0,.15.07a3,3,0,0,1,.74.91,8.36,8.36,0,0,1,.46.83,15,15,0,0,0,1.77,2.89,6.71,6.71,0,0,1,1.27,2.63,23.34,23.34,0,0,0,1,2.79,6.52,6.52,0,0,1,.58,2.88c0,.33-.06.66-.08,1a11.84,11.84,0,0,0,.11,1.57,3.82,3.82,0,0,1-.35,2.47,13,13,0,0,0-1,2.07c-.15.36-.42.67-.59,1-.36.78-.14,1.22.71,1.38a14.07,14.07,0,0,0,2.25.1,1.56,1.56,0,0,0,1.18-.33.74.74,0,0,1,.52-.13.78.78,0,0,0,.77-.39,7.71,7.71,0,0,1,.8-1,.77.77,0,0,0,0-1,5.09,5.09,0,0,1-.39-.63A.74.74,0,0,1,104.92,114.47Z"/></svg>