<svg id="Laag_1" data-name="Laag 1" xmlns="http://www.w3.org/2000/svg" viewBox="0 0 141.73 123.94"><defs><style>.cls-1,.cls-2{fill:#1d1d1b;}.cls-2{fill-rule:evenodd;}</style></defs><title>R-NL-010 Varkens</title><path class="cls-1" d="M70.87,4l67.42,117.91H3.45L70.87,4m0-4L0,123.94H141.73L70.87,0Z"/><path class="cls-2" d="M106,90.13a.74.74,0,0,1,.81,0c.27.2.11.45,0,.69s-.25.67-.33,1c-.13.58.11.91.69.95.32,0,.64,0,1,0v-.21l-.09,0c-.93-.64-.8-.55-.32-1.33a4,4,0,0,0,.41-1v-.75a1.67,1.67,0,0,0-1.59-1.35,1,1,0,0,1-.8-.58h0a11.24,11.24,0,0,1-.67-1.23,12.49,12.49,0,0,0-5.35-5.89,24.37,24.37,0,0,0-8.29-3.37,31.42,31.42,0,0,0-4.22-.32c-2.5-.09-5-.15-7.51-.12a4.74,4.74,0,0,0-1.24.16,19.92,19.92,0,0,1-4.28.7,29,29,0,0,0-5.15.92,33.35,33.35,0,0,1-5.8.82c-3.33.26-6.67.33-10,.71a30,30,0,0,0-6.12,1.47,3.22,3.22,0,0,1-1.87.26A2.35,2.35,0,0,1,44,80.81a7.16,7.16,0,0,0-3.2-2.16c-.23-.08-.48-.13-.66.08s-.1.44,0,.67a5.49,5.49,0,0,1,.43,1.13c0,.34-.08.47-.42.36a2.5,2.5,0,0,1-.6-.27,5.18,5.18,0,0,0-2.66-.69c-.4,0-.81,0-1.22,0-.26,0-.35.14-.19.38a1.37,1.37,0,0,0,.13.2,17,17,0,0,1,2.54,5c.2.58.45,1.14.69,1.7a1.22,1.22,0,0,1-.11,1.33,11.71,11.71,0,0,1-5.17,3.6,2.51,2.51,0,0,1-1.73,0,.54.54,0,0,0-.76.33,3.76,3.76,0,0,0-.33,2A10.51,10.51,0,0,0,30.93,96a1.05,1.05,0,0,0,.61.76,11.5,11.5,0,0,1,2.16,1.35A24.77,24.77,0,0,0,37.11,100c1.1.55,2.22,1,3.34,1.55a12.11,12.11,0,0,0,3.91.7,29.74,29.74,0,0,1,4.71.4c1.25.31,2.47.75,3.71,1.1.92.26,1.84.47,2.77.69a.77.77,0,0,1,.69.72c.21,1.64.61,3.23.9,4.85a4.09,4.09,0,0,1-.17,1.7,8.06,8.06,0,0,1-1,2.49c-.41.66-.79,1.33-1.19,2-.15.24-.09.35.19.35h2.55c.28,0,.4-.13.39-.41a1.89,1.89,0,0,1,.23-1.17c.17-.26.32-.52.7-.21s.67-.06.79-.46a7.31,7.31,0,0,0,.19-1.47,15.48,15.48,0,0,1,.31-2.64c.05-.2.06-.47.29-.52s.34.24.45.42a8.05,8.05,0,0,1,.88,2.12,2.73,2.73,0,0,1-.08,1.36,13.64,13.64,0,0,1-1.38,3.52l-.14.23c-.46.84-.41.94.53,1a12.28,12.28,0,0,0,2.26-.16c.64-.11.83-.37.8-1v-.19c0-.56,0-.56.54-.42a.65.65,0,0,0,.86-.51,5.54,5.54,0,0,0,.06-1.52c-.07-2.09-.29-4.17-.5-6.24a5.91,5.91,0,0,1,.64-3.49,2.51,2.51,0,0,1,2.32-1.38c2.84-.12,5.69-.13,8.53,0a4.9,4.9,0,0,1,1.53.31,8.15,8.15,0,0,0,5.93-.07c1.28-.46,2.53-1,3.8-1.45.89-.32,1-.25,1.17.66a3.47,3.47,0,0,0,.84,1.78c.21.25.41.51.63.75a4.74,4.74,0,0,1,.11,5.94,14.24,14.24,0,0,1-1.07,1.26,18.42,18.42,0,0,0-1.65,2c-.6.92-.38,1.37.71,1.44.63,0,1.25,0,1.88.08a.47.47,0,0,0,.53-.35,10,10,0,0,1,.65-1.55c.33-.58.57-.63,1.11-.25.38.28.61.23.86-.18a4.4,4.4,0,0,0,.35-.87,17.91,17.91,0,0,1,2.71-5.4,1.23,1.23,0,0,0,.3-1.16c0-.2,0-.32.24-.2a5.49,5.49,0,0,1,3.06,2.64c.23.52.5,1,.77,1.5a4.58,4.58,0,0,1,.25,3.61c-.34,1.12-.83,2.17-1.2,3.27a7.08,7.08,0,0,0-.22.75c-.09.44.1.68.55.7a3.12,3.12,0,0,0,1-.09c.62-.15,1.24-.32,1.86-.45a.61.61,0,0,0,.56-.68c0-.13,0-.26,0-.39,0-.58,0-.61.6-.75a1.18,1.18,0,0,0,.82-1.37,9.3,9.3,0,0,1-.41-3.59,29.71,29.71,0,0,1,.51-3,2.16,2.16,0,0,0-.76-2.26,7.5,7.5,0,0,1-2-3.12,1.36,1.36,0,0,1,0-1,8.73,8.73,0,0,1,.68-1.37,16.07,16.07,0,0,0,1.9-5.92c.16-1.18.15-2.37.31-3.55A1.43,1.43,0,0,1,106,90.13Z"/></svg>