<svg id="Laag_1" data-name="Laag 1" xmlns="http://www.w3.org/2000/svg" viewBox="0 0 141.73 123.94"><defs><style>.cls-1{fill:#1d1d1b;}</style></defs><title>R-NL-006 Mindervalide personen</title><path class="cls-1" d="M70.87,4l67.42,117.91H3.45L70.87,4m0-4L0,123.94H141.73L70.87,0Z"/><path class="cls-1" d="M65.83,50.29a7.14,7.14,0,1,0-5-8.78,7.14,7.14,0,0,0,5,8.78m1.67,1.55a6,6,0,0,0-5.21,6.68L65,80.93a6,6,0,0,0,6.4,5.24H90.1s9.18,21.62,9.22,21.68c.81,1.19,2.84,1,4.42.59,2.25-.6,3.81-2.07,3.48-3.28,0,0-10.69-25.13-10.84-25.39a3,3,0,0,0-1.3-1.4,3.19,3.19,0,0,0-1.22-.4,7.72,7.72,0,0,0-1.4-.09H76.74L76,70.93H89.38a2.65,2.65,0,0,0,0-5.3h-14l-1.18-8.57a6,6,0,0,0-6.68-5.22m8.55,63.68a25.54,25.54,0,0,0,19.79-9.37l.3-.37-2.68-6.35c-.1.18-.23.43-.33.59A19.82,19.82,0,0,1,56.25,89.94a19.22,19.22,0,0,1,6.06-14.25l-.85-6.81a25.06,25.06,0,0,0-11,21.06,25.58,25.58,0,0,0,25.58,25.58"/></svg>