<svg id="Laag_1" data-name="Laag 1" xmlns="http://www.w3.org/2000/svg" viewBox="0 0 141.73 123.94"><defs><style>.cls-1,.cls-2{fill:#1d1d1b;}.cls-2{fill-rule:evenodd;}</style></defs><title>R-NL-011 Pluimvee</title><path class="cls-1" d="M70.87,4l67.42,117.91H3.45L70.87,4m0-4L0,123.94H141.73L70.87,0Z"/><path class="cls-2" d="M78.6,85.78A3.53,3.53,0,0,1,79.88,88a2,2,0,0,0,.6.93c.38.38.76.75,1.13,1.14a.86.86,0,0,0,1,.34c-.34.19-.3.36-.09.59a3.63,3.63,0,0,1,.77,1.2c0,.11.13.33,0,.3-.54-.08-.36.31-.38.54-.13,1.1-.08,2.2-.1,3.3a1.28,1.28,0,0,1-.09.62c-.21-.23-.12-.51-.17-.75s-.06-.46-.12-.68,0-.42-.24-.41-.17.24-.21.39c-.21.77-.41,1.54-.62,2.32a.81.81,0,0,1-.3.58,3.6,3.6,0,0,1-.18-1.29c0-.48,0-1,0-1.44,0-.16-.09-.5-.33-.17s-.3.11-.38-.09-.07-.21-.11-.3-.31-.27-.36,0c-.15.69-.61,1.42.1,2.09a.35.35,0,0,1-.09.59,1,1,0,0,0-.51.75c0,.17-.16.27-.28.37s-.24.18-.14.31c.35.46-.06.64-.33.82a4.65,4.65,0,0,1-1.83.7,14.43,14.43,0,0,1-4.15.07c-.33,0-.67-.06-1-.08s-.85-.05-.7.62c0,.2-.12.36-.27.49A8.31,8.31,0,0,0,67.94,106a41.74,41.74,0,0,0-1.4,7.59c0,.09,0,.18,0,.27-.16.88-.16.88.65,1.16-.08.24-.33.26-.49.38-.41.3-.46.55-.1.91s.75.66,1.12,1a2.08,2.08,0,0,1,.27.32c.07.1.16.23,0,.34s-.23,0-.33-.08a1.64,1.64,0,0,1-.26-.2,1.57,1.57,0,0,0-1.86-.36,18.77,18.77,0,0,1-4,.84,2.09,2.09,0,0,0-.69.28c-.09,0-.21.09-.29,0s0-.17,0-.25.53-.41.28-.71a1.17,1.17,0,0,0-1-.29,1.91,1.91,0,0,0-.41.11c-.19.05-.42.31-.57.07s.16-.35.28-.52a.73.73,0,0,0,.05-.09c-.05-.17-.2-.13-.31-.11a11.73,11.73,0,0,0-2.21.56c-.29.14-.35,0-.34-.22,0-.5-.23-.58-.65-.46-.14,0-.32.16-.43,0s0-.34.2-.49a3.1,3.1,0,0,1,2.19-.65,3.71,3.71,0,0,0,2.26-.67,1,1,0,0,0,.47-.68c.33-2.79.65-5.58,1-8.36a1.28,1.28,0,0,0-.57-1.27c-1.12-.87-2.21-1.79-3.31-2.69a5.22,5.22,0,0,1-1.67-2.24c-.16-.42-.35-.82-.53-1.22a5.67,5.67,0,0,0-2-2.49,12.63,12.63,0,0,1-3.85-4.49,9,9,0,0,1-.85-3,9,9,0,0,0-.65-2.19A11.63,11.63,0,0,1,46.85,80a16.07,16.07,0,0,1,1.06-3.23,21.23,21.23,0,0,0,.78-2.33c0-.13.12-.29,0-.38s-.23.08-.31.16c-1,1-3.26.86-4.3.1a1.69,1.69,0,0,1-.72-1.87,6.49,6.49,0,0,1,.85-1.83c.25-.43.51-.85.73-1.3s.11-.7-.44-.67a5.15,5.15,0,0,0-2.18.43.7.7,0,0,1-.2.08c-.2,0-.43.15-.58-.08s0-.38.14-.52a6.58,6.58,0,0,1,1.44-1.35.72.72,0,0,0,.35-.75,11.56,11.56,0,0,1,.45-3.79c.15-.55.6-.64,1-.73,0-.31-.49-.37-.35-.61s.49-.09.75-.1c.59,0,.62-.06.49-.63a3.06,3.06,0,0,1-.1-.41c0-.24.08-.3.28-.21s.45.23.68.33c.63.27.74.22.94-.44.12-.42.27-.84.42-1.26a.42.42,0,0,1,.28-.35,6.6,6.6,0,0,1,.34,1.15c.08.23.14.48.23.71s.12.41.36.4.31-.23.36-.42c.11-.39.19-.78.29-1.19.27.11.24.36.33.54s.14.4.23.59.2.46.46.48.2-.31.41-.44c.2.48.6.52,1.07.52.68,0,1.4,1.23,1.12,1.93a2.76,2.76,0,0,1-1.92,1.84c-.12,0-.29,0-.29.17s.14.19.24.26c.9.61,1.8,1.21,2.69,1.83a20,20,0,0,1,5.9,6.78c.52.93,1.05,1.86,1.61,2.77a6.09,6.09,0,0,0,5.73,3.29,27.36,27.36,0,0,1,4.05.07c.32,0,.39-.15.46-.39.33-1.15.63-2.3,1-3.43a23.66,23.66,0,0,1,4.66-7.65A16.57,16.57,0,0,1,81.05,65a13.91,13.91,0,0,1,6.59-2.09,12.85,12.85,0,0,1,14.41,11.18,13.55,13.55,0,0,1-.59,7.35,4.21,4.21,0,0,1-1.13,1.67c0-.58.08-1.15.14-1.73a23.3,23.3,0,0,0,0-5.84c-.64-4.28-3.66-6.54-7.54-7.38-.17,0-.44-.13-.53.08s.18.31.33.41c.47.32,1,.61,1.42,1a1.12,1.12,0,0,1,0,2c-.31.22-.66.39-1,.62.39.2.73.35,1,.53.9.52,1,1.25.18,1.92-.3.26-.66.45-.27.92.11.13,0,.31-.06.46a3.66,3.66,0,0,1-1.21,1.52c-.16.12-.46.18-.37.44s.33.14.52.15a1.8,1.8,0,0,1,1.27.46c.36.32.41.64,0,.9s-.4.59-.1,1a6,6,0,0,1,1,4.63,8.34,8.34,0,0,1-1.37,3.61c-.08.12-.15.34-.34.28s-.11-.28-.1-.43A15.57,15.57,0,0,0,93,83.83,9.73,9.73,0,0,0,92,81c-.3-.54-.46-.57-.94-.18a6.22,6.22,0,0,1-1.56.8c-.55.25-1.11.48-1.66.72-.14.07-.36.08-.38.26s.21.21.35.28A6.76,6.76,0,0,1,90,84.62a3,3,0,0,1,.55.91c.19.54,0,.84-.52.92s-.64.19-.37.64a.73.73,0,0,1,.08.25c.19.93,0,1.11-.91,1-1.37-.1-2.67-.64-4.08-.53.11-.19.3,0,.49-.23C83,87.05,80.87,86.19,78.6,85.78ZM63.66,114.35a3.55,3.55,0,0,1-1.48.62c-.14,0-.36,0-.37.22s.21.27.37.3c.51.1,1,.15,1.53.26a.51.51,0,0,0,.68-.41,3.63,3.63,0,0,0,.13-.57,67,67,0,0,0,.68-9.28.74.74,0,0,0-.23-.63c-.21-.18-.36-.58-.62-.53s-.3.49-.35.77c-.44,2.07-.92,4.12-1.54,6.14a8.66,8.66,0,0,0-.44,2.08c0,.49.18.71.65.79C63,114.17,63.34,114.1,63.66,114.35Z"/></svg>