<?xml version="1.0" encoding="utf-8"?>
<!-- Generator: Adobe Illustrator 24.0.2, SVG Export Plug-In . SVG Version: 6.00 Build 0)  -->
<svg version="1.1" xmlns="http://www.w3.org/2000/svg" xmlns:xlink="http://www.w3.org/1999/xlink" x="0px" y="0px"
	 viewBox="0 0 141.7 177.2" style="enable-background:new 0 0 141.7 177.2;" xml:space="preserve">
<style type="text/css">
	.st0{fill:#FFFFFF;}
	.st1{fill:#1D1D1B;}
	.st2{fill:#007E48;}
</style>
<g id="Laag_2">
	<rect y="0" class="st0" width="141.7" height="177.2"/>
</g>
<g id="Laag_1">
	<title>F-NL-018 Hoofdafsluiter water</title>
	<path class="st1" d="M62.1,167.7l-5.1-21.5h4.4l3.2,14.8l3.9-14.8h5.1l3.8,15l3.3-15h4.4l-5.2,21.5h-4.6L71,151.7l-4.3,16.1H62.1z"
		/>
	<path class="st1" d="M0,0v177.2h141.7V0H0z M4.8,4.8h132.1v132.1H4.8V4.8z M136.9,172.2H4.8v-30.5h132.1V172.2z"/>
	<polygon class="st1" points="129.6,68.4 116.2,68.4 116.2,43.6 70.9,69.9 25.5,43.6 25.5,68.4 12.2,68.4 12.2,74.4 25.5,74.4 
		25.5,98.1 70.9,71.9 116.2,98.1 116.2,74.4 129.6,74.4 	"/>
	<polygon class="st2" points="73.6,70.9 114.2,47.4 114.2,94.3 	"/>
	<polygon class="st2" points="68.2,70.9 27.5,47.4 27.5,94.3 	"/>
</g>
</svg>
