<?xml version="1.0" encoding="utf-8"?>
<!-- Generator: Adobe Illustrator 24.0.2, SVG Export Plug-In . SVG Version: 6.00 Build 0)  -->
<svg version="1.1" xmlns="http://www.w3.org/2000/svg" xmlns:xlink="http://www.w3.org/1999/xlink" x="0px" y="0px"
	 viewBox="0 0 141.7 177.2" style="enable-background:new 0 0 141.7 177.2;" xml:space="preserve">
<style type="text/css">
	.st0{fill:#FFFFFF;}
	.st1{fill:#1D1D1B;}
	.st2{fill:#FFD300;}
</style>
<g id="Laag_2">
	<rect y="0" class="st0" width="141.7" height="177.2"/>
</g>
<g id="Laag_1">
	<title>F-NL-019 Hoofdafsluiter gas</title>
	<path class="st1" d="M71.5,159.8v-3.6h9.3v8.6c-1.2,1-2.5,1.8-3.9,2.3c-1.7,0.7-3.4,1-5.2,1c-2,0-4.1-0.4-5.9-1.4
		c-1.7-0.9-3-2.3-3.8-4.1c-0.8-1.8-1.3-3.7-1.3-5.7c0-2.1,0.4-4.1,1.4-6c0.9-1.7,2.4-3.1,4.1-4c1.6-0.8,3.4-1.1,5.1-1.1
		c2.2-0.1,4.4,0.5,6.3,1.7c1.5,1.1,2.5,2.8,2.9,4.6l-4.3,0.8c-0.3-1-0.9-1.9-1.7-2.5c-0.9-0.6-2-1-3.1-0.9c-1.7-0.1-3.3,0.6-4.5,1.8
		c-1.2,1.5-1.8,3.4-1.7,5.4c0,2.5,0.6,4.5,1.7,5.7c1.1,1.3,2.8,2,4.5,1.9c0.9,0,1.9-0.2,2.7-0.5c0.8-0.3,1.6-0.8,2.3-1.3v-2.7
		L71.5,159.8z"/>
	<path class="st1" d="M0,0v177.2h141.7V0H0z M4.8,4.8h132.1v132.1H4.8V4.8z M136.9,172.2H4.8v-30.5h132.1V172.2z"/>
	<polygon class="st1" points="129.6,68.4 116.2,68.4 116.2,43.6 70.9,69.9 25.5,43.6 25.5,68.4 12.2,68.4 12.2,74.4 25.5,74.4 
		25.5,98.1 70.9,71.9 116.2,98.1 116.2,74.4 129.6,74.4 	"/>
	<polygon class="st2" points="73.6,70.9 114.2,47.4 114.2,94.3 	"/>
	<polygon class="st2" points="68.2,70.9 27.5,47.4 27.5,94.3 	"/>
</g>
</svg>
