<?xml version="1.0" encoding="utf-8"?>
<!-- Generator: Adobe Illustrator 24.0.2, SVG Export Plug-In . SVG Version: 6.00 Build 0)  -->
<svg version="1.1" xmlns="http://www.w3.org/2000/svg" xmlns:xlink="http://www.w3.org/1999/xlink" x="0px" y="0px"
	 viewBox="0 0 141.7 177.2" style="enable-background:new 0 0 141.7 177.2;" xml:space="preserve">
<style type="text/css">
	.st0{fill:#FFFFFF;}
	.st1{fill:#1D1D1B;}
	.st2{fill:#D0043C;}
	.st3{font-family:'Arial-BoldMT';}
	.st4{font-size:30px;}
</style>
<g id="Laag_2">
	<rect y="0" class="st0" width="141.7" height="177.2"/>
</g>
<g id="Layer_1">
	<title>F-NL-016 Noodschakelaar-Ne</title>
	<path class="st1" d="M30.6,75.9c0-0.5,0.3-1,0.7-1.2l2.2-1.7c0.4-0.4,0.7-0.9,0.7-1.4v-8h0.9c0.9,0,1.6,0.7,1.6,1.6c0,0,0,0,0,0v9
		c0.1,1,0.9,1.8,1.8,1.8h0.6v19.2h84.6V18H39.2v24.9h-0.6c-1,0.1-1.7,0.8-1.8,1.8v5.6c0,1-0.8,1.7-1.8,1.8h-0.7V40.3H19.9v31.2
		c0,0.6,0.2,1.1,0.7,1.4l2.2,1.7c0.4,0.3,0.7,0.7,0.7,1.2l0.9,19.3c-4.2,1.8-7.1,7.9-7.1,15.5c0,9.2,4.2,16.1,9.8,16.1
		s9.8-6.9,9.8-16.1c0-7.6-2.9-13.7-7.1-15.5L30.6,75.9z M27.1,121.8c-2.1,0-4.8-4.6-4.8-11.1s2.7-11.1,4.8-11.1s4.8,4.6,4.8,11.1
		S29.2,121.8,27.1,121.8z"/>
	<path class="st1" d="M0,0v177.2h141.7V0H0z M4.8,4.8h132.1v132.1H4.8V4.8z M136.9,172.2H4.8v-30.5h132.1V172.2z"/>
	<rect x="42" y="20.6" class="st2" width="79.1" height="72.1"/>
	<text transform="matrix(1 0 0 1 51.24 167.72)" class="st1 st3 st4">Ne</text>
</g>
</svg>
