<svg xmlns="http://www.w3.org/2000/svg" viewBox="0 0 141.73 177.16"><defs><style>.cls-1{fill:#fff;}.cls-2{fill:#1d1d1b;}.cls-3{fill:#d0043c;}</style></defs><title>F-NL-016 Noodschakelaar</title><g id="Laag_2" data-name="Laag 2"><rect class="cls-1" width="141.73" height="177.16"/></g><g id="Layer_1" data-name="Layer 1"><path class="cls-2" d="M30.61,75.89a1.37,1.37,0,0,1,.7-1.24L33.52,73a2.32,2.32,0,0,0,.74-1.45v-8h.9a1.59,1.59,0,0,1,1.6,1.61v9A2,2,0,0,0,38.6,76h.6V95.19h84.6V18H39.2V42.87h-.6a2,2,0,0,0-1.84,1.8v5.57A1.8,1.8,0,0,1,35,52h-.7V40.31H19.91V71.55A1.64,1.64,0,0,0,20.62,73l2.19,1.65a1.9,1.9,0,0,1,.72,1.24l.88,19.31c-4.22,1.81-7.15,7.88-7.15,15.52,0,9.16,4.21,16.06,9.8,16.06s9.81-6.9,9.81-16.06c0-7.64-2.94-13.71-7.15-15.52Zm-3.55,45.89c-2.1,0-4.8-4.59-4.8-11.06s2.7-11.07,4.8-11.07,4.81,4.59,4.81,11.07S29.16,121.78,27.06,121.78Z"/><path class="cls-2" d="M39,167.72V146.25h9.12a15.52,15.52,0,0,1,5,.58,4.86,4.86,0,0,1,2.49,2.06,6.12,6.12,0,0,1,.94,3.38,5.72,5.72,0,0,1-1.42,4,6.86,6.86,0,0,1-4.25,2,9.71,9.71,0,0,1,2.32,1.8,23.67,23.67,0,0,1,2.47,3.48l2.62,4.19H53.15L50,163.05a30.88,30.88,0,0,0-2.28-3.16,3.41,3.41,0,0,0-1.3-.89,7.24,7.24,0,0,0-2.19-.24h-.88v9Zm4.33-12.39h3.21a17.05,17.05,0,0,0,3.9-.26,2.32,2.32,0,0,0,1.21-.91,2.75,2.75,0,0,0,.44-1.61,2.53,2.53,0,0,0-.58-1.75,2.63,2.63,0,0,0-1.63-.85c-.35,0-1.4-.07-3.16-.07H43.36Z"/><path class="cls-2" d="M63.18,167.72l-5.12-21.47h4.43L65.73,161l3.93-14.75h5.15l3.77,15,3.29-15h4.37L81,167.72H76.43l-4.28-16.05-4.27,16.05Z"/><path class="cls-2" d="M106.16,167.72h-4.72l-1.87-4.87H91l-1.77,4.87h-4.6L93,146.25h4.58Zm-8-8.49-3-8-2.9,8Z"/><path class="cls-2" d="M0,0V177.16H141.73V0ZM4.81,4.81H136.92V136.92H4.81Zm132.11,167.4H4.81V141.73H136.92Z"/><rect class="cls-3" x="41.98" y="20.58" width="79.06" height="72.1"/></g></svg>