<?xml version="1.0" encoding="utf-8"?>
<!-- Generator: Adobe Illustrator 24.0.2, SVG Export Plug-In . SVG Version: 6.00 Build 0)  -->
<svg version="1.1" xmlns="http://www.w3.org/2000/svg" xmlns:xlink="http://www.w3.org/1999/xlink" x="0px" y="0px"
	 viewBox="0 0 141.7 141.7" style="enable-background:new 0 0 141.7 141.7;" xml:space="preserve">
<style type="text/css">
	.st0{fill:#FFFFFF;}
	.st1{fill:#D0043C;}
	.st2{fill:#A60032;}
	.st3{fill-rule:evenodd;clip-rule:evenodd;fill:#FFFFFF;}
</style>
<g id="Laag_2">
	<rect y="0" class="st0" width="141.7" height="141.7"/>
</g>
<g id="Laag_1">
	<title>F-NL-023 RWA</title>
	<rect y="0" class="st1" width="141.7" height="141.7"/>
	<path class="st0" d="M53.8,47.5c0.8,2.5,1.6,4.9,2.5,7.4c0.2,0.5-0.2,0.6-0.5,0.7c-2.8,1.3-5.6,2.6-8.4,3.9
		c-0.3,0.1-0.5,0.4-0.6,0.7c-0.9,3.9-4.8,6.4-8.7,5.5c-2.5-0.6-4.5-2.4-5.3-4.9c0-0.2-0.1-0.3-0.2-0.5c-3,0-6.1,0-9.1,0
		c-0.2,0-0.5,0.1-0.7,0.3c-3,2.9-5.9,5.9-8.9,8.9c-0.2,0.3-0.3,0.6-0.3,0.9c0,3.1,0,6.3,0,9.5v50.8H9v-0.8C9,109,9,88.2,9,67.4
		c0-0.5,0.2-1,0.5-1.3c3.3-3.3,6.7-6.7,10-10c0.3-0.3,0.8-0.5,1.3-0.5c3.8,0,7.7,0,11.5,0c0.4,0,0.7-0.2,0.9-0.5
		c1.8-3.5,6.1-4.8,9.7-3.1c0.3,0.2,0.7,0.2,1,0c3.2-1.5,6.3-2.9,9.5-4.4C53.4,47.6,53.6,47.6,53.8,47.5z M42.7,58.5
		c0-1.8-1.4-3.2-3.1-3.2c0,0,0,0,0,0c-1.7,0-3.1,1.4-3.1,3.1c0,1.7,1.4,3.2,3.1,3.2c0,0,0,0,0,0C41.3,61.6,42.7,60.2,42.7,58.5
		L42.7,58.5z"/>
	<path class="st0" d="M112.4,60.3v-4.6h0.8c2.6,0,5.1,0,7.7,0c0.5,0,1,0.2,1.3,0.5c3.3,3.3,6.6,6.7,10,9.9c0.4,0.3,0.6,0.8,0.5,1.3
		c0,20.8,0,41.6,0,62.4v0.8h-4.3v-1c0-19.7,0-39.4,0-59.1c0-0.6-0.2-1.1-0.6-1.5c-2.8-2.7-5.5-5.5-8.3-8.3c-0.4-0.4-0.9-0.6-1.4-0.6
		C116.2,60.3,114.4,60.3,112.4,60.3z"/>
	<path class="st0" d="M87.2,23.5h-4.9l6.7-17.3h0.2c2.2,5.7,4.4,11.5,6.7,17.3c-1,0-1.9,0-2.8,0c-0.5-0.1-0.9,0.2-1.1,0.6
		c-2.6,4.6-3.2,10.1-1.7,15.2c1.1,4,2.5,7.9,3.8,11.8c1.2,3.1,2,6.4,2.5,9.7c0.5,4.2-0.5,8.5-2.9,12c-0.1,0.2-0.3,0.4-0.6,0.4
		c-1.5,0-2.9,0-4.4,0c0-0.1,0-0.2,0.1-0.3c2.5-4.3,3.3-9.4,2.3-14.3c-0.8-4.4-2.4-8.4-3.9-12.6c-1.3-3.5-2.2-7.1-2.7-10.8
		c-0.5-4,0.5-8,2.6-11.5C87,23.8,87.1,23.7,87.2,23.5z"/>
	<path class="st0" d="M54.7,23.2h-4.8c2.2-5.9,4.4-11.6,6.7-17.6c2.3,5.9,4.5,11.7,6.7,17.6c-1,0-1.9,0-2.7,0
		c-0.5-0.1-1,0.2-1.1,0.6c-2.3,4.2-3,9-2.1,13.7c0.8,4.4,2.4,8.5,3.9,12.6c1.3,3.4,2.2,6.9,2.7,10.5c0.5,4.2-0.5,8.5-2.9,12.1
		c-0.1,0.2-0.3,0.4-0.5,0.4c-1.5,0-3,0-4.5,0c0.1-0.1,0.2-0.4,0.3-0.6c2.4-4.3,3.1-9.3,2.1-14.1c-0.8-4.4-2.4-8.4-3.8-12.6
		c-1.3-3.5-2.2-7.1-2.7-10.8c-0.5-4,0.5-8.1,2.6-11.6C54.6,23.5,54.6,23.4,54.7,23.2z"/>
	<path class="st0" d="M71.2,23.5h-4.8c2.2-5.8,4.4-11.6,6.7-17.6l6.7,17.6c-1,0-1.9,0-2.8,0c-0.5-0.1-0.9,0.2-1.1,0.7
		c-2.3,4.2-3,9-2,13.7c0.8,4.5,2.5,8.8,4,13c1.3,3.3,2.1,6.7,2.6,10.2c0.5,4.2-0.5,8.5-2.9,12c-0.1,0.2-0.3,0.3-0.6,0.4
		c-1.5,0-2.9,0-4.4,0c0.1-0.2,0.2-0.4,0.3-0.6c2.4-4.3,3.1-9.3,2.1-14.1c-0.8-4.4-2.4-8.5-3.9-12.7c-1.3-3.5-2.2-7.1-2.7-10.8
		c-0.5-4,0.5-8,2.6-11.5C71,23.8,71.1,23.7,71.2,23.5z"/>
	<path class="st0" d="M105.2,32.8l-13.7,6.3c-0.2-1.5-0.5-2.8-0.6-4.1c0-1.4,0-2.8,0.1-4.1c0-0.3,0.2-0.6,0.4-0.7
		c3.4-1.6,6.8-3.2,10.3-4.8C102.9,27.9,104,30.3,105.2,32.8z"/>
	<path class="st0" d="M77.4,45.6c-0.7-2.3-1.3-4.5-1.9-6.7c-0.3-1.4-0.3-1.4,1-1.9l6.3-2.9c0.5,2.8,1,5.5,1.5,8.3L77.4,45.6z"/>
	<path class="st0" d="M63.4,52.1l-2.7-7.8l7.3-3.4l2.6,7.8L63.4,52.1z"/>
	<path class="st2" d="M42.7,58.5c0,1.7-1.4,3.1-3.1,3.1c0,0,0,0,0,0c-1.7,0-3.2-1.4-3.2-3.1c0,0,0,0,0,0c0-1.7,1.4-3.1,3.1-3.1
		C41.3,55.4,42.7,56.8,42.7,58.5C42.7,58.5,42.7,58.5,42.7,58.5z"/>
	<path class="st3" d="M66.4,77.1c1.7,0.7,3.3,1.7,4.8,2.8c2.5,2,4.7,4.4,6.5,7.1c2.3,3.6,3.9,7.4,5,11.5c0,0.1,0,0.1,0.1,0.2
		c0.6-0.5,1.1-1.1,1.4-1.8c0.7-1.6,1-3.5,0.7-5.3c-0.1-1.1-0.5-2.2-0.7-3.4c0.3,0.3,0.7,0.5,1,0.8c3,3,5.6,6.5,7.6,10.3
		c1.3,2.4,2.3,5,3,7.6c0.5,2.1,0.8,4.3,0.8,6.5c-0.1,3-0.8,6-2.1,8.7c-1.3,2.6-3,4.9-5,7c-1.6,1.6-3.4,3.1-5.3,4.4
		c-1.2,0.8-2.4,1.5-3.6,2.3c-0.1,0.1-0.2,0.1-0.3,0.1c2.9-5.9,3.4-12.6,1.7-18.9c-1.5-6.3-5.2-11.9-10.5-15.7
		c0.4,6-0.9,11.5-4.7,16.2c0.2-1.4,0.2-2.9-0.1-4.3c-0.2-1.5-0.8-2.9-1.6-4.1c-0.3,0.9-0.5,1.7-0.7,2.5c-0.9,2.6-2.1,5-3.6,7.3
		c-1.5,2-2.5,4.3-3,6.7c-0.3,1.7-0.3,3.4,0.1,5c0.3,1.6,0.9,3.2,1.6,4.8c0.1,0.2,0.1,0.4,0.1,0.5c-0.9-0.5-1.8-1-2.6-1.6
		c-1.6-1.1-3.2-2.2-4.8-3.5c-2.1-1.7-3.9-3.8-5.2-6.2c-1.4-2.7-1.9-5.7-1.6-8.7c0.3-3,1.1-5.9,2.5-8.6c1.2-2.5,2.4-5,3.5-7.5
		c0.7-1.6,1.2-3.4,1.3-5.1c0-0.1,0-0.2,0-0.3c1.6,2.9,2.4,6.2,2.3,9.5h0.1c0.3-0.4,0.7-0.8,1-1.2c2.1-2.6,4-5.3,5.6-8.2
		c1.6-2.7,2.9-5.6,3.8-8.6c0.7-2.2,1-4.5,1-6.8C66.6,78.5,66.5,77.8,66.4,77.1L66.4,77.1z"/>
</g>
</svg>
